<?xml version="1.0" standalone="no"?>
<!DOCTYPE svg PUBLIC "-//W3C//DTD SVG 1.1//EN" "http://www.w3.org/Graphics/SVG/1.1/DTD/svg11.dtd" >
<svg xmlns="http://www.w3.org/2000/svg" xmlns:xlink="http://www.w3.org/1999/xlink" version="1.1">
<metadata>
Created by FontForge 20190801 at Sat Jun 19 15:30:53 2021
 By root
Copyright 2015 The Alumni Sans Project Authors (https://github.com/googlefonts/alumni)
</metadata>
<defs>
<font id="AlumniSans-Medium" horiz-adv-x="0" >
  <font-face 
    font-family="Alumni Sans Medium"
    font-weight="500"
    font-stretch="normal"
    units-per-em="1000"
    panose-1="0 0 0 0 0 0 0 0 0 0"
    ascent="800"
    descent="-200"
    x-height="495"
    cap-height="591"
    bbox="-95 -294 942 816"
    underline-thickness="50"
    underline-position="-125"
    unicode-range="U+000D-FB02"
  />
<missing-glyph horiz-adv-x="437" 
d="M58 0l-8 9v611l8 10h320l9 -9v-613l-9 -8h-320zM50 9l313 612h24l-313 -612h-24zM363 9l-313 612h24l313 -612h-24zM91 46h255v537h-255v-537z" />
    <glyph glyph-name="f_f" unicode="ff" horiz-adv-x="507" 
d="M59 0v430h-31v46h31v57q0 29 7 48.5t20.5 31t30.5 16.5t37 5q17 0 34.5 -1t32.5 -2.5t21 -1.5v-40l-20.5 2t-44.5 2t-33.5 -20t-9.5 -42v-55h187v57q0 29 7 48.5t20 31t30 16.5t37 5q17 0 35 -1t32.5 -2.5t20.5 -1.5v-40l-20.5 2t-43.5 2q-25 0 -34 -20t-9 -42v-55h107
v-46h-107v-430h-75v430h-187v-430h-75z" />
    <glyph glyph-name="f_f_i" unicode="ffi" horiz-adv-x="689" 
d="M59 0v430h-31v46h31v57q0 29 7 48.5t20.5 31t30.5 16.5t37 5q17 0 34.5 -1t32.5 -2.5t21 -1.5v-40l-20.5 2t-44.5 2t-33.5 -20t-9.5 -42v-55h187v57q0 39 14.5 61t46 31t83.5 9q14 0 38.5 -1t54.5 -5.5t60 -15.5v-40q-16 6 -42 11t-54 7.5t-51 2.5q-32 0 -48 -9
t-21.5 -23.5t-5.5 -29.5v-55h251v-476h-75v430h-176v-430h-75v430h-187v-430h-75z" />
    <glyph glyph-name="f_f_l" unicode="ffl" horiz-adv-x="664" 
d="M59 0v430h-31v46h31v57q0 29 7 48.5t20.5 31t30.5 16.5t37 5q17 0 34.5 -1t32.5 -2.5t21 -1.5v-40l-20.5 2t-44.5 2t-33.5 -20t-9.5 -42v-55h108v-46h-108v-430h-75zM305 0v430h-31v46h31v57q0 29 7 48.5t20.5 31t30.5 16.5t37 5q17 0 34.5 -1t32.5 -2.5t21 -1.5v-40
l-20.5 2t-44.5 2t-33.5 -20t-9.5 -42v-55h108v-46h-108v-430h-75zM540 0v634h75v-634h-75z" />
    <glyph glyph-name="fi" unicode="fi" horiz-adv-x="418" 
d="M59 0v430h-31v46h31v57q0 29 7 48.5t20.5 31t30.5 16.5t37 5q17 0 34.5 -1t32.5 -2.5t21 -1.5v-40l-20.5 2t-44.5 2t-33.5 -20t-9.5 -42v-55h108v-46h-108v-430h-75zM295 0v495h75v-495h-75zM332 554q-17 0 -30 12.5t-13 29.5q0 18 13 30t31 12t30.5 -12t12.5 -30
q1 -17 -12.5 -29.5t-31.5 -12.5z" />
    <glyph glyph-name="fl" unicode="fl" horiz-adv-x="418" 
d="M59 0v430h-31v46h31v57q0 29 7 48.5t20.5 31t30.5 16.5t37 5q17 0 34.5 -1t32.5 -2.5t21 -1.5v-40l-20.5 2t-44.5 2t-33.5 -20t-9.5 -42v-55h108v-46h-108v-430h-75zM295 0v634h75v-634h-75z" />
    <glyph glyph-name=".notdef" horiz-adv-x="437" 
d="M58 0l-8 9v611l8 10h320l9 -9v-613l-9 -8h-320zM50 9l313 612h24l-313 -612h-24zM363 9l-313 612h24l313 -612h-24zM91 46h255v537h-255v-537z" />
    <glyph glyph-name="NULL" horiz-adv-x="600" 
 />
    <glyph glyph-name="CR" unicode="&#xd;" horiz-adv-x="600" 
 />
    <glyph glyph-name="space" unicode=" " horiz-adv-x="180" 
 />
    <glyph glyph-name="uni00A0" unicode="&#xa0;" horiz-adv-x="180" 
 />
    <glyph glyph-name="A" unicode="A" horiz-adv-x="377" 
d="M13 0l124 591h104l123 -591h-85l-28 130h-130l-26 -130h-82zM124 170h125l-62 337z" />
    <glyph glyph-name="uni0410" unicode="&#x410;" horiz-adv-x="377" 
d="M13 0l124 591h104l123 -591h-85l-28 130h-130l-26 -130h-82zM124 170h125l-62 337z" />
    <glyph glyph-name="AE" unicode="&#xc6;" horiz-adv-x="534" 
d="M7 0l195 591h298v-55h-190l2 -198h168v-60h-167l3 -224h195v-54h-279l-1 130h-100l-42 -130h-82zM138 170h98l6 321l1 16l-3 -14z" />
    <glyph glyph-name="Aacute" unicode="&#xc1;" horiz-adv-x="377" 
d="M13 0l124 591h104l123 -591h-85l-28 130h-130l-26 -130h-82zM124 170h125l-62 337zM137 634l80 86h75l-108 -86h-47z" />
    <glyph glyph-name="Abreve" unicode="&#x102;" horiz-adv-x="377" 
d="M13 0l124 591h104l123 -591h-85l-28 130h-130l-26 -130h-82zM124 170h125l-62 337zM187 630q-40 0 -62 15.5t-30.5 37t-9.5 39.5h44q3 -27 19.5 -40t38.5 -13q25 0 41 12.5t19 40.5h44q-1 -22 -11.5 -43t-33 -35t-59.5 -14z" />
    <glyph glyph-name="uni1EAE" unicode="&#x1eae;" horiz-adv-x="377" 
d="M13 0l124 591h104l123 -591h-85l-28 130h-130l-26 -130h-82zM124 170h125l-62 337zM188 626q-32 0 -48.5 11.5t-22.5 28t-7 30.5h43q1 -16 11 -24t24 -8t24.5 7.5t10.5 24.5h44q-1 -27 -18.5 -48.5t-60.5 -21.5zM155 710l39 70h74l-66 -70h-47z" />
    <glyph glyph-name="uni1EB6" unicode="&#x1eb6;" horiz-adv-x="377" 
d="M13 0l124 591h104l123 -591h-85l-28 130h-130l-26 -130h-82zM124 170h125l-62 337zM188 -114q-16 0 -26.5 11t-10.5 25q0 15 10.5 25.5t26.5 10.5q15 0 26.5 -10.5t11.5 -25.5q0 -14 -11.5 -25t-26.5 -11zM187 630q-40 0 -62 15.5t-30.5 37t-9.5 39.5h44q3 -27 19.5 -40
t38.5 -13q25 0 41 12.5t19 40.5h44q-1 -22 -11.5 -43t-33 -35t-59.5 -14z" />
    <glyph glyph-name="uni1EB0" unicode="&#x1eb0;" horiz-adv-x="377" 
d="M13 0l124 591h104l123 -591h-85l-28 130h-130l-26 -130h-82zM124 170h125l-62 337zM188 626q-32 0 -48.5 11.5t-22.5 28t-6 30.5h42q2 -17 12 -24.5t23 -7.5q15 0 25 7.5t11 24.5h43q-1 -27 -19 -48.5t-60 -21.5zM178 710l-66 70h74l40 -70h-48z" />
    <glyph glyph-name="uni1EB2" unicode="&#x1eb2;" horiz-adv-x="377" 
d="M13 0l124 591h104l123 -591h-85l-28 130h-130l-26 -130h-82zM124 170h125l-62 337zM188 626q-32 0 -48.5 11.5t-22.5 28t-7 30.5h43q1 -16 11 -24t24 -8t24.5 7.5t10.5 24.5h44q-1 -27 -18.5 -48.5t-60.5 -21.5zM167 710v9q0 11 8.5 16.5t16.5 10t8 12.5v4q0 7 -4 11.5
t-13 4.5q-6 0 -10.5 -4t-5.5 -11l-33 6q2 18 14.5 28t36.5 10q31 0 43.5 -10t12.5 -34v-3q0 -15 -8 -21t-16.5 -9.5t-8.5 -11.5v-8h-41z" />
    <glyph glyph-name="uni1EB4" unicode="&#x1eb4;" horiz-adv-x="377" 
d="M13 0l124 591h104l123 -591h-85l-28 130h-130l-26 -130h-82zM124 170h125l-62 337zM187 626q-32 0 -48.5 11.5t-22.5 28t-7 30.5h43q2 -16 12 -24t23 -8q15 0 25 7.5t11 24.5h43q0 -27 -18.5 -48.5t-60.5 -21.5zM220 712q-10 0 -18.5 4t-20.5 10q-6 4 -13 8t-17 4
q-8 0 -13 -7t-6 -18h-24q1 26 12.5 43t31.5 17q11 0 20.5 -3.5t17.5 -8.5q9 -5 16 -8.5t15 -3.5q9 0 14 5.5t6 17.5h26q0 -19 -7 -32.5t-17.5 -20.5t-22.5 -7z" />
    <glyph glyph-name="uni01CD" unicode="&#x1cd;" horiz-adv-x="377" 
d="M13 0l124 591h104l123 -591h-85l-28 130h-130l-26 -130h-82zM124 170h125l-62 337zM164 630l-88 86h52l61 -50l61 50h51l-89 -86h-48z" />
    <glyph glyph-name="Acircumflex" unicode="&#xc2;" horiz-adv-x="377" 
d="M13 0l124 591h104l123 -591h-85l-28 130h-130l-26 -130h-82zM124 170h125l-62 337zM73 630l92 92h47l92 -92h-50l-65 56l-64 -56h-52z" />
    <glyph glyph-name="uni1EA4" unicode="&#x1ea4;" horiz-adv-x="377" 
d="M13 0l124 591h104l123 -591h-85l-28 130h-130l-26 -130h-82zM124 170h125l-62 337zM101 626l66 73h43l66 -73h-46l-41 39l-40 -39h-48zM275 673l40 70h74l-66 -70h-48z" />
    <glyph glyph-name="uni1EAC" unicode="&#x1eac;" horiz-adv-x="377" 
d="M13 0l124 591h104l123 -591h-85l-28 130h-130l-26 -130h-82zM124 170h125l-62 337zM188 -114q-16 0 -26.5 11t-10.5 25q0 15 10.5 25.5t26.5 10.5q15 0 26.5 -10.5t11.5 -25.5q0 -14 -11.5 -25t-26.5 -11zM73 630l92 92h47l92 -92h-50l-65 56l-64 -56h-52z" />
    <glyph glyph-name="uni1EA6" unicode="&#x1ea6;" horiz-adv-x="377" 
d="M13 0l124 591h104l123 -591h-85l-28 130h-130l-26 -130h-82zM124 170h125l-62 337zM101 626l66 73h43l66 -73h-46l-41 39l-40 -39h-48zM298 672l-66 70h74l40 -70h-48z" />
    <glyph glyph-name="uni1EA8" unicode="&#x1ea8;" horiz-adv-x="377" 
d="M13 0l124 591h104l123 -591h-85l-28 130h-130l-26 -130h-82zM124 170h125l-62 337zM101 626l66 73h43l66 -73h-46l-41 39l-40 -39h-48zM284 670v10q0 10 8 15l16 10t8 13v4q0 7 -4 11.5t-12 4.5q-12 0 -15 -15l-33 6q2 17 14.5 27t36.5 10q30 0 42 -9t12 -34v-2
q0 -16 -8 -22t-16.5 -9.5t-8.5 -11.5v-8h-40z" />
    <glyph glyph-name="uni1EAA" unicode="&#x1eaa;" horiz-adv-x="377" 
d="M13 0l124 591h104l123 -591h-85l-28 130h-130l-26 -130h-82zM124 170h125l-62 337zM101 626l66 73h43l66 -73h-46l-41 39l-40 -39h-48zM221 715q-11 0 -19.5 4t-17.5 10q-8 4 -15.5 8t-15.5 4q-9 0 -15 -6.5t-7 -18.5h-22q1 28 13 43.5t31 15.5q10 0 19.5 -2.5t19.5 -9.5
q7 -5 14.5 -8t14.5 -3q10 0 15.5 6t7.5 16h25q-1 -18 -8.5 -31.5t-18 -20.5t-21.5 -7z" />
    <glyph glyph-name="Adieresis" unicode="&#xc4;" horiz-adv-x="377" 
d="M13 0l124 591h104l123 -591h-85l-28 130h-130l-26 -130h-82zM124 170h125l-62 337zM137 638q-16 0 -26.5 10.5t-10.5 25.5t10.5 24.5t26.5 9.5q15 0 25.5 -9.5t10.5 -24.5t-10.5 -25.5t-25.5 -10.5zM240 638q-15 0 -26 10.5t-11 25.5t11 24.5t26 9.5q16 0 26 -9.5
t10 -24.5t-10 -25.5t-26 -10.5z" />
    <glyph glyph-name="uni1EA0" unicode="&#x1ea0;" horiz-adv-x="377" 
d="M13 0l124 591h104l123 -591h-85l-28 130h-130l-26 -130h-82zM124 170h125l-62 337zM188 -114q-16 0 -26.5 11t-10.5 25q0 15 10.5 25.5t26.5 10.5q15 0 26.5 -10.5t11.5 -25.5q0 -14 -11.5 -25t-26.5 -11z" />
    <glyph glyph-name="Agrave" unicode="&#xc0;" horiz-adv-x="377" 
d="M13 0l124 591h104l123 -591h-85l-28 130h-130l-26 -130h-82zM124 170h125l-62 337zM187 634l-103 84h76l78 -84h-51z" />
    <glyph glyph-name="uni1EA2" unicode="&#x1ea2;" horiz-adv-x="377" 
d="M13 0l124 591h104l123 -591h-85l-28 130h-130l-26 -130h-82zM124 170h125l-62 337zM165 627v15q0 14 11.5 21.5t22.5 14t11 19.5v5q0 9 -6 17t-20 8q-19 0 -23 -23l-37 7q3 23 19 35t45 12q34 0 50.5 -11.5t16.5 -44.5v-2q0 -22 -12 -31t-24 -14t-12 -17v-11h-42z" />
    <glyph glyph-name="Amacron" unicode="&#x100;" horiz-adv-x="377" 
d="M13 0l124 591h104l123 -591h-85l-28 130h-130l-26 -130h-82zM124 170h125l-62 337zM93 649v41h191v-41h-191z" />
    <glyph glyph-name="Aogonek" unicode="&#x104;" horiz-adv-x="377" 
d="M13 0l124 591h104l123 -591h-85l-28 130h-130l-26 -130h-82zM124 170h125l-62 337zM330 -138q-30 0 -51 17.5t-21 42.5q0 28 21 50t48 29l36 -1q-27 -11 -40.5 -30t-13.5 -38t13 -29t26 -10q8 0 14.5 2t9.5 4l11 -24q-6 -3 -18.5 -8t-34.5 -5z" />
    <glyph glyph-name="Aring" unicode="&#xc5;" horiz-adv-x="377" 
d="M13 0l124 591h104l123 -591h-85l-28 130h-130l-26 -130h-82zM124 170h125l-62 337zM192 584q-35 0 -58 22.5t-23 53.5q0 32 23 54.5t58 22.5q36 0 59 -22.5t23 -54.5q0 -31 -24.5 -53.5t-57.5 -22.5zM192 618q21 0 33 12t12 30q0 20 -12 31.5t-33 11.5q-20 0 -32 -11.5
t-12 -31.5q0 -18 12 -30t32 -12z" />
    <glyph glyph-name="Atilde" unicode="&#xc3;" horiz-adv-x="377" 
d="M13 0l124 591h104l123 -591h-85l-28 130h-130l-26 -130h-82zM124 170h125l-62 337zM231 639q-14 0 -24.5 5t-24.5 13q-9 6 -20 12t-23 6t-20 -9t-10 -26h-27q1 32 16.5 52.5t41.5 20.5q15 0 27 -5.5t24 -13.5q11 -6 20.5 -11t19.5 -5q13 0 21 8.5t11 24.5h29
q-1 -23 -10 -39t-22.5 -24.5t-28.5 -8.5z" />
    <glyph glyph-name="B" unicode="B" horiz-adv-x="410" 
d="M57 0v591h190q51 0 82 -24.5t31 -74.5v-70q0 -28 -8 -49.5t-22 -34.5t-32.5 -18t-32.5 -6v1q19 0 37 -4.5t31 -16.5q16 -14 25 -36t9 -52v-84q0 -50 -16.5 -76.5t-45.5 -36t-69 -9.5h-179zM135 43h86q21 0 36 6t23.5 24.5t8.5 53.5v78q0 46 -21.5 61t-54.5 15h-78v-238z
M135 331h76q36 0 55 20.5t19 61.5v66q0 35 -17.5 51.5t-42.5 16.5h-90v-216z" />
    <glyph glyph-name="uni0411" unicode="&#x411;" horiz-adv-x="386" 
d="M57 0v591h272v-56h-196v-100h97q39 0 65 -12t39.5 -39t13.5 -72v-163q0 -44 -8 -73t-23.5 -45.5t-39 -23.5t-56.5 -7h-164zM205 42q29 0 43 11t19 31t5 45v174q0 22 -4.5 41.5t-19 31t-44.5 11.5h-71v-345h72z" />
    <glyph glyph-name="C" unicode="C" horiz-adv-x="399" 
d="M203 -12q-45 0 -80 10.5t-55 43.5t-20 99v326q0 55 20 83.5t55.5 38.5t80.5 10q46 0 79.5 -10.5t53 -38.5t19.5 -83v-108h-77v110q0 36 -10 53.5t-27 23t-39 5.5t-39 -5.5t-26.5 -23t-9.5 -53.5v-352q0 -36 9.5 -53.5t26.5 -23t39 -5.5q23 0 39.5 5.5t26.5 23t10 53.5v96
h77v-72q0 -67 -19.5 -99.5t-53.5 -43t-80 -10.5z" />
    <glyph glyph-name="Cacute" unicode="&#x106;" horiz-adv-x="399" 
d="M203 -12q-45 0 -80 10.5t-55 43.5t-20 99v326q0 55 20 83.5t55.5 38.5t80.5 10q46 0 79.5 -10.5t53 -38.5t19.5 -83v-108h-77v110q0 36 -10 53.5t-27 23t-39 5.5t-39 -5.5t-26.5 -23t-9.5 -53.5v-352q0 -36 9.5 -53.5t26.5 -23t39 -5.5q23 0 39.5 5.5t26.5 23t10 53.5v96
h77v-72q0 -67 -19.5 -99.5t-53.5 -43t-80 -10.5zM148 634l80 86h75l-108 -86h-47z" />
    <glyph glyph-name="Ccaron" unicode="&#x10c;" horiz-adv-x="399" 
d="M203 -12q-45 0 -80 10.5t-55 43.5t-20 99v326q0 55 20 83.5t55.5 38.5t80.5 10q46 0 79.5 -10.5t53 -38.5t19.5 -83v-108h-77v110q0 36 -10 53.5t-27 23t-39 5.5t-39 -5.5t-26.5 -23t-9.5 -53.5v-352q0 -36 9.5 -53.5t26.5 -23t39 -5.5q23 0 39.5 5.5t26.5 23t10 53.5v96
h77v-72q0 -67 -19.5 -99.5t-53.5 -43t-80 -10.5zM175 630l-88 86h52l61 -50l61 50h51l-89 -86h-48z" />
    <glyph glyph-name="Ccedilla" unicode="&#xc7;" horiz-adv-x="399" 
d="M203 -12q-45 0 -80 10.5t-55 43.5t-20 99v326q0 55 20 83.5t55.5 38.5t80.5 10q46 0 79.5 -10.5t53 -38.5t19.5 -83v-108h-77v110q0 36 -10 53.5t-27 23t-39 5.5t-39 -5.5t-26.5 -23t-9.5 -53.5v-352q0 -36 9.5 -53.5t26.5 -23t39 -5.5q23 0 39.5 5.5t26.5 23t10 53.5v96
h77v-72q0 -67 -19.5 -99.5t-53.5 -43t-80 -10.5zM195 -150q-16 0 -29.5 6t-21.5 10l11 27q6 -5 17.5 -9t19.5 -4q19 0 28 8.5t9 21.5q0 12 -8 19t-20 7q-7 0 -13 -2.5t-11 -6.5l-24 13l32 60h32l-27 -51l-6 2q7 4 16 6.5t19 2.5q25 0 39.5 -16t14.5 -33q0 -26 -20 -43.5
t-58 -17.5z" />
    <glyph glyph-name="Cdotaccent" unicode="&#x10a;" horiz-adv-x="399" 
d="M203 -12q-45 0 -80 10.5t-55 43.5t-20 99v326q0 55 20 83.5t55.5 38.5t80.5 10q46 0 79.5 -10.5t53 -38.5t19.5 -83v-108h-77v110q0 36 -10 53.5t-27 23t-39 5.5t-39 -5.5t-26.5 -23t-9.5 -53.5v-352q0 -36 9.5 -53.5t26.5 -23t39 -5.5q23 0 39.5 5.5t26.5 23t10 53.5v96
h77v-72q0 -67 -19.5 -99.5t-53.5 -43t-80 -10.5zM206 639q-17 0 -30 12.5t-13 29.5q0 18 13 30t31 12t30.5 -12t12.5 -30q1 -17 -12.5 -29.5t-31.5 -12.5z" />
    <glyph glyph-name="uni0427" unicode="&#x427;" horiz-adv-x="369" 
d="M252 0v165q-12 -10 -38.5 -20t-58.5 -10q-50 0 -75.5 16.5t-33.5 47t-8 69.5v323h76v-324q0 -39 13.5 -59t53.5 -20q32 0 48.5 9.5t22.5 14.5v379h77v-591h-77z" />
    <glyph glyph-name="D" unicode="D" horiz-adv-x="414" 
d="M57 0v591h185q40 0 67 -11.5t41.5 -37.5t14.5 -69v-345q0 -50 -16.5 -78t-46 -39t-70.5 -11h-175zM137 42h84q31 0 49 17t18 64v341q0 47 -18 64t-49 17h-84v-503z" />
    <glyph glyph-name="Dcaron" unicode="&#x10e;" horiz-adv-x="414" 
d="M57 0v591h185q40 0 67 -11.5t41.5 -37.5t14.5 -69v-345q0 -50 -16.5 -78t-46 -39t-70.5 -11h-175zM137 42h84q31 0 49 17t18 64v341q0 47 -18 64t-49 17h-84v-503zM182 630l-88 86h52l61 -50l61 50h51l-89 -86h-48z" />
    <glyph glyph-name="Dcroat" unicode="&#x110;" horiz-adv-x="436" 
d="M71 0v591h194q39 0 66.5 -11.5t42 -37.5t14.5 -69v-345q0 -50 -16.5 -78t-46 -39t-70.5 -11h-184zM17 265v48h188v-48h-188zM151 42h88q34 0 53 17t19 64v341q0 47 -19 64t-53 17h-88v-503z" />
    <glyph glyph-name="uni0414" unicode="&#x414;" horiz-adv-x="569" 
d="M32 -109v159h50q21 2 36 23t19 63q4 40 8 87t8.5 96t8 97t6.5 93t5 82h273v-541h91v-159h-65v96h-375v-96h-65zM187 50h182v485h-123q-8 -98 -14.5 -194.5t-14.5 -193.5q-2 -26 -8 -54.5t-22 -42.5z" />
    <glyph glyph-name="uni0414.loclBGR" horiz-adv-x="569" 
d="M32 -109v159h50q21 2 36 23t19 63q4 40 8 87t8.5 96t8 97t6.5 93t5 82h273v-541h91v-159h-65v96h-375v-96h-65zM187 50h182v485h-123q-8 -98 -14.5 -194.5t-14.5 -193.5q-2 -26 -8 -54.5t-22 -42.5z" />
    <glyph glyph-name="uni0394" unicode="&#x394;" horiz-adv-x="534" 
d="M38 0l191 585h81l187 -585h-459zM131 62h267l-132 427z" />
    <glyph glyph-name="uni0402" unicode="&#x402;" horiz-adv-x="449" 
d="M112 0v535h-102v56h283v-56h-103v-163q10 18 36.5 34t67.5 16q43 0 68.5 -13.5t37.5 -41.5t12 -71v-127q0 -57 -10 -91t-28 -51t-42.5 -22t-54.5 -5q-8 0 -17.5 2t-15.5 4v37q5 0 10 -0.5t9 -0.5q39 0 55.5 27t16.5 82v140q0 41 -13.5 61.5t-57.5 20.5q-34 0 -51 -15.5
t-23 -31.5v-326h-78z" />
    <glyph glyph-name="uni0405" unicode="&#x405;" horiz-adv-x="378" 
d="M185 -7q-47 0 -81 15.5t-52 53.5t-18 105v34h40h39v-39q0 -47 9 -72.5t26 -35.5t38 -10q34 0 56 22.5t22 81.5q0 43 -13 64.5t-39 34.5t-65 29q-33 14 -58 33t-38 49.5t-13 76.5q0 54 14.5 88.5t47.5 51.5t89 17q71 0 110 -34.5t39 -98.5v-67h-38h-38v46q0 47 -18 70
t-55 23q-39 0 -56 -23t-17 -71q0 -37 14.5 -58.5t38 -33t49.5 -21.5q45 -17 72.5 -35.5t40.5 -47.5t13 -83q0 -61 -20 -97.5t-55.5 -52t-83.5 -15.5z" />
    <glyph glyph-name="uni040F" unicode="&#x40f;" horiz-adv-x="376" 
d="M161 -99v99h-121v591h80v-536h136v536h80v-591h-123v-99h-52z" />
    <glyph glyph-name="E" unicode="E" horiz-adv-x="340" 
d="M57 0v591h260v-55h-179v-198h145v-60h-145v-224h179v-54h-260z" />
    <glyph glyph-name="Eacute" unicode="&#xc9;" horiz-adv-x="340" 
d="M57 0v591h260v-55h-179v-198h145v-60h-145v-224h179v-54h-260zM135 634l80 86h75l-108 -86h-47z" />
    <glyph glyph-name="Ecaron" unicode="&#x11a;" horiz-adv-x="340" 
d="M57 0v591h260v-55h-179v-198h145v-60h-145v-224h179v-54h-260zM162 630l-88 86h52l61 -50l61 50h51l-89 -86h-48z" />
    <glyph glyph-name="Ecircumflex" unicode="&#xca;" horiz-adv-x="340" 
d="M57 0v591h260v-55h-179v-198h145v-60h-145v-224h179v-54h-260zM71 630l92 92h47l92 -92h-50l-65 56l-64 -56h-52z" />
    <glyph glyph-name="uni1EBE" unicode="&#x1ebe;" horiz-adv-x="340" 
d="M57 0v591h260v-55h-179v-198h145v-60h-145v-224h179v-54h-260zM99 626l66 73h43l66 -73h-46l-41 39l-40 -39h-48zM273 673l40 70h74l-66 -70h-48z" />
    <glyph glyph-name="uni1EC6" unicode="&#x1ec6;" horiz-adv-x="340" 
d="M57 0v591h260v-55h-179v-198h145v-60h-145v-224h179v-54h-260zM188 -114q-16 0 -26.5 11t-10.5 25q0 15 10.5 25.5t26.5 10.5q15 0 26.5 -10.5t11.5 -25.5q0 -14 -11.5 -25t-26.5 -11zM71 630l92 92h47l92 -92h-50l-65 56l-64 -56h-52z" />
    <glyph glyph-name="uni1EC0" unicode="&#x1ec0;" horiz-adv-x="340" 
d="M57 0v591h260v-55h-179v-198h145v-60h-145v-224h179v-54h-260zM99 626l66 73h43l66 -73h-46l-41 39l-40 -39h-48zM296 672l-66 70h74l40 -70h-48z" />
    <glyph glyph-name="uni1EC2" unicode="&#x1ec2;" horiz-adv-x="340" 
d="M57 0v591h260v-55h-179v-198h145v-60h-145v-224h179v-54h-260zM99 626l66 73h43l66 -73h-46l-41 39l-40 -39h-48zM282 670v10q0 10 8 15l16 10t8 13v4q0 7 -4 11.5t-12 4.5q-12 0 -15 -15l-33 6q2 17 14.5 27t36.5 10q30 0 42 -9t12 -34v-2q0 -16 -8 -22t-16.5 -9.5
t-8.5 -11.5v-8h-40z" />
    <glyph glyph-name="uni1EC4" unicode="&#x1ec4;" horiz-adv-x="340" 
d="M57 0v591h260v-55h-179v-198h145v-60h-145v-224h179v-54h-260zM99 626l66 73h43l66 -73h-46l-41 39l-40 -39h-48zM219 715q-11 0 -19.5 4t-17.5 10q-8 4 -15.5 8t-15.5 4q-9 0 -15 -6.5t-7 -18.5h-22q1 28 13 43.5t31 15.5q10 0 19.5 -2.5t19.5 -9.5q7 -5 14.5 -8
t14.5 -3q10 0 15.5 6t7.5 16h25q-1 -18 -8.5 -31.5t-18 -20.5t-21.5 -7z" />
    <glyph glyph-name="Edieresis" unicode="&#xcb;" horiz-adv-x="340" 
d="M57 0v591h260v-55h-179v-198h145v-60h-145v-224h179v-54h-260zM136 638q-16 0 -26.5 10.5t-10.5 25.5t10.5 24.5t26.5 9.5q15 0 25.5 -9.5t10.5 -24.5t-10.5 -25.5t-25.5 -10.5zM239 638q-15 0 -26 10.5t-11 25.5t11 24.5t26 9.5q16 0 26 -9.5t10 -24.5t-10 -25.5
t-26 -10.5z" />
    <glyph glyph-name="Edotaccent" unicode="&#x116;" horiz-adv-x="340" 
d="M57 0v591h260v-55h-179v-198h145v-60h-145v-224h179v-54h-260zM193 639q-17 0 -30 12.5t-13 29.5q0 18 13 30t31 12t30.5 -12t12.5 -30q1 -17 -12.5 -29.5t-31.5 -12.5z" />
    <glyph glyph-name="uni1EB8" unicode="&#x1eb8;" horiz-adv-x="340" 
d="M57 0v591h260v-55h-179v-198h145v-60h-145v-224h179v-54h-260zM188 -114q-16 0 -26.5 11t-10.5 25q0 15 10.5 25.5t26.5 10.5q15 0 26.5 -10.5t11.5 -25.5q0 -14 -11.5 -25t-26.5 -11z" />
    <glyph glyph-name="uni0424" unicode="&#x424;" horiz-adv-x="489" 
d="M207 -16v82h-27q-72 0 -108 31t-36 103v197q0 61 32.5 92.5t101.5 31.5h37v70h76v-70h34q70 0 103.5 -30t33.5 -96v-193q0 -78 -37.5 -107t-109.5 -29h-24v-82h-76zM190 109h17v183.5v182.5h-16q-38 0 -58 -20.5t-20 -66.5v-192q0 -46 19.5 -66.5t57.5 -20.5zM283 109h13
q39 0 59.5 18.5t20.5 68.5v191q0 50 -20.5 69t-59.5 19h-13v-182.5v-183.5z" />
    <glyph glyph-name="uni0424.loclBGR" horiz-adv-x="489" 
d="M207 -16v82h-27q-72 0 -108 31t-36 103v197q0 61 32.5 92.5t101.5 31.5h37v70h76v-70h34q70 0 103.5 -30t33.5 -96v-193q0 -78 -37.5 -107t-109.5 -29h-24v-82h-76zM190 109h17v183.5v182.5h-16q-38 0 -58 -20.5t-20 -66.5v-192q0 -46 19.5 -66.5t57.5 -20.5zM283 109h13
q39 0 59.5 18.5t20.5 68.5v191q0 50 -20.5 69t-59.5 19h-13v-182.5v-183.5z" />
    <glyph glyph-name="Egrave" unicode="&#xc8;" horiz-adv-x="340" 
d="M57 0v591h260v-55h-179v-198h145v-60h-145v-224h179v-54h-260zM186 634l-103 84h76l78 -84h-51z" />
    <glyph glyph-name="uni1EBA" unicode="&#x1eba;" horiz-adv-x="340" 
d="M57 0v591h260v-55h-179v-198h145v-60h-145v-224h179v-54h-260zM164 627v15q0 14 11.5 21.5t22.5 14t11 19.5v5q0 9 -6 17t-20 8q-19 0 -23 -23l-37 7q3 23 19 35t45 12q34 0 50.5 -11.5t16.5 -44.5v-2q0 -22 -12 -31t-24 -14t-12 -17v-11h-42z" />
    <glyph glyph-name="uni041B" unicode="&#x41b;" horiz-adv-x="429" 
d="M14 0v42q19 0 33.5 19.5t17.5 55.5l32 474h292v-591h-77v535h-139l-32 -439q-1 -14 -3.5 -30.5t-10 -30.5t-23 -24t-43.5 -11h-47z" />
    <glyph glyph-name="uni041B.loclBGR" horiz-adv-x="429" 
d="M14 0v42q19 0 33.5 19.5t17.5 55.5l32 474h292v-591h-77v535h-139l-32 -439q-1 -14 -3.5 -30.5t-10 -30.5t-23 -24t-43.5 -11h-47z" />
    <glyph glyph-name="uni041C" unicode="&#x41c;" horiz-adv-x="532" 
d="M57 0v591h94l115 -454l117 454h91v-591h-68v468l-113 -468h-54l-113 468v-468h-69z" />
    <glyph glyph-name="Emacron" unicode="&#x112;" horiz-adv-x="340" 
d="M57 0v591h260v-55h-179v-198h145v-60h-145v-224h179v-54h-260zM91 649v41h191v-41h-191z" />
    <glyph glyph-name="uni041D" unicode="&#x41d;" horiz-adv-x="421" 
d="M57 0v591h77v-254h153v254h77v-591h-77v279h-153v-279h-77z" />
    <glyph glyph-name="Eng" unicode="&#x14a;" horiz-adv-x="420" 
d="M247 -177h-21t-21 1v55l32 -1q31 0 43 11.5t12 46.5l1 65l-166 414l-1 -415h-69l1 591h68l167 -434l1 434h69l-1 -632q0 -52 -9.5 -81.5t-34.5 -42t-71 -12.5z" />
    <glyph glyph-name="Eogonek" unicode="&#x118;" horiz-adv-x="340" 
d="M57 0v591h260v-55h-179v-198h145v-60h-145v-224h179v-54h-260zM240 -138q-30 0 -51 17.5t-21 42.5q0 28 21 50t48 29l36 -1q-27 -11 -40.5 -30t-13.5 -38t13 -29t26 -10q8 0 14.5 2t9.5 4l11 -24q-6 -3 -18.5 -8t-34.5 -5z" />
    <glyph glyph-name="uni0420" unicode="&#x420;" horiz-adv-x="386" 
d="M57 0v591h191q53 0 83.5 -24.5t30.5 -74.5v-107q0 -35 -9.5 -66t-36.5 -50t-78 -19h-100v-250h-81zM138 295h75q36 0 54 24t18 76v66q0 45 -16.5 65.5t-41.5 20.5h-89v-252z" />
    <glyph glyph-name="uni042D" unicode="&#x42d;" horiz-adv-x="387" 
d="M192 -12q-46 0 -81 10.5t-54 43t-19 100.5v51h77v-78q0 -34 10 -51t27.5 -22.5t38.5 -5.5q23 0 40 5.5t26.5 22.5t9.5 51v151h-148v53h148v149q0 34 -9.5 51t-26.5 23t-40 6q-22 0 -39 -5t-27 -21.5t-10 -51.5v-94h-77v90q0 54 19 83t53.5 39.5t80.5 10.5t81 -10.5
t55 -39t20 -83.5v-325q0 -66 -20 -99t-55 -43.5t-80 -10.5z" />
    <glyph glyph-name="uni0421" unicode="&#x421;" horiz-adv-x="399" 
d="M203 -12q-45 0 -80 10.5t-55 43.5t-20 99v326q0 55 20 83.5t55.5 38.5t80.5 10q46 0 79.5 -10.5t53 -38.5t19.5 -83v-108h-77v110q0 36 -10 53.5t-27 23t-39 5.5t-39 -5.5t-26.5 -23t-9.5 -53.5v-352q0 -36 9.5 -53.5t26.5 -23t39 -5.5q23 0 39.5 5.5t26.5 23t10 53.5v96
h77v-72q0 -67 -19.5 -99.5t-53.5 -43t-80 -10.5z" />
    <glyph glyph-name="Eth" unicode="&#xd0;" horiz-adv-x="436" 
d="M71 0v591h194q39 0 66.5 -11.5t42 -37.5t14.5 -69v-345q0 -50 -16.5 -78t-46 -39t-70.5 -11h-184zM17 265v48h188v-48h-188zM151 42h88q34 0 53 17t19 64v341q0 47 -19 64t-53 17h-88v-503z" />
    <glyph glyph-name="uni1EBC" unicode="&#x1ebc;" horiz-adv-x="340" 
d="M57 0v591h260v-55h-179v-198h145v-60h-145v-224h179v-54h-260zM229 639q-14 0 -24.5 5t-24.5 13q-9 6 -20 12t-23 6t-20 -9t-10 -26h-27q1 32 16.5 52.5t41.5 20.5q15 0 27 -5.5t24 -13.5q11 -6 20.5 -11t19.5 -5q13 0 21 8.5t11 24.5h29q-1 -23 -10 -39t-22.5 -24.5
t-28.5 -8.5z" />
    <glyph glyph-name="F" unicode="F" horiz-adv-x="333" 
d="M57 0v591h260v-55h-179v-198h145v-60h-145v-278h-81z" />
    <glyph glyph-name="G" unicode="G" horiz-adv-x="401" 
d="M181 -11q-36 0 -66 10t-48.5 40.5t-18.5 92.5v335q0 54 20 82.5t54.5 39t79.5 10.5t79.5 -11t54.5 -39t20 -82v-78h-75v80q0 35 -10 52.5t-27.5 23t-40.5 5.5t-40.5 -5.5t-27.5 -23t-10 -52.5v-352q0 -36 10 -53.5t27.5 -23t40.5 -5.5q34 0 56 21t22 61v121h-69v46h144
v-284h-58l-4 54q-3 -6 -6.5 -11.5t-6.5 -9.5q-13 -19 -37 -31.5t-63 -12.5z" />
    <glyph glyph-name="Gbreve" unicode="&#x11e;" horiz-adv-x="401" 
d="M181 -11q-36 0 -66 10t-48.5 40.5t-18.5 92.5v335q0 54 20 82.5t54.5 39t79.5 10.5t79.5 -11t54.5 -39t20 -82v-78h-75v80q0 35 -10 52.5t-27.5 23t-40.5 5.5t-40.5 -5.5t-27.5 -23t-10 -52.5v-352q0 -36 10 -53.5t27.5 -23t40.5 -5.5q34 0 56 21t22 61v121h-69v46h144
v-284h-58l-4 54q-3 -6 -6.5 -11.5t-6.5 -9.5q-13 -19 -37 -31.5t-63 -12.5zM200 630q-40 0 -62 15.5t-30.5 37t-9.5 39.5h44q3 -27 19.5 -40t38.5 -13q25 0 41 12.5t19 40.5h44q-1 -22 -11.5 -43t-33 -35t-59.5 -14z" />
    <glyph glyph-name="uni0122" unicode="&#x122;" horiz-adv-x="401" 
d="M181 -11q-36 0 -66 10t-48.5 40.5t-18.5 92.5v335q0 54 20 82.5t54.5 39t79.5 10.5t79.5 -11t54.5 -39t20 -82v-78h-75v80q0 35 -10 52.5t-27.5 23t-40.5 5.5t-40.5 -5.5t-27.5 -23t-10 -52.5v-352q0 -36 10 -53.5t27.5 -23t40.5 -5.5q34 0 56 21t22 61v121h-69v46h144
v-284h-58l-4 54q-3 -6 -6.5 -11.5t-6.5 -9.5q-13 -19 -37 -31.5t-63 -12.5zM158 -170q12 19 20 36t8 29q0 6 -5.5 10.5t-11 10.5t-5.5 17t10.5 20t25.5 9q17 0 27.5 -10.5t10.5 -24.5q0 -12 -7.5 -29.5t-18 -35.5t-22.5 -32h-32z" />
    <glyph glyph-name="Gdotaccent" unicode="&#x120;" horiz-adv-x="401" 
d="M181 -11q-36 0 -66 10t-48.5 40.5t-18.5 92.5v335q0 54 20 82.5t54.5 39t79.5 10.5t79.5 -11t54.5 -39t20 -82v-78h-75v80q0 35 -10 52.5t-27.5 23t-40.5 5.5t-40.5 -5.5t-27.5 -23t-10 -52.5v-352q0 -36 10 -53.5t27.5 -23t40.5 -5.5q34 0 56 21t22 61v121h-69v46h144
v-284h-58l-4 54q-3 -6 -6.5 -11.5t-6.5 -9.5q-13 -19 -37 -31.5t-63 -12.5zM207 639q-17 0 -30 12.5t-13 29.5q0 18 13 30t31 12t30.5 -12t12.5 -30q1 -17 -12.5 -29.5t-31.5 -12.5z" />
    <glyph glyph-name="uni0413" unicode="&#x413;" horiz-adv-x="317" 
d="M40 0v591h261v-56h-181v-535h-80z" />
    <glyph glyph-name="uni1E9E" unicode="&#x1e9e;" horiz-adv-x="781" 
d="M567 -7q-47 0 -80.5 15.5t-51 53.5t-17.5 105v34h39h40v-39q0 -47 9 -72.5t25.5 -35.5t38.5 -10q34 0 55.5 22.5t21.5 81.5q0 43 -13 64.5t-38.5 34.5t-65.5 29q-33 14 -57.5 33t-38 49.5t-13.5 76.5q0 54 14.5 88.5t48 51.5t88.5 17q72 0 111 -34.5t39 -98.5v-67h-38
h-38v46q0 47 -18 70t-55 23q-40 0 -56.5 -23t-16.5 -71q0 -37 14.5 -58.5t37.5 -33t49 -21.5q45 -17 73 -35.5t41 -47.5t13 -83q0 -61 -20.5 -97.5t-56.5 -52t-84 -15.5zM202 -7q-47 0 -80.5 15.5t-51.5 53.5t-18 105v34h40h40v-39q0 -47 9 -72.5t25.5 -35.5t37.5 -10
q35 0 56.5 22.5t21.5 81.5q0 43 -13 64.5t-38.5 34.5t-65.5 29q-33 14 -57.5 33t-38 49.5t-13.5 76.5q0 54 14.5 88.5t47.5 51.5t89 17q72 0 111 -34.5t39 -98.5v-67h-39h-37v46q0 47 -18 70t-55 23q-39 0 -56 -23t-17 -71q0 -37 14 -58.5t37.5 -33t49.5 -21.5
q45 -17 73 -35.5t41 -47.5t13 -83q0 -61 -20.5 -97.5t-56.5 -52t-84 -15.5z" />
    <glyph glyph-name="uni0403" unicode="&#x403;" horiz-adv-x="317" 
d="M40 0v591h261v-56h-181v-535h-80zM107 634l80 86h75l-108 -86h-47z" />
    <glyph glyph-name="H" unicode="H" horiz-adv-x="421" 
d="M57 0v591h77v-254h153v254h77v-591h-77v279h-153v-279h-77z" />
    <glyph glyph-name="uni0425" unicode="&#x425;" horiz-adv-x="332" 
d="M15 0l93 302l-86 289h77l67 -235l71 235h80l-91 -290l89 -301h-77l-71 235l-71 -235h-81z" />
    <glyph glyph-name="uni042A" unicode="&#x42a;" horiz-adv-x="400" 
d="M70 0v535h-62v56h138v-156h96q40 0 66 -12t39.5 -39t13.5 -72v-163q0 -44 -8 -73t-23.5 -45.5t-39.5 -23.5t-56 -7h-164zM146 42h72q29 0 43 12t19 36.5t5 61.5v142q0 27 -4 47.5t-18 33t-46 12.5h-71v-345z" />
    <glyph glyph-name="Hbar" unicode="&#x126;" horiz-adv-x="421" 
d="M22 474v37h392v-37h-392zM57 0v591h77v-254h153v254h77v-591h-77v279h-153v-279h-77z" />
    <glyph glyph-name="I" unicode="I" horiz-adv-x="191" 
d="M57 0v591h77v-591h-77z" />
    <glyph glyph-name="uni0406" unicode="&#x406;" horiz-adv-x="191" 
d="M57 0v591h77v-591h-77z" />
    <glyph glyph-name="uni042F" unicode="&#x42f;" horiz-adv-x="416" 
d="M358 0h-80v267h-62q-16 0 -26.5 -9.5t-17 -25.5t-11.5 -34l-51 -198h-84l59 203q12 42 27.5 62t48.5 22v0q-53 2 -82 31t-29 80v94q0 50 31 74.5t83 24.5h194v-591zM278 321v226h-91q-25 0 -43 -16t-18 -52v-78q0 -44 19 -62t56 -18h77z" />
    <glyph glyph-name="Iacute" unicode="&#xcd;" horiz-adv-x="191" 
d="M57 0v591h77v-591h-77zM44 634l80 86h75l-108 -86h-47z" />
    <glyph glyph-name="uni01CF" unicode="&#x1cf;" horiz-adv-x="191" 
d="M57 0v591h77v-591h-77zM71 630l-88 86h52l61 -50l61 50h51l-89 -86h-48z" />
    <glyph glyph-name="Icircumflex" unicode="&#xce;" horiz-adv-x="191" 
d="M57 0v591h77v-591h-77zM-20 630l92 92h47l92 -92h-50l-65 56l-64 -56h-52z" />
    <glyph glyph-name="Idieresis" unicode="&#xcf;" horiz-adv-x="191" 
d="M57 0v591h77v-591h-77zM45 638q-16 0 -26.5 10.5t-10.5 25.5t10.5 24.5t26.5 9.5q15 0 25.5 -9.5t10.5 -24.5t-10.5 -25.5t-25.5 -10.5zM148 638q-15 0 -26 10.5t-11 25.5t11 24.5t26 9.5q16 0 26 -9.5t10 -24.5t-10 -25.5t-26 -10.5z" />
    <glyph glyph-name="Idotaccent" unicode="&#x130;" horiz-adv-x="191" 
d="M57 0v591h77v-591h-77zM102 639q-17 0 -30 12.5t-13 29.5q0 18 13 30t31 12t30.5 -12t12.5 -30q1 -17 -12.5 -29.5t-31.5 -12.5z" />
    <glyph glyph-name="uni1ECA" unicode="&#x1eca;" horiz-adv-x="191" 
d="M57 0v591h77v-591h-77zM95 -114q-16 0 -26.5 11t-10.5 25q0 15 10.5 25.5t26.5 10.5q15 0 26.5 -10.5t11.5 -25.5q0 -14 -11.5 -25t-26.5 -11z" />
    <glyph glyph-name="uni0415" unicode="&#x415;" horiz-adv-x="340" 
d="M57 0v591h260v-55h-179v-198h145v-60h-145v-224h179v-54h-260z" />
    <glyph glyph-name="uni0400" unicode="&#x400;" horiz-adv-x="340" 
d="M57 0v591h260v-55h-179v-198h145v-60h-145v-224h179v-54h-260zM189 634l-103 84h76l78 -84h-51z" />
    <glyph glyph-name="Igrave" unicode="&#xcc;" horiz-adv-x="191" 
d="M57 0v591h77v-591h-77zM95 634l-103 84h76l78 -84h-51z" />
    <glyph glyph-name="uni1EC8" unicode="&#x1ec8;" horiz-adv-x="191" 
d="M57 0v591h77v-591h-77zM73 627v15q0 14 11.5 21.5t22.5 14t11 19.5v5q0 9 -6 17t-20 8q-19 0 -23 -23l-37 7q3 23 19 35t45 12q34 0 50.5 -11.5t16.5 -44.5v-2q0 -22 -12 -31t-24 -14t-12 -17v-11h-42z" />
    <glyph glyph-name="uni0418" unicode="&#x418;" horiz-adv-x="386" 
d="M40 0v591h69v-434l168 434h69v-591h-69v416l-167 -416h-70z" />
    <glyph glyph-name="uni040D" unicode="&#x40d;" horiz-adv-x="386" 
d="M40 0v591h69v-434l168 434h69v-591h-69v416l-167 -416h-70zM192 634l-103 84h76l78 -84h-51z" />
    <glyph glyph-name="uni0419" unicode="&#x419;" horiz-adv-x="386" 
d="M40 0v591h69v-434l168 434h69v-591h-69v416l-167 -416h-70zM192 630q-40 0 -62 15.5t-30.5 37t-9.5 39.5h44q3 -27 19.5 -40t38.5 -13q25 0 41 12.5t19 40.5h44q-1 -22 -11.5 -43t-33 -35t-59.5 -14z" />
    <glyph glyph-name="Imacron" unicode="&#x12a;" horiz-adv-x="191" 
d="M57 0v591h77v-591h-77zM0 649v41h191v-41h-191z" />
    <glyph glyph-name="uni0401" unicode="&#x401;" horiz-adv-x="340" 
d="M57 0v591h260v-55h-179v-198h145v-60h-145v-224h179v-54h-260zM139 638q-16 0 -26.5 10.5t-10.5 25.5t10.5 24.5t26.5 9.5q15 0 25.5 -9.5t10.5 -24.5t-10.5 -25.5t-25.5 -10.5zM242 638q-15 0 -26 10.5t-11 25.5t11 24.5t26 9.5q16 0 26 -9.5t10 -24.5t-10 -25.5
t-26 -10.5z" />
    <glyph glyph-name="Iogonek" unicode="&#x12e;" horiz-adv-x="191" 
d="M57 0v591h77v-591h-77zM101 -138q-30 0 -51 17.5t-21 42.5q0 28 21 50t48 29l36 -1q-27 -11 -40.5 -30t-13.5 -38t13 -29t26 -10q8 0 14.5 2t9.5 4l11 -24q-6 -3 -18.5 -8t-34.5 -5z" />
    <glyph glyph-name="Itilde" unicode="&#x128;" horiz-adv-x="191" 
d="M57 0v591h77v-591h-77zM138 639q-14 0 -24.5 5t-24.5 13q-9 6 -20 12t-23 6t-20 -9t-10 -26h-27q1 32 16.5 52.5t41.5 20.5q15 0 27 -5.5t24 -13.5q11 -6 20.5 -11t19.5 -5q13 0 21 8.5t11 24.5h29q-1 -23 -10 -39t-22.5 -24.5t-28.5 -8.5z" />
    <glyph glyph-name="uni042E" unicode="&#x42e;" horiz-adv-x="590" 
d="M396 -12q-45 0 -80 10.5t-55 43.5t-20 100v137h-124v-279h-77v591h77v-254h124v129q0 56 20 84.5t55.5 38.5t80.5 10q46 0 80.5 -10.5t53.5 -39t19 -83.5v-324q0 -67 -19 -100t-54 -43.5t-81 -10.5zM397 35q22 0 39 5.5t27 22.5t10 51v357q0 35 -10 51.5t-27 22t-39 5.5
t-39 -5.5t-27 -22t-10 -51.5v-357q0 -34 10 -51t27 -22.5t39 -5.5z" />
    <glyph glyph-name="J" unicode="J" horiz-adv-x="225" 
d="M49 -1h-20.5t-21.5 1v55l32 -1q31 -1 43.5 11t12.5 46v480h77v-457q0 -51 -10.5 -81t-37 -42t-75.5 -12z" />
    <glyph glyph-name="uni0408" unicode="&#x408;" horiz-adv-x="225" 
d="M49 -1h-20.5t-21.5 1v55l32 -1q31 -1 43.5 11t12.5 46v480h77v-457q0 -51 -10.5 -81t-37 -42t-75.5 -12z" />
    <glyph glyph-name="K" unicode="K" horiz-adv-x="384" 
d="M288 0l-142 307l138 284h84l-145 -285l150 -306h-85zM57 0v591h77v-591h-77z" />
    <glyph glyph-name="uni041A" unicode="&#x41a;" horiz-adv-x="391" 
d="M40 0v591h77v-265h37l129 265h84l-141 -285l145 -306h-86l-127 273h-41v-273h-77z" />
    <glyph glyph-name="uni0136" unicode="&#x136;" horiz-adv-x="384" 
d="M288 0l-142 307l138 284h84l-145 -285l150 -306h-85zM57 0v591h77v-591h-77zM162 -170q12 19 20 36t8 29q0 6 -5.5 10.5t-11 10.5t-5.5 17t10.5 20t25.5 9q17 0 27.5 -10.5t10.5 -24.5q0 -12 -7.5 -29.5t-18 -35.5t-22.5 -32h-32z" />
    <glyph glyph-name="uni040C" unicode="&#x40c;" horiz-adv-x="391" 
d="M40 0v591h77v-265h37l129 265h84l-141 -285l145 -306h-86l-127 273h-41v-273h-77zM144 634l80 86h75l-108 -86h-47z" />
    <glyph glyph-name="L" unicode="L" horiz-adv-x="297" 
d="M57 0v591h77v-537h156v-54h-233z" />
    <glyph glyph-name="Lacute" unicode="&#x139;" horiz-adv-x="297" 
d="M57 0v591h77v-537h156v-54h-233zM62 634l80 86h75l-108 -86h-47z" />
    <glyph glyph-name="Lcaron" unicode="&#x13d;" horiz-adv-x="308" 
d="M57 0v591h77v-537h156v-54h-233zM220 475l20 133h49l-40 -133h-29z" />
    <glyph glyph-name="uni013B" unicode="&#x13b;" horiz-adv-x="297" 
d="M57 0v591h77v-537h156v-54h-233zM129 -170q12 19 20 36t8 29q0 6 -5.5 10.5t-11 10.5t-5.5 17t10.5 20t25.5 9q17 0 27.5 -10.5t10.5 -24.5q0 -12 -7.5 -29.5t-18 -35.5t-22.5 -32h-32z" />
    <glyph glyph-name="uni0409" unicode="&#x409;" horiz-adv-x="642" 
d="M14 0v42q19 0 33.5 19.5t17.5 55.5l32 474h292v-591h-77v535h-139l-32 -439q-1 -14 -3.5 -30.5t-10 -30.5t-23 -24t-43.5 -11h-47zM389 42h72q29 0 43 12t19 36.5t5 61.5v143q0 26 -4.5 46.5t-18.5 33t-45 12.5h-71v-345zM312 0v590h76v-155h96q39 0 65 -12t39.5 -39
t13.5 -72v-163q0 -44 -8 -73t-23.5 -45.5t-39 -23.5t-56.5 -7h-163z" />
    <glyph glyph-name="Lslash" unicode="&#x141;" horiz-adv-x="365" 
d="M95 0v169l-59 -27v39l59 27v381h76v-347l91 41v-38l-91 -42v-149h157v-54h-233z" />
    <glyph glyph-name="M" unicode="M" horiz-adv-x="532" 
d="M57 0v591h94l115 -454l117 454h91v-591h-68v468l-113 -468h-54l-113 468v-468h-69z" />
    <glyph glyph-name="N" unicode="N" horiz-adv-x="419" 
d="M57 0v591h68l168 -434v434h69v-591h-69l-167 415v-415h-69z" />
    <glyph glyph-name="Nacute" unicode="&#x143;" horiz-adv-x="419" 
d="M57 0v591h68l168 -434v434h69v-591h-69l-167 415v-415h-69zM162 634l80 86h75l-108 -86h-47z" />
    <glyph glyph-name="Ncaron" unicode="&#x147;" horiz-adv-x="419" 
d="M57 0v591h68l168 -434v434h69v-591h-69l-167 415v-415h-69zM189 630l-88 86h52l61 -50l61 50h51l-89 -86h-48z" />
    <glyph glyph-name="uni0145" unicode="&#x145;" horiz-adv-x="419" 
d="M57 0v591h68l168 -434v434h69v-591h-69l-167 415v-415h-69zM166 -170q12 19 20 36t8 29q0 6 -5.5 10.5t-11 10.5t-5.5 17t10.5 20t25.5 9q17 0 27.5 -10.5t10.5 -24.5q0 -12 -7.5 -29.5t-18 -35.5t-22.5 -32h-32z" />
    <glyph glyph-name="uni040A" unicode="&#x40a;" horiz-adv-x="604" 
d="M40 0v591h77v-254h153v254h78v-156h95q40 0 66 -12t39.5 -39t13.5 -72v-163q0 -44 -8 -73t-23.5 -45.5t-39.5 -23.5t-56 -7h-165v278h-153v-278h-77zM348 43h71q29 0 43 11.5t19 36t5 59.5v132q0 34 -4 57t-18.5 35.5t-45.5 12.5h-70v-344z" />
    <glyph glyph-name="Ntilde" unicode="&#xd1;" horiz-adv-x="419" 
d="M57 0v591h68l168 -434v434h69v-591h-69l-167 415v-415h-69zM255 639q-14 0 -24.5 5t-24.5 13q-9 6 -20 12t-23 6t-20 -9t-10 -26h-27q1 32 16.5 52.5t41.5 20.5q15 0 27 -5.5t24 -13.5q11 -6 20.5 -11t19.5 -5q13 0 21 8.5t11 24.5h29q-1 -23 -10 -39t-22.5 -24.5
t-28.5 -8.5z" />
    <glyph glyph-name="O" unicode="O" horiz-adv-x="404" 
d="M201 -12q-45 0 -79 10.5t-54 43.5t-20 99v326q0 55 20 83.5t54.5 38.5t79.5 10t79.5 -10.5t54.5 -38.5t20 -83v-326q0 -67 -20 -99.5t-55 -43t-80 -10.5zM201 35q23 0 40.5 6t27.5 23.5t10 52.5v352q0 34 -10 51.5t-27.5 23.5t-40.5 6t-40 -6t-27 -23.5t-10 -51.5v-352
q0 -35 10 -52.5t27 -23.5t40 -6z" />
    <glyph glyph-name="uni041E" unicode="&#x41e;" horiz-adv-x="404" 
d="M201 -12q-45 0 -79 10.5t-54 43.5t-20 99v326q0 55 20 83.5t54.5 38.5t79.5 10t79.5 -10.5t54.5 -38.5t20 -83v-326q0 -67 -20 -99.5t-55 -43t-80 -10.5zM201 35q23 0 40.5 6t27.5 23.5t10 52.5v352q0 34 -10 51.5t-27.5 23.5t-40.5 6t-40 -6t-27 -23.5t-10 -51.5v-352
q0 -35 10 -52.5t27 -23.5t40 -6z" />
    <glyph glyph-name="OE" unicode="&#x152;" horiz-adv-x="570" 
d="M201 -12q-44 0 -78.5 10.5t-54.5 43.5t-20 99v326q0 55 20 83.5t55 38.5t79 10q43 0 76 -10.5t52 -38.5t19 -83v-326q0 -67 -19 -99.5t-52 -43t-77 -10.5zM202 35q23 0 40.5 6t27 23.5t9.5 52.5v352q0 34 -9.5 51.5t-27.5 23.5t-40 6q-23 0 -40.5 -6t-27.5 -23.5
t-10 -51.5v-352q0 -35 10 -52.5t27.5 -23.5t40.5 -6zM280 0v591h267v-55h-191v-198h157v-60h-157v-224h191v-54h-267z" />
    <glyph glyph-name="Oacute" unicode="&#xd3;" horiz-adv-x="404" 
d="M201 -12q-45 0 -79 10.5t-54 43.5t-20 99v326q0 55 20 83.5t54.5 38.5t79.5 10t79.5 -10.5t54.5 -38.5t20 -83v-326q0 -67 -20 -99.5t-55 -43t-80 -10.5zM201 35q23 0 40.5 6t27.5 23.5t10 52.5v352q0 34 -10 51.5t-27.5 23.5t-40.5 6t-40 -6t-27 -23.5t-10 -51.5v-352
q0 -35 10 -52.5t27 -23.5t40 -6zM151 634l80 86h75l-108 -86h-47z" />
    <glyph glyph-name="uni01D1" unicode="&#x1d1;" horiz-adv-x="404" 
d="M201 -12q-45 0 -79 10.5t-54 43.5t-20 99v326q0 55 20 83.5t54.5 38.5t79.5 10t79.5 -10.5t54.5 -38.5t20 -83v-326q0 -67 -20 -99.5t-55 -43t-80 -10.5zM201 35q23 0 40.5 6t27.5 23.5t10 52.5v352q0 34 -10 51.5t-27.5 23.5t-40.5 6t-40 -6t-27 -23.5t-10 -51.5v-352
q0 -35 10 -52.5t27 -23.5t40 -6zM178 630l-88 86h52l61 -50l61 50h51l-89 -86h-48z" />
    <glyph glyph-name="Ocircumflex" unicode="&#xd4;" horiz-adv-x="404" 
d="M201 -12q-45 0 -79 10.5t-54 43.5t-20 99v326q0 55 20 83.5t54.5 38.5t79.5 10t79.5 -10.5t54.5 -38.5t20 -83v-326q0 -67 -20 -99.5t-55 -43t-80 -10.5zM201 35q23 0 40.5 6t27.5 23.5t10 52.5v352q0 34 -10 51.5t-27.5 23.5t-40.5 6t-40 -6t-27 -23.5t-10 -51.5v-352
q0 -35 10 -52.5t27 -23.5t40 -6zM87 630l92 92h47l92 -92h-50l-65 56l-64 -56h-52z" />
    <glyph glyph-name="uni1ED0" unicode="&#x1ed0;" horiz-adv-x="404" 
d="M201 -12q-45 0 -79 10.5t-54 43.5t-20 99v326q0 55 20 83.5t54.5 38.5t79.5 10t79.5 -10.5t54.5 -38.5t20 -83v-326q0 -67 -20 -99.5t-55 -43t-80 -10.5zM201 35q23 0 40.5 6t27.5 23.5t10 52.5v352q0 34 -10 51.5t-27.5 23.5t-40.5 6t-40 -6t-27 -23.5t-10 -51.5v-352
q0 -35 10 -52.5t27 -23.5t40 -6zM115 626l66 73h43l66 -73h-46l-41 39l-40 -39h-48zM289 673l40 70h74l-66 -70h-48z" />
    <glyph glyph-name="uni1ED8" unicode="&#x1ed8;" horiz-adv-x="404" 
d="M201 -12q-45 0 -79 10.5t-54 43.5t-20 99v326q0 55 20 83.5t54.5 38.5t79.5 10t79.5 -10.5t54.5 -38.5t20 -83v-326q0 -67 -20 -99.5t-55 -43t-80 -10.5zM201 35q23 0 40.5 6t27.5 23.5t10 52.5v352q0 34 -10 51.5t-27.5 23.5t-40.5 6t-40 -6t-27 -23.5t-10 -51.5v-352
q0 -35 10 -52.5t27 -23.5t40 -6zM202 -114q-16 0 -26.5 11t-10.5 25q0 15 10.5 25.5t26.5 10.5q15 0 26.5 -10.5t11.5 -25.5q0 -14 -11.5 -25t-26.5 -11zM87 630l92 92h47l92 -92h-50l-65 56l-64 -56h-52z" />
    <glyph glyph-name="uni1ED2" unicode="&#x1ed2;" horiz-adv-x="404" 
d="M201 -12q-45 0 -79 10.5t-54 43.5t-20 99v326q0 55 20 83.5t54.5 38.5t79.5 10t79.5 -10.5t54.5 -38.5t20 -83v-326q0 -67 -20 -99.5t-55 -43t-80 -10.5zM201 35q23 0 40.5 6t27.5 23.5t10 52.5v352q0 34 -10 51.5t-27.5 23.5t-40.5 6t-40 -6t-27 -23.5t-10 -51.5v-352
q0 -35 10 -52.5t27 -23.5t40 -6zM115 626l66 73h43l66 -73h-46l-41 39l-40 -39h-48zM312 672l-66 70h74l40 -70h-48z" />
    <glyph glyph-name="uni1ED4" unicode="&#x1ed4;" horiz-adv-x="404" 
d="M201 -12q-45 0 -79 10.5t-54 43.5t-20 99v326q0 55 20 83.5t54.5 38.5t79.5 10t79.5 -10.5t54.5 -38.5t20 -83v-326q0 -67 -20 -99.5t-55 -43t-80 -10.5zM201 35q23 0 40.5 6t27.5 23.5t10 52.5v352q0 34 -10 51.5t-27.5 23.5t-40.5 6t-40 -6t-27 -23.5t-10 -51.5v-352
q0 -35 10 -52.5t27 -23.5t40 -6zM115 626l66 73h43l66 -73h-46l-41 39l-40 -39h-48zM298 670v10q0 10 8 15l16 10t8 13v4q0 7 -4 11.5t-12 4.5q-12 0 -15 -15l-33 6q2 17 14.5 27t36.5 10q30 0 42 -9t12 -34v-2q0 -16 -8 -22t-16.5 -9.5t-8.5 -11.5v-8h-40z" />
    <glyph glyph-name="uni1ED6" unicode="&#x1ed6;" horiz-adv-x="404" 
d="M201 -12q-45 0 -79 10.5t-54 43.5t-20 99v326q0 55 20 83.5t54.5 38.5t79.5 10t79.5 -10.5t54.5 -38.5t20 -83v-326q0 -67 -20 -99.5t-55 -43t-80 -10.5zM201 35q23 0 40.5 6t27.5 23.5t10 52.5v352q0 34 -10 51.5t-27.5 23.5t-40.5 6t-40 -6t-27 -23.5t-10 -51.5v-352
q0 -35 10 -52.5t27 -23.5t40 -6zM115 626l66 73h43l66 -73h-46l-41 39l-40 -39h-48zM235 715q-11 0 -19.5 4t-17.5 10q-8 4 -15.5 8t-15.5 4q-9 0 -15 -6.5t-7 -18.5h-22q1 28 13 43.5t31 15.5q10 0 19.5 -2.5t19.5 -9.5q7 -5 14.5 -8t14.5 -3q10 0 15.5 6t7.5 16h25
q-1 -18 -8.5 -31.5t-18 -20.5t-21.5 -7z" />
    <glyph glyph-name="Odieresis" unicode="&#xd6;" horiz-adv-x="404" 
d="M201 -12q-45 0 -79 10.5t-54 43.5t-20 99v326q0 55 20 83.5t54.5 38.5t79.5 10t79.5 -10.5t54.5 -38.5t20 -83v-326q0 -67 -20 -99.5t-55 -43t-80 -10.5zM201 35q23 0 40.5 6t27.5 23.5t10 52.5v352q0 34 -10 51.5t-27.5 23.5t-40.5 6t-40 -6t-27 -23.5t-10 -51.5v-352
q0 -35 10 -52.5t27 -23.5t40 -6zM151 638q-16 0 -26.5 10.5t-10.5 25.5t10.5 24.5t26.5 9.5q15 0 25.5 -9.5t10.5 -24.5t-10.5 -25.5t-25.5 -10.5zM254 638q-15 0 -26 10.5t-11 25.5t11 24.5t26 9.5q16 0 26 -9.5t10 -24.5t-10 -25.5t-26 -10.5z" />
    <glyph glyph-name="uni1ECC" unicode="&#x1ecc;" horiz-adv-x="404" 
d="M201 -12q-45 0 -79 10.5t-54 43.5t-20 99v326q0 55 20 83.5t54.5 38.5t79.5 10t79.5 -10.5t54.5 -38.5t20 -83v-326q0 -67 -20 -99.5t-55 -43t-80 -10.5zM201 35q23 0 40.5 6t27.5 23.5t10 52.5v352q0 34 -10 51.5t-27.5 23.5t-40.5 6t-40 -6t-27 -23.5t-10 -51.5v-352
q0 -35 10 -52.5t27 -23.5t40 -6zM202 -114q-16 0 -26.5 11t-10.5 25q0 15 10.5 25.5t26.5 10.5q15 0 26.5 -10.5t11.5 -25.5q0 -14 -11.5 -25t-26.5 -11z" />
    <glyph glyph-name="Ograve" unicode="&#xd2;" horiz-adv-x="404" 
d="M201 -12q-45 0 -79 10.5t-54 43.5t-20 99v326q0 55 20 83.5t54.5 38.5t79.5 10t79.5 -10.5t54.5 -38.5t20 -83v-326q0 -67 -20 -99.5t-55 -43t-80 -10.5zM201 35q23 0 40.5 6t27.5 23.5t10 52.5v352q0 34 -10 51.5t-27.5 23.5t-40.5 6t-40 -6t-27 -23.5t-10 -51.5v-352
q0 -35 10 -52.5t27 -23.5t40 -6zM201 634l-103 84h76l78 -84h-51z" />
    <glyph glyph-name="uni1ECE" unicode="&#x1ece;" horiz-adv-x="404" 
d="M201 -12q-45 0 -79 10.5t-54 43.5t-20 99v326q0 55 20 83.5t54.5 38.5t79.5 10t79.5 -10.5t54.5 -38.5t20 -83v-326q0 -67 -20 -99.5t-55 -43t-80 -10.5zM201 35q23 0 40.5 6t27.5 23.5t10 52.5v352q0 34 -10 51.5t-27.5 23.5t-40.5 6t-40 -6t-27 -23.5t-10 -51.5v-352
q0 -35 10 -52.5t27 -23.5t40 -6zM179 627v15q0 14 11.5 21.5t22.5 14t11 19.5v5q0 9 -6 17t-20 8q-19 0 -23 -23l-37 7q3 23 19 35t45 12q34 0 50.5 -11.5t16.5 -44.5v-2q0 -22 -12 -31t-24 -14t-12 -17v-11h-42z" />
    <glyph glyph-name="Ohorn" unicode="&#x1a0;" horiz-adv-x="404" 
d="M201 -12q-45 0 -79 10.5t-54 43.5t-20 99v326q0 55 20 83.5t54.5 38.5t79.5 10t79.5 -10.5t54.5 -38.5t20 -83v-326q0 -67 -20 -99.5t-55 -43t-80 -10.5zM201 35q23 0 40.5 6t27.5 23.5t10 52.5v352q0 34 -10 51.5t-27.5 23.5t-40.5 6t-40 -6t-27 -23.5t-10 -51.5v-352
q0 -35 10 -52.5t27 -23.5t40 -6zM254 555l-2 36h14q47 0 47 45v17h52v-14q0 -43 -28 -64t-83 -20z" />
    <glyph glyph-name="uni1EDA" unicode="&#x1eda;" horiz-adv-x="404" 
d="M201 -12q-45 0 -79 10.5t-54 43.5t-20 99v326q0 55 20 83.5t54.5 38.5t79.5 10t79.5 -10.5t54.5 -38.5t20 -83v-326q0 -67 -20 -99.5t-55 -43t-80 -10.5zM201 35q23 0 40.5 6t27.5 23.5t10 52.5v352q0 34 -10 51.5t-27.5 23.5t-40.5 6t-40 -6t-27 -23.5t-10 -51.5v-352
q0 -35 10 -52.5t27 -23.5t40 -6zM254 555l-2 36h14q47 0 47 45v17h52v-14q0 -43 -28 -64t-83 -20zM151 634l80 86h75l-108 -86h-47z" />
    <glyph glyph-name="uni1EE2" unicode="&#x1ee2;" horiz-adv-x="404" 
d="M201 -12q-45 0 -79 10.5t-54 43.5t-20 99v326q0 55 20 83.5t54.5 38.5t79.5 10t79.5 -10.5t54.5 -38.5t20 -83v-326q0 -67 -20 -99.5t-55 -43t-80 -10.5zM201 35q23 0 40.5 6t27.5 23.5t10 52.5v352q0 34 -10 51.5t-27.5 23.5t-40.5 6t-40 -6t-27 -23.5t-10 -51.5v-352
q0 -35 10 -52.5t27 -23.5t40 -6zM254 555l-2 36h14q47 0 47 45v17h52v-14q0 -43 -28 -64t-83 -20zM202 -114q-16 0 -26.5 11t-10.5 25q0 15 10.5 25.5t26.5 10.5q15 0 26.5 -10.5t11.5 -25.5q0 -14 -11.5 -25t-26.5 -11z" />
    <glyph glyph-name="uni1EDC" unicode="&#x1edc;" horiz-adv-x="404" 
d="M201 -12q-45 0 -79 10.5t-54 43.5t-20 99v326q0 55 20 83.5t54.5 38.5t79.5 10t79.5 -10.5t54.5 -38.5t20 -83v-326q0 -67 -20 -99.5t-55 -43t-80 -10.5zM201 35q23 0 40.5 6t27.5 23.5t10 52.5v352q0 34 -10 51.5t-27.5 23.5t-40.5 6t-40 -6t-27 -23.5t-10 -51.5v-352
q0 -35 10 -52.5t27 -23.5t40 -6zM254 555l-2 36h14q47 0 47 45v17h52v-14q0 -43 -28 -64t-83 -20zM201 634l-103 84h76l78 -84h-51z" />
    <glyph glyph-name="uni1EDE" unicode="&#x1ede;" horiz-adv-x="404" 
d="M201 -12q-45 0 -79 10.5t-54 43.5t-20 99v326q0 55 20 83.5t54.5 38.5t79.5 10t79.5 -10.5t54.5 -38.5t20 -83v-326q0 -67 -20 -99.5t-55 -43t-80 -10.5zM201 35q23 0 40.5 6t27.5 23.5t10 52.5v352q0 34 -10 51.5t-27.5 23.5t-40.5 6t-40 -6t-27 -23.5t-10 -51.5v-352
q0 -35 10 -52.5t27 -23.5t40 -6zM254 555l-2 36h14q47 0 47 45v17h52v-14q0 -43 -28 -64t-83 -20zM179 627v15q0 14 11.5 21.5t22.5 14t11 19.5v5q0 9 -6 17t-20 8q-19 0 -23 -23l-37 7q3 23 19 35t45 12q34 0 50.5 -11.5t16.5 -44.5v-2q0 -22 -12 -31t-24 -14t-12 -17v-11
h-42z" />
    <glyph glyph-name="uni1EE0" unicode="&#x1ee0;" horiz-adv-x="404" 
d="M201 -12q-45 0 -79 10.5t-54 43.5t-20 99v326q0 55 20 83.5t54.5 38.5t79.5 10t79.5 -10.5t54.5 -38.5t20 -83v-326q0 -67 -20 -99.5t-55 -43t-80 -10.5zM201 35q23 0 40.5 6t27.5 23.5t10 52.5v352q0 34 -10 51.5t-27.5 23.5t-40.5 6t-40 -6t-27 -23.5t-10 -51.5v-352
q0 -35 10 -52.5t27 -23.5t40 -6zM254 555l-2 36h14q47 0 47 45v17h52v-14q0 -43 -28 -64t-83 -20zM245 639q-14 0 -24.5 5t-24.5 13q-9 6 -20 12t-23 6t-20 -9t-10 -26h-27q1 32 16.5 52.5t41.5 20.5q15 0 27 -5.5t24 -13.5q11 -6 20.5 -11t19.5 -5q13 0 21 8.5t11 24.5h29
q-1 -23 -10 -39t-22.5 -24.5t-28.5 -8.5z" />
    <glyph glyph-name="Ohungarumlaut" unicode="&#x150;" horiz-adv-x="404" 
d="M201 -12q-45 0 -79 10.5t-54 43.5t-20 99v326q0 55 20 83.5t54.5 38.5t79.5 10t79.5 -10.5t54.5 -38.5t20 -83v-326q0 -67 -20 -99.5t-55 -43t-80 -10.5zM201 35q23 0 40.5 6t27.5 23.5t10 52.5v352q0 34 -10 51.5t-27.5 23.5t-40.5 6t-40 -6t-27 -23.5t-10 -51.5v-352
q0 -35 10 -52.5t27 -23.5t40 -6zM138 629l25 95h64l-57 -95h-32zM215 629l33 95h64l-60 -95h-37z" />
    <glyph glyph-name="Omacron" unicode="&#x14c;" horiz-adv-x="404" 
d="M201 -12q-45 0 -79 10.5t-54 43.5t-20 99v326q0 55 20 83.5t54.5 38.5t79.5 10t79.5 -10.5t54.5 -38.5t20 -83v-326q0 -67 -20 -99.5t-55 -43t-80 -10.5zM201 35q23 0 40.5 6t27.5 23.5t10 52.5v352q0 34 -10 51.5t-27.5 23.5t-40.5 6t-40 -6t-27 -23.5t-10 -51.5v-352
q0 -35 10 -52.5t27 -23.5t40 -6zM107 649v41h191v-41h-191z" />
    <glyph glyph-name="uni03A9" unicode="&#x3a9;" horiz-adv-x="600" 
d="M44 0v59l161 -4l-13 8q-47 38 -75 80t-40 85t-12 82q0 57 14.5 103t44.5 80t76.5 52.5t109.5 18.5q64 0 110 -19t75.5 -52.5t43.5 -79t14 -98.5q0 -42 -12.5 -85.5t-40.5 -85.5t-76 -81l-13 -8l162 4v-59h-229v45q41 31 67 63.5t40.5 65.5t20.5 65.5t6 62.5
q0 62 -18.5 110t-56 75.5t-93.5 27.5t-94.5 -27.5t-57.5 -77.5t-19 -116q0 -26 6 -57t20.5 -64t40.5 -66t67 -62v-45h-229z" />
    <glyph glyph-name="Oslash" unicode="&#xd8;" horiz-adv-x="421" 
d="M32 -14l304 605h41l-305 -605h-40zM210 -12q-45 0 -80 10.5t-55 43.5t-20 99v326q0 55 20.5 83.5t55.5 38.5t80 10q46 0 80 -10.5t53 -38.5t19 -83v-326q0 -67 -19 -99.5t-53 -43t-81 -10.5zM211 35q22 0 39 5.5t26.5 23t9.5 53.5v352q0 35 -9.5 52.5t-26.5 23t-39 5.5
t-39.5 -5.5t-27 -23t-9.5 -52.5v-352q0 -36 9.5 -53.5t27 -23t39.5 -5.5z" />
    <glyph glyph-name="Otilde" unicode="&#xd5;" horiz-adv-x="404" 
d="M201 -12q-45 0 -79 10.5t-54 43.5t-20 99v326q0 55 20 83.5t54.5 38.5t79.5 10t79.5 -10.5t54.5 -38.5t20 -83v-326q0 -67 -20 -99.5t-55 -43t-80 -10.5zM201 35q23 0 40.5 6t27.5 23.5t10 52.5v352q0 34 -10 51.5t-27.5 23.5t-40.5 6t-40 -6t-27 -23.5t-10 -51.5v-352
q0 -35 10 -52.5t27 -23.5t40 -6zM245 639q-14 0 -24.5 5t-24.5 13q-9 6 -20 12t-23 6t-20 -9t-10 -26h-27q1 32 16.5 52.5t41.5 20.5q15 0 27 -5.5t24 -13.5q11 -6 20.5 -11t19.5 -5q13 0 21 8.5t11 24.5h29q-1 -23 -10 -39t-22.5 -24.5t-28.5 -8.5z" />
    <glyph glyph-name="P" unicode="P" horiz-adv-x="386" 
d="M57 0v591h191q53 0 83.5 -24.5t30.5 -74.5v-107q0 -35 -9.5 -66t-36.5 -50t-78 -19h-100v-250h-81zM138 295h75q36 0 54 24t18 76v66q0 45 -16.5 65.5t-41.5 20.5h-89v-252z" />
    <glyph glyph-name="uni041F" unicode="&#x41f;" horiz-adv-x="380" 
d="M40 0v591h300v-591h-81v535h-138v-535h-81z" />
    <glyph glyph-name="Q" unicode="Q" horiz-adv-x="407" 
d="M299 -119l-63 110q-8 0 -16.5 -0.5t-18.5 -0.5q-44 0 -78.5 10.5t-54.5 43t-20 98.5v325q0 55 20.5 83.5t56 38.5t80.5 10q47 0 81 -10.5t53.5 -38.5t19.5 -83v-324q0 -60 -16 -91t-45 -44l55 -95zM205 37q23 0 40 5.5t27 23t10 52.5v351q0 35 -10 52.5t-27.5 23
t-39.5 5.5q-23 0 -40.5 -5.5t-27 -23t-9.5 -52.5v-351q0 -35 9.5 -52.5t27 -23t40.5 -5.5z" />
    <glyph glyph-name="R" unicode="R" horiz-adv-x="416" 
d="M57 0v591h194q53 0 83.5 -24.5t30.5 -74.5v-94q0 -51 -29 -80t-81 -31v0q33 -2 48.5 -22t27.5 -62l59 -203h-84l-51 198q-5 18 -12 34t-17 25.5t-27 9.5h-62v-267h-80zM137 321h78q37 0 55.5 18t18.5 62v78q0 36 -17.5 52t-42.5 16h-92v-226z" />
    <glyph glyph-name="Racute" unicode="&#x154;" horiz-adv-x="416" 
d="M57 0v591h194q53 0 83.5 -24.5t30.5 -74.5v-94q0 -51 -29 -80t-81 -31v0q33 -2 48.5 -22t27.5 -62l59 -203h-84l-51 198q-5 18 -12 34t-17 25.5t-27 9.5h-62v-267h-80zM137 321h78q37 0 55.5 18t18.5 62v78q0 36 -17.5 52t-42.5 16h-92v-226zM156 634l80 86h75l-108 -86
h-47z" />
    <glyph glyph-name="Rcaron" unicode="&#x158;" horiz-adv-x="416" 
d="M57 0v591h194q53 0 83.5 -24.5t30.5 -74.5v-94q0 -51 -29 -80t-81 -31v0q33 -2 48.5 -22t27.5 -62l59 -203h-84l-51 198q-5 18 -12 34t-17 25.5t-27 9.5h-62v-267h-80zM137 321h78q37 0 55.5 18t18.5 62v78q0 36 -17.5 52t-42.5 16h-92v-226zM183 630l-88 86h52l61 -50
l61 50h51l-89 -86h-48z" />
    <glyph glyph-name="uni0156" unicode="&#x156;" horiz-adv-x="416" 
d="M57 0v591h194q53 0 83.5 -24.5t30.5 -74.5v-94q0 -51 -29 -80t-81 -31v0q33 -2 48.5 -22t27.5 -62l59 -203h-84l-51 198q-5 18 -12 34t-17 25.5t-27 9.5h-62v-267h-80zM137 321h78q37 0 55.5 18t18.5 62v78q0 36 -17.5 52t-42.5 16h-92v-226zM172 -170q12 19 20 36t8 29
q0 6 -5.5 10.5t-11 10.5t-5.5 17t10.5 20t25.5 9q17 0 27.5 -10.5t10.5 -24.5q0 -12 -7.5 -29.5t-18 -35.5t-22.5 -32h-32z" />
    <glyph glyph-name="S" unicode="S" horiz-adv-x="378" 
d="M185 -7q-47 0 -81 15.5t-52 53.5t-18 105v34h40h39v-39q0 -47 9 -72.5t26 -35.5t38 -10q34 0 56 22.5t22 81.5q0 43 -13 64.5t-39 34.5t-65 29q-33 14 -58 33t-38 49.5t-13 76.5q0 54 14.5 88.5t47.5 51.5t89 17q71 0 110 -34.5t39 -98.5v-67h-38h-38v46q0 47 -18 70
t-55 23q-39 0 -56 -23t-17 -71q0 -37 14.5 -58.5t38 -33t49.5 -21.5q45 -17 72.5 -35.5t40.5 -47.5t13 -83q0 -61 -20 -97.5t-55.5 -52t-83.5 -15.5z" />
    <glyph glyph-name="Sacute" unicode="&#x15a;" horiz-adv-x="378" 
d="M185 -7q-47 0 -81 15.5t-52 53.5t-18 105v34h40h39v-39q0 -47 9 -72.5t26 -35.5t38 -10q34 0 56 22.5t22 81.5q0 43 -13 64.5t-39 34.5t-65 29q-33 14 -58 33t-38 49.5t-13 76.5q0 54 14.5 88.5t47.5 51.5t89 17q71 0 110 -34.5t39 -98.5v-67h-38h-38v46q0 47 -18 70
t-55 23q-39 0 -56 -23t-17 -71q0 -37 14.5 -58.5t38 -33t49.5 -21.5q45 -17 72.5 -35.5t40.5 -47.5t13 -83q0 -61 -20 -97.5t-55.5 -52t-83.5 -15.5zM138 634l80 86h75l-108 -86h-47z" />
    <glyph glyph-name="Scaron" unicode="&#x160;" horiz-adv-x="378" 
d="M185 -7q-47 0 -81 15.5t-52 53.5t-18 105v34h40h39v-39q0 -47 9 -72.5t26 -35.5t38 -10q34 0 56 22.5t22 81.5q0 43 -13 64.5t-39 34.5t-65 29q-33 14 -58 33t-38 49.5t-13 76.5q0 54 14.5 88.5t47.5 51.5t89 17q71 0 110 -34.5t39 -98.5v-67h-38h-38v46q0 47 -18 70
t-55 23q-39 0 -56 -23t-17 -71q0 -37 14.5 -58.5t38 -33t49.5 -21.5q45 -17 72.5 -35.5t40.5 -47.5t13 -83q0 -61 -20 -97.5t-55.5 -52t-83.5 -15.5zM165 630l-88 86h52l61 -50l61 50h51l-89 -86h-48z" />
    <glyph glyph-name="Scedilla" unicode="&#x15e;" horiz-adv-x="378" 
d="M185 -7q-47 0 -81 15.5t-52 53.5t-18 105v34h40h39v-39q0 -47 9 -72.5t26 -35.5t38 -10q34 0 56 22.5t22 81.5q0 43 -13 64.5t-39 34.5t-65 29q-33 14 -58 33t-38 49.5t-13 76.5q0 54 14.5 88.5t47.5 51.5t89 17q71 0 110 -34.5t39 -98.5v-67h-38h-38v46q0 47 -18 70
t-55 23q-39 0 -56 -23t-17 -71q0 -37 14.5 -58.5t38 -33t49.5 -21.5q45 -17 72.5 -35.5t40.5 -47.5t13 -83q0 -61 -20 -97.5t-55.5 -52t-83.5 -15.5zM184 -150q-16 0 -29.5 6t-21.5 10l11 27q6 -5 17.5 -9t19.5 -4q19 0 28 8.5t9 21.5q0 12 -8 19t-20 7q-7 0 -13 -2.5
t-11 -6.5l-24 13l32 60h32l-27 -51l-6 2q7 4 16 6.5t19 2.5q25 0 39.5 -16t14.5 -33q0 -26 -20 -43.5t-58 -17.5z" />
    <glyph glyph-name="uni0218" unicode="&#x218;" horiz-adv-x="378" 
d="M185 -7q-47 0 -81 15.5t-52 53.5t-18 105v34h40h39v-39q0 -47 9 -72.5t26 -35.5t38 -10q34 0 56 22.5t22 81.5q0 43 -13 64.5t-39 34.5t-65 29q-33 14 -58 33t-38 49.5t-13 76.5q0 54 14.5 88.5t47.5 51.5t89 17q71 0 110 -34.5t39 -98.5v-67h-38h-38v46q0 47 -18 70
t-55 23q-39 0 -56 -23t-17 -71q0 -37 14.5 -58.5t38 -33t49.5 -21.5q45 -17 72.5 -35.5t40.5 -47.5t13 -83q0 -61 -20 -97.5t-55.5 -52t-83.5 -15.5zM146 -170q12 19 20 36t8 29q0 6 -5.5 10.5t-11 10.5t-5.5 17t10.5 20t25.5 9q17 0 27.5 -10.5t10.5 -24.5
q0 -12 -7.5 -29.5t-18 -35.5t-22.5 -32h-32z" />
    <glyph glyph-name="uni0428" unicode="&#x428;" horiz-adv-x="600" 
d="M40 0v591h80v-536h140v536h80v-536h140v536h80v-591h-520z" />
    <glyph glyph-name="uni0429" unicode="&#x429;" horiz-adv-x="636" 
d="M538 -84v84h-498v591h80v-536h140v536h80v-536h140v536h80v-553h41v-122h-63z" />
    <glyph glyph-name="uni042C" unicode="&#x42c;" horiz-adv-x="370" 
d="M40 0v590h76v-155h96q40 0 66 -12t39 -39t13 -72v-163q0 -44 -7.5 -73t-23 -45.5t-39.5 -23.5t-57 -7h-163zM116 42h72q29 0 43 12t18.5 36.5t4.5 61.5v143q0 26 -4 46.5t-18 33t-46 12.5h-70v-345z" />
    <glyph glyph-name="T" unicode="T" horiz-adv-x="294" 
d="M108 0v536h-98v55h274v-55h-99v-536h-77z" />
    <glyph glyph-name="Tbar" unicode="&#x166;" horiz-adv-x="307" 
d="M57 395v44h189v-44h-189zM108 0v536h-98v55h274v-55h-99v-536h-77z" />
    <glyph glyph-name="Tcaron" unicode="&#x164;" horiz-adv-x="294" 
d="M108 0v536h-98v55h274v-55h-99v-536h-77zM123 630l-88 86h52l61 -50l61 50h51l-89 -86h-48z" />
    <glyph glyph-name="uni0162" unicode="&#x162;" horiz-adv-x="294" 
d="M108 0v536h-98v55h274v-55h-99v-536h-77zM142 -150q-16 0 -29.5 6t-21.5 10l11 27q6 -5 17.5 -9t19.5 -4q19 0 28 8.5t9 21.5q0 12 -8 19t-20 7q-7 0 -13 -2.5t-11 -6.5l-24 13l32 60h32l-27 -51l-6 2q7 4 16 6.5t19 2.5q25 0 39.5 -16t14.5 -33q0 -26 -20 -43.5
t-58 -17.5z" />
    <glyph glyph-name="uni021A" unicode="&#x21a;" horiz-adv-x="294" 
d="M108 0v536h-98v55h274v-55h-99v-536h-77zM104 -170q12 19 20 36t8 29q0 6 -5.5 10.5t-11 10.5t-5.5 17t10.5 20t25.5 9q17 0 27.5 -10.5t10.5 -24.5q0 -12 -7.5 -29.5t-18 -35.5t-22.5 -32h-32z" />
    <glyph glyph-name="uni0422" unicode="&#x422;" horiz-adv-x="294" 
d="M108 0v536h-98v55h274v-55h-99v-536h-77z" />
    <glyph glyph-name="Thorn" unicode="&#xde;" horiz-adv-x="384" 
d="M40 0v591h80v-109h110q53 0 83.5 -24.5t30.5 -74.5v-107q0 -36 -9.5 -66.5t-36 -50t-77.5 -19.5h-101v-140h-80zM120 185h75q37 0 55 24t18 76v66q0 47 -16.5 67t-41.5 20h-90v-253z" />
    <glyph glyph-name="uni0426" unicode="&#x426;" horiz-adv-x="419" 
d="M320 -84v84h-280v591h81v-535h141v535h81v-552h40v-123h-63z" />
    <glyph glyph-name="uni040B" unicode="&#x40b;" horiz-adv-x="448" 
d="M116 0v535h-102v56h282v-56h-102v-145q9 15 34.5 29t61.5 14q51 0 76.5 -17t33.5 -47.5t8 -68.5v-300h-77v300q0 24 -5 42t-19 28t-43 10q-32 0 -48.5 -14.5t-21.5 -29.5v-336h-78z" />
    <glyph glyph-name="U" unicode="U" horiz-adv-x="412" 
d="M206 -12q-32 0 -60 5t-48.5 19.5t-32.5 43t-12 76.5v459h78v-477q0 -32 10.5 -48.5t27.5 -22.5t37 -6t37.5 6t28 22.5t10.5 48.5v477h76v-459q0 -47 -11.5 -76t-32 -43.5t-48.5 -19.5t-60 -5z" />
    <glyph glyph-name="uni0423" unicode="&#x423;" horiz-adv-x="330" 
d="M86 -10q-20 0 -38 2.5t-30 5.5v42l15 -2.5t19 -1.5q13 0 27.5 4.5t22.5 21.5q6 10 9 22t4 30l-107 477h79l80 -415v0l82 415h73l-104 -460q-17 -77 -46 -109t-86 -32z" />
    <glyph glyph-name="Uacute" unicode="&#xda;" horiz-adv-x="412" 
d="M206 -12q-32 0 -60 5t-48.5 19.5t-32.5 43t-12 76.5v459h78v-477q0 -32 10.5 -48.5t27.5 -22.5t37 -6t37.5 6t28 22.5t10.5 48.5v477h76v-459q0 -47 -11.5 -76t-32 -43.5t-48.5 -19.5t-60 -5zM154 634l80 86h75l-108 -86h-47z" />
    <glyph glyph-name="uni01D3" unicode="&#x1d3;" horiz-adv-x="412" 
d="M206 -12q-32 0 -60 5t-48.5 19.5t-32.5 43t-12 76.5v459h78v-477q0 -32 10.5 -48.5t27.5 -22.5t37 -6t37.5 6t28 22.5t10.5 48.5v477h76v-459q0 -47 -11.5 -76t-32 -43.5t-48.5 -19.5t-60 -5zM181 630l-88 86h52l61 -50l61 50h51l-89 -86h-48z" />
    <glyph glyph-name="Ucircumflex" unicode="&#xdb;" horiz-adv-x="412" 
d="M206 -12q-32 0 -60 5t-48.5 19.5t-32.5 43t-12 76.5v459h78v-477q0 -32 10.5 -48.5t27.5 -22.5t37 -6t37.5 6t28 22.5t10.5 48.5v477h76v-459q0 -47 -11.5 -76t-32 -43.5t-48.5 -19.5t-60 -5zM90 630l92 92h47l92 -92h-50l-65 56l-64 -56h-52z" />
    <glyph glyph-name="Udieresis" unicode="&#xdc;" horiz-adv-x="412" 
d="M206 -12q-32 0 -60 5t-48.5 19.5t-32.5 43t-12 76.5v459h78v-477q0 -32 10.5 -48.5t27.5 -22.5t37 -6t37.5 6t28 22.5t10.5 48.5v477h76v-459q0 -47 -11.5 -76t-32 -43.5t-48.5 -19.5t-60 -5zM154 638q-16 0 -26.5 10.5t-10.5 25.5t10.5 24.5t26.5 9.5q15 0 25.5 -9.5
t10.5 -24.5t-10.5 -25.5t-25.5 -10.5zM257 638q-15 0 -26 10.5t-11 25.5t11 24.5t26 9.5q16 0 26 -9.5t10 -24.5t-10 -25.5t-26 -10.5z" />
    <glyph glyph-name="uni01D7" unicode="&#x1d7;" horiz-adv-x="412" 
d="M206 -12q-32 0 -60 5t-48.5 19.5t-32.5 43t-12 76.5v459h78v-477q0 -32 10.5 -48.5t27.5 -22.5t37 -6t37.5 6t28 22.5t10.5 48.5v477h76v-459q0 -47 -11.5 -76t-32 -43.5t-48.5 -19.5t-60 -5zM154 638q-16 0 -26.5 10.5t-10.5 25.5t10.5 24.5t26.5 9.5q15 0 25.5 -9.5
t10.5 -24.5t-10.5 -25.5t-25.5 -10.5zM257 638q-15 0 -26 10.5t-11 25.5t11 24.5t26 9.5q16 0 26 -9.5t10 -24.5t-10 -25.5t-26 -10.5zM154 730l80 86h75l-108 -86h-47z" />
    <glyph glyph-name="uni01D9" unicode="&#x1d9;" horiz-adv-x="412" 
d="M206 -12q-32 0 -60 5t-48.5 19.5t-32.5 43t-12 76.5v459h78v-477q0 -32 10.5 -48.5t27.5 -22.5t37 -6t37.5 6t28 22.5t10.5 48.5v477h76v-459q0 -47 -11.5 -76t-32 -43.5t-48.5 -19.5t-60 -5zM154 638q-16 0 -26.5 10.5t-10.5 25.5t10.5 24.5t26.5 9.5q15 0 25.5 -9.5
t10.5 -24.5t-10.5 -25.5t-25.5 -10.5zM257 638q-15 0 -26 10.5t-11 25.5t11 24.5t26 9.5q16 0 26 -9.5t10 -24.5t-10 -25.5t-26 -10.5zM181 726l-88 86h52l61 -50l61 50h51l-89 -86h-48z" />
    <glyph glyph-name="uni01DB" unicode="&#x1db;" horiz-adv-x="412" 
d="M206 -12q-32 0 -60 5t-48.5 19.5t-32.5 43t-12 76.5v459h78v-477q0 -32 10.5 -48.5t27.5 -22.5t37 -6t37.5 6t28 22.5t10.5 48.5v477h76v-459q0 -47 -11.5 -76t-32 -43.5t-48.5 -19.5t-60 -5zM154 638q-16 0 -26.5 10.5t-10.5 25.5t10.5 24.5t26.5 9.5q15 0 25.5 -9.5
t10.5 -24.5t-10.5 -25.5t-25.5 -10.5zM257 638q-15 0 -26 10.5t-11 25.5t11 24.5t26 9.5q16 0 26 -9.5t10 -24.5t-10 -25.5t-26 -10.5zM204 730l-103 84h76l78 -84h-51z" />
    <glyph glyph-name="uni01D5" unicode="&#x1d5;" horiz-adv-x="412" 
d="M206 -12q-32 0 -60 5t-48.5 19.5t-32.5 43t-12 76.5v459h78v-477q0 -32 10.5 -48.5t27.5 -22.5t37 -6t37.5 6t28 22.5t10.5 48.5v477h76v-459q0 -47 -11.5 -76t-32 -43.5t-48.5 -19.5t-60 -5zM154 638q-16 0 -26.5 10.5t-10.5 25.5t10.5 24.5t26.5 9.5q15 0 25.5 -9.5
t10.5 -24.5t-10.5 -25.5t-25.5 -10.5zM257 638q-15 0 -26 10.5t-11 25.5t11 24.5t26 9.5q16 0 26 -9.5t10 -24.5t-10 -25.5t-26 -10.5zM110 745v41h191v-41h-191z" />
    <glyph glyph-name="uni1EE4" unicode="&#x1ee4;" horiz-adv-x="412" 
d="M206 -12q-32 0 -60 5t-48.5 19.5t-32.5 43t-12 76.5v459h78v-477q0 -32 10.5 -48.5t27.5 -22.5t37 -6t37.5 6t28 22.5t10.5 48.5v477h76v-459q0 -47 -11.5 -76t-32 -43.5t-48.5 -19.5t-60 -5zM205 -114q-16 0 -26.5 11t-10.5 25q0 15 10.5 25.5t26.5 10.5
q15 0 26.5 -10.5t11.5 -25.5q0 -14 -11.5 -25t-26.5 -11z" />
    <glyph glyph-name="Ugrave" unicode="&#xd9;" horiz-adv-x="412" 
d="M206 -12q-32 0 -60 5t-48.5 19.5t-32.5 43t-12 76.5v459h78v-477q0 -32 10.5 -48.5t27.5 -22.5t37 -6t37.5 6t28 22.5t10.5 48.5v477h76v-459q0 -47 -11.5 -76t-32 -43.5t-48.5 -19.5t-60 -5zM204 634l-103 84h76l78 -84h-51z" />
    <glyph glyph-name="uni1EE6" unicode="&#x1ee6;" horiz-adv-x="412" 
d="M206 -12q-32 0 -60 5t-48.5 19.5t-32.5 43t-12 76.5v459h78v-477q0 -32 10.5 -48.5t27.5 -22.5t37 -6t37.5 6t28 22.5t10.5 48.5v477h76v-459q0 -47 -11.5 -76t-32 -43.5t-48.5 -19.5t-60 -5zM183 627v15q0 14 11.5 21.5t22.5 14t11 19.5v5q0 9 -6 17t-20 8
q-19 0 -23 -23l-37 7q3 23 19 35t45 12q34 0 50.5 -11.5t16.5 -44.5v-2q0 -22 -12 -31t-24 -14t-12 -17v-11h-42z" />
    <glyph glyph-name="Uhorn" unicode="&#x1af;" horiz-adv-x="412" 
d="M206 -12q-32 0 -60 5t-48.5 19.5t-32.5 43t-12 76.5v459h78v-477q0 -32 10.5 -48.5t27.5 -22.5t37 -6t37.5 6t28 22.5t10.5 48.5v477h76v-459q0 -47 -11.5 -76t-32 -43.5t-48.5 -19.5t-60 -5zM297 555l-2 36h14q47 0 47 45v17h52v-14q0 -43 -28 -64t-83 -20z" />
    <glyph glyph-name="uni1EE8" unicode="&#x1ee8;" horiz-adv-x="412" 
d="M206 -12q-32 0 -60 5t-48.5 19.5t-32.5 43t-12 76.5v459h78v-477q0 -32 10.5 -48.5t27.5 -22.5t37 -6t37.5 6t28 22.5t10.5 48.5v477h76v-459q0 -47 -11.5 -76t-32 -43.5t-48.5 -19.5t-60 -5zM297 555l-2 36h14q47 0 47 45v17h52v-14q0 -43 -28 -64t-83 -20zM154 634
l80 86h75l-108 -86h-47z" />
    <glyph glyph-name="uni1EF0" unicode="&#x1ef0;" horiz-adv-x="412" 
d="M206 -12q-32 0 -60 5t-48.5 19.5t-32.5 43t-12 76.5v459h78v-477q0 -32 10.5 -48.5t27.5 -22.5t37 -6t37.5 6t28 22.5t10.5 48.5v477h76v-459q0 -47 -11.5 -76t-32 -43.5t-48.5 -19.5t-60 -5zM297 555l-2 36h14q47 0 47 45v17h52v-14q0 -43 -28 -64t-83 -20zM205 -114
q-16 0 -26.5 11t-10.5 25q0 15 10.5 25.5t26.5 10.5q15 0 26.5 -10.5t11.5 -25.5q0 -14 -11.5 -25t-26.5 -11z" />
    <glyph glyph-name="uni1EEA" unicode="&#x1eea;" horiz-adv-x="412" 
d="M206 -12q-32 0 -60 5t-48.5 19.5t-32.5 43t-12 76.5v459h78v-477q0 -32 10.5 -48.5t27.5 -22.5t37 -6t37.5 6t28 22.5t10.5 48.5v477h76v-459q0 -47 -11.5 -76t-32 -43.5t-48.5 -19.5t-60 -5zM297 555l-2 36h14q47 0 47 45v17h52v-14q0 -43 -28 -64t-83 -20zM204 634
l-103 84h76l78 -84h-51z" />
    <glyph glyph-name="uni1EEC" unicode="&#x1eec;" horiz-adv-x="412" 
d="M206 -12q-32 0 -60 5t-48.5 19.5t-32.5 43t-12 76.5v459h78v-477q0 -32 10.5 -48.5t27.5 -22.5t37 -6t37.5 6t28 22.5t10.5 48.5v477h76v-459q0 -47 -11.5 -76t-32 -43.5t-48.5 -19.5t-60 -5zM297 555l-2 36h14q47 0 47 45v17h52v-14q0 -43 -28 -64t-83 -20zM183 627v15
q0 14 11.5 21.5t22.5 14t11 19.5v5q0 9 -6 17t-20 8q-19 0 -23 -23l-37 7q3 23 19 35t45 12q34 0 50.5 -11.5t16.5 -44.5v-2q0 -22 -12 -31t-24 -14t-12 -17v-11h-42z" />
    <glyph glyph-name="uni1EEE" unicode="&#x1eee;" horiz-adv-x="412" 
d="M206 -12q-32 0 -60 5t-48.5 19.5t-32.5 43t-12 76.5v459h78v-477q0 -32 10.5 -48.5t27.5 -22.5t37 -6t37.5 6t28 22.5t10.5 48.5v477h76v-459q0 -47 -11.5 -76t-32 -43.5t-48.5 -19.5t-60 -5zM297 555l-2 36h14q47 0 47 45v17h52v-14q0 -43 -28 -64t-83 -20zM248 639
q-14 0 -24.5 5t-24.5 13q-9 6 -20 12t-23 6t-20 -9t-10 -26h-27q1 32 16.5 52.5t41.5 20.5q15 0 27 -5.5t24 -13.5q11 -6 20.5 -11t19.5 -5q13 0 21 8.5t11 24.5h29q-1 -23 -10 -39t-22.5 -24.5t-28.5 -8.5z" />
    <glyph glyph-name="Uhungarumlaut" unicode="&#x170;" horiz-adv-x="412" 
d="M206 -12q-32 0 -60 5t-48.5 19.5t-32.5 43t-12 76.5v459h78v-477q0 -32 10.5 -48.5t27.5 -22.5t37 -6t37.5 6t28 22.5t10.5 48.5v477h76v-459q0 -47 -11.5 -76t-32 -43.5t-48.5 -19.5t-60 -5zM142 629l25 95h64l-57 -95h-32zM219 629l33 95h64l-60 -95h-37z" />
    <glyph glyph-name="Umacron" unicode="&#x16a;" horiz-adv-x="412" 
d="M206 -12q-32 0 -60 5t-48.5 19.5t-32.5 43t-12 76.5v459h78v-477q0 -32 10.5 -48.5t27.5 -22.5t37 -6t37.5 6t28 22.5t10.5 48.5v477h76v-459q0 -47 -11.5 -76t-32 -43.5t-48.5 -19.5t-60 -5zM110 649v41h191v-41h-191z" />
    <glyph glyph-name="Uogonek" unicode="&#x172;" horiz-adv-x="412" 
d="M206 -12q-32 0 -60 5t-48.5 19.5t-32.5 43t-12 76.5v459h78v-477q0 -32 10.5 -48.5t27.5 -22.5t37 -6t37.5 6t28 22.5t10.5 48.5v477h76v-459q0 -47 -11.5 -76t-32 -43.5t-48.5 -19.5t-60 -5zM217 -138q-30 0 -51 17.5t-21 42.5q0 28 21 50t48 29l36 -1
q-27 -11 -40.5 -30t-13.5 -38t13 -29t26 -10q8 0 14.5 2t9.5 4l11 -24q-6 -3 -18.5 -8t-34.5 -5z" />
    <glyph glyph-name="Uring" unicode="&#x16e;" horiz-adv-x="412" 
d="M206 -12q-32 0 -60 5t-48.5 19.5t-32.5 43t-12 76.5v459h78v-477q0 -32 10.5 -48.5t27.5 -22.5t37 -6t37.5 6t28 22.5t10.5 48.5v477h76v-459q0 -47 -11.5 -76t-32 -43.5t-48.5 -19.5t-60 -5zM205 616q-35 0 -58 22.5t-23 53.5q0 32 23 54.5t58 22.5q36 0 59 -22.5
t23 -54.5q0 -31 -24.5 -53.5t-57.5 -22.5zM205 650q21 0 33 12t12 30q0 20 -12 31.5t-33 11.5q-20 0 -32 -11.5t-12 -31.5q0 -18 12 -30t32 -12z" />
    <glyph glyph-name="uni040E" unicode="&#x40e;" horiz-adv-x="330" 
d="M86 -10q-20 0 -38 2.5t-30 5.5v42l15 -2.5t19 -1.5q13 0 27.5 4.5t22.5 21.5q6 10 9 22t4 30l-107 477h79l80 -415v0l82 415h73l-104 -460q-17 -77 -46 -109t-86 -32zM164 630q-40 0 -62 15.5t-30.5 37t-9.5 39.5h44q3 -27 19.5 -40t38.5 -13q25 0 41 12.5t19 40.5h44
q-1 -22 -11.5 -43t-33 -35t-59.5 -14z" />
    <glyph glyph-name="Utilde" unicode="&#x168;" horiz-adv-x="412" 
d="M206 -12q-32 0 -60 5t-48.5 19.5t-32.5 43t-12 76.5v459h78v-477q0 -32 10.5 -48.5t27.5 -22.5t37 -6t37.5 6t28 22.5t10.5 48.5v477h76v-459q0 -47 -11.5 -76t-32 -43.5t-48.5 -19.5t-60 -5zM248 639q-14 0 -24.5 5t-24.5 13q-9 6 -20 12t-23 6t-20 -9t-10 -26h-27
q1 32 16.5 52.5t41.5 20.5q15 0 27 -5.5t24 -13.5q11 -6 20.5 -11t19.5 -5q13 0 21 8.5t11 24.5h29q-1 -23 -10 -39t-22.5 -24.5t-28.5 -8.5z" />
    <glyph glyph-name="V" unicode="V" horiz-adv-x="353" 
d="M125 0l-107 591h79l81 -498h-2l83 498h76l-108 -591h-102z" />
    <glyph glyph-name="uni0412" unicode="&#x412;" horiz-adv-x="410" 
d="M57 0v591h190q51 0 82 -24.5t31 -74.5v-70q0 -28 -8 -49.5t-22 -34.5t-32.5 -18t-32.5 -6v1q19 0 37 -4.5t31 -16.5q16 -14 25 -36t9 -52v-84q0 -50 -16.5 -76.5t-45.5 -36t-69 -9.5h-179zM135 43h86q21 0 36 6t23.5 24.5t8.5 53.5v78q0 46 -21.5 61t-54.5 15h-78v-238z
M135 331h76q36 0 55 20.5t19 61.5v66q0 35 -17.5 51.5t-42.5 16.5h-90v-216z" />
    <glyph glyph-name="W" unicode="W" horiz-adv-x="562" 
d="M110 0l-92 591h79l70 -487l83 487h62l82 -486l71 486h79l-93 -591h-89l-81 420l-80 -420h-91z" />
    <glyph glyph-name="Wacute" unicode="&#x1e82;" horiz-adv-x="562" 
d="M110 0l-92 591h79l70 -487l83 487h62l82 -486l71 486h79l-93 -591h-89l-81 420l-80 -420h-91zM230 634l80 86h75l-108 -86h-47z" />
    <glyph glyph-name="Wcircumflex" unicode="&#x174;" horiz-adv-x="562" 
d="M110 0l-92 591h79l70 -487l83 487h62l82 -486l71 486h79l-93 -591h-89l-81 420l-80 -420h-91zM165 630l92 92h47l92 -92h-50l-65 56l-64 -56h-52z" />
    <glyph glyph-name="Wdieresis" unicode="&#x1e84;" horiz-adv-x="562" 
d="M110 0l-92 591h79l70 -487l83 487h62l82 -486l71 486h79l-93 -591h-89l-81 420l-80 -420h-91zM230 638q-16 0 -26.5 10.5t-10.5 25.5t10.5 24.5t26.5 9.5q15 0 25.5 -9.5t10.5 -24.5t-10.5 -25.5t-25.5 -10.5zM333 638q-15 0 -26 10.5t-11 25.5t11 24.5t26 9.5
q16 0 26 -9.5t10 -24.5t-10 -25.5t-26 -10.5z" />
    <glyph glyph-name="Wgrave" unicode="&#x1e80;" horiz-adv-x="562" 
d="M110 0l-92 591h79l70 -487l83 487h62l82 -486l71 486h79l-93 -591h-89l-81 420l-80 -420h-91zM280 634l-103 84h76l78 -84h-51z" />
    <glyph glyph-name="X" unicode="X" horiz-adv-x="332" 
d="M15 0l93 302l-86 289h77l67 -235l71 235h80l-91 -290l89 -301h-77l-71 235l-71 -235h-81z" />
    <glyph glyph-name="Y" unicode="Y" horiz-adv-x="334" 
d="M125 0v257l-111 334h79l69 -225l5 -25l5 25l74 225h73l-117 -338v-253h-77z" />
    <glyph glyph-name="Yacute" unicode="&#xdd;" horiz-adv-x="334" 
d="M125 0v257l-111 334h79l69 -225l5 -25l5 25l74 225h73l-117 -338v-253h-77zM118 634l80 86h75l-108 -86h-47z" />
    <glyph glyph-name="uni0462" unicode="&#x462;" horiz-adv-x="417" 
d="M87 0v590h76v-155h96q39 0 65.5 -12t39.5 -39t13 -72v-163q0 -44 -7.5 -73t-23 -45.5t-39.5 -23.5t-57 -7h-163zM163 42h72q28 0 42.5 12t19 36.5t4.5 61.5v143q0 26 -4 46.5t-18 33t-46 12.5h-70v-345zM15 504v42h298v-42h-298z" />
    <glyph glyph-name="Ycircumflex" unicode="&#x176;" horiz-adv-x="334" 
d="M125 0v257l-111 334h79l69 -225l5 -25l5 25l74 225h73l-117 -338v-253h-77zM54 630l92 92h47l92 -92h-50l-65 56l-64 -56h-52z" />
    <glyph glyph-name="Ydieresis" unicode="&#x178;" horiz-adv-x="334" 
d="M125 0v257l-111 334h79l69 -225l5 -25l5 25l74 225h73l-117 -338v-253h-77zM118 638q-16 0 -26.5 10.5t-10.5 25.5t10.5 24.5t26.5 9.5q15 0 25.5 -9.5t10.5 -24.5t-10.5 -25.5t-25.5 -10.5zM221 638q-15 0 -26 10.5t-11 25.5t11 24.5t26 9.5q16 0 26 -9.5t10 -24.5
t-10 -25.5t-26 -10.5z" />
    <glyph glyph-name="uni1EF4" unicode="&#x1ef4;" horiz-adv-x="334" 
d="M125 0v257l-111 334h79l69 -225l5 -25l5 25l74 225h73l-117 -338v-253h-77zM166 -114q-16 0 -26.5 11t-10.5 25q0 15 10.5 25.5t26.5 10.5q15 0 26.5 -10.5t11.5 -25.5q0 -14 -11.5 -25t-26.5 -11z" />
    <glyph glyph-name="uni042B" unicode="&#x42b;" horiz-adv-x="514" 
d="M40 0v590h76v-155h96q40 0 66 -12t39 -39t13 -72v-163q0 -44 -7.5 -73t-23 -45.5t-39.5 -23.5t-57 -7h-163zM116 42h72q29 0 43 12t18.5 36.5t4.5 61.5v143q0 26 -4 46.5t-18 33t-46 12.5h-70v-345zM397 0v591h77v-591h-77z" />
    <glyph glyph-name="Ygrave" unicode="&#x1ef2;" horiz-adv-x="334" 
d="M125 0v257l-111 334h79l69 -225l5 -25l5 25l74 225h73l-117 -338v-253h-77zM168 634l-103 84h76l78 -84h-51z" />
    <glyph glyph-name="uni1EF6" unicode="&#x1ef6;" horiz-adv-x="334" 
d="M125 0v257l-111 334h79l69 -225l5 -25l5 25l74 225h73l-117 -338v-253h-77zM147 627v15q0 14 11.5 21.5t22.5 14t11 19.5v5q0 9 -6 17t-20 8q-19 0 -23 -23l-37 7q3 23 19 35t45 12q34 0 50.5 -11.5t16.5 -44.5v-2q0 -22 -12 -31t-24 -14t-12 -17v-11h-42z" />
    <glyph glyph-name="uni0407" unicode="&#x407;" horiz-adv-x="191" 
d="M57 0v591h77v-591h-77zM45 638q-16 0 -26.5 10.5t-10.5 25.5t10.5 24.5t26.5 9.5q15 0 25.5 -9.5t10.5 -24.5t-10.5 -25.5t-25.5 -10.5zM148 638q-15 0 -26 10.5t-11 25.5t11 24.5t26 9.5q16 0 26 -9.5t10 -24.5t-10 -25.5t-26 -10.5z" />
    <glyph glyph-name="uni1EF8" unicode="&#x1ef8;" horiz-adv-x="334" 
d="M125 0v257l-111 334h79l69 -225l5 -25l5 25l74 225h73l-117 -338v-253h-77zM212 639q-14 0 -24.5 5t-24.5 13q-9 6 -20 12t-23 6t-20 -9t-10 -26h-27q1 32 16.5 52.5t41.5 20.5q15 0 27 -5.5t24 -13.5q11 -6 20.5 -11t19.5 -5q13 0 21 8.5t11 24.5h29q-1 -23 -10 -39
t-22.5 -24.5t-28.5 -8.5z" />
    <glyph glyph-name="uni046A" unicode="&#x46a;" horiz-adv-x="659" 
d="M36 0l61 237q7 23 18 44t29 34.5t45 13.5l71 1l-236 207v54h608v-54l-235 -206l71 -2q30 0 48 -13.5t28.5 -34t16.5 -44.5l61 -237h-85l-52 223q-6 27 -18 51t-36 32h-62v-306h-80v306h-62q-24 -8 -35.5 -31t-18.5 -49l-52 -226h-85zM328 354l213 183h-427z" />
    <glyph glyph-name="Z" unicode="Z" horiz-adv-x="282" 
d="M17 0v52l160 484h-149v55h237v-43l-165 -493h165v-55h-248z" />
    <glyph glyph-name="Zacute" unicode="&#x179;" horiz-adv-x="282" 
d="M17 0v52l160 484h-149v55h237v-43l-165 -493h165v-55h-248zM101 634l80 86h75l-108 -86h-47z" />
    <glyph glyph-name="Zcaron" unicode="&#x17d;" horiz-adv-x="282" 
d="M17 0v52l160 484h-149v55h237v-43l-165 -493h165v-55h-248zM128 630l-88 86h52l61 -50l61 50h51l-89 -86h-48z" />
    <glyph glyph-name="Zdotaccent" unicode="&#x17b;" horiz-adv-x="282" 
d="M17 0v52l160 484h-149v55h237v-43l-165 -493h165v-55h-248zM159 639q-17 0 -30 12.5t-13 29.5q0 18 13 30t31 12t30.5 -12t12.5 -30q1 -17 -12.5 -29.5t-31.5 -12.5z" />
    <glyph glyph-name="uni0417" unicode="&#x417;" horiz-adv-x="398" 
d="M191 -7q-56 0 -91 18.5t-51.5 51.5t-16.5 76v62h79v-47q0 -49 19.5 -76.5t59.5 -28.5q38 0 59 25.5t21 67.5v56q0 41 -27 62t-74 22h-56v47h56q23 0 42.5 7.5t31.5 21.5q13 12 18 26.5t5 31.5v36q0 36 -17.5 61t-58.5 25t-58.5 -27t-17.5 -70v-32h-79v47q0 66 38 102
t118 36q83 0 120 -34t37 -99v-34q0 -52 -26 -83t-70 -41q48 -6 73.5 -39t25.5 -84v-41q0 -45 -15.5 -78t-50.5 -50.5t-94 -17.5z" />
    <glyph glyph-name="uni0416" unicode="&#x416;" horiz-adv-x="631" 
d="M34 0l148 306l-143 285h88l121 -263h28v262h78v-262h30l120 263h90l-144 -285l148 -306h-88l-126 283h-30v-283h-78v283h-29l-126 -283h-87z" />
    <glyph glyph-name="a" unicode="a" horiz-adv-x="362" 
d="M138 -7q-24 0 -47 6.5t-39 29.5t-16 72v53q0 49 29.5 79t84.5 54q33 15 54 27.5t31 28t10 41.5v23q0 22 -8.5 33.5t-23 16.5t-31.5 5q-40 0 -52.5 -22.5t-12.5 -68.5v-42h-69v49q0 37 10 65.5t39 45t85 16.5q59 0 89 -12.5t40.5 -36.5t10.5 -60v-396h-76v60
q-11 -33 -41.5 -50t-66.5 -17zM168 44q41 0 58.5 28.5t17.5 77.5v150q-9 -15 -29.5 -26.5t-41.5 -23.5q-30 -18 -46.5 -37t-16.5 -53v-43q0 -32 9 -48t22.5 -20.5t26.5 -4.5z" />
    <glyph glyph-name="uni0430" unicode="&#x430;" horiz-adv-x="362" 
d="M138 -7q-24 0 -47 6.5t-39 29.5t-16 72v53q0 49 29.5 79t84.5 54q33 15 54 27.5t31 28t10 41.5v23q0 22 -8.5 33.5t-23 16.5t-31.5 5q-40 0 -52.5 -22.5t-12.5 -68.5v-42h-69v49q0 37 10 65.5t39 45t85 16.5q59 0 89 -12.5t40.5 -36.5t10.5 -60v-396h-76v60
q-11 -33 -41.5 -50t-66.5 -17zM168 44q41 0 58.5 28.5t17.5 77.5v150q-9 -15 -29.5 -26.5t-41.5 -23.5q-30 -18 -46.5 -37t-16.5 -53v-43q0 -32 9 -48t22.5 -20.5t26.5 -4.5z" />
    <glyph glyph-name="a.sc" horiz-adv-x="370" 
d="M13 0l121 495h103l120 -495h-84l-27 102h-126l-26 -102h-81zM122 142h123l-61 283z" />
    <glyph glyph-name="aacute" unicode="&#xe1;" horiz-adv-x="362" 
d="M138 -7q-24 0 -47 6.5t-39 29.5t-16 72v53q0 49 29.5 79t84.5 54q33 15 54 27.5t31 28t10 41.5v23q0 22 -8.5 33.5t-23 16.5t-31.5 5q-40 0 -52.5 -22.5t-12.5 -68.5v-42h-69v49q0 37 10 65.5t39 45t85 16.5q59 0 89 -12.5t40.5 -36.5t10.5 -60v-396h-76v60
q-11 -33 -41.5 -50t-66.5 -17zM168 44q41 0 58.5 28.5t17.5 77.5v150q-9 -15 -29.5 -26.5t-41.5 -23.5q-30 -18 -46.5 -37t-16.5 -53v-43q0 -32 9 -48t22.5 -20.5t26.5 -4.5zM145 546l57 95h77l-86 -95h-48z" />
    <glyph glyph-name="abreve" unicode="&#x103;" horiz-adv-x="362" 
d="M138 -7q-24 0 -47 6.5t-39 29.5t-16 72v53q0 49 29.5 79t84.5 54q33 15 54 27.5t31 28t10 41.5v23q0 22 -8.5 33.5t-23 16.5t-31.5 5q-40 0 -52.5 -22.5t-12.5 -68.5v-42h-69v49q0 37 10 65.5t39 45t85 16.5q59 0 89 -12.5t40.5 -36.5t10.5 -60v-396h-76v60
q-11 -33 -41.5 -50t-66.5 -17zM168 44q41 0 58.5 28.5t17.5 77.5v150q-9 -15 -29.5 -26.5t-41.5 -23.5q-30 -18 -46.5 -37t-16.5 -53v-43q0 -32 9 -48t22.5 -20.5t26.5 -4.5zM185 546q-40 0 -62 15.5t-30.5 37t-9.5 39.5h44q3 -27 19.5 -40t38.5 -13q25 0 41 12.5t19 40.5
h44q-1 -22 -11.5 -43t-33 -35t-59.5 -14z" />
    <glyph glyph-name="uni1EAF" unicode="&#x1eaf;" horiz-adv-x="362" 
d="M138 -7q-24 0 -47 6.5t-39 29.5t-16 72v53q0 49 29.5 79t84.5 54q33 15 54 27.5t31 28t10 41.5v23q0 22 -8.5 33.5t-23 16.5t-31.5 5q-40 0 -52.5 -22.5t-12.5 -68.5v-42h-69v49q0 37 10 65.5t39 45t85 16.5q59 0 89 -12.5t40.5 -36.5t10.5 -60v-396h-76v60
q-11 -33 -41.5 -50t-66.5 -17zM168 44q41 0 58.5 28.5t17.5 77.5v150q-9 -15 -29.5 -26.5t-41.5 -23.5q-30 -18 -46.5 -37t-16.5 -53v-43q0 -32 9 -48t22.5 -20.5t26.5 -4.5zM185 546q-40 0 -62 15.5t-30.5 37t-9.5 39.5h44q3 -27 19.5 -40t38.5 -13q25 0 41 12.5t19 40.5
h44q-1 -22 -11.5 -43t-33 -35t-59.5 -14zM145 654l57 95h77l-86 -95h-48z" />
    <glyph glyph-name="uni1EB7" unicode="&#x1eb7;" horiz-adv-x="362" 
d="M138 -7q-24 0 -47 6.5t-39 29.5t-16 72v53q0 49 29.5 79t84.5 54q33 15 54 27.5t31 28t10 41.5v23q0 22 -8.5 33.5t-23 16.5t-31.5 5q-40 0 -52.5 -22.5t-12.5 -68.5v-42h-69v49q0 37 10 65.5t39 45t85 16.5q59 0 89 -12.5t40.5 -36.5t10.5 -60v-396h-76v60
q-11 -33 -41.5 -50t-66.5 -17zM168 44q41 0 58.5 28.5t17.5 77.5v150q-9 -15 -29.5 -26.5t-41.5 -23.5q-30 -18 -46.5 -37t-16.5 -53v-43q0 -32 9 -48t22.5 -20.5t26.5 -4.5zM181 -114q-16 0 -26.5 11t-10.5 25q0 15 10.5 25.5t26.5 10.5q15 0 26.5 -10.5t11.5 -25.5
q0 -14 -11.5 -25t-26.5 -11zM185 546q-40 0 -62 15.5t-30.5 37t-9.5 39.5h44q3 -27 19.5 -40t38.5 -13q25 0 41 12.5t19 40.5h44q-1 -22 -11.5 -43t-33 -35t-59.5 -14z" />
    <glyph glyph-name="uni1EB1" unicode="&#x1eb1;" horiz-adv-x="362" 
d="M138 -7q-24 0 -47 6.5t-39 29.5t-16 72v53q0 49 29.5 79t84.5 54q33 15 54 27.5t31 28t10 41.5v23q0 22 -8.5 33.5t-23 16.5t-31.5 5q-40 0 -52.5 -22.5t-12.5 -68.5v-42h-69v49q0 37 10 65.5t39 45t85 16.5q59 0 89 -12.5t40.5 -36.5t10.5 -60v-396h-76v60
q-11 -33 -41.5 -50t-66.5 -17zM168 44q41 0 58.5 28.5t17.5 77.5v150q-9 -15 -29.5 -26.5t-41.5 -23.5q-30 -18 -46.5 -37t-16.5 -53v-43q0 -32 9 -48t22.5 -20.5t26.5 -4.5zM185 546q-40 0 -62 15.5t-30.5 37t-9.5 39.5h44q3 -27 19.5 -40t38.5 -13q25 0 41 12.5t19 40.5
h44q-1 -22 -11.5 -43t-33 -35t-59.5 -14zM182 654l-86 95h77l57 -95h-48z" />
    <glyph glyph-name="uni1EB3" unicode="&#x1eb3;" horiz-adv-x="362" 
d="M138 -7q-24 0 -47 6.5t-39 29.5t-16 72v53q0 49 29.5 79t84.5 54q33 15 54 27.5t31 28t10 41.5v23q0 22 -8.5 33.5t-23 16.5t-31.5 5q-40 0 -52.5 -22.5t-12.5 -68.5v-42h-69v49q0 37 10 65.5t39 45t85 16.5q59 0 89 -12.5t40.5 -36.5t10.5 -60v-396h-76v60
q-11 -33 -41.5 -50t-66.5 -17zM168 44q41 0 58.5 28.5t17.5 77.5v150q-9 -15 -29.5 -26.5t-41.5 -23.5q-30 -18 -46.5 -37t-16.5 -53v-43q0 -32 9 -48t22.5 -20.5t26.5 -4.5zM185 546q-40 0 -62 15.5t-30.5 37t-9.5 39.5h44q3 -27 19.5 -40t38.5 -13q25 0 41 12.5t19 40.5
h44q-1 -22 -11.5 -43t-33 -35t-59.5 -14zM164 656v15q0 14 11.5 21.5t22.5 14t11 19.5v5q0 9 -6 17t-20 8q-19 0 -23 -23l-37 7q3 23 19 35t45 12q34 0 50.5 -11.5t16.5 -44.5v-2q0 -22 -12 -31t-24 -14t-12 -17v-11h-42z" />
    <glyph glyph-name="uni1EB5" unicode="&#x1eb5;" horiz-adv-x="362" 
d="M138 -7q-24 0 -47 6.5t-39 29.5t-16 72v53q0 49 29.5 79t84.5 54q33 15 54 27.5t31 28t10 41.5v23q0 22 -8.5 33.5t-23 16.5t-31.5 5q-40 0 -52.5 -22.5t-12.5 -68.5v-42h-69v49q0 37 10 65.5t39 45t85 16.5q59 0 89 -12.5t40.5 -36.5t10.5 -60v-396h-76v60
q-11 -33 -41.5 -50t-66.5 -17zM168 44q41 0 58.5 28.5t17.5 77.5v150q-9 -15 -29.5 -26.5t-41.5 -23.5q-30 -18 -46.5 -37t-16.5 -53v-43q0 -32 9 -48t22.5 -20.5t26.5 -4.5zM185 546q-40 0 -62 15.5t-30.5 37t-9.5 39.5h44q3 -27 19.5 -40t38.5 -13q25 0 41 12.5t19 40.5
h44q-1 -22 -11.5 -43t-33 -35t-59.5 -14zM230 661q-14 0 -24.5 5t-24.5 13q-9 6 -20 12t-23 6t-20 -9t-10 -26h-27q1 32 16.5 52.5t41.5 20.5q15 0 27 -5.5t24 -13.5q11 -6 20.5 -11t19.5 -5q13 0 21 8.5t11 24.5h29q-1 -23 -10 -39t-22.5 -24.5t-28.5 -8.5z" />
    <glyph glyph-name="uni01CE" unicode="&#x1ce;" horiz-adv-x="362" 
d="M138 -7q-24 0 -47 6.5t-39 29.5t-16 72v53q0 49 29.5 79t84.5 54q33 15 54 27.5t31 28t10 41.5v23q0 22 -8.5 33.5t-23 16.5t-31.5 5q-40 0 -52.5 -22.5t-12.5 -68.5v-42h-69v49q0 37 10 65.5t39 45t85 16.5q59 0 89 -12.5t40.5 -36.5t10.5 -60v-396h-76v60
q-11 -33 -41.5 -50t-66.5 -17zM168 44q41 0 58.5 28.5t17.5 77.5v150q-9 -15 -29.5 -26.5t-41.5 -23.5q-30 -18 -46.5 -37t-16.5 -53v-43q0 -32 9 -48t22.5 -20.5t26.5 -4.5zM162 546l-91 96h50l65 -60l67 60h48l-91 -96h-48z" />
    <glyph glyph-name="acircumflex" unicode="&#xe2;" horiz-adv-x="362" 
d="M138 -7q-24 0 -47 6.5t-39 29.5t-16 72v53q0 49 29.5 79t84.5 54q33 15 54 27.5t31 28t10 41.5v23q0 22 -8.5 33.5t-23 16.5t-31.5 5q-40 0 -52.5 -22.5t-12.5 -68.5v-42h-69v49q0 37 10 65.5t39 45t85 16.5q59 0 89 -12.5t40.5 -36.5t10.5 -60v-396h-76v60
q-11 -33 -41.5 -50t-66.5 -17zM168 44q41 0 58.5 28.5t17.5 77.5v150q-9 -15 -29.5 -26.5t-41.5 -23.5q-30 -18 -46.5 -37t-16.5 -53v-43q0 -32 9 -48t22.5 -20.5t26.5 -4.5zM71 546l91 96h47l91 -96h-48l-66 60l-65 -60h-50z" />
    <glyph glyph-name="uni1EA5" unicode="&#x1ea5;" horiz-adv-x="362" 
d="M138 -7q-24 0 -47 6.5t-39 29.5t-16 72v53q0 49 29.5 79t84.5 54q33 15 54 27.5t31 28t10 41.5v23q0 22 -8.5 33.5t-23 16.5t-31.5 5q-40 0 -52.5 -22.5t-12.5 -68.5v-42h-69v49q0 37 10 65.5t39 45t85 16.5q59 0 89 -12.5t40.5 -36.5t10.5 -60v-396h-76v60
q-11 -33 -41.5 -50t-66.5 -17zM168 44q41 0 58.5 28.5t17.5 77.5v150q-9 -15 -29.5 -26.5t-41.5 -23.5q-30 -18 -46.5 -37t-16.5 -53v-43q0 -32 9 -48t22.5 -20.5t26.5 -4.5zM71 546l91 96h47l91 -96h-48l-66 60l-65 -60h-50zM297 599l57 95h77l-86 -95h-48z" />
    <glyph glyph-name="uni1EAD" unicode="&#x1ead;" horiz-adv-x="362" 
d="M138 -7q-24 0 -47 6.5t-39 29.5t-16 72v53q0 49 29.5 79t84.5 54q33 15 54 27.5t31 28t10 41.5v23q0 22 -8.5 33.5t-23 16.5t-31.5 5q-40 0 -52.5 -22.5t-12.5 -68.5v-42h-69v49q0 37 10 65.5t39 45t85 16.5q59 0 89 -12.5t40.5 -36.5t10.5 -60v-396h-76v60
q-11 -33 -41.5 -50t-66.5 -17zM168 44q41 0 58.5 28.5t17.5 77.5v150q-9 -15 -29.5 -26.5t-41.5 -23.5q-30 -18 -46.5 -37t-16.5 -53v-43q0 -32 9 -48t22.5 -20.5t26.5 -4.5zM181 -114q-16 0 -26.5 11t-10.5 25q0 15 10.5 25.5t26.5 10.5q15 0 26.5 -10.5t11.5 -25.5
q0 -14 -11.5 -25t-26.5 -11zM71 546l91 96h47l91 -96h-48l-66 60l-65 -60h-50z" />
    <glyph glyph-name="uni1EA7" unicode="&#x1ea7;" horiz-adv-x="362" 
d="M138 -7q-24 0 -47 6.5t-39 29.5t-16 72v53q0 49 29.5 79t84.5 54q33 15 54 27.5t31 28t10 41.5v23q0 22 -8.5 33.5t-23 16.5t-31.5 5q-40 0 -52.5 -22.5t-12.5 -68.5v-42h-69v49q0 37 10 65.5t39 45t85 16.5q59 0 89 -12.5t40.5 -36.5t10.5 -60v-396h-76v60
q-11 -33 -41.5 -50t-66.5 -17zM168 44q41 0 58.5 28.5t17.5 77.5v150q-9 -15 -29.5 -26.5t-41.5 -23.5q-30 -18 -46.5 -37t-16.5 -53v-43q0 -32 9 -48t22.5 -20.5t26.5 -4.5zM71 546l91 96h47l91 -96h-48l-66 60l-65 -60h-50zM334 599l-86 95h77l57 -95h-48z" />
    <glyph glyph-name="uni1EA9" unicode="&#x1ea9;" horiz-adv-x="362" 
d="M138 -7q-24 0 -47 6.5t-39 29.5t-16 72v53q0 49 29.5 79t84.5 54q33 15 54 27.5t31 28t10 41.5v23q0 22 -8.5 33.5t-23 16.5t-31.5 5q-40 0 -52.5 -22.5t-12.5 -68.5v-42h-69v49q0 37 10 65.5t39 45t85 16.5q59 0 89 -12.5t40.5 -36.5t10.5 -60v-396h-76v60
q-11 -33 -41.5 -50t-66.5 -17zM168 44q41 0 58.5 28.5t17.5 77.5v150q-9 -15 -29.5 -26.5t-41.5 -23.5q-30 -18 -46.5 -37t-16.5 -53v-43q0 -32 9 -48t22.5 -20.5t26.5 -4.5zM71 546l91 96h47l91 -96h-48l-66 60l-65 -60h-50zM316 601v15q0 14 11.5 21.5t22.5 14t11 19.5v5
q0 9 -6 17t-20 8q-19 0 -23 -23l-37 7q3 23 19 35t45 12q34 0 50.5 -11.5t16.5 -44.5v-2q0 -22 -12 -31t-24 -14t-12 -17v-11h-42z" />
    <glyph glyph-name="uni1EAB" unicode="&#x1eab;" horiz-adv-x="362" 
d="M138 -7q-24 0 -47 6.5t-39 29.5t-16 72v53q0 49 29.5 79t84.5 54q33 15 54 27.5t31 28t10 41.5v23q0 22 -8.5 33.5t-23 16.5t-31.5 5q-40 0 -52.5 -22.5t-12.5 -68.5v-42h-69v49q0 37 10 65.5t39 45t85 16.5q59 0 89 -12.5t40.5 -36.5t10.5 -60v-396h-76v60
q-11 -33 -41.5 -50t-66.5 -17zM168 44q41 0 58.5 28.5t17.5 77.5v150q-9 -15 -29.5 -26.5t-41.5 -23.5q-30 -18 -46.5 -37t-16.5 -53v-43q0 -32 9 -48t22.5 -20.5t26.5 -4.5zM71 546l91 96h47l91 -96h-48l-66 60l-65 -60h-50zM230 664q-14 0 -24.5 5t-24.5 13q-9 6 -20 12
t-23 6t-20 -9t-10 -26h-27q1 32 16.5 52.5t41.5 20.5q15 0 27 -5.5t24 -13.5q11 -6 20.5 -11t19.5 -5q13 0 21 8.5t11 24.5h29q-1 -23 -10 -39t-22.5 -24.5t-28.5 -8.5z" />
    <glyph glyph-name="acute" unicode="&#xb4;" horiz-adv-x="151" 
d="M0 546l57 95h77l-86 -95h-48z" />
    <glyph glyph-name="acutecomb" unicode="&#x301;" 
d="M0 546l57 95h77l-86 -95h-48z" />
    <glyph glyph-name="acutecomb.case" 
d="M3 634l80 86h75l-108 -86h-47z" />
    <glyph glyph-name="adieresis" unicode="&#xe4;" horiz-adv-x="362" 
d="M138 -7q-24 0 -47 6.5t-39 29.5t-16 72v53q0 49 29.5 79t84.5 54q33 15 54 27.5t31 28t10 41.5v23q0 22 -8.5 33.5t-23 16.5t-31.5 5q-40 0 -52.5 -22.5t-12.5 -68.5v-42h-69v49q0 37 10 65.5t39 45t85 16.5q59 0 89 -12.5t40.5 -36.5t10.5 -60v-396h-76v60
q-11 -33 -41.5 -50t-66.5 -17zM168 44q41 0 58.5 28.5t17.5 77.5v150q-9 -15 -29.5 -26.5t-41.5 -23.5q-30 -18 -46.5 -37t-16.5 -53v-43q0 -32 9 -48t22.5 -20.5t26.5 -4.5zM135 554q-16 0 -26.5 10.5t-10.5 25.5t10.5 24.5t26.5 9.5q15 0 25.5 -9.5t10.5 -24.5
t-10.5 -25.5t-25.5 -10.5zM238 554q-15 0 -26 10.5t-11 25.5t11 24.5t26 9.5q16 0 26 -9.5t10 -24.5t-10 -25.5t-26 -10.5z" />
    <glyph glyph-name="uni1EA1" unicode="&#x1ea1;" horiz-adv-x="362" 
d="M138 -7q-24 0 -47 6.5t-39 29.5t-16 72v53q0 49 29.5 79t84.5 54q33 15 54 27.5t31 28t10 41.5v23q0 22 -8.5 33.5t-23 16.5t-31.5 5q-40 0 -52.5 -22.5t-12.5 -68.5v-42h-69v49q0 37 10 65.5t39 45t85 16.5q59 0 89 -12.5t40.5 -36.5t10.5 -60v-396h-76v60
q-11 -33 -41.5 -50t-66.5 -17zM168 44q41 0 58.5 28.5t17.5 77.5v150q-9 -15 -29.5 -26.5t-41.5 -23.5q-30 -18 -46.5 -37t-16.5 -53v-43q0 -32 9 -48t22.5 -20.5t26.5 -4.5zM181 -114q-16 0 -26.5 11t-10.5 25q0 15 10.5 25.5t26.5 10.5q15 0 26.5 -10.5t11.5 -25.5
q0 -14 -11.5 -25t-26.5 -11z" />
    <glyph glyph-name="ae" unicode="&#xe6;" horiz-adv-x="561" 
d="M138 -5q-13 0 -30.5 2.5t-33.5 12.5t-27 32t-11 62v53q0 49 30.5 77.5t77.5 49.5q35 16 57.5 29t33 28t10.5 37v29q0 22 -8.5 33.5t-23 16.5t-31.5 5q-40 0 -52.5 -22.5t-12.5 -68.5v-42h-69v49q0 37 10 65.5t39 45t85 16.5q52 0 79 -14t36.5 -38.5t9.5 -56.5v-361
l-46 48q-15 -49 -48.5 -68.5t-74.5 -19.5zM168 46q41 0 58.5 27.5t17.5 76.5v150q-9 -15 -30.5 -26.5t-43.5 -25.5q-29 -18 -44.5 -36.5t-15.5 -49.5v-42q0 -32 9 -48t22.5 -21t26.5 -5zM387 -2q-34 0 -59.5 5t-41.5 19t-24 42t-8 75v241q0 63 32 93.5t101 30.5
q74 0 107.5 -26.5t33.5 -97.5v-129h-206v-140q0 -29 5.5 -45t19.5 -22t40 -6q25 0 39.5 6.5t20 23.5t5.5 47v63h76v-35q0 -47 -8.5 -75.5t-25.5 -43.5t-44 -20.5t-63 -5.5zM322 288h130v100q0 39 -13 56.5t-52 17.5q-38 0 -51.5 -17.5t-13.5 -56.5v-100z" />
    <glyph glyph-name="agrave" unicode="&#xe0;" horiz-adv-x="362" 
d="M138 -7q-24 0 -47 6.5t-39 29.5t-16 72v53q0 49 29.5 79t84.5 54q33 15 54 27.5t31 28t10 41.5v23q0 22 -8.5 33.5t-23 16.5t-31.5 5q-40 0 -52.5 -22.5t-12.5 -68.5v-42h-69v49q0 37 10 65.5t39 45t85 16.5q59 0 89 -12.5t40.5 -36.5t10.5 -60v-396h-76v60
q-11 -33 -41.5 -50t-66.5 -17zM168 44q41 0 58.5 28.5t17.5 77.5v150q-9 -15 -29.5 -26.5t-41.5 -23.5q-30 -18 -46.5 -37t-16.5 -53v-43q0 -32 9 -48t22.5 -20.5t26.5 -4.5zM182 546l-86 95h77l57 -95h-48z" />
    <glyph glyph-name="uni1EA3" unicode="&#x1ea3;" horiz-adv-x="362" 
d="M138 -7q-24 0 -47 6.5t-39 29.5t-16 72v53q0 49 29.5 79t84.5 54q33 15 54 27.5t31 28t10 41.5v23q0 22 -8.5 33.5t-23 16.5t-31.5 5q-40 0 -52.5 -22.5t-12.5 -68.5v-42h-69v49q0 37 10 65.5t39 45t85 16.5q59 0 89 -12.5t40.5 -36.5t10.5 -60v-396h-76v60
q-11 -33 -41.5 -50t-66.5 -17zM168 44q41 0 58.5 28.5t17.5 77.5v150q-9 -15 -29.5 -26.5t-41.5 -23.5q-30 -18 -46.5 -37t-16.5 -53v-43q0 -32 9 -48t22.5 -20.5t26.5 -4.5zM164 548v15q0 14 11.5 21.5t22.5 14t11 19.5v5q0 9 -6 17t-20 8q-19 0 -23 -23l-37 7q3 23 19 35
t45 12q34 0 50.5 -11.5t16.5 -44.5v-2q0 -22 -12 -31t-24 -14t-12 -17v-11h-42z" />
    <glyph glyph-name="amacron" unicode="&#x101;" horiz-adv-x="362" 
d="M138 -7q-24 0 -47 6.5t-39 29.5t-16 72v53q0 49 29.5 79t84.5 54q33 15 54 27.5t31 28t10 41.5v23q0 22 -8.5 33.5t-23 16.5t-31.5 5q-40 0 -52.5 -22.5t-12.5 -68.5v-42h-69v49q0 37 10 65.5t39 45t85 16.5q59 0 89 -12.5t40.5 -36.5t10.5 -60v-396h-76v60
q-11 -33 -41.5 -50t-66.5 -17zM168 44q41 0 58.5 28.5t17.5 77.5v150q-9 -15 -29.5 -26.5t-41.5 -23.5q-30 -18 -46.5 -37t-16.5 -53v-43q0 -32 9 -48t22.5 -20.5t26.5 -4.5zM90 564v41h191v-41h-191z" />
    <glyph glyph-name="ampersand" unicode="&#x26;" horiz-adv-x="476" 
d="M189 -6q-54 0 -87.5 21t-48.5 57.5t-15 86.5q0 56 22.5 93.5t65.5 49.5q-10 14 -18 38.5t-8 56.5q2 52 32 81t93 29q30 0 57 -4t46.5 -9.5t26.5 -9.5v-57q-3 1 -20.5 6t-41.5 9t-50 4q-31 0 -47.5 -12t-21.5 -31t-0.5 -40.5t15.5 -40.5q5 -7 15.5 -20.5t23.5 -29.5
t26.5 -32t24 -27.5t15.5 -17.5l1 102h143v-50h-90v-43.5t-1 -29.5t-2 -26q27 -26 52.5 -48t40.5 -30v-72q-17 2 -49.5 26t-67.5 56q-10 -35 -31 -53.5t-47.5 -25.5t-53.5 -7zM192 48q37 0 59 19.5t26 52.5q-35 37 -68.5 74.5t-53.5 63.5q-25 -8 -40 -29.5t-15 -64.5
q-1 -57 24.5 -86.5t67.5 -29.5z" />
    <glyph glyph-name="ampersand.salt" horiz-adv-x="515" 
d="M191 -7q-52 0 -85.5 17.5t-48.5 50.5t-15 78v41q1 60 33.5 92.5t83.5 32.5l-2 -3q-31 1 -56.5 16t-40 43t-15.5 66v27q-1 66 36.5 103t123.5 37q32 0 61.5 -5t51.5 -11.5t31 -10.5v-51q-6 3 -26.5 9t-48.5 11.5t-56 5.5q-47 0 -69.5 -24.5t-22.5 -65.5v-39q1 -34 18 -56
q13 -17 32.5 -25t38.5 -8h94q3 24 7 49t6 50h50v-99h101v-41h-101v-162q-1 -33 10 -52t44 -19q12 0 24.5 0.5t22.5 1.5v-46q-12 -3 -23 -5t-22.5 -2.5t-26.5 -0.5q-21 0 -39 6.5t-29.5 20t-15.5 34.5q-13 -27 -43 -46.5t-83 -19.5zM209 49q40 1 63.5 23t26.5 58v153h-88
q-38 0 -63.5 -22t-24.5 -63v-58q0 -45 22.5 -68t63.5 -23z" />
    <glyph glyph-name="aogonek" unicode="&#x105;" horiz-adv-x="362" 
d="M138 -7q-24 0 -47 6.5t-39 29.5t-16 72v53q0 49 29.5 79t84.5 54q33 15 54 27.5t31 28t10 41.5v23q0 22 -8.5 33.5t-23 16.5t-31.5 5q-40 0 -52.5 -22.5t-12.5 -68.5v-42h-69v49q0 37 10 65.5t39 45t85 16.5q59 0 89 -12.5t40.5 -36.5t10.5 -60v-396h-76v60
q-11 -33 -41.5 -50t-66.5 -17zM168 44q41 0 58.5 28.5t17.5 77.5v150q-9 -15 -29.5 -26.5t-41.5 -23.5q-30 -18 -46.5 -37t-16.5 -53v-43q0 -32 9 -48t22.5 -20.5t26.5 -4.5zM289 -138q-30 0 -51 17.5t-21 42.5q0 28 21 50t48 29l36 -1q-27 -11 -40.5 -30t-13.5 -38t13 -29
t26 -10q8 0 14.5 2t9.5 4l11 -24q-6 -3 -18.5 -8t-34.5 -5z" />
    <glyph glyph-name="approxequal" unicode="&#x2248;" horiz-adv-x="496" 
d="M343 319q-33 1 -64 11.5t-62.5 21t-68.5 11.5q-27 1 -44 -13.5t-19 -31.5h-43q2 30 17 51.5t39.5 33.5t53.5 11q33 -1 63.5 -11t62 -19.5t66.5 -10.5q30 -1 45 12t17 29h48q-2 -39 -19.5 -60.5t-42 -28.5t-49.5 -6zM343 109q-33 1 -64 12t-62.5 21.5t-68.5 11.5
q-27 1 -44 -13.5t-19 -32.5h-43q2 31 17 52.5t39.5 33.5t53.5 11q33 -1 63.5 -11t62 -19.5t66.5 -10.5q30 -1 45 12t17 29h48q-2 -39 -19.5 -60.5t-42 -28.5t-49.5 -7z" />
    <glyph glyph-name="aring" unicode="&#xe5;" horiz-adv-x="362" 
d="M138 -7q-24 0 -47 6.5t-39 29.5t-16 72v53q0 49 29.5 79t84.5 54q33 15 54 27.5t31 28t10 41.5v23q0 22 -8.5 33.5t-23 16.5t-31.5 5q-40 0 -52.5 -22.5t-12.5 -68.5v-42h-69v49q0 37 10 65.5t39 45t85 16.5q59 0 89 -12.5t40.5 -36.5t10.5 -60v-396h-76v60
q-11 -33 -41.5 -50t-66.5 -17zM168 44q41 0 58.5 28.5t17.5 77.5v150q-9 -15 -29.5 -26.5t-41.5 -23.5q-30 -18 -46.5 -37t-16.5 -53v-43q0 -32 9 -48t22.5 -20.5t26.5 -4.5zM185 543q-35 0 -58 22.5t-23 53.5q0 32 23 54.5t58 22.5q36 0 59 -22.5t23 -54.5
q0 -31 -24.5 -53.5t-57.5 -22.5zM185 577q21 0 33 12t12 30q0 20 -12 31.5t-33 11.5q-20 0 -32 -11.5t-12 -31.5q0 -18 12 -30t32 -12z" />
    <glyph glyph-name="asciicircum" unicode="^" horiz-adv-x="401" 
d="M42 495l139 189h40l138 -189h-66l-93 125l-90 -125h-68z" />
    <glyph glyph-name="asciitilde" unicode="~" horiz-adv-x="496" 
d="M343 509q-33 1 -64 11t-62.5 21t-68.5 12q-27 1 -44 -13.5t-19 -31.5h-43q2 30 17 52t39.5 33.5t53.5 10.5q33 0 63.5 -10t62 -20t66.5 -11q30 -1 45 12t17 29h48q-2 -39 -19.5 -60t-42 -28.5t-49.5 -6.5z" />
    <glyph glyph-name="asterisk" unicode="*" horiz-adv-x="559" 
d="M172 97l-64 47l143 154l-207 34l27 83l189 -94l-29 208h82l-27 -208l188 92l26 -77l-206 -38l144 -153l-65 -46l-99 182z" />
    <glyph glyph-name="at" unicode="@" horiz-adv-x="722" 
d="M352 -66q-117 0 -183 37t-93.5 108t-27.5 172q0 162 73 252t234 90q91 0 162 -30t112 -95.5t41 -171.5q0 -67 -16 -118.5t-45.5 -80.5t-73.5 -29q-31 0 -52.5 16t-32.5 40t-13 49l19 -1q-19 -46 -51 -64.5t-74 -18.5q-47 0 -75.5 22t-28.5 79q0 29 9.5 49.5t36.5 37
t79 31.5q24 6 40.5 15.5t24.5 17.5q6 7 8 14.5t2 16.5q0 24 -14.5 37.5t-49.5 13.5q-39 0 -55 -15t-16 -46v-30h-55v32q0 33 11 54t38 31.5t77 10.5t77.5 -11.5t38 -34t10.5 -58.5v-176q0 -42 16 -60t40 -18q21 0 39.5 18t30 59t11.5 110q0 81 -28.5 141.5t-87 94
t-148.5 33.5t-149.5 -29.5t-89.5 -97t-30 -182.5q0 -87 19.5 -142t55 -84.5t84 -41t107.5 -12.5q19 0 50.5 3t66.5 8.5t66.5 13.5t50.5 18v-37q-19 -7 -54 -17t-82.5 -17t-104.5 -7zM349 132q27 0 45 12t27.5 28.5t9.5 31.5v93q-15 -4 -35.5 -10.5t-38.5 -14.5
q-26 -11 -42 -21t-23.5 -23.5t-7.5 -35.5q0 -31 14.5 -45.5t50.5 -14.5z" />
    <glyph glyph-name="atilde" unicode="&#xe3;" horiz-adv-x="362" 
d="M138 -7q-24 0 -47 6.5t-39 29.5t-16 72v53q0 49 29.5 79t84.5 54q33 15 54 27.5t31 28t10 41.5v23q0 22 -8.5 33.5t-23 16.5t-31.5 5q-40 0 -52.5 -22.5t-12.5 -68.5v-42h-69v49q0 37 10 65.5t39 45t85 16.5q59 0 89 -12.5t40.5 -36.5t10.5 -60v-396h-76v60
q-11 -33 -41.5 -50t-66.5 -17zM168 44q41 0 58.5 28.5t17.5 77.5v150q-9 -15 -29.5 -26.5t-41.5 -23.5q-30 -18 -46.5 -37t-16.5 -53v-43q0 -32 9 -48t22.5 -20.5t26.5 -4.5zM230 553q-14 0 -24.5 5t-24.5 13q-9 6 -20 12t-23 6t-20 -9t-10 -26h-27q1 32 16.5 52.5
t41.5 20.5q15 0 27 -5.5t24 -13.5q11 -6 20.5 -11t19.5 -5q13 0 21 8.5t11 24.5h29q-1 -23 -10 -39t-22.5 -24.5t-28.5 -8.5z" />
    <glyph glyph-name="b" unicode="b" horiz-adv-x="369" 
d="M205 -7q-46 0 -68.5 16.5t-31.5 35.5l-2 -45h-54v630h75v-175q11 23 34 35.5t59 12.5q44 0 68.5 -14.5t35.5 -42t11 -66.5v-244q0 -37 -6 -64t-20.5 -44.5t-39 -26t-61.5 -8.5zM190 45q26 0 39 7.5t19 19.5t7 28t1 32v237q0 17 -1 32t-7.5 27t-19.5 19t-38 7
q-37 0 -51 -18.5t-14 -56.5v-229q0 -19 1 -37t7 -33.5t19 -25t38 -9.5z" />
    <glyph glyph-name="b.sc" horiz-adv-x="402" 
d="M56 0v495h186q50 0 80 -21t30 -62v-58q0 -46 -30 -70q-13 -11 -31 -15t-32 -5v0q19 0 36.5 -3.5t30.5 -13.5q15 -12 24 -30.5t9 -44.5v-69q0 -57 -31 -80t-97 -23h-175zM132 41h84q18 0 33.5 4.5t24 18.5t8.5 43v64q0 33 -18.5 46.5t-55.5 13.5h-76v-190zM132 280h75
q33 0 52.5 14.5t19.5 50.5v54q0 27 -17 40.5t-42 13.5h-88v-173z" />
    <glyph glyph-name="backslash" unicode="\" horiz-adv-x="522" 
d="M385 -45l-343 676h58l342 -676h-57z" />
    <glyph glyph-name="bar" unicode="|" horiz-adv-x="244" 
d="M88 -242v873h68v-873h-68z" />
    <glyph glyph-name="uni0431" unicode="&#x431;" horiz-adv-x="365" 
d="M180 -7q-48 0 -79.5 13t-47 42.5t-15.5 76.5v358q0 50 11.5 79.5t37 43t65.5 13.5q20 0 43 2.5t43.5 6.5t35 9t18.5 9v-35q0 -12 -19 -25t-60 -13h-15q-30 0 -48.5 -7.5t-27 -25.5t-9.5 -49v-67q9 18 32.5 32t63.5 14t66 -13t39.5 -40t13.5 -72v-202q0 -44 -8 -72.5
t-25 -46t-45.5 -24.5t-69.5 -7zM183 39q31 0 45.5 12t19 32t4.5 44v210q0 23 -4 42t-18.5 30t-45.5 11q-26 0 -40.5 -7t-21 -18.5t-8 -23.5t-1.5 -24v-220q0 -24 4.5 -44t19.5 -32t46 -12z" />
    <glyph glyph-name="braceleft" unicode="{" horiz-adv-x="315" 
d="M251 -137q-62 4 -99.5 23t-54.5 48.5t-17 65.5q0 32 10 57t23.5 46t24 41.5t10.5 43.5q0 20 -13 34.5t-33 23t-44 9.5v23q21 1 41.5 9.5t33.5 24.5t13 37t-10 41t-23 40.5t-23 45t-10 53.5q0 39 16 67.5t53.5 46t101.5 21.5v-44q-25 -4 -45.5 -11.5t-32.5 -25.5t-12 -54
q0 -29 8 -51.5t19 -42.5t19 -41.5t8 -48.5q0 -15 -7 -31t-23.5 -29t-44.5 -18q36 -9 56 -28t20 -48q0 -26 -7.5 -46.5t-18 -41t-18 -43.5t-7.5 -53q0 -36 13 -57t33 -30.5t40 -12.5v-44z" />
    <glyph glyph-name="braceright" unicode="}" horiz-adv-x="315" 
d="M64 -137v44q20 3 40 12.5t33 30.5t13 57q0 30 -7.5 53t-18 43.5t-18 41t-7.5 46.5q0 29 20 48t56 28q-27 5 -44 18t-24.5 29t-7.5 31q0 27 8.5 48.5t19 41.5t19 42.5t8.5 51.5q0 36 -12 54t-32 25.5t-46 11.5v44q64 -4 101 -21.5t53.5 -46t16.5 -67.5q0 -29 -10 -53.5
t-23 -45t-23 -40.5t-10 -41t13 -37t33.5 -24.5t41.5 -9.5v-23q-23 -1 -43.5 -9.5t-33.5 -23t-13 -34.5q0 -23 10.5 -43.5t23.5 -41.5t23.5 -46t10.5 -57q0 -36 -17 -65.5t-55 -48.5t-99 -23z" />
    <glyph glyph-name="bracketleft" unicode="[" horiz-adv-x="294" 
d="M46 -57v687h202v-42h-131v-603h131v-42h-202z" />
    <glyph glyph-name="bracketright" unicode="]" horiz-adv-x="294" 
d="M46 -57v42h130v603h-130v42h202v-687h-202z" />
    <glyph glyph-name="breve" unicode="&#x2d8;" horiz-adv-x="237" 
d="M115 548q-40 0 -62 15.5t-30.5 37t-9.5 39.5h44q3 -27 19.5 -40t38.5 -13q25 0 41 12.5t19 40.5h44q-1 -22 -11.5 -43t-33 -35t-59.5 -14z" />
    <glyph glyph-name="uni0306" unicode="&#x306;" 
d="M115 548q-40 0 -62 15.5t-30.5 37t-9.5 39.5h44q3 -27 19.5 -40t38.5 -13q25 0 41 12.5t19 40.5h44q-1 -22 -11.5 -43t-33 -35t-59.5 -14z" />
    <glyph glyph-name="uni0306.case" 
d="M102 630q-40 0 -62 15.5t-30.5 37t-9.5 39.5h44q3 -27 19.5 -40t38.5 -13q25 0 41 12.5t19 40.5h44q-1 -22 -11.5 -43t-33 -35t-59.5 -14z" />
    <glyph glyph-name="uni03060301" 
d="M115 548q-40 0 -62 15.5t-30.5 37t-9.5 39.5h44q3 -27 19.5 -40t38.5 -13q25 0 41 12.5t19 40.5h44q-1 -22 -11.5 -43t-33 -35t-59.5 -14zM75 657l57 95h77l-86 -95h-48z" />
    <glyph glyph-name="uni03060301.case" 
d="M88 384q-32 0 -48.5 11.5t-22.5 28t-7 30.5h43q1 -16 11 -24t24 -8t24.5 7.5t10.5 24.5h44q-1 -27 -18.5 -48.5t-60.5 -21.5zM55 468l39 70h74l-66 -70h-47z" />
    <glyph glyph-name="uni03060300" 
d="M115 548q-40 0 -62 15.5t-30.5 37t-9.5 39.5h44q3 -27 19.5 -40t38.5 -13q25 0 41 12.5t19 40.5h44q-1 -22 -11.5 -43t-33 -35t-59.5 -14zM112 657l-86 95h77l57 -95h-48z" />
    <glyph glyph-name="uni03060300.case" 
d="M88 384q-32 0 -48.5 11.5t-22.5 28t-6 30.5h42q2 -17 12 -24.5t23 -7.5q15 0 25 7.5t11 24.5h43q-1 -27 -19 -48.5t-60 -21.5zM78 468l-66 70h74l40 -70h-48z" />
    <glyph glyph-name="uni03060309" 
d="M115 548q-40 0 -62 15.5t-30.5 37t-9.5 39.5h44q3 -27 19.5 -40t38.5 -13q25 0 41 12.5t19 40.5h44q-1 -22 -11.5 -43t-33 -35t-59.5 -14zM94 659v15q0 14 11.5 21.5t22.5 14t11 19.5v5q0 9 -6 17t-20 8q-19 0 -23 -23l-37 7q3 23 19 35t45 12q34 0 50.5 -11.5
t16.5 -44.5v-2q0 -22 -12 -31t-24 -14t-12 -17v-11h-42z" />
    <glyph glyph-name="uni03060309.case" 
d="M88 384q-32 0 -48.5 11.5t-22.5 28t-7 30.5h43q1 -16 11 -24t24 -8t24.5 7.5t10.5 24.5h44q-1 -27 -18.5 -48.5t-60.5 -21.5zM67 468v9q0 11 8.5 16.5t16.5 10t8 12.5v4q0 7 -4 11.5t-13 4.5q-6 0 -10.5 -4t-5.5 -11l-33 6q2 18 14.5 28t36.5 10q31 0 43.5 -10t12.5 -34
v-3q0 -15 -8 -21t-16.5 -9.5t-8.5 -11.5v-8h-41z" />
    <glyph glyph-name="uni03060303" 
d="M115 548q-40 0 -62 15.5t-30.5 37t-9.5 39.5h44q3 -27 19.5 -40t38.5 -13q25 0 41 12.5t19 40.5h44q-1 -22 -11.5 -43t-33 -35t-59.5 -14zM160 664q-14 0 -24.5 5t-24.5 13q-9 6 -20 12t-23 6t-20 -9t-10 -26h-27q1 32 16.5 52.5t41.5 20.5q15 0 27 -5.5t24 -13.5
q11 -6 20.5 -11t19.5 -5q13 0 21 8.5t11 24.5h29q-1 -23 -10 -39t-22.5 -24.5t-28.5 -8.5z" />
    <glyph glyph-name="uni03060303.case" 
d="M88 384q-32 0 -48.5 11.5t-22.5 28t-7 30.5h43q2 -16 12 -24t23 -8q15 0 25 7.5t11 24.5h43q0 -27 -18.5 -48.5t-60.5 -21.5zM121 470q-10 0 -18.5 4t-20.5 10q-6 4 -13 8t-17 4q-8 0 -13 -7t-6 -18h-24q1 26 12.5 43t31.5 17q11 0 20.5 -3.5t17.5 -8.5q9 -5 16 -8.5
t15 -3.5q9 0 14 5.5t6 17.5h26q0 -19 -7 -32.5t-17.5 -20.5t-22.5 -7z" />
    <glyph glyph-name="brokenbar" unicode="&#xa6;" horiz-adv-x="226" 
d="M80 -169v342h67v-342h-67zM80 272v313h67v-313h-67z" />
    <glyph glyph-name="bullet" unicode="&#x2022;" horiz-adv-x="388" 
d="M195 143q-38 0 -69 18.5t-49.5 49.5t-18.5 69t18.5 68.5t49.5 49t69 18.5t68.5 -18.5t49 -49t18.5 -68.5t-18.5 -69t-49 -49.5t-68.5 -18.5z" />
    <glyph glyph-name="c" unicode="c" horiz-adv-x="352" 
d="M182 -9q-50 0 -82 11.5t-47 43t-15 93.5v237q0 74 33.5 101t107.5 27q73 0 106.5 -26.5t33.5 -97.5v-66h-76v70q0 39 -12.5 56.5t-51.5 17.5q-38 0 -51.5 -17.5t-13.5 -56.5v-267q0 -43 13.5 -60.5t53.5 -17.5q37 0 49.5 17t12.5 61v72h76v-50q0 -60 -15 -92t-45.5 -44
t-76.5 -12z" />
    <glyph glyph-name="c.sc" horiz-adv-x="391" 
d="M198 -10q-50 0 -83.5 11t-50.5 40t-17 81v269q0 65 41 88t111 23q72 0 111 -23.5t39 -87.5v-95h-76v98q0 37 -19 49t-55 12t-55 -12t-19 -49v-297q0 -37 19 -49t55 -12t55 12t19 49v87h76v-61q0 -53 -16.5 -82t-50 -40t-84.5 -11z" />
    <glyph glyph-name="cacute" unicode="&#x107;" horiz-adv-x="352" 
d="M182 -9q-50 0 -82 11.5t-47 43t-15 93.5v237q0 74 33.5 101t107.5 27q73 0 106.5 -26.5t33.5 -97.5v-66h-76v70q0 39 -12.5 56.5t-51.5 17.5q-38 0 -51.5 -17.5t-13.5 -56.5v-267q0 -43 13.5 -60.5t53.5 -17.5q37 0 49.5 17t12.5 61v72h76v-50q0 -60 -15 -92t-45.5 -44
t-76.5 -12zM135 546l57 95h77l-86 -95h-48z" />
    <glyph glyph-name="caron" unicode="&#x2c7;" horiz-adv-x="254" 
d="M96 546l-91 96h50l65 -60l67 60h48l-91 -96h-48z" />
    <glyph glyph-name="uni030C" unicode="&#x30c;" 
d="M96 546l-91 96h50l65 -60l67 60h48l-91 -96h-48z" />
    <glyph glyph-name="uni030C.alt" 
d="M0 524l20 133h49l-40 -133h-29z" />
    <glyph glyph-name="uni030C.case" 
d="M91 630l-88 86h52l61 -50l61 50h51l-89 -86h-48z" />
    <glyph glyph-name="ccaron" unicode="&#x10d;" horiz-adv-x="352" 
d="M182 -9q-50 0 -82 11.5t-47 43t-15 93.5v237q0 74 33.5 101t107.5 27q73 0 106.5 -26.5t33.5 -97.5v-66h-76v70q0 39 -12.5 56.5t-51.5 17.5q-38 0 -51.5 -17.5t-13.5 -56.5v-267q0 -43 13.5 -60.5t53.5 -17.5q37 0 49.5 17t12.5 61v72h76v-50q0 -60 -15 -92t-45.5 -44
t-76.5 -12zM152 546l-91 96h50l65 -60l67 60h48l-91 -96h-48z" />
    <glyph glyph-name="ccedilla" unicode="&#xe7;" horiz-adv-x="352" 
d="M182 -9q-50 0 -82 11.5t-47 43t-15 93.5v237q0 74 33.5 101t107.5 27q73 0 106.5 -26.5t33.5 -97.5v-66h-76v70q0 39 -12.5 56.5t-51.5 17.5q-38 0 -51.5 -17.5t-13.5 -56.5v-267q0 -43 13.5 -60.5t53.5 -17.5q37 0 49.5 17t12.5 61v72h76v-50q0 -60 -15 -92t-45.5 -44
t-76.5 -12zM171 -150q-16 0 -29.5 6t-21.5 10l11 27q6 -5 17.5 -9t19.5 -4q19 0 28 8.5t9 21.5q0 12 -8 19t-20 7q-7 0 -13 -2.5t-11 -6.5l-24 13l32 60h32l-27 -51l-6 2q7 4 16 6.5t19 2.5q25 0 39.5 -16t14.5 -33q0 -26 -20 -43.5t-58 -17.5z" />
    <glyph glyph-name="cdotaccent" unicode="&#x10b;" horiz-adv-x="352" 
d="M182 -9q-50 0 -82 11.5t-47 43t-15 93.5v237q0 74 33.5 101t107.5 27q73 0 106.5 -26.5t33.5 -97.5v-66h-76v70q0 39 -12.5 56.5t-51.5 17.5q-38 0 -51.5 -17.5t-13.5 -56.5v-267q0 -43 13.5 -60.5t53.5 -17.5q37 0 49.5 17t12.5 61v72h76v-50q0 -60 -15 -92t-45.5 -44
t-76.5 -12zM176 554q-17 0 -30 12.5t-13 29.5q0 18 13 30t31 12t30.5 -12t12.5 -30q1 -17 -12.5 -29.5t-31.5 -12.5z" />
    <glyph glyph-name="cedilla" unicode="&#xb8;" horiz-adv-x="165" 
d="M51 -150q-16 0 -29.5 6t-21.5 10l11 27q6 -5 17.5 -9t19.5 -4q19 0 28 8.5t9 21.5q0 12 -8 19t-20 7q-7 0 -13 -2.5t-11 -6.5l-24 13l32 60h32l-27 -51l-6 2q7 4 16 6.5t19 2.5q25 0 39.5 -16t14.5 -33q0 -26 -20 -43.5t-58 -17.5z" />
    <glyph glyph-name="uni0327" unicode="&#x327;" 
d="M51 -150q-16 0 -29.5 6t-21.5 10l11 27q6 -5 17.5 -9t19.5 -4q19 0 28 8.5t9 21.5q0 12 -8 19t-20 7q-7 0 -13 -2.5t-11 -6.5l-24 13l32 60h32l-27 -51l-6 2q7 4 16 6.5t19 2.5q25 0 39.5 -16t14.5 -33q0 -26 -20 -43.5t-58 -17.5z" />
    <glyph glyph-name="cent" unicode="&#xa2;" horiz-adv-x="352" 
d="M153 -64v114q-33 1 -58 12t-39 37.5t-14 77.5v275q0 42 14 65t39 33.5t58 12.5v84h50v-86q31 -3 55 -13.5t38 -33t14 -62.5v-91h-67v93q0 30 -9 44t-24 19t-34 5t-34 -5t-24 -19t-9 -44v-296q0 -30 9 -44.5t24 -19.5t34 -5q20 0 35 5t23.5 19.5t8.5 44.5v81h67v-62
q0 -48 -14 -74.5t-38 -37.5t-55 -14v-115h-50z" />
    <glyph glyph-name="cent.tf" horiz-adv-x="420" 
d="M191 -64v114q-33 1 -58 12t-39 37.5t-14 77.5v275q0 42 14 65t39 33.5t58 12.5v84h50v-86q31 -3 55 -13.5t38 -33t14 -62.5v-91h-67v93q0 30 -9 44t-24 19t-34 5t-34 -5t-24 -19t-9 -44v-296q0 -30 9 -44.5t24 -19.5t34 -5q20 0 35 5t23.5 19.5t8.5 44.5v81h67v-62
q0 -48 -14 -74.5t-38 -37.5t-55 -14v-115h-50z" />
    <glyph glyph-name="uni0447" unicode="&#x447;" horiz-adv-x="343" 
d="M232 0v184q-7 -27 -33 -44.5t-62 -17.5q-47 0 -71 16.5t-31.5 46.5t-7.5 70v240h76v-241q0 -38 12.5 -58.5t48.5 -20.5q28 0 43 14.5t20 29.5v276h77v-495h-72z" />
    <glyph glyph-name="circumflex" unicode="&#x2c6;" horiz-adv-x="249" 
d="M10 546l91 96h47l91 -96h-48l-66 60l-65 -60h-50z" />
    <glyph glyph-name="uni0302" unicode="&#x302;" 
d="M10 546l91 96h47l91 -96h-48l-66 60l-65 -60h-50z" />
    <glyph glyph-name="uni0302.case" 
d="M-1 630l92 92h47l92 -92h-50l-65 56l-64 -56h-52z" />
    <glyph glyph-name="uni03020301" 
d="M10 546l91 96h47l91 -96h-48l-66 60l-65 -60h-50zM236 599l57 95h77l-86 -95h-48z" />
    <glyph glyph-name="uni03020301.case" 
d="M7 382l66 73h43l66 -73h-46l-41 39l-40 -39h-48zM181 429l40 70h74l-66 -70h-48z" />
    <glyph glyph-name="uni03020300" 
d="M10 546l91 96h47l91 -96h-48l-66 60l-65 -60h-50zM273 599l-86 95h77l57 -95h-48z" />
    <glyph glyph-name="uni03020300.case" 
d="M7 382l66 73h43l66 -73h-46l-41 39l-40 -39h-48zM204 428l-66 70h74l40 -70h-48z" />
    <glyph glyph-name="uni03020309" 
d="M10 546l91 96h47l91 -96h-48l-66 60l-65 -60h-50zM255 601v15q0 14 11.5 21.5t22.5 14t11 19.5v5q0 9 -6 17t-20 8q-19 0 -23 -23l-37 7q3 23 19 35t45 12q34 0 50.5 -11.5t16.5 -44.5v-2q0 -22 -12 -31t-24 -14t-12 -17v-11h-42z" />
    <glyph glyph-name="uni03020309.case" 
d="M7 382l66 73h43l66 -73h-46l-41 39l-40 -39h-48zM190 426v10q0 10 8 15l16 10t8 13v4q0 7 -4 11.5t-12 4.5q-12 0 -15 -15l-33 6q2 17 14.5 27t36.5 10q30 0 42 -9t12 -34v-2q0 -16 -8 -22t-16.5 -9.5t-8.5 -11.5v-8h-40z" />
    <glyph glyph-name="uni03020303" 
d="M10 546l91 96h47l91 -96h-48l-66 60l-65 -60h-50zM168 664q-14 0 -24.5 5t-24.5 13q-9 6 -20 12t-23 6t-20 -9t-10 -26h-27q1 32 16.5 52.5t41.5 20.5q15 0 27 -5.5t24 -13.5q11 -6 20.5 -11t19.5 -5q13 0 21 8.5t11 24.5h29q-1 -23 -10 -39t-22.5 -24.5t-28.5 -8.5z" />
    <glyph glyph-name="uni03020303.case" 
d="M7 382l66 73h43l66 -73h-46l-41 39l-40 -39h-48zM127 471q-11 0 -19.5 4t-17.5 10q-8 4 -15.5 8t-15.5 4q-9 0 -15 -6.5t-7 -18.5h-22q1 28 13 43.5t31 15.5q10 0 19.5 -2.5t19.5 -9.5q7 -5 14.5 -8t14.5 -3q10 0 15.5 6t7.5 16h25q-1 -18 -8.5 -31.5t-18 -20.5t-21.5 -7
z" />
    <glyph glyph-name="colon" unicode=":" horiz-adv-x="189" 
d="M94 273q-18 0 -31 12t-13 30q0 17 13 29.5t31 12.5t31.5 -12.5t13.5 -29.5q0 -18 -13.5 -30t-31.5 -12zM94 -7q-18 0 -31 12t-13 30q0 17 13 29.5t31 12.5t31.5 -12.5t13.5 -29.5q0 -18 -13.5 -30t-31.5 -12z" />
    <glyph glyph-name="comma" unicode="," horiz-adv-x="195" 
d="M50 -127q13 26 23.5 50.5t10.5 43.5q0 16 -6.5 25t-13 16.5t-6.5 22.5q0 17 12 29t32 12t31.5 -13t11.5 -34q0 -22 -9 -49t-22.5 -54t-28.5 -49h-35z" />
    <glyph glyph-name="comma.tf" horiz-adv-x="420" 
d="M163 -127q13 26 23.5 50.5t10.5 43.5q0 16 -6.5 25t-13 16.5t-6.5 22.5q0 17 12 29t32 12t31.5 -13t11.5 -34q0 -22 -9 -49t-22.5 -54t-28.5 -49h-35z" />
    <glyph glyph-name="uni0326" unicode="&#x326;" 
d="M0 -170q12 19 20 36t8 29q0 6 -5.5 10.5t-11 10.5t-5.5 17t10.5 20t25.5 9q17 0 27.5 -10.5t10.5 -24.5q0 -12 -7.5 -29.5t-18 -35.5t-22.5 -32h-32z" />
    <glyph glyph-name="uni0312" unicode="&#x312;" 
d="M76 674q-11 -19 -19.5 -36t-8.5 -28q0 -7 6 -11.5t11 -10t5 -16.5q0 -12 -10 -21t-26 -9t-27 10.5t-11 24.5q0 13 7.5 30.5t18.5 35.5t22 31h32z" />
    <glyph glyph-name="copyright" unicode="&#xa9;" horiz-adv-x="600" 
d="M320 31q-58 0 -109 21.5t-89.5 60.5t-60 90t-21.5 109t21.5 108.5t60 89t89.5 60t109 21.5t109 -21.5t89.5 -60t60 -89t21.5 -108.5t-21.5 -109t-60 -90t-89.5 -60.5t-109 -21.5zM320 62q52 0 96.5 20t78.5 54.5t52.5 79.5t18.5 96q0 68 -33 124t-88.5 89t-124.5 33
q-51 0 -95.5 -19t-78.5 -53t-53.5 -79t-19.5 -95q0 -51 19.5 -96t53.5 -79.5t78.5 -54.5t95.5 -20zM324 154q-35 0 -58 7t-33.5 28t-10.5 60v152q0 48 23.5 65.5t75.5 17.5t75.5 -17t23.5 -63v-43h-52v46q0 24 -9.5 35t-37.5 11t-37.5 -11t-9.5 -35v-172q0 -28 10 -39
t39 -11q26 0 35.5 10.5t9.5 39.5v46h52v-31q0 -40 -10.5 -60.5t-32 -28t-53.5 -7.5z" />
    <glyph glyph-name="currency" unicode="&#xa4;" horiz-adv-x="480" 
d="M85 108l-38 39l79 79q-12 17 -19 35.5t-7 38.5q0 41 25 76l-83 83l37 38l86 -85q35 20 72 20q38 0 74 -21l84 84l38 -38l-83 -83q25 -34 25 -74q0 -39 -24 -71l87 -87l-38 -38l-89 88q-18 -10 -36.5 -16t-37.5 -6q-40 0 -72 19zM237 225q32 0 54.5 22t22.5 52
q0 33 -22.5 55.5t-54.5 22.5q-33 0 -55 -22t-22 -56q0 -30 22 -52t55 -22z" />
    <glyph glyph-name="d" unicode="d" horiz-adv-x="369" 
d="M162 -8q-36 0 -60 8.5t-38.5 26t-20 45t-5.5 64.5v245q0 29 6 51.5t20 38t35 24t52 8.5q41 0 62.5 -12t31.5 -29v168h76v-630h-52l-8 47q-5 -12 -16.5 -24.5t-31 -21.5t-51.5 -9zM177 38q25 0 39 9t20 24t7.5 33t1.5 36v275q-2 8 -9 17.5t-20.5 16.5t-36.5 7
q-25 0 -38 -7t-19 -19.5t-7 -27.5t-1 -32v-247q0 -22 2.5 -42t16 -31.5t44.5 -11.5z" />
    <glyph glyph-name="d.sc" horiz-adv-x="405" 
d="M56 0v495h181q33 0 60.5 -8.5t44 -29t16.5 -58.5v-292q0 -57 -32 -82t-99 -25h-171zM134 41h82q18 0 33 4.5t24 18t9 37.5v289q0 33 -16 47t-50 14h-82v-410z" />
    <glyph glyph-name="dagger" unicode="&#x2020;" horiz-adv-x="370" 
d="M150 -122v450h-108v46h108v211h67v-211h112v-46h-112v-450h-67z" />
    <glyph glyph-name="daggerdbl" unicode="&#x2021;" horiz-adv-x="373" 
d="M151 -122v271h-109v51h109v135h-109v50h109v218h68v-218h112v-50h-112v-135h112v-51h-112v-271h-68z" />
    <glyph glyph-name="dcaron" unicode="&#x10f;" horiz-adv-x="411" 
d="M162 -8q-36 0 -60 8.5t-38.5 26t-20 45t-5.5 64.5v245q0 29 6 51.5t20 38t35 24t52 8.5q41 0 62.5 -12t31.5 -29v168h76v-630h-52l-8 47q-5 -12 -16.5 -24.5t-31 -21.5t-51.5 -9zM177 38q25 0 39 9t20 24t7.5 33t1.5 36v275q-2 8 -9 17.5t-20.5 16.5t-36.5 7
q-25 0 -38 -7t-19 -19.5t-7 -27.5t-1 -32v-247q0 -22 2.5 -42t16 -31.5t44.5 -11.5zM348 494l20 133h49l-40 -133h-29z" />
    <glyph glyph-name="dcroat" unicode="&#x111;" horiz-adv-x="363" 
d="M137 537v33h219v-33h-219zM162 -8q-36 0 -60 8.5t-38.5 26t-20 45t-5.5 64.5v245q0 29 6 51.5t20 38t35 24t52 8.5q41 0 62.5 -12t31.5 -29v168h76v-630h-52l-8 47q-5 -12 -16.5 -24.5t-31 -21.5t-51.5 -9zM177 38q25 0 39 9t20 24t7.5 33t1.5 36v275q-2 8 -9 17.5
t-20.5 16.5t-36.5 7q-25 0 -38 -7t-19 -19.5t-7 -27.5t-1 -32v-247q0 -22 2.5 -42t16 -31.5t44.5 -11.5z" />
    <glyph glyph-name="uni0434" unicode="&#x434;" horiz-adv-x="510" 
d="M21 -109v155h43q12 2 24 11t21.5 27.5t12.5 48.5l37 361h251v-448h79v-155h-65v96h-338v-96h-65zM169 46h160v393h-100l-31 -292q-3 -27 -8.5 -57.5t-20.5 -43.5z" />
    <glyph glyph-name="uni0434.loclBGR" horiz-adv-x="510" 
d="M21 -109v155h43q12 2 24 11t21.5 27.5t12.5 48.5l37 361h251v-448h79v-155h-65v96h-338v-96h-65zM169 46h160v393h-100l-31 -292q-3 -27 -8.5 -57.5t-20.5 -43.5z" />
    <glyph glyph-name="degree" unicode="&#xb0;" horiz-adv-x="325" 
d="M162 355q-62 0 -91 34.5t-29 82.5q0 49 27.5 84t94.5 35q45 0 71.5 -16t37.5 -42.5t11 -58.5q0 -52 -29.5 -85.5t-92.5 -33.5zM163 392q36 0 56.5 22.5t20.5 58.5q0 33 -19.5 58t-58.5 25q-35 0 -55.5 -24t-20.5 -60q0 -35 22.5 -57.5t54.5 -22.5z" />
    <glyph glyph-name="dieresis" unicode="&#xa8;" horiz-adv-x="198" 
d="M37 554q-16 0 -26.5 10.5t-10.5 25.5t10.5 24.5t26.5 9.5q15 0 25.5 -9.5t10.5 -24.5t-10.5 -25.5t-25.5 -10.5zM140 554q-15 0 -26 10.5t-11 25.5t11 24.5t26 9.5q16 0 26 -9.5t10 -24.5t-10 -25.5t-26 -10.5z" />
    <glyph glyph-name="uni0308" unicode="&#x308;" 
d="M37 554q-16 0 -26.5 10.5t-10.5 25.5t10.5 24.5t26.5 9.5q15 0 25.5 -9.5t10.5 -24.5t-10.5 -25.5t-25.5 -10.5zM140 554q-15 0 -26 10.5t-11 25.5t11 24.5t26 9.5q16 0 26 -9.5t10 -24.5t-10 -25.5t-26 -10.5z" />
    <glyph glyph-name="uni0308.case" 
d="M37 638q-16 0 -26.5 10.5t-10.5 25.5t10.5 24.5t26.5 9.5q15 0 25.5 -9.5t10.5 -24.5t-10.5 -25.5t-25.5 -10.5zM140 638q-15 0 -26 10.5t-11 25.5t11 24.5t26 9.5q16 0 26 -9.5t10 -24.5t-10 -25.5t-26 -10.5z" />
    <glyph glyph-name="divide" unicode="&#xf7;" horiz-adv-x="373" 
d="M46 263v53h281v-53h-281zM186 84q-17 0 -29 11t-12 28t12 28.5t29 11.5q18 0 30 -11.5t12 -28.5t-12 -28t-30 -11zM186 406q-17 0 -29 11t-12 28t12 28.5t29 11.5t29.5 -11.5t12.5 -28.5t-12.5 -28t-29.5 -11z" />
    <glyph glyph-name="uni2215" unicode="&#x2215;" horiz-adv-x="415" 
d="M17 -131l330 839h58l-331 -839h-57z" />
    <glyph glyph-name="uni0452" unicode="&#x452;" horiz-adv-x="412" 
d="M262 -93q-22 0 -38 4t-27 9l6 38q6 -4 14 -6t19 -2q35 0 46.5 25t11.5 72v258q-1 32 -15 51.5t-52 19.5q-29 0 -43 -10.5t-19.5 -26.5t-6.5 -32.5t-2 -28.5v-278h-77v511h-63v43h63v76h77v-76h94v-43h-94v-139q10 21 34 36.5t62 15.5q40 0 66.5 -13t39.5 -40t13 -72v-235
q0 -51 -8.5 -81.5t-23.5 -47t-35 -22.5t-42 -6z" />
    <glyph glyph-name="dollar" unicode="$" horiz-adv-x="347" 
d="M159 -60v111q-50 2 -77 17.5t-37.5 46.5t-10.5 78v37h72v-50q0 -23 2.5 -43t16.5 -31.5t47 -11.5q30 0 43.5 11.5t16.5 28.5t3 32v30q0 25 -9 42t-27.5 29.5t-48.5 24.5q-30 13 -54.5 28t-38.5 38.5t-14 59.5v30q0 51 26.5 81.5t89.5 33.5v102h42v-101q61 -4 86 -36
t25 -97v-41h-70v51q0 46 -15 63t-48 17q-37 0 -49.5 -18t-12.5 -45v-31q0 -28 12 -45t34.5 -28.5t52.5 -23.5q28 -11 49 -25t34 -37t13 -63v-25q0 -32 -8.5 -59.5t-32 -46t-70.5 -22.5v-112h-42z" />
    <glyph glyph-name="dollar.tf" horiz-adv-x="420" 
d="M194 -60v111q-50 2 -77 17.5t-37.5 46.5t-10.5 78v37h72v-50q0 -23 2.5 -43t16.5 -31.5t47 -11.5q30 0 43.5 11.5t16.5 28.5t3 32v30q0 25 -9 42t-27.5 29.5t-48.5 24.5q-30 13 -54.5 28t-38.5 38.5t-14 59.5v30q0 51 26.5 81.5t89.5 33.5v102h42v-101q61 -4 86 -36
t25 -97v-41h-70v51q0 46 -15 63t-48 17q-37 0 -49.5 -18t-12.5 -45v-31q0 -28 12 -45t34.5 -28.5t52.5 -23.5q28 -11 49 -25t34 -37t13 -63v-25q0 -32 -8.5 -59.5t-32 -46t-70.5 -22.5v-112h-42z" />
    <glyph glyph-name="dotaccent" unicode="&#x2d9;" horiz-adv-x="94" 
d="M43 554q-17 0 -30 12.5t-13 29.5q0 18 13 30t31 12t30.5 -12t12.5 -30q1 -17 -12.5 -29.5t-31.5 -12.5z" />
    <glyph glyph-name="uni0307" unicode="&#x307;" 
d="M43 554q-17 0 -30 12.5t-13 29.5q0 18 13 30t31 12t30.5 -12t12.5 -30q1 -17 -12.5 -29.5t-31.5 -12.5z" />
    <glyph glyph-name="uni0307.case" 
d="M43 639q-17 0 -30 12.5t-13 29.5q0 18 13 30t31 12t30.5 -12t12.5 -30q1 -17 -12.5 -29.5t-31.5 -12.5z" />
    <glyph glyph-name="dotbelowcomb" unicode="&#x323;" 
d="M47 -114q-16 0 -26.5 11t-10.5 25q0 15 10.5 25.5t26.5 10.5q15 0 26.5 -10.5t11.5 -25.5q0 -14 -11.5 -25t-26.5 -11z" />
    <glyph glyph-name="arrowdown" unicode="&#x2193;" horiz-adv-x="519" 
d="M261 0l-219 246l37 37l151 -155l1 589h60l-1 -587l152 153l36 -38z" />
    <glyph glyph-name="uni0455" unicode="&#x455;" horiz-adv-x="353" 
d="M175 -9q-48 0 -77 11t-43 30.5t-18.5 45.5t-4.5 56v37h77v-50q0 -24 2.5 -43.5t16.5 -31t47 -11.5q30 0 43.5 11t16.5 28t3 32v31q0 25 -9 42t-28.5 29.5t-49.5 24.5q-31 12 -55.5 27t-39 38.5t-14.5 60.5v29q0 56 31 86.5t109 30.5q51 0 80.5 -13.5t43 -43t13.5 -77.5
v-40h-74v51q0 45 -15 62t-48 17q-37 0 -50 -18t-13 -45v-30q0 -28 12.5 -45.5t35.5 -28.5t53 -24q28 -11 50.5 -25t35.5 -37t13 -63v-24q0 -36 -11 -65.5t-41.5 -47t-91.5 -17.5z" />
    <glyph glyph-name="uni045F" unicode="&#x45f;" horiz-adv-x="371" 
d="M156 -107v107h-116v495h76v-440h139v440h77v-495h-118v-107h-58z" />
    <glyph glyph-name="e" unicode="e" horiz-adv-x="352" 
d="M183 -9q-51 0 -83 11.5t-47 43.5t-15 94v240q0 71 33.5 97t107.5 26q73 0 106.5 -26t33.5 -97v-129h-205v-139q0 -43 13.5 -60t53.5 -17q37 0 49.5 16.5t12.5 60.5v68h76v-39q0 -61 -15 -93.5t-45 -44.5t-76 -12zM114 288h129v100q0 38 -12.5 55.5t-51.5 17.5
q-38 0 -51.5 -17.5t-13.5 -55.5v-100z" />
    <glyph glyph-name="e.sc" horiz-adv-x="333" 
d="M56 0v495h254v-53h-175v-155h142v-60h-142v-174h175v-53h-254z" />
    <glyph glyph-name="eacute" unicode="&#xe9;" horiz-adv-x="352" 
d="M183 -9q-51 0 -83 11.5t-47 43.5t-15 94v240q0 71 33.5 97t107.5 26q73 0 106.5 -26t33.5 -97v-129h-205v-139q0 -43 13.5 -60t53.5 -17q37 0 49.5 16.5t12.5 60.5v68h76v-39q0 -61 -15 -93.5t-45 -44.5t-76 -12zM114 288h129v100q0 38 -12.5 55.5t-51.5 17.5
q-38 0 -51.5 -17.5t-13.5 -55.5v-100zM135 546l57 95h77l-86 -95h-48z" />
    <glyph glyph-name="ecaron" unicode="&#x11b;" horiz-adv-x="352" 
d="M183 -9q-51 0 -83 11.5t-47 43.5t-15 94v240q0 71 33.5 97t107.5 26q73 0 106.5 -26t33.5 -97v-129h-205v-139q0 -43 13.5 -60t53.5 -17q37 0 49.5 16.5t12.5 60.5v68h76v-39q0 -61 -15 -93.5t-45 -44.5t-76 -12zM114 288h129v100q0 38 -12.5 55.5t-51.5 17.5
q-38 0 -51.5 -17.5t-13.5 -55.5v-100zM152 546l-91 96h50l65 -60l67 60h48l-91 -96h-48z" />
    <glyph glyph-name="ecircumflex" unicode="&#xea;" horiz-adv-x="352" 
d="M183 -9q-51 0 -83 11.5t-47 43.5t-15 94v240q0 71 33.5 97t107.5 26q73 0 106.5 -26t33.5 -97v-129h-205v-139q0 -43 13.5 -60t53.5 -17q37 0 49.5 16.5t12.5 60.5v68h76v-39q0 -61 -15 -93.5t-45 -44.5t-76 -12zM114 288h129v100q0 38 -12.5 55.5t-51.5 17.5
q-38 0 -51.5 -17.5t-13.5 -55.5v-100zM62 546l91 96h47l91 -96h-48l-66 60l-65 -60h-50z" />
    <glyph glyph-name="uni1EBF" unicode="&#x1ebf;" horiz-adv-x="352" 
d="M183 -9q-51 0 -83 11.5t-47 43.5t-15 94v240q0 71 33.5 97t107.5 26q73 0 106.5 -26t33.5 -97v-129h-205v-139q0 -43 13.5 -60t53.5 -17q37 0 49.5 16.5t12.5 60.5v68h76v-39q0 -61 -15 -93.5t-45 -44.5t-76 -12zM114 288h129v100q0 38 -12.5 55.5t-51.5 17.5
q-38 0 -51.5 -17.5t-13.5 -55.5v-100zM62 546l91 96h47l91 -96h-48l-66 60l-65 -60h-50zM287 599l57 95h77l-86 -95h-48z" />
    <glyph glyph-name="uni1EC7" unicode="&#x1ec7;" horiz-adv-x="352" 
d="M183 -9q-51 0 -83 11.5t-47 43.5t-15 94v240q0 71 33.5 97t107.5 26q73 0 106.5 -26t33.5 -97v-129h-205v-139q0 -43 13.5 -60t53.5 -17q37 0 49.5 16.5t12.5 60.5v68h76v-39q0 -61 -15 -93.5t-45 -44.5t-76 -12zM114 288h129v100q0 38 -12.5 55.5t-51.5 17.5
q-38 0 -51.5 -17.5t-13.5 -55.5v-100zM176 -114q-16 0 -26.5 11t-10.5 25q0 15 10.5 25.5t26.5 10.5q15 0 26.5 -10.5t11.5 -25.5q0 -14 -11.5 -25t-26.5 -11zM62 546l91 96h47l91 -96h-48l-66 60l-65 -60h-50z" />
    <glyph glyph-name="uni1EC1" unicode="&#x1ec1;" horiz-adv-x="352" 
d="M183 -9q-51 0 -83 11.5t-47 43.5t-15 94v240q0 71 33.5 97t107.5 26q73 0 106.5 -26t33.5 -97v-129h-205v-139q0 -43 13.5 -60t53.5 -17q37 0 49.5 16.5t12.5 60.5v68h76v-39q0 -61 -15 -93.5t-45 -44.5t-76 -12zM114 288h129v100q0 38 -12.5 55.5t-51.5 17.5
q-38 0 -51.5 -17.5t-13.5 -55.5v-100zM62 546l91 96h47l91 -96h-48l-66 60l-65 -60h-50zM324 599l-86 95h77l57 -95h-48z" />
    <glyph glyph-name="uni1EC3" unicode="&#x1ec3;" horiz-adv-x="352" 
d="M183 -9q-51 0 -83 11.5t-47 43.5t-15 94v240q0 71 33.5 97t107.5 26q73 0 106.5 -26t33.5 -97v-129h-205v-139q0 -43 13.5 -60t53.5 -17q37 0 49.5 16.5t12.5 60.5v68h76v-39q0 -61 -15 -93.5t-45 -44.5t-76 -12zM114 288h129v100q0 38 -12.5 55.5t-51.5 17.5
q-38 0 -51.5 -17.5t-13.5 -55.5v-100zM62 546l91 96h47l91 -96h-48l-66 60l-65 -60h-50zM306 601v15q0 14 11.5 21.5t22.5 14t11 19.5v5q0 9 -6 17t-20 8q-19 0 -23 -23l-37 7q3 23 19 35t45 12q34 0 50.5 -11.5t16.5 -44.5v-2q0 -22 -12 -31t-24 -14t-12 -17v-11h-42z" />
    <glyph glyph-name="uni1EC5" unicode="&#x1ec5;" horiz-adv-x="352" 
d="M183 -9q-51 0 -83 11.5t-47 43.5t-15 94v240q0 71 33.5 97t107.5 26q73 0 106.5 -26t33.5 -97v-129h-205v-139q0 -43 13.5 -60t53.5 -17q37 0 49.5 16.5t12.5 60.5v68h76v-39q0 -61 -15 -93.5t-45 -44.5t-76 -12zM114 288h129v100q0 38 -12.5 55.5t-51.5 17.5
q-38 0 -51.5 -17.5t-13.5 -55.5v-100zM62 546l91 96h47l91 -96h-48l-66 60l-65 -60h-50zM220 664q-14 0 -24.5 5t-24.5 13q-9 6 -20 12t-23 6t-20 -9t-10 -26h-27q1 32 16.5 52.5t41.5 20.5q15 0 27 -5.5t24 -13.5q11 -6 20.5 -11t19.5 -5q13 0 21 8.5t11 24.5h29
q-1 -23 -10 -39t-22.5 -24.5t-28.5 -8.5z" />
    <glyph glyph-name="edieresis" unicode="&#xeb;" horiz-adv-x="352" 
d="M183 -9q-51 0 -83 11.5t-47 43.5t-15 94v240q0 71 33.5 97t107.5 26q73 0 106.5 -26t33.5 -97v-129h-205v-139q0 -43 13.5 -60t53.5 -17q37 0 49.5 16.5t12.5 60.5v68h76v-39q0 -61 -15 -93.5t-45 -44.5t-76 -12zM114 288h129v100q0 38 -12.5 55.5t-51.5 17.5
q-38 0 -51.5 -17.5t-13.5 -55.5v-100zM125 554q-16 0 -26.5 10.5t-10.5 25.5t10.5 24.5t26.5 9.5q15 0 25.5 -9.5t10.5 -24.5t-10.5 -25.5t-25.5 -10.5zM228 554q-15 0 -26 10.5t-11 25.5t11 24.5t26 9.5q16 0 26 -9.5t10 -24.5t-10 -25.5t-26 -10.5z" />
    <glyph glyph-name="edotaccent" unicode="&#x117;" horiz-adv-x="352" 
d="M183 -9q-51 0 -83 11.5t-47 43.5t-15 94v240q0 71 33.5 97t107.5 26q73 0 106.5 -26t33.5 -97v-129h-205v-139q0 -43 13.5 -60t53.5 -17q37 0 49.5 16.5t12.5 60.5v68h76v-39q0 -61 -15 -93.5t-45 -44.5t-76 -12zM114 288h129v100q0 38 -12.5 55.5t-51.5 17.5
q-38 0 -51.5 -17.5t-13.5 -55.5v-100zM176 554q-17 0 -30 12.5t-13 29.5q0 18 13 30t31 12t30.5 -12t12.5 -30q1 -17 -12.5 -29.5t-31.5 -12.5z" />
    <glyph glyph-name="uni1EB9" unicode="&#x1eb9;" horiz-adv-x="352" 
d="M183 -9q-51 0 -83 11.5t-47 43.5t-15 94v240q0 71 33.5 97t107.5 26q73 0 106.5 -26t33.5 -97v-129h-205v-139q0 -43 13.5 -60t53.5 -17q37 0 49.5 16.5t12.5 60.5v68h76v-39q0 -61 -15 -93.5t-45 -44.5t-76 -12zM114 288h129v100q0 38 -12.5 55.5t-51.5 17.5
q-38 0 -51.5 -17.5t-13.5 -55.5v-100zM176 -114q-16 0 -26.5 11t-10.5 25q0 15 10.5 25.5t26.5 10.5q15 0 26.5 -10.5t11.5 -25.5q0 -14 -11.5 -25t-26.5 -11z" />
    <glyph glyph-name="uni0444" unicode="&#x444;" horiz-adv-x="587" 
d="M256 -116v142q-13 -15 -35.5 -24t-57.5 -9q-74 0 -99.5 37.5t-25.5 105.5v196q0 42 10 72t37.5 46t79.5 16q35 0 58 -9.5t33 -27.5v162h75v-160q9 16 32.5 25.5t56.5 9.5q52 0 80 -16t38.5 -46t10.5 -72v-196q0 -68 -26 -105.5t-100 -37.5q-34 0 -56.5 9t-35.5 25v-143
h-75zM181 35q30 0 46.5 12.5t22.5 32t6 38.5v212q0 24 -4.5 45.5t-20.5 35t-49 13.5q-32 0 -46.5 -12t-18 -33t-3.5 -49v-206q0 -26 5 -45.5t19.5 -31.5t42.5 -12zM408 35q28 0 42 12t19 32t5 45v206q0 27 -4 48t-18 33.5t-45 12.5t-47 -12.5t-22.5 -32t-6.5 -42.5v-215
q0 -20 6.5 -40t23 -33.5t47.5 -13.5z" />
    <glyph glyph-name="egrave" unicode="&#xe8;" horiz-adv-x="352" 
d="M183 -9q-51 0 -83 11.5t-47 43.5t-15 94v240q0 71 33.5 97t107.5 26q73 0 106.5 -26t33.5 -97v-129h-205v-139q0 -43 13.5 -60t53.5 -17q37 0 49.5 16.5t12.5 60.5v68h76v-39q0 -61 -15 -93.5t-45 -44.5t-76 -12zM114 288h129v100q0 38 -12.5 55.5t-51.5 17.5
q-38 0 -51.5 -17.5t-13.5 -55.5v-100zM173 546l-86 95h77l57 -95h-48z" />
    <glyph glyph-name="uni1EBB" unicode="&#x1ebb;" horiz-adv-x="352" 
d="M183 -9q-51 0 -83 11.5t-47 43.5t-15 94v240q0 71 33.5 97t107.5 26q73 0 106.5 -26t33.5 -97v-129h-205v-139q0 -43 13.5 -60t53.5 -17q37 0 49.5 16.5t12.5 60.5v68h76v-39q0 -61 -15 -93.5t-45 -44.5t-76 -12zM114 288h129v100q0 38 -12.5 55.5t-51.5 17.5
q-38 0 -51.5 -17.5t-13.5 -55.5v-100zM154 548v15q0 14 11.5 21.5t22.5 14t11 19.5v5q0 9 -6 17t-20 8q-19 0 -23 -23l-37 7q3 23 19 35t45 12q34 0 50.5 -11.5t16.5 -44.5v-2q0 -22 -12 -31t-24 -14t-12 -17v-11h-42z" />
    <glyph glyph-name="eight" unicode="8" horiz-adv-x="390" 
d="M196 -8q-56 0 -91 18.5t-51.5 52t-16.5 77.5v36q0 30 6.5 55.5t23.5 43.5q11 12 30 22t47 13q-27 3 -42.5 11.5t-29.5 21.5q-16 17 -22.5 43t-6.5 56v21q0 43 14.5 72.5t48.5 44t90 14.5t89.5 -14.5t48.5 -44t15 -72.5v-21q0 -35 -10 -62t-31 -44.5t-54 -25.5
q31 -4 50.5 -17t30 -31.5t14.5 -40.5t4 -46v-36q0 -40 -15.5 -73t-49.5 -53.5t-92 -20.5zM195 39q37 0 58 22t21 61v72q0 37 -20.5 59t-58.5 23q-38 0 -59 -23.5t-21 -59.5v-71q0 -37 20.5 -59.5t59.5 -23.5zM195 337q31 0 53.5 23.5t22.5 63.5v41q0 35 -18 60t-58 25
q-41 0 -58.5 -25.5t-17.5 -58.5v-41q0 -27 10.5 -47t27.5 -30.5t38 -10.5z" />
    <glyph glyph-name="eight.tf" horiz-adv-x="420" 
d="M217 -8q-56 0 -91 18.5t-51.5 52t-16.5 77.5v36q0 30 6.5 55.5t23.5 43.5q11 12 30 22t47 13q-27 3 -42.5 11.5t-29.5 21.5q-16 17 -22.5 43t-6.5 56v21q0 43 14.5 72.5t48.5 44t90 14.5t89.5 -14.5t48.5 -44t15 -72.5v-21q0 -35 -10 -62t-31 -44.5t-54 -25.5
q31 -4 50.5 -17t30 -31.5t14.5 -40.5t4 -46v-36q0 -40 -15.5 -73t-49.5 -53.5t-92 -20.5zM216 39q37 0 58 22t21 61v72q0 37 -20.5 59t-58.5 23q-38 0 -59 -23.5t-21 -59.5v-71q0 -37 20.5 -59.5t59.5 -23.5zM216 337q31 0 53.5 23.5t22.5 63.5v41q0 35 -18 60t-58 25
q-41 0 -58.5 -25.5t-17.5 -58.5v-41q0 -27 10.5 -47t27.5 -30.5t38 -10.5z" />
    <glyph glyph-name="uni043B" unicode="&#x43b;" horiz-adv-x="403" 
d="M16 0v42q19 0 33.5 19.5t17.5 55.5l31 377h266v-494h-78v439h-111l-32 -343q-1 -13 -3.5 -29.5t-10.5 -31.5t-24 -25t-44 -10h-45z" />
    <glyph glyph-name="uni043B.loclBGR" horiz-adv-x="403" 
d="M16 0v42q19 0 33.5 19.5t17.5 55.5l31 377h266v-494h-78v439h-111l-32 -343q-1 -13 -3.5 -29.5t-10.5 -31.5t-24 -25t-44 -10h-45z" />
    <glyph glyph-name="ellipsis" unicode="&#x2026;" horiz-adv-x="509" 
d="M94 -7q-18 0 -31 12t-13 30q0 17 13 29.5t31 12.5t31.5 -12.5t13.5 -29.5q0 -18 -13.5 -30t-31.5 -12zM259 -6q-18 0 -31 12t-13 30q0 17 13 29.5t31 12.5t31.5 -12.5t13.5 -29.5q0 -18 -13.5 -30t-31.5 -12zM414 -6q-18 0 -31 12t-13 30q0 17 13 29.5t31 12.5
t31.5 -12.5t13.5 -29.5q0 -18 -13.5 -30t-31.5 -12z" />
    <glyph glyph-name="uni043C" unicode="&#x43c;" horiz-adv-x="481" 
d="M40 0v495h91l110 -397l111 397h90v-495h-64v375l-110 -375h-54l-111 375v-375h-63z" />
    <glyph glyph-name="emacron" unicode="&#x113;" horiz-adv-x="352" 
d="M183 -9q-51 0 -83 11.5t-47 43.5t-15 94v240q0 71 33.5 97t107.5 26q73 0 106.5 -26t33.5 -97v-129h-205v-139q0 -43 13.5 -60t53.5 -17q37 0 49.5 16.5t12.5 60.5v68h76v-39q0 -61 -15 -93.5t-45 -44.5t-76 -12zM114 288h129v100q0 38 -12.5 55.5t-51.5 17.5
q-38 0 -51.5 -17.5t-13.5 -55.5v-100zM81 564v41h191v-41h-191z" />
    <glyph glyph-name="emdash" unicode="&#x2014;" horiz-adv-x="613" 
d="M24 241v54h565v-54h-565z" />
    <glyph glyph-name="emptyset" unicode="&#x2205;" horiz-adv-x="410" 
d="M30 60l328 504h23l-329 -504h-22zM228 -12q-45 0 -80.5 19t-56 60.5t-20.5 107.5v251q0 89 45.5 131t113.5 42q66 0 110.5 -42.5t44.5 -130.5v-251q0 -67 -20.5 -108.5t-56 -60t-80.5 -18.5zM228 35q35 0 57.5 27t22.5 78v305q0 51 -23.5 78t-56.5 27q-34 0 -56.5 -27
t-22.5 -78v-305q0 -51 22.5 -78t56.5 -27z" />
    <glyph glyph-name="uni043D" unicode="&#x43d;" horiz-adv-x="369" 
d="M40 0v495h76v-207h139v207h75v-495h-75v230h-139v-230h-76z" />
    <glyph glyph-name="endash" unicode="&#x2013;" horiz-adv-x="382" 
d="M24 241v54h334v-54h-334z" />
    <glyph glyph-name="eng" unicode="&#x14b;" horiz-adv-x="363" 
d="M184 -112q-9 0 -18 1t-17 3v40q1 0 6.5 -0.5t12 -1t8.5 -0.5q34 0 52.5 12.5t18.5 46.5v375q0 21 -2.5 40.5t-16 31.5t-46.5 12q-22 0 -35.5 -8t-20.5 -18.5t-10 -20.5v-401h-76v495h63l8 -55q11 32 38.5 47.5t58.5 15.5q52 0 76.5 -18t31.5 -47.5t7 -65.5v-360
q0 -51 -19 -78.5t-50 -37t-70 -8.5z" />
    <glyph glyph-name="eogonek" unicode="&#x119;" horiz-adv-x="352" 
d="M183 -9q-51 0 -83 11.5t-47 43.5t-15 94v240q0 71 33.5 97t107.5 26q73 0 106.5 -26t33.5 -97v-129h-205v-139q0 -43 13.5 -60t53.5 -17q37 0 49.5 16.5t12.5 60.5v68h76v-39q0 -61 -15 -93.5t-45 -44.5t-76 -12zM114 288h129v100q0 38 -12.5 55.5t-51.5 17.5
q-38 0 -51.5 -17.5t-13.5 -55.5v-100zM194 -138q-30 0 -51 17.5t-21 42.5q0 28 21 50t48 29l36 -1q-27 -11 -40.5 -30t-13.5 -38t13 -29t26 -10q8 0 14.5 2t9.5 4l11 -24q-6 -3 -18.5 -8t-34.5 -5z" />
    <glyph glyph-name="equal" unicode="=" horiz-adv-x="424" 
d="M50 361v54h324v-54h-324zM50 152v54h324v-54h-324z" />
    <glyph glyph-name="uni0440" unicode="&#x440;" horiz-adv-x="369" 
d="M49 -116v611h72l2 -42q9 19 28.5 34t64.5 15q44 0 69 -14.5t36 -42t11 -66.5v-243q0 -45 -10 -77t-35 -49t-71 -17q-37 0 -59 12.5t-33 29.5v-151h-75zM190 38q25 0 38 7t19.5 19t7.5 27t1 32v246q0 17 -1 32t-7.5 27.5t-19.5 19.5t-38 7q-24 0 -37.5 -9t-19.5 -22.5
t-7 -30t-1 -30.5v-245q0 -23 4 -41t18 -28.5t43 -10.5z" />
    <glyph glyph-name="uni044D" unicode="&#x44d;" horiz-adv-x="370" 
d="M186 -9q-57 0 -89 16t-44.5 49.5t-12.5 87.5v29h76v-53q0 -25 4 -44.5t19 -31t47 -11.5q34 0 48 12t17 32t3 42v111h-149v50h149v95q0 22 -3 41.5t-17 32t-48 12.5q-32 0 -47 -11.5t-19 -31t-4 -44.5v-40h-76v35q0 42 12 72t44 46t90 16q44 0 72 -10t44 -27.5t22 -41.5
t6 -53v-229q0 -38 -6.5 -66.5t-22.5 -47t-43.5 -28t-71.5 -9.5z" />
    <glyph glyph-name="uni0441" unicode="&#x441;" horiz-adv-x="352" 
d="M182 -9q-50 0 -82 11.5t-47 43t-15 93.5v237q0 74 33.5 101t107.5 27q73 0 106.5 -26.5t33.5 -97.5v-66h-76v70q0 39 -12.5 56.5t-51.5 17.5q-38 0 -51.5 -17.5t-13.5 -56.5v-267q0 -43 13.5 -60.5t53.5 -17.5q37 0 49.5 17t12.5 61v72h76v-50q0 -60 -15 -92t-45.5 -44
t-76.5 -12z" />
    <glyph glyph-name="eth" unicode="&#xf0;" horiz-adv-x="361" 
d="M175 -8q-26 0 -50.5 4t-44 17t-31 41.5t-11.5 78.5v231q0 54 17 80.5t46.5 35.5t66.5 9q21 0 42.5 -5.5t31.5 -21.5q-1 46 -7.5 79.5t-25 51.5t-59.5 18q-26 0 -48 -4t-41 -8v50q17 3 41.5 8.5t59.5 5.5q54 0 85.5 -16t46.5 -49t20 -84.5t5 -123.5v-229q0 -40 -7 -71
t-23.5 -52.5t-44 -33.5t-69.5 -12zM175 34q29 0 43.5 15t19.5 37.5t5 45.5v263q0 8 -6 20t-20.5 22t-41.5 10t-40.5 -10t-17 -27t-3.5 -42v-264q0 -24 6 -38t16.5 -20.5t21 -9t17.5 -2.5zM140 523l-21 25l172 144l21 -26z" />
    <glyph glyph-name="eth.sc" horiz-adv-x="428" 
d="M70 0v495h190q36 0 63 -9t42 -30.5t15 -56.5v-292q0 -56 -31.5 -81.5t-98.5 -25.5h-180zM17 220v46h184v-46h-184zM148 41h86q18 0 34 4t26 17t10 39v289q0 32 -16 46.5t-54 14.5h-86v-410z" />
    <glyph glyph-name="uni1EBD" unicode="&#x1ebd;" horiz-adv-x="352" 
d="M183 -9q-51 0 -83 11.5t-47 43.5t-15 94v240q0 71 33.5 97t107.5 26q73 0 106.5 -26t33.5 -97v-129h-205v-139q0 -43 13.5 -60t53.5 -17q37 0 49.5 16.5t12.5 60.5v68h76v-39q0 -61 -15 -93.5t-45 -44.5t-76 -12zM114 288h129v100q0 38 -12.5 55.5t-51.5 17.5
q-38 0 -51.5 -17.5t-13.5 -55.5v-100zM220 553q-14 0 -24.5 5t-24.5 13q-9 6 -20 12t-23 6t-20 -9t-10 -26h-27q1 32 16.5 52.5t41.5 20.5q15 0 27 -5.5t24 -13.5q11 -6 20.5 -11t19.5 -5q13 0 21 8.5t11 24.5h29q-1 -23 -10 -39t-22.5 -24.5t-28.5 -8.5z" />
    <glyph glyph-name="Euro" unicode="&#x20ac;" horiz-adv-x="459" 
d="M264 -12q-44 0 -78.5 10.5t-54 43.5t-19.5 99v93h-74l14 31h60v56h-74l14 32h60v114q0 54 19.5 82.5t54.5 39t79 10.5q45 0 79.5 -11t54 -39t19.5 -82v-31h-77v33q0 36 -10 53.5t-27 23t-40 5.5q-22 0 -39 -5.5t-26.5 -23t-9.5 -53.5v-116h149l-15 -32h-134v-56h110
l-14 -31h-96v-117q0 -36 9.5 -53.5t26.5 -23t39 -5.5q23 0 40.5 5.5t27 23t9.5 53.5v59h77v-35q0 -67 -19.5 -99.5t-54 -43t-80.5 -10.5z" />
    <glyph glyph-name="Euro.tf" horiz-adv-x="420" 
d="M235 -12q-44 0 -78.5 10.5t-54 43.5t-19.5 99v93h-74l14 31h60v56h-74l14 32h60v114q0 54 19.5 82.5t54.5 39t79 10.5q45 0 79.5 -11t54 -39t19.5 -82v-31h-77v33q0 36 -10 53.5t-27 23t-40 5.5q-22 0 -39 -5.5t-26.5 -23t-9.5 -53.5v-116h149l-15 -32h-134v-56h110
l-14 -31h-96v-117q0 -36 9.5 -53.5t26.5 -23t39 -5.5q23 0 40.5 5.5t27 23t9.5 53.5v59h77v-35q0 -67 -19.5 -99.5t-54 -43t-80.5 -10.5z" />
    <glyph glyph-name="exclam" unicode="!" horiz-adv-x="188" 
d="M69 192l-14 173l-3 265h82l-4 -263l-14 -175h-47zM95 -6q-19 0 -32.5 12.5t-13.5 31.5q0 17 13.5 29.5t32.5 12.5q20 0 34 -12.5t14 -29.5q0 -19 -14 -31.5t-34 -12.5z" />
    <glyph glyph-name="exclamdown" unicode="&#xa1;" horiz-adv-x="188" 
d="M69 298h47l14 -175l4 -262h-82l3 264zM95 497q20 0 34 -12.5t14 -31.5q0 -17 -14 -30t-34 -13q-19 0 -32.5 13t-13.5 30q0 19 13.5 31.5t32.5 12.5z" />
    <glyph glyph-name="f" unicode="f" horiz-adv-x="246" 
d="M59 0v430h-31v46h31v57q0 29 7 48.5t20.5 31t30.5 16.5t37 5q17 0 34.5 -1t32.5 -2.5t21 -1.5v-40l-20.5 2t-44.5 2t-33.5 -20t-9.5 -42v-55h108v-46h-108v-430h-75z" />
    <glyph glyph-name="f.sc" horiz-adv-x="326" 
d="M56 0v495h254v-53h-175v-155h142v-60h-142v-227h-79z" />
    <glyph glyph-name="five" unicode="5" horiz-adv-x="392" 
d="M197 -8q-55 0 -90.5 13t-52.5 47.5t-17 98.5v38h78v-31q0 -60 19 -84t64 -24q42 0 59.5 27.5t17.5 83.5v88q0 27 -6 50t-23.5 36t-49.5 13t-53 -17t-27 -46h-76v306h299v-58h-222v-181q13 22 38.5 35.5t67.5 13.5q66 0 99 -29.5t33 -105.5v-112q0 -66 -19.5 -101t-55 -48
t-83.5 -13z" />
    <glyph glyph-name="five.tf" horiz-adv-x="420" 
d="M223 -8q-55 0 -90.5 13t-52.5 47.5t-17 98.5v38h78v-31q0 -60 19 -84t64 -24q42 0 59.5 27.5t17.5 83.5v88q0 27 -6 50t-23.5 36t-49.5 13t-53 -17t-27 -46h-76v306h299v-58h-222v-181q13 22 38.5 35.5t67.5 13.5q66 0 99 -29.5t33 -105.5v-112q0 -66 -19.5 -101t-55 -48
t-83.5 -13z" />
    <glyph glyph-name="florin" unicode="&#x192;" horiz-adv-x="327" 
d="M-14 -146q-13 0 -30 1t-30.5 2t-17.5 2l5 47l58 -5q26 -1 41 8t22.5 29t11.5 51l49 407h-53l5 43h53l12 87q9 53 34 78t65 25h25t30 -0.5t28 -1.5t20 -2l-5 -46q-7 2 -27 4t-43 2q-29 0 -40 -22t-15 -47l-10 -77h106l-4 -43h-106l-52 -427q-7 -57 -39 -86t-93 -29z" />
    <glyph glyph-name="four" unicode="4" horiz-adv-x="368" 
d="M216 0v118h-203v61l209 412h71v-420h59v-53h-59v-118h-77zM78 171h138v276z" />
    <glyph glyph-name="four.tf" horiz-adv-x="420" 
d="M229 0v118h-203v61l209 412h71v-420h59v-53h-59v-118h-77zM91 171h138v276z" />
    <glyph glyph-name="uni2074" unicode="&#x2074;" horiz-adv-x="246" 
d="M138 236v71h-132v42l134 242h49v-248h38v-36h-38v-71h-51zM50 343h88v156z" />
    <glyph glyph-name="fraction" unicode="&#x2044;" horiz-adv-x="376" 
d="M-92 0l403 587h52l-404 -587h-51z" />
    <glyph glyph-name="franc" unicode="&#x20a3;" horiz-adv-x="374" 
d="M81 0v136h-47v37h47v418h259v-55h-179v-198h145v-60h-145v-105h87v-37h-87v-136h-80z" />
    <glyph glyph-name="g" unicode="g" horiz-adv-x="362" 
d="M172 -118q-12 0 -28.5 1t-32 2.5t-27 3t-14.5 2.5v43q13 -2 36.5 -4.5t41.5 -2.5q12 0 28 1.5t31.5 10t26 27.5t10.5 54v69q-6 -17 -17.5 -32t-31 -24t-49.5 -9q-18 0 -37.5 3.5t-35.5 16.5t-25.5 40.5t-9.5 75.5v225q0 38 9 61t24.5 35t35 16t40.5 4q31 0 59 -8.5
t38 -37.5l9 38h66v-442q0 -38 -8.5 -69t-26 -53.5t-45.5 -34.5t-67 -12zM175 72q29 0 43.5 14t19.5 37t5 47v244q-3 8 -10.5 17.5t-21 16.5t-36.5 7q-33 0 -47 -16.5t-14 -59.5v-238q0 -24 6 -38t16.5 -20.5t21 -8.5t17.5 -2z" />
    <glyph glyph-name="g.sc" horiz-adv-x="393" 
d="M176 -9q-36 0 -65.5 9.5t-46.5 36t-17 76.5v278q0 64 40 87.5t111 23.5t111 -24t40 -87v-67h-74v70q0 35 -18.5 48t-58.5 13q-38 0 -56.5 -13t-18.5 -48v-297q0 -37 19.5 -49t55.5 -12q33 0 55 15.5t22 45.5v100h-68v45h142v-242h-57l-4 43q-3 -4 -6.5 -8t-6.5 -7
q-13 -15 -37 -26t-62 -11z" />
    <glyph glyph-name="gbreve" unicode="&#x11f;" horiz-adv-x="362" 
d="M172 -118q-12 0 -28.5 1t-32 2.5t-27 3t-14.5 2.5v43q13 -2 36.5 -4.5t41.5 -2.5q12 0 28 1.5t31.5 10t26 27.5t10.5 54v69q-6 -17 -17.5 -32t-31 -24t-49.5 -9q-18 0 -37.5 3.5t-35.5 16.5t-25.5 40.5t-9.5 75.5v225q0 38 9 61t24.5 35t35 16t40.5 4q31 0 59 -8.5
t38 -37.5l9 38h66v-442q0 -38 -8.5 -69t-26 -53.5t-45.5 -34.5t-67 -12zM175 72q29 0 43.5 14t19.5 37t5 47v244q-3 8 -10.5 17.5t-21 16.5t-36.5 7q-33 0 -47 -16.5t-14 -59.5v-238q0 -24 6 -38t16.5 -20.5t21 -8.5t17.5 -2zM183 546q-40 0 -62 15.5t-30.5 37t-9.5 39.5h44
q3 -27 19.5 -40t38.5 -13q25 0 41 12.5t19 40.5h44q-1 -22 -11.5 -43t-33 -35t-59.5 -14z" />
    <glyph glyph-name="uni0123" unicode="&#x123;" horiz-adv-x="362" 
d="M222 674q-12 -19 -20 -36t-8 -28q0 -7 5.5 -11.5t11 -10t5.5 -16.5q0 -12 -10.5 -21t-25.5 -9q-17 0 -27.5 10.5t-10.5 24.5q0 13 7 30.5t18.5 35.5t22.5 31h32zM172 -118q-12 0 -28.5 1t-32 2.5t-27 3t-14.5 2.5v43q13 -2 36.5 -4.5t41.5 -2.5q12 0 28 1.5t31.5 10
t26 27.5t10.5 54v69q-6 -17 -17.5 -32t-31 -24t-49.5 -9q-18 0 -37.5 3.5t-35.5 16.5t-25.5 40.5t-9.5 75.5v225q0 38 9 61t24.5 35t35 16t40.5 4q31 0 59 -8.5t38 -37.5l9 38h66v-442q0 -38 -8.5 -69t-26 -53.5t-45.5 -34.5t-67 -12zM175 72q29 0 43.5 14t19.5 37t5 47v244
q-3 8 -10.5 17.5t-21 16.5t-36.5 7q-33 0 -47 -16.5t-14 -59.5v-238q0 -24 6 -38t16.5 -20.5t21 -8.5t17.5 -2z" />
    <glyph glyph-name="gdotaccent" unicode="&#x121;" horiz-adv-x="362" 
d="M172 -118q-12 0 -28.5 1t-32 2.5t-27 3t-14.5 2.5v43q13 -2 36.5 -4.5t41.5 -2.5q12 0 28 1.5t31.5 10t26 27.5t10.5 54v69q-6 -17 -17.5 -32t-31 -24t-49.5 -9q-18 0 -37.5 3.5t-35.5 16.5t-25.5 40.5t-9.5 75.5v225q0 38 9 61t24.5 35t35 16t40.5 4q31 0 59 -8.5
t38 -37.5l9 38h66v-442q0 -38 -8.5 -69t-26 -53.5t-45.5 -34.5t-67 -12zM175 72q29 0 43.5 14t19.5 37t5 47v244q-3 8 -10.5 17.5t-21 16.5t-36.5 7q-33 0 -47 -16.5t-14 -59.5v-238q0 -24 6 -38t16.5 -20.5t21 -8.5t17.5 -2zM183 554q-17 0 -30 12.5t-13 29.5q0 18 13 30
t31 12t30.5 -12t12.5 -30q1 -17 -12.5 -29.5t-31.5 -12.5z" />
    <glyph glyph-name="uni0433" unicode="&#x433;" horiz-adv-x="291" 
d="M40 0v495h235v-56h-155v-439h-80z" />
    <glyph glyph-name="uni0433.loclBGR" horiz-adv-x="291" 
d="M40 0v495h235v-56h-155v-439h-80z" />
    <glyph glyph-name="germandbls" unicode="&#xdf;" horiz-adv-x="407" 
d="M15 -147q-11 0 -29 1.5t-26 2.5v45q4 -1 7 -1t7 -1q5 -1 12.5 -1.5t17.5 -0.5q37 0 49 21t12 50v472h-36v54h36v27q0 38 11.5 62t44 35.5t95.5 11.5q74 0 113 -21.5t39 -76.5v-95q0 -42 -20 -68t-45 -28v-4q19 -2 37 -13t30 -31t12 -50v-123q0 -52 -18 -78t-50.5 -34.5
t-75.5 -8.5h-65v42h55q25 0 40.5 8t23.5 31t8 69v89q0 28 -10 45t-28 24t-44 7h-35l1 43h48q37 0 49 22.5t12 60.5v71q0 41 -17 60t-59 19q-33 0 -49.5 -11t-21.5 -28t-5 -36l1 -534q0 -38 -10.5 -62.5t-28 -39.5t-40.5 -21t-48 -6z" />
    <glyph glyph-name="uni0453" unicode="&#x453;" horiz-adv-x="291" 
d="M40 0v495h235v-56h-155v-439h-80zM104 546l57 95h77l-86 -95h-48z" />
    <glyph glyph-name="grave" unicode="`" horiz-adv-x="158" 
d="M86 546l-86 95h77l57 -95h-48z" />
    <glyph glyph-name="gravecomb" unicode="&#x300;" 
d="M86 546l-86 95h77l57 -95h-48z" />
    <glyph glyph-name="gravecomb.case" 
d="M103 634l-103 84h76l78 -84h-51z" />
    <glyph glyph-name="greater" unicode="&#x3e;" horiz-adv-x="335" 
d="M48 141v73l174 114l-174 115v72l239 -163v-48z" />
    <glyph glyph-name="greaterequal" unicode="&#x2265;" horiz-adv-x="335" 
d="M47 -3v54h233v-54h-233zM48 141v73l174 114l-174 115v72l239 -163v-48z" />
    <glyph glyph-name="guillemotleft" unicode="&#xab;" horiz-adv-x="487" 
d="M367 107l-126 181l133 191h71l-131 -191l125 -181h-72zM168 107l-126 181l132 191h72l-131 -191l124 -181h-71z" />
    <glyph glyph-name="guillemotright" unicode="&#xbb;" horiz-adv-x="487" 
d="M248 107l125 181l-132 191h72l132 -191l-125 -181h-72zM48 107l125 181l-131 191h72l132 -191l-126 -181h-72z" />
    <glyph glyph-name="guilsinglleft" unicode="&#x2039;" horiz-adv-x="287" 
d="M168 107l-126 181l132 191h71l-130 -191l124 -181h-71z" />
    <glyph glyph-name="guilsinglright" unicode="&#x203a;" horiz-adv-x="287" 
d="M48 107l125 181l-131 191h72l131 -191l-126 -181h-71z" />
    <glyph glyph-name="h" unicode="h" horiz-adv-x="373" 
d="M49 0v630h71v-181q10 26 35.5 40t61.5 14q51 0 75.5 -18t32 -47.5t7.5 -65.5v-372h-76v358q0 14 -1 28.5t-7 27t-19.5 20.5t-38.5 8q-23 0 -37 -7t-20.5 -17t-7.5 -18v-400h-76z" />
    <glyph glyph-name="h.sc" horiz-adv-x="412" 
d="M56 0v495h76v-209h149v209h75v-495h-75v229h-149v-229h-76z" />
    <glyph glyph-name="uni0445" unicode="&#x445;" horiz-adv-x="324" 
d="M6 0l108 260l-91 235h73l68 -175l74 175h71l-98 -235l104 -260h-73l-79 194l-82 -194h-75z" />
    <glyph glyph-name="uni044A" unicode="&#x44a;" horiz-adv-x="408" 
d="M78 0v448h-62v47h138v-156h96q40 0 66 -12t39.5 -39t13.5 -72v-67q0 -44 -8 -73t-23.5 -45.5t-39.5 -23.5t-57 -7h-163zM154 42h71q30 0 44 11t19 31t5 45v74q0 24 -4 44t-18.5 32t-45.5 12h-71v-249z" />
    <glyph glyph-name="uni044A.loclBGR" horiz-adv-x="408" 
d="M78 0v448h-62v47h138v-156h96q40 0 66 -12t39.5 -39t13.5 -72v-67q0 -44 -8 -73t-23.5 -45.5t-39.5 -23.5t-57 -7h-163zM154 42h71q30 0 44 11t19 31t5 45v74q0 24 -4 44t-18.5 32t-45.5 12h-71v-249z" />
    <glyph glyph-name="hbar" unicode="&#x127;" horiz-adv-x="365" 
d="M3 543v41h187v-41h-187zM49 0v630h71v-181q10 26 35.5 40t61.5 14q51 0 75.5 -18t32 -47.5t7.5 -65.5v-372h-76v358q0 14 -1 28.5t-7 27t-19.5 20.5t-38.5 8q-23 0 -37 -7t-20.5 -17t-7.5 -18v-400h-76z" />
    <glyph glyph-name="hookabovecomb" unicode="&#x309;" 
d="M55 548v15q0 14 11.5 21.5t22.5 14t11 19.5v5q0 9 -6 17t-20 8q-19 0 -23 -23l-37 7q3 23 19 35t45 12q34 0 50.5 -11.5t16.5 -44.5v-2q0 -22 -12 -31t-24 -14t-12 -17v-11h-42z" />
    <glyph glyph-name="hookabovecomb.case" 
d="M55 627v15q0 14 11.5 21.5t22.5 14t11 19.5v5q0 9 -6 17t-20 8q-19 0 -23 -23l-37 7q3 23 19 35t45 12q34 0 50.5 -11.5t16.5 -44.5v-2q0 -22 -12 -31t-24 -14t-12 -17v-11h-42z" />
    <glyph glyph-name="uni031B" unicode="&#x31b;" 
d="M12 454l-2 36h14q47 0 47 45v17h52v-14q0 -43 -28 -64t-83 -20z" />
    <glyph glyph-name="uni031B.case" 
d="M12 555l-2 36h14q47 0 47 45v17h52v-14q0 -43 -28 -64t-83 -20z" />
    <glyph glyph-name="hungarumlaut" unicode="&#x2dd;" horiz-adv-x="174" 
d="M0 546l25 95h64l-57 -95h-32zM77 546l33 95h64l-60 -95h-37z" />
    <glyph glyph-name="uni030B" unicode="&#x30b;" 
d="M0 546l25 95h64l-57 -95h-32zM77 546l33 95h64l-60 -95h-37z" />
    <glyph glyph-name="uni030B.case" 
d="M0 629l25 95h64l-57 -95h-32zM77 629l33 95h64l-60 -95h-37z" />
    <glyph glyph-name="hyphen" unicode="-" horiz-adv-x="288" 
d="M42 241v54h204v-54h-204z" />
    <glyph glyph-name="i" unicode="i" horiz-adv-x="173" 
d="M49 0v495h75v-495h-75zM86 554q-17 0 -30 12.5t-13 29.5q0 18 13 30t31 12t30.5 -12t12.5 -30q1 -17 -12.5 -29.5t-31.5 -12.5z" />
    <glyph glyph-name="uni0456" unicode="&#x456;" horiz-adv-x="173" 
d="M49 0v495h75v-495h-75zM86 554q-17 0 -30 12.5t-13 29.5q0 18 13 30t31 12t30.5 -12t12.5 -30q1 -17 -12.5 -29.5t-31.5 -12.5z" />
    <glyph glyph-name="i.sc" horiz-adv-x="187" 
d="M56 0v495h76v-495h-76z" />
    <glyph glyph-name="uni044F" unicode="&#x44f;" horiz-adv-x="392" 
d="M32 0l61 170q11 30 26.5 46t35.5 18q-48 4 -72.5 30.5t-24.5 82.5v35q0 59 31 86t84 27h179v-495h-81v226l-55 -11q-19 -12 -32.5 -38.5t-25.5 -61.5l-39 -115h-87zM209 260h62v190h-81q-24 0 -39.5 -19.5t-15.5 -52.5v-28q0 -50 19.5 -70t54.5 -20z" />
    <glyph glyph-name="iacute" unicode="&#xed;" horiz-adv-x="173" 
d="M49 0v495h75v-495h-75zM45 546l57 95h77l-86 -95h-48z" />
    <glyph glyph-name="uni01D0" unicode="&#x1d0;" horiz-adv-x="173" 
d="M49 0v495h75v-495h-75zM62 546l-91 96h50l65 -60l67 60h48l-91 -96h-48z" />
    <glyph glyph-name="icircumflex" unicode="&#xee;" horiz-adv-x="173" 
d="M49 0v495h75v-495h-75zM-28 546l91 96h47l91 -96h-48l-66 60l-65 -60h-50z" />
    <glyph glyph-name="idieresis" unicode="&#xef;" horiz-adv-x="173" 
d="M49 0v495h75v-495h-75zM35 554q-16 0 -26.5 10.5t-10.5 25.5t10.5 24.5t26.5 9.5q15 0 25.5 -9.5t10.5 -24.5t-10.5 -25.5t-25.5 -10.5zM138 554q-15 0 -26 10.5t-11 25.5t11 24.5t26 9.5q16 0 26 -9.5t10 -24.5t-10 -25.5t-26 -10.5z" />
    <glyph glyph-name="i.loclTRK" horiz-adv-x="173" 
d="M49 0v495h75v-495h-75zM86 554q-17 0 -30 12.5t-13 29.5q0 18 13 30t31 12t30.5 -12t12.5 -30q1 -17 -12.5 -29.5t-31.5 -12.5z" />
    <glyph glyph-name="uni1ECB" unicode="&#x1ecb;" horiz-adv-x="173" 
d="M49 0v495h75v-495h-75zM86 554q-17 0 -30 12.5t-13 29.5q0 18 13 30t31 12t30.5 -12t12.5 -30q1 -17 -12.5 -29.5t-31.5 -12.5zM92 -114q-16 0 -26.5 11t-10.5 25q0 15 10.5 25.5t26.5 10.5q15 0 26.5 -10.5t11.5 -25.5q0 -14 -11.5 -25t-26.5 -11z" />
    <glyph glyph-name="dotlessi" unicode="&#x131;" horiz-adv-x="173" 
d="M49 0v495h75v-495h-75z" />
    <glyph glyph-name="uni0435" unicode="&#x435;" horiz-adv-x="352" 
d="M183 -9q-51 0 -83 11.5t-47 43.5t-15 94v240q0 71 33.5 97t107.5 26q73 0 106.5 -26t33.5 -97v-129h-205v-139q0 -43 13.5 -60t53.5 -17q37 0 49.5 16.5t12.5 60.5v68h76v-39q0 -61 -15 -93.5t-45 -44.5t-76 -12zM114 288h129v100q0 38 -12.5 55.5t-51.5 17.5
q-38 0 -51.5 -17.5t-13.5 -55.5v-100z" />
    <glyph glyph-name="uni0450" unicode="&#x450;" horiz-adv-x="352" 
d="M183 -9q-51 0 -83 11.5t-47 43.5t-15 94v240q0 71 33.5 97t107.5 26q73 0 106.5 -26t33.5 -97v-129h-205v-139q0 -43 13.5 -60t53.5 -17q37 0 49.5 16.5t12.5 60.5v68h76v-39q0 -61 -15 -93.5t-45 -44.5t-76 -12zM114 288h129v100q0 38 -12.5 55.5t-51.5 17.5
q-38 0 -51.5 -17.5t-13.5 -55.5v-100zM173 546l-86 95h77l57 -95h-48z" />
    <glyph glyph-name="igrave" unicode="&#xec;" horiz-adv-x="173" 
d="M49 0v495h75v-495h-75zM83 546l-86 95h77l57 -95h-48z" />
    <glyph glyph-name="uni1EC9" unicode="&#x1ec9;" horiz-adv-x="173" 
d="M49 0v495h75v-495h-75zM64 548v15q0 14 11.5 21.5t22.5 14t11 19.5v5q0 9 -6 17t-20 8q-19 0 -23 -23l-37 7q3 23 19 35t45 12q34 0 50.5 -11.5t16.5 -44.5v-2q0 -22 -12 -31t-24 -14t-12 -17v-11h-42z" />
    <glyph glyph-name="uni0438" unicode="&#x438;" horiz-adv-x="367" 
d="M40 0v494h68v-356l151 356h68v-494h-67v373q-39 -94 -77.5 -186.5t-79.5 -186.5h-63z" />
    <glyph glyph-name="uni0438.loclBGR" horiz-adv-x="367" 
d="M40 0v494h68v-356l151 356h68v-494h-67v373q-39 -94 -77.5 -186.5t-79.5 -186.5h-63z" />
    <glyph glyph-name="uni045D" unicode="&#x45d;" horiz-adv-x="367" 
d="M40 0v494h68v-356l151 356h68v-494h-67v373q-39 -94 -77.5 -186.5t-79.5 -186.5h-63zM180 546l-86 95h77l57 -95h-48z" />
    <glyph glyph-name="uni045D.loclBGR" horiz-adv-x="367" 
d="M40 0v494h68v-356l151 356h68v-494h-67v373q-39 -94 -77.5 -186.5t-79.5 -186.5h-63zM180 546l-86 95h77l57 -95h-48z" />
    <glyph glyph-name="uni0439" unicode="&#x439;" horiz-adv-x="367" 
d="M40 0v494h68v-356l151 356h68v-494h-67v373q-39 -94 -77.5 -186.5t-79.5 -186.5h-63zM182 546q-40 0 -62 15.5t-30.5 37t-9.5 39.5h44q3 -27 19.5 -40t38.5 -13q25 0 41 12.5t19 40.5h44q-1 -22 -11.5 -43t-33 -35t-59.5 -14z" />
    <glyph glyph-name="uni0439.loclBGR" horiz-adv-x="367" 
d="M40 0v494h68v-356l151 356h68v-494h-67v373q-39 -94 -77.5 -186.5t-79.5 -186.5h-63zM182 546q-40 0 -62 15.5t-30.5 37t-9.5 39.5h44q3 -27 19.5 -40t38.5 -13q25 0 41 12.5t19 40.5h44q-1 -22 -11.5 -43t-33 -35t-59.5 -14z" />
    <glyph glyph-name="imacron" unicode="&#x12b;" horiz-adv-x="173" 
d="M49 0v495h75v-495h-75zM-9 564v41h191v-41h-191z" />
    <glyph glyph-name="infinity" unicode="&#x221e;" horiz-adv-x="707" 
d="M165 99q-61 0 -92.5 35.5t-31.5 108.5q0 67 29.5 106t94.5 39q37 0 65.5 -13t58 -38.5t64.5 -61.5q36 37 65.5 62t58.5 38t65 13q65 0 94.5 -39t29.5 -106t-29.5 -105.5t-94.5 -38.5q-36 0 -65.5 13.5t-58 39t-64.5 61.5q-35 -37 -65 -62.5t-59 -38.5t-65 -13zM167 148
q40 0 72 25t78 71q-24 23 -48 44t-48.5 35t-53.5 14q-41 0 -60 -26.5t-19 -68.5q0 -40 19 -67t60 -27zM540 150q39 0 59 25t20 70q0 40 -19.5 67t-59.5 27q-19 0 -34 -5t-30.5 -15.5t-35.5 -29t-50 -46.5q35 -33 59 -53.5t45.5 -30t45.5 -9.5z" />
    <glyph glyph-name="integral" unicode="&#x222b;" horiz-adv-x="391" 
d="M-23 -294q-18 1 -36 3t-36 5l9 50l66 -6q28 1 41.5 21t16.5 41l124 710q7 40 25 62t46 30.5t63 8.5q20 -1 38.5 -3t34.5 -5l-9 -50l-66 6q-29 -1 -41.5 -21t-16.5 -41l-125 -711q-7 -39 -25 -61t-45.5 -30.5t-63.5 -8.5z" />
    <glyph glyph-name="uni0451" unicode="&#x451;" horiz-adv-x="352" 
d="M183 -9q-51 0 -83 11.5t-47 43.5t-15 94v240q0 71 33.5 97t107.5 26q73 0 106.5 -26t33.5 -97v-129h-205v-139q0 -43 13.5 -60t53.5 -17q37 0 49.5 16.5t12.5 60.5v68h76v-39q0 -61 -15 -93.5t-45 -44.5t-76 -12zM114 288h129v100q0 38 -12.5 55.5t-51.5 17.5
q-38 0 -51.5 -17.5t-13.5 -55.5v-100zM125 554q-16 0 -26.5 10.5t-10.5 25.5t10.5 24.5t26.5 9.5q15 0 25.5 -9.5t10.5 -24.5t-10.5 -25.5t-25.5 -10.5zM228 554q-15 0 -26 10.5t-11 25.5t11 24.5t26 9.5q16 0 26 -9.5t10 -24.5t-10 -25.5t-26 -10.5z" />
    <glyph glyph-name="iogonek" unicode="&#x12f;" horiz-adv-x="173" 
d="M49 0v495h75v-495h-75zM86 554q-17 0 -30 12.5t-13 29.5q0 18 13 30t31 12t30.5 -12t12.5 -30q1 -17 -12.5 -29.5t-31.5 -12.5zM92 -138q-30 0 -51 17.5t-21 42.5q0 28 21 50t48 29l36 -1q-27 -11 -40.5 -30t-13.5 -38t13 -29t26 -10q8 0 14.5 2t9.5 4l11 -24
q-6 -3 -18.5 -8t-34.5 -5z" />
    <glyph glyph-name="itilde" unicode="&#x129;" horiz-adv-x="173" 
d="M49 0v495h75v-495h-75zM131 553q-14 0 -24.5 5t-24.5 13q-9 6 -20 12t-23 6t-20 -9t-10 -26h-27q1 32 16.5 52.5t41.5 20.5q15 0 27 -5.5t24 -13.5q11 -6 20.5 -11t19.5 -5q13 0 21 8.5t11 24.5h29q-1 -23 -10 -39t-22.5 -24.5t-28.5 -8.5z" />
    <glyph glyph-name="uni044E" unicode="&#x44e;" horiz-adv-x="582" 
d="M401 -9q-55 0 -86 16.5t-43 50t-12 83.5v231q0 39 11.5 68.5t42.5 46t87 16.5q57 0 87.5 -16.5t42.5 -46t12 -68.5v-230q0 -51 -12.5 -84.5t-43 -50t-86.5 -16.5zM40 0v495h76v-207h167v-58h-167v-230h-76zM401 33q30 0 44 12t18 31t4 41v261q0 22 -4 40.5t-18 30.5
t-44 12t-44 -12t-17.5 -30.5t-3.5 -40.5v-261q0 -22 3.5 -41t17.5 -31t44 -12z" />
    <glyph glyph-name="uni044E.loclBGR" horiz-adv-x="582" 
d="M401 -9q-55 0 -86 16.5t-43 50t-12 83.5v231q0 39 11.5 68.5t42.5 46t87 16.5q57 0 87.5 -16.5t42.5 -46t12 -68.5v-230q0 -51 -12.5 -84.5t-43 -50t-86.5 -16.5zM40 0v495h76v-207h167v-58h-167v-230h-76zM401 33q30 0 44 12t18 31t4 41v261q0 22 -4 40.5t-18 30.5
t-44 12t-44 -12t-17.5 -30.5t-3.5 -40.5v-261q0 -22 3.5 -41t17.5 -31t44 -12z" />
    <glyph glyph-name="j" unicode="j" horiz-adv-x="171" 
d="M-25 -111q-5 0 -16 1t-14 2v41q5 0 15 -0.5t17 0.5q34 1 53 14.5t19 47.5v500h75v-482q0 -55 -21 -82t-54.5 -35.5t-73.5 -6.5zM85 554q-17 0 -30 12.5t-13 29.5q0 18 13 30t31 12t30.5 -12t12.5 -30q1 -17 -12.5 -29.5t-31.5 -12.5z" />
    <glyph glyph-name="j.sc" horiz-adv-x="220" 
d="M48 -1h-20t-21 1v52h31q28 0 41.5 9t13.5 38v396h76v-379q0 -41 -8.5 -66.5t-34 -38t-78.5 -12.5z" />
    <glyph glyph-name="uni0237" unicode="&#x237;" horiz-adv-x="171" 
d="M-25 -111q-5 0 -16 1t-14 2v41q5 0 15 -0.5t17 0.5q34 1 53 14.5t19 47.5v500h75v-482q0 -55 -21 -82t-54.5 -35.5t-73.5 -6.5z" />
    <glyph glyph-name="uni0458" unicode="&#x458;" horiz-adv-x="171" 
d="M-25 -111q-5 0 -16 1t-14 2v41q5 0 15 -0.5t17 0.5q34 1 53 14.5t19 47.5v500h75v-482q0 -55 -21 -82t-54.5 -35.5t-73.5 -6.5zM85 554q-17 0 -30 12.5t-13 29.5q0 18 13 30t31 12t30.5 -12t12.5 -30q1 -17 -12.5 -29.5t-31.5 -12.5z" />
    <glyph glyph-name="k" unicode="k" horiz-adv-x="348" 
d="M253 0l-115 287l120 208h76l-122 -208l123 -287h-82zM49 0v634h75v-634h-75z" />
    <glyph glyph-name="k.sc" horiz-adv-x="377" 
d="M282 0l-139 257l135 238h83l-143 -239l147 -256h-83zM56 0v495h76v-495h-76z" />
    <glyph glyph-name="uni043A" unicode="&#x43a;" horiz-adv-x="364" 
d="M40 0v495h76v-205q28 58 66 102t79.5 68t76.5 23v-52q-26 -6 -47 -21t-38 -34q-12 -13 -22.5 -27.5t-19.5 -30.5l124 -318h-87l-102 235q-9 -14 -17.5 -31l-12.5 -25v-179h-76z" />
    <glyph glyph-name="uni043A.loclBGR" horiz-adv-x="364" 
d="M40 0v495h76v-205q28 58 66 102t79.5 68t76.5 23v-52q-26 -6 -47 -21t-38 -34q-12 -13 -22.5 -27.5t-19.5 -30.5l124 -318h-87l-102 235q-9 -14 -17.5 -31l-12.5 -25v-179h-76z" />
    <glyph glyph-name="uni0137" unicode="&#x137;" horiz-adv-x="348" 
d="M253 0l-115 287l120 208h76l-122 -208l123 -287h-82zM49 0v634h75v-634h-75zM139 -170q12 19 20 36t8 29q0 6 -5.5 10.5t-11 10.5t-5.5 17t10.5 20t25.5 9q17 0 27.5 -10.5t10.5 -24.5q0 -12 -7.5 -29.5t-18 -35.5t-22.5 -32h-32z" />
    <glyph glyph-name="uni045C" unicode="&#x45c;" horiz-adv-x="364" 
d="M40 0v495h76v-205q28 58 66 102t79.5 68t76.5 23v-52q-26 -6 -47 -21t-38 -34q-12 -13 -22.5 -27.5t-19.5 -30.5l124 -318h-87l-102 235q-9 -14 -17.5 -31l-12.5 -25v-179h-76zM141 546l57 95h77l-86 -95h-48z" />
    <glyph glyph-name="l" unicode="l" horiz-adv-x="173" 
d="M49 0v634h75v-634h-75z" />
    <glyph glyph-name="l.sc" horiz-adv-x="291" 
d="M56 0v495h75v-442h153v-53h-228z" />
    <glyph glyph-name="lacute" unicode="&#x13a;" horiz-adv-x="173" 
d="M49 0v634h75v-634h-75zM35 673l80 86h75l-108 -86h-47z" />
    <glyph glyph-name="lcaron" unicode="&#x13e;" horiz-adv-x="216" 
d="M49 0v634h75v-634h-75zM158 514l20 133h49l-40 -133h-29z" />
    <glyph glyph-name="uni013C" unicode="&#x13c;" horiz-adv-x="173" 
d="M49 0v634h75v-634h-75zM43 -170q12 19 20 36t8 29q0 6 -5.5 10.5t-11 10.5t-5.5 17t10.5 20t25.5 9q17 0 27.5 -10.5t10.5 -24.5q0 -12 -7.5 -29.5t-18 -35.5t-22.5 -32h-32z" />
    <glyph glyph-name="arrowleft" unicode="&#x2190;" horiz-adv-x="803" 
d="M288 54l-246 217l246 219l38 -37l-156 -150l589 -2v-60l-588 1l154 -151z" />
    <glyph glyph-name="arrowboth" unicode="&#x2194;" horiz-adv-x="985" 
d="M290 58l-249 218l249 218l37 -37l-155 -150h639l-155 150l38 37l248 -218l-248 -218l-38 37l154 150h-636l153 -150z" />
    <glyph glyph-name="less" unicode="&#x3c;" horiz-adv-x="335" 
d="M287 141l-239 162v49l239 163v-73l-174 -116l174 -113v-72z" />
    <glyph glyph-name="lessequal" unicode="&#x2264;" horiz-adv-x="324" 
d="M282 141l-239 163v48l239 163v-72l-174 -115l174 -114v-73zM283 -3h-233v54h233v-54z" />
    <glyph glyph-name="uni0459" unicode="&#x459;" horiz-adv-x="617" 
d="M16 0v42q19 0 33.5 19.5t17.5 55.5l31 377h266v-155h95q43 0 68.5 -13t37.5 -40t12 -70v-53q0 -44 -6.5 -75t-21 -50.5t-38.5 -28.5t-61 -9h-164v439h-111l-32 -343q-1 -13 -3.5 -29.5t-10.5 -31.5t-24 -25t-44 -10h-45zM364 42h70q30 0 44 11t18.5 31t4.5 45v74
q0 24 -3.5 44t-18 32t-46.5 12h-69v-249z" />
    <glyph glyph-name="logicalnot" unicode="&#xac;" horiz-adv-x="557" 
d="M464 164v185h-420v56h472v-241h-52z" />
    <glyph glyph-name="longs" unicode="&#x17f;" horiz-adv-x="348" 
d="M86 -145q-20 0 -41 1t-37 4v42l28 -2q10 0 20.5 1t20.5 3q20 2 28.5 19t8.5 34v435h-35v48h35v93q0 39 14.5 61t40.5 31t60 9q26 0 50 -4t46 -9l-8 -45q-21 5 -40.5 8t-43.5 3q-25 0 -33.5 -22t-8.5 -43v-540q0 -43 -13 -70.5t-36 -41t-56 -15.5z" />
    <glyph glyph-name="longs_t" horiz-adv-x="542" 
d="M86 -145q-20 0 -41 1t-37 4v42l28 -2q10 0 20.5 1t20.5 3q20 2 28.5 19t8.5 34v435h-35v48h35v93q0 39 14.5 61t40.5 31t60 9q13 0 33.5 -2t42.5 -5.5t41.5 -6.5t30.5 -6l-6 -36q-15 2 -39 5t-50 4.5t-49 -0.5q-25 -2 -33.5 -23t-8.5 -42v-540q0 -43 -13 -70.5t-36 -41
t-56 -15.5zM457 -2q-22 0 -41 5t-33.5 16.5t-22.5 31t-8 49.5v348h-45v34l51 13l13 119h56v-119h104v-47h-104v-335q0 -26 10.5 -44t41.5 -18q14 0 30 1t22 2v-48l-27 -4.5t-47 -3.5z" />
    <glyph glyph-name="lozenge" unicode="&#x25ca;" horiz-adv-x="476" 
d="M210 -35l-168 327l168 326h56l168 -326l-168 -327h-56zM239 39l124 255l-124 249l-126 -251z" />
    <glyph glyph-name="lslash" unicode="&#x142;" horiz-adv-x="282" 
d="M103 0v173l-67 -30v38l67 30v423h74v-389l70 31v-38l-70 -31v-207h-74z" />
    <glyph glyph-name="m" unicode="m" horiz-adv-x="571" 
d="M49 0v495h64l7 -57q11 29 36.5 46.5t62.5 17.5q57 0 80.5 -24t25.5 -70h-11q8 41 36.5 67.5t72.5 26.5q62 0 85 -29.5t23 -89.5v-383h-76v372q0 43 -13 59t-45 16q-28 0 -47.5 -16.5t-22.5 -41.5v-389h-76v378q0 37 -12.5 53t-45.5 16q-29 0 -45 -14t-23 -33v-400h-76z
" />
    <glyph glyph-name="m.sc" horiz-adv-x="520" 
d="M56 0v495h91l113 -359l115 359h90v-495h-68v385l-110 -385h-53l-110 385v-385h-68z" />
    <glyph glyph-name="macron" unicode="&#xaf;" horiz-adv-x="211" 
d="M10 564v41h191v-41h-191z" />
    <glyph glyph-name="uni0304" unicode="&#x304;" 
d="M10 564v41h191v-41h-191z" />
    <glyph glyph-name="uni0304.case" 
d="M4 649v41h191v-41h-191z" />
    <glyph glyph-name="uni00B5" unicode="&#xb5;" horiz-adv-x="365" 
d="M42 -129v624h76v-400q7 -23 24 -35.5t44 -12.5q19 0 32.5 5t21.5 21.5t8 49.5v372h76v-371q0 -45 -9 -74t-33 -43t-70 -14q-31 0 -59 15.5t-40 46.5l-7 -184h-64z" />
    <glyph glyph-name="minus" unicode="&#x2212;" horiz-adv-x="479" 
d="M58 227v56h328v-56h-328z" />
    <glyph glyph-name="multiply" unicode="&#xd7;" horiz-adv-x="369" 
d="M288 119l-104 103l-98 -98l-40 40l98 98l-102 103l40 40l102 -103l99 100l40 -41l-98 -99l102 -104z" />
    <glyph glyph-name="n" unicode="n" horiz-adv-x="373" 
d="M49 0v495h63l8 -55q11 32 38 47.5t59 15.5q51 0 75.5 -18t32 -47.5t7.5 -65.5v-372h-76v364q0 16 -1 31t-7 27t-19 19t-38 7q-22 0 -36 -8t-20.5 -19t-9.5 -20v-401h-76z" />
    <glyph glyph-name="n.sc" horiz-adv-x="410" 
d="M56 0v495h66l165 -342v342h67v-495h-67l-163 326v-326h-68z" />
    <glyph glyph-name="nacute" unicode="&#x144;" horiz-adv-x="373" 
d="M49 0v495h63l8 -55q11 32 38 47.5t59 15.5q51 0 75.5 -18t32 -47.5t7.5 -65.5v-372h-76v364q0 16 -1 31t-7 27t-19 19t-38 7q-22 0 -36 -8t-20.5 -19t-9.5 -20v-401h-76zM146 546l57 95h77l-86 -95h-48z" />
    <glyph glyph-name="ncaron" unicode="&#x148;" horiz-adv-x="373" 
d="M49 0v495h63l8 -55q11 32 38 47.5t59 15.5q51 0 75.5 -18t32 -47.5t7.5 -65.5v-372h-76v364q0 16 -1 31t-7 27t-19 19t-38 7q-22 0 -36 -8t-20.5 -19t-9.5 -20v-401h-76zM163 546l-91 96h50l65 -60l67 60h48l-91 -96h-48z" />
    <glyph glyph-name="uni0146" unicode="&#x146;" horiz-adv-x="373" 
d="M49 0v495h63l8 -55q11 32 38 47.5t59 15.5q51 0 75.5 -18t32 -47.5t7.5 -65.5v-372h-76v364q0 16 -1 31t-7 27t-19 19t-38 7q-22 0 -36 -8t-20.5 -19t-9.5 -20v-401h-76zM145 -170q12 19 20 36t8 29q0 6 -5.5 10.5t-11 10.5t-5.5 17t10.5 20t25.5 9q17 0 27.5 -10.5
t10.5 -24.5q0 -12 -7.5 -29.5t-18 -35.5t-22.5 -32h-32z" />
    <glyph glyph-name="nine" unicode="9" horiz-adv-x="395" 
d="M195 -10q-73 0 -112.5 34t-39.5 107v45h77v-55q0 -42 19.5 -61.5t54.5 -19.5q38 0 59.5 23.5t21.5 60.5v148q-17 -26 -46 -39t-63 -13q-36 0 -65.5 15t-46.5 46t-17 78v88q0 44 17.5 77t53 52t89.5 19t88.5 -19t51 -54t16.5 -83v-305q0 -70 -43.5 -107t-114.5 -37z
M196 270q33 0 55.5 20t23.5 53v114q0 45 -21.5 67t-58.5 23q-35 0 -58 -22t-23 -68v-106q0 -41 24.5 -60.5t57.5 -20.5z" />
    <glyph glyph-name="nine.tf" horiz-adv-x="420" 
d="M200 -10q-73 0 -112.5 34t-39.5 107v45h77v-55q0 -42 19.5 -61.5t54.5 -19.5q38 0 59.5 23.5t21.5 60.5v148q-17 -26 -46 -39t-63 -13q-36 0 -65.5 15t-46.5 46t-17 78v88q0 44 17.5 77t53 52t89.5 19t88.5 -19t51 -54t16.5 -83v-305q0 -70 -43.5 -107t-114.5 -37z
M201 270q33 0 55.5 20t23.5 53v114q0 45 -21.5 67t-58.5 23q-35 0 -58 -22t-23 -68v-106q0 -41 24.5 -60.5t57.5 -20.5z" />
    <glyph glyph-name="uni045A" unicode="&#x45a;" horiz-adv-x="584" 
d="M40 0v495h76v-207h139v207h75v-156h96q42 0 68 -13t38 -40t12 -70v-53q0 -44 -6.5 -75t-21.5 -50.5t-39 -28.5t-60 -9h-162v230h-139v-230h-76zM330 42h71q30 0 44 11t18.5 31t4.5 45v74q0 24 -3.5 44t-18 32t-46.5 12h-70v-249z" />
    <glyph glyph-name="uni2197" unicode="&#x2197;" horiz-adv-x="586" 
d="M68 72l-44 44l417 414l-215 -1v52l328 20l-20 -329h-53l4 216z" />
    <glyph glyph-name="uni2196" unicode="&#x2196;" horiz-adv-x="603" 
d="M532 61l-415 416l3 -214h-54l-20 328l330 -20v-53l-216 4l415 -418z" />
    <glyph glyph-name="notequal" unicode="&#x2260;" horiz-adv-x="409" 
d="M45 -10l86 162h-72v54h102l81 155h-183v54h212l55 106h40l-56 -106h56v-54h-85l-82 -155h167v-54h-196l-86 -162h-39z" />
    <glyph glyph-name="ntilde" unicode="&#xf1;" horiz-adv-x="373" 
d="M49 0v495h63l8 -55q11 32 38 47.5t59 15.5q51 0 75.5 -18t32 -47.5t7.5 -65.5v-372h-76v364q0 16 -1 31t-7 27t-19 19t-38 7q-22 0 -36 -8t-20.5 -19t-9.5 -20v-401h-76zM231 553q-14 0 -24.5 5t-24.5 13q-9 6 -20 12t-23 6t-20 -9t-10 -26h-27q1 32 16.5 52.5t41.5 20.5
q15 0 27 -5.5t24 -13.5q11 -6 20.5 -11t19.5 -5q13 0 21 8.5t11 24.5h29q-1 -23 -10 -39t-22.5 -24.5t-28.5 -8.5z" />
    <glyph glyph-name="numbersign" unicode="#" horiz-adv-x="700" 
d="M128 0l59 184h-147l14 48h147l48 150l-148 1l15 47h148l45 143h48l-45 -143h156l45 143h49l-46 -143h144l-15 -48h-144l-47 -150h145l-15 -48h-145l-58 -184h-49l58 184h-155l-58 -184h-49zM250 232h155l47 150h-155z" />
    <glyph glyph-name="o" unicode="o" horiz-adv-x="358" 
d="M180 -7q-56 0 -87 16t-43 49.5t-12 84.5v225q0 41 11.5 71.5t42.5 47t88 16.5q56 0 86.5 -16.5t42.5 -47t12 -71.5v-225q0 -51 -12.5 -84.5t-43.5 -49.5t-85 -16zM180 39q30 0 43.5 12t17.5 31.5t4 40.5v250q0 22 -4 41t-17.5 31t-43.5 12t-44.5 -12t-18 -31t-3.5 -41
v-250q0 -21 3.5 -40.5t18 -31.5t44.5 -12z" />
    <glyph glyph-name="uni043E" unicode="&#x43e;" horiz-adv-x="358" 
d="M180 -7q-56 0 -87 16t-43 49.5t-12 84.5v225q0 41 11.5 71.5t42.5 47t88 16.5q56 0 86.5 -16.5t42.5 -47t12 -71.5v-225q0 -51 -12.5 -84.5t-43.5 -49.5t-85 -16zM180 39q30 0 43.5 12t17.5 31.5t4 40.5v250q0 22 -4 41t-17.5 31t-43.5 12t-44.5 -12t-18 -31t-3.5 -41
v-250q0 -21 3.5 -40.5t18 -31.5t44.5 -12z" />
    <glyph glyph-name="o.sc" horiz-adv-x="396" 
d="M196 -10q-49 0 -82 11t-50 40t-17 81v269q0 65 40.5 88t109.5 23q71 0 111.5 -23.5t40.5 -87.5v-268q0 -53 -17 -82t-51 -40t-85 -11zM197 36q38 0 57 13t19 48v297q0 35 -19.5 48t-56.5 13t-56.5 -13t-19.5 -48v-297q0 -35 19 -48t57 -13z" />
    <glyph glyph-name="oacute" unicode="&#xf3;" horiz-adv-x="358" 
d="M180 -7q-56 0 -87 16t-43 49.5t-12 84.5v225q0 41 11.5 71.5t42.5 47t88 16.5q56 0 86.5 -16.5t42.5 -47t12 -71.5v-225q0 -51 -12.5 -84.5t-43.5 -49.5t-85 -16zM180 39q30 0 43.5 12t17.5 31.5t4 40.5v250q0 22 -4 41t-17.5 31t-43.5 12t-44.5 -12t-18 -31t-3.5 -41
v-250q0 -21 3.5 -40.5t18 -31.5t44.5 -12zM138 546l57 95h77l-86 -95h-48z" />
    <glyph glyph-name="uni01D2" unicode="&#x1d2;" horiz-adv-x="358" 
d="M180 -7q-56 0 -87 16t-43 49.5t-12 84.5v225q0 41 11.5 71.5t42.5 47t88 16.5q56 0 86.5 -16.5t42.5 -47t12 -71.5v-225q0 -51 -12.5 -84.5t-43.5 -49.5t-85 -16zM180 39q30 0 43.5 12t17.5 31.5t4 40.5v250q0 22 -4 41t-17.5 31t-43.5 12t-44.5 -12t-18 -31t-3.5 -41
v-250q0 -21 3.5 -40.5t18 -31.5t44.5 -12zM155 546l-91 96h50l65 -60l67 60h48l-91 -96h-48z" />
    <glyph glyph-name="ocircumflex" unicode="&#xf4;" horiz-adv-x="358" 
d="M180 -7q-56 0 -87 16t-43 49.5t-12 84.5v225q0 41 11.5 71.5t42.5 47t88 16.5q56 0 86.5 -16.5t42.5 -47t12 -71.5v-225q0 -51 -12.5 -84.5t-43.5 -49.5t-85 -16zM180 39q30 0 43.5 12t17.5 31.5t4 40.5v250q0 22 -4 41t-17.5 31t-43.5 12t-44.5 -12t-18 -31t-3.5 -41
v-250q0 -21 3.5 -40.5t18 -31.5t44.5 -12zM64 546l91 96h47l91 -96h-48l-66 60l-65 -60h-50z" />
    <glyph glyph-name="uni1ED1" unicode="&#x1ed1;" horiz-adv-x="358" 
d="M180 -7q-56 0 -87 16t-43 49.5t-12 84.5v225q0 41 11.5 71.5t42.5 47t88 16.5q56 0 86.5 -16.5t42.5 -47t12 -71.5v-225q0 -51 -12.5 -84.5t-43.5 -49.5t-85 -16zM180 39q30 0 43.5 12t17.5 31.5t4 40.5v250q0 22 -4 41t-17.5 31t-43.5 12t-44.5 -12t-18 -31t-3.5 -41
v-250q0 -21 3.5 -40.5t18 -31.5t44.5 -12zM64 546l91 96h47l91 -96h-48l-66 60l-65 -60h-50zM290 599l57 95h77l-86 -95h-48z" />
    <glyph glyph-name="uni1ED9" unicode="&#x1ed9;" horiz-adv-x="358" 
d="M180 -7q-56 0 -87 16t-43 49.5t-12 84.5v225q0 41 11.5 71.5t42.5 47t88 16.5q56 0 86.5 -16.5t42.5 -47t12 -71.5v-225q0 -51 -12.5 -84.5t-43.5 -49.5t-85 -16zM180 39q30 0 43.5 12t17.5 31.5t4 40.5v250q0 22 -4 41t-17.5 31t-43.5 12t-44.5 -12t-18 -31t-3.5 -41
v-250q0 -21 3.5 -40.5t18 -31.5t44.5 -12zM178 -114q-16 0 -26.5 11t-10.5 25q0 15 10.5 25.5t26.5 10.5q15 0 26.5 -10.5t11.5 -25.5q0 -14 -11.5 -25t-26.5 -11zM64 546l91 96h47l91 -96h-48l-66 60l-65 -60h-50z" />
    <glyph glyph-name="uni1ED3" unicode="&#x1ed3;" horiz-adv-x="358" 
d="M180 -7q-56 0 -87 16t-43 49.5t-12 84.5v225q0 41 11.5 71.5t42.5 47t88 16.5q56 0 86.5 -16.5t42.5 -47t12 -71.5v-225q0 -51 -12.5 -84.5t-43.5 -49.5t-85 -16zM180 39q30 0 43.5 12t17.5 31.5t4 40.5v250q0 22 -4 41t-17.5 31t-43.5 12t-44.5 -12t-18 -31t-3.5 -41
v-250q0 -21 3.5 -40.5t18 -31.5t44.5 -12zM64 546l91 96h47l91 -96h-48l-66 60l-65 -60h-50zM327 599l-86 95h77l57 -95h-48z" />
    <glyph glyph-name="uni1ED5" unicode="&#x1ed5;" horiz-adv-x="358" 
d="M180 -7q-56 0 -87 16t-43 49.5t-12 84.5v225q0 41 11.5 71.5t42.5 47t88 16.5q56 0 86.5 -16.5t42.5 -47t12 -71.5v-225q0 -51 -12.5 -84.5t-43.5 -49.5t-85 -16zM180 39q30 0 43.5 12t17.5 31.5t4 40.5v250q0 22 -4 41t-17.5 31t-43.5 12t-44.5 -12t-18 -31t-3.5 -41
v-250q0 -21 3.5 -40.5t18 -31.5t44.5 -12zM64 546l91 96h47l91 -96h-48l-66 60l-65 -60h-50zM309 601v15q0 14 11.5 21.5t22.5 14t11 19.5v5q0 9 -6 17t-20 8q-19 0 -23 -23l-37 7q3 23 19 35t45 12q34 0 50.5 -11.5t16.5 -44.5v-2q0 -22 -12 -31t-24 -14t-12 -17v-11h-42z
" />
    <glyph glyph-name="uni1ED7" unicode="&#x1ed7;" horiz-adv-x="358" 
d="M180 -7q-56 0 -87 16t-43 49.5t-12 84.5v225q0 41 11.5 71.5t42.5 47t88 16.5q56 0 86.5 -16.5t42.5 -47t12 -71.5v-225q0 -51 -12.5 -84.5t-43.5 -49.5t-85 -16zM180 39q30 0 43.5 12t17.5 31.5t4 40.5v250q0 22 -4 41t-17.5 31t-43.5 12t-44.5 -12t-18 -31t-3.5 -41
v-250q0 -21 3.5 -40.5t18 -31.5t44.5 -12zM64 546l91 96h47l91 -96h-48l-66 60l-65 -60h-50zM222 664q-14 0 -24.5 5t-24.5 13q-9 6 -20 12t-23 6t-20 -9t-10 -26h-27q1 32 16.5 52.5t41.5 20.5q15 0 27 -5.5t24 -13.5q11 -6 20.5 -11t19.5 -5q13 0 21 8.5t11 24.5h29
q-1 -23 -10 -39t-22.5 -24.5t-28.5 -8.5z" />
    <glyph glyph-name="odieresis" unicode="&#xf6;" horiz-adv-x="358" 
d="M180 -7q-56 0 -87 16t-43 49.5t-12 84.5v225q0 41 11.5 71.5t42.5 47t88 16.5q56 0 86.5 -16.5t42.5 -47t12 -71.5v-225q0 -51 -12.5 -84.5t-43.5 -49.5t-85 -16zM180 39q30 0 43.5 12t17.5 31.5t4 40.5v250q0 22 -4 41t-17.5 31t-43.5 12t-44.5 -12t-18 -31t-3.5 -41
v-250q0 -21 3.5 -40.5t18 -31.5t44.5 -12zM128 554q-16 0 -26.5 10.5t-10.5 25.5t10.5 24.5t26.5 9.5q15 0 25.5 -9.5t10.5 -24.5t-10.5 -25.5t-25.5 -10.5zM231 554q-15 0 -26 10.5t-11 25.5t11 24.5t26 9.5q16 0 26 -9.5t10 -24.5t-10 -25.5t-26 -10.5z" />
    <glyph glyph-name="uni1ECD" unicode="&#x1ecd;" horiz-adv-x="358" 
d="M180 -7q-56 0 -87 16t-43 49.5t-12 84.5v225q0 41 11.5 71.5t42.5 47t88 16.5q56 0 86.5 -16.5t42.5 -47t12 -71.5v-225q0 -51 -12.5 -84.5t-43.5 -49.5t-85 -16zM180 39q30 0 43.5 12t17.5 31.5t4 40.5v250q0 22 -4 41t-17.5 31t-43.5 12t-44.5 -12t-18 -31t-3.5 -41
v-250q0 -21 3.5 -40.5t18 -31.5t44.5 -12zM178 -114q-16 0 -26.5 11t-10.5 25q0 15 10.5 25.5t26.5 10.5q15 0 26.5 -10.5t11.5 -25.5q0 -14 -11.5 -25t-26.5 -11z" />
    <glyph glyph-name="oe" unicode="&#x153;" horiz-adv-x="559" 
d="M176 -7q-53 0 -83.5 16t-42.5 49.5t-12 84.5v225q0 41 11.5 71.5t42 47t84.5 16.5q49 0 77.5 -18.5t40.5 -49t12 -67.5v-225q0 -43 -10.5 -77t-38.5 -53.5t-81 -19.5zM180 39q30 0 43.5 12t17.5 31.5t4 40.5v250q0 22 -4 41t-17.5 31t-43.5 12t-44.5 -12t-18 -31
t-3.5 -41v-250q0 -21 3.5 -40.5t18 -31.5t44.5 -12zM390 -9q-72 0 -102.5 33.5t-30.5 115.5v231q0 72 33.5 102.5t99.5 30.5q71 0 103.5 -26.5t32.5 -97.5v-129h-205v-136q0 -43 13.5 -60.5t50.5 -17.5q39 0 52 17.5t13 60.5v65h76v-39q0 -57 -14 -90t-44 -46.5t-78 -13.5z
M321 288h129v96q0 39 -12.5 56.5t-51.5 17.5q-38 0 -51.5 -17.5t-13.5 -56.5v-96z" />
    <glyph glyph-name="ogonek" unicode="&#x2db;" horiz-adv-x="217" 
d="M79 -137q-30 0 -51 17.5t-21 42.5q0 28 21 50t48 29l36 -1q-27 -11 -40.5 -30t-13.5 -38t13 -29t26 -10q8 0 14.5 2t9.5 4l11 -24q-6 -3 -18.5 -8t-34.5 -5z" />
    <glyph glyph-name="uni0328" unicode="&#x328;" 
d="M79 -137q-30 0 -51 17.5t-21 42.5q0 28 21 50t48 29l36 -1q-27 -11 -40.5 -30t-13.5 -38t13 -29t26 -10q8 0 14.5 2t9.5 4l11 -24q-6 -3 -18.5 -8t-34.5 -5z" />
    <glyph glyph-name="ograve" unicode="&#xf2;" horiz-adv-x="358" 
d="M180 -7q-56 0 -87 16t-43 49.5t-12 84.5v225q0 41 11.5 71.5t42.5 47t88 16.5q56 0 86.5 -16.5t42.5 -47t12 -71.5v-225q0 -51 -12.5 -84.5t-43.5 -49.5t-85 -16zM180 39q30 0 43.5 12t17.5 31.5t4 40.5v250q0 22 -4 41t-17.5 31t-43.5 12t-44.5 -12t-18 -31t-3.5 -41
v-250q0 -21 3.5 -40.5t18 -31.5t44.5 -12zM175 546l-86 95h77l57 -95h-48z" />
    <glyph glyph-name="uni1ECF" unicode="&#x1ecf;" horiz-adv-x="358" 
d="M180 -7q-56 0 -87 16t-43 49.5t-12 84.5v225q0 41 11.5 71.5t42.5 47t88 16.5q56 0 86.5 -16.5t42.5 -47t12 -71.5v-225q0 -51 -12.5 -84.5t-43.5 -49.5t-85 -16zM180 39q30 0 43.5 12t17.5 31.5t4 40.5v250q0 22 -4 41t-17.5 31t-43.5 12t-44.5 -12t-18 -31t-3.5 -41
v-250q0 -21 3.5 -40.5t18 -31.5t44.5 -12zM157 548v15q0 14 11.5 21.5t22.5 14t11 19.5v5q0 9 -6 17t-20 8q-19 0 -23 -23l-37 7q3 23 19 35t45 12q34 0 50.5 -11.5t16.5 -44.5v-2q0 -22 -12 -31t-24 -14t-12 -17v-11h-42z" />
    <glyph glyph-name="ohorn" unicode="&#x1a1;" horiz-adv-x="358" 
d="M180 -7q-56 0 -87 16t-43 49.5t-12 84.5v225q0 41 11.5 71.5t42.5 47t88 16.5q56 0 86.5 -16.5t42.5 -47t12 -71.5v-225q0 -51 -12.5 -84.5t-43.5 -49.5t-85 -16zM180 39q30 0 43.5 12t17.5 31.5t4 40.5v250q0 22 -4 41t-17.5 31t-43.5 12t-44.5 -12t-18 -31t-3.5 -41
v-250q0 -21 3.5 -40.5t18 -31.5t44.5 -12zM241 446l-2 36h14q47 0 47 45v17h52v-14q0 -43 -28 -64t-83 -20z" />
    <glyph glyph-name="uni1EDB" unicode="&#x1edb;" horiz-adv-x="358" 
d="M180 -7q-56 0 -87 16t-43 49.5t-12 84.5v225q0 41 11.5 71.5t42.5 47t88 16.5q56 0 86.5 -16.5t42.5 -47t12 -71.5v-225q0 -51 -12.5 -84.5t-43.5 -49.5t-85 -16zM180 39q30 0 43.5 12t17.5 31.5t4 40.5v250q0 22 -4 41t-17.5 31t-43.5 12t-44.5 -12t-18 -31t-3.5 -41
v-250q0 -21 3.5 -40.5t18 -31.5t44.5 -12zM241 446l-2 36h14q47 0 47 45v17h52v-14q0 -43 -28 -64t-83 -20zM138 546l57 95h77l-86 -95h-48z" />
    <glyph glyph-name="uni1EE3" unicode="&#x1ee3;" horiz-adv-x="358" 
d="M180 -7q-56 0 -87 16t-43 49.5t-12 84.5v225q0 41 11.5 71.5t42.5 47t88 16.5q56 0 86.5 -16.5t42.5 -47t12 -71.5v-225q0 -51 -12.5 -84.5t-43.5 -49.5t-85 -16zM180 39q30 0 43.5 12t17.5 31.5t4 40.5v250q0 22 -4 41t-17.5 31t-43.5 12t-44.5 -12t-18 -31t-3.5 -41
v-250q0 -21 3.5 -40.5t18 -31.5t44.5 -12zM241 446l-2 36h14q47 0 47 45v17h52v-14q0 -43 -28 -64t-83 -20zM178 -114q-16 0 -26.5 11t-10.5 25q0 15 10.5 25.5t26.5 10.5q15 0 26.5 -10.5t11.5 -25.5q0 -14 -11.5 -25t-26.5 -11z" />
    <glyph glyph-name="uni1EDD" unicode="&#x1edd;" horiz-adv-x="358" 
d="M180 -7q-56 0 -87 16t-43 49.5t-12 84.5v225q0 41 11.5 71.5t42.5 47t88 16.5q56 0 86.5 -16.5t42.5 -47t12 -71.5v-225q0 -51 -12.5 -84.5t-43.5 -49.5t-85 -16zM180 39q30 0 43.5 12t17.5 31.5t4 40.5v250q0 22 -4 41t-17.5 31t-43.5 12t-44.5 -12t-18 -31t-3.5 -41
v-250q0 -21 3.5 -40.5t18 -31.5t44.5 -12zM241 446l-2 36h14q47 0 47 45v17h52v-14q0 -43 -28 -64t-83 -20zM175 546l-86 95h77l57 -95h-48z" />
    <glyph glyph-name="uni1EDF" unicode="&#x1edf;" horiz-adv-x="358" 
d="M180 -7q-56 0 -87 16t-43 49.5t-12 84.5v225q0 41 11.5 71.5t42.5 47t88 16.5q56 0 86.5 -16.5t42.5 -47t12 -71.5v-225q0 -51 -12.5 -84.5t-43.5 -49.5t-85 -16zM180 39q30 0 43.5 12t17.5 31.5t4 40.5v250q0 22 -4 41t-17.5 31t-43.5 12t-44.5 -12t-18 -31t-3.5 -41
v-250q0 -21 3.5 -40.5t18 -31.5t44.5 -12zM241 446l-2 36h14q47 0 47 45v17h52v-14q0 -43 -28 -64t-83 -20zM157 548v15q0 14 11.5 21.5t22.5 14t11 19.5v5q0 9 -6 17t-20 8q-19 0 -23 -23l-37 7q3 23 19 35t45 12q34 0 50.5 -11.5t16.5 -44.5v-2q0 -22 -12 -31t-24 -14
t-12 -17v-11h-42z" />
    <glyph glyph-name="uni1EE1" unicode="&#x1ee1;" horiz-adv-x="358" 
d="M180 -7q-56 0 -87 16t-43 49.5t-12 84.5v225q0 41 11.5 71.5t42.5 47t88 16.5q56 0 86.5 -16.5t42.5 -47t12 -71.5v-225q0 -51 -12.5 -84.5t-43.5 -49.5t-85 -16zM180 39q30 0 43.5 12t17.5 31.5t4 40.5v250q0 22 -4 41t-17.5 31t-43.5 12t-44.5 -12t-18 -31t-3.5 -41
v-250q0 -21 3.5 -40.5t18 -31.5t44.5 -12zM241 446l-2 36h14q47 0 47 45v17h52v-14q0 -43 -28 -64t-83 -20zM223 553q-14 0 -24.5 5t-24.5 13q-9 6 -20 12t-23 6t-20 -9t-10 -26h-27q1 32 16.5 52.5t41.5 20.5q15 0 27 -5.5t24 -13.5q11 -6 20.5 -11t19.5 -5q13 0 21 8.5
t11 24.5h29q-1 -23 -10 -39t-22.5 -24.5t-28.5 -8.5z" />
    <glyph glyph-name="ohungarumlaut" unicode="&#x151;" horiz-adv-x="358" 
d="M180 -7q-56 0 -87 16t-43 49.5t-12 84.5v225q0 41 11.5 71.5t42.5 47t88 16.5q56 0 86.5 -16.5t42.5 -47t12 -71.5v-225q0 -51 -12.5 -84.5t-43.5 -49.5t-85 -16zM180 39q30 0 43.5 12t17.5 31.5t4 40.5v250q0 22 -4 41t-17.5 31t-43.5 12t-44.5 -12t-18 -31t-3.5 -41
v-250q0 -21 3.5 -40.5t18 -31.5t44.5 -12zM121 546l25 95h64l-57 -95h-32zM198 546l33 95h64l-60 -95h-37z" />
    <glyph glyph-name="omacron" unicode="&#x14d;" horiz-adv-x="358" 
d="M180 -7q-56 0 -87 16t-43 49.5t-12 84.5v225q0 41 11.5 71.5t42.5 47t88 16.5q56 0 86.5 -16.5t42.5 -47t12 -71.5v-225q0 -51 -12.5 -84.5t-43.5 -49.5t-85 -16zM180 39q30 0 43.5 12t17.5 31.5t4 40.5v250q0 22 -4 41t-17.5 31t-43.5 12t-44.5 -12t-18 -31t-3.5 -41
v-250q0 -21 3.5 -40.5t18 -31.5t44.5 -12zM83 564v41h191v-41h-191z" />
    <glyph glyph-name="one" unicode="1" horiz-adv-x="249" 
d="M115 0v487h-97v45h44q28 2 41.5 15t22.5 44h66v-591h-77z" />
    <glyph glyph-name="one.tf" horiz-adv-x="420" 
d="M185 0v487h-97v45h44q28 2 41.5 15t22.5 44h66v-591h-77z" />
    <glyph glyph-name="onehalf" unicode="&#xbd;" horiz-adv-x="632" 
d="M59 0l320 587h60l-322 -587h-58zM74 236v271l-49 -6v30q26 7 43 23t28 37h29v-355h-51zM321 0v57q0 45 14.5 68.5t59.5 44.5q39 18 51.5 38.5t12.5 53.5q0 29 -10 44.5t-34 15.5q-21 0 -33 -13t-12 -42v-39h-50v30q0 55 23.5 77.5t72.5 22.5q39 0 60 -11t29 -32t8 -48
q0 -34 -10 -57t-27 -38t-41 -28q-37 -20 -49.5 -33.5t-15.5 -31.5q-2 -9 -2 -18.5v-17.5h146v-43h-193z" />
    <glyph glyph-name="onequarter" unicode="&#xbc;" horiz-adv-x="551" 
d="M78 0l320 587h60l-322 -587h-58zM89 236v271l-49 -6v30q26 7 43.5 23t27.5 37h29v-355h-51zM425 1v70h-129l-2 30l138 254h44v-247h35v-37h-35v-70h-51zM343 108h82v161z" />
    <glyph glyph-name="uni00B9" unicode="&#xb9;" horiz-adv-x="159" 
d="M68 236v271l-49 -6v30q26 7 43.5 23t27.5 37h29v-355h-51z" />
    <glyph glyph-name="ordfeminine" unicode="&#xaa;" horiz-adv-x="362" 
d="M138 -7q-24 0 -47 6.5t-39 29.5t-16 72v53q0 49 29.5 79t84.5 54q33 15 54 27.5t31 28t10 41.5v23q0 22 -8.5 33.5t-23 16.5t-31.5 5q-40 0 -52.5 -22.5t-12.5 -68.5v-42h-69v49q0 37 10 65.5t39 45t85 16.5q59 0 89 -12.5t40.5 -36.5t10.5 -60v-396h-76v60
q-11 -33 -41.5 -50t-66.5 -17zM168 44q41 0 58.5 28.5t17.5 77.5v150q-9 -15 -29.5 -26.5t-41.5 -23.5q-30 -18 -46.5 -37t-16.5 -53v-43q0 -32 9 -48t22.5 -20.5t26.5 -4.5z" />
    <glyph glyph-name="ordmasculine" unicode="&#xba;" horiz-adv-x="358" 
d="M180 -7q-56 0 -87 16t-43 49.5t-12 84.5v225q0 41 11.5 71.5t42.5 47t88 16.5q56 0 86.5 -16.5t42.5 -47t12 -71.5v-225q0 -51 -12.5 -84.5t-43.5 -49.5t-85 -16zM180 39q30 0 43.5 12t17.5 31.5t4 40.5v250q0 22 -4 41t-17.5 31t-43.5 12t-44.5 -12t-18 -31t-3.5 -41
v-250q0 -21 3.5 -40.5t18 -31.5t44.5 -12z" />
    <glyph glyph-name="oslash" unicode="&#xf8;" horiz-adv-x="363" 
d="M22 -33l279 552h34l-280 -552h-33zM180 -7q-56 0 -87 16t-43 49.5t-12 84.5v225q0 41 11.5 71.5t42.5 47t88 16.5q56 0 86.5 -16.5t42.5 -47t12 -71.5v-225q0 -51 -12.5 -84.5t-43.5 -49.5t-85 -16zM180 39q30 0 43.5 12t17.5 31.5t4 40.5v250q0 22 -4 41t-17.5 31
t-43.5 12t-44.5 -12t-18 -31t-3.5 -41v-250q0 -21 3.5 -40.5t18 -31.5t44.5 -12z" />
    <glyph glyph-name="otilde" unicode="&#xf5;" horiz-adv-x="358" 
d="M180 -7q-56 0 -87 16t-43 49.5t-12 84.5v225q0 41 11.5 71.5t42.5 47t88 16.5q56 0 86.5 -16.5t42.5 -47t12 -71.5v-225q0 -51 -12.5 -84.5t-43.5 -49.5t-85 -16zM180 39q30 0 43.5 12t17.5 31.5t4 40.5v250q0 22 -4 41t-17.5 31t-43.5 12t-44.5 -12t-18 -31t-3.5 -41
v-250q0 -21 3.5 -40.5t18 -31.5t44.5 -12zM223 553q-14 0 -24.5 5t-24.5 13q-9 6 -20 12t-23 6t-20 -9t-10 -26h-27q1 32 16.5 52.5t41.5 20.5q15 0 27 -5.5t24 -13.5q11 -6 20.5 -11t19.5 -5q13 0 21 8.5t11 24.5h29q-1 -23 -10 -39t-22.5 -24.5t-28.5 -8.5z" />
    <glyph glyph-name="p" unicode="p" horiz-adv-x="369" 
d="M49 -116v611h72l2 -42q9 19 28.5 34t64.5 15q44 0 69 -14.5t36 -42t11 -66.5v-243q0 -45 -10 -77t-35 -49t-71 -17q-37 0 -59 12.5t-33 29.5v-151h-75zM190 38q25 0 38 7t19.5 19t7.5 27t1 32v246q0 17 -1 32t-7.5 27.5t-19.5 19.5t-38 7q-24 0 -37.5 -9t-19.5 -22.5
t-7 -30t-1 -30.5v-245q0 -23 4 -41t18 -28.5t43 -10.5z" />
    <glyph glyph-name="p.sc" horiz-adv-x="378" 
d="M56 0v495h187q51 0 81.5 -21t30.5 -62v-88q0 -29 -9.5 -56.5t-35 -45t-77.5 -17.5h-98v-205h-79zM135 249h73q35 0 53 19.5t18 64.5v47q0 37 -16 55t-41 18h-87v-204z" />
    <glyph glyph-name="paragraph" unicode="&#xb6;" horiz-adv-x="600" 
d="M199 -60v269q-51 0 -85 22.5t-51 64t-17 97.5t15 93t42 58.5t62 31t76 9.5h121v-645h-37v591h-63v-591h-63z" />
    <glyph glyph-name="parenleft" unicode="(" horiz-adv-x="340" 
d="M280 -120q-55 3 -99.5 34.5t-76 83t-48 117t-16.5 135.5q0 75 19.5 147t54.5 131t80.5 96.5t96.5 41.5v-45q-41 -11 -74 -45.5t-56.5 -85t-36 -111.5t-12.5 -126q0 -61 11 -118t32.5 -103.5t53 -75t71.5 -32.5v-44z" />
    <glyph glyph-name="parenright" unicode=")" horiz-adv-x="333" 
d="M42 -120v44q41 12 74 46t56.5 84.5t36 111.5t12.5 127q0 60 -11 117t-32.5 103t-53 75t-71.5 34v44q55 -3 99.5 -34.5t76 -83.5t48 -117t16.5 -135q0 -75 -19 -147.5t-54 -131.5t-81 -96t-97 -41z" />
    <glyph glyph-name="partialdiff" unicode="&#x2202;" horiz-adv-x="357" 
d="M175 -10q-26 0 -50.5 4t-44 17t-31 42t-11.5 78v233q0 54 17 80.5t48 35.5t72 9q19 0 39 -5.5t28 -21.5q-1 47 -7.5 80.5t-25 51.5t-59.5 18q-26 0 -48 -3.5t-41 -8.5v49q8 2 32 7.5t67 5.5q26 0 51.5 -3.5t46.5 -16t33 -39.5q15 -28 21.5 -81.5t6.5 -131.5v-231
q0 -39 -7 -70.5t-23.5 -53t-44 -33.5t-69.5 -12zM175 33q29 0 43.5 14.5t19.5 37.5t5 46v264q0 8 -6 20t-20.5 22t-41.5 10t-40.5 -10t-17 -27t-3.5 -42v-266q0 -24 6 -38t16.5 -20.5t21 -8.5t17.5 -2z" />
    <glyph glyph-name="uni043F" unicode="&#x43f;" horiz-adv-x="371" 
d="M40 0v495h292v-495h-76v439h-140v-439h-76z" />
    <glyph glyph-name="uni043F.loclBGR" horiz-adv-x="371" 
d="M40 0v495h292v-495h-76v439h-140v-439h-76z" />
    <glyph glyph-name="percent" unicode="%" horiz-adv-x="559" 
d="M88 0l323 591h58l-324 -591h-57zM290 119q-36 0 -55 10t-26.5 30t-7.5 49v129q0 18 4.5 36t22.5 30.5t59 12.5t61.5 -9.5t27 -28t6.5 -45.5v-123q0 -35 -9 -54.5t-28.5 -28t-54.5 -8.5zM289 148q29 0 37 14.5t8 41.5v128q0 26 -8 40.5t-37 14.5q-19 0 -27.5 -8.5t-11 -21
t-2.5 -25.5v-129q0 -13 2.5 -25.5t11 -21t27.5 -8.5zM265 171q-35 0 -54 10t-26.5 29.5t-7.5 48.5v129q0 18 4.5 36t23 30.5t58.5 12.5q41 0 61.5 -9.5t27 -28t6.5 -45.5v-122q0 -34 -9 -54t-28.5 -28.5t-55.5 -8.5zM265 200q29 0 37 14.5t8 40.5v128q0 26 -8 41t-37 15
q-19 0 -27.5 -8.5t-11 -21.5t-2.5 -26v-128q0 -13 2.5 -26t11 -21t27.5 -8z" />
    <glyph glyph-name="period" unicode="." horiz-adv-x="189" 
d="M94 -7q-18 0 -31 12t-13 30q0 17 13 29.5t31 12.5t31.5 -12.5t13.5 -29.5q0 -18 -13.5 -30t-31.5 -12z" />
    <glyph glyph-name="period.tf" horiz-adv-x="420" 
d="M202 -7q-18 0 -31 12t-13 30q0 17 13 29.5t31 12.5t31.5 -12.5t13.5 -29.5q0 -18 -13.5 -30t-31.5 -12z" />
    <glyph glyph-name="periodcentered" unicode="&#xb7;" horiz-adv-x="189" 
d="M94 235q-18 0 -31 12t-13 30q0 17 13 29.5t31 12.5t31.5 -12.5t13.5 -29.5q0 -18 -13.5 -30t-31.5 -12z" />
    <glyph glyph-name="perthousand" unicode="&#x2030;" horiz-adv-x="772" 
d="M83 0l323 591h59l-324 -591h-58zM285 119q-34 0 -53.5 10t-27 30t-7.5 49v129q0 18 4.5 36t22.5 30.5t59 12.5t61 -9.5t27 -28t7 -45.5v-123q0 -35 -9 -54.5t-29 -28t-55 -8.5zM285 148q28 0 36.5 14.5t8.5 41.5v128q0 26 -8.5 40.5t-36.5 14.5q-19 0 -28 -8.5t-11 -21
t-2 -25.5v-129q0 -13 2 -25.5t11 -21t28 -8.5zM261 171q-35 0 -54 10t-26.5 29.5t-7.5 48.5v129q0 18 4.5 36t22.5 30.5t59 12.5t61.5 -9.5t27 -28t6.5 -45.5v-122q0 -34 -9 -54t-29 -28.5t-55 -8.5zM261 200q28 0 36.5 14.5t8.5 40.5v128q0 26 -8.5 41t-36.5 15
q-19 0 -28 -8.5t-11 -21.5t-2 -26v-128q0 -13 2 -26t11 -21t28 -8zM639 -5q-35 0 -54.5 10.5t-27 30t-7.5 48.5v129q0 18 4.5 36t23 30.5t58.5 12.5q41 0 61.5 -9.5t27 -28t6.5 -45.5v-122q0 -35 -9 -55t-28.5 -28.5t-54.5 -8.5zM639 24q28 0 36.5 14.5t8.5 41.5v128
q0 26 -8.5 41t-36.5 15q-20 0 -29 -9t-10.5 -21.5t-1.5 -25.5v-128q0 -13 1.5 -26t10.5 -21.5t29 -8.5z" />
    <glyph glyph-name="peseta" unicode="&#x20a7;" horiz-adv-x="500" 
d="M28 406v39h455v-39h-455zM101 0v591h191q53 0 83.5 -24.5t30.5 -74.5v-107q0 -35 -9.5 -66t-36 -50t-77.5 -19h-101v-250h-81zM182 295h76q36 0 54 24t18 76v66q0 45 -16.5 65.5t-41.5 20.5h-90v-252z" />
    <glyph glyph-name="pi" unicode="&#x3c0;" horiz-adv-x="600" 
d="M92 0q11 36 22 87t21 110.5t16 121.5t5 121q-33 -1 -59.5 -6.5t-54.5 -15.5v49q10 5 21.5 8.5t24.5 7.5q21 5 50 8.5t71 3.5h319v-54h-76v-441h-77v441h-146q1 -52 -3.5 -110t-12 -117t-18 -114t-22.5 -100h-81z" />
    <glyph glyph-name="plus" unicode="+" horiz-adv-x="452" 
d="M187 96v143h-137v79h137v143h78v-143h137v-79h-137v-143h-78z" />
    <glyph glyph-name="plusminus" unicode="&#xb1;" horiz-adv-x="411" 
d="M177 164v142h-135v56h135v141h57v-141h136v-56h-136v-142h-57zM42 0v54h328v-54h-328z" />
    <glyph glyph-name="product" unicode="&#x220f;" horiz-adv-x="604" 
d="M141 0v529h-119v62h561v-62h-110v-529h-71v529h-191v-529h-70z" />
    <glyph glyph-name="q" unicode="q" horiz-adv-x="369" 
d="M245 -116v168q-8 -24 -30.5 -42.5t-62.5 -18.5q-32 0 -54 9t-35.5 26.5t-19 44.5t-5.5 64v244q0 30 6 52t20 38t35 24t52 8q46 0 66 -14.5t28 -31.5l3 40h73v-611h-76zM179 36q22 0 35.5 10t20 25t8.5 30t2 25v237q0 14 -1.5 30.5t-7.5 30t-19.5 22.5t-37.5 9
q-25 0 -38 -7t-19 -19.5t-7 -27.5t-1 -32v-247q0 -17 1 -32.5t7 -27.5t19 -19t38 -7z" />
    <glyph glyph-name="q.sc" horiz-adv-x="399" 
d="M293 -101l-62 93h-16h-18q-49 0 -82.5 11t-50.5 39.5t-17 81.5v267q0 65 41 88t113 23t111.5 -23.5t39.5 -87.5v-267q0 -47 -14.5 -74.5t-45.5 -40.5l54 -79zM200 37q38 0 57 13t19 48v296q0 35 -19.5 48t-56.5 13t-56 -13t-19 -48v-296q0 -36 19.5 -48.5t55.5 -12.5z
" />
    <glyph glyph-name="question" unicode="?" horiz-adv-x="385" 
d="M122 153v123q15 1 30 2.5t29 4.5q19 3 38.5 15t33 34t13.5 56v52q0 44 -18.5 70.5t-59.5 26.5q-38 0 -54.5 -24t-16.5 -66v-47h-77v53q0 141 149 141q56 0 90.5 -15.5t50 -49.5t15.5 -89v-45q0 -44 -17.5 -76t-43.5 -49.5t-55 -22.5q-9 0 -19 -0.5t-21 -0.5v-93h-67z
M154 -6q-19 0 -31 12t-12 30t12 30t31 12q18 0 31.5 -12t13.5 -30t-13.5 -30t-31.5 -12z" />
    <glyph glyph-name="questiondown" unicode="&#xbf;" horiz-adv-x="385" 
d="M263 337v-123q-15 0 -30 -2t-29 -5q-18 -3 -38 -15t-33 -34t-13 -56v-52q0 -44 18.5 -70.5t58.5 -26.5q39 0 55.5 24t16.5 66v47h77v-53q0 -141 -150 -141q-55 0 -89.5 15.5t-50.5 49.5t-16 89v44q1 46 18.5 77.5t43.5 49.5t54 21q10 1 20 1.5t20 0.5v93h67zM231 496
q19 0 31.5 -12t12.5 -30t-12.5 -30.5t-31.5 -12.5q-18 0 -31.5 12.5t-13.5 30.5t13.5 30t31.5 12z" />
    <glyph glyph-name="quotedbl" unicode="&#x22;" horiz-adv-x="302" 
d="M191 425l-14 206h71l-15 -206h-42zM68 425l-14 206h71l-15 -206h-42z" />
    <glyph glyph-name="quotedblbase" unicode="&#x201e;" horiz-adv-x="259" 
d="M78 -148h-42l39 206h72zM209 -148h-42l39 206h72z" />
    <glyph glyph-name="quotedblleft" unicode="&#x201c;" horiz-adv-x="307" 
d="M229 621h42l-39 -206h-71zM104 621h42l-39 -206h-72z" />
    <glyph glyph-name="quotedblright" unicode="&#x201d;" horiz-adv-x="307" 
d="M78 415h-42l39 206h72zM203 415h-42l39 206h71z" />
    <glyph glyph-name="quoteleft" unicode="&#x2018;" horiz-adv-x="182" 
d="M104 621h42l-39 -206h-72z" />
    <glyph glyph-name="quoteright" unicode="&#x2019;" horiz-adv-x="194" 
d="M83 425h-41l39 206h71z" />
    <glyph glyph-name="quotesinglbase" unicode="&#x201a;" horiz-adv-x="178" 
d="M50 -127q13 26 23.5 50.5t10.5 43.5q0 16 -6.5 25t-13 16.5t-6.5 22.5q0 17 12 29t32 12t31.5 -13t11.5 -34q0 -22 -9 -49t-22.5 -54t-28.5 -49h-35z" />
    <glyph glyph-name="quotesingle" unicode="'" horiz-adv-x="179" 
d="M68 425l-14 206h71l-15 -206h-42z" />
    <glyph glyph-name="r" unicode="r" horiz-adv-x="261" 
d="M49 0v495h64l7 -55q11 27 34 39.5t47 15.5q29 8 58 3v-59q-4 2 -14.5 3t-23.5 0.5t-24 -5.5q-32 -5 -52 -26.5t-20 -55.5v-355h-76z" />
    <glyph glyph-name="r.sc" horiz-adv-x="407" 
d="M56 0v495h190q51 0 81.5 -21t30.5 -62v-78q0 -42 -29 -67t-80 -27v-1q33 -2 48 -18t27 -51l58 -170h-83l-50 165q-4 14 -10.5 26.5t-16.5 20.5t-27 8h-61v-220h-78zM134 273h76q32 0 52.5 12.5t20.5 49.5v64q0 28 -17 41t-42 13h-90v-180z" />
    <glyph glyph-name="racute" unicode="&#x155;" horiz-adv-x="261" 
d="M49 0v495h64l7 -55q11 27 34 39.5t47 15.5q29 8 58 3v-59q-4 2 -14.5 3t-23.5 0.5t-24 -5.5q-32 -5 -52 -26.5t-20 -55.5v-355h-76zM117 546l57 95h77l-86 -95h-48z" />
    <glyph glyph-name="radical" unicode="&#x221a;" horiz-adv-x="600" 
d="M255 -73l-115 384l-103 -38v32l159 79l92 -382h-1l192 618h83l-239 -693h-68z" />
    <glyph glyph-name="rcaron" unicode="&#x159;" horiz-adv-x="261" 
d="M49 0v495h64l7 -55q11 27 34 39.5t47 15.5q29 8 58 3v-59q-4 2 -14.5 3t-23.5 0.5t-24 -5.5q-32 -5 -52 -26.5t-20 -55.5v-355h-76zM134 546l-91 96h50l65 -60l67 60h48l-91 -96h-48z" />
    <glyph glyph-name="uni0157" unicode="&#x157;" horiz-adv-x="261" 
d="M49 0v495h64l7 -55q11 27 34 39.5t47 15.5q29 8 58 3v-59q-4 2 -14.5 3t-23.5 0.5t-24 -5.5q-32 -5 -52 -26.5t-20 -55.5v-355h-76zM43 -170q12 19 20 36t8 29q0 6 -5.5 10.5t-11 10.5t-5.5 17t10.5 20t25.5 9q17 0 27.5 -10.5t10.5 -24.5q0 -12 -7.5 -29.5t-18 -35.5
t-22.5 -32h-32z" />
    <glyph glyph-name="registered" unicode="&#xae;" horiz-adv-x="396" 
d="M198 279q-43 0 -78.5 21t-56.5 56.5t-21 78.5t21 78.5t56.5 56.5t78.5 21q44 0 79 -21t56 -56.5t21 -78.5t-21 -78.5t-56 -56.5t-79 -21zM197 300q38 0 68 19t48 49.5t18 66.5q0 37 -18 67.5t-48 48.5t-67 18q-36 0 -66.5 -18t-48.5 -48.5t-18 -67.5q0 -36 18 -67
t48.5 -49.5t65.5 -18.5zM148 356v166h63q23 0 31.5 -10t8.5 -29q0 -17 -6.5 -30.5t-27.5 -15.5q3 -2 7 -9.5t5 -11.5l29 -60h-24q-5 12 -11.5 27t-13 29t-12.5 22h-29v-78h-20zM168 446h25q23 0 30.5 9.5t7.5 26.5q0 12 -5.5 19t-20.5 7h-37v-62z" />
    <glyph glyph-name="arrowright" unicode="&#x2192;" horiz-adv-x="801" 
d="M513 98l-37 38l155 150l-589 1v61l588 -1l-154 151l38 37l245 -218z" />
    <glyph glyph-name="ring" unicode="&#x2da;" horiz-adv-x="199" 
d="M99 543q-35 0 -58 22.5t-23 53.5q0 32 23 54.5t58 22.5q36 0 59 -22.5t23 -54.5q0 -31 -24.5 -53.5t-57.5 -22.5zM99 577q21 0 33 12t12 30q0 20 -12 31.5t-33 11.5q-20 0 -32 -11.5t-12 -31.5q0 -18 12 -30t32 -12z" />
    <glyph glyph-name="uni030A" unicode="&#x30a;" 
d="M99 543q-35 0 -58 22.5t-23 53.5q0 32 23 54.5t58 22.5q36 0 59 -22.5t23 -54.5q0 -31 -24.5 -53.5t-57.5 -22.5zM99 577q21 0 33 12t12 30q0 20 -12 31.5t-33 11.5q-20 0 -32 -11.5t-12 -31.5q0 -18 12 -30t32 -12z" />
    <glyph glyph-name="uni030A.case" 
d="M88 616q-35 0 -58 22.5t-23 53.5q0 32 23 54.5t58 22.5q36 0 59 -22.5t23 -54.5q0 -31 -24.5 -53.5t-57.5 -22.5zM88 650q21 0 33 12t12 30q0 20 -12 31.5t-33 11.5q-20 0 -32 -11.5t-12 -31.5q0 -18 12 -30t32 -12z" />
    <glyph glyph-name="s" unicode="s" horiz-adv-x="353" 
d="M175 -9q-48 0 -77 11t-43 30.5t-18.5 45.5t-4.5 56v37h77v-50q0 -24 2.5 -43.5t16.5 -31t47 -11.5q30 0 43.5 11t16.5 28t3 32v31q0 25 -9 42t-28.5 29.5t-49.5 24.5q-31 12 -55.5 27t-39 38.5t-14.5 60.5v29q0 56 31 86.5t109 30.5q51 0 80.5 -13.5t43 -43t13.5 -77.5
v-40h-74v51q0 45 -15 62t-48 17q-37 0 -50 -18t-13 -45v-30q0 -28 12.5 -45.5t35.5 -28.5t53 -24q28 -11 50.5 -25t35.5 -37t13 -63v-24q0 -36 -11 -65.5t-41.5 -47t-91.5 -17.5z" />
    <glyph glyph-name="s.sc" horiz-adv-x="371" 
d="M180 -6q-78 0 -112.5 33.5t-34.5 106.5v29h78v-32q0 -49 18 -70.5t54 -21.5q33 0 54.5 18.5t21.5 66.5q0 36 -13 53.5t-38.5 28.5t-64.5 24q-31 11 -55.5 27.5t-37.5 42t-13 63.5q0 65 34 99t114 34q71 0 109 -29t38 -84v-52h-75v35q0 39 -17.5 57.5t-53.5 18.5
q-38 0 -55 -18.5t-17 -58.5q0 -31 14 -48.5t36.5 -27t47.5 -17.5q48 -15 75 -31.5t39 -41.5t12 -65q0 -77 -44.5 -108.5t-113.5 -31.5z" />
    <glyph glyph-name="s_t" horiz-adv-x="612" 
d="M175 -9q-48 0 -77 11t-43 30.5t-18.5 45.5t-4.5 56v37h77v-50q0 -24 2.5 -43.5t16.5 -31t47 -11.5q30 0 43.5 11t16.5 28t3 32v31q0 25 -9 42t-28.5 29.5t-49.5 24.5q-31 12 -55.5 27t-39 38.5t-14.5 60.5v29q0 56 31 86.5t109 30.5q51 0 80.5 -13.5t43 -43t13.5 -77.5
v-40h-71v51q0 45 -15.5 62t-48.5 17q-38 0 -51.5 -18t-13.5 -45v-30q0 -28 12.5 -45.5t35.5 -28.5t53 -24q28 -11 50.5 -25t35.5 -37t13 -63v-24q0 -36 -11 -65.5t-41.5 -47t-91.5 -17.5zM527 -2q-22 0 -41.5 5t-33.5 16.5t-22 31t-8 49.5v348h-44v34l49 13l13 92h57v-92
h104v-47h-104v-335q0 -26 10 -44t42 -18q14 0 30 1t22 2v-48q-6 -1 -27.5 -4.5t-46.5 -3.5zM264 352l-1 139q-1 56 13 83t39.5 35t60.5 8q19 0 38 -4t35 -9.5t27.5 -10t16.5 -6.5l-45 -24q-2 2 -14 4.5t-27 5.5t-28 2q-19 0 -32 -9.5t-19 -37.5t-7 -82l-2 -92z" />
    <glyph glyph-name="sacute" unicode="&#x15b;" horiz-adv-x="353" 
d="M175 -9q-48 0 -77 11t-43 30.5t-18.5 45.5t-4.5 56v37h77v-50q0 -24 2.5 -43.5t16.5 -31t47 -11.5q30 0 43.5 11t16.5 28t3 32v31q0 25 -9 42t-28.5 29.5t-49.5 24.5q-31 12 -55.5 27t-39 38.5t-14.5 60.5v29q0 56 31 86.5t109 30.5q51 0 80.5 -13.5t43 -43t13.5 -77.5
v-40h-74v51q0 45 -15 62t-48 17q-37 0 -50 -18t-13 -45v-30q0 -28 12.5 -45.5t35.5 -28.5t53 -24q28 -11 50.5 -25t35.5 -37t13 -63v-24q0 -36 -11 -65.5t-41.5 -47t-91.5 -17.5zM135 546l57 95h77l-86 -95h-48z" />
    <glyph glyph-name="scaron" unicode="&#x161;" horiz-adv-x="353" 
d="M175 -9q-48 0 -77 11t-43 30.5t-18.5 45.5t-4.5 56v37h77v-50q0 -24 2.5 -43.5t16.5 -31t47 -11.5q30 0 43.5 11t16.5 28t3 32v31q0 25 -9 42t-28.5 29.5t-49.5 24.5q-31 12 -55.5 27t-39 38.5t-14.5 60.5v29q0 56 31 86.5t109 30.5q51 0 80.5 -13.5t43 -43t13.5 -77.5
v-40h-74v51q0 45 -15 62t-48 17q-37 0 -50 -18t-13 -45v-30q0 -28 12.5 -45.5t35.5 -28.5t53 -24q28 -11 50.5 -25t35.5 -37t13 -63v-24q0 -36 -11 -65.5t-41.5 -47t-91.5 -17.5zM152 546l-91 96h50l65 -60l67 60h48l-91 -96h-48z" />
    <glyph glyph-name="scedilla" unicode="&#x15f;" horiz-adv-x="353" 
d="M175 -9q-48 0 -77 11t-43 30.5t-18.5 45.5t-4.5 56v37h77v-50q0 -24 2.5 -43.5t16.5 -31t47 -11.5q30 0 43.5 11t16.5 28t3 32v31q0 25 -9 42t-28.5 29.5t-49.5 24.5q-31 12 -55.5 27t-39 38.5t-14.5 60.5v29q0 56 31 86.5t109 30.5q51 0 80.5 -13.5t43 -43t13.5 -77.5
v-40h-74v51q0 45 -15 62t-48 17q-37 0 -50 -18t-13 -45v-30q0 -28 12.5 -45.5t35.5 -28.5t53 -24q28 -11 50.5 -25t35.5 -37t13 -63v-24q0 -36 -11 -65.5t-41.5 -47t-91.5 -17.5zM171 -150q-16 0 -29.5 6t-21.5 10l11 27q6 -5 17.5 -9t19.5 -4q19 0 28 8.5t9 21.5
q0 12 -8 19t-20 7q-7 0 -13 -2.5t-11 -6.5l-24 13l32 60h32l-27 -51l-6 2q7 4 16 6.5t19 2.5q25 0 39.5 -16t14.5 -33q0 -26 -20 -43.5t-58 -17.5z" />
    <glyph glyph-name="uni0219" unicode="&#x219;" horiz-adv-x="353" 
d="M175 -9q-48 0 -77 11t-43 30.5t-18.5 45.5t-4.5 56v37h77v-50q0 -24 2.5 -43.5t16.5 -31t47 -11.5q30 0 43.5 11t16.5 28t3 32v31q0 25 -9 42t-28.5 29.5t-49.5 24.5q-31 12 -55.5 27t-39 38.5t-14.5 60.5v29q0 56 31 86.5t109 30.5q51 0 80.5 -13.5t43 -43t13.5 -77.5
v-40h-74v51q0 45 -15 62t-48 17q-37 0 -50 -18t-13 -45v-30q0 -28 12.5 -45.5t35.5 -28.5t53 -24q28 -11 50.5 -25t35.5 -37t13 -63v-24q0 -36 -11 -65.5t-41.5 -47t-91.5 -17.5zM133 -170q12 19 20 36t8 29q0 6 -5.5 10.5t-11 10.5t-5.5 17t10.5 20t25.5 9q17 0 27.5 -10.5
t10.5 -24.5q0 -12 -7.5 -29.5t-18 -35.5t-22.5 -32h-32z" />
    <glyph glyph-name="section" unicode="&#xa7;" horiz-adv-x="451" 
d="M197 -169q-47 0 -80.5 15.5t-51.5 53.5t-18 105v26h80v-38q0 -46 9 -71.5t25.5 -35.5t37.5 -10q35 0 56.5 22.5t21.5 81.5q0 42 -12.5 65t-38 36.5t-64.5 28.5q-34 14 -59.5 31.5t-39.5 44.5t-14 67q0 44 12.5 72.5t34.5 45.5t51 27l15 -29q-22 -13 -34.5 -38t-12.5 -64
q0 -35 13.5 -55.5t38 -34t57.5 -25.5q33 -13 57.5 -24.5t40.5 -27t24 -40t8 -64.5q0 -62 -20 -98t-55 -51.5t-82 -15.5zM302 19l-25 40q26 15 43 38.5t17 69.5q0 42 -19 65.5t-50.5 37.5t-71.5 29q-31 13 -55 29t-37 42t-13 68q0 54 15 88.5t48 51.5t88 17q72 0 111 -34.5
t39 -99.5v-54h-76v60q0 37 -18 58.5t-55 21.5q-39 0 -56 -23t-17 -70q0 -41 14 -64t38.5 -35.5t52.5 -23.5q45 -17 73 -34t42 -45t14 -79q0 -45 -14 -75.5t-37 -49.5t-51 -29z" />
    <glyph glyph-name="semicolon" unicode=";" horiz-adv-x="203" 
d="M57 -127q13 26 23.5 50.5t10.5 43.5q0 16 -6.5 25t-13 16.5t-6.5 22.5q0 17 12 29t32 12t31.5 -13t11.5 -34q0 -22 -9 -49t-22.5 -54t-28.5 -49h-35zM99 273q-18 0 -31 12t-13 30q0 17 13 29.5t31 12.5t31.5 -12.5t13.5 -29.5q0 -18 -13.5 -30t-31.5 -12z" />
    <glyph glyph-name="seven" unicode="7" horiz-adv-x="307" 
d="M45 0l163 535h-196l-1 56h273v-58l-162 -533h-77z" />
    <glyph glyph-name="seven.tf" horiz-adv-x="420" 
d="M112 0l163 535h-196l-1 56h273v-58l-162 -533h-77z" />
    <glyph glyph-name="uni0448" unicode="&#x448;" horiz-adv-x="536" 
d="M40 0v495h76v-440h114v440h76v-440h114v440h76v-495h-456z" />
    <glyph glyph-name="uni0448.loclBGR" horiz-adv-x="536" 
d="M40 0v495h76v-440h114v440h76v-440h114v440h76v-495h-456z" />
    <glyph glyph-name="uni0449" unicode="&#x449;" horiz-adv-x="583" 
d="M487 -79v79h-447v495h76v-439h114v439h76v-439h114v439h76v-456h54v-118h-63z" />
    <glyph glyph-name="uni0449.loclBGR" horiz-adv-x="583" 
d="M487 -79v79h-447v495h76v-439h114v439h76v-439h114v439h76v-456h54v-118h-63z" />
    <glyph glyph-name="six" unicode="6" horiz-adv-x="397" 
d="M198 -10q-54 0 -88.5 19t-51 54.5t-16.5 82.5v305q0 70 43.5 107t114.5 37q73 0 112.5 -34t39.5 -107v-38h-77v48q0 42 -19.5 61.5t-55.5 19.5q-37 0 -58.5 -23.5t-21.5 -60.5v-144q17 26 46 39.5t63 13.5q55 0 92 -32t37 -89v-111q0 -43 -17.5 -76.5t-52.5 -52.5
t-90 -19zM200 38q35 0 57.5 22t22.5 68v110q0 41 -24 60.5t-57 20.5q-33 0 -55.5 -19.5t-23.5 -52.5v-119q0 -44 21.5 -66.5t58.5 -23.5z" />
    <glyph glyph-name="six.tf" horiz-adv-x="420" 
d="M230 -10q-54 0 -88.5 19t-51 54.5t-16.5 82.5v305q0 70 43.5 107t114.5 37q73 0 112.5 -34t39.5 -107v-38h-77v48q0 42 -19.5 61.5t-55.5 19.5q-37 0 -58.5 -23.5t-21.5 -60.5v-144q17 26 46 39.5t63 13.5q55 0 92 -32t37 -89v-111q0 -43 -17.5 -76.5t-52.5 -52.5
t-90 -19zM232 38q35 0 57.5 22t22.5 68v110q0 41 -24 60.5t-57 20.5q-33 0 -55.5 -19.5t-23.5 -52.5v-119q0 -44 21.5 -66.5t58.5 -23.5z" />
    <glyph glyph-name="slash" unicode="/" horiz-adv-x="480" 
d="M42 -45l342 676h58l-343 -676h-57z" />
    <glyph glyph-name="uni00AD" unicode="&#xad;" horiz-adv-x="288" 
d="M42 241v54h204v-54h-204z" />
    <glyph glyph-name="uni044C" unicode="&#x44c;" horiz-adv-x="368" 
d="M38 0v493h76v-154h96q43 0 69 -13t38 -40t12 -70v-53q0 -44 -7 -75t-21.5 -50.5t-38.5 -28.5t-60 -9h-164zM114 42h71q30 0 44 11t19 31t5 45v74q0 24 -4 44t-18 32t-46 12h-71v-249z" />
    <glyph glyph-name="uni044C.loclBGR" horiz-adv-x="368" 
d="M38 0v493h76v-154h96q43 0 69 -13t38 -40t12 -70v-53q0 -44 -7 -75t-21.5 -50.5t-38.5 -28.5t-60 -9h-164zM114 42h71q30 0 44 11t19 31t5 45v74q0 24 -4 44t-18 32t-46 12h-71v-249z" />
    <glyph glyph-name="uni2198" unicode="&#x2198;" horiz-adv-x="613" 
d="M403 0l-161 29l152 44l-217 276l-128 145l317 -245l135 17l6 62l44 -168z" />
    <glyph glyph-name="uni2199" unicode="&#x2199;" horiz-adv-x="614" 
d="M42 2l20 329h52l-3 -216l418 416l43 -44l-416 -415l214 3v-53z" />
    <glyph glyph-name="space.tf" horiz-adv-x="420" 
 />
    <glyph glyph-name="sterling" unicode="&#xa3;" horiz-adv-x="412" 
d="M38 0v33q22 27 41.5 64t31 80t8.5 87h-75v49h69q-6 27 -17 54t-20 55.5t-9 58.5q0 54 37 84.5t115 30.5q70 0 110.5 -30t40.5 -91v-43h-67v43q0 26 -12.5 44.5t-32 28.5t-40.5 10q-33 0 -58 -18t-25 -54q0 -27 10.5 -55.5t22 -58t14.5 -59.5h78v-49h-78q-1 -42 -11.5 -81
t-27 -71.5t-36.5 -56.5q22 3 38.5 3t35.5 -1.5t47 -4.5q48 -4 62 9.5t14 56.5v42h66v-53q0 -52 -14.5 -74.5t-39.5 -28.5q-27 -7 -60 -3t-69 10.5t-73 6.5q-33 0 -50 -5.5t-26 -12.5z" />
    <glyph glyph-name="summation" unicode="&#x2211;" horiz-adv-x="410" 
d="M42 -83v32l194 306l-184 289v41h316v-72h-215l161 -255l-165 -268h219v-73h-326z" />
    <glyph glyph-name="t" unicode="t" horiz-adv-x="251" 
d="M166 -2q-22 0 -41.5 5t-33.5 16.5t-22 31t-8 49.5v348h-45v39l50 8l13 92h57v-92h104v-47h-104v-335q0 -26 10 -44t42 -18q14 0 30 1t22 2v-48q-6 -1 -27.5 -4.5t-46.5 -3.5z" />
    <glyph glyph-name="t.sc" horiz-adv-x="289" 
d="M106 0v442h-96v53h269v-53h-97v-442h-76z" />
    <glyph glyph-name="t_i" horiz-adv-x="450" 
d="M166 -2q-22 0 -41.5 5t-33.5 16.5t-22 31t-8 49.5v348h-45v34l50 13l13 92h57v-92h264v-495h-75v448h-189v-335q0 -26 10 -44t42 -18q14 0 30 1t22 2v-48q-6 -1 -27.5 -4.5t-46.5 -3.5zM364 590q-17 0 -29.5 12t-12.5 29q0 16 12.5 28t29.5 12q18 0 31 -12t13 -28
q0 -17 -13 -29t-31 -12z" />
    <glyph glyph-name="t_u" horiz-adv-x="626" 
d="M166 -2q-22 0 -41.5 5t-33.5 16.5t-22 31t-8 49.5v348h-45v39l50 8l13 92h57v-92h104v-47h-104v-335q0 -26 10 -44t42 -18q14 0 30 1t22 2v-48q-6 -1 -27.5 -4.5t-46.5 -3.5zM409 -8q-51 0 -75.5 18t-32 48t-7.5 65v372h76v-364q0 -20 2.5 -39t16.5 -31.5t46 -12.5
q23 0 36.5 8t20.5 18.5t9 19.5v401h76v-495h-65l-6 55q-8 -25 -32.5 -44t-64.5 -19z" />
    <glyph glyph-name="tbar" unicode="&#x167;" horiz-adv-x="258" 
d="M10 334v36h181v-36h-181zM166 -2q-22 0 -41.5 5t-33.5 16.5t-22 31t-8 49.5v348h-45v39l50 8l13 92h57v-92h104v-47h-104v-335q0 -26 10 -44t42 -18q14 0 30 1t22 2v-48q-6 -1 -27.5 -4.5t-46.5 -3.5z" />
    <glyph glyph-name="tcaron" unicode="&#x165;" horiz-adv-x="251" 
d="M166 -2q-22 0 -41.5 5t-33.5 16.5t-22 31t-8 49.5v348h-45v39l50 8l13 92h57v-92h104v-47h-104v-335q0 -26 10 -44t42 -18q14 0 30 1t22 2v-48q-6 -1 -27.5 -4.5t-46.5 -3.5zM176 548l20 133h49l-40 -133h-29z" />
    <glyph glyph-name="uni0163" unicode="&#x163;" horiz-adv-x="251" 
d="M166 -2q-22 0 -41.5 5t-33.5 16.5t-22 31t-8 49.5v348h-45v39l50 8l13 92h57v-92h104v-47h-104v-335q0 -26 10 -44t42 -18q14 0 30 1t22 2v-48q-6 -1 -27.5 -4.5t-46.5 -3.5zM89 -170q12 19 20 36t8 29q0 6 -5.5 10.5t-11 10.5t-5.5 17t10.5 20t25.5 9q17 0 27.5 -10.5
t10.5 -24.5q0 -12 -7.5 -29.5t-18 -35.5t-22.5 -32h-32z" />
    <glyph glyph-name="uni021B" unicode="&#x21b;" horiz-adv-x="251" 
d="M166 -2q-22 0 -41.5 5t-33.5 16.5t-22 31t-8 49.5v348h-45v39l50 8l13 92h57v-92h104v-47h-104v-335q0 -26 10 -44t42 -18q14 0 30 1t22 2v-48q-6 -1 -27.5 -4.5t-46.5 -3.5zM89 -170q12 19 20 36t8 29q0 6 -5.5 10.5t-11 10.5t-5.5 17t10.5 20t25.5 9q17 0 27.5 -10.5
t10.5 -24.5q0 -12 -7.5 -29.5t-18 -35.5t-22.5 -32h-32z" />
    <glyph glyph-name="uni0442" unicode="&#x442;" horiz-adv-x="311" 
d="M116 0v439h-102v56h283v-56h-103v-439h-78z" />
    <glyph glyph-name="uni0442.loclBGR" horiz-adv-x="311" 
d="M116 0v439h-102v56h283v-56h-103v-439h-78z" />
    <glyph glyph-name="thorn" unicode="&#xfe;" horiz-adv-x="369" 
d="M49 -116v746h75v-176q14 23 34.5 36t57.5 13q44 0 69 -14.5t36 -41.5t11 -66v-245q0 -45 -10 -77t-35 -49t-71 -17q-40 0 -61 13.5t-32 36.5l1 -159h-75zM190 38q25 0 38 6.5t19.5 18.5t7.5 27.5t1 32.5v247q0 16 -1.5 31.5t-7.5 27t-19.5 18.5t-37.5 7q-25 0 -39 -11
t-20 -29.5t-6 -40.5v-233q0 -18 1 -36t7 -33t19.5 -24t37.5 -9z" />
    <glyph glyph-name="three" unicode="3" horiz-adv-x="388" 
d="M191 -7q-56 0 -91 18.5t-51.5 51.5t-16.5 76v62h79v-47q0 -49 19.5 -76.5t59.5 -28.5q38 0 59 25.5t21 67.5v56q0 41 -27 62t-74 22h-56v47h56q23 0 42.5 7.5t31.5 21.5q13 12 18 26.5t5 31.5v36q0 36 -17.5 61t-58.5 25t-58.5 -27t-17.5 -70v-32h-79v47q0 66 38 102
t118 36q83 0 120 -34t37 -99v-34q0 -52 -26 -83t-70 -41q48 -6 73.5 -39t25.5 -84v-41q0 -45 -15.5 -78t-50.5 -50.5t-94 -17.5z" />
    <glyph glyph-name="three.tf" horiz-adv-x="420" 
d="M203 -7q-56 0 -91 18.5t-51.5 51.5t-16.5 76v62h79v-47q0 -49 19.5 -76.5t59.5 -28.5q38 0 59 25.5t21 67.5v56q0 41 -27 62t-74 22h-56v47h56q23 0 42.5 7.5t31.5 21.5q13 12 18 26.5t5 31.5v36q0 36 -17.5 61t-58.5 25t-58.5 -27t-17.5 -70v-32h-79v47q0 66 38 102
t118 36q83 0 120 -34t37 -99v-34q0 -52 -26 -83t-70 -41q48 -6 73.5 -39t25.5 -84v-41q0 -45 -15.5 -78t-50.5 -50.5t-94 -17.5z" />
    <glyph glyph-name="threequarters" unicode="&#xbe;" horiz-adv-x="609" 
d="M123 0l320 587h59l-321 -587h-58zM133 236q-51 0 -73 23t-22 65v37h49v-25q0 -32 13 -46.5t37 -14.5q22 0 33.5 15t11.5 44v22q0 24 -16 38t-44 14h-34v29h29q14 0 27.5 4.5t20.5 12.5q8 7 12 14t4 20v27q0 19 -10.5 32.5t-33.5 13.5q-24 0 -34 -15t-10 -39v-24h-49v29
q0 39 22.5 60t69.5 22q52 0 75 -20t23 -61v-21q0 -27 -15.5 -45.5t-46.5 -24.5q32 -5 48 -24t16 -46v-24q0 -47 -24 -69.5t-79 -22.5zM470 1v70h-129l-2 30l137 254h44v-247h35v-37h-35v-70h-50zM387 108h83v161z" />
    <glyph glyph-name="uni00B3" unicode="&#xb3;" horiz-adv-x="250" 
d="M123 236q-55 0 -79.5 24.5t-24.5 63.5v38h53v-26q0 -28 12 -44.5t38 -16.5q24 -1 37 14t13 38v34q0 23 -16.5 35t-48.5 12h-35v31h36q32 0 47.5 14t15.5 35v22q0 20 -11.5 34.5t-37.5 14.5t-37 -16.5t-11 -40.5v-18h-53v29q0 41 25 62.5t77 21.5q57 0 79.5 -21.5
t22.5 -58.5v-22q0 -31 -17 -49.5t-45 -23.5q31 -4 47.5 -23.5t16.5 -49.5v-25q0 -40 -22.5 -64t-81.5 -24z" />
    <glyph glyph-name="tilde" unicode="&#x2dc;" horiz-adv-x="233" 
d="M159 553q-14 0 -24.5 5t-24.5 13q-9 6 -20 12t-23 6t-20 -9t-10 -26h-27q1 32 16.5 52.5t41.5 20.5q15 0 27 -5.5t24 -13.5q11 -6 20.5 -11t19.5 -5q13 0 21 8.5t11 24.5h29q-1 -23 -10 -39t-22.5 -24.5t-28.5 -8.5z" />
    <glyph glyph-name="tildecomb" unicode="&#x303;" 
d="M159 553q-14 0 -24.5 5t-24.5 13q-9 6 -20 12t-23 6t-20 -9t-10 -26h-27q1 32 16.5 52.5t41.5 20.5q15 0 27 -5.5t24 -13.5q11 -6 20.5 -11t19.5 -5q13 0 21 8.5t11 24.5h29q-1 -23 -10 -39t-22.5 -24.5t-28.5 -8.5z" />
    <glyph glyph-name="tildecomb.case" 
d="M153 639q-14 0 -24.5 5t-24.5 13q-9 6 -20 12t-23 6t-20 -9t-10 -26h-27q1 32 16.5 52.5t41.5 20.5q15 0 27 -5.5t24 -13.5q11 -6 20.5 -11t19.5 -5q13 0 21 8.5t11 24.5h29q-1 -23 -10 -39t-22.5 -24.5t-28.5 -8.5z" />
    <glyph glyph-name="trademark" unicode="&#x2122;" horiz-adv-x="608" 
d="M220 310v281h51l65 -227l66 227h50v-281h-35v233l-68 -233h-27l-68 233v-233h-34zM98 310v254h-56v27h148v-27h-56v-254h-36z" />
    <glyph glyph-name="uni0446" unicode="&#x446;" horiz-adv-x="417" 
d="M321 -79v79h-281v495h76v-440h138v440h76v-457h53v-117h-62z" />
    <glyph glyph-name="uni0446.loclBGR" horiz-adv-x="417" 
d="M321 -79v79h-281v495h76v-440h138v440h76v-457h53v-117h-62z" />
    <glyph glyph-name="uni045B" unicode="&#x45b;" horiz-adv-x="419" 
d="M87 0v511h-53v43h53v76h77v-76h117v-43h-117v-134q11 21 34.5 36.5t62.5 15.5t65 -12.5t39.5 -40t13.5 -72.5v-304h-77v296q0 23 -4 42.5t-18.5 31t-44.5 11.5q-28 0 -42.5 -10.5t-20 -26.5t-6.5 -32.5t-2 -29.5v-282h-77z" />
    <glyph glyph-name="two" unicode="2" horiz-adv-x="379" 
d="M37 0v57.5v57.5q0 51 14.5 81t42 49.5t68.5 39.5q35 17 58 36.5t35 48t12 70.5q1 47 -16.5 72t-58.5 25q-38 0 -57.5 -25t-19.5 -77v-47h-77v65q0 72 40 106.5t115 34.5q57 0 91 -17t49 -52t15 -89q0 -68 -26 -113t-81 -75q-29 -13 -53.5 -27.5t-41 -34t-20.5 -49.5
q-4 -17 -6.5 -35t-2.5 -38h235v-64h-315z" />
    <glyph glyph-name="two.tf" horiz-adv-x="420" 
d="M53 0v57.5v57.5q0 51 14.5 81t42 49.5t68.5 39.5q35 17 58 36.5t35 48t12 70.5q1 47 -16.5 72t-58.5 25q-38 0 -57.5 -25t-19.5 -77v-47h-77v65q0 72 40 106.5t115 34.5q57 0 91 -17t49 -52t15 -89q0 -68 -26 -113t-81 -75q-29 -13 -53.5 -27.5t-41 -34t-20.5 -49.5
q-4 -17 -6.5 -35t-2.5 -38h235v-64h-315z" />
    <glyph glyph-name="uni00B2" unicode="&#xb2;" horiz-adv-x="245" 
d="M33 236v57q0 45 14.5 68.5t59.5 44.5q39 18 51.5 38.5t12.5 53.5q0 29 -10.5 44.5t-34.5 15.5q-21 0 -33 -13t-12 -42v-39h-50v30q0 55 24 77.5t73 22.5q38 0 59 -11t29 -32t8 -48q0 -34 -9.5 -57t-26.5 -38t-41 -28q-38 -20 -50.5 -33.5t-14.5 -31.5q-2 -9 -2 -18.5
v-17.5h145v-43h-192z" />
    <glyph glyph-name="u" unicode="u" horiz-adv-x="375" 
d="M158 -8q-51 0 -75.5 18t-32 48t-7.5 65v372h76v-364q0 -20 2.5 -39t16.5 -31.5t46 -12.5q23 0 36.5 8t20.5 18.5t9 19.5v401h76v-495h-65l-6 55q-8 -25 -32.5 -44t-64.5 -19z" />
    <glyph glyph-name="uni0443" unicode="&#x443;" horiz-adv-x="327" 
d="M77 -117q-23 0 -41.5 3.5t-29.5 5.5v43q4 -1 14.5 -3.5t24.5 -2.5t32 5t29 28q4 9 10.5 21.5t2.5 28.5l-111 483h79l83 -419h-1l81 419h72l-105 -469q-15 -74 -48.5 -108.5t-91.5 -34.5z" />
    <glyph glyph-name="u.sc" horiz-adv-x="403" 
d="M201 -10q-46 0 -80 9.5t-51.5 36.5t-17.5 79v380h76v-399q0 -33 20.5 -45.5t52.5 -12.5q33 0 53.5 12t20.5 46v399h76v-380q0 -51 -18 -78.5t-51 -37t-81 -9.5z" />
    <glyph glyph-name="uacute" unicode="&#xfa;" horiz-adv-x="375" 
d="M158 -8q-51 0 -75.5 18t-32 48t-7.5 65v372h76v-364q0 -20 2.5 -39t16.5 -31.5t46 -12.5q23 0 36.5 8t20.5 18.5t9 19.5v401h76v-495h-65l-6 55q-8 -25 -32.5 -44t-64.5 -19zM146 546l57 95h77l-86 -95h-48z" />
    <glyph glyph-name="uni01D4" unicode="&#x1d4;" horiz-adv-x="375" 
d="M158 -8q-51 0 -75.5 18t-32 48t-7.5 65v372h76v-364q0 -20 2.5 -39t16.5 -31.5t46 -12.5q23 0 36.5 8t20.5 18.5t9 19.5v401h76v-495h-65l-6 55q-8 -25 -32.5 -44t-64.5 -19zM163 546l-91 96h50l65 -60l67 60h48l-91 -96h-48z" />
    <glyph glyph-name="ucircumflex" unicode="&#xfb;" horiz-adv-x="375" 
d="M158 -8q-51 0 -75.5 18t-32 48t-7.5 65v372h76v-364q0 -20 2.5 -39t16.5 -31.5t46 -12.5q23 0 36.5 8t20.5 18.5t9 19.5v401h76v-495h-65l-6 55q-8 -25 -32.5 -44t-64.5 -19zM73 546l91 96h47l91 -96h-48l-66 60l-65 -60h-50z" />
    <glyph glyph-name="udieresis" unicode="&#xfc;" horiz-adv-x="375" 
d="M158 -8q-51 0 -75.5 18t-32 48t-7.5 65v372h76v-364q0 -20 2.5 -39t16.5 -31.5t46 -12.5q23 0 36.5 8t20.5 18.5t9 19.5v401h76v-495h-65l-6 55q-8 -25 -32.5 -44t-64.5 -19zM136 554q-16 0 -26.5 10.5t-10.5 25.5t10.5 24.5t26.5 9.5q15 0 25.5 -9.5t10.5 -24.5
t-10.5 -25.5t-25.5 -10.5zM239 554q-15 0 -26 10.5t-11 25.5t11 24.5t26 9.5q16 0 26 -9.5t10 -24.5t-10 -25.5t-26 -10.5z" />
    <glyph glyph-name="uni01D8" unicode="&#x1d8;" horiz-adv-x="375" 
d="M158 -8q-51 0 -75.5 18t-32 48t-7.5 65v372h76v-364q0 -20 2.5 -39t16.5 -31.5t46 -12.5q23 0 36.5 8t20.5 18.5t9 19.5v401h76v-495h-65l-6 55q-8 -25 -32.5 -44t-64.5 -19zM136 554q-16 0 -26.5 10.5t-10.5 25.5t10.5 24.5t26.5 9.5q15 0 25.5 -9.5t10.5 -24.5
t-10.5 -25.5t-25.5 -10.5zM239 554q-15 0 -26 10.5t-11 25.5t11 24.5t26 9.5q16 0 26 -9.5t10 -24.5t-10 -25.5t-26 -10.5zM146 661l57 95h77l-86 -95h-48z" />
    <glyph glyph-name="uni01DA" unicode="&#x1da;" horiz-adv-x="375" 
d="M158 -8q-51 0 -75.5 18t-32 48t-7.5 65v372h76v-364q0 -20 2.5 -39t16.5 -31.5t46 -12.5q23 0 36.5 8t20.5 18.5t9 19.5v401h76v-495h-65l-6 55q-8 -25 -32.5 -44t-64.5 -19zM136 554q-16 0 -26.5 10.5t-10.5 25.5t10.5 24.5t26.5 9.5q15 0 25.5 -9.5t10.5 -24.5
t-10.5 -25.5t-25.5 -10.5zM239 554q-15 0 -26 10.5t-11 25.5t11 24.5t26 9.5q16 0 26 -9.5t10 -24.5t-10 -25.5t-26 -10.5zM163 661l-91 96h50l65 -60l67 60h48l-91 -96h-48z" />
    <glyph glyph-name="uni01DC" unicode="&#x1dc;" horiz-adv-x="375" 
d="M158 -8q-51 0 -75.5 18t-32 48t-7.5 65v372h76v-364q0 -20 2.5 -39t16.5 -31.5t46 -12.5q23 0 36.5 8t20.5 18.5t9 19.5v401h76v-495h-65l-6 55q-8 -25 -32.5 -44t-64.5 -19zM136 554q-16 0 -26.5 10.5t-10.5 25.5t10.5 24.5t26.5 9.5q15 0 25.5 -9.5t10.5 -24.5
t-10.5 -25.5t-25.5 -10.5zM239 554q-15 0 -26 10.5t-11 25.5t11 24.5t26 9.5q16 0 26 -9.5t10 -24.5t-10 -25.5t-26 -10.5zM184 661l-86 95h77l57 -95h-48z" />
    <glyph glyph-name="uni01D6" unicode="&#x1d6;" horiz-adv-x="375" 
d="M158 -8q-51 0 -75.5 18t-32 48t-7.5 65v372h76v-364q0 -20 2.5 -39t16.5 -31.5t46 -12.5q23 0 36.5 8t20.5 18.5t9 19.5v401h76v-495h-65l-6 55q-8 -25 -32.5 -44t-64.5 -19zM136 554q-16 0 -26.5 10.5t-10.5 25.5t10.5 24.5t26.5 9.5q15 0 25.5 -9.5t10.5 -24.5
t-10.5 -25.5t-25.5 -10.5zM239 554q-15 0 -26 10.5t-11 25.5t11 24.5t26 9.5q16 0 26 -9.5t10 -24.5t-10 -25.5t-26 -10.5zM92 679v41h191v-41h-191z" />
    <glyph glyph-name="uni1EE5" unicode="&#x1ee5;" horiz-adv-x="375" 
d="M158 -8q-51 0 -75.5 18t-32 48t-7.5 65v372h76v-364q0 -20 2.5 -39t16.5 -31.5t46 -12.5q23 0 36.5 8t20.5 18.5t9 19.5v401h76v-495h-65l-6 55q-8 -25 -32.5 -44t-64.5 -19zM187 -114q-16 0 -26.5 11t-10.5 25q0 15 10.5 25.5t26.5 10.5q15 0 26.5 -10.5t11.5 -25.5
q0 -14 -11.5 -25t-26.5 -11z" />
    <glyph glyph-name="ugrave" unicode="&#xf9;" horiz-adv-x="375" 
d="M158 -8q-51 0 -75.5 18t-32 48t-7.5 65v372h76v-364q0 -20 2.5 -39t16.5 -31.5t46 -12.5q23 0 36.5 8t20.5 18.5t9 19.5v401h76v-495h-65l-6 55q-8 -25 -32.5 -44t-64.5 -19zM184 546l-86 95h77l57 -95h-48z" />
    <glyph glyph-name="uni1EE7" unicode="&#x1ee7;" horiz-adv-x="375" 
d="M158 -8q-51 0 -75.5 18t-32 48t-7.5 65v372h76v-364q0 -20 2.5 -39t16.5 -31.5t46 -12.5q23 0 36.5 8t20.5 18.5t9 19.5v401h76v-495h-65l-6 55q-8 -25 -32.5 -44t-64.5 -19zM166 548v15q0 14 11.5 21.5t22.5 14t11 19.5v5q0 9 -6 17t-20 8q-19 0 -23 -23l-37 7
q3 23 19 35t45 12q34 0 50.5 -11.5t16.5 -44.5v-2q0 -22 -12 -31t-24 -14t-12 -17v-11h-42z" />
    <glyph glyph-name="uhorn" unicode="&#x1b0;" horiz-adv-x="375" 
d="M158 -8q-51 0 -75.5 18t-32 48t-7.5 65v372h76v-364q0 -20 2.5 -39t16.5 -31.5t46 -12.5q23 0 36.5 8t20.5 18.5t9 19.5v401h76v-495h-65l-6 55q-8 -25 -32.5 -44t-64.5 -19zM272 458l-2 36h14q47 0 47 45v17h52v-14q0 -43 -28 -64t-83 -20z" />
    <glyph glyph-name="uni1EE9" unicode="&#x1ee9;" horiz-adv-x="375" 
d="M158 -8q-51 0 -75.5 18t-32 48t-7.5 65v372h76v-364q0 -20 2.5 -39t16.5 -31.5t46 -12.5q23 0 36.5 8t20.5 18.5t9 19.5v401h76v-495h-65l-6 55q-8 -25 -32.5 -44t-64.5 -19zM272 458l-2 36h14q47 0 47 45v17h52v-14q0 -43 -28 -64t-83 -20zM146 546l57 95h77l-86 -95
h-48z" />
    <glyph glyph-name="uni1EF1" unicode="&#x1ef1;" horiz-adv-x="375" 
d="M158 -8q-51 0 -75.5 18t-32 48t-7.5 65v372h76v-364q0 -20 2.5 -39t16.5 -31.5t46 -12.5q23 0 36.5 8t20.5 18.5t9 19.5v401h76v-495h-65l-6 55q-8 -25 -32.5 -44t-64.5 -19zM272 458l-2 36h14q47 0 47 45v17h52v-14q0 -43 -28 -64t-83 -20zM187 -114q-16 0 -26.5 11
t-10.5 25q0 15 10.5 25.5t26.5 10.5q15 0 26.5 -10.5t11.5 -25.5q0 -14 -11.5 -25t-26.5 -11z" />
    <glyph glyph-name="uni1EEB" unicode="&#x1eeb;" horiz-adv-x="375" 
d="M158 -8q-51 0 -75.5 18t-32 48t-7.5 65v372h76v-364q0 -20 2.5 -39t16.5 -31.5t46 -12.5q23 0 36.5 8t20.5 18.5t9 19.5v401h76v-495h-65l-6 55q-8 -25 -32.5 -44t-64.5 -19zM272 458l-2 36h14q47 0 47 45v17h52v-14q0 -43 -28 -64t-83 -20zM184 546l-86 95h77l57 -95
h-48z" />
    <glyph glyph-name="uni1EED" unicode="&#x1eed;" horiz-adv-x="375" 
d="M158 -8q-51 0 -75.5 18t-32 48t-7.5 65v372h76v-364q0 -20 2.5 -39t16.5 -31.5t46 -12.5q23 0 36.5 8t20.5 18.5t9 19.5v401h76v-495h-65l-6 55q-8 -25 -32.5 -44t-64.5 -19zM272 458l-2 36h14q47 0 47 45v17h52v-14q0 -43 -28 -64t-83 -20zM166 548v15q0 14 11.5 21.5
t22.5 14t11 19.5v5q0 9 -6 17t-20 8q-19 0 -23 -23l-37 7q3 23 19 35t45 12q34 0 50.5 -11.5t16.5 -44.5v-2q0 -22 -12 -31t-24 -14t-12 -17v-11h-42z" />
    <glyph glyph-name="uni1EEF" unicode="&#x1eef;" horiz-adv-x="375" 
d="M158 -8q-51 0 -75.5 18t-32 48t-7.5 65v372h76v-364q0 -20 2.5 -39t16.5 -31.5t46 -12.5q23 0 36.5 8t20.5 18.5t9 19.5v401h76v-495h-65l-6 55q-8 -25 -32.5 -44t-64.5 -19zM272 458l-2 36h14q47 0 47 45v17h52v-14q0 -43 -28 -64t-83 -20zM232 553q-14 0 -24.5 5
t-24.5 13q-9 6 -20 12t-23 6t-20 -9t-10 -26h-27q1 32 16.5 52.5t41.5 20.5q15 0 27 -5.5t24 -13.5q11 -6 20.5 -11t19.5 -5q13 0 21 8.5t11 24.5h29q-1 -23 -10 -39t-22.5 -24.5t-28.5 -8.5z" />
    <glyph glyph-name="uhungarumlaut" unicode="&#x171;" horiz-adv-x="375" 
d="M158 -8q-51 0 -75.5 18t-32 48t-7.5 65v372h76v-364q0 -20 2.5 -39t16.5 -31.5t46 -12.5q23 0 36.5 8t20.5 18.5t9 19.5v401h76v-495h-65l-6 55q-8 -25 -32.5 -44t-64.5 -19zM130 546l25 95h64l-57 -95h-32zM207 546l33 95h64l-60 -95h-37z" />
    <glyph glyph-name="umacron" unicode="&#x16b;" horiz-adv-x="375" 
d="M158 -8q-51 0 -75.5 18t-32 48t-7.5 65v372h76v-364q0 -20 2.5 -39t16.5 -31.5t46 -12.5q23 0 36.5 8t20.5 18.5t9 19.5v401h76v-495h-65l-6 55q-8 -25 -32.5 -44t-64.5 -19zM92 564v41h191v-41h-191z" />
    </font>
</defs>
</svg>
