<?xml version="1.0" standalone="no"?>
<!DOCTYPE svg PUBLIC "-//W3C//DTD SVG 1.1//EN" "http://www.w3.org/Graphics/SVG/1.1/DTD/svg11.dtd" >
<svg xmlns="http://www.w3.org/2000/svg" xmlns:xlink="http://www.w3.org/1999/xlink" version="1.1">
<metadata>
Created by FontForge 20190801 at Sat Jun 19 15:30:53 2021
 By root
Copyright 2015 The Alumni Sans Project Authors (https://github.com/googlefonts/alumni)
</metadata>
<defs>
<font id="AlumniSans-Bold" horiz-adv-x="0" >
  <font-face 
    font-family="Alumni Sans"
    font-weight="700"
    font-stretch="normal"
    units-per-em="1000"
    panose-1="0 0 0 0 0 0 0 0 0 0"
    ascent="800"
    descent="-200"
    x-height="495"
    cap-height="591"
    bbox="-104 -298 974 840"
    underline-thickness="50"
    underline-position="-125"
    unicode-range="U+000D-FB02"
  />
<missing-glyph horiz-adv-x="437" 
d="M58 0l-8 9v611l8 10h320l9 -9v-613l-9 -8h-320zM50 9l307 612h30l-307 -612h-30zM357 9l-307 612h30l307 -612h-30zM107 66h223v497h-223v-497z" />
    <glyph glyph-name="f_f" unicode="ff" horiz-adv-x="545" 
d="M51 0v411h-32v65h32v47q0 35 9 57t25 33t35 15t40 4q19 0 40 -1t37.5 -2.5t21.5 -1.5v-55l-18.5 2t-40.5 2q-21 0 -28 -17.5t-7 -35.5v-47h165v47q0 35 9 57t24.5 33t35 15t39.5 4t41 -1t37.5 -2.5t21.5 -1.5v-55l-18.5 2t-40.5 2q-21 0 -28 -17.5t-7 -35.5v-47h94v-65
h-94v-411h-114v411h-165v-411h-114z" />
    <glyph glyph-name="f_f_i" unicode="ffi" horiz-adv-x="743" 
d="M51 0v411h-32v65h32v47q0 35 9 57t25 33t35 15t40 4q19 0 40 -1t37.5 -2.5t21.5 -1.5v-55l-18.5 2t-40.5 2q-21 0 -28 -17.5t-7 -35.5v-47h165v47q0 47 18.5 70.5t55.5 31t94 7.5q15 0 42 -1t58.5 -5t60.5 -15v-55q-15 6 -41 10.5t-55 7t-55 2.5q-28 0 -42 -8t-18 -20.5
t-4 -24.5v-47h265v-476h-114v411h-151v-411h-114v411h-165v-411h-114z" />
    <glyph glyph-name="f_f_l" unicode="ffl" horiz-adv-x="720" 
d="M51 0v411h-32v65h32v47q0 35 9 57t25 33t35 15t40 4q19 0 40 -1t37.5 -2.5t21.5 -1.5v-55l-18.5 2t-40.5 2q-21 0 -28 -17.5t-7 -35.5v-47h94v-65h-94v-411h-114zM317 0v411h-32v65h32v47q0 35 9 57t25 33t35 15t40 4q19 0 40 -1t37.5 -2.5t21.5 -1.5v-55l-18.5 2
t-40.5 2q-21 0 -28 -17.5t-7 -35.5v-47h94v-65h-94v-411h-114zM568 0v632h114v-632h-114z" />
    <glyph glyph-name="fi" unicode="fi" horiz-adv-x="454" 
d="M51 0v411h-32v65h32v47q0 35 9 57t25 33t35 15t40 4q19 0 40 -1t37.5 -2.5t21.5 -1.5v-55l-18.5 2t-40.5 2q-21 0 -28 -17.5t-7 -35.5v-47h94v-65h-94v-411h-114zM303 0v495h114v-495h-114zM360 549q-24 0 -41 16.5t-18 40.5q0 24 17.5 40.5t42.5 16.5q24 0 41.5 -16.5
t17.5 -40.5q1 -24 -17 -40.5t-43 -16.5z" />
    <glyph glyph-name="fl" unicode="fl" horiz-adv-x="454" 
d="M51 0v411h-32v65h32v47q0 35 9 57t25 33t35 15t40 4q19 0 40 -1t37.5 -2.5t21.5 -1.5v-55l-18.5 2t-40.5 2q-21 0 -28 -17.5t-7 -35.5v-47h94v-65h-94v-411h-114zM303 0v632h114v-632h-114z" />
    <glyph glyph-name=".notdef" horiz-adv-x="437" 
d="M58 0l-8 9v611l8 10h320l9 -9v-613l-9 -8h-320zM50 9l307 612h30l-307 -612h-30zM357 9l-307 612h30l307 -612h-30zM107 66h223v497h-223v-497z" />
    <glyph glyph-name="NULL" horiz-adv-x="600" 
 />
    <glyph glyph-name="CR" unicode="&#xd;" horiz-adv-x="600" 
 />
    <glyph glyph-name="space" unicode=" " horiz-adv-x="166" 
 />
    <glyph glyph-name="uni00A0" unicode="&#xa0;" horiz-adv-x="166" 
 />
    <glyph glyph-name="A" unicode="A" horiz-adv-x="392" 
d="M8 0l106 591h166l104 -591h-130l-18 109h-86l-17 -109h-125zM152 167h83l-41 321z" />
    <glyph glyph-name="uni0410" unicode="&#x410;" horiz-adv-x="392" 
d="M8 0l106 591h166l104 -591h-130l-18 109h-86l-17 -109h-125zM152 167h83l-41 321z" />
    <glyph glyph-name="AE" unicode="&#xc6;" horiz-adv-x="550" 
d="M1 0l177 591h340v-82h-171l3 -158h151v-91h-150l2 -180h177v-80h-304v109h-70l-30 -109h-125zM165 167h69l11 300l1 21l-4 -20z" />
    <glyph glyph-name="Aacute" unicode="&#xc1;" horiz-adv-x="392" 
d="M8 0l106 591h166l104 -591h-130l-18 109h-86l-17 -109h-125zM152 167h83l-41 321zM137 634l78 94h105l-119 -94h-64z" />
    <glyph glyph-name="Abreve" unicode="&#x102;" horiz-adv-x="392" 
d="M8 0l106 591h166l104 -591h-130l-18 109h-86l-17 -109h-125zM152 167h83l-41 321zM194 630q-46 0 -70 17t-32.5 40.5t-9.5 42.5h62q2 -23 17 -34t34 -11q21 0 35.5 10.5t16.5 34.5h62q0 -26 -12 -48.5t-36.5 -37t-66.5 -14.5z" />
    <glyph glyph-name="uni1EAE" unicode="&#x1eae;" horiz-adv-x="392" 
d="M8 0l106 591h166l104 -591h-130l-18 109h-86l-17 -109h-125zM152 167h83l-41 321zM195 625q-38 0 -56.5 13.5t-24.5 31.5t-7 33h61q0 -12 8.5 -18t19.5 -6q10 0 19 5.5t9 18.5h61q0 -33 -20.5 -55.5t-69.5 -22.5zM154 721l40 75h107l-76 -75h-71z" />
    <glyph glyph-name="uni1EB6" unicode="&#x1eb6;" horiz-adv-x="392" 
d="M8 0l106 591h166l104 -591h-130l-18 109h-86l-17 -109h-125zM152 167h83l-41 321zM196 -130q-21 0 -34.5 14t-13.5 32q0 20 13.5 33.5t34.5 13.5q19 0 33.5 -13.5t14.5 -33.5q0 -18 -14.5 -32t-33.5 -14zM194 630q-46 0 -70 17t-32.5 40.5t-9.5 42.5h62q2 -23 17 -34
t34 -11q21 0 35.5 10.5t16.5 34.5h62q0 -26 -12 -48.5t-36.5 -37t-66.5 -14.5z" />
    <glyph glyph-name="uni1EB0" unicode="&#x1eb0;" horiz-adv-x="392" 
d="M8 0l106 591h166l104 -591h-130l-18 109h-86l-17 -109h-125zM152 167h83l-41 321zM195 625q-38 0 -56.5 13.5t-24.5 31.5t-6 33h60q0 -13 9.5 -18.5t18.5 -5.5q11 0 19.5 5.5t9.5 18.5h60q1 -33 -20.5 -55.5t-69.5 -22.5zM174 721l-75 75h106l41 -75h-72z" />
    <glyph glyph-name="uni1EB2" unicode="&#x1eb2;" horiz-adv-x="392" 
d="M8 0l106 591h166l104 -591h-130l-18 109h-86l-17 -109h-125zM152 167h83l-41 321zM195 625q-38 0 -56.5 13.5t-24.5 31.5t-7 33h61q0 -12 8.5 -18t19.5 -6q10 0 19 5.5t9 18.5h61q0 -33 -20.5 -55.5t-69.5 -22.5zM165 721v6q0 11 8 16.5t16 10t8 12.5v4q0 8 -2.5 11
t-8.5 3q-4 0 -7.5 -3.5t-3.5 -9.5l-46 6q2 22 16 34t45 12q37 0 51.5 -9.5t14.5 -40.5v-3q0 -16 -7.5 -22t-15.5 -9.5t-8 -11.5v-6h-60z" />
    <glyph glyph-name="uni1EB4" unicode="&#x1eb4;" horiz-adv-x="392" 
d="M8 0l106 591h166l104 -591h-130l-18 109h-86l-17 -109h-125zM152 167h83l-41 321zM194 625q-38 0 -56.5 13.5t-24.5 31.5t-7 33h61q1 -12 9.5 -18t18.5 -6q11 0 19.5 5.5t9.5 18.5h60q1 -33 -20.5 -55.5t-69.5 -22.5zM231 719q-12 0 -22.5 4.5t-22.5 11.5l-15 7.5
t-17 3.5q-9 0 -14 -8t-5 -18h-30q0 33 14 54.5t36 21.5q12 0 23 -3.5t20 -8.5q10 -5 17.5 -8.5t16.5 -3.5q10 0 14.5 6t5.5 16h34q0 -25 -9 -42t-21.5 -25t-24.5 -8z" />
    <glyph glyph-name="uni01CD" unicode="&#x1cd;" horiz-adv-x="392" 
d="M8 0l106 591h166l104 -591h-130l-18 109h-86l-17 -109h-125zM152 167h83l-41 321zM164 631l-94 97h73l54 -47l55 47h71l-95 -97h-64z" />
    <glyph glyph-name="Acircumflex" unicode="&#xc2;" horiz-adv-x="392" 
d="M8 0l106 591h166l104 -591h-130l-18 109h-86l-17 -109h-125zM152 167h83l-41 321zM68 631l96 100h64l97 -100h-72l-56 50l-56 -50h-73z" />
    <glyph glyph-name="uni1EA4" unicode="&#x1ea4;" horiz-adv-x="392" 
d="M8 0l106 591h166l104 -591h-130l-18 109h-86l-17 -109h-125zM152 167h83l-41 321zM96 626l70 82h60l70 -82h-65l-34 35l-34 -35h-67zM295 681l41 75h106l-75 -75h-72z" />
    <glyph glyph-name="uni1EAC" unicode="&#x1eac;" horiz-adv-x="392" 
d="M8 0l106 591h166l104 -591h-130l-18 109h-86l-17 -109h-125zM152 167h83l-41 321zM196 -130q-21 0 -34.5 14t-13.5 32q0 20 13.5 33.5t34.5 13.5q19 0 33.5 -13.5t14.5 -33.5q0 -18 -14.5 -32t-33.5 -14zM68 631l96 100h64l97 -100h-72l-56 50l-56 -50h-73z" />
    <glyph glyph-name="uni1EA6" unicode="&#x1ea6;" horiz-adv-x="392" 
d="M8 0l106 591h166l104 -591h-130l-18 109h-86l-17 -109h-125zM152 167h83l-41 321zM96 626l70 82h60l70 -82h-65l-34 35l-34 -35h-67zM314 680l-75 75h106l41 -75h-72z" />
    <glyph glyph-name="uni1EA8" unicode="&#x1ea8;" horiz-adv-x="392" 
d="M8 0l106 591h166l104 -591h-130l-18 109h-86l-17 -109h-125zM152 167h83l-41 321zM96 626l70 82h60l70 -82h-65l-34 35l-34 -35h-67zM299 676v6q0 11 8 16.5t16 10t8 11.5v5q0 8 -3 11t-8 3q-9 0 -11 -14l-45 7q1 22 15.5 33.5t45.5 11.5q36 0 50.5 -9t14.5 -40v-3
q0 -16 -8 -22t-16 -9.5t-8 -11.5v-6h-59z" />
    <glyph glyph-name="uni1EAA" unicode="&#x1eaa;" horiz-adv-x="392" 
d="M8 0l106 591h166l104 -591h-130l-18 109h-86l-17 -109h-125zM152 167h83l-41 321zM96 626l70 82h60l70 -82h-65l-34 35l-34 -35h-67zM232 726q-12 0 -22.5 4.5t-20.5 9.5q-9 5 -17.5 8t-16.5 3t-13.5 -7t-5.5 -17h-30q0 34 14 54t37 20q11 0 22 -3t21 -9q8 -4 16 -7.5
t16 -3.5q12 0 16.5 6.5t5.5 14.5h34q0 -24 -9.5 -40.5t-22 -24.5t-24.5 -8z" />
    <glyph glyph-name="Adieresis" unicode="&#xc4;" horiz-adv-x="392" 
d="M8 0l106 591h166l104 -591h-130l-18 109h-86l-17 -109h-125zM152 167h83l-41 321zM137 634q-21 0 -34.5 13t-13.5 33q0 19 13.5 31.5t34.5 12.5q20 0 33 -12.5t13 -31.5q0 -20 -13 -33t-33 -13zM257 634q-20 0 -34 13t-14 33q0 19 14 31.5t34 12.5t33.5 -12.5t13.5 -31.5
q0 -20 -13.5 -33t-33.5 -13z" />
    <glyph glyph-name="uni1EA0" unicode="&#x1ea0;" horiz-adv-x="392" 
d="M8 0l106 591h166l104 -591h-130l-18 109h-86l-17 -109h-125zM152 167h83l-41 321zM196 -130q-21 0 -34.5 14t-13.5 32q0 20 13.5 33.5t34.5 13.5q19 0 33.5 -13.5t14.5 -33.5q0 -18 -14.5 -32t-33.5 -14z" />
    <glyph glyph-name="Agrave" unicode="&#xc0;" horiz-adv-x="392" 
d="M8 0l106 591h166l104 -591h-130l-18 109h-86l-17 -109h-125zM152 167h83l-41 321zM182 634l-111 91h107l76 -91h-72z" />
    <glyph glyph-name="uni1EA2" unicode="&#x1ea2;" horiz-adv-x="392" 
d="M8 0l106 591h166l104 -591h-130l-18 109h-86l-17 -109h-125zM152 167h83l-41 321zM163 628v12q0 15 10.5 22.5t21.5 14t11 18.5v6q0 8 -4 15t-15 7q-16 0 -18 -21l-51 8q3 27 21 41t53 14q39 0 59 -11.5t20 -50.5v-4q0 -22 -12 -30.5t-23.5 -13.5t-11.5 -17v-10h-61z" />
    <glyph glyph-name="Amacron" unicode="&#x100;" horiz-adv-x="392" 
d="M8 0l106 591h166l104 -591h-130l-18 109h-86l-17 -109h-125zM152 167h83l-41 321zM93 646v58h206v-58h-206z" />
    <glyph glyph-name="Aogonek" unicode="&#x104;" horiz-adv-x="392" 
d="M8 0l106 591h166l104 -591h-130l-18 109h-86l-17 -109h-125zM152 167h83l-41 321zM340 -144q-36 0 -59 19.5t-23 44.5q0 28 22.5 52t56.5 29l47 -1q-27 -9 -39.5 -28t-12.5 -36q0 -19 12.5 -29t24.5 -10q8 0 13.5 2t8.5 2l13 -30q-5 -3 -19.5 -9t-44.5 -6z" />
    <glyph glyph-name="Aring" unicode="&#xc5;" horiz-adv-x="392" 
d="M8 0l106 591h166l104 -591h-130l-18 109h-86l-17 -109h-125zM152 167h83l-41 321zM202 590q-37 0 -61.5 24t-24.5 57q0 35 24.5 59t61.5 24t62 -24.5t25 -58.5q0 -33 -25.5 -57t-61.5 -24zM202 636q17 0 28 10t11 25q0 18 -11 28t-28 10q-16 0 -27 -10t-11 -28
q0 -15 11 -25t27 -10z" />
    <glyph glyph-name="Atilde" unicode="&#xc3;" horiz-adv-x="392" 
d="M8 0l106 591h166l104 -591h-130l-18 109h-86l-17 -109h-125zM152 167h83l-41 321zM239 637q-15 0 -28 5.5t-27 13.5q-10 7 -21 12t-23 5q-13 0 -20.5 -9.5t-8.5 -25.5h-34q1 39 18.5 63.5t45.5 24.5q16 0 30 -5.5t26 -13.5q11 -6 21.5 -11t21.5 -5q14 0 21.5 9t9.5 23h37
q0 -28 -10.5 -47.5t-26.5 -29t-32 -9.5z" />
    <glyph glyph-name="B" unicode="B" horiz-adv-x="406" 
d="M42 0v591h210q56 0 85.5 -26.5t29.5 -73.5v-67q0 -26 -7.5 -47.5t-22.5 -36.5q-11 -11 -28 -17t-33 -7v-1q17 0 33 -4t30 -16q17 -13 27 -35.5t10 -55.5v-81q0 -48 -16.5 -75t-47 -37.5t-72.5 -10.5h-198zM159 61h54q15 0 24.5 5.5t15 20.5t5.5 44v70q0 40 -13.5 52.5
t-35.5 12.5h-50v-205zM159 339h47q23 0 36.5 16t13.5 56v59q0 31 -11.5 44.5t-29.5 13.5h-56v-189z" />
    <glyph glyph-name="uni0411" unicode="&#x411;" horiz-adv-x="388" 
d="M42 0v591h291v-82h-177v-73h88q33 0 58.5 -10t41 -35.5t15.5 -72.5v-163q0 -50 -9 -81t-26 -46.5t-41 -21.5t-55 -6h-186zM202 60q18 0 27 7t12.5 21t3.5 32v187q0 17 -3.5 30.5t-12.5 20.5t-28 7h-45v-305h46z" />
    <glyph glyph-name="C" unicode="C" horiz-adv-x="397" 
d="M202 -12q-49 0 -86.5 11.5t-59 48t-21.5 108.5v310q0 53 21.5 82t59.5 40.5t87 11.5q50 0 86.5 -12t56.5 -41t20 -81v-122h-116v127q0 24 -6 36.5t-16.5 16.5t-24.5 4t-25 -4t-17 -16.5t-6 -36.5v-358q0 -23 6 -35.5t17 -17t25 -4.5t24.5 4.5t16.5 17t6 35.5v117h116v-73
q0 -73 -20 -109.5t-56.5 -48t-87.5 -11.5z" />
    <glyph glyph-name="Cacute" unicode="&#x106;" horiz-adv-x="397" 
d="M202 -12q-49 0 -86.5 11.5t-59 48t-21.5 108.5v310q0 53 21.5 82t59.5 40.5t87 11.5q50 0 86.5 -12t56.5 -41t20 -81v-122h-116v127q0 24 -6 36.5t-16.5 16.5t-24.5 4t-25 -4t-17 -16.5t-6 -36.5v-358q0 -23 6 -35.5t17 -17t25 -4.5t24.5 4.5t16.5 17t6 35.5v117h116v-73
q0 -73 -20 -109.5t-56.5 -48t-87.5 -11.5zM139 634l78 94h105l-119 -94h-64z" />
    <glyph glyph-name="Ccaron" unicode="&#x10c;" horiz-adv-x="397" 
d="M202 -12q-49 0 -86.5 11.5t-59 48t-21.5 108.5v310q0 53 21.5 82t59.5 40.5t87 11.5q50 0 86.5 -12t56.5 -41t20 -81v-122h-116v127q0 24 -6 36.5t-16.5 16.5t-24.5 4t-25 -4t-17 -16.5t-6 -36.5v-358q0 -23 6 -35.5t17 -17t25 -4.5t24.5 4.5t16.5 17t6 35.5v117h116v-73
q0 -73 -20 -109.5t-56.5 -48t-87.5 -11.5zM166 631l-94 97h73l54 -47l55 47h71l-95 -97h-64z" />
    <glyph glyph-name="Ccedilla" unicode="&#xc7;" horiz-adv-x="397" 
d="M202 -12q-49 0 -86.5 11.5t-59 48t-21.5 108.5v310q0 53 21.5 82t59.5 40.5t87 11.5q50 0 86.5 -12t56.5 -41t20 -81v-122h-116v127q0 24 -6 36.5t-16.5 16.5t-24.5 4t-25 -4t-17 -16.5t-6 -36.5v-358q0 -23 6 -35.5t17 -17t25 -4.5t24.5 4.5t16.5 17t6 35.5v117h116v-73
q0 -73 -20 -109.5t-56.5 -48t-87.5 -11.5zM194 -161q-19 0 -35.5 7t-23.5 11l14 36q7 -5 19 -9t21 -4q16 0 24 7.5t8 19.5q0 10 -6.5 15.5t-16.5 5.5q-6 0 -11 -2t-9 -5l-32 17l32 62h43l-26 -52l-7 3q7 4 16.5 6.5t21.5 2.5q27 0 42.5 -17t15.5 -37q0 -28 -23.5 -47.5
t-66.5 -19.5z" />
    <glyph glyph-name="Cdotaccent" unicode="&#x10a;" horiz-adv-x="397" 
d="M202 -12q-49 0 -86.5 11.5t-59 48t-21.5 108.5v310q0 53 21.5 82t59.5 40.5t87 11.5q50 0 86.5 -12t56.5 -41t20 -81v-122h-116v127q0 24 -6 36.5t-16.5 16.5t-24.5 4t-25 -4t-17 -16.5t-6 -36.5v-358q0 -23 6 -35.5t17 -17t25 -4.5t24.5 4.5t16.5 17t6 35.5v117h116v-73
q0 -73 -20 -109.5t-56.5 -48t-87.5 -11.5zM211 635q-24 0 -41 16.5t-18 40.5q0 24 17.5 40.5t42.5 16.5q24 0 41.5 -16.5t17.5 -40.5q1 -24 -17 -40.5t-43 -16.5z" />
    <glyph glyph-name="uni0427" unicode="&#x427;" horiz-adv-x="381" 
d="M232 0v162q-10 -9 -35 -18.5t-54 -9.5q-47 0 -72 16t-33.5 45.5t-8.5 71.5v324h114v-324q0 -27 9.5 -41t34.5 -14q19 0 29.5 5t15.5 9v365h116v-591h-116z" />
    <glyph glyph-name="D" unicode="D" horiz-adv-x="408" 
d="M42 0v591h207q42 0 69.5 -12t41 -36.5t13.5 -61.5v-354q0 -49 -17 -77t-48.5 -39t-74.5 -11h-191zM163 60h51q20 0 31.5 12t11.5 45v351q0 33 -11.5 45t-31.5 12h-51v-465z" />
    <glyph glyph-name="Dcaron" unicode="&#x10e;" horiz-adv-x="408" 
d="M42 0v591h207q42 0 69.5 -12t41 -36.5t13.5 -61.5v-354q0 -49 -17 -77t-48.5 -39t-74.5 -11h-191zM163 60h51q20 0 31.5 12t11.5 45v351q0 33 -11.5 45t-31.5 12h-51v-465zM171 631l-94 97h73l54 -47l55 47h71l-95 -97h-64z" />
    <glyph glyph-name="Dcroat" unicode="&#x110;" horiz-adv-x="441" 
d="M60 0v591h222q42 0 69 -12t41 -36.5t14 -61.5v-354q0 -49 -17 -77t-48.5 -39t-74.5 -11h-206zM12 256v68h208v-68h-208zM180 60h59q26 0 38.5 12t12.5 45v351q0 33 -12.5 45t-38.5 12h-59v-465z" />
    <glyph glyph-name="uni0414" unicode="&#x414;" horiz-adv-x="603" 
d="M26 -114v188h54q19 2 34.5 24t19.5 58q5 37 10 83.5t9.5 96t8.5 97.5t6.5 89t4.5 69h304v-517h99v-188h-95v92h-359v-92h-96zM222 74h140v435h-81q-7 -85 -13.5 -170t-13.5 -170q-3 -27 -10 -55.5t-22 -39.5z" />
    <glyph glyph-name="uni0414.loclBGR" horiz-adv-x="603" 
d="M26 -114v188h54q19 2 34.5 24t19.5 58q5 37 10 83.5t9.5 96t8.5 97.5t6.5 89t4.5 69h304v-517h99v-188h-95v92h-359v-92h-96zM222 74h140v435h-81q-7 -85 -13.5 -170t-13.5 -170q-3 -27 -10 -55.5t-22 -39.5z" />
    <glyph glyph-name="uni0394" unicode="&#x394;" horiz-adv-x="555" 
d="M29 0l192 585h118l187 -585h-497zM164 88h220l-109 359z" />
    <glyph glyph-name="uni0402" unicode="&#x402;" horiz-adv-x="464" 
d="M103 0v509h-94v82h305v-82h-94v-140q9 16 35.5 30.5t64.5 14.5q35 0 60.5 -10.5t40 -36.5t14.5 -72v-133q0 -57 -10.5 -90t-28.5 -48.5t-42.5 -19.5t-53.5 -4q-11 0 -25 3t-22 7v52q5 -1 11 -1.5t11 -0.5q24 0 34.5 17.5t10.5 53.5v155q0 30 -9.5 43.5t-39.5 13.5
q-23 0 -34.5 -9t-16.5 -20v-314h-117z" />
    <glyph glyph-name="uni0405" unicode="&#x405;" horiz-adv-x="391" 
d="M192 -7q-53 0 -90.5 15t-57.5 53t-20 107v35h61h60v-45q0 -37 6 -56.5t17 -27t26 -7.5q23 0 36.5 16.5t13.5 64.5q0 37 -11.5 55.5t-36.5 30t-64 28.5q-35 15 -58 36t-34 53t-11 78q0 58 15.5 94t52 52.5t98.5 16.5q80 0 122.5 -34.5t42.5 -103.5v-71h-57.5h-58.5v36
q0 45 -10.5 63t-37.5 18q-26 0 -37 -16t-11 -52q0 -33 13.5 -51.5t34.5 -28t45 -18.5q44 -17 72 -34.5t41 -48t13 -87.5q0 -64 -21.5 -101.5t-61 -53.5t-92.5 -16z" />
    <glyph glyph-name="uni040F" unicode="&#x40f;" horiz-adv-x="397" 
d="M161 -99v99h-128v591h121v-509h90v509h121v-591h-129v-99h-75z" />
    <glyph glyph-name="E" unicode="E" horiz-adv-x="334" 
d="M42 0v591h272v-82h-151v-158h128v-91h-128v-180h151v-80h-272z" />
    <glyph glyph-name="Eacute" unicode="&#xc9;" horiz-adv-x="334" 
d="M42 0v591h272v-82h-151v-158h128v-91h-128v-180h151v-80h-272zM118 634l78 94h105l-119 -94h-64z" />
    <glyph glyph-name="Ecaron" unicode="&#x11a;" horiz-adv-x="334" 
d="M42 0v591h272v-82h-151v-158h128v-91h-128v-180h151v-80h-272zM145 631l-94 97h73l54 -47l55 47h71l-95 -97h-64z" />
    <glyph glyph-name="Ecircumflex" unicode="&#xca;" horiz-adv-x="334" 
d="M42 0v591h272v-82h-151v-158h128v-91h-128v-180h151v-80h-272zM49 631l96 100h64l97 -100h-72l-56 50l-56 -50h-73z" />
    <glyph glyph-name="uni1EBE" unicode="&#x1ebe;" horiz-adv-x="334" 
d="M42 0v591h272v-82h-151v-158h128v-91h-128v-180h151v-80h-272zM77 626l70 82h60l70 -82h-65l-34 35l-34 -35h-67zM276 681l41 75h106l-75 -75h-72z" />
    <glyph glyph-name="uni1EC6" unicode="&#x1ec6;" horiz-adv-x="334" 
d="M42 0v591h272v-82h-151v-158h128v-91h-128v-180h151v-80h-272zM176 -130q-21 0 -34.5 14t-13.5 32q0 20 13.5 33.5t34.5 13.5q19 0 33.5 -13.5t14.5 -33.5q0 -18 -14.5 -32t-33.5 -14zM49 631l96 100h64l97 -100h-72l-56 50l-56 -50h-73z" />
    <glyph glyph-name="uni1EC0" unicode="&#x1ec0;" horiz-adv-x="334" 
d="M42 0v591h272v-82h-151v-158h128v-91h-128v-180h151v-80h-272zM77 626l70 82h60l70 -82h-65l-34 35l-34 -35h-67zM295 680l-75 75h106l41 -75h-72z" />
    <glyph glyph-name="uni1EC2" unicode="&#x1ec2;" horiz-adv-x="334" 
d="M42 0v591h272v-82h-151v-158h128v-91h-128v-180h151v-80h-272zM77 626l70 82h60l70 -82h-65l-34 35l-34 -35h-67zM280 676v6q0 11 8 16.5t16 10t8 11.5v5q0 8 -3 11t-8 3q-9 0 -11 -14l-45 7q1 22 15.5 33.5t45.5 11.5q36 0 50.5 -9t14.5 -40v-3q0 -16 -8 -22t-16 -9.5
t-8 -11.5v-6h-59z" />
    <glyph glyph-name="uni1EC4" unicode="&#x1ec4;" horiz-adv-x="334" 
d="M42 0v591h272v-82h-151v-158h128v-91h-128v-180h151v-80h-272zM77 626l70 82h60l70 -82h-65l-34 35l-34 -35h-67zM213 726q-12 0 -22.5 4.5t-20.5 9.5q-9 5 -17.5 8t-16.5 3t-13.5 -7t-5.5 -17h-30q0 34 14 54t37 20q11 0 22 -3t21 -9q8 -4 16 -7.5t16 -3.5
q12 0 16.5 6.5t5.5 14.5h34q0 -24 -9.5 -40.5t-22 -24.5t-24.5 -8z" />
    <glyph glyph-name="Edieresis" unicode="&#xcb;" horiz-adv-x="334" 
d="M42 0v591h272v-82h-151v-158h128v-91h-128v-180h151v-80h-272zM118 634q-21 0 -34.5 13t-13.5 33q0 19 13.5 31.5t34.5 12.5q20 0 33 -12.5t13 -31.5q0 -20 -13 -33t-33 -13zM238 634q-20 0 -34 13t-14 33q0 19 14 31.5t34 12.5t33.5 -12.5t13.5 -31.5q0 -20 -13.5 -33
t-33.5 -13z" />
    <glyph glyph-name="Edotaccent" unicode="&#x116;" horiz-adv-x="334" 
d="M42 0v591h272v-82h-151v-158h128v-91h-128v-180h151v-80h-272zM189 635q-24 0 -41 16.5t-18 40.5q0 24 17.5 40.5t42.5 16.5q24 0 41.5 -16.5t17.5 -40.5q1 -24 -17 -40.5t-43 -16.5z" />
    <glyph glyph-name="uni1EB8" unicode="&#x1eb8;" horiz-adv-x="334" 
d="M42 0v591h272v-82h-151v-158h128v-91h-128v-180h151v-80h-272zM176 -130q-21 0 -34.5 14t-13.5 32q0 20 13.5 33.5t34.5 13.5q19 0 33.5 -13.5t14.5 -33.5q0 -18 -14.5 -32t-33.5 -14z" />
    <glyph glyph-name="uni0424" unicode="&#x424;" horiz-adv-x="527" 
d="M206 -27v98h-34q-71 0 -108.5 29t-37.5 100v199q0 54 31 83.5t99 29.5h50v79h115v-79h49q68 0 99.5 -29t31.5 -85v-197q0 -74 -38.5 -102t-109.5 -28h-32v-98h-115zM191 131h15v158.5v156.5h-15q-24 0 -36.5 -13.5t-12.5 -45.5v-196q0 -32 12.5 -46t36.5 -14zM321 131h13
q25 0 38 13t13 47v195q0 34 -13 47t-38 13h-13v-156.5v-158.5z" />
    <glyph glyph-name="uni0424.loclBGR" horiz-adv-x="527" 
d="M206 -27v98h-34q-71 0 -108.5 29t-37.5 100v199q0 54 31 83.5t99 29.5h50v79h115v-79h49q68 0 99.5 -29t31.5 -85v-197q0 -74 -38.5 -102t-109.5 -28h-32v-98h-115zM191 131h15v158.5v156.5h-15q-24 0 -36.5 -13.5t-12.5 -45.5v-196q0 -32 12.5 -46t36.5 -14zM321 131h13
q25 0 38 13t13 47v195q0 34 -13 47t-38 13h-13v-156.5v-158.5z" />
    <glyph glyph-name="Egrave" unicode="&#xc8;" horiz-adv-x="334" 
d="M42 0v591h272v-82h-151v-158h128v-91h-128v-180h151v-80h-272zM163 634l-111 91h107l76 -91h-72z" />
    <glyph glyph-name="uni1EBA" unicode="&#x1eba;" horiz-adv-x="334" 
d="M42 0v591h272v-82h-151v-158h128v-91h-128v-180h151v-80h-272zM145 628v12q0 15 10.5 22.5t21.5 14t11 18.5v6q0 8 -4 15t-15 7q-16 0 -18 -21l-51 8q3 27 21 41t53 14q39 0 59 -11.5t20 -50.5v-4q0 -22 -12 -30.5t-23.5 -13.5t-11.5 -17v-10h-61z" />
    <glyph glyph-name="uni041B" unicode="&#x41b;" horiz-adv-x="447" 
d="M10 0v60q18 0 34.5 22t18.5 54l32 455h319v-591h-116v509h-89l-30 -403q-2 -18 -4 -36.5t-10.5 -34t-27.5 -25t-53 -10.5h-74z" />
    <glyph glyph-name="uni041B.loclBGR" horiz-adv-x="447" 
d="M10 0v60q18 0 34.5 22t18.5 54l32 455h319v-591h-116v509h-89l-30 -403q-2 -18 -4 -36.5t-10.5 -34t-27.5 -25t-53 -10.5h-74z" />
    <glyph glyph-name="uni041C" unicode="&#x41c;" horiz-adv-x="536" 
d="M42 0v591h145l81 -382l82 382h144v-591h-102v442l-85 -442h-79l-84 442v-442h-102z" />
    <glyph glyph-name="Emacron" unicode="&#x112;" horiz-adv-x="334" 
d="M42 0v591h272v-82h-151v-158h128v-91h-128v-180h151v-80h-272zM74 646v58h206v-58h-206z" />
    <glyph glyph-name="uni041D" unicode="&#x41d;" horiz-adv-x="413" 
d="M42 0v591h116v-242h97v242h116v-591h-116v263h-97v-263h-116z" />
    <glyph glyph-name="Eng" unicode="&#x14a;" horiz-adv-x="410" 
d="M231 -186h-23.5t-23.5 1v80h30q30 0 41 10t11 43v54l-121 332l-1 -334h-102l1 591h101l122 -358l1 358h102l-1 -630q0 -58 -12.5 -89.5t-43 -44.5t-81.5 -13z" />
    <glyph glyph-name="Eogonek" unicode="&#x118;" horiz-adv-x="334" 
d="M42 0v591h272v-82h-151v-158h128v-91h-128v-180h151v-80h-272zM236 -144q-36 0 -59 19.5t-23 44.5q0 28 22.5 52t56.5 29l47 -1q-27 -9 -39.5 -28t-12.5 -36q0 -19 12.5 -29t24.5 -10q8 0 13.5 2t8.5 2l13 -30q-5 -3 -19.5 -9t-44.5 -6z" />
    <glyph glyph-name="uni0420" unicode="&#x420;" horiz-adv-x="392" 
d="M42 0v591h210q59 0 89.5 -26.5t30.5 -73.5v-102q0 -40 -10 -74.5t-36 -55.5t-75 -21h-88v-238h-121zM163 302h45q24 0 36 23t12 76v40q0 47 -10 67t-29 20h-54v-226z" />
    <glyph glyph-name="uni042D" unicode="&#x42d;" horiz-adv-x="394" 
d="M193 -12q-49 0 -86.5 11.5t-57.5 48t-20 109.5v36h117v-79q0 -23 6 -35.5t17 -16.5t24 -4q15 0 25.5 4t16 16.5t5.5 35.5v135h-133v78h133v141q0 24 -5.5 36t-16 16.5t-25.5 4.5q-13 0 -24 -4t-17 -16t-6 -35v-94h-117v90q0 52 20 81t57 41t87 12t87.5 -12t59 -41
t21.5 -81v-310q0 -72 -21 -108.5t-59 -48t-88 -11.5z" />
    <glyph glyph-name="uni0421" unicode="&#x421;" horiz-adv-x="397" 
d="M202 -12q-49 0 -86.5 11.5t-59 48t-21.5 108.5v310q0 53 21.5 82t59.5 40.5t87 11.5q50 0 86.5 -12t56.5 -41t20 -81v-122h-116v127q0 24 -6 36.5t-16.5 16.5t-24.5 4t-25 -4t-17 -16.5t-6 -36.5v-358q0 -23 6 -35.5t17 -17t25 -4.5t24.5 4.5t16.5 17t6 35.5v117h116v-73
q0 -73 -20 -109.5t-56.5 -48t-87.5 -11.5z" />
    <glyph glyph-name="Eth" unicode="&#xd0;" horiz-adv-x="441" 
d="M60 0v591h222q42 0 69 -12t41 -36.5t14 -61.5v-354q0 -49 -17 -77t-48.5 -39t-74.5 -11h-206zM12 256v68h208v-68h-208zM180 60h59q26 0 38.5 12t12.5 45v351q0 33 -12.5 45t-38.5 12h-59v-465z" />
    <glyph glyph-name="uni1EBC" unicode="&#x1ebc;" horiz-adv-x="334" 
d="M42 0v591h272v-82h-151v-158h128v-91h-128v-180h151v-80h-272zM220 637q-15 0 -28 5.5t-27 13.5q-10 7 -21 12t-23 5q-13 0 -20.5 -9.5t-8.5 -25.5h-34q1 39 18.5 63.5t45.5 24.5q16 0 30 -5.5t26 -13.5q11 -6 21.5 -11t21.5 -5q14 0 21.5 9t9.5 23h37q0 -28 -10.5 -47.5
t-26.5 -29t-32 -9.5z" />
    <glyph glyph-name="F" unicode="F" horiz-adv-x="329" 
d="M42 0v591h272v-82h-151v-158h128v-91h-128v-260h-121z" />
    <glyph glyph-name="G" unicode="G" horiz-adv-x="398" 
d="M166 -11q-34 0 -63.5 11t-48.5 43.5t-19 97.5v324q0 52 20.5 81t57.5 40.5t86 11.5t86.5 -11.5t59 -40.5t21.5 -81v-83h-113v89q0 24 -6.5 36.5t-17.5 16.5t-27 4q-15 0 -26.5 -4t-18 -16.5t-6.5 -36.5v-358q0 -23 6.5 -35.5t18 -17t26.5 -4.5q23 0 37 14t14 43v118h-48
v66h161v-297h-87l-6 46l-4 -6t-3 -5q-10 -17 -33.5 -31.5t-66.5 -14.5z" />
    <glyph glyph-name="Gbreve" unicode="&#x11e;" horiz-adv-x="398" 
d="M166 -11q-34 0 -63.5 11t-48.5 43.5t-19 97.5v324q0 52 20.5 81t57.5 40.5t86 11.5t86.5 -11.5t59 -40.5t21.5 -81v-83h-113v89q0 24 -6.5 36.5t-17.5 16.5t-27 4q-15 0 -26.5 -4t-18 -16.5t-6.5 -36.5v-358q0 -23 6.5 -35.5t18 -17t26.5 -4.5q23 0 37 14t14 43v118h-48
v66h161v-297h-87l-6 46l-4 -6t-3 -5q-10 -17 -33.5 -31.5t-66.5 -14.5zM198 630q-46 0 -70 17t-32.5 40.5t-9.5 42.5h62q2 -23 17 -34t34 -11q21 0 35.5 10.5t16.5 34.5h62q0 -26 -12 -48.5t-36.5 -37t-66.5 -14.5z" />
    <glyph glyph-name="uni0122" unicode="&#x122;" horiz-adv-x="398" 
d="M166 -11q-34 0 -63.5 11t-48.5 43.5t-19 97.5v324q0 52 20.5 81t57.5 40.5t86 11.5t86.5 -11.5t59 -40.5t21.5 -81v-83h-113v89q0 24 -6.5 36.5t-17.5 16.5t-27 4q-15 0 -26.5 -4t-18 -16.5t-6.5 -36.5v-358q0 -23 6.5 -35.5t18 -17t26.5 -4.5q23 0 37 14t14 43v118h-48
v66h161v-297h-87l-6 46l-4 -6t-3 -5q-10 -17 -33.5 -31.5t-66.5 -14.5zM146 -189q14 21 23 39t9 30q0 7 -7 12t-14 12.5t-7 20.5q0 14 14 26t35 12q23 0 37 -13t14 -31q0 -14 -9 -34t-22 -39.5t-27 -34.5h-46z" />
    <glyph glyph-name="Gdotaccent" unicode="&#x120;" horiz-adv-x="398" 
d="M166 -11q-34 0 -63.5 11t-48.5 43.5t-19 97.5v324q0 52 20.5 81t57.5 40.5t86 11.5t86.5 -11.5t59 -40.5t21.5 -81v-83h-113v89q0 24 -6.5 36.5t-17.5 16.5t-27 4q-15 0 -26.5 -4t-18 -16.5t-6.5 -36.5v-358q0 -23 6.5 -35.5t18 -17t26.5 -4.5q23 0 37 14t14 43v118h-48
v66h161v-297h-87l-6 46l-4 -6t-3 -5q-10 -17 -33.5 -31.5t-66.5 -14.5zM211 635q-24 0 -41 16.5t-18 40.5q0 24 17.5 40.5t42.5 16.5q24 0 41.5 -16.5t17.5 -40.5q1 -24 -17 -40.5t-43 -16.5z" />
    <glyph glyph-name="uni0413" unicode="&#x413;" horiz-adv-x="319" 
d="M33 0v591h273v-82h-152v-509h-121z" />
    <glyph glyph-name="uni1E9E" unicode="&#x1e9e;" horiz-adv-x="797" 
d="M582 -7q-52 0 -89.5 15t-56.5 53t-19 107v35h61h60v-45q0 -37 6 -56.5t17 -27t26 -7.5q23 0 36.5 16.5t13.5 64.5q0 37 -11.5 55.5t-36.5 30t-65 28.5q-35 15 -57.5 36t-33.5 53t-11 78q0 58 15 94t51.5 52.5t99.5 16.5q80 0 122.5 -34.5t42.5 -103.5v-71h-58h-58v36
q0 45 -10.5 63t-37.5 18t-37.5 -16t-10.5 -52q0 -33 13 -51.5t34.5 -28t44.5 -18.5q45 -17 72.5 -34.5t40.5 -48t13 -87.5q0 -64 -22 -101.5t-61.5 -53.5t-93.5 -16zM202 -7q-53 0 -90 15t-56 53t-19 107v35h60.5h60.5v-45q0 -37 6 -56.5t16.5 -27t25.5 -7.5q23 0 36.5 16.5
t13.5 64.5q0 37 -11.5 55.5t-36 30t-64.5 28.5q-35 15 -58 36t-34 53t-11 78q0 58 15.5 94t52 52.5t98.5 16.5q81 0 123.5 -34.5t42.5 -103.5v-71h-58.5h-57.5v36q0 45 -10.5 63t-37.5 18t-37.5 -16t-10.5 -52q0 -33 13 -51.5t34.5 -28t44.5 -18.5q45 -17 72.5 -34.5
t40.5 -48t13 -87.5q0 -64 -22 -101.5t-61.5 -53.5t-93.5 -16z" />
    <glyph glyph-name="uni0403" unicode="&#x403;" horiz-adv-x="319" 
d="M33 0v591h273v-82h-152v-509h-121zM100 634l78 94h105l-119 -94h-64z" />
    <glyph glyph-name="H" unicode="H" horiz-adv-x="413" 
d="M42 0v591h116v-242h97v242h116v-591h-116v263h-97v-263h-116z" />
    <glyph glyph-name="uni0425" unicode="&#x425;" horiz-adv-x="366" 
d="M10 0l87 304l-82 287h116l52 -197l51 197h122l-84 -287l82 -304h-116l-54 197l-51 -197h-123z" />
    <glyph glyph-name="uni042A" unicode="&#x42a;" horiz-adv-x="412" 
d="M62 0v509h-55v82h170v-155h88q32 0 58 -10t41 -35.5t15 -72.5v-163q0 -50 -9 -81t-26 -46.5t-41 -21.5t-55 -6h-186zM177 60h46q18 0 27 9t12 30t3 60v134q0 23 -2.5 39t-11.5 24.5t-29 8.5h-45v-305z" />
    <glyph glyph-name="Hbar" unicode="&#x126;" horiz-adv-x="413" 
d="M12 473v54h398v-54h-398zM42 0v591h116v-242h97v242h116v-591h-116v263h-97v-263h-116z" />
    <glyph glyph-name="I" unicode="I" horiz-adv-x="200" 
d="M42 0v591h116v-591h-116z" />
    <glyph glyph-name="uni0406" unicode="&#x406;" horiz-adv-x="200" 
d="M42 0v591h116v-591h-116z" />
    <glyph glyph-name="uni042F" unicode="&#x42f;" horiz-adv-x="420" 
d="M378 0h-121v253h-34q-10 0 -16.5 -7.5t-11 -20.5t-8.5 -29l-43 -196h-128l56 204q10 39 24.5 56.5t48.5 22.5v0q-53 5 -77.5 37t-24.5 79v92q0 47 30 73.5t89 26.5h216v-591zM257 333v195h-57q-20 0 -31.5 -13t-11.5 -45v-71q0 -36 13 -51t38 -15h49z" />
    <glyph glyph-name="Iacute" unicode="&#xcd;" horiz-adv-x="200" 
d="M42 0v591h116v-591h-116zM41 634l78 94h105l-119 -94h-64z" />
    <glyph glyph-name="uni01CF" unicode="&#x1cf;" horiz-adv-x="200" 
d="M42 0v591h116v-591h-116zM68 631l-94 97h73l54 -47l55 47h71l-95 -97h-64z" />
    <glyph glyph-name="Icircumflex" unicode="&#xce;" horiz-adv-x="200" 
d="M42 0v591h116v-591h-116zM-28 631l96 100h64l97 -100h-72l-56 50l-56 -50h-73z" />
    <glyph glyph-name="Idieresis" unicode="&#xcf;" horiz-adv-x="200" 
d="M42 0v591h116v-591h-116zM41 634q-21 0 -34.5 13t-13.5 33q0 19 13.5 31.5t34.5 12.5q20 0 33 -12.5t13 -31.5q0 -20 -13 -33t-33 -13zM161 634q-20 0 -34 13t-14 33q0 19 14 31.5t34 12.5t33.5 -12.5t13.5 -31.5q0 -20 -13.5 -33t-33.5 -13z" />
    <glyph glyph-name="Idotaccent" unicode="&#x130;" horiz-adv-x="200" 
d="M42 0v591h116v-591h-116zM112 635q-24 0 -41 16.5t-18 40.5q0 24 17.5 40.5t42.5 16.5q24 0 41.5 -16.5t17.5 -40.5q1 -24 -17 -40.5t-43 -16.5z" />
    <glyph glyph-name="uni1ECA" unicode="&#x1eca;" horiz-adv-x="200" 
d="M42 0v591h116v-591h-116zM100 -130q-21 0 -34.5 14t-13.5 32q0 20 13.5 33.5t34.5 13.5q19 0 33.5 -13.5t14.5 -33.5q0 -18 -14.5 -32t-33.5 -14z" />
    <glyph glyph-name="uni0415" unicode="&#x415;" horiz-adv-x="334" 
d="M42 0v591h272v-82h-151v-158h128v-91h-128v-180h151v-80h-272z" />
    <glyph glyph-name="uni0400" unicode="&#x400;" horiz-adv-x="334" 
d="M42 0v591h272v-82h-151v-158h128v-91h-128v-180h151v-80h-272zM167 634l-111 91h107l76 -91h-72z" />
    <glyph glyph-name="Igrave" unicode="&#xcc;" horiz-adv-x="200" 
d="M42 0v591h116v-591h-116zM86 634l-111 91h107l76 -91h-72z" />
    <glyph glyph-name="uni1EC8" unicode="&#x1ec8;" horiz-adv-x="200" 
d="M42 0v591h116v-591h-116zM67 628v12q0 15 10.5 22.5t21.5 14t11 18.5v6q0 8 -4 15t-15 7q-16 0 -18 -21l-51 8q3 27 21 41t53 14q39 0 59 -11.5t20 -50.5v-4q0 -22 -12 -30.5t-23.5 -13.5t-11.5 -17v-10h-61z" />
    <glyph glyph-name="uni0418" unicode="&#x418;" horiz-adv-x="392" 
d="M33 0v591h102v-359l123 359h101v-591h-102v335l-122 -335h-102z" />
    <glyph glyph-name="uni040D" unicode="&#x40d;" horiz-adv-x="392" 
d="M33 0v591h102v-359l123 359h101v-591h-102v335l-122 -335h-102zM182 634l-111 91h107l76 -91h-72z" />
    <glyph glyph-name="uni0419" unicode="&#x419;" horiz-adv-x="392" 
d="M33 0v591h102v-359l123 359h101v-591h-102v335l-122 -335h-102zM194 630q-46 0 -70 17t-32.5 40.5t-9.5 42.5h62q2 -23 17 -34t34 -11q21 0 35.5 10.5t16.5 34.5h62q0 -26 -12 -48.5t-36.5 -37t-66.5 -14.5z" />
    <glyph glyph-name="Imacron" unicode="&#x12a;" horiz-adv-x="200" 
d="M42 0v591h116v-591h-116zM-3 646v58h206v-58h-206z" />
    <glyph glyph-name="uni0401" unicode="&#x401;" horiz-adv-x="334" 
d="M42 0v591h272v-82h-151v-158h128v-91h-128v-180h151v-80h-272zM121 634q-21 0 -34.5 13t-13.5 33q0 19 13.5 31.5t34.5 12.5q20 0 33 -12.5t13 -31.5q0 -20 -13 -33t-33 -13zM241 634q-20 0 -34 13t-14 33q0 19 14 31.5t34 12.5t33.5 -12.5t13.5 -31.5q0 -20 -13.5 -33
t-33.5 -13z" />
    <glyph glyph-name="Iogonek" unicode="&#x12e;" horiz-adv-x="200" 
d="M42 0v591h116v-591h-116zM114 -144q-36 0 -59 19.5t-23 44.5q0 28 22.5 52t56.5 29l47 -1q-27 -9 -39.5 -28t-12.5 -36q0 -19 12.5 -29t24.5 -10q8 0 13.5 2t8.5 2l13 -30q-5 -3 -19.5 -9t-44.5 -6z" />
    <glyph glyph-name="Itilde" unicode="&#x128;" horiz-adv-x="200" 
d="M42 0v591h116v-591h-116zM143 637q-15 0 -28 5.5t-27 13.5q-10 7 -21 12t-23 5q-13 0 -20.5 -9.5t-8.5 -25.5h-34q1 39 18.5 63.5t45.5 24.5q16 0 30 -5.5t26 -13.5q11 -6 21.5 -11t21.5 -5q14 0 21.5 9t9.5 23h37q0 -28 -10.5 -47.5t-26.5 -29t-32 -9.5z" />
    <glyph glyph-name="uni042E" unicode="&#x42e;" horiz-adv-x="596" 
d="M399 -12q-49 0 -87 11.5t-59.5 48t-21.5 109.5v106h-82v-263h-116v591h116v-242h82v117q0 52 21.5 81.5t59.5 41t87 11.5q51 0 87.5 -12t56.5 -41t20 -81v-309q0 -73 -20 -109.5t-57 -48t-87 -11.5zM399 56q14 0 24.5 4.5t17 16.5t6.5 35v360q0 24 -6.5 36t-17 16
t-24.5 4q-13 0 -24 -4t-17 -16t-6 -36v-360q0 -23 6 -35t17 -16.5t24 -4.5z" />
    <glyph glyph-name="J" unicode="J" horiz-adv-x="244" 
d="M54 -1h-23.5t-24.5 1v80h31q30 -1 40.5 10t10.5 42v459h116v-445q0 -57 -14.5 -89.5t-47 -45t-88.5 -12.5z" />
    <glyph glyph-name="uni0408" unicode="&#x408;" horiz-adv-x="244" 
d="M54 -1h-23.5t-24.5 1v80h31q30 -1 40.5 10t10.5 42v459h116v-445q0 -57 -14.5 -89.5t-47 -45t-88.5 -12.5z" />
    <glyph glyph-name="K" unicode="K" horiz-adv-x="410" 
d="M276 0l-113 307l111 284h124l-121 -284l125 -307h-126zM42 0v591h116v-591h-116z" />
    <glyph glyph-name="uni041A" unicode="&#x41a;" horiz-adv-x="428" 
d="M33 0v591h116v-257h37l101 257h125l-120 -284l123 -307h-126l-98 257h-42v-257h-116z" />
    <glyph glyph-name="uni0136" unicode="&#x136;" horiz-adv-x="410" 
d="M276 0l-113 307l111 284h124l-121 -284l125 -307h-126zM42 0v591h116v-591h-116zM158 -189q14 21 23 39t9 30q0 7 -7 12t-14 12.5t-7 20.5q0 14 14 26t35 12q23 0 37 -13t14 -31q0 -14 -9 -34t-22 -39.5t-27 -34.5h-46z" />
    <glyph glyph-name="uni040C" unicode="&#x40c;" horiz-adv-x="428" 
d="M33 0v591h116v-257h37l101 257h125l-120 -284l123 -307h-126l-98 257h-42v-257h-116zM154 634l78 94h105l-119 -94h-64z" />
    <glyph glyph-name="L" unicode="L" horiz-adv-x="299" 
d="M42 0v591h115v-511h134v-80h-249z" />
    <glyph glyph-name="Lacute" unicode="&#x139;" horiz-adv-x="299" 
d="M42 0v591h115v-511h134v-80h-249zM72 634l78 94h105l-119 -94h-64z" />
    <glyph glyph-name="Lcaron" unicode="&#x13d;" horiz-adv-x="318" 
d="M42 0v591h115v-511h134v-80h-249zM219 462l24 146h69l-52 -146h-41z" />
    <glyph glyph-name="uni013B" unicode="&#x13b;" horiz-adv-x="299" 
d="M42 0v591h115v-511h134v-80h-249zM110 -189q14 21 23 39t9 30q0 7 -7 12t-14 12.5t-7 20.5q0 14 14 26t35 12q23 0 37 -13t14 -31q0 -14 -9 -34t-22 -39.5t-27 -34.5h-46z" />
    <glyph glyph-name="uni0409" unicode="&#x409;" horiz-adv-x="647" 
d="M10 0v60q18 0 34.5 22t18.5 54l32 455h319v-591h-116v509h-89l-30 -403q-2 -18 -4 -36.5t-10.5 -34t-27.5 -25t-53 -10.5h-74zM414 60h47q18 0 27 9t12 30t3 60v134q0 23 -2.5 39t-11.5 24.5t-30 8.5h-45v-305zM298 0v590h114v-154h88q32 0 58 -10t41 -35.5t15 -72.5
v-163q0 -50 -9 -81t-26 -46.5t-41 -21.5t-55 -6h-185z" />
    <glyph glyph-name="Lslash" unicode="&#x141;" horiz-adv-x="359" 
d="M82 0v162l-56 -25v51l56 25v374h114v-323l77 35v-50l-77 -35v-134h134v-80h-248z" />
    <glyph glyph-name="M" unicode="M" horiz-adv-x="536" 
d="M42 0v591h145l81 -382l82 382h144v-591h-102v442l-85 -442h-79l-84 442v-442h-102z" />
    <glyph glyph-name="N" unicode="N" horiz-adv-x="409" 
d="M42 0v591h101l123 -358v358h102v-591h-101l-123 334v-334h-102z" />
    <glyph glyph-name="Nacute" unicode="&#x143;" horiz-adv-x="409" 
d="M42 0v591h101l123 -358v358h102v-591h-101l-123 334v-334h-102zM149 634l78 94h105l-119 -94h-64z" />
    <glyph glyph-name="Ncaron" unicode="&#x147;" horiz-adv-x="409" 
d="M42 0v591h101l123 -358v358h102v-591h-101l-123 334v-334h-102zM176 631l-94 97h73l54 -47l55 47h71l-95 -97h-64z" />
    <glyph glyph-name="uni0145" unicode="&#x145;" horiz-adv-x="409" 
d="M42 0v591h101l123 -358v358h102v-591h-101l-123 334v-334h-102zM150 -189q14 21 23 39t9 30q0 7 -7 12t-14 12.5t-7 20.5q0 14 14 26t35 12q23 0 37 -13t14 -31q0 -14 -9 -34t-22 -39.5t-27 -34.5h-46z" />
    <glyph glyph-name="uni040A" unicode="&#x40a;" horiz-adv-x="602" 
d="M33 0v591h116v-242h97v242h117v-155h87q33 0 59 -10t41 -35.5t15 -72.5v-163q0 -50 -9 -81t-26 -46.5t-41 -21.5t-55 -6h-188v262h-97v-262h-116zM363 61h46q18 0 27 8.5t12 29.5t3 57v116q0 35 -2.5 55.5t-11.5 29t-30 8.5h-44v-304z" />
    <glyph glyph-name="Ntilde" unicode="&#xd1;" horiz-adv-x="409" 
d="M42 0v591h101l123 -358v358h102v-591h-101l-123 334v-334h-102zM251 637q-15 0 -28 5.5t-27 13.5q-10 7 -21 12t-23 5q-13 0 -20.5 -9.5t-8.5 -25.5h-34q1 39 18.5 63.5t45.5 24.5q16 0 30 -5.5t26 -13.5q11 -6 21.5 -11t21.5 -5q14 0 21.5 9t9.5 23h37
q0 -28 -10.5 -47.5t-26.5 -29t-32 -9.5z" />
    <glyph glyph-name="O" unicode="O" horiz-adv-x="401" 
d="M199 -12q-49 0 -86 11.5t-57.5 48t-20.5 108.5v310q0 53 20.5 82t58 40.5t86.5 11.5q48 0 85.5 -12t59 -41t21.5 -81v-309q0 -73 -21.5 -109.5t-59 -48t-86.5 -11.5zM199 56q15 0 26.5 5t18 17.5t6.5 34.5v358q0 22 -6.5 34.5t-18 17.5t-26.5 5t-26 -5t-17.5 -17.5
t-6.5 -34.5v-358q0 -22 6.5 -34.5t17.5 -17.5t26 -5z" />
    <glyph glyph-name="uni041E" unicode="&#x41e;" horiz-adv-x="401" 
d="M199 -12q-49 0 -86 11.5t-57.5 48t-20.5 108.5v310q0 53 20.5 82t58 40.5t86.5 11.5q48 0 85.5 -12t59 -41t21.5 -81v-309q0 -73 -21.5 -109.5t-59 -48t-86.5 -11.5zM199 56q15 0 26.5 5t18 17.5t6.5 34.5v358q0 22 -6.5 34.5t-18 17.5t-26.5 5t-26 -5t-17.5 -17.5
t-6.5 -34.5v-358q0 -22 6.5 -34.5t17.5 -17.5t26 -5z" />
    <glyph glyph-name="OE" unicode="&#x152;" horiz-adv-x="557" 
d="M199 -12q-48 0 -85.5 11.5t-58 48t-20.5 108.5v310q0 53 21 82t58 40.5t86 11.5q45 0 79 -12t54 -41t20 -81v-309q0 -73 -20 -109.5t-54.5 -48t-79.5 -11.5zM200 56q14 0 25.5 5t18 17.5t6.5 34.5v358q0 22 -6.5 34.5t-18 17.5t-25.5 5q-15 0 -26.5 -5t-18 -17.5
t-6.5 -34.5v-358q0 -22 6.5 -34.5t18 -17.5t26.5 -5zM251 0v591h286v-82h-171v-158h148v-91h-148v-180h171v-80h-286z" />
    <glyph glyph-name="Oacute" unicode="&#xd3;" horiz-adv-x="401" 
d="M199 -12q-49 0 -86 11.5t-57.5 48t-20.5 108.5v310q0 53 20.5 82t58 40.5t86.5 11.5q48 0 85.5 -12t59 -41t21.5 -81v-309q0 -73 -21.5 -109.5t-59 -48t-86.5 -11.5zM199 56q15 0 26.5 5t18 17.5t6.5 34.5v358q0 22 -6.5 34.5t-18 17.5t-26.5 5t-26 -5t-17.5 -17.5
t-6.5 -34.5v-358q0 -22 6.5 -34.5t17.5 -17.5t26 -5zM141 634l78 94h105l-119 -94h-64z" />
    <glyph glyph-name="uni01D1" unicode="&#x1d1;" horiz-adv-x="401" 
d="M199 -12q-49 0 -86 11.5t-57.5 48t-20.5 108.5v310q0 53 20.5 82t58 40.5t86.5 11.5q48 0 85.5 -12t59 -41t21.5 -81v-309q0 -73 -21.5 -109.5t-59 -48t-86.5 -11.5zM199 56q15 0 26.5 5t18 17.5t6.5 34.5v358q0 22 -6.5 34.5t-18 17.5t-26.5 5t-26 -5t-17.5 -17.5
t-6.5 -34.5v-358q0 -22 6.5 -34.5t17.5 -17.5t26 -5zM168 631l-94 97h73l54 -47l55 47h71l-95 -97h-64z" />
    <glyph glyph-name="Ocircumflex" unicode="&#xd4;" horiz-adv-x="401" 
d="M199 -12q-49 0 -86 11.5t-57.5 48t-20.5 108.5v310q0 53 20.5 82t58 40.5t86.5 11.5q48 0 85.5 -12t59 -41t21.5 -81v-309q0 -73 -21.5 -109.5t-59 -48t-86.5 -11.5zM199 56q15 0 26.5 5t18 17.5t6.5 34.5v358q0 22 -6.5 34.5t-18 17.5t-26.5 5t-26 -5t-17.5 -17.5
t-6.5 -34.5v-358q0 -22 6.5 -34.5t17.5 -17.5t26 -5zM73 631l96 100h64l97 -100h-72l-56 50l-56 -50h-73z" />
    <glyph glyph-name="uni1ED0" unicode="&#x1ed0;" horiz-adv-x="401" 
d="M199 -12q-49 0 -86 11.5t-57.5 48t-20.5 108.5v310q0 53 20.5 82t58 40.5t86.5 11.5q48 0 85.5 -12t59 -41t21.5 -81v-309q0 -73 -21.5 -109.5t-59 -48t-86.5 -11.5zM199 56q15 0 26.5 5t18 17.5t6.5 34.5v358q0 22 -6.5 34.5t-18 17.5t-26.5 5t-26 -5t-17.5 -17.5
t-6.5 -34.5v-358q0 -22 6.5 -34.5t17.5 -17.5t26 -5zM101 626l70 82h60l70 -82h-65l-34 35l-34 -35h-67zM300 681l41 75h106l-75 -75h-72z" />
    <glyph glyph-name="uni1ED8" unicode="&#x1ed8;" horiz-adv-x="401" 
d="M199 -12q-49 0 -86 11.5t-57.5 48t-20.5 108.5v310q0 53 20.5 82t58 40.5t86.5 11.5q48 0 85.5 -12t59 -41t21.5 -81v-309q0 -73 -21.5 -109.5t-59 -48t-86.5 -11.5zM199 56q15 0 26.5 5t18 17.5t6.5 34.5v358q0 22 -6.5 34.5t-18 17.5t-26.5 5t-26 -5t-17.5 -17.5
t-6.5 -34.5v-358q0 -22 6.5 -34.5t17.5 -17.5t26 -5zM201 -130q-21 0 -34.5 14t-13.5 32q0 20 13.5 33.5t34.5 13.5q19 0 33.5 -13.5t14.5 -33.5q0 -18 -14.5 -32t-33.5 -14zM73 631l96 100h64l97 -100h-72l-56 50l-56 -50h-73z" />
    <glyph glyph-name="uni1ED2" unicode="&#x1ed2;" horiz-adv-x="401" 
d="M199 -12q-49 0 -86 11.5t-57.5 48t-20.5 108.5v310q0 53 20.5 82t58 40.5t86.5 11.5q48 0 85.5 -12t59 -41t21.5 -81v-309q0 -73 -21.5 -109.5t-59 -48t-86.5 -11.5zM199 56q15 0 26.5 5t18 17.5t6.5 34.5v358q0 22 -6.5 34.5t-18 17.5t-26.5 5t-26 -5t-17.5 -17.5
t-6.5 -34.5v-358q0 -22 6.5 -34.5t17.5 -17.5t26 -5zM101 626l70 82h60l70 -82h-65l-34 35l-34 -35h-67zM319 680l-75 75h106l41 -75h-72z" />
    <glyph glyph-name="uni1ED4" unicode="&#x1ed4;" horiz-adv-x="401" 
d="M199 -12q-49 0 -86 11.5t-57.5 48t-20.5 108.5v310q0 53 20.5 82t58 40.5t86.5 11.5q48 0 85.5 -12t59 -41t21.5 -81v-309q0 -73 -21.5 -109.5t-59 -48t-86.5 -11.5zM199 56q15 0 26.5 5t18 17.5t6.5 34.5v358q0 22 -6.5 34.5t-18 17.5t-26.5 5t-26 -5t-17.5 -17.5
t-6.5 -34.5v-358q0 -22 6.5 -34.5t17.5 -17.5t26 -5zM101 626l70 82h60l70 -82h-65l-34 35l-34 -35h-67zM304 676v6q0 11 8 16.5t16 10t8 11.5v5q0 8 -3 11t-8 3q-9 0 -11 -14l-45 7q1 22 15.5 33.5t45.5 11.5q36 0 50.5 -9t14.5 -40v-3q0 -16 -8 -22t-16 -9.5t-8 -11.5v-6
h-59z" />
    <glyph glyph-name="uni1ED6" unicode="&#x1ed6;" horiz-adv-x="401" 
d="M199 -12q-49 0 -86 11.5t-57.5 48t-20.5 108.5v310q0 53 20.5 82t58 40.5t86.5 11.5q48 0 85.5 -12t59 -41t21.5 -81v-309q0 -73 -21.5 -109.5t-59 -48t-86.5 -11.5zM199 56q15 0 26.5 5t18 17.5t6.5 34.5v358q0 22 -6.5 34.5t-18 17.5t-26.5 5t-26 -5t-17.5 -17.5
t-6.5 -34.5v-358q0 -22 6.5 -34.5t17.5 -17.5t26 -5zM101 626l70 82h60l70 -82h-65l-34 35l-34 -35h-67zM237 726q-12 0 -22.5 4.5t-20.5 9.5q-9 5 -17.5 8t-16.5 3t-13.5 -7t-5.5 -17h-30q0 34 14 54t37 20q11 0 22 -3t21 -9q8 -4 16 -7.5t16 -3.5q12 0 16.5 6.5t5.5 14.5
h34q0 -24 -9.5 -40.5t-22 -24.5t-24.5 -8z" />
    <glyph glyph-name="Odieresis" unicode="&#xd6;" horiz-adv-x="401" 
d="M199 -12q-49 0 -86 11.5t-57.5 48t-20.5 108.5v310q0 53 20.5 82t58 40.5t86.5 11.5q48 0 85.5 -12t59 -41t21.5 -81v-309q0 -73 -21.5 -109.5t-59 -48t-86.5 -11.5zM199 56q15 0 26.5 5t18 17.5t6.5 34.5v358q0 22 -6.5 34.5t-18 17.5t-26.5 5t-26 -5t-17.5 -17.5
t-6.5 -34.5v-358q0 -22 6.5 -34.5t17.5 -17.5t26 -5zM141 634q-21 0 -34.5 13t-13.5 33q0 19 13.5 31.5t34.5 12.5q20 0 33 -12.5t13 -31.5q0 -20 -13 -33t-33 -13zM261 634q-20 0 -34 13t-14 33q0 19 14 31.5t34 12.5t33.5 -12.5t13.5 -31.5q0 -20 -13.5 -33t-33.5 -13z
" />
    <glyph glyph-name="uni1ECC" unicode="&#x1ecc;" horiz-adv-x="401" 
d="M199 -12q-49 0 -86 11.5t-57.5 48t-20.5 108.5v310q0 53 20.5 82t58 40.5t86.5 11.5q48 0 85.5 -12t59 -41t21.5 -81v-309q0 -73 -21.5 -109.5t-59 -48t-86.5 -11.5zM199 56q15 0 26.5 5t18 17.5t6.5 34.5v358q0 22 -6.5 34.5t-18 17.5t-26.5 5t-26 -5t-17.5 -17.5
t-6.5 -34.5v-358q0 -22 6.5 -34.5t17.5 -17.5t26 -5zM201 -130q-21 0 -34.5 14t-13.5 32q0 20 13.5 33.5t34.5 13.5q19 0 33.5 -13.5t14.5 -33.5q0 -18 -14.5 -32t-33.5 -14z" />
    <glyph glyph-name="Ograve" unicode="&#xd2;" horiz-adv-x="401" 
d="M199 -12q-49 0 -86 11.5t-57.5 48t-20.5 108.5v310q0 53 20.5 82t58 40.5t86.5 11.5q48 0 85.5 -12t59 -41t21.5 -81v-309q0 -73 -21.5 -109.5t-59 -48t-86.5 -11.5zM199 56q15 0 26.5 5t18 17.5t6.5 34.5v358q0 22 -6.5 34.5t-18 17.5t-26.5 5t-26 -5t-17.5 -17.5
t-6.5 -34.5v-358q0 -22 6.5 -34.5t17.5 -17.5t26 -5zM187 634l-111 91h107l76 -91h-72z" />
    <glyph glyph-name="uni1ECE" unicode="&#x1ece;" horiz-adv-x="401" 
d="M199 -12q-49 0 -86 11.5t-57.5 48t-20.5 108.5v310q0 53 20.5 82t58 40.5t86.5 11.5q48 0 85.5 -12t59 -41t21.5 -81v-309q0 -73 -21.5 -109.5t-59 -48t-86.5 -11.5zM199 56q15 0 26.5 5t18 17.5t6.5 34.5v358q0 22 -6.5 34.5t-18 17.5t-26.5 5t-26 -5t-17.5 -17.5
t-6.5 -34.5v-358q0 -22 6.5 -34.5t17.5 -17.5t26 -5zM168 628v12q0 15 10.5 22.5t21.5 14t11 18.5v6q0 8 -4 15t-15 7q-16 0 -18 -21l-51 8q3 27 21 41t53 14q39 0 59 -11.5t20 -50.5v-4q0 -22 -12 -30.5t-23.5 -13.5t-11.5 -17v-10h-61z" />
    <glyph glyph-name="Ohorn" unicode="&#x1a0;" horiz-adv-x="401" 
d="M199 -12q-49 0 -86 11.5t-57.5 48t-20.5 108.5v310q0 53 20.5 82t58 40.5t86.5 11.5q48 0 85.5 -12t59 -41t21.5 -81v-309q0 -73 -21.5 -109.5t-59 -48t-86.5 -11.5zM199 56q15 0 26.5 5t18 17.5t6.5 34.5v358q0 22 -6.5 34.5t-18 17.5t-26.5 5t-26 -5t-17.5 -17.5
t-6.5 -34.5v-358q0 -22 6.5 -34.5t17.5 -17.5t26 -5zM248 541l-1 50h17q45 0 45 47v18h75v-17q0 -53 -34 -75.5t-102 -22.5z" />
    <glyph glyph-name="uni1EDA" unicode="&#x1eda;" horiz-adv-x="401" 
d="M199 -12q-49 0 -86 11.5t-57.5 48t-20.5 108.5v310q0 53 20.5 82t58 40.5t86.5 11.5q48 0 85.5 -12t59 -41t21.5 -81v-309q0 -73 -21.5 -109.5t-59 -48t-86.5 -11.5zM199 56q15 0 26.5 5t18 17.5t6.5 34.5v358q0 22 -6.5 34.5t-18 17.5t-26.5 5t-26 -5t-17.5 -17.5
t-6.5 -34.5v-358q0 -22 6.5 -34.5t17.5 -17.5t26 -5zM248 541l-1 50h17q45 0 45 47v18h75v-17q0 -53 -34 -75.5t-102 -22.5zM141 634l78 94h105l-119 -94h-64z" />
    <glyph glyph-name="uni1EE2" unicode="&#x1ee2;" horiz-adv-x="401" 
d="M199 -12q-49 0 -86 11.5t-57.5 48t-20.5 108.5v310q0 53 20.5 82t58 40.5t86.5 11.5q48 0 85.5 -12t59 -41t21.5 -81v-309q0 -73 -21.5 -109.5t-59 -48t-86.5 -11.5zM199 56q15 0 26.5 5t18 17.5t6.5 34.5v358q0 22 -6.5 34.5t-18 17.5t-26.5 5t-26 -5t-17.5 -17.5
t-6.5 -34.5v-358q0 -22 6.5 -34.5t17.5 -17.5t26 -5zM248 541l-1 50h17q45 0 45 47v18h75v-17q0 -53 -34 -75.5t-102 -22.5zM201 -130q-21 0 -34.5 14t-13.5 32q0 20 13.5 33.5t34.5 13.5q19 0 33.5 -13.5t14.5 -33.5q0 -18 -14.5 -32t-33.5 -14z" />
    <glyph glyph-name="uni1EDC" unicode="&#x1edc;" horiz-adv-x="401" 
d="M199 -12q-49 0 -86 11.5t-57.5 48t-20.5 108.5v310q0 53 20.5 82t58 40.5t86.5 11.5q48 0 85.5 -12t59 -41t21.5 -81v-309q0 -73 -21.5 -109.5t-59 -48t-86.5 -11.5zM199 56q15 0 26.5 5t18 17.5t6.5 34.5v358q0 22 -6.5 34.5t-18 17.5t-26.5 5t-26 -5t-17.5 -17.5
t-6.5 -34.5v-358q0 -22 6.5 -34.5t17.5 -17.5t26 -5zM248 541l-1 50h17q45 0 45 47v18h75v-17q0 -53 -34 -75.5t-102 -22.5zM187 634l-111 91h107l76 -91h-72z" />
    <glyph glyph-name="uni1EDE" unicode="&#x1ede;" horiz-adv-x="401" 
d="M199 -12q-49 0 -86 11.5t-57.5 48t-20.5 108.5v310q0 53 20.5 82t58 40.5t86.5 11.5q48 0 85.5 -12t59 -41t21.5 -81v-309q0 -73 -21.5 -109.5t-59 -48t-86.5 -11.5zM199 56q15 0 26.5 5t18 17.5t6.5 34.5v358q0 22 -6.5 34.5t-18 17.5t-26.5 5t-26 -5t-17.5 -17.5
t-6.5 -34.5v-358q0 -22 6.5 -34.5t17.5 -17.5t26 -5zM248 541l-1 50h17q45 0 45 47v18h75v-17q0 -53 -34 -75.5t-102 -22.5zM168 628v12q0 15 10.5 22.5t21.5 14t11 18.5v6q0 8 -4 15t-15 7q-16 0 -18 -21l-51 8q3 27 21 41t53 14q39 0 59 -11.5t20 -50.5v-4
q0 -22 -12 -30.5t-23.5 -13.5t-11.5 -17v-10h-61z" />
    <glyph glyph-name="uni1EE0" unicode="&#x1ee0;" horiz-adv-x="401" 
d="M199 -12q-49 0 -86 11.5t-57.5 48t-20.5 108.5v310q0 53 20.5 82t58 40.5t86.5 11.5q48 0 85.5 -12t59 -41t21.5 -81v-309q0 -73 -21.5 -109.5t-59 -48t-86.5 -11.5zM199 56q15 0 26.5 5t18 17.5t6.5 34.5v358q0 22 -6.5 34.5t-18 17.5t-26.5 5t-26 -5t-17.5 -17.5
t-6.5 -34.5v-358q0 -22 6.5 -34.5t17.5 -17.5t26 -5zM248 541l-1 50h17q45 0 45 47v18h75v-17q0 -53 -34 -75.5t-102 -22.5zM244 637q-15 0 -28 5.5t-27 13.5q-10 7 -21 12t-23 5q-13 0 -20.5 -9.5t-8.5 -25.5h-34q1 39 18.5 63.5t45.5 24.5q16 0 30 -5.5t26 -13.5
q11 -6 21.5 -11t21.5 -5q14 0 21.5 9t9.5 23h37q0 -28 -10.5 -47.5t-26.5 -29t-32 -9.5z" />
    <glyph glyph-name="Ohungarumlaut" unicode="&#x150;" horiz-adv-x="401" 
d="M199 -12q-49 0 -86 11.5t-57.5 48t-20.5 108.5v310q0 53 20.5 82t58 40.5t86.5 11.5q48 0 85.5 -12t59 -41t21.5 -81v-309q0 -73 -21.5 -109.5t-59 -48t-86.5 -11.5zM199 56q15 0 26.5 5t18 17.5t6.5 34.5v358q0 22 -6.5 34.5t-18 17.5t-26.5 5t-26 -5t-17.5 -17.5
t-6.5 -34.5v-358q0 -22 6.5 -34.5t17.5 -17.5t26 -5zM120 630l17 100h89l-61 -100h-45zM214 630l31 100h88l-67 -100h-52z" />
    <glyph glyph-name="Omacron" unicode="&#x14c;" horiz-adv-x="401" 
d="M199 -12q-49 0 -86 11.5t-57.5 48t-20.5 108.5v310q0 53 20.5 82t58 40.5t86.5 11.5q48 0 85.5 -12t59 -41t21.5 -81v-309q0 -73 -21.5 -109.5t-59 -48t-86.5 -11.5zM199 56q15 0 26.5 5t18 17.5t6.5 34.5v358q0 22 -6.5 34.5t-18 17.5t-26.5 5t-26 -5t-17.5 -17.5
t-6.5 -34.5v-358q0 -22 6.5 -34.5t17.5 -17.5t26 -5zM98 646v58h206v-58h-206z" />
    <glyph glyph-name="uni03A9" unicode="&#x3a9;" horiz-adv-x="600" 
d="M40 0v85l155 -4l-21 13q-35 27 -60.5 60t-39 73t-13.5 88q0 53 13.5 98t43.5 79.5t79 53.5t120 19q72 0 120 -20t77 -53.5t42 -77.5t13 -92q0 -51 -14 -92.5t-39.5 -74.5t-60.5 -61l-21 -13l156 4v-85h-240v67q31 26 52.5 52t34 54t18 58.5t5.5 64.5q0 55 -14 99.5
t-46 70.5t-84 26t-84 -26t-47 -71t-15 -103q0 -30 5.5 -60t18 -59t34 -55.5t53.5 -50.5v-67h-241z" />
    <glyph glyph-name="Oslash" unicode="&#xd8;" horiz-adv-x="416" 
d="M26 -15l305 606h54l-306 -606h-53zM209 -12q-50 0 -87.5 11.5t-59 48t-21.5 108.5v310q0 53 21.5 82t59.5 40.5t87 11.5q50 0 86.5 -12t56.5 -41t20 -81v-309q0 -73 -20 -109.5t-56.5 -48t-86.5 -11.5zM209 56q14 0 24.5 4.5t16.5 17t6 35.5v358q0 24 -6 36.5t-16.5 16.5
t-24.5 4t-24.5 -4t-16.5 -16.5t-6 -36.5v-358q0 -23 6 -35.5t16.5 -17t24.5 -4.5z" />
    <glyph glyph-name="Otilde" unicode="&#xd5;" horiz-adv-x="401" 
d="M199 -12q-49 0 -86 11.5t-57.5 48t-20.5 108.5v310q0 53 20.5 82t58 40.5t86.5 11.5q48 0 85.5 -12t59 -41t21.5 -81v-309q0 -73 -21.5 -109.5t-59 -48t-86.5 -11.5zM199 56q15 0 26.5 5t18 17.5t6.5 34.5v358q0 22 -6.5 34.5t-18 17.5t-26.5 5t-26 -5t-17.5 -17.5
t-6.5 -34.5v-358q0 -22 6.5 -34.5t17.5 -17.5t26 -5zM244 637q-15 0 -28 5.5t-27 13.5q-10 7 -21 12t-23 5q-13 0 -20.5 -9.5t-8.5 -25.5h-34q1 39 18.5 63.5t45.5 24.5q16 0 30 -5.5t26 -13.5q11 -6 21.5 -11t21.5 -5q14 0 21.5 9t9.5 23h37q0 -28 -10.5 -47.5t-26.5 -29
t-32 -9.5z" />
    <glyph glyph-name="P" unicode="P" horiz-adv-x="392" 
d="M42 0v591h210q59 0 89.5 -26.5t30.5 -73.5v-102q0 -40 -10 -74.5t-36 -55.5t-75 -21h-88v-238h-121zM163 302h45q24 0 36 23t12 76v40q0 47 -10 67t-29 20h-54v-226z" />
    <glyph glyph-name="uni041F" unicode="&#x41f;" horiz-adv-x="397" 
d="M33 0v591h331v-591h-122v509h-88v-509h-121z" />
    <glyph glyph-name="Q" unicode="Q" horiz-adv-x="406" 
d="M291 -124l-66 116q-6 -1 -12 -1h-13q-48 0 -85.5 11.5t-58.5 48t-21 108.5v307q0 53 21.5 82t60.5 40.5t89 11.5q51 0 88 -12t57 -41t20 -81v-306q0 -61 -14.5 -94.5t-41.5 -50.5l53 -93zM205 59q15 0 26.5 4t17.5 17t6 36v355q0 24 -6 36.5t-17.5 16.5t-26.5 4
q-14 0 -25.5 -4t-18 -16.5t-6.5 -36.5v-355q0 -23 6.5 -36t18 -17t25.5 -4z" />
    <glyph glyph-name="R" unicode="R" horiz-adv-x="420" 
d="M42 0v591h216q59 0 89 -26.5t30 -73.5v-92q0 -47 -25 -79t-78 -37v0q34 -5 48.5 -22.5t25.5 -56.5l56 -204h-129l-43 196q-3 16 -8 29t-11 20.5t-16 7.5h-34v-253h-121zM163 333h48q26 0 39 15t13 51v71q0 32 -12 45t-31 13h-57v-195z" />
    <glyph glyph-name="Racute" unicode="&#x154;" horiz-adv-x="420" 
d="M42 0v591h216q59 0 89 -26.5t30 -73.5v-92q0 -47 -25 -79t-78 -37v0q34 -5 48.5 -22.5t25.5 -56.5l56 -204h-129l-43 196q-3 16 -8 29t-11 20.5t-16 7.5h-34v-253h-121zM163 333h48q26 0 39 15t13 51v71q0 32 -12 45t-31 13h-57v-195zM150 634l78 94h105l-119 -94h-64z
" />
    <glyph glyph-name="Rcaron" unicode="&#x158;" horiz-adv-x="420" 
d="M42 0v591h216q59 0 89 -26.5t30 -73.5v-92q0 -47 -25 -79t-78 -37v0q34 -5 48.5 -22.5t25.5 -56.5l56 -204h-129l-43 196q-3 16 -8 29t-11 20.5t-16 7.5h-34v-253h-121zM163 333h48q26 0 39 15t13 51v71q0 32 -12 45t-31 13h-57v-195zM177 631l-94 97h73l54 -47l55 47h71
l-95 -97h-64z" />
    <glyph glyph-name="uni0156" unicode="&#x156;" horiz-adv-x="420" 
d="M42 0v591h216q59 0 89 -26.5t30 -73.5v-92q0 -47 -25 -79t-78 -37v0q34 -5 48.5 -22.5t25.5 -56.5l56 -204h-129l-43 196q-3 16 -8 29t-11 20.5t-16 7.5h-34v-253h-121zM163 333h48q26 0 39 15t13 51v71q0 32 -12 45t-31 13h-57v-195zM159 -189q14 21 23 39t9 30
q0 7 -7 12t-14 12.5t-7 20.5q0 14 14 26t35 12q23 0 37 -13t14 -31q0 -14 -9 -34t-22 -39.5t-27 -34.5h-46z" />
    <glyph glyph-name="S" unicode="S" horiz-adv-x="391" 
d="M192 -7q-53 0 -90.5 15t-57.5 53t-20 107v35h61h60v-45q0 -37 6 -56.5t17 -27t26 -7.5q23 0 36.5 16.5t13.5 64.5q0 37 -11.5 55.5t-36.5 30t-64 28.5q-35 15 -58 36t-34 53t-11 78q0 58 15.5 94t52 52.5t98.5 16.5q80 0 122.5 -34.5t42.5 -103.5v-71h-57.5h-58.5v36
q0 45 -10.5 63t-37.5 18q-26 0 -37 -16t-11 -52q0 -33 13.5 -51.5t34.5 -28t45 -18.5q44 -17 72 -34.5t41 -48t13 -87.5q0 -64 -21.5 -101.5t-61 -53.5t-92.5 -16z" />
    <glyph glyph-name="Sacute" unicode="&#x15a;" horiz-adv-x="391" 
d="M192 -7q-53 0 -90.5 15t-57.5 53t-20 107v35h61h60v-45q0 -37 6 -56.5t17 -27t26 -7.5q23 0 36.5 16.5t13.5 64.5q0 37 -11.5 55.5t-36.5 30t-64 28.5q-35 15 -58 36t-34 53t-11 78q0 58 15.5 94t52 52.5t98.5 16.5q80 0 122.5 -34.5t42.5 -103.5v-71h-57.5h-58.5v36
q0 45 -10.5 63t-37.5 18q-26 0 -37 -16t-11 -52q0 -33 13.5 -51.5t34.5 -28t45 -18.5q44 -17 72 -34.5t41 -48t13 -87.5q0 -64 -21.5 -101.5t-61 -53.5t-92.5 -16zM136 634l78 94h105l-119 -94h-64z" />
    <glyph glyph-name="Scaron" unicode="&#x160;" horiz-adv-x="391" 
d="M192 -7q-53 0 -90.5 15t-57.5 53t-20 107v35h61h60v-45q0 -37 6 -56.5t17 -27t26 -7.5q23 0 36.5 16.5t13.5 64.5q0 37 -11.5 55.5t-36.5 30t-64 28.5q-35 15 -58 36t-34 53t-11 78q0 58 15.5 94t52 52.5t98.5 16.5q80 0 122.5 -34.5t42.5 -103.5v-71h-57.5h-58.5v36
q0 45 -10.5 63t-37.5 18q-26 0 -37 -16t-11 -52q0 -33 13.5 -51.5t34.5 -28t45 -18.5q44 -17 72 -34.5t41 -48t13 -87.5q0 -64 -21.5 -101.5t-61 -53.5t-92.5 -16zM163 631l-94 97h73l54 -47l55 47h71l-95 -97h-64z" />
    <glyph glyph-name="Scedilla" unicode="&#x15e;" horiz-adv-x="391" 
d="M192 -7q-53 0 -90.5 15t-57.5 53t-20 107v35h61h60v-45q0 -37 6 -56.5t17 -27t26 -7.5q23 0 36.5 16.5t13.5 64.5q0 37 -11.5 55.5t-36.5 30t-64 28.5q-35 15 -58 36t-34 53t-11 78q0 58 15.5 94t52 52.5t98.5 16.5q80 0 122.5 -34.5t42.5 -103.5v-71h-57.5h-58.5v36
q0 45 -10.5 63t-37.5 18q-26 0 -37 -16t-11 -52q0 -33 13.5 -51.5t34.5 -28t45 -18.5q44 -17 72 -34.5t41 -48t13 -87.5q0 -64 -21.5 -101.5t-61 -53.5t-92.5 -16zM191 -161q-19 0 -35.5 7t-23.5 11l14 36q7 -5 19 -9t21 -4q16 0 24 7.5t8 19.5q0 10 -6.5 15.5t-16.5 5.5
q-6 0 -11 -2t-9 -5l-32 17l32 62h43l-26 -52l-7 3q7 4 16.5 6.5t21.5 2.5q27 0 42.5 -17t15.5 -37q0 -28 -23.5 -47.5t-66.5 -19.5z" />
    <glyph glyph-name="uni0218" unicode="&#x218;" horiz-adv-x="391" 
d="M192 -7q-53 0 -90.5 15t-57.5 53t-20 107v35h61h60v-45q0 -37 6 -56.5t17 -27t26 -7.5q23 0 36.5 16.5t13.5 64.5q0 37 -11.5 55.5t-36.5 30t-64 28.5q-35 15 -58 36t-34 53t-11 78q0 58 15.5 94t52 52.5t98.5 16.5q80 0 122.5 -34.5t42.5 -103.5v-71h-57.5h-58.5v36
q0 45 -10.5 63t-37.5 18q-26 0 -37 -16t-11 -52q0 -33 13.5 -51.5t34.5 -28t45 -18.5q44 -17 72 -34.5t41 -48t13 -87.5q0 -64 -21.5 -101.5t-61 -53.5t-92.5 -16zM141 -189q14 21 23 39t9 30q0 7 -7 12t-14 12.5t-7 20.5q0 14 14 26t35 12q23 0 37 -13t14 -31q0 -14 -9 -34
t-22 -39.5t-27 -34.5h-46z" />
    <glyph glyph-name="uni0428" unicode="&#x428;" horiz-adv-x="612" 
d="M33 0v591h121v-509h92v509h121v-509h92v509h121v-591h-547z" />
    <glyph glyph-name="uni0429" unicode="&#x429;" horiz-adv-x="668" 
d="M548 -91v91h-515v591h121v-509h92v509h121v-509h92v509h121v-538h60v-144h-92z" />
    <glyph glyph-name="uni042C" unicode="&#x42c;" horiz-adv-x="382" 
d="M33 0v590h114v-154h88q33 0 58.5 -10t41 -35.5t15.5 -72.5v-163q0 -50 -9 -81t-26 -46.5t-41.5 -21.5t-55.5 -6h-185zM147 60h46q19 0 28 9t12 30t3 60v134q0 23 -3 39t-12 24.5t-29 8.5h-45v-305z" />
    <glyph glyph-name="T" unicode="T" horiz-adv-x="318" 
d="M101 0v509h-92v82h300v-82h-92v-509h-116z" />
    <glyph glyph-name="Tbar" unicode="&#x166;" horiz-adv-x="322" 
d="M53 370v61h213v-61h-213zM101 0v509h-92v82h300v-82h-92v-509h-116z" />
    <glyph glyph-name="Tcaron" unicode="&#x164;" horiz-adv-x="318" 
d="M101 0v509h-92v82h300v-82h-92v-509h-116zM127 631l-94 97h73l54 -47l55 47h71l-95 -97h-64z" />
    <glyph glyph-name="uni0162" unicode="&#x162;" horiz-adv-x="318" 
d="M101 0v509h-92v82h300v-82h-92v-509h-116zM155 -161q-19 0 -35.5 7t-23.5 11l14 36q7 -5 19 -9t21 -4q16 0 24 7.5t8 19.5q0 10 -6.5 15.5t-16.5 5.5q-6 0 -11 -2t-9 -5l-32 17l32 62h43l-26 -52l-7 3q7 4 16.5 6.5t21.5 2.5q27 0 42.5 -17t15.5 -37q0 -28 -23.5 -47.5
t-66.5 -19.5z" />
    <glyph glyph-name="uni021A" unicode="&#x21a;" horiz-adv-x="318" 
d="M101 0v509h-92v82h300v-82h-92v-509h-116zM105 -189q14 21 23 39t9 30q0 7 -7 12t-14 12.5t-7 20.5q0 14 14 26t35 12q23 0 37 -13t14 -31q0 -14 -9 -34t-22 -39.5t-27 -34.5h-46z" />
    <glyph glyph-name="uni0422" unicode="&#x422;" horiz-adv-x="318" 
d="M101 0v509h-92v82h300v-82h-92v-509h-116z" />
    <glyph glyph-name="Thorn" unicode="&#xde;" horiz-adv-x="395" 
d="M33 0v591h121v-103h89q59 0 89 -26.5t30 -73.5v-103q0 -40 -9.5 -74t-36 -55.5t-74.5 -21.5h-88v-134h-121zM154 198h45q24 0 36 23t12 76v40q0 48 -9.5 68t-29.5 20h-54v-227z" />
    <glyph glyph-name="uni0426" unicode="&#x426;" horiz-adv-x="454" 
d="M336 -91v91h-303v591h121v-509h93v509h121v-538h60v-144h-92z" />
    <glyph glyph-name="uni040B" unicode="&#x40b;" horiz-adv-x="455" 
d="M104 0v509h-94v82h304v-82h-94v-110q9 12 33.5 23t55.5 11q47 0 72 -16t33.5 -45.5t8.5 -70.5v-301h-115v300q0 18 -3.5 30t-12.5 19t-27 7q-19 0 -30 -8t-15 -17v-331h-116z" />
    <glyph glyph-name="U" unicode="U" horiz-adv-x="407" 
d="M204 -12q-36 0 -66 5t-52 21t-34 47.5t-12 85.5v444h116v-477q0 -21 6.5 -33.5t17.5 -16.5t24 -4q12 0 23 4t17.5 16.5t6.5 33.5v477h116v-444q0 -53 -12 -85t-33.5 -48t-52 -21t-65.5 -5z" />
    <glyph glyph-name="uni0423" unicode="&#x423;" horiz-adv-x="360" 
d="M109 -15q-26 0 -51.5 4t-40.5 8v60q7 -2 16.5 -3.5t19.5 -1.5q14 0 29.5 4t19.5 24q2 10 2.5 20.5t-0.5 27.5l-97 463h118l59 -381h1l60 381h109l-96 -447q-18 -86 -51.5 -122.5t-97.5 -36.5z" />
    <glyph glyph-name="Uacute" unicode="&#xda;" horiz-adv-x="407" 
d="M204 -12q-36 0 -66 5t-52 21t-34 47.5t-12 85.5v444h116v-477q0 -21 6.5 -33.5t17.5 -16.5t24 -4q12 0 23 4t17.5 16.5t6.5 33.5v477h116v-444q0 -53 -12 -85t-33.5 -48t-52 -21t-65.5 -5zM144 634l78 94h105l-119 -94h-64z" />
    <glyph glyph-name="uni01D3" unicode="&#x1d3;" horiz-adv-x="407" 
d="M204 -12q-36 0 -66 5t-52 21t-34 47.5t-12 85.5v444h116v-477q0 -21 6.5 -33.5t17.5 -16.5t24 -4q12 0 23 4t17.5 16.5t6.5 33.5v477h116v-444q0 -53 -12 -85t-33.5 -48t-52 -21t-65.5 -5zM171 631l-94 97h73l54 -47l55 47h71l-95 -97h-64z" />
    <glyph glyph-name="Ucircumflex" unicode="&#xdb;" horiz-adv-x="407" 
d="M204 -12q-36 0 -66 5t-52 21t-34 47.5t-12 85.5v444h116v-477q0 -21 6.5 -33.5t17.5 -16.5t24 -4q12 0 23 4t17.5 16.5t6.5 33.5v477h116v-444q0 -53 -12 -85t-33.5 -48t-52 -21t-65.5 -5zM75 631l96 100h64l97 -100h-72l-56 50l-56 -50h-73z" />
    <glyph glyph-name="Udieresis" unicode="&#xdc;" horiz-adv-x="407" 
d="M204 -12q-36 0 -66 5t-52 21t-34 47.5t-12 85.5v444h116v-477q0 -21 6.5 -33.5t17.5 -16.5t24 -4q12 0 23 4t17.5 16.5t6.5 33.5v477h116v-444q0 -53 -12 -85t-33.5 -48t-52 -21t-65.5 -5zM144 634q-21 0 -34.5 13t-13.5 33q0 19 13.5 31.5t34.5 12.5q20 0 33 -12.5
t13 -31.5q0 -20 -13 -33t-33 -13zM264 634q-20 0 -34 13t-14 33q0 19 14 31.5t34 12.5t33.5 -12.5t13.5 -31.5q0 -20 -13.5 -33t-33.5 -13z" />
    <glyph glyph-name="uni01D7" unicode="&#x1d7;" horiz-adv-x="407" 
d="M204 -12q-36 0 -66 5t-52 21t-34 47.5t-12 85.5v444h116v-477q0 -21 6.5 -33.5t17.5 -16.5t24 -4q12 0 23 4t17.5 16.5t6.5 33.5v477h116v-444q0 -53 -12 -85t-33.5 -48t-52 -21t-65.5 -5zM144 634q-21 0 -34.5 13t-13.5 33q0 19 13.5 31.5t34.5 12.5q20 0 33 -12.5
t13 -31.5q0 -20 -13 -33t-33 -13zM264 634q-20 0 -34 13t-14 33q0 19 14 31.5t34 12.5t33.5 -12.5t13.5 -31.5q0 -20 -13.5 -33t-33.5 -13zM144 746l78 94h105l-119 -94h-64z" />
    <glyph glyph-name="uni01D9" unicode="&#x1d9;" horiz-adv-x="407" 
d="M204 -12q-36 0 -66 5t-52 21t-34 47.5t-12 85.5v444h116v-477q0 -21 6.5 -33.5t17.5 -16.5t24 -4q12 0 23 4t17.5 16.5t6.5 33.5v477h116v-444q0 -53 -12 -85t-33.5 -48t-52 -21t-65.5 -5zM144 634q-21 0 -34.5 13t-13.5 33q0 19 13.5 31.5t34.5 12.5q20 0 33 -12.5
t13 -31.5q0 -20 -13 -33t-33 -13zM264 634q-20 0 -34 13t-14 33q0 19 14 31.5t34 12.5t33.5 -12.5t13.5 -31.5q0 -20 -13.5 -33t-33.5 -13zM171 743l-94 97h73l54 -47l55 47h71l-95 -97h-64z" />
    <glyph glyph-name="uni01DB" unicode="&#x1db;" horiz-adv-x="407" 
d="M204 -12q-36 0 -66 5t-52 21t-34 47.5t-12 85.5v444h116v-477q0 -21 6.5 -33.5t17.5 -16.5t24 -4q12 0 23 4t17.5 16.5t6.5 33.5v477h116v-444q0 -53 -12 -85t-33.5 -48t-52 -21t-65.5 -5zM144 634q-21 0 -34.5 13t-13.5 33q0 19 13.5 31.5t34.5 12.5q20 0 33 -12.5
t13 -31.5q0 -20 -13 -33t-33 -13zM264 634q-20 0 -34 13t-14 33q0 19 14 31.5t34 12.5t33.5 -12.5t13.5 -31.5q0 -20 -13.5 -33t-33.5 -13zM189 746l-111 91h107l76 -91h-72z" />
    <glyph glyph-name="uni01D5" unicode="&#x1d5;" horiz-adv-x="407" 
d="M204 -12q-36 0 -66 5t-52 21t-34 47.5t-12 85.5v444h116v-477q0 -21 6.5 -33.5t17.5 -16.5t24 -4q12 0 23 4t17.5 16.5t6.5 33.5v477h116v-444q0 -53 -12 -85t-33.5 -48t-52 -21t-65.5 -5zM144 634q-21 0 -34.5 13t-13.5 33q0 19 13.5 31.5t34.5 12.5q20 0 33 -12.5
t13 -31.5q0 -20 -13 -33t-33 -13zM264 634q-20 0 -34 13t-14 33q0 19 14 31.5t34 12.5t33.5 -12.5t13.5 -31.5q0 -20 -13.5 -33t-33.5 -13zM100 757v58h206v-58h-206z" />
    <glyph glyph-name="uni1EE4" unicode="&#x1ee4;" horiz-adv-x="407" 
d="M204 -12q-36 0 -66 5t-52 21t-34 47.5t-12 85.5v444h116v-477q0 -21 6.5 -33.5t17.5 -16.5t24 -4q12 0 23 4t17.5 16.5t6.5 33.5v477h116v-444q0 -53 -12 -85t-33.5 -48t-52 -21t-65.5 -5zM203 -130q-21 0 -34.5 14t-13.5 32q0 20 13.5 33.5t34.5 13.5q19 0 33.5 -13.5
t14.5 -33.5q0 -18 -14.5 -32t-33.5 -14z" />
    <glyph glyph-name="Ugrave" unicode="&#xd9;" horiz-adv-x="407" 
d="M204 -12q-36 0 -66 5t-52 21t-34 47.5t-12 85.5v444h116v-477q0 -21 6.5 -33.5t17.5 -16.5t24 -4q12 0 23 4t17.5 16.5t6.5 33.5v477h116v-444q0 -53 -12 -85t-33.5 -48t-52 -21t-65.5 -5zM189 634l-111 91h107l76 -91h-72z" />
    <glyph glyph-name="uni1EE6" unicode="&#x1ee6;" horiz-adv-x="407" 
d="M204 -12q-36 0 -66 5t-52 21t-34 47.5t-12 85.5v444h116v-477q0 -21 6.5 -33.5t17.5 -16.5t24 -4q12 0 23 4t17.5 16.5t6.5 33.5v477h116v-444q0 -53 -12 -85t-33.5 -48t-52 -21t-65.5 -5zM171 628v12q0 15 10.5 22.5t21.5 14t11 18.5v6q0 8 -4 15t-15 7q-16 0 -18 -21
l-51 8q3 27 21 41t53 14q39 0 59 -11.5t20 -50.5v-4q0 -22 -12 -30.5t-23.5 -13.5t-11.5 -17v-10h-61z" />
    <glyph glyph-name="Uhorn" unicode="&#x1af;" horiz-adv-x="407" 
d="M204 -12q-36 0 -66 5t-52 21t-34 47.5t-12 85.5v444h116v-477q0 -21 6.5 -33.5t17.5 -16.5t24 -4q12 0 23 4t17.5 16.5t6.5 33.5v477h116v-444q0 -53 -12 -85t-33.5 -48t-52 -21t-65.5 -5zM275 541l-1 50h17q45 0 45 47v18h75v-17q0 -53 -34 -75.5t-102 -22.5z" />
    <glyph glyph-name="uni1EE8" unicode="&#x1ee8;" horiz-adv-x="407" 
d="M204 -12q-36 0 -66 5t-52 21t-34 47.5t-12 85.5v444h116v-477q0 -21 6.5 -33.5t17.5 -16.5t24 -4q12 0 23 4t17.5 16.5t6.5 33.5v477h116v-444q0 -53 -12 -85t-33.5 -48t-52 -21t-65.5 -5zM275 541l-1 50h17q45 0 45 47v18h75v-17q0 -53 -34 -75.5t-102 -22.5zM144 634
l78 94h105l-119 -94h-64z" />
    <glyph glyph-name="uni1EF0" unicode="&#x1ef0;" horiz-adv-x="407" 
d="M204 -12q-36 0 -66 5t-52 21t-34 47.5t-12 85.5v444h116v-477q0 -21 6.5 -33.5t17.5 -16.5t24 -4q12 0 23 4t17.5 16.5t6.5 33.5v477h116v-444q0 -53 -12 -85t-33.5 -48t-52 -21t-65.5 -5zM275 541l-1 50h17q45 0 45 47v18h75v-17q0 -53 -34 -75.5t-102 -22.5zM203 -130
q-21 0 -34.5 14t-13.5 32q0 20 13.5 33.5t34.5 13.5q19 0 33.5 -13.5t14.5 -33.5q0 -18 -14.5 -32t-33.5 -14z" />
    <glyph glyph-name="uni1EEA" unicode="&#x1eea;" horiz-adv-x="407" 
d="M204 -12q-36 0 -66 5t-52 21t-34 47.5t-12 85.5v444h116v-477q0 -21 6.5 -33.5t17.5 -16.5t24 -4q12 0 23 4t17.5 16.5t6.5 33.5v477h116v-444q0 -53 -12 -85t-33.5 -48t-52 -21t-65.5 -5zM275 541l-1 50h17q45 0 45 47v18h75v-17q0 -53 -34 -75.5t-102 -22.5zM189 634
l-111 91h107l76 -91h-72z" />
    <glyph glyph-name="uni1EEC" unicode="&#x1eec;" horiz-adv-x="407" 
d="M204 -12q-36 0 -66 5t-52 21t-34 47.5t-12 85.5v444h116v-477q0 -21 6.5 -33.5t17.5 -16.5t24 -4q12 0 23 4t17.5 16.5t6.5 33.5v477h116v-444q0 -53 -12 -85t-33.5 -48t-52 -21t-65.5 -5zM275 541l-1 50h17q45 0 45 47v18h75v-17q0 -53 -34 -75.5t-102 -22.5zM171 628
v12q0 15 10.5 22.5t21.5 14t11 18.5v6q0 8 -4 15t-15 7q-16 0 -18 -21l-51 8q3 27 21 41t53 14q39 0 59 -11.5t20 -50.5v-4q0 -22 -12 -30.5t-23.5 -13.5t-11.5 -17v-10h-61z" />
    <glyph glyph-name="uni1EEE" unicode="&#x1eee;" horiz-adv-x="407" 
d="M204 -12q-36 0 -66 5t-52 21t-34 47.5t-12 85.5v444h116v-477q0 -21 6.5 -33.5t17.5 -16.5t24 -4q12 0 23 4t17.5 16.5t6.5 33.5v477h116v-444q0 -53 -12 -85t-33.5 -48t-52 -21t-65.5 -5zM275 541l-1 50h17q45 0 45 47v18h75v-17q0 -53 -34 -75.5t-102 -22.5zM246 637
q-15 0 -28 5.5t-27 13.5q-10 7 -21 12t-23 5q-13 0 -20.5 -9.5t-8.5 -25.5h-34q1 39 18.5 63.5t45.5 24.5q16 0 30 -5.5t26 -13.5q11 -6 21.5 -11t21.5 -5q14 0 21.5 9t9.5 23h37q0 -28 -10.5 -47.5t-26.5 -29t-32 -9.5z" />
    <glyph glyph-name="Uhungarumlaut" unicode="&#x170;" horiz-adv-x="407" 
d="M204 -12q-36 0 -66 5t-52 21t-34 47.5t-12 85.5v444h116v-477q0 -21 6.5 -33.5t17.5 -16.5t24 -4q12 0 23 4t17.5 16.5t6.5 33.5v477h116v-444q0 -53 -12 -85t-33.5 -48t-52 -21t-65.5 -5zM122 630l17 100h89l-61 -100h-45zM216 630l31 100h88l-67 -100h-52z" />
    <glyph glyph-name="Umacron" unicode="&#x16a;" horiz-adv-x="407" 
d="M204 -12q-36 0 -66 5t-52 21t-34 47.5t-12 85.5v444h116v-477q0 -21 6.5 -33.5t17.5 -16.5t24 -4q12 0 23 4t17.5 16.5t6.5 33.5v477h116v-444q0 -53 -12 -85t-33.5 -48t-52 -21t-65.5 -5zM100 646v58h206v-58h-206z" />
    <glyph glyph-name="Uogonek" unicode="&#x172;" horiz-adv-x="407" 
d="M204 -12q-36 0 -66 5t-52 21t-34 47.5t-12 85.5v444h116v-477q0 -21 6.5 -33.5t17.5 -16.5t24 -4q12 0 23 4t17.5 16.5t6.5 33.5v477h116v-444q0 -53 -12 -85t-33.5 -48t-52 -21t-65.5 -5zM216 -144q-36 0 -59 19.5t-23 44.5q0 28 22.5 52t56.5 29l47 -1
q-27 -9 -39.5 -28t-12.5 -36q0 -19 12.5 -29t24.5 -10q8 0 13.5 2t8.5 2l13 -30q-5 -3 -19.5 -9t-44.5 -6z" />
    <glyph glyph-name="Uring" unicode="&#x16e;" horiz-adv-x="407" 
d="M204 -12q-36 0 -66 5t-52 21t-34 47.5t-12 85.5v444h116v-477q0 -21 6.5 -33.5t17.5 -16.5t24 -4q12 0 23 4t17.5 16.5t6.5 33.5v477h116v-444q0 -53 -12 -85t-33.5 -48t-52 -21t-65.5 -5zM203 621q-37 0 -61.5 24t-24.5 57q0 35 24.5 59t61.5 24t62 -24.5t25 -58.5
q0 -33 -25.5 -57t-61.5 -24zM203 667q17 0 28 10t11 25q0 18 -11 28t-28 10q-16 0 -27 -10t-11 -28q0 -15 11 -25t27 -10z" />
    <glyph glyph-name="uni040E" unicode="&#x40e;" horiz-adv-x="360" 
d="M109 -15q-26 0 -51.5 4t-40.5 8v60q7 -2 16.5 -3.5t19.5 -1.5q14 0 29.5 4t19.5 24q2 10 2.5 20.5t-0.5 27.5l-97 463h118l59 -381h1l60 381h109l-96 -447q-18 -86 -51.5 -122.5t-97.5 -36.5zM178 630q-46 0 -70 17t-32.5 40.5t-9.5 42.5h62q2 -23 17 -34t34 -11
q21 0 35.5 10.5t16.5 34.5h62q0 -26 -12 -48.5t-36.5 -37t-66.5 -14.5z" />
    <glyph glyph-name="Utilde" unicode="&#x168;" horiz-adv-x="407" 
d="M204 -12q-36 0 -66 5t-52 21t-34 47.5t-12 85.5v444h116v-477q0 -21 6.5 -33.5t17.5 -16.5t24 -4q12 0 23 4t17.5 16.5t6.5 33.5v477h116v-444q0 -53 -12 -85t-33.5 -48t-52 -21t-65.5 -5zM246 637q-15 0 -28 5.5t-27 13.5q-10 7 -21 12t-23 5q-13 0 -20.5 -9.5
t-8.5 -25.5h-34q1 39 18.5 63.5t45.5 24.5q16 0 30 -5.5t26 -13.5q11 -6 21.5 -11t21.5 -5q14 0 21.5 9t9.5 23h37q0 -28 -10.5 -47.5t-26.5 -29t-32 -9.5z" />
    <glyph glyph-name="V" unicode="V" horiz-adv-x="384" 
d="M110 0l-97 591h120l60 -468v0l62 468h116l-98 -591h-163z" />
    <glyph glyph-name="uni0412" unicode="&#x412;" horiz-adv-x="406" 
d="M42 0v591h210q56 0 85.5 -26.5t29.5 -73.5v-67q0 -26 -7.5 -47.5t-22.5 -36.5q-11 -11 -28 -17t-33 -7v-1q17 0 33 -4t30 -16q17 -13 27 -35.5t10 -55.5v-81q0 -48 -16.5 -75t-47 -37.5t-72.5 -10.5h-198zM159 61h54q15 0 24.5 5.5t15 20.5t5.5 44v70q0 40 -13.5 52.5
t-35.5 12.5h-50v-205zM159 339h47q23 0 36.5 16t13.5 56v59q0 31 -11.5 44.5t-29.5 13.5h-56v-189z" />
    <glyph glyph-name="W" unicode="W" horiz-adv-x="598" 
d="M103 0l-90 591h120l56 -441l62 441h96l61 -441l57 441h119l-89 -591h-135l-61 343l-60 -343h-136z" />
    <glyph glyph-name="Wacute" unicode="&#x1e82;" horiz-adv-x="598" 
d="M103 0l-90 591h120l56 -441l62 441h96l61 -441l57 441h119l-89 -591h-135l-61 343l-60 -343h-136zM240 634l78 94h105l-119 -94h-64z" />
    <glyph glyph-name="Wcircumflex" unicode="&#x174;" horiz-adv-x="598" 
d="M103 0l-90 591h120l56 -441l62 441h96l61 -441l57 441h119l-89 -591h-135l-61 343l-60 -343h-136zM171 631l96 100h64l97 -100h-72l-56 50l-56 -50h-73z" />
    <glyph glyph-name="Wdieresis" unicode="&#x1e84;" horiz-adv-x="598" 
d="M103 0l-90 591h120l56 -441l62 441h96l61 -441l57 441h119l-89 -591h-135l-61 343l-60 -343h-136zM240 634q-21 0 -34.5 13t-13.5 33q0 19 13.5 31.5t34.5 12.5q20 0 33 -12.5t13 -31.5q0 -20 -13 -33t-33 -13zM360 634q-20 0 -34 13t-14 33q0 19 14 31.5t34 12.5
t33.5 -12.5t13.5 -31.5q0 -20 -13.5 -33t-33.5 -13z" />
    <glyph glyph-name="Wgrave" unicode="&#x1e80;" horiz-adv-x="598" 
d="M103 0l-90 591h120l56 -441l62 441h96l61 -441l57 441h119l-89 -591h-135l-61 343l-60 -343h-136zM285 634l-111 91h107l76 -91h-72z" />
    <glyph glyph-name="X" unicode="X" horiz-adv-x="366" 
d="M10 0l87 304l-82 287h116l52 -197l51 197h122l-84 -287l82 -304h-116l-54 197l-51 -197h-123z" />
    <glyph glyph-name="Y" unicode="Y" horiz-adv-x="361" 
d="M120 0v251l-111 340h116l52 -177l7 -38l6 38l55 177h107l-116 -346v-245h-116z" />
    <glyph glyph-name="Yacute" unicode="&#xdd;" horiz-adv-x="361" 
d="M120 0v251l-111 340h116l52 -177l7 -38l6 38l55 177h107l-116 -346v-245h-116zM126 634l78 94h105l-119 -94h-64z" />
    <glyph glyph-name="uni0462" unicode="&#x462;" horiz-adv-x="435" 
d="M85 0v590h114v-154h88q32 0 58 -10t41.5 -35.5t15.5 -72.5v-163q0 -50 -9 -81t-26 -46.5t-41 -21.5t-56 -6h-185zM199 60h46q19 0 28 9t12 30t3 60v134q0 23 -2.5 39t-12 24.5t-29.5 8.5h-45v-305zM16 493v57h311v-57h-311z" />
    <glyph glyph-name="Ycircumflex" unicode="&#x176;" horiz-adv-x="361" 
d="M120 0v251l-111 340h116l52 -177l7 -38l6 38l55 177h107l-116 -346v-245h-116zM57 631l96 100h64l97 -100h-72l-56 50l-56 -50h-73z" />
    <glyph glyph-name="Ydieresis" unicode="&#x178;" horiz-adv-x="361" 
d="M120 0v251l-111 340h116l52 -177l7 -38l6 38l55 177h107l-116 -346v-245h-116zM126 634q-21 0 -34.5 13t-13.5 33q0 19 13.5 31.5t34.5 12.5q20 0 33 -12.5t13 -31.5q0 -20 -13 -33t-33 -13zM246 634q-20 0 -34 13t-14 33q0 19 14 31.5t34 12.5t33.5 -12.5t13.5 -31.5
q0 -20 -13.5 -33t-33.5 -13z" />
    <glyph glyph-name="uni1EF4" unicode="&#x1ef4;" horiz-adv-x="361" 
d="M120 0v251l-111 340h116l52 -177l7 -38l6 38l55 177h107l-116 -346v-245h-116zM181 -130q-21 0 -34.5 14t-13.5 32q0 20 13.5 33.5t34.5 13.5q19 0 33.5 -13.5t14.5 -33.5q0 -18 -14.5 -32t-33.5 -14z" />
    <glyph glyph-name="uni042B" unicode="&#x42b;" horiz-adv-x="558" 
d="M33 0v590h114v-154h88q33 0 58.5 -10t41 -35.5t15.5 -72.5v-163q0 -50 -9 -81t-26 -46.5t-41.5 -21.5t-55.5 -6h-185zM147 60h46q19 0 28 9t12 30t3 60v134q0 23 -3 39t-12 24.5t-29 8.5h-45v-305zM409 0v591h116v-591h-116z" />
    <glyph glyph-name="Ygrave" unicode="&#x1ef2;" horiz-adv-x="361" 
d="M120 0v251l-111 340h116l52 -177l7 -38l6 38l55 177h107l-116 -346v-245h-116zM171 634l-111 91h107l76 -91h-72z" />
    <glyph glyph-name="uni1EF6" unicode="&#x1ef6;" horiz-adv-x="361" 
d="M120 0v251l-111 340h116l52 -177l7 -38l6 38l55 177h107l-116 -346v-245h-116zM153 628v12q0 15 10.5 22.5t21.5 14t11 18.5v6q0 8 -4 15t-15 7q-16 0 -18 -21l-51 8q3 27 21 41t53 14q39 0 59 -11.5t20 -50.5v-4q0 -22 -12 -30.5t-23.5 -13.5t-11.5 -17v-10h-61z" />
    <glyph glyph-name="uni0407" unicode="&#x407;" horiz-adv-x="200" 
d="M42 0v591h116v-591h-116zM41 634q-21 0 -34.5 13t-13.5 33q0 19 13.5 31.5t34.5 12.5q20 0 33 -12.5t13 -31.5q0 -20 -13 -33t-33 -13zM161 634q-20 0 -34 13t-14 33q0 19 14 31.5t34 12.5t33.5 -12.5t13.5 -31.5q0 -20 -13.5 -33t-33.5 -13z" />
    <glyph glyph-name="uni1EF8" unicode="&#x1ef8;" horiz-adv-x="361" 
d="M120 0v251l-111 340h116l52 -177l7 -38l6 38l55 177h107l-116 -346v-245h-116zM228 637q-15 0 -28 5.5t-27 13.5q-10 7 -21 12t-23 5q-13 0 -20.5 -9.5t-8.5 -25.5h-34q1 39 18.5 63.5t45.5 24.5q16 0 30 -5.5t26 -13.5q11 -6 21.5 -11t21.5 -5q14 0 21.5 9t9.5 23h37
q0 -28 -10.5 -47.5t-26.5 -29t-32 -9.5z" />
    <glyph glyph-name="uni046A" unicode="&#x46a;" horiz-adv-x="660" 
d="M29 0l58 244q5 24 16 43.5t28.5 32t42.5 13.5l57 1l-208 178v79h609v-79l-207 -177l61 -3q25 -1 42 -13t28 -31.5t17 -43.5l58 -244h-129l-44 224q-5 23 -12.5 44t-21.5 34h-34v-302h-121v302h-34q-14 -11 -21.5 -31.5t-11.5 -42.5l-45 -228h-128zM328 374l170 138h-341z
" />
    <glyph glyph-name="Z" unicode="Z" horiz-adv-x="294" 
d="M14 0v74l134 435h-124v82h257v-58l-142 -451h142v-82h-267z" />
    <glyph glyph-name="Zacute" unicode="&#x179;" horiz-adv-x="294" 
d="M14 0v74l134 435h-124v82h257v-58l-142 -451h142v-82h-267zM98 634l78 94h105l-119 -94h-64z" />
    <glyph glyph-name="Zcaron" unicode="&#x17d;" horiz-adv-x="294" 
d="M14 0v74l134 435h-124v82h257v-58l-142 -451h142v-82h-267zM125 631l-94 97h73l54 -47l55 47h71l-95 -97h-64z" />
    <glyph glyph-name="Zdotaccent" unicode="&#x17b;" horiz-adv-x="294" 
d="M14 0v74l134 435h-124v82h257v-58l-142 -451h142v-82h-267zM169 635q-24 0 -41 16.5t-18 40.5q0 24 17.5 40.5t42.5 16.5q24 0 41.5 -16.5t17.5 -40.5q1 -24 -17 -40.5t-43 -16.5z" />
    <glyph glyph-name="uni0417" unicode="&#x417;" horiz-adv-x="406" 
d="M191 -7q-58 0 -96 17.5t-56 50t-18 78.5v68h116v-37q0 -45 12 -69t40 -25q26 0 38.5 21t12.5 54v57q0 33 -22 47t-65 15h-47v64h48q20 0 36 5t27 14q12 10 17 21.5t5 24.5v41q0 29 -11 50t-39 21q-29 0 -39.5 -24t-10.5 -66v-24h-117v55q0 70 41.5 106t127.5 36
q90 0 129.5 -33t39.5 -99v-45q0 -51 -25.5 -82t-74.5 -37q49 -3 75 -34t26 -82v-43q0 -50 -17 -82.5t-54.5 -48t-98.5 -15.5z" />
    <glyph glyph-name="uni0416" unicode="&#x416;" horiz-adv-x="663" 
d="M22 0l127 307l-123 284h133l88 -252h25v252h117v-252h28l87 252h134l-123 -284l126 -307h-130l-94 275h-28v-275h-117v275h-26l-94 -275h-130z" />
    <glyph glyph-name="a" unicode="a" horiz-adv-x="370" 
d="M126 -8q-26 0 -48.5 7t-37 29.5t-14.5 66.5v66q0 47 27.5 76.5t86.5 50.5q31 13 49 23t26 24.5t8 39.5v27q0 16 -5 24.5t-14.5 12.5t-21.5 4q-26 0 -34 -17.5t-8 -58.5v-42h-103v53q0 37 10.5 65.5t41.5 45t93 16.5q63 0 97 -11.5t47 -36t13 -66.5v-391h-114v55
q-8 -29 -36.5 -46t-62.5 -17zM175 67q27 0 37.5 20.5t10.5 57.5v127q-6 -10 -20 -17.5t-28 -16.5q-19 -13 -29 -26.5t-10 -37.5v-51q0 -21 5 -33.5t14 -17.5t20 -5z" />
    <glyph glyph-name="uni0430" unicode="&#x430;" horiz-adv-x="370" 
d="M126 -8q-26 0 -48.5 7t-37 29.5t-14.5 66.5v66q0 47 27.5 76.5t86.5 50.5q31 13 49 23t26 24.5t8 39.5v27q0 16 -5 24.5t-14.5 12.5t-21.5 4q-26 0 -34 -17.5t-8 -58.5v-42h-103v53q0 37 10.5 65.5t41.5 45t93 16.5q63 0 97 -11.5t47 -36t13 -66.5v-391h-114v55
q-8 -29 -36.5 -46t-62.5 -17zM175 67q27 0 37.5 20.5t10.5 57.5v127q-6 -10 -20 -17.5t-28 -16.5q-19 -13 -29 -26.5t-10 -37.5v-51q0 -21 5 -33.5t14 -17.5t20 -5z" />
    <glyph glyph-name="a.sc" horiz-adv-x="385" 
d="M8 0l103 495h164l101 -495h-127l-18 82h-83l-17 -82h-123zM149 138h82l-41 265z" />
    <glyph glyph-name="aacute" unicode="&#xe1;" horiz-adv-x="370" 
d="M126 -8q-26 0 -48.5 7t-37 29.5t-14.5 66.5v66q0 47 27.5 76.5t86.5 50.5q31 13 49 23t26 24.5t8 39.5v27q0 16 -5 24.5t-14.5 12.5t-21.5 4q-26 0 -34 -17.5t-8 -58.5v-42h-103v53q0 37 10.5 65.5t41.5 45t93 16.5q63 0 97 -11.5t47 -36t13 -66.5v-391h-114v55
q-8 -29 -36.5 -46t-62.5 -17zM175 67q27 0 37.5 20.5t10.5 57.5v127q-6 -10 -20 -17.5t-28 -16.5q-19 -13 -29 -26.5t-10 -37.5v-51q0 -21 5 -33.5t14 -17.5t20 -5zM139 548l57 100h110l-95 -100h-72z" />
    <glyph glyph-name="abreve" unicode="&#x103;" horiz-adv-x="370" 
d="M126 -8q-26 0 -48.5 7t-37 29.5t-14.5 66.5v66q0 47 27.5 76.5t86.5 50.5q31 13 49 23t26 24.5t8 39.5v27q0 16 -5 24.5t-14.5 12.5t-21.5 4q-26 0 -34 -17.5t-8 -58.5v-42h-103v53q0 37 10.5 65.5t41.5 45t93 16.5q63 0 97 -11.5t47 -36t13 -66.5v-391h-114v55
q-8 -29 -36.5 -46t-62.5 -17zM175 67q27 0 37.5 20.5t10.5 57.5v127q-6 -10 -20 -17.5t-28 -16.5q-19 -13 -29 -26.5t-10 -37.5v-51q0 -21 5 -33.5t14 -17.5t20 -5zM187 545q-46 0 -70 17t-32.5 40.5t-9.5 42.5h62q2 -23 17 -34t34 -11q21 0 35.5 10.5t16.5 34.5h62
q0 -26 -12 -48.5t-36.5 -37t-66.5 -14.5z" />
    <glyph glyph-name="uni1EAF" unicode="&#x1eaf;" horiz-adv-x="370" 
d="M126 -8q-26 0 -48.5 7t-37 29.5t-14.5 66.5v66q0 47 27.5 76.5t86.5 50.5q31 13 49 23t26 24.5t8 39.5v27q0 16 -5 24.5t-14.5 12.5t-21.5 4q-26 0 -34 -17.5t-8 -58.5v-42h-103v53q0 37 10.5 65.5t41.5 45t93 16.5q63 0 97 -11.5t47 -36t13 -66.5v-391h-114v55
q-8 -29 -36.5 -46t-62.5 -17zM175 67q27 0 37.5 20.5t10.5 57.5v127q-6 -10 -20 -17.5t-28 -16.5q-19 -13 -29 -26.5t-10 -37.5v-51q0 -21 5 -33.5t14 -17.5t20 -5zM187 545q-46 0 -70 17t-32.5 40.5t-9.5 42.5h62q2 -23 17 -34t34 -11q21 0 35.5 10.5t16.5 34.5h62
q0 -26 -12 -48.5t-36.5 -37t-66.5 -14.5zM139 666l57 100h110l-95 -100h-72z" />
    <glyph glyph-name="uni1EB7" unicode="&#x1eb7;" horiz-adv-x="370" 
d="M126 -8q-26 0 -48.5 7t-37 29.5t-14.5 66.5v66q0 47 27.5 76.5t86.5 50.5q31 13 49 23t26 24.5t8 39.5v27q0 16 -5 24.5t-14.5 12.5t-21.5 4q-26 0 -34 -17.5t-8 -58.5v-42h-103v53q0 37 10.5 65.5t41.5 45t93 16.5q63 0 97 -11.5t47 -36t13 -66.5v-391h-114v55
q-8 -29 -36.5 -46t-62.5 -17zM175 67q27 0 37.5 20.5t10.5 57.5v127q-6 -10 -20 -17.5t-28 -16.5q-19 -13 -29 -26.5t-10 -37.5v-51q0 -21 5 -33.5t14 -17.5t20 -5zM185 -130q-21 0 -34.5 14t-13.5 32q0 20 13.5 33.5t34.5 13.5q19 0 33.5 -13.5t14.5 -33.5q0 -18 -14.5 -32
t-33.5 -14zM187 545q-46 0 -70 17t-32.5 40.5t-9.5 42.5h62q2 -23 17 -34t34 -11q21 0 35.5 10.5t16.5 34.5h62q0 -26 -12 -48.5t-36.5 -37t-66.5 -14.5z" />
    <glyph glyph-name="uni1EB1" unicode="&#x1eb1;" horiz-adv-x="370" 
d="M126 -8q-26 0 -48.5 7t-37 29.5t-14.5 66.5v66q0 47 27.5 76.5t86.5 50.5q31 13 49 23t26 24.5t8 39.5v27q0 16 -5 24.5t-14.5 12.5t-21.5 4q-26 0 -34 -17.5t-8 -58.5v-42h-103v53q0 37 10.5 65.5t41.5 45t93 16.5q63 0 97 -11.5t47 -36t13 -66.5v-391h-114v55
q-8 -29 -36.5 -46t-62.5 -17zM175 67q27 0 37.5 20.5t10.5 57.5v127q-6 -10 -20 -17.5t-28 -16.5q-19 -13 -29 -26.5t-10 -37.5v-51q0 -21 5 -33.5t14 -17.5t20 -5zM187 545q-46 0 -70 17t-32.5 40.5t-9.5 42.5h62q2 -23 17 -34t34 -11q21 0 35.5 10.5t16.5 34.5h62
q0 -26 -12 -48.5t-36.5 -37t-66.5 -14.5zM173 666l-96 100h110l57 -100h-71z" />
    <glyph glyph-name="uni1EB3" unicode="&#x1eb3;" horiz-adv-x="370" 
d="M126 -8q-26 0 -48.5 7t-37 29.5t-14.5 66.5v66q0 47 27.5 76.5t86.5 50.5q31 13 49 23t26 24.5t8 39.5v27q0 16 -5 24.5t-14.5 12.5t-21.5 4q-26 0 -34 -17.5t-8 -58.5v-42h-103v53q0 37 10.5 65.5t41.5 45t93 16.5q63 0 97 -11.5t47 -36t13 -66.5v-391h-114v55
q-8 -29 -36.5 -46t-62.5 -17zM175 67q27 0 37.5 20.5t10.5 57.5v127q-6 -10 -20 -17.5t-28 -16.5q-19 -13 -29 -26.5t-10 -37.5v-51q0 -21 5 -33.5t14 -17.5t20 -5zM187 545q-46 0 -70 17t-32.5 40.5t-9.5 42.5h62q2 -23 17 -34t34 -11q21 0 35.5 10.5t16.5 34.5h62
q0 -26 -12 -48.5t-36.5 -37t-66.5 -14.5zM157 667v12q0 15 10.5 22.5t21.5 14t11 18.5v6q0 8 -4 15t-15 7q-16 0 -18 -21l-51 8q3 27 21 41t53 14q39 0 59 -11.5t20 -50.5v-4q0 -22 -12 -30.5t-23.5 -13.5t-11.5 -17v-10h-61z" />
    <glyph glyph-name="uni1EB5" unicode="&#x1eb5;" horiz-adv-x="370" 
d="M126 -8q-26 0 -48.5 7t-37 29.5t-14.5 66.5v66q0 47 27.5 76.5t86.5 50.5q31 13 49 23t26 24.5t8 39.5v27q0 16 -5 24.5t-14.5 12.5t-21.5 4q-26 0 -34 -17.5t-8 -58.5v-42h-103v53q0 37 10.5 65.5t41.5 45t93 16.5q63 0 97 -11.5t47 -36t13 -66.5v-391h-114v55
q-8 -29 -36.5 -46t-62.5 -17zM175 67q27 0 37.5 20.5t10.5 57.5v127q-6 -10 -20 -17.5t-28 -16.5q-19 -13 -29 -26.5t-10 -37.5v-51q0 -21 5 -33.5t14 -17.5t20 -5zM187 545q-46 0 -70 17t-32.5 40.5t-9.5 42.5h62q2 -23 17 -34t34 -11q21 0 35.5 10.5t16.5 34.5h62
q0 -26 -12 -48.5t-36.5 -37t-66.5 -14.5zM235 669q-15 0 -28 5.5t-27 13.5q-10 7 -21 12t-23 5q-13 0 -20.5 -9.5t-8.5 -25.5h-34q1 39 18.5 63.5t45.5 24.5q16 0 30 -5.5t26 -13.5q11 -6 21.5 -11t21.5 -5q14 0 21.5 9t9.5 23h37q0 -28 -10.5 -47.5t-26.5 -29t-32 -9.5z
" />
    <glyph glyph-name="uni01CE" unicode="&#x1ce;" horiz-adv-x="370" 
d="M126 -8q-26 0 -48.5 7t-37 29.5t-14.5 66.5v66q0 47 27.5 76.5t86.5 50.5q31 13 49 23t26 24.5t8 39.5v27q0 16 -5 24.5t-14.5 12.5t-21.5 4q-26 0 -34 -17.5t-8 -58.5v-42h-103v53q0 37 10.5 65.5t41.5 45t93 16.5q63 0 97 -11.5t47 -36t13 -66.5v-391h-114v55
q-8 -29 -36.5 -46t-62.5 -17zM175 67q27 0 37.5 20.5t10.5 57.5v127q-6 -10 -20 -17.5t-28 -16.5q-19 -13 -29 -26.5t-10 -37.5v-51q0 -21 5 -33.5t14 -17.5t20 -5zM156 546l-94 105h70l58 -56l58 56h68l-95 -105h-65z" />
    <glyph glyph-name="acircumflex" unicode="&#xe2;" horiz-adv-x="370" 
d="M126 -8q-26 0 -48.5 7t-37 29.5t-14.5 66.5v66q0 47 27.5 76.5t86.5 50.5q31 13 49 23t26 24.5t8 39.5v27q0 16 -5 24.5t-14.5 12.5t-21.5 4q-26 0 -34 -17.5t-8 -58.5v-42h-103v53q0 37 10.5 65.5t41.5 45t93 16.5q63 0 97 -11.5t47 -36t13 -66.5v-391h-114v55
q-8 -29 -36.5 -46t-62.5 -17zM175 67q27 0 37.5 20.5t10.5 57.5v127q-6 -10 -20 -17.5t-28 -16.5q-19 -13 -29 -26.5t-10 -37.5v-51q0 -21 5 -33.5t14 -17.5t20 -5zM62 546l95 105h64l95 -105h-68l-58 56l-58 -56h-70z" />
    <glyph glyph-name="uni1EA5" unicode="&#x1ea5;" horiz-adv-x="370" 
d="M126 -8q-26 0 -48.5 7t-37 29.5t-14.5 66.5v66q0 47 27.5 76.5t86.5 50.5q31 13 49 23t26 24.5t8 39.5v27q0 16 -5 24.5t-14.5 12.5t-21.5 4q-26 0 -34 -17.5t-8 -58.5v-42h-103v53q0 37 10.5 65.5t41.5 45t93 16.5q63 0 97 -11.5t47 -36t13 -66.5v-391h-114v55
q-8 -29 -36.5 -46t-62.5 -17zM175 67q27 0 37.5 20.5t10.5 57.5v127q-6 -10 -20 -17.5t-28 -16.5q-19 -13 -29 -26.5t-10 -37.5v-51q0 -21 5 -33.5t14 -17.5t20 -5zM62 546l95 105h64l95 -105h-68l-58 56l-58 -56h-70zM311 602l57 100h110l-95 -100h-72z" />
    <glyph glyph-name="uni1EAD" unicode="&#x1ead;" horiz-adv-x="370" 
d="M126 -8q-26 0 -48.5 7t-37 29.5t-14.5 66.5v66q0 47 27.5 76.5t86.5 50.5q31 13 49 23t26 24.5t8 39.5v27q0 16 -5 24.5t-14.5 12.5t-21.5 4q-26 0 -34 -17.5t-8 -58.5v-42h-103v53q0 37 10.5 65.5t41.5 45t93 16.5q63 0 97 -11.5t47 -36t13 -66.5v-391h-114v55
q-8 -29 -36.5 -46t-62.5 -17zM175 67q27 0 37.5 20.5t10.5 57.5v127q-6 -10 -20 -17.5t-28 -16.5q-19 -13 -29 -26.5t-10 -37.5v-51q0 -21 5 -33.5t14 -17.5t20 -5zM185 -130q-21 0 -34.5 14t-13.5 32q0 20 13.5 33.5t34.5 13.5q19 0 33.5 -13.5t14.5 -33.5q0 -18 -14.5 -32
t-33.5 -14zM62 546l95 105h64l95 -105h-68l-58 56l-58 -56h-70z" />
    <glyph glyph-name="uni1EA7" unicode="&#x1ea7;" horiz-adv-x="370" 
d="M126 -8q-26 0 -48.5 7t-37 29.5t-14.5 66.5v66q0 47 27.5 76.5t86.5 50.5q31 13 49 23t26 24.5t8 39.5v27q0 16 -5 24.5t-14.5 12.5t-21.5 4q-26 0 -34 -17.5t-8 -58.5v-42h-103v53q0 37 10.5 65.5t41.5 45t93 16.5q63 0 97 -11.5t47 -36t13 -66.5v-391h-114v55
q-8 -29 -36.5 -46t-62.5 -17zM175 67q27 0 37.5 20.5t10.5 57.5v127q-6 -10 -20 -17.5t-28 -16.5q-19 -13 -29 -26.5t-10 -37.5v-51q0 -21 5 -33.5t14 -17.5t20 -5zM62 546l95 105h64l95 -105h-68l-58 56l-58 -56h-70zM345 602l-96 100h110l57 -100h-71z" />
    <glyph glyph-name="uni1EA9" unicode="&#x1ea9;" horiz-adv-x="370" 
d="M126 -8q-26 0 -48.5 7t-37 29.5t-14.5 66.5v66q0 47 27.5 76.5t86.5 50.5q31 13 49 23t26 24.5t8 39.5v27q0 16 -5 24.5t-14.5 12.5t-21.5 4q-26 0 -34 -17.5t-8 -58.5v-42h-103v53q0 37 10.5 65.5t41.5 45t93 16.5q63 0 97 -11.5t47 -36t13 -66.5v-391h-114v55
q-8 -29 -36.5 -46t-62.5 -17zM175 67q27 0 37.5 20.5t10.5 57.5v127q-6 -10 -20 -17.5t-28 -16.5q-19 -13 -29 -26.5t-10 -37.5v-51q0 -21 5 -33.5t14 -17.5t20 -5zM62 546l95 105h64l95 -105h-68l-58 56l-58 -56h-70zM329 603v12q0 15 10.5 22.5t21.5 14t11 18.5v6
q0 8 -4 15t-15 7q-16 0 -18 -21l-51 8q3 27 21 41t53 14q39 0 59 -11.5t20 -50.5v-4q0 -22 -12 -30.5t-23.5 -13.5t-11.5 -17v-10h-61z" />
    <glyph glyph-name="uni1EAB" unicode="&#x1eab;" horiz-adv-x="370" 
d="M126 -8q-26 0 -48.5 7t-37 29.5t-14.5 66.5v66q0 47 27.5 76.5t86.5 50.5q31 13 49 23t26 24.5t8 39.5v27q0 16 -5 24.5t-14.5 12.5t-21.5 4q-26 0 -34 -17.5t-8 -58.5v-42h-103v53q0 37 10.5 65.5t41.5 45t93 16.5q63 0 97 -11.5t47 -36t13 -66.5v-391h-114v55
q-8 -29 -36.5 -46t-62.5 -17zM175 67q27 0 37.5 20.5t10.5 57.5v127q-6 -10 -20 -17.5t-28 -16.5q-19 -13 -29 -26.5t-10 -37.5v-51q0 -21 5 -33.5t14 -17.5t20 -5zM62 546l95 105h64l95 -105h-68l-58 56l-58 -56h-70zM236 675q-15 0 -28 5.5t-27 13.5q-10 7 -21 12t-23 5
q-13 0 -20.5 -9.5t-8.5 -25.5h-34q1 39 18.5 63.5t45.5 24.5q16 0 30 -5.5t26 -13.5q11 -6 21.5 -11t21.5 -5q14 0 21.5 9t9.5 23h37q0 -28 -10.5 -47.5t-26.5 -29t-32 -9.5z" />
    <glyph glyph-name="acute" unicode="&#xb4;" horiz-adv-x="186" 
d="M0 548l57 100h110l-95 -100h-72z" />
    <glyph glyph-name="acutecomb" unicode="&#x301;" 
d="M0 548l57 100h110l-95 -100h-72z" />
    <glyph glyph-name="acutecomb.case" 
d="M7 634l78 94h105l-119 -94h-64z" />
    <glyph glyph-name="adieresis" unicode="&#xe4;" horiz-adv-x="370" 
d="M126 -8q-26 0 -48.5 7t-37 29.5t-14.5 66.5v66q0 47 27.5 76.5t86.5 50.5q31 13 49 23t26 24.5t8 39.5v27q0 16 -5 24.5t-14.5 12.5t-21.5 4q-26 0 -34 -17.5t-8 -58.5v-42h-103v53q0 37 10.5 65.5t41.5 45t93 16.5q63 0 97 -11.5t47 -36t13 -66.5v-391h-114v55
q-8 -29 -36.5 -46t-62.5 -17zM175 67q27 0 37.5 20.5t10.5 57.5v127q-6 -10 -20 -17.5t-28 -16.5q-19 -13 -29 -26.5t-10 -37.5v-51q0 -21 5 -33.5t14 -17.5t20 -5zM130 549q-21 0 -34.5 13t-13.5 33q0 19 13.5 31.5t34.5 12.5q20 0 33 -12.5t13 -31.5q0 -20 -13 -33
t-33 -13zM250 549q-20 0 -34 13t-14 33q0 19 14 31.5t34 12.5t33.5 -12.5t13.5 -31.5q0 -20 -13.5 -33t-33.5 -13z" />
    <glyph glyph-name="uni1EA1" unicode="&#x1ea1;" horiz-adv-x="370" 
d="M126 -8q-26 0 -48.5 7t-37 29.5t-14.5 66.5v66q0 47 27.5 76.5t86.5 50.5q31 13 49 23t26 24.5t8 39.5v27q0 16 -5 24.5t-14.5 12.5t-21.5 4q-26 0 -34 -17.5t-8 -58.5v-42h-103v53q0 37 10.5 65.5t41.5 45t93 16.5q63 0 97 -11.5t47 -36t13 -66.5v-391h-114v55
q-8 -29 -36.5 -46t-62.5 -17zM175 67q27 0 37.5 20.5t10.5 57.5v127q-6 -10 -20 -17.5t-28 -16.5q-19 -13 -29 -26.5t-10 -37.5v-51q0 -21 5 -33.5t14 -17.5t20 -5zM185 -130q-21 0 -34.5 14t-13.5 32q0 20 13.5 33.5t34.5 13.5q19 0 33.5 -13.5t14.5 -33.5q0 -18 -14.5 -32
t-33.5 -14z" />
    <glyph glyph-name="ae" unicode="&#xe6;" horiz-adv-x="562" 
d="M126 -6q-13 0 -30 2t-33 11t-26.5 30t-10.5 60v66q0 50 30.5 77.5t78.5 45.5q32 14 51.5 23.5t28 24t8.5 38.5v30q0 16 -5 24.5t-14.5 12.5t-21.5 4q-26 0 -34 -17.5t-8 -58.5v-42h-103v53q0 37 10.5 65.5t41.5 45t93 16.5q54 0 83.5 -14t40.5 -39t11 -61v-373l-69 63
q-16 -49 -50 -68t-72 -19zM175 69q27 0 37.5 19.5t10.5 56.5v127q-6 -10 -20.5 -17.5t-28.5 -17.5q-19 -13 -28.5 -26t-9.5 -36v-51q0 -21 5 -33.5t14 -17t20 -4.5zM381 -2q-34 0 -61 4.5t-45 19.5t-27 46t-9 84v225q0 58 35.5 92.5t106.5 34.5q79 0 118 -27.5t39 -99.5
v-135h-199v-137q0 -21 4 -32.5t13 -16t25 -4.5t25.5 5t13 17t3.5 33v76h115v-28q0 -54 -10.5 -85.5t-30 -46.5t-49 -20t-67.5 -5zM339 294h84v96q0 29 -8.5 41t-33.5 12q-23 0 -32.5 -12t-9.5 -41v-96z" />
    <glyph glyph-name="agrave" unicode="&#xe0;" horiz-adv-x="370" 
d="M126 -8q-26 0 -48.5 7t-37 29.5t-14.5 66.5v66q0 47 27.5 76.5t86.5 50.5q31 13 49 23t26 24.5t8 39.5v27q0 16 -5 24.5t-14.5 12.5t-21.5 4q-26 0 -34 -17.5t-8 -58.5v-42h-103v53q0 37 10.5 65.5t41.5 45t93 16.5q63 0 97 -11.5t47 -36t13 -66.5v-391h-114v55
q-8 -29 -36.5 -46t-62.5 -17zM175 67q27 0 37.5 20.5t10.5 57.5v127q-6 -10 -20 -17.5t-28 -16.5q-19 -13 -29 -26.5t-10 -37.5v-51q0 -21 5 -33.5t14 -17.5t20 -5zM174 548l-96 100h110l57 -100h-71z" />
    <glyph glyph-name="uni1EA3" unicode="&#x1ea3;" horiz-adv-x="370" 
d="M126 -8q-26 0 -48.5 7t-37 29.5t-14.5 66.5v66q0 47 27.5 76.5t86.5 50.5q31 13 49 23t26 24.5t8 39.5v27q0 16 -5 24.5t-14.5 12.5t-21.5 4q-26 0 -34 -17.5t-8 -58.5v-42h-103v53q0 37 10.5 65.5t41.5 45t93 16.5q63 0 97 -11.5t47 -36t13 -66.5v-391h-114v55
q-8 -29 -36.5 -46t-62.5 -17zM175 67q27 0 37.5 20.5t10.5 57.5v127q-6 -10 -20 -17.5t-28 -16.5q-19 -13 -29 -26.5t-10 -37.5v-51q0 -21 5 -33.5t14 -17.5t20 -5zM158 549v12q0 15 10.5 22.5t21.5 14t11 18.5v6q0 8 -4 15t-15 7q-16 0 -18 -21l-51 8q3 27 21 41t53 14
q39 0 59 -11.5t20 -50.5v-4q0 -22 -12 -30.5t-23.5 -13.5t-11.5 -17v-10h-61z" />
    <glyph glyph-name="amacron" unicode="&#x101;" horiz-adv-x="370" 
d="M126 -8q-26 0 -48.5 7t-37 29.5t-14.5 66.5v66q0 47 27.5 76.5t86.5 50.5q31 13 49 23t26 24.5t8 39.5v27q0 16 -5 24.5t-14.5 12.5t-21.5 4q-26 0 -34 -17.5t-8 -58.5v-42h-103v53q0 37 10.5 65.5t41.5 45t93 16.5q63 0 97 -11.5t47 -36t13 -66.5v-391h-114v55
q-8 -29 -36.5 -46t-62.5 -17zM175 67q27 0 37.5 20.5t10.5 57.5v127q-6 -10 -20 -17.5t-28 -16.5q-19 -13 -29 -26.5t-10 -37.5v-51q0 -21 5 -33.5t14 -17.5t20 -5zM86 560v58h206v-58h-206z" />
    <glyph glyph-name="ampersand" unicode="&#x26;" horiz-adv-x="463" 
d="M187 -4q-53 0 -88 20.5t-52.5 57t-17.5 87.5q0 48 20.5 84.5t61.5 45.5q-11 19 -18 44t-6 57q3 56 33.5 86t94.5 30q31 0 61.5 -4.5t53 -9.5t31.5 -9v-83q-3 1 -21 5.5t-43.5 8.5t-51.5 4q-23 0 -36 -10.5t-17.5 -26t-0.5 -33.5t14 -35q4 -6 11.5 -16.5t16.5 -21.5
l18 -22t17 -20t13 -15l1 90h152v-72h-78q0 -18 -0.5 -31.5t-1.5 -25t-2 -23.5q20 -17 43.5 -33.5t38.5 -23.5v-103q-21 1 -55 20.5t-65 45.5q-13 -26 -32.5 -41t-43.5 -21t-51 -6zM192 74q24 0 39 11.5t21 30.5q-29 29 -56.5 59.5t-45.5 55.5q-14 -6 -22.5 -20t-8.5 -39
q-2 -47 18.5 -72.5t54.5 -25.5z" />
    <glyph glyph-name="ampersand.salt" horiz-adv-x="522" 
d="M190 -7q-52 0 -86 15.5t-51 48t-17 82.5v43q1 55 30 86t81 31l-1 -1q-33 1 -57 15.5t-37 41t-14 62.5v35q-1 67 39.5 104.5t136.5 37.5q32 0 64.5 -5t57.5 -11t35 -10v-73q-7 3 -29.5 8t-51.5 9.5t-55 4.5q-39 0 -57.5 -19.5t-18.5 -57.5v-47q0 -26 13 -42q11 -15 27 -20
t31 -5h74q4 25 9 50.5t8 51.5h75v-102h90v-56h-90v-131q-1 -31 9.5 -49.5t38.5 -18.5q11 0 21.5 0.5t20.5 1.5v-66q-16 -4 -28 -6.5t-23 -3t-27 -0.5q-21 0 -40.5 6t-33.5 20t-18 37q-12 -24 -42 -45.5t-84 -21.5zM219 76q29 1 47 15.5t22 38.5v140h-65q-29 0 -47.5 -15
t-18.5 -47v-62q0 -36 15 -53t47 -17z" />
    <glyph glyph-name="aogonek" unicode="&#x105;" horiz-adv-x="370" 
d="M126 -8q-26 0 -48.5 7t-37 29.5t-14.5 66.5v66q0 47 27.5 76.5t86.5 50.5q31 13 49 23t26 24.5t8 39.5v27q0 16 -5 24.5t-14.5 12.5t-21.5 4q-26 0 -34 -17.5t-8 -58.5v-42h-103v53q0 37 10.5 65.5t41.5 45t93 16.5q63 0 97 -11.5t47 -36t13 -66.5v-391h-114v55
q-8 -29 -36.5 -46t-62.5 -17zM175 67q27 0 37.5 20.5t10.5 57.5v127q-6 -10 -20 -17.5t-28 -16.5q-19 -13 -29 -26.5t-10 -37.5v-51q0 -21 5 -33.5t14 -17.5t20 -5zM295 -144q-36 0 -59 19.5t-23 44.5q0 28 22.5 52t56.5 29l47 -1q-27 -9 -39.5 -28t-12.5 -36
q0 -19 12.5 -29t24.5 -10q8 0 13.5 2t8.5 2l13 -30q-5 -3 -19.5 -9t-44.5 -6z" />
    <glyph glyph-name="approxequal" unicode="&#x2248;" horiz-adv-x="523" 
d="M359 306q-35 1 -66.5 12t-63.5 22.5t-70 13.5q-28 1 -45 -14t-19 -34h-59q1 35 17 62t44.5 43.5t66.5 15.5q34 -1 64.5 -11.5t61.5 -21t64 -11.5q35 -2 49.5 12t17.5 30h66q-1 -50 -21 -76.5t-49 -35.5t-58 -7zM359 93q-35 2 -66.5 13.5t-63.5 23t-70 12.5q-28 1 -45 -14
t-19 -34h-59q1 34 17 61.5t44.5 44t66.5 15.5q34 -1 64.5 -11.5t61.5 -21t64 -11.5q35 -2 49.5 12t17.5 30h66q-1 -50 -21 -76.5t-49 -35.5t-58 -8z" />
    <glyph glyph-name="aring" unicode="&#xe5;" horiz-adv-x="370" 
d="M126 -8q-26 0 -48.5 7t-37 29.5t-14.5 66.5v66q0 47 27.5 76.5t86.5 50.5q31 13 49 23t26 24.5t8 39.5v27q0 16 -5 24.5t-14.5 12.5t-21.5 4q-26 0 -34 -17.5t-8 -58.5v-42h-103v53q0 37 10.5 65.5t41.5 45t93 16.5q63 0 97 -11.5t47 -36t13 -66.5v-391h-114v55
q-8 -29 -36.5 -46t-62.5 -17zM175 67q27 0 37.5 20.5t10.5 57.5v127q-6 -10 -20 -17.5t-28 -16.5q-19 -13 -29 -26.5t-10 -37.5v-51q0 -21 5 -33.5t14 -17.5t20 -5zM189 541q-37 0 -61.5 24t-24.5 57q0 35 24.5 59t61.5 24t62 -24.5t25 -58.5q0 -33 -25.5 -57t-61.5 -24z
M189 587q17 0 28 10t11 25q0 18 -11 28t-28 10q-16 0 -27 -10t-11 -28q0 -15 11 -25t27 -10z" />
    <glyph glyph-name="asciicircum" unicode="^" horiz-adv-x="420" 
d="M36 495l146 206h57l145 -206h-93l-80 118l-80 -118h-95z" />
    <glyph glyph-name="asciitilde" unicode="~" horiz-adv-x="523" 
d="M359 508q-35 1 -66.5 12t-63.5 22.5t-70 13.5q-28 2 -45 -13.5t-19 -34.5h-59q1 35 17 63t44.5 44t66.5 14q34 0 64.5 -11t61.5 -21.5t64 -11.5q35 -2 49.5 12t17.5 30h66q-1 -50 -21 -76t-49 -35t-58 -8z" />
    <glyph glyph-name="asterisk" unicode="*" horiz-adv-x="578" 
d="M187 85l-87 65l145 144l-205 22l38 117l180 -104l-38 203h112l-35 -202l181 100l35 -108l-203 -28l148 -143l-90 -63l-89 182z" />
    <glyph glyph-name="at" unicode="@" horiz-adv-x="739" 
d="M356 -67q-119 0 -186.5 37t-95 108t-27.5 173q0 162 75 251.5t240 90.5q93 1 166 -29.5t115.5 -96t42.5 -171.5q0 -77 -18.5 -128.5t-50.5 -78t-73 -26.5q-30 0 -55.5 13.5t-40.5 38.5t-18 57l26 -7q-17 -46 -46.5 -65.5t-73.5 -19.5q-48 0 -77 24t-29 84q0 27 7.5 48.5
t32.5 38.5t80 32q24 6 39.5 16.5t19.5 18.5q3 7 4.5 14t1.5 14q0 23 -10 33t-36 10q-28 0 -39.5 -12t-11.5 -39v-30h-78v34q0 34 10 55.5t37.5 31t80.5 9.5q55 0 84 -11.5t40 -34.5t11 -60v-172q0 -42 15.5 -59t39.5 -17q18 0 34 16t25.5 54.5t9.5 104.5q0 81 -28 140
t-85.5 91t-145.5 32t-146 -28t-86.5 -93t-28.5 -176q0 -83 19 -136t53 -81t81.5 -39.5t105.5 -12.5q20 -1 53 2t70 8.5t69 13.5t48 18v-46q-19 -8 -55.5 -18.5t-86 -17.5t-108.5 -7zM361 141q23 0 35.5 10t18 23t5.5 23v83q-17 -2 -34 -7.5t-30 -12.5q-16 -8 -26 -16
t-15 -19.5t-5 -29.5q0 -27 10 -40.5t41 -13.5z" />
    <glyph glyph-name="atilde" unicode="&#xe3;" horiz-adv-x="370" 
d="M126 -8q-26 0 -48.5 7t-37 29.5t-14.5 66.5v66q0 47 27.5 76.5t86.5 50.5q31 13 49 23t26 24.5t8 39.5v27q0 16 -5 24.5t-14.5 12.5t-21.5 4q-26 0 -34 -17.5t-8 -58.5v-42h-103v53q0 37 10.5 65.5t41.5 45t93 16.5q63 0 97 -11.5t47 -36t13 -66.5v-391h-114v55
q-8 -29 -36.5 -46t-62.5 -17zM175 67q27 0 37.5 20.5t10.5 57.5v127q-6 -10 -20 -17.5t-28 -16.5q-19 -13 -29 -26.5t-10 -37.5v-51q0 -21 5 -33.5t14 -17.5t20 -5zM236 551q-15 0 -28 5.5t-27 13.5q-10 7 -21 12t-23 5q-13 0 -20.5 -9.5t-8.5 -25.5h-34q1 39 18.5 63.5
t45.5 24.5q16 0 30 -5.5t26 -13.5q11 -6 21.5 -11t21.5 -5q14 0 21.5 9t9.5 23h37q0 -28 -10.5 -47.5t-26.5 -29t-32 -9.5z" />
    <glyph glyph-name="b" unicode="b" horiz-adv-x="380" 
d="M219 -7q-44 0 -67.5 17.5t-30.5 33.5l-3 -44h-81v630h114v-174q10 19 30.5 33t57.5 14q35 0 59.5 -11.5t38 -37.5t13.5 -70v-239q0 -47 -8 -76.5t-24 -46t-40.5 -23t-58.5 -6.5zM194 70q16 0 24.5 5t12.5 13.5t4.5 20t0.5 24.5v240q0 12 -1 22.5t-5.5 18.5t-12.5 12.5
t-23 4.5q-23 0 -33 -13t-10 -40v-236q0 -14 1 -27t5.5 -23t12.5 -16t24 -6z" />
    <glyph glyph-name="b.sc" horiz-adv-x="398" 
d="M41 0v495h205q56 0 85 -23t29 -61v-55q0 -46 -30 -70q-12 -9 -28 -14t-31 -6v-2q15 0 31 -3t30 -13q16 -11 26 -30t10 -48v-66q0 -54 -32 -79t-101 -25h-194zM155 59h53q13 0 23 3.5t16 14.5t6 34v56q0 27 -12 38t-37 11h-49v-157zM155 287h47q20 0 34 10.5t14 45.5v47
q0 23 -10.5 33.5t-29.5 10.5h-55v-147z" />
    <glyph glyph-name="backslash" unicode="\" horiz-adv-x="559" 
d="M379 -45l-343 675h82l341 -675h-80z" />
    <glyph glyph-name="bar" unicode="|" horiz-adv-x="287" 
d="M94 -240v870h99v-870h-99z" />
    <glyph glyph-name="uni0431" unicode="&#x431;" horiz-adv-x="375" 
d="M183 -7q-46 0 -80.5 10.5t-53.5 38t-19 76.5l-1 353q0 51 9.5 85t33.5 51t67 17q20 0 49 3t57 7t48 9t22 9v-46q0 -17 -17.5 -31t-58.5 -15h-12q-36 0 -53.5 -8t-23.5 -25t-7 -41v-45q9 16 29 30.5t59 14.5q33 0 58.5 -10.5t41 -36t15.5 -72.5v-219q0 -50 -9.5 -80.5
t-29 -46.5t-50.5 -22t-74 -6zM188 60q19 0 28 7.5t12.5 21t3.5 31.5v236q0 18 -3 31t-12.5 20t-28.5 7q-15 0 -24 -4t-14 -12t-6 -17t-1 -19v-242q0 -18 3.5 -31.5t13 -21t28.5 -7.5z" />
    <glyph glyph-name="braceleft" unicode="{" horiz-adv-x="333" 
d="M281 -136q-80 2 -127.5 23t-67.5 53.5t-20 67.5q0 37 11 62.5t26 44.5t26.5 37t11.5 38q0 18 -10 30.5t-27.5 20.5t-40.5 8v33q20 1 36.5 9.5t27.5 23.5t11 34q0 17 -11 34t-25 36t-25 43t-11 54q0 40 19.5 72.5t66 53t129.5 23.5v-61q-25 -4 -46.5 -10.5t-34 -24
t-12.5 -53.5q0 -29 8.5 -51t19 -40.5t19 -38t8.5 -45.5q0 -14 -7.5 -30.5t-24.5 -29t-47 -15.5q35 -4 57 -20.5t22 -50.5q0 -22 -7 -40.5t-16.5 -38t-17 -42.5t-7.5 -54q0 -36 14 -56.5t34 -29t38 -10.5v-60z" />
    <glyph glyph-name="braceright" unicode="}" horiz-adv-x="333" 
d="M52 -136v60q18 2 38 10.5t34 29t14 56.5q0 31 -7.5 54t-17 42.5t-17 38t-7.5 40.5q0 34 22.5 50.5t57.5 20.5q-30 3 -47.5 15.5t-24.5 29t-7 30.5q0 26 8.5 45.5t19 38t19 40.5t8.5 51q0 36 -12.5 53.5t-33.5 24t-47 10.5v61q83 -3 129.5 -23.5t66 -53t19.5 -72.5
q0 -30 -11 -54t-25 -43t-25 -36t-11 -34q0 -19 10.5 -34t28 -23.5t36.5 -9.5v-33q-22 0 -40 -8t-28 -20.5t-10 -30.5q0 -20 11.5 -38t26.5 -37t26 -44.5t11 -62.5q0 -35 -20 -67.5t-67.5 -53.5t-127.5 -23z" />
    <glyph glyph-name="bracketleft" unicode="[" horiz-adv-x="313" 
d="M43 -57v687h226v-60h-119v-567h119v-60h-226z" />
    <glyph glyph-name="bracketright" unicode="]" horiz-adv-x="313" 
d="M43 -57v60h119v567h-119v60h226v-687h-226z" />
    <glyph glyph-name="breve" unicode="&#x2d8;" horiz-adv-x="260" 
d="M127 549q-46 0 -70 17t-32.5 40.5t-9.5 42.5h62q2 -23 17 -34t34 -11q21 0 35.5 10.5t16.5 34.5h62q0 -26 -12 -48.5t-36.5 -37t-66.5 -14.5z" />
    <glyph glyph-name="uni0306" unicode="&#x306;" 
d="M127 549q-46 0 -70 17t-32.5 40.5t-9.5 42.5h62q2 -23 17 -34t34 -11q21 0 35.5 10.5t16.5 34.5h62q0 -26 -12 -48.5t-36.5 -37t-66.5 -14.5z" />
    <glyph glyph-name="uni0306.case" 
d="M112 630q-46 0 -70 17t-32.5 40.5t-9.5 42.5h62q2 -23 17 -34t34 -11q21 0 35.5 10.5t16.5 34.5h62q0 -26 -12 -48.5t-36.5 -37t-66.5 -14.5z" />
    <glyph glyph-name="uni03060301" 
d="M127 549q-46 0 -70 17t-32.5 40.5t-9.5 42.5h62q2 -23 17 -34t34 -11q21 0 35.5 10.5t16.5 34.5h62q0 -26 -12 -48.5t-36.5 -37t-66.5 -14.5zM79 670l57 100h110l-95 -100h-72z" />
    <glyph glyph-name="uni03060301.case" 
d="M100 385q-38 0 -56.5 13.5t-24.5 31.5t-7 33h61q0 -12 8.5 -18t19.5 -6q10 0 19 5.5t9 18.5h61q0 -33 -20.5 -55.5t-69.5 -22.5zM59 481l40 75h107l-76 -75h-71z" />
    <glyph glyph-name="uni03060300" 
d="M127 549q-46 0 -70 17t-32.5 40.5t-9.5 42.5h62q2 -23 17 -34t34 -11q21 0 35.5 10.5t16.5 34.5h62q0 -26 -12 -48.5t-36.5 -37t-66.5 -14.5zM113 670l-96 100h110l57 -100h-71z" />
    <glyph glyph-name="uni03060300.case" 
d="M100 385q-38 0 -56.5 13.5t-24.5 31.5t-6 33h60q0 -13 9.5 -18.5t18.5 -5.5q11 0 19.5 5.5t9.5 18.5h60q1 -33 -20.5 -55.5t-69.5 -22.5zM79 481l-75 75h106l41 -75h-72z" />
    <glyph glyph-name="uni03060309" 
d="M127 549q-46 0 -70 17t-32.5 40.5t-9.5 42.5h62q2 -23 17 -34t34 -11q21 0 35.5 10.5t16.5 34.5h62q0 -26 -12 -48.5t-36.5 -37t-66.5 -14.5zM97 671v12q0 15 10.5 22.5t21.5 14t11 18.5v6q0 8 -4 15t-15 7q-16 0 -18 -21l-51 8q3 27 21 41t53 14q39 0 59 -11.5t20 -50.5
v-4q0 -22 -12 -30.5t-23.5 -13.5t-11.5 -17v-10h-61z" />
    <glyph glyph-name="uni03060309.case" 
d="M100 385q-38 0 -56.5 13.5t-24.5 31.5t-7 33h61q0 -12 8.5 -18t19.5 -6q10 0 19 5.5t9 18.5h61q0 -33 -20.5 -55.5t-69.5 -22.5zM70 481v6q0 11 8 16.5t16 10t8 12.5v4q0 8 -2.5 11t-8.5 3q-4 0 -7.5 -3.5t-3.5 -9.5l-46 6q2 22 16 34t45 12q37 0 51.5 -9.5t14.5 -40.5
v-3q0 -16 -7.5 -22t-15.5 -9.5t-8 -11.5v-6h-60z" />
    <glyph glyph-name="uni03060303" 
d="M127 549q-46 0 -70 17t-32.5 40.5t-9.5 42.5h62q2 -23 17 -34t34 -11q21 0 35.5 10.5t16.5 34.5h62q0 -26 -12 -48.5t-36.5 -37t-66.5 -14.5zM175 673q-15 0 -28 5.5t-27 13.5q-10 7 -21 12t-23 5q-13 0 -20.5 -9.5t-8.5 -25.5h-34q1 39 18.5 63.5t45.5 24.5
q16 0 30 -5.5t26 -13.5q11 -6 21.5 -11t21.5 -5q14 0 21.5 9t9.5 23h37q0 -28 -10.5 -47.5t-26.5 -29t-32 -9.5z" />
    <glyph glyph-name="uni03060303.case" 
d="M100 385q-38 0 -56.5 13.5t-24.5 31.5t-7 33h61q1 -12 9.5 -18t18.5 -6q11 0 19.5 5.5t9.5 18.5h60q1 -33 -20.5 -55.5t-69.5 -22.5zM137 479q-12 0 -22.5 4.5t-22.5 11.5l-15 7.5t-17 3.5q-9 0 -14 -8t-5 -18h-30q0 33 14 54.5t36 21.5q12 0 23 -3.5t20 -8.5
q10 -5 17.5 -8.5t16.5 -3.5q10 0 14.5 6t5.5 16h34q0 -25 -9 -42t-21.5 -25t-24.5 -8z" />
    <glyph glyph-name="brokenbar" unicode="&#xa6;" horiz-adv-x="230" 
d="M66 -167v344h99v-344h-99zM66 270v315h99v-315h-99z" />
    <glyph glyph-name="bullet" unicode="&#x2022;" horiz-adv-x="371" 
d="M186 143q-38 0 -69 18.5t-49.5 49.5t-18.5 69t18.5 68.5t49.5 49t69 18.5t68.5 -18.5t49 -49t18.5 -68.5t-18.5 -69t-49 -49.5t-68.5 -18.5z" />
    <glyph glyph-name="c" unicode="c" horiz-adv-x="366" 
d="M187 -8q-51 0 -86.5 11t-53.5 45.5t-18 103.5v218q0 76 39 105t118 29q78 0 117 -27.5t39 -99.5v-73h-115v79q0 29 -8.5 41.5t-32.5 12.5t-33.5 -12.5t-9.5 -41.5v-268q0 -31 9.5 -43.5t34.5 -12.5q23 0 31.5 12t8.5 44v85h115v-48q0 -68 -18 -103t-52.5 -46t-84.5 -11z
" />
    <glyph glyph-name="c.sc" horiz-adv-x="390" 
d="M198 -10q-55 0 -91 12.5t-54.5 45t-18.5 89.5v253q0 62 45 87.5t120 25.5t117.5 -25t42.5 -88v-109h-114v114q0 22 -12 29.5t-35 7.5q-22 0 -33.5 -7.5t-11.5 -29.5v-302q0 -21 12 -28.5t33 -7.5q22 0 34.5 7.5t12.5 28.5v107h114v-62q0 -58 -17.5 -90.5t-52.5 -45
t-91 -12.5z" />
    <glyph glyph-name="cacute" unicode="&#x107;" horiz-adv-x="366" 
d="M187 -8q-51 0 -86.5 11t-53.5 45.5t-18 103.5v218q0 76 39 105t118 29q78 0 117 -27.5t39 -99.5v-73h-115v79q0 29 -8.5 41.5t-32.5 12.5t-33.5 -12.5t-9.5 -41.5v-268q0 -31 9.5 -43.5t34.5 -12.5q23 0 31.5 12t8.5 44v85h115v-48q0 -68 -18 -103t-52.5 -46t-84.5 -11z
M133 548l57 100h110l-95 -100h-72z" />
    <glyph glyph-name="caron" unicode="&#x2c7;" horiz-adv-x="283" 
d="M97 546l-94 105h70l58 -56l58 56h68l-95 -105h-65z" />
    <glyph glyph-name="uni030C" unicode="&#x30c;" 
d="M97 546l-94 105h70l58 -56l58 56h68l-95 -105h-65z" />
    <glyph glyph-name="uni030C.alt" 
d="M0 513l24 146h69l-52 -146h-41z" />
    <glyph glyph-name="uni030C.case" 
d="M96 631l-94 97h73l54 -47l55 47h71l-95 -97h-64z" />
    <glyph glyph-name="ccaron" unicode="&#x10d;" horiz-adv-x="366" 
d="M187 -8q-51 0 -86.5 11t-53.5 45.5t-18 103.5v218q0 76 39 105t118 29q78 0 117 -27.5t39 -99.5v-73h-115v79q0 29 -8.5 41.5t-32.5 12.5t-33.5 -12.5t-9.5 -41.5v-268q0 -31 9.5 -43.5t34.5 -12.5q23 0 31.5 12t8.5 44v85h115v-48q0 -68 -18 -103t-52.5 -46t-84.5 -11z
M150 546l-94 105h70l58 -56l58 56h68l-95 -105h-65z" />
    <glyph glyph-name="ccedilla" unicode="&#xe7;" horiz-adv-x="366" 
d="M187 -8q-51 0 -86.5 11t-53.5 45.5t-18 103.5v218q0 76 39 105t118 29q78 0 117 -27.5t39 -99.5v-73h-115v79q0 29 -8.5 41.5t-32.5 12.5t-33.5 -12.5t-9.5 -41.5v-268q0 -31 9.5 -43.5t34.5 -12.5q23 0 31.5 12t8.5 44v85h115v-48q0 -68 -18 -103t-52.5 -46t-84.5 -11z
M179 -161q-19 0 -35.5 7t-23.5 11l14 36q7 -5 19 -9t21 -4q16 0 24 7.5t8 19.5q0 10 -6.5 15.5t-16.5 5.5q-6 0 -11 -2t-9 -5l-32 17l32 62h43l-26 -52l-7 3q7 4 16.5 6.5t21.5 2.5q27 0 42.5 -17t15.5 -37q0 -28 -23.5 -47.5t-66.5 -19.5z" />
    <glyph glyph-name="cdotaccent" unicode="&#x10b;" horiz-adv-x="366" 
d="M187 -8q-51 0 -86.5 11t-53.5 45.5t-18 103.5v218q0 76 39 105t118 29q78 0 117 -27.5t39 -99.5v-73h-115v79q0 29 -8.5 41.5t-32.5 12.5t-33.5 -12.5t-9.5 -41.5v-268q0 -31 9.5 -43.5t34.5 -12.5q23 0 31.5 12t8.5 44v85h115v-48q0 -68 -18 -103t-52.5 -46t-84.5 -11z
M183 549q-24 0 -41 16.5t-18 40.5q0 24 17.5 40.5t42.5 16.5q24 0 41.5 -16.5t17.5 -40.5q1 -24 -17 -40.5t-43 -16.5z" />
    <glyph glyph-name="cedilla" unicode="&#xb8;" horiz-adv-x="202" 
d="M59 -161q-19 0 -35.5 7t-23.5 11l14 36q7 -5 19 -9t21 -4q16 0 24 7.5t8 19.5q0 10 -6.5 15.5t-16.5 5.5q-6 0 -11 -2t-9 -5l-32 17l32 62h43l-26 -52l-7 3q7 4 16.5 6.5t21.5 2.5q27 0 42.5 -17t15.5 -37q0 -28 -23.5 -47.5t-66.5 -19.5z" />
    <glyph glyph-name="uni0327" unicode="&#x327;" 
d="M59 -161q-19 0 -35.5 7t-23.5 11l14 36q7 -5 19 -9t21 -4q16 0 24 7.5t8 19.5q0 10 -6.5 15.5t-16.5 5.5q-6 0 -11 -2t-9 -5l-32 17l32 62h43l-26 -52l-7 3q7 4 16.5 6.5t21.5 2.5q27 0 42.5 -17t15.5 -37q0 -28 -23.5 -47.5t-66.5 -19.5z" />
    <glyph glyph-name="cent" unicode="&#xa2;" horiz-adv-x="366" 
d="M149 -65v114q-34 3 -59.5 15.5t-39.5 41.5t-14 83v261q0 39 14 62t39.5 35t59.5 14v87h73v-90q31 -4 55.5 -16t38.5 -34t14 -58v-102h-100v107q0 21 -6.5 30.5t-17 13.5t-23.5 4q-12 0 -22.5 -4t-17 -13.5t-6.5 -30.5v-300q0 -21 6.5 -31t17 -14t22.5 -4q13 0 23.5 4
t17 14t6.5 31v97h100v-62q0 -49 -14.5 -78t-38.5 -42.5t-55 -17.5v-117h-73z" />
    <glyph glyph-name="cent.tf" horiz-adv-x="434" 
d="M188 -65v114q-34 3 -59.5 15.5t-39.5 41.5t-14 83v261q0 39 14 62t39.5 35t59.5 14v87h73v-90q31 -4 55.5 -16t38.5 -34t14 -58v-102h-100v107q0 21 -6.5 30.5t-17 13.5t-23.5 4q-12 0 -22.5 -4t-17 -13.5t-6.5 -30.5v-300q0 -21 6.5 -31t17 -14t22.5 -4q13 0 23.5 4
t17 14t6.5 31v97h100v-62q0 -49 -14.5 -78t-38.5 -42.5t-55 -17.5v-117h-73z" />
    <glyph glyph-name="uni0447" unicode="&#x447;" horiz-adv-x="367" 
d="M228 0v167q-7 -30 -33 -48t-60 -18q-46 0 -70 15.5t-32 45t-8 71.5v262h114v-262q0 -27 8.5 -41t31.5 -14q17 0 27 8t14 16v293h114v-495h-106z" />
    <glyph glyph-name="circumflex" unicode="&#x2c6;" horiz-adv-x="274" 
d="M10 546l95 105h64l95 -105h-68l-58 56l-58 -56h-70z" />
    <glyph glyph-name="uni0302" unicode="&#x302;" 
d="M10 546l95 105h64l95 -105h-68l-58 56l-58 -56h-70z" />
    <glyph glyph-name="uni0302.case" 
d="M-1 631l96 100h64l97 -100h-72l-56 50l-56 -50h-73z" />
    <glyph glyph-name="uni03020301" 
d="M10 546l95 105h64l95 -105h-68l-58 56l-58 -56h-70zM259 602l57 100h110l-95 -100h-72z" />
    <glyph glyph-name="uni03020301.case" 
d="M7 382l70 82h60l70 -82h-65l-34 35l-34 -35h-67zM206 437l41 75h106l-75 -75h-72z" />
    <glyph glyph-name="uni03020300" 
d="M10 546l95 105h64l95 -105h-68l-58 56l-58 -56h-70zM293 602l-96 100h110l57 -100h-71z" />
    <glyph glyph-name="uni03020300.case" 
d="M7 382l70 82h60l70 -82h-65l-34 35l-34 -35h-67zM225 436l-75 75h106l41 -75h-72z" />
    <glyph glyph-name="uni03020309" 
d="M10 546l95 105h64l95 -105h-68l-58 56l-58 -56h-70zM277 603v12q0 15 10.5 22.5t21.5 14t11 18.5v6q0 8 -4 15t-15 7q-16 0 -18 -21l-51 8q3 27 21 41t53 14q39 0 59 -11.5t20 -50.5v-4q0 -22 -12 -30.5t-23.5 -13.5t-11.5 -17v-10h-61z" />
    <glyph glyph-name="uni03020309.case" 
d="M7 382l70 82h60l70 -82h-65l-34 35l-34 -35h-67zM210 432v6q0 11 8 16.5t16 10t8 11.5v5q0 8 -3 11t-8 3q-9 0 -11 -14l-45 7q1 22 15.5 33.5t45.5 11.5q36 0 50.5 -9t14.5 -40v-3q0 -16 -8 -22t-16 -9.5t-8 -11.5v-6h-59z" />
    <glyph glyph-name="uni03020303" 
d="M10 546l95 105h64l95 -105h-68l-58 56l-58 -56h-70zM183 675q-15 0 -28 5.5t-27 13.5q-10 7 -21 12t-23 5q-13 0 -20.5 -9.5t-8.5 -25.5h-34q1 39 18.5 63.5t45.5 24.5q16 0 30 -5.5t26 -13.5q11 -6 21.5 -11t21.5 -5q14 0 21.5 9t9.5 23h37q0 -28 -10.5 -47.5t-26.5 -29
t-32 -9.5z" />
    <glyph glyph-name="uni03020303.case" 
d="M7 382l70 82h60l70 -82h-65l-34 35l-34 -35h-67zM143 482q-12 0 -22.5 4.5t-20.5 9.5q-9 5 -17.5 8t-16.5 3t-13.5 -7t-5.5 -17h-30q0 34 14 54t37 20q11 0 22 -3t21 -9q8 -4 16 -7.5t16 -3.5q12 0 16.5 6.5t5.5 14.5h34q0 -24 -9.5 -40.5t-22 -24.5t-24.5 -8z" />
    <glyph glyph-name="colon" unicode=":" horiz-adv-x="220" 
d="M109 266q-24 0 -41.5 16.5t-17.5 40.5t17.5 40.5t41.5 16.5q25 0 43 -16.5t18 -40.5t-18 -40.5t-43 -16.5zM109 -9q-24 0 -41.5 16.5t-17.5 40.5t17.5 40.5t41.5 16.5q25 0 43 -16.5t18 -40.5t-18 -40.5t-43 -16.5z" />
    <glyph glyph-name="comma" unicode="," horiz-adv-x="223" 
d="M51 -147q15 33 26.5 60.5t11.5 49.5q0 19 -8.5 30t-17.5 21t-9 29q0 22 17 38.5t44 16.5q26 0 42 -17t16 -44t-11 -60t-27 -66t-34 -58h-50z" />
    <glyph glyph-name="comma.tf" horiz-adv-x="434" 
d="M164 -147q15 33 26.5 60.5t11.5 49.5q0 19 -8.5 30t-17.5 21t-9 29q0 22 17 38.5t44 16.5q26 0 42 -17t16 -44t-11 -60t-27 -66t-34 -58h-50z" />
    <glyph glyph-name="uni0326" unicode="&#x326;" 
d="M0 -189q14 21 23 39t9 30q0 7 -7 12t-14 12.5t-7 20.5q0 14 14 26t35 12q23 0 37 -13t14 -31q0 -14 -9 -34t-22 -39.5t-27 -34.5h-46z" />
    <glyph glyph-name="uni0312" unicode="&#x312;" 
d="M102 695q-13 -21 -22 -39t-9 -30q0 -7 7 -12.5t13.5 -12.5t6.5 -20q0 -15 -13.5 -26.5t-35.5 -11.5t-36.5 12.5t-14.5 31.5q0 15 9 34.5t22.5 39t26.5 34.5h46z" />
    <glyph glyph-name="copyright" unicode="&#xa9;" horiz-adv-x="600" 
d="M313 30q-58 0 -109 21.5t-89.5 60.5t-60 90t-21.5 109t21.5 109t60 89.5t89.5 60t109 21.5t109 -21.5t89.5 -60t60 -89.5t21.5 -109t-21.5 -109t-60 -90t-89.5 -60.5t-109 -21.5zM313 74q49 0 92 18.5t75 51.5t50 76t18 91q0 65 -31.5 118.5t-84.5 85.5t-119 32
q-48 0 -90.5 -18.5t-75 -51t-51 -75t-18.5 -91.5q0 -48 18.5 -91t51 -76t75 -51.5t90.5 -18.5zM315 150q-35 0 -59.5 7.5t-36.5 30.5t-12 68v143q0 51 26.5 70t80.5 19t80.5 -18t26.5 -66v-48h-77v53q0 18 -6.5 26t-23.5 8t-23.5 -8t-6.5 -26v-178q0 -20 6.5 -27.5
t24.5 -7.5q16 0 22.5 7.5t6.5 27.5v57h77v-31q0 -46 -12 -69t-36 -30.5t-58 -7.5z" />
    <glyph glyph-name="currency" unicode="&#xa4;" horiz-adv-x="521" 
d="M93 81l-53 53l94 94q-11 17 -17 35t-6 38q0 40 22 73l-97 97l53 52l99 -98q33 18 71 18t71 -18l98 99l53 -53l-96 -97q22 -33 22 -73q0 -39 -21 -71l99 -98l-53 -53l-101 100q-18 -9 -36 -14t-36 -5q-39 0 -71 17zM259 236q27 0 46 19t19 45q0 28 -19 47t-46 19
q-28 0 -46.5 -18.5t-18.5 -47.5q0 -26 18.5 -45t46.5 -19z" />
    <glyph glyph-name="d" unicode="d" horiz-adv-x="380" 
d="M159 -7q-32 0 -56 6.5t-41 22.5t-25 46t-8 77v241q0 33 9 55t24 35.5t34.5 19.5t42.5 6q40 0 60 -12.5t29 -28.5v169h114v-630h-77l-12 47q-4 -10 -15 -22.5t-29.5 -22t-49.5 -9.5zM185 58q15 0 23.5 5.5t13 15t5.5 21.5t1 26v284q-1 5 -5.5 10t-13.5 9t-23 4
q-15 0 -23.5 -4.5t-13 -12.5t-5.5 -18.5t-1 -23.5v-257q0 -17 2.5 -30.5t11.5 -21t28 -7.5z" />
    <glyph glyph-name="d.sc" horiz-adv-x="400" 
d="M41 0v495h203q38 0 65 -9.5t41.5 -29.5t14.5 -50v-300q0 -55 -33 -80.5t-104 -25.5h-187zM159 59h50q12 0 21.5 2.5t15 10.5t5.5 23v299q0 20 -10.5 29t-31.5 9h-50v-373z" />
    <glyph glyph-name="dagger" unicode="&#x2020;" horiz-adv-x="382" 
d="M141 -121v437h-105v63h105v206h99v-206h107v-63h-107v-437h-99z" />
    <glyph glyph-name="daggerdbl" unicode="&#x2021;" horiz-adv-x="387" 
d="M143 -121v254h-107v71h107v123h-107v71h107v218h100v-218h108v-71h-108v-123h108v-71h-108v-254h-100z" />
    <glyph glyph-name="dcaron" unicode="&#x10f;" horiz-adv-x="451" 
d="M159 -7q-32 0 -56 6.5t-41 22.5t-25 46t-8 77v241q0 33 9 55t24 35.5t34.5 19.5t42.5 6q40 0 60 -12.5t29 -28.5v169h114v-630h-77l-12 47q-4 -10 -15 -22.5t-29.5 -22t-49.5 -9.5zM185 58q15 0 23.5 5.5t13 15t5.5 21.5t1 26v284q-1 5 -5.5 10t-13.5 9t-23 4
q-15 0 -23.5 -4.5t-13 -12.5t-5.5 -18.5t-1 -23.5v-257q0 -17 2.5 -30.5t11.5 -21t28 -7.5zM367 487l24 146h69l-52 -146h-41z" />
    <glyph glyph-name="dcroat" unicode="&#x111;" horiz-adv-x="376" 
d="M139 532v44h233v-44h-233zM159 -7q-32 0 -56 6.5t-41 22.5t-25 46t-8 77v241q0 33 9 55t24 35.5t34.5 19.5t42.5 6q40 0 60 -12.5t29 -28.5v169h114v-630h-77l-12 47q-4 -10 -15 -22.5t-29.5 -22t-49.5 -9.5zM185 58q15 0 23.5 5.5t13 15t5.5 21.5t1 26v284q-1 5 -5.5 10
t-13.5 9t-23 4q-15 0 -23.5 -4.5t-13 -12.5t-5.5 -18.5t-1 -23.5v-257q0 -17 2.5 -30.5t11.5 -21t28 -7.5z" />
    <glyph glyph-name="uni0434" unicode="&#x434;" horiz-adv-x="539" 
d="M18 -114v181h36q11 2 25 11.5t25.5 30t15.5 54.5l36 332h285v-428h79v-181h-95v92h-312v-92h-95zM202 67h118v346h-60l-28 -244q-4 -29 -10 -60t-20 -42z" />
    <glyph glyph-name="uni0434.loclBGR" horiz-adv-x="539" 
d="M18 -114v181h36q11 2 25 11.5t25.5 30t15.5 54.5l36 332h285v-428h79v-181h-95v92h-312v-92h-95zM202 67h118v346h-60l-28 -244q-4 -29 -10 -60t-20 -42z" />
    <glyph glyph-name="degree" unicode="&#xb0;" horiz-adv-x="329" 
d="M164 341q-66 0 -97 36.5t-31 87.5q0 52 29.5 89t100.5 37q48 0 76 -17t39.5 -45t11.5 -62q0 -55 -31.5 -90.5t-97.5 -35.5zM165 392q31 0 49.5 20.5t18.5 53.5q0 30 -17.5 52.5t-51.5 22.5q-31 0 -49 -22t-18 -54t19.5 -52.5t48.5 -20.5z" />
    <glyph glyph-name="dieresis" unicode="&#xa8;" horiz-adv-x="235" 
d="M48 549q-21 0 -34.5 13t-13.5 33q0 19 13.5 31.5t34.5 12.5q20 0 33 -12.5t13 -31.5q0 -20 -13 -33t-33 -13zM168 549q-20 0 -34 13t-14 33q0 19 14 31.5t34 12.5t33.5 -12.5t13.5 -31.5q0 -20 -13.5 -33t-33.5 -13z" />
    <glyph glyph-name="uni0308" unicode="&#x308;" 
d="M48 549q-21 0 -34.5 13t-13.5 33q0 19 13.5 31.5t34.5 12.5q20 0 33 -12.5t13 -31.5q0 -20 -13 -33t-33 -13zM168 549q-20 0 -34 13t-14 33q0 19 14 31.5t34 12.5t33.5 -12.5t13.5 -31.5q0 -20 -13.5 -33t-33.5 -13z" />
    <glyph glyph-name="uni0308.case" 
d="M48 634q-21 0 -34.5 13t-13.5 33q0 19 13.5 31.5t34.5 12.5q20 0 33 -12.5t13 -31.5q0 -20 -13 -33t-33 -13zM168 634q-20 0 -34 13t-14 33q0 19 14 31.5t34 12.5t33.5 -12.5t13.5 -31.5q0 -20 -13.5 -33t-33.5 -13z" />
    <glyph glyph-name="divide" unicode="&#xf7;" horiz-adv-x="387" 
d="M43 249v77h301v-77h-301zM193 71q-23 0 -39 14.5t-16 37.5q0 22 16 37.5t39 15.5q24 0 40 -15.5t16 -37.5q0 -23 -16 -37.5t-40 -14.5zM193 394q-23 0 -39 15.5t-16 37.5q0 23 16 38t39 15t39 -15t16 -38q0 -22 -16 -37.5t-39 -15.5z" />
    <glyph glyph-name="uni2215" unicode="&#x2215;" horiz-adv-x="441" 
d="M17 -142l335 856h81l-336 -856h-80z" />
    <glyph glyph-name="uni0452" unicode="&#x452;" horiz-adv-x="429" 
d="M289 -92q-24 0 -41 4t-28 9l4 53q4 -3 9.5 -4.5t12.5 -1.5q21 0 29.5 16.5t8.5 49.5v260q-1 24 -10.5 37.5t-33.5 13.5q-16 0 -24.5 -5.5t-12.5 -15t-5.5 -18.5t-2.5 -17v-289h-116v494h-69v61h69v75h116v-75h90v-61h-90v-126q10 19 30.5 33t57.5 14q33 0 59 -10
t41 -35.5t15 -72.5v-234q0 -47 -8 -77t-22.5 -47.5t-34 -24t-44.5 -6.5z" />
    <glyph glyph-name="dollar" unicode="$" horiz-adv-x="354" 
d="M155 -60v109q-50 4 -77.5 21t-38.5 49t-11 79v36h109v-60q0 -18 1.5 -33t10.5 -23t30 -8q19 0 27.5 7.5t10.5 19.5t2 23v38q0 25 -9.5 39.5t-27.5 25t-44 21.5q-26 10 -49 24.5t-36.5 38t-13.5 60.5v29q0 55 26 87.5t90 38.5v93h62v-91q68 -6 93 -40.5t25 -101.5v-37
h-104v57q0 33 -9.5 46.5t-31.5 13.5q-25 0 -33 -13t-8 -32v-38q0 -26 13 -40.5t34 -23.5t46 -19t46 -23.5t34 -36t13 -60.5v-30q0 -37 -10 -66t-35.5 -47t-72.5 -23v-110h-62z" />
    <glyph glyph-name="dollar.tf" horiz-adv-x="434" 
d="M187 -60v109q-50 4 -77.5 21t-38.5 49t-11 79v36h109v-60q0 -18 1.5 -33t10.5 -23t30 -8q19 0 27.5 7.5t10.5 19.5t2 23v38q0 25 -9.5 39.5t-27.5 25t-44 21.5q-26 10 -49 24.5t-36.5 38t-13.5 60.5v29q0 55 26 87.5t90 38.5v93h62v-91q68 -6 93 -40.5t25 -101.5v-37
h-104v57q0 33 -9.5 46.5t-31.5 13.5q-25 0 -33 -13t-8 -32v-38q0 -26 13 -40.5t34 -23.5t46 -19t46 -23.5t34 -36t13 -60.5v-30q0 -37 -10 -66t-35.5 -47t-72.5 -23v-110h-62z" />
    <glyph glyph-name="dotaccent" unicode="&#x2d9;" horiz-adv-x="115" 
d="M59 549q-24 0 -41 16.5t-18 40.5q0 24 17.5 40.5t42.5 16.5q24 0 41.5 -16.5t17.5 -40.5q1 -24 -17 -40.5t-43 -16.5z" />
    <glyph glyph-name="uni0307" unicode="&#x307;" 
d="M59 549q-24 0 -41 16.5t-18 40.5q0 24 17.5 40.5t42.5 16.5q24 0 41.5 -16.5t17.5 -40.5q1 -24 -17 -40.5t-43 -16.5z" />
    <glyph glyph-name="uni0307.case" 
d="M59 635q-24 0 -41 16.5t-18 40.5q0 24 17.5 40.5t42.5 16.5q24 0 41.5 -16.5t17.5 -40.5q1 -24 -17 -40.5t-43 -16.5z" />
    <glyph glyph-name="dotbelowcomb" unicode="&#x323;" 
d="M58 -130q-21 0 -34.5 14t-13.5 32q0 20 13.5 33.5t34.5 13.5q19 0 33.5 -13.5t14.5 -33.5q0 -18 -14.5 -32t-33.5 -14z" />
    <glyph glyph-name="arrowdown" unicode="&#x2193;" horiz-adv-x="531" 
d="M267 -1l-231 277l55 56l128 -137l3 532h90l-1 -530l129 134l55 -55z" />
    <glyph glyph-name="uni0455" unicode="&#x455;" horiz-adv-x="369" 
d="M182 -11q-50 0 -81.5 10.5t-48 30t-22.5 47.5t-6 62v35h114v-59q0 -18 2 -33t11 -23t30 -8q19 0 28 7.5t11 19.5t2 23v38q0 25 -9.5 40t-29 24.5t-46.5 20.5t-50 25.5t-37.5 38t-14.5 59.5v29q0 63 34 96t123 33q59 0 92 -15.5t46.5 -46.5t13.5 -80v-37h-110v57
q0 33 -9.5 46.5t-31.5 13.5q-25 0 -33.5 -13t-8.5 -32v-39q0 -25 13.5 -40t35.5 -23.5t47 -18.5q26 -10 48 -23.5t35.5 -36t13.5 -60.5v-30q0 -42 -13.5 -73t-48.5 -48t-100 -17z" />
    <glyph glyph-name="uni045F" unicode="&#x45f;" horiz-adv-x="383" 
d="M149 -103v103h-116v495h114v-413h89v413h114v-495h-118v-103h-83z" />
    <glyph glyph-name="e" unicode="e" horiz-adv-x="366" 
d="M188 -8q-52 0 -87.5 11.5t-53.5 46t-18 104.5v223q0 72 39 99t118 27q78 0 117 -27t39 -99v-135h-199v-135q0 -30 9.5 -42t34.5 -12q23 0 31.5 11.5t8.5 42.5v79h115v-31q0 -70 -18 -105t-52.5 -46.5t-83.5 -11.5zM143 294h84v96q0 29 -8.5 41t-32.5 12t-33.5 -12
t-9.5 -41v-96z" />
    <glyph glyph-name="e.sc" horiz-adv-x="327" 
d="M41 0v495h266v-79h-147v-117h125v-89h-125v-132h147v-78h-266z" />
    <glyph glyph-name="eacute" unicode="&#xe9;" horiz-adv-x="366" 
d="M188 -8q-52 0 -87.5 11.5t-53.5 46t-18 104.5v223q0 72 39 99t118 27q78 0 117 -27t39 -99v-135h-199v-135q0 -30 9.5 -42t34.5 -12q23 0 31.5 11.5t8.5 42.5v79h115v-31q0 -70 -18 -105t-52.5 -46.5t-83.5 -11.5zM143 294h84v96q0 29 -8.5 41t-32.5 12t-33.5 -12
t-9.5 -41v-96zM133 548l57 100h110l-95 -100h-72z" />
    <glyph glyph-name="ecaron" unicode="&#x11b;" horiz-adv-x="366" 
d="M188 -8q-52 0 -87.5 11.5t-53.5 46t-18 104.5v223q0 72 39 99t118 27q78 0 117 -27t39 -99v-135h-199v-135q0 -30 9.5 -42t34.5 -12q23 0 31.5 11.5t8.5 42.5v79h115v-31q0 -70 -18 -105t-52.5 -46.5t-83.5 -11.5zM143 294h84v96q0 29 -8.5 41t-32.5 12t-33.5 -12
t-9.5 -41v-96zM150 546l-94 105h70l58 -56l58 56h68l-95 -105h-65z" />
    <glyph glyph-name="ecircumflex" unicode="&#xea;" horiz-adv-x="366" 
d="M188 -8q-52 0 -87.5 11.5t-53.5 46t-18 104.5v223q0 72 39 99t118 27q78 0 117 -27t39 -99v-135h-199v-135q0 -30 9.5 -42t34.5 -12q23 0 31.5 11.5t8.5 42.5v79h115v-31q0 -70 -18 -105t-52.5 -46.5t-83.5 -11.5zM143 294h84v96q0 29 -8.5 41t-32.5 12t-33.5 -12
t-9.5 -41v-96zM56 546l95 105h64l95 -105h-68l-58 56l-58 -56h-70z" />
    <glyph glyph-name="uni1EBF" unicode="&#x1ebf;" horiz-adv-x="366" 
d="M188 -8q-52 0 -87.5 11.5t-53.5 46t-18 104.5v223q0 72 39 99t118 27q78 0 117 -27t39 -99v-135h-199v-135q0 -30 9.5 -42t34.5 -12q23 0 31.5 11.5t8.5 42.5v79h115v-31q0 -70 -18 -105t-52.5 -46.5t-83.5 -11.5zM143 294h84v96q0 29 -8.5 41t-32.5 12t-33.5 -12
t-9.5 -41v-96zM56 546l95 105h64l95 -105h-68l-58 56l-58 -56h-70zM305 602l57 100h110l-95 -100h-72z" />
    <glyph glyph-name="uni1EC7" unicode="&#x1ec7;" horiz-adv-x="366" 
d="M188 -8q-52 0 -87.5 11.5t-53.5 46t-18 104.5v223q0 72 39 99t118 27q78 0 117 -27t39 -99v-135h-199v-135q0 -30 9.5 -42t34.5 -12q23 0 31.5 11.5t8.5 42.5v79h115v-31q0 -70 -18 -105t-52.5 -46.5t-83.5 -11.5zM143 294h84v96q0 29 -8.5 41t-32.5 12t-33.5 -12
t-9.5 -41v-96zM183 -130q-21 0 -34.5 14t-13.5 32q0 20 13.5 33.5t34.5 13.5q19 0 33.5 -13.5t14.5 -33.5q0 -18 -14.5 -32t-33.5 -14zM56 546l95 105h64l95 -105h-68l-58 56l-58 -56h-70z" />
    <glyph glyph-name="uni1EC1" unicode="&#x1ec1;" horiz-adv-x="366" 
d="M188 -8q-52 0 -87.5 11.5t-53.5 46t-18 104.5v223q0 72 39 99t118 27q78 0 117 -27t39 -99v-135h-199v-135q0 -30 9.5 -42t34.5 -12q23 0 31.5 11.5t8.5 42.5v79h115v-31q0 -70 -18 -105t-52.5 -46.5t-83.5 -11.5zM143 294h84v96q0 29 -8.5 41t-32.5 12t-33.5 -12
t-9.5 -41v-96zM56 546l95 105h64l95 -105h-68l-58 56l-58 -56h-70zM339 602l-96 100h110l57 -100h-71z" />
    <glyph glyph-name="uni1EC3" unicode="&#x1ec3;" horiz-adv-x="366" 
d="M188 -8q-52 0 -87.5 11.5t-53.5 46t-18 104.5v223q0 72 39 99t118 27q78 0 117 -27t39 -99v-135h-199v-135q0 -30 9.5 -42t34.5 -12q23 0 31.5 11.5t8.5 42.5v79h115v-31q0 -70 -18 -105t-52.5 -46.5t-83.5 -11.5zM143 294h84v96q0 29 -8.5 41t-32.5 12t-33.5 -12
t-9.5 -41v-96zM56 546l95 105h64l95 -105h-68l-58 56l-58 -56h-70zM323 603v12q0 15 10.5 22.5t21.5 14t11 18.5v6q0 8 -4 15t-15 7q-16 0 -18 -21l-51 8q3 27 21 41t53 14q39 0 59 -11.5t20 -50.5v-4q0 -22 -12 -30.5t-23.5 -13.5t-11.5 -17v-10h-61z" />
    <glyph glyph-name="uni1EC5" unicode="&#x1ec5;" horiz-adv-x="366" 
d="M188 -8q-52 0 -87.5 11.5t-53.5 46t-18 104.5v223q0 72 39 99t118 27q78 0 117 -27t39 -99v-135h-199v-135q0 -30 9.5 -42t34.5 -12q23 0 31.5 11.5t8.5 42.5v79h115v-31q0 -70 -18 -105t-52.5 -46.5t-83.5 -11.5zM143 294h84v96q0 29 -8.5 41t-32.5 12t-33.5 -12
t-9.5 -41v-96zM56 546l95 105h64l95 -105h-68l-58 56l-58 -56h-70zM229 675q-15 0 -28 5.5t-27 13.5q-10 7 -21 12t-23 5q-13 0 -20.5 -9.5t-8.5 -25.5h-34q1 39 18.5 63.5t45.5 24.5q16 0 30 -5.5t26 -13.5q11 -6 21.5 -11t21.5 -5q14 0 21.5 9t9.5 23h37
q0 -28 -10.5 -47.5t-26.5 -29t-32 -9.5z" />
    <glyph glyph-name="edieresis" unicode="&#xeb;" horiz-adv-x="366" 
d="M188 -8q-52 0 -87.5 11.5t-53.5 46t-18 104.5v223q0 72 39 99t118 27q78 0 117 -27t39 -99v-135h-199v-135q0 -30 9.5 -42t34.5 -12q23 0 31.5 11.5t8.5 42.5v79h115v-31q0 -70 -18 -105t-52.5 -46.5t-83.5 -11.5zM143 294h84v96q0 29 -8.5 41t-32.5 12t-33.5 -12
t-9.5 -41v-96zM124 549q-21 0 -34.5 13t-13.5 33q0 19 13.5 31.5t34.5 12.5q20 0 33 -12.5t13 -31.5q0 -20 -13 -33t-33 -13zM244 549q-20 0 -34 13t-14 33q0 19 14 31.5t34 12.5t33.5 -12.5t13.5 -31.5q0 -20 -13.5 -33t-33.5 -13z" />
    <glyph glyph-name="edotaccent" unicode="&#x117;" horiz-adv-x="366" 
d="M188 -8q-52 0 -87.5 11.5t-53.5 46t-18 104.5v223q0 72 39 99t118 27q78 0 117 -27t39 -99v-135h-199v-135q0 -30 9.5 -42t34.5 -12q23 0 31.5 11.5t8.5 42.5v79h115v-31q0 -70 -18 -105t-52.5 -46.5t-83.5 -11.5zM143 294h84v96q0 29 -8.5 41t-32.5 12t-33.5 -12
t-9.5 -41v-96zM183 549q-24 0 -41 16.5t-18 40.5q0 24 17.5 40.5t42.5 16.5q24 0 41.5 -16.5t17.5 -40.5q1 -24 -17 -40.5t-43 -16.5z" />
    <glyph glyph-name="uni1EB9" unicode="&#x1eb9;" horiz-adv-x="366" 
d="M188 -8q-52 0 -87.5 11.5t-53.5 46t-18 104.5v223q0 72 39 99t118 27q78 0 117 -27t39 -99v-135h-199v-135q0 -30 9.5 -42t34.5 -12q23 0 31.5 11.5t8.5 42.5v79h115v-31q0 -70 -18 -105t-52.5 -46.5t-83.5 -11.5zM143 294h84v96q0 29 -8.5 41t-32.5 12t-33.5 -12
t-9.5 -41v-96zM183 -130q-21 0 -34.5 14t-13.5 32q0 20 13.5 33.5t34.5 13.5q19 0 33.5 -13.5t14.5 -33.5q0 -18 -14.5 -32t-33.5 -14z" />
    <glyph glyph-name="uni0444" unicode="&#x444;" horiz-adv-x="589" 
d="M239 -115v125q-15 -7 -34.5 -12t-46.5 -5q-76 0 -102.5 37.5t-26.5 105.5v196q0 42 11 72t39 46t81 16q29 0 49.5 -6t29.5 -16v147h113v-146q7 10 28.5 15.5t47.5 5.5q53 0 82 -16t39.5 -46t10.5 -72v-196q0 -68 -26.5 -105.5t-102.5 -37.5q-26 0 -45 5t-34 13v-126h-113
zM187 53q18 0 29.5 7.5t17 20t5.5 25.5v229q0 23 -3.5 38.5t-15 24t-32.5 8.5t-30 -8t-11.5 -24.5t-2.5 -42.5v-217q0 -19 3.5 -32.5t13 -21t26.5 -7.5zM406 53q17 0 26 7.5t12.5 21t3.5 32.5v217q0 25 -2.5 41t-11.5 25t-29 9t-31.5 -8t-16.5 -22.5t-5 -36.5v-226
q0 -16 5.5 -30t17.5 -22t31 -8z" />
    <glyph glyph-name="egrave" unicode="&#xe8;" horiz-adv-x="366" 
d="M188 -8q-52 0 -87.5 11.5t-53.5 46t-18 104.5v223q0 72 39 99t118 27q78 0 117 -27t39 -99v-135h-199v-135q0 -30 9.5 -42t34.5 -12q23 0 31.5 11.5t8.5 42.5v79h115v-31q0 -70 -18 -105t-52.5 -46.5t-83.5 -11.5zM143 294h84v96q0 29 -8.5 41t-32.5 12t-33.5 -12
t-9.5 -41v-96zM168 548l-96 100h110l57 -100h-71z" />
    <glyph glyph-name="uni1EBB" unicode="&#x1ebb;" horiz-adv-x="366" 
d="M188 -8q-52 0 -87.5 11.5t-53.5 46t-18 104.5v223q0 72 39 99t118 27q78 0 117 -27t39 -99v-135h-199v-135q0 -30 9.5 -42t34.5 -12q23 0 31.5 11.5t8.5 42.5v79h115v-31q0 -70 -18 -105t-52.5 -46.5t-83.5 -11.5zM143 294h84v96q0 29 -8.5 41t-32.5 12t-33.5 -12
t-9.5 -41v-96zM151 549v12q0 15 10.5 22.5t21.5 14t11 18.5v6q0 8 -4 15t-15 7q-16 0 -18 -21l-51 8q3 27 21 41t53 14q39 0 59 -11.5t20 -50.5v-4q0 -22 -12 -30.5t-23.5 -13.5t-11.5 -17v-10h-61z" />
    <glyph glyph-name="eight" unicode="8" horiz-adv-x="387" 
d="M195 -8q-57 0 -95 17.5t-56 51t-18 79.5v36q0 30 5 55t20 42q11 13 32.5 23.5t56.5 13.5q-34 1 -50.5 8t-31.5 20q-17 17 -22 45.5t-5 58.5v23q0 44 15.5 72.5t51 42.5t97.5 14t97.5 -14t51 -42.5t15.5 -72.5v-23q0 -35 -8.5 -62.5t-30 -45t-59.5 -24.5q35 -3 55.5 -16
t30 -32.5t12 -42t2.5 -44.5v-36q0 -40 -16.5 -73.5t-53 -53.5t-96.5 -20zM193 59q26 0 39 15.5t13 41.5v85q0 26 -12 42t-40 17q-27 0 -39 -18.5t-12 -41.5v-84q0 -25 12 -41t39 -16zM193 348q20 0 35 16t15 49v48q0 29 -11 49.5t-39 20.5q-29 0 -39 -21t-10 -48v-48
q0 -22 6.5 -37t18 -22t24.5 -7z" />
    <glyph glyph-name="eight.tf" horiz-adv-x="434" 
d="M217 -8q-57 0 -95 17.5t-56 51t-18 79.5v36q0 30 5 55t20 42q11 13 32.5 23.5t56.5 13.5q-34 1 -50.5 8t-31.5 20q-17 17 -22 45.5t-5 58.5v23q0 44 15.5 72.5t51 42.5t97.5 14t97.5 -14t51 -42.5t15.5 -72.5v-23q0 -35 -8.5 -62.5t-30 -45t-59.5 -24.5q35 -3 55.5 -16
t30 -32.5t12 -42t2.5 -44.5v-36q0 -40 -16.5 -73.5t-53 -53.5t-96.5 -20zM215 59q26 0 39 15.5t13 41.5v85q0 26 -12 42t-40 17q-27 0 -39 -18.5t-12 -41.5v-84q0 -25 12 -41t39 -16zM215 348q20 0 35 16t15 49v48q0 29 -11 49.5t-39 20.5q-29 0 -39 -21t-10 -48v-48
q0 -22 6.5 -37t18 -22t24.5 -7z" />
    <glyph glyph-name="uni043B" unicode="&#x43b;" horiz-adv-x="435" 
d="M13 0v60q19 0 35 22t18 54l31 359h306v-495h-117v414h-73l-31 -308q-2 -16 -4 -34.5t-11 -34.5t-27.5 -26.5t-53.5 -10.5h-73z" />
    <glyph glyph-name="uni043B.loclBGR" horiz-adv-x="435" 
d="M13 0v60q19 0 35 22t18 54l31 359h306v-495h-117v414h-73l-31 -308q-2 -16 -4 -34.5t-11 -34.5t-27.5 -26.5t-53.5 -10.5h-73z" />
    <glyph glyph-name="ellipsis" unicode="&#x2026;" horiz-adv-x="583" 
d="M109 -9q-24 0 -41.5 16.5t-17.5 40.5t17.5 40.5t41.5 16.5q25 0 43 -16.5t18 -40.5t-18 -40.5t-43 -16.5zM292 -9q-24 0 -41.5 16.5t-17.5 40.5t17.5 40.5t41.5 16.5q25 0 43 -16.5t18 -40.5t-18 -40.5t-43 -16.5zM472 -9q-24 0 -41.5 16.5t-17.5 40.5t17.5 40.5
t41.5 16.5q25 0 43 -16.5t18 -40.5t-18 -40.5t-43 -16.5z" />
    <glyph glyph-name="uni043C" unicode="&#x43c;" horiz-adv-x="502" 
d="M33 0v495h141l78 -352l78 352h140v-495h-93v347l-86 -347h-78l-87 347v-347h-93z" />
    <glyph glyph-name="emacron" unicode="&#x113;" horiz-adv-x="366" 
d="M188 -8q-52 0 -87.5 11.5t-53.5 46t-18 104.5v223q0 72 39 99t118 27q78 0 117 -27t39 -99v-135h-199v-135q0 -30 9.5 -42t34.5 -12q23 0 31.5 11.5t8.5 42.5v79h115v-31q0 -70 -18 -105t-52.5 -46.5t-83.5 -11.5zM143 294h84v96q0 29 -8.5 41t-32.5 12t-33.5 -12
t-9.5 -41v-96zM80 560v58h206v-58h-206z" />
    <glyph glyph-name="emdash" unicode="&#x2014;" horiz-adv-x="653" 
d="M27 240v77h599v-77h-599z" />
    <glyph glyph-name="emptyset" unicode="&#x2205;" horiz-adv-x="412" 
d="M23 55l344 511h23l-345 -511h-22zM219 -13q-49 1 -86.5 20.5t-58.5 63t-21 115.5v240q0 88 46.5 130t121.5 42q72 0 117.5 -42t45.5 -130v-239q0 -74 -20.5 -118t-58 -63t-86.5 -19zM218 56q22 0 36.5 17.5t14.5 52.5v332q0 35 -14.5 52.5t-36.5 17.5q-20 0 -34.5 -17.5
t-14.5 -52.5v-332q0 -35 14.5 -52.5t34.5 -17.5z" />
    <glyph glyph-name="uni043D" unicode="&#x43d;" horiz-adv-x="382" 
d="M33 0v495h114v-195h90v195h112v-495h-112v214h-90v-214h-114z" />
    <glyph glyph-name="endash" unicode="&#x2013;" horiz-adv-x="427" 
d="M27 240v77h374v-77h-374z" />
    <glyph glyph-name="eng" unicode="&#x14b;" horiz-adv-x="379" 
d="M189 -114q-12 0 -24 1.5t-23 3.5v58h8t15 -0.5t9 -0.5q29 0 43.5 12t14.5 37v367q0 16 -2.5 29t-11 21t-28.5 8q-13 0 -22 -4t-14 -10t-7 -12v-396h-114v495h96l10 -60q10 32 36.5 49.5t57.5 17.5q48 0 72.5 -16t32.5 -45.5t8 -69.5v-333q0 -61 -22 -94.5t-57.5 -46
t-77.5 -11.5z" />
    <glyph glyph-name="eogonek" unicode="&#x119;" horiz-adv-x="366" 
d="M188 -8q-52 0 -87.5 11.5t-53.5 46t-18 104.5v223q0 72 39 99t118 27q78 0 117 -27t39 -99v-135h-199v-135q0 -30 9.5 -42t34.5 -12q23 0 31.5 11.5t8.5 42.5v79h115v-31q0 -70 -18 -105t-52.5 -46.5t-83.5 -11.5zM143 294h84v96q0 29 -8.5 41t-32.5 12t-33.5 -12
t-9.5 -41v-96zM200 -144q-36 0 -59 19.5t-23 44.5q0 28 22.5 52t56.5 29l47 -1q-27 -9 -39.5 -28t-12.5 -36q0 -19 12.5 -29t24.5 -10q8 0 13.5 2t8.5 2l13 -30q-5 -3 -19.5 -9t-44.5 -6z" />
    <glyph glyph-name="equal" unicode="=" horiz-adv-x="442" 
d="M50 340v77h342v-77h-342zM50 136v78h342v-78h-342z" />
    <glyph glyph-name="uni0440" unicode="&#x440;" horiz-adv-x="380" 
d="M37 -116v611h113v-39q10 17 28 32t59 15q35 0 60 -11.5t39 -37t14 -69.5v-240q0 -55 -12 -88.5t-37 -48t-64 -14.5q-35 0 -55.5 12.5t-30.5 28.5v-151h-114zM194 58q15 0 23 4.5t12.5 12.5t5.5 18.5t1 23.5v256q0 13 -1 24t-5.5 19t-12.5 12t-23 4q-14 0 -22.5 -4.5
t-13 -12t-6 -16.5t-1.5 -16v-269q0 -17 3.5 -30t12.5 -19.5t27 -6.5z" />
    <glyph glyph-name="uni044D" unicode="&#x44d;" horiz-adv-x="382" 
d="M192 -10q-56 0 -91 13.5t-51.5 49.5t-16.5 102v19h114v-65q0 -18 3 -31.5t13 -20.5t29 -7q20 0 29 7.5t12 21t3 30.5v113h-144v73h144v88q0 18 -3 31.5t-12 21t-29 7.5q-19 0 -29 -7.5t-13 -20.5t-3 -32v-41h-114v29q0 46 16 75t51 43t92 14q43 0 72.5 -8t48.5 -24.5
t28 -41t9 -57.5v-218q0 -49 -9.5 -81t-28.5 -50t-48.5 -25.5t-71.5 -7.5z" />
    <glyph glyph-name="uni0441" unicode="&#x441;" horiz-adv-x="366" 
d="M187 -8q-51 0 -86.5 11t-53.5 45.5t-18 103.5v218q0 76 39 105t118 29q78 0 117 -27.5t39 -99.5v-73h-115v79q0 29 -8.5 41.5t-32.5 12.5t-33.5 -12.5t-9.5 -41.5v-268q0 -31 9.5 -43.5t34.5 -12.5q23 0 31.5 12t8.5 44v85h115v-48q0 -68 -18 -103t-52.5 -46t-84.5 -11z
" />
    <glyph glyph-name="eth" unicode="&#xf0;" horiz-adv-x="373" 
d="M184 -8q-33 0 -61 5t-49 20t-33 47t-12 87v206q0 52 18.5 79.5t50.5 37.5t74 10q15 0 30 -3t24 -11q-1 34 -7.5 60.5t-23 42t-48.5 15.5q-24 0 -44.5 -3t-43.5 -8v73q18 4 43.5 8t64.5 4q57 0 91.5 -15t52.5 -49t24.5 -89t6.5 -134v-209q0 -50 -9.5 -83.5t-29 -53
t-49.5 -28.5t-70 -9zM184 52q18 0 27 9t12.5 24.5t3.5 32.5v265q0 9 -4 18.5t-13 16t-27 6.5q-16 0 -25 -6.5t-12 -18.5t-3 -30v-266q0 -17 4 -27t10.5 -15t13.5 -7t13 -2zM136 506l-26 32l186 153l27 -32z" />
    <glyph glyph-name="eth.sc" horiz-adv-x="433" 
d="M58 0v495h219q39 0 66 -10t41 -30t14 -49v-300q0 -55 -33 -80.5t-104 -25.5h-203zM12 211v65h203v-65h-203zM177 59h57q14 0 25.5 2.5t18 10t6.5 23.5v299q0 20 -11 29t-39 9h-57v-373z" />
    <glyph glyph-name="uni1EBD" unicode="&#x1ebd;" horiz-adv-x="366" 
d="M188 -8q-52 0 -87.5 11.5t-53.5 46t-18 104.5v223q0 72 39 99t118 27q78 0 117 -27t39 -99v-135h-199v-135q0 -30 9.5 -42t34.5 -12q23 0 31.5 11.5t8.5 42.5v79h115v-31q0 -70 -18 -105t-52.5 -46.5t-83.5 -11.5zM143 294h84v96q0 29 -8.5 41t-32.5 12t-33.5 -12
t-9.5 -41v-96zM229 551q-15 0 -28 5.5t-27 13.5q-10 7 -21 12t-23 5q-13 0 -20.5 -9.5t-8.5 -25.5h-34q1 39 18.5 63.5t45.5 24.5q16 0 30 -5.5t26 -13.5q11 -6 21.5 -11t21.5 -5q14 0 21.5 9t9.5 23h37q0 -28 -10.5 -47.5t-26.5 -29t-32 -9.5z" />
    <glyph glyph-name="Euro" unicode="&#x20ac;" horiz-adv-x="469" 
d="M269 -12q-48 0 -85.5 11.5t-58 48t-20.5 108.5v74h-75l19 42h56v43h-76l19 42h57v108q0 52 20.5 81t58 40.5t85.5 11.5q49 0 86 -11.5t57.5 -40.5t20.5 -81v-34h-116v40q0 24 -6 36.5t-16.5 16.5t-25.5 4q-14 0 -25 -4t-17 -16.5t-6 -36.5v-114h143l-21 -42h-122v-43h104
l-20 -42h-84v-117q0 -23 6 -35.5t17 -17t25 -4.5q15 0 25.5 4.5t16.5 17t6 35.5v66h116v-22q0 -73 -20.5 -109.5t-57.5 -48t-86 -11.5z" />
    <glyph glyph-name="Euro.tf" horiz-adv-x="434" 
d="M246 -12q-48 0 -85.5 11.5t-58 48t-20.5 108.5v74h-75l19 42h56v43h-76l19 42h57v108q0 52 20.5 81t58 40.5t85.5 11.5q49 0 86 -11.5t57.5 -40.5t20.5 -81v-34h-116v40q0 24 -6 36.5t-16.5 16.5t-25.5 4q-14 0 -25 -4t-17 -16.5t-6 -36.5v-114h143l-21 -42h-122v-43h104
l-20 -42h-84v-117q0 -23 6 -35.5t17 -17t25 -4.5q15 0 25.5 4.5t16.5 17t6 35.5v66h116v-22q0 -73 -20.5 -109.5t-57.5 -48t-86 -11.5z" />
    <glyph glyph-name="exclam" unicode="!" horiz-adv-x="219" 
d="M72 190l-20 181l-6 259h124l-6 -257l-20 -183h-72zM112 -7q-27 0 -45.5 17t-18.5 42q0 24 18.5 41.5t45.5 17.5t45.5 -17.5t18.5 -41.5q0 -25 -18.5 -42t-45.5 -17z" />
    <glyph glyph-name="exclamdown" unicode="&#xa1;" horiz-adv-x="219" 
d="M72 299h72l20 -183l6 -257h-124l6 259zM112 496q27 0 45.5 -17t18.5 -42q0 -24 -18.5 -41.5t-45.5 -17.5t-45.5 17.5t-18.5 41.5q0 25 18.5 42t45.5 17z" />
    <glyph glyph-name="f" unicode="f" horiz-adv-x="266" 
d="M51 0v411h-32v65h32v47q0 35 9 57t25 33t35 15t40 4q19 0 40 -1t37.5 -2.5t21.5 -1.5v-55l-18.5 2t-40.5 2q-21 0 -28 -17.5t-7 -35.5v-47h94v-65h-94v-411h-114z" />
    <glyph glyph-name="f.sc" horiz-adv-x="322" 
d="M41 0v495h266v-79h-147v-117h125v-89h-125v-210h-119z" />
    <glyph glyph-name="five" unicode="5" horiz-adv-x="392" 
d="M196 -8q-62 0 -99.5 12.5t-54 46.5t-16.5 98v51h116v-41q0 -48 13 -65.5t41 -17.5q27 0 38.5 19.5t11.5 65.5v97q0 19 -4 35t-15 25.5t-32 9.5q-22 0 -35.5 -13t-17.5 -36h-115v312h326v-83h-211v-146q9 17 32 30.5t67 13.5q66 0 95.5 -27t29.5 -93v-140
q0 -60 -19.5 -93.5t-57 -47t-93.5 -13.5z" />
    <glyph glyph-name="five.tf" horiz-adv-x="434" 
d="M222 -8q-62 0 -99.5 12.5t-54 46.5t-16.5 98v51h116v-41q0 -48 13 -65.5t41 -17.5q27 0 38.5 19.5t11.5 65.5v97q0 19 -4 35t-15 25.5t-32 9.5q-22 0 -35.5 -13t-17.5 -36h-115v312h326v-83h-211v-146q9 17 32 30.5t67 13.5q66 0 95.5 -27t29.5 -93v-140
q0 -60 -19.5 -93.5t-57 -47t-93.5 -13.5z" />
    <glyph glyph-name="florin" unicode="&#x192;" horiz-adv-x="360" 
d="M-1 -144q-13 0 -31 1t-33.5 2t-20.5 2l7 67l54 -6q27 -1 42.5 6.5t23.5 29t13 62.5l43 365h-59l7 62h59l10 71q11 60 40 85.5t69 25.5q10 0 28 -0.5t37 -1t35.5 -1.5t24.5 -2l-7 -66q-7 2 -28 4.5t-44 2.5q-27 0 -35.5 -20t-11.5 -45l-7 -53h102l-6 -62h-102l-47 -398
q-8 -67 -48.5 -99t-114.5 -32z" />
    <glyph glyph-name="four" unicode="4" horiz-adv-x="387" 
d="M199 0v116h-191v92l194 383h114v-397h60v-78h-60v-116h-117zM101 194h98v199z" />
    <glyph glyph-name="four.tf" horiz-adv-x="434" 
d="M217 0v116h-191v92l194 383h114v-397h60v-78h-60v-116h-117zM119 194h98v199z" />
    <glyph glyph-name="uni2074" unicode="&#x2074;" horiz-adv-x="260" 
d="M134 236v70h-126v59l125 226h72v-236h39v-49h-39v-70h-71zM67 355h67v118z" />
    <glyph glyph-name="fraction" unicode="&#x2044;" horiz-adv-x="378" 
d="M-100 0l404 589h71l-406 -589h-69z" />
    <glyph glyph-name="franc" unicode="&#x20a3;" horiz-adv-x="370" 
d="M69 0v116h-47v52h47v423h272v-82h-151v-158h128v-91h-128v-92h75v-52h-75v-116h-121z" />
    <glyph glyph-name="g" unicode="g" horiz-adv-x="376" 
d="M186 -119q-14 0 -34 1t-39.5 3t-33 3.5t-16.5 2.5v61q13 -2 39 -4.5t44 -2.5q12 0 26 2t26.5 9t21 21.5t8.5 40.5v71q-5 -12 -14.5 -26.5t-27.5 -24.5t-51 -10q-20 0 -39.5 4t-34 18t-23.5 44.5t-9 82.5v211q0 37 10.5 59.5t26.5 34t34.5 15.5t35.5 4q31 0 56.5 -7.5
t35.5 -36.5l12 37h102v-420q0 -36 -6.5 -70.5t-22.5 -62t-46.5 -44t-80.5 -16.5zM184 96q17 0 26.5 8.5t13 24t3.5 32.5v249q-2 5 -7 10t-13.5 8.5t-23.5 3.5q-20 0 -30 -11.5t-10 -41.5v-232q0 -17 4 -27.5t10.5 -15.5t13.5 -6.5t13 -1.5z" />
    <glyph glyph-name="g.sc" horiz-adv-x="391" 
d="M162 -9q-33 0 -62.5 10t-47.5 38.5t-18 82.5v267q0 62 43.5 87t118.5 25q73 0 118 -25t45 -87v-73h-111v80q0 20 -12 28t-38 8q-25 0 -37.5 -8t-12.5 -28v-303q0 -21 13.5 -28.5t36.5 -7.5q21 0 35.5 8.5t14.5 27.5v97h-47v64h158v-254h-86l-6 35q-2 -1 -3.5 -2.5
t-3.5 -2.5q-10 -13 -33.5 -26t-64.5 -13z" />
    <glyph glyph-name="gbreve" unicode="&#x11f;" horiz-adv-x="376" 
d="M186 -119q-14 0 -34 1t-39.5 3t-33 3.5t-16.5 2.5v61q13 -2 39 -4.5t44 -2.5q12 0 26 2t26.5 9t21 21.5t8.5 40.5v71q-5 -12 -14.5 -26.5t-27.5 -24.5t-51 -10q-20 0 -39.5 4t-34 18t-23.5 44.5t-9 82.5v211q0 37 10.5 59.5t26.5 34t34.5 15.5t35.5 4q31 0 56.5 -7.5
t35.5 -36.5l12 37h102v-420q0 -36 -6.5 -70.5t-22.5 -62t-46.5 -44t-80.5 -16.5zM184 96q17 0 26.5 8.5t13 24t3.5 32.5v249q-2 5 -7 10t-13.5 8.5t-23.5 3.5q-20 0 -30 -11.5t-10 -41.5v-232q0 -17 4 -27.5t10.5 -15.5t13.5 -6.5t13 -1.5zM188 545q-46 0 -70 17t-32.5 40.5
t-9.5 42.5h62q2 -23 17 -34t34 -11q21 0 35.5 10.5t16.5 34.5h62q0 -26 -12 -48.5t-36.5 -37t-66.5 -14.5z" />
    <glyph glyph-name="uni0123" unicode="&#x123;" horiz-adv-x="376" 
d="M239 695q-14 -21 -23 -39t-9 -30q0 -7 7 -12.5t13.5 -12.5t6.5 -20q0 -15 -13.5 -26.5t-34.5 -11.5q-23 0 -37.5 12.5t-14.5 31.5q0 15 9 34.5t22.5 39t26.5 34.5h47zM186 -119q-14 0 -34 1t-39.5 3t-33 3.5t-16.5 2.5v61q13 -2 39 -4.5t44 -2.5q12 0 26 2t26.5 9
t21 21.5t8.5 40.5v71q-5 -12 -14.5 -26.5t-27.5 -24.5t-51 -10q-20 0 -39.5 4t-34 18t-23.5 44.5t-9 82.5v211q0 37 10.5 59.5t26.5 34t34.5 15.5t35.5 4q31 0 56.5 -7.5t35.5 -36.5l12 37h102v-420q0 -36 -6.5 -70.5t-22.5 -62t-46.5 -44t-80.5 -16.5zM184 96
q17 0 26.5 8.5t13 24t3.5 32.5v249q-2 5 -7 10t-13.5 8.5t-23.5 3.5q-20 0 -30 -11.5t-10 -41.5v-232q0 -17 4 -27.5t10.5 -15.5t13.5 -6.5t13 -1.5z" />
    <glyph glyph-name="gdotaccent" unicode="&#x121;" horiz-adv-x="376" 
d="M186 -119q-14 0 -34 1t-39.5 3t-33 3.5t-16.5 2.5v61q13 -2 39 -4.5t44 -2.5q12 0 26 2t26.5 9t21 21.5t8.5 40.5v71q-5 -12 -14.5 -26.5t-27.5 -24.5t-51 -10q-20 0 -39.5 4t-34 18t-23.5 44.5t-9 82.5v211q0 37 10.5 59.5t26.5 34t34.5 15.5t35.5 4q31 0 56.5 -7.5
t35.5 -36.5l12 37h102v-420q0 -36 -6.5 -70.5t-22.5 -62t-46.5 -44t-80.5 -16.5zM184 96q17 0 26.5 8.5t13 24t3.5 32.5v249q-2 5 -7 10t-13.5 8.5t-23.5 3.5q-20 0 -30 -11.5t-10 -41.5v-232q0 -17 4 -27.5t10.5 -15.5t13.5 -6.5t13 -1.5zM189 549q-24 0 -41 16.5t-18 40.5
q0 24 17.5 40.5t42.5 16.5q24 0 41.5 -16.5t17.5 -40.5q1 -24 -17 -40.5t-43 -16.5z" />
    <glyph glyph-name="uni0433" unicode="&#x433;" horiz-adv-x="296" 
d="M33 0v495h249v-82h-128v-413h-121z" />
    <glyph glyph-name="uni0433.loclBGR" horiz-adv-x="296" 
d="M33 0v495h249v-82h-128v-413h-121z" />
    <glyph glyph-name="germandbls" unicode="&#xdf;" horiz-adv-x="451" 
d="M15 -147q-11 0 -30.5 1.5t-27.5 2.5v65q4 -1 7 -1t7 -1q5 -1 12.5 -1.5t17.5 -0.5q37 0 49 21t12 50v427h-40v79h40v27q0 38 12.5 62t50.5 35.5t110 11.5q85 0 130 -21.5t45 -76.5v-95q0 -42 -23 -68t-52 -28v-4q22 -2 42.5 -13t34.5 -31t14 -50v-123q0 -52 -21 -78
t-58 -34.5t-87 -8.5h-55v59h39q22 0 34 8t17 31t5 69v72q0 22 -6 36.5t-19.5 22t-38.5 7.5h-27l1 60h43q28 0 36 19.5t8 53.5v60q0 41 -11.5 59t-49.5 18q-26 0 -39 -9t-17 -24t-4 -34l1 -500q0 -48 -14.5 -78.5t-38 -47t-52 -23t-57.5 -6.5z" />
    <glyph glyph-name="uni0453" unicode="&#x453;" horiz-adv-x="296" 
d="M33 0v495h249v-82h-128v-413h-121zM98 548l57 100h110l-95 -100h-72z" />
    <glyph glyph-name="grave" unicode="`" horiz-adv-x="197" 
d="M96 548l-96 100h110l57 -100h-71z" />
    <glyph glyph-name="gravecomb" unicode="&#x300;" 
d="M96 548l-96 100h110l57 -100h-71z" />
    <glyph glyph-name="gravecomb.case" 
d="M111 634l-111 91h107l76 -91h-72z" />
    <glyph glyph-name="greater" unicode="&#x3e;" horiz-adv-x="322" 
d="M39 131v104l149 95l-149 95v101l243 -165v-64z" />
    <glyph glyph-name="greaterequal" unicode="&#x2265;" horiz-adv-x="322" 
d="M39 -4v77h237v-77h-237zM39 131v104l149 95l-149 95v101l243 -165v-64z" />
    <glyph glyph-name="guillemotleft" unicode="&#xab;" horiz-adv-x="524" 
d="M382 103l-131 189l134 193h103l-134 -193l131 -189h-103zM167 103l-131 189l134 193h103l-133 -193l130 -189h-103z" />
    <glyph glyph-name="guillemotright" unicode="&#xbb;" horiz-adv-x="524" 
d="M255 103l130 189l-134 193h103l134 -193l-131 -189h-102zM40 103l130 189l-134 193h103l134 -193l-131 -189h-102z" />
    <glyph glyph-name="guilsinglleft" unicode="&#x2039;" horiz-adv-x="309" 
d="M167 103l-131 189l134 193h103l-133 -193l130 -189h-103z" />
    <glyph glyph-name="guilsinglright" unicode="&#x203a;" horiz-adv-x="309" 
d="M39 103l130 189l-133 193h103l134 -193l-131 -189h-103z" />
    <glyph glyph-name="h" unicode="h" horiz-adv-x="381" 
d="M37 0v630h107v-190q7 30 33.5 46t60.5 16q48 0 72 -16.5t32.5 -45.5t8.5 -69v-371h-114v354q0 11 -1 21t-5.5 18t-13.5 13.5t-24 5.5q-14 0 -23 -4.5t-13.5 -10.5t-5.5 -11v-386h-114z" />
    <glyph glyph-name="h.sc" horiz-adv-x="404" 
d="M41 0v495h114v-198h95v198h113v-495h-113v213h-95v-213h-114z" />
    <glyph glyph-name="uni0445" unicode="&#x445;" horiz-adv-x="345" 
d="M1 0l99 257l-82 238h109l49 -152l58 152h105l-91 -238l91 -257h-109l-55 162l-62 -162h-112z" />
    <glyph glyph-name="uni044A" unicode="&#x44a;" horiz-adv-x="419" 
d="M69 0v427h-56v68h170v-155h88q33 0 58.5 -10t41 -35.5t15.5 -72.5v-67q0 -50 -9 -81t-26 -46.5t-41 -21.5t-56 -6h-185zM183 60h46q19 0 28 7t12 21t3 32v84q0 21 -2.5 35.5t-11.5 22t-30 7.5h-45v-209z" />
    <glyph glyph-name="uni044A.loclBGR" horiz-adv-x="419" 
d="M69 0v427h-56v68h170v-155h88q33 0 58.5 -10t41 -35.5t15.5 -72.5v-67q0 -50 -9 -81t-26 -46.5t-41 -21.5t-56 -6h-185zM183 60h46q19 0 28 7t12 21t3 32v84q0 21 -2.5 35.5t-11.5 22t-30 7.5h-45v-209z" />
    <glyph glyph-name="hbar" unicode="&#x127;" horiz-adv-x="379" 
d="M-1 532v57h212v-57h-212zM37 0v630h107v-190q7 30 33.5 46t60.5 16q48 0 72 -16.5t32.5 -45.5t8.5 -69v-371h-114v354q0 11 -1 21t-5.5 18t-13.5 13.5t-24 5.5q-14 0 -23 -4.5t-13.5 -10.5t-5.5 -11v-386h-114z" />
    <glyph glyph-name="hookabovecomb" unicode="&#x309;" 
d="M57 549v12q0 15 10.5 22.5t21.5 14t11 18.5v6q0 8 -4 15t-15 7q-16 0 -18 -21l-51 8q3 27 21 41t53 14q39 0 59 -11.5t20 -50.5v-4q0 -22 -12 -30.5t-23.5 -13.5t-11.5 -17v-10h-61z" />
    <glyph glyph-name="hookabovecomb.case" 
d="M57 628v12q0 15 10.5 22.5t21.5 14t11 18.5v6q0 8 -4 15t-15 7q-16 0 -18 -21l-51 8q3 27 21 41t53 14q39 0 59 -11.5t20 -50.5v-4q0 -22 -12 -30.5t-23.5 -13.5t-11.5 -17v-10h-61z" />
    <glyph glyph-name="uni031B" unicode="&#x31b;" 
d="M11 442l-1 50h17q45 0 45 47v18h75v-17q0 -53 -34 -75.5t-102 -22.5z" />
    <glyph glyph-name="uni031B.case" 
d="M11 541l-1 50h17q45 0 45 47v18h75v-17q0 -53 -34 -75.5t-102 -22.5z" />
    <glyph glyph-name="hungarumlaut" unicode="&#x2dd;" horiz-adv-x="213" 
d="M0 548l17 100h89l-61 -100h-45zM94 548l31 100h88l-67 -100h-52z" />
    <glyph glyph-name="uni030B" unicode="&#x30b;" 
d="M0 548l17 100h89l-61 -100h-45zM94 548l31 100h88l-67 -100h-52z" />
    <glyph glyph-name="uni030B.case" 
d="M0 630l17 100h89l-61 -100h-45zM94 630l31 100h88l-67 -100h-52z" />
    <glyph glyph-name="hyphen" unicode="-" horiz-adv-x="280" 
d="M36 240v77h208v-77h-208z" />
    <glyph glyph-name="i" unicode="i" horiz-adv-x="189" 
d="M37 0v495h114v-495h-114zM94 549q-24 0 -41 16.5t-18 40.5q0 24 17.5 40.5t42.5 16.5q24 0 41.5 -16.5t17.5 -40.5q1 -24 -17 -40.5t-43 -16.5z" />
    <glyph glyph-name="uni0456" unicode="&#x456;" horiz-adv-x="189" 
d="M37 0v495h114v-495h-114zM94 549q-24 0 -41 16.5t-18 40.5q0 24 17.5 40.5t42.5 16.5q24 0 41.5 -16.5t17.5 -40.5q1 -24 -17 -40.5t-43 -16.5z" />
    <glyph glyph-name="i.sc" horiz-adv-x="195" 
d="M41 0v495h114v-495h-114z" />
    <glyph glyph-name="uni044F" unicode="&#x44f;" horiz-adv-x="407" 
d="M19 0l58 163q13 34 28.5 48t35.5 16q-46 4 -68.5 29t-22.5 81v35q0 62 30.5 92.5t89.5 30.5h204v-495h-121v215l-32 -18q-14 -22 -24.5 -50t-20.5 -62l-27 -85h-130zM215 260h38v172h-50q-18 0 -27.5 -20.5t-9.5 -47.5v-21q0 -48 13 -65.5t36 -17.5z" />
    <glyph glyph-name="iacute" unicode="&#xed;" horiz-adv-x="189" 
d="M37 0v495h114v-495h-114zM44 548l57 100h110l-95 -100h-72z" />
    <glyph glyph-name="uni01D0" unicode="&#x1d0;" horiz-adv-x="189" 
d="M37 0v495h114v-495h-114zM61 546l-94 105h70l58 -56l58 56h68l-95 -105h-65z" />
    <glyph glyph-name="icircumflex" unicode="&#xee;" horiz-adv-x="189" 
d="M37 0v495h114v-495h-114zM-33 546l95 105h64l95 -105h-68l-58 56l-58 -56h-70z" />
    <glyph glyph-name="idieresis" unicode="&#xef;" horiz-adv-x="189" 
d="M37 0v495h114v-495h-114zM35 549q-21 0 -34.5 13t-13.5 33q0 19 13.5 31.5t34.5 12.5q20 0 33 -12.5t13 -31.5q0 -20 -13 -33t-33 -13zM155 549q-20 0 -34 13t-14 33q0 19 14 31.5t34 12.5t33.5 -12.5t13.5 -31.5q0 -20 -13.5 -33t-33.5 -13z" />
    <glyph glyph-name="i.loclTRK" horiz-adv-x="189" 
d="M37 0v495h114v-495h-114zM94 549q-24 0 -41 16.5t-18 40.5q0 24 17.5 40.5t42.5 16.5q24 0 41.5 -16.5t17.5 -40.5q1 -24 -17 -40.5t-43 -16.5z" />
    <glyph glyph-name="uni1ECB" unicode="&#x1ecb;" horiz-adv-x="189" 
d="M37 0v495h114v-495h-114zM94 549q-24 0 -41 16.5t-18 40.5q0 24 17.5 40.5t42.5 16.5q24 0 41.5 -16.5t17.5 -40.5q1 -24 -17 -40.5t-43 -16.5zM97 -130q-21 0 -34.5 14t-13.5 32q0 20 13.5 33.5t34.5 13.5q19 0 33.5 -13.5t14.5 -33.5q0 -18 -14.5 -32t-33.5 -14z" />
    <glyph glyph-name="dotlessi" unicode="&#x131;" horiz-adv-x="189" 
d="M37 0v495h114v-495h-114z" />
    <glyph glyph-name="uni0435" unicode="&#x435;" horiz-adv-x="366" 
d="M188 -8q-52 0 -87.5 11.5t-53.5 46t-18 104.5v223q0 72 39 99t118 27q78 0 117 -27t39 -99v-135h-199v-135q0 -30 9.5 -42t34.5 -12q23 0 31.5 11.5t8.5 42.5v79h115v-31q0 -70 -18 -105t-52.5 -46.5t-83.5 -11.5zM143 294h84v96q0 29 -8.5 41t-32.5 12t-33.5 -12
t-9.5 -41v-96z" />
    <glyph glyph-name="uni0450" unicode="&#x450;" horiz-adv-x="366" 
d="M188 -8q-52 0 -87.5 11.5t-53.5 46t-18 104.5v223q0 72 39 99t118 27q78 0 117 -27t39 -99v-135h-199v-135q0 -30 9.5 -42t34.5 -12q23 0 31.5 11.5t8.5 42.5v79h115v-31q0 -70 -18 -105t-52.5 -46.5t-83.5 -11.5zM143 294h84v96q0 29 -8.5 41t-32.5 12t-33.5 -12
t-9.5 -41v-96zM168 548l-96 100h110l57 -100h-71z" />
    <glyph glyph-name="igrave" unicode="&#xec;" horiz-adv-x="189" 
d="M37 0v495h114v-495h-114zM79 548l-96 100h110l57 -100h-71z" />
    <glyph glyph-name="uni1EC9" unicode="&#x1ec9;" horiz-adv-x="189" 
d="M37 0v495h114v-495h-114zM62 549v12q0 15 10.5 22.5t21.5 14t11 18.5v6q0 8 -4 15t-15 7q-16 0 -18 -21l-51 8q3 27 21 41t53 14q39 0 59 -11.5t20 -50.5v-4q0 -22 -12 -30.5t-23.5 -13.5t-11.5 -17v-10h-61z" />
    <glyph glyph-name="uni0438" unicode="&#x438;" horiz-adv-x="379" 
d="M33 0v495h100v-290l114 290h100v-495h-100v317q-31 -80 -61 -158.5t-61 -158.5h-92z" />
    <glyph glyph-name="uni0438.loclBGR" horiz-adv-x="379" 
d="M33 0v495h100v-290l114 290h100v-495h-100v317q-31 -80 -61 -158.5t-61 -158.5h-92z" />
    <glyph glyph-name="uni045D" unicode="&#x45d;" horiz-adv-x="379" 
d="M33 0v495h100v-290l114 290h100v-495h-100v317q-31 -80 -61 -158.5t-61 -158.5h-92zM174 548l-96 100h110l57 -100h-71z" />
    <glyph glyph-name="uni045D.loclBGR" horiz-adv-x="379" 
d="M33 0v495h100v-290l114 290h100v-495h-100v317q-31 -80 -61 -158.5t-61 -158.5h-92zM174 548l-96 100h110l57 -100h-71z" />
    <glyph glyph-name="uni0439" unicode="&#x439;" horiz-adv-x="379" 
d="M33 0v495h100v-290l114 290h100v-495h-100v317q-31 -80 -61 -158.5t-61 -158.5h-92zM188 545q-46 0 -70 17t-32.5 40.5t-9.5 42.5h62q2 -23 17 -34t34 -11q21 0 35.5 10.5t16.5 34.5h62q0 -26 -12 -48.5t-36.5 -37t-66.5 -14.5z" />
    <glyph glyph-name="uni0439.loclBGR" horiz-adv-x="379" 
d="M33 0v495h100v-290l114 290h100v-495h-100v317q-31 -80 -61 -158.5t-61 -158.5h-92zM188 545q-46 0 -70 17t-32.5 40.5t-9.5 42.5h62q2 -23 17 -34t34 -11q21 0 35.5 10.5t16.5 34.5h62q0 -26 -12 -48.5t-36.5 -37t-66.5 -14.5z" />
    <glyph glyph-name="imacron" unicode="&#x12b;" horiz-adv-x="189" 
d="M37 0v495h114v-495h-114zM-9 560v58h206v-58h-206z" />
    <glyph glyph-name="infinity" unicode="&#x221e;" horiz-adv-x="697" 
d="M164 97q-65 0 -96.5 37t-31.5 111q0 72 30 111t98 39q39 0 70.5 -15t59.5 -39t54 -52q26 28 54 51.5t60.5 39t71.5 15.5q67 0 97.5 -39t30.5 -111q0 -71 -30.5 -109.5t-97.5 -38.5q-39 0 -71.5 15t-59.5 40t-54 51q-25 -28 -53.5 -52.5t-60.5 -39t-71 -14.5zM167 165
q38 0 66 22.5t66 58.5q-23 21 -44 38.5t-42 28t-46 10.5q-34 0 -51 -21.5t-17 -57.5t17 -57.5t51 -21.5zM530 168q34 0 51 20.5t17 58.5q0 36 -17 57.5t-51 21.5q-18 0 -32.5 -5t-29 -15t-31 -25t-38.5 -36q28 -27 49.5 -43.5t41 -25t40.5 -8.5z" />
    <glyph glyph-name="integral" unicode="&#x222b;" horiz-adv-x="398" 
d="M-31 -298q-18 1 -36 3t-37 8l13 72l67 -7q23 1 33.5 18t13.5 35l121 691q8 47 31.5 70.5t58 30.5t74.5 7q21 0 40 -2.5t34 -7.5l-12 -73l-69 8q-23 -1 -33 -18t-14 -35l-120 -691q-9 -47 -32.5 -70.5t-58 -31t-74.5 -7.5z" />
    <glyph glyph-name="uni0451" unicode="&#x451;" horiz-adv-x="366" 
d="M188 -8q-52 0 -87.5 11.5t-53.5 46t-18 104.5v223q0 72 39 99t118 27q78 0 117 -27t39 -99v-135h-199v-135q0 -30 9.5 -42t34.5 -12q23 0 31.5 11.5t8.5 42.5v79h115v-31q0 -70 -18 -105t-52.5 -46.5t-83.5 -11.5zM143 294h84v96q0 29 -8.5 41t-32.5 12t-33.5 -12
t-9.5 -41v-96zM124 549q-21 0 -34.5 13t-13.5 33q0 19 13.5 31.5t34.5 12.5q20 0 33 -12.5t13 -31.5q0 -20 -13 -33t-33 -13zM244 549q-20 0 -34 13t-14 33q0 19 14 31.5t34 12.5t33.5 -12.5t13.5 -31.5q0 -20 -13.5 -33t-33.5 -13z" />
    <glyph glyph-name="iogonek" unicode="&#x12f;" horiz-adv-x="189" 
d="M37 0v495h114v-495h-114zM94 549q-24 0 -41 16.5t-18 40.5q0 24 17.5 40.5t42.5 16.5q24 0 41.5 -16.5t17.5 -40.5q1 -24 -17 -40.5t-43 -16.5zM108 -144q-36 0 -59 19.5t-23 44.5q0 28 22.5 52t56.5 29l47 -1q-27 -9 -39.5 -28t-12.5 -36q0 -19 12.5 -29t24.5 -10
q8 0 13.5 2t8.5 2l13 -30q-5 -3 -19.5 -9t-44.5 -6z" />
    <glyph glyph-name="itilde" unicode="&#x129;" horiz-adv-x="189" 
d="M37 0v495h114v-495h-114zM140 551q-15 0 -28 5.5t-27 13.5q-10 7 -21 12t-23 5q-13 0 -20.5 -9.5t-8.5 -25.5h-34q1 39 18.5 63.5t45.5 24.5q16 0 30 -5.5t26 -13.5q11 -6 21.5 -11t21.5 -5q14 0 21.5 9t9.5 23h37q0 -28 -10.5 -47.5t-26.5 -29t-32 -9.5z" />
    <glyph glyph-name="uni044E" unicode="&#x44e;" horiz-adv-x="590" 
d="M402 -10q-54 0 -89 14t-51 49.5t-16 99.5v220q0 44 15.5 72.5t50 43t90.5 14.5t90.5 -14.5t50.5 -43t16 -72.5v-219q0 -65 -16.5 -100.5t-51.5 -49.5t-89 -14zM33 0v495h114v-195h137v-86h-137v-214h-114zM402 50q18 0 27.5 7t12 20.5t2.5 30.5v277q0 17 -2.5 30
t-12 20.5t-27.5 7.5t-27 -7.5t-12 -20.5t-3 -30v-277q0 -17 3 -30.5t12 -20.5t27 -7z" />
    <glyph glyph-name="uni044E.loclBGR" horiz-adv-x="590" 
d="M402 -10q-54 0 -89 14t-51 49.5t-16 99.5v220q0 44 15.5 72.5t50 43t90.5 14.5t90.5 -14.5t50.5 -43t16 -72.5v-219q0 -65 -16.5 -100.5t-51.5 -49.5t-89 -14zM33 0v495h114v-195h137v-86h-137v-214h-114zM402 50q18 0 27.5 7t12 20.5t2.5 30.5v277q0 17 -2.5 30
t-12 20.5t-27.5 7.5t-27 -7.5t-12 -20.5t-3 -30v-277q0 -17 3 -30.5t12 -20.5t27 -7z" />
    <glyph glyph-name="j" unicode="j" horiz-adv-x="186" 
d="M-23 -112q-6 1 -19.5 1.5t-17.5 1.5v61q8 -1 20 -0.5t19 0.5q28 2 43 16t15 39v488h114v-455q0 -67 -24.5 -100.5t-64 -44t-85.5 -7.5zM93 549q-24 0 -41 16.5t-18 40.5q0 24 17.5 40.5t42.5 16.5q24 0 41.5 -16.5t17.5 -40.5q1 -24 -17 -40.5t-43 -16.5z" />
    <glyph glyph-name="j.sc" horiz-adv-x="238" 
d="M53 -1h-23t-24 1v77h30q26 0 38 8t12 35v375h114v-368q0 -45 -11.5 -73t-43 -41.5t-92.5 -13.5z" />
    <glyph glyph-name="uni0237" unicode="&#x237;" horiz-adv-x="186" 
d="M-23 -112q-6 1 -19.5 1.5t-17.5 1.5v61q8 -1 20 -0.5t19 0.5q28 2 43 16t15 39v488h114v-455q0 -67 -24.5 -100.5t-64 -44t-85.5 -7.5z" />
    <glyph glyph-name="uni0458" unicode="&#x458;" horiz-adv-x="186" 
d="M-23 -112q-6 1 -19.5 1.5t-17.5 1.5v61q8 -1 20 -0.5t19 0.5q28 2 43 16t15 39v488h114v-455q0 -67 -24.5 -100.5t-64 -44t-85.5 -7.5zM93 549q-24 0 -41 16.5t-18 40.5q0 24 17.5 40.5t42.5 16.5q24 0 41.5 -16.5t17.5 -40.5q1 -24 -17 -40.5t-43 -16.5z" />
    <glyph glyph-name="k" unicode="k" horiz-adv-x="380" 
d="M248 0l-90 287l101 208h113l-105 -210l104 -285h-123zM37 0v632h114v-632h-114z" />
    <glyph glyph-name="k.sc" horiz-adv-x="402" 
d="M270 0l-110 257l108 238h122l-119 -238l123 -257h-124zM41 0v495h114v-495h-114z" />
    <glyph glyph-name="uni043A" unicode="&#x43a;" horiz-adv-x="400" 
d="M33 0v495h114v-172q27 53 64.5 91.5t80.5 58t84 15.5v-75q-24 -5 -43 -17.5t-33 -27.5q-9 -10 -17 -20.5t-15 -22.5l106 -325h-131l-75 199q-6 -9 -11.5 -20.5t-9.5 -18.5v-160h-114z" />
    <glyph glyph-name="uni043A.loclBGR" horiz-adv-x="400" 
d="M33 0v495h114v-172q27 53 64.5 91.5t80.5 58t84 15.5v-75q-24 -5 -43 -17.5t-33 -27.5q-9 -10 -17 -20.5t-15 -22.5l106 -325h-131l-75 199q-6 -9 -11.5 -20.5t-9.5 -18.5v-160h-114z" />
    <glyph glyph-name="uni0137" unicode="&#x137;" horiz-adv-x="380" 
d="M248 0l-90 287l101 208h113l-105 -210l104 -285h-123zM37 0v632h114v-632h-114zM140 -189q14 21 23 39t9 30q0 7 -7 12t-14 12.5t-7 20.5q0 14 14 26t35 12q23 0 37 -13t14 -31q0 -14 -9 -34t-22 -39.5t-27 -34.5h-46z" />
    <glyph glyph-name="uni045C" unicode="&#x45c;" horiz-adv-x="400" 
d="M33 0v495h114v-172q27 53 64.5 91.5t80.5 58t84 15.5v-75q-24 -5 -43 -17.5t-33 -27.5q-9 -10 -17 -20.5t-15 -22.5l106 -325h-131l-75 199q-6 -9 -11.5 -20.5t-9.5 -18.5v-160h-114zM150 548l57 100h110l-95 -100h-72z" />
    <glyph glyph-name="l" unicode="l" horiz-adv-x="189" 
d="M37 0v632h114v-632h-114z" />
    <glyph glyph-name="l.sc" horiz-adv-x="293" 
d="M41 0v495h112v-417h132v-78h-244z" />
    <glyph glyph-name="lacute" unicode="&#x13a;" horiz-adv-x="189" 
d="M37 0v632h114v-632h-114zM35 673l78 94h105l-119 -94h-64z" />
    <glyph glyph-name="lcaron" unicode="&#x13e;" horiz-adv-x="264" 
d="M37 0v632h114v-632h-114zM180 507l24 146h69l-52 -146h-41z" />
    <glyph glyph-name="uni013C" unicode="&#x13c;" horiz-adv-x="189" 
d="M37 0v632h114v-632h-114zM40 -189q14 21 23 39t9 30q0 7 -7 12t-14 12.5t-7 20.5q0 14 14 26t35 12q23 0 37 -13t14 -31q0 -14 -9 -34t-22 -39.5t-27 -34.5h-46z" />
    <glyph glyph-name="arrowleft" unicode="&#x2190;" horiz-adv-x="801" 
d="M313 28l-277 228l277 231l56 -55l-137 -128l532 -3l-1 -91l-529 2l134 -128z" />
    <glyph glyph-name="arrowboth" unicode="&#x2194;" horiz-adv-x="1011" 
d="M314 63l-279 229l279 230l55 -55l-136 -128h544l-137 128l56 55l278 -230l-278 -229l-56 55l134 127h-538l133 -127z" />
    <glyph glyph-name="less" unicode="&#x3c;" horiz-adv-x="322" 
d="M282 131l-243 165v64l243 166v-104l-148 -95l148 -95v-101z" />
    <glyph glyph-name="lessequal" unicode="&#x2264;" horiz-adv-x="317" 
d="M280 131l-243 166v64l243 165v-101l-148 -95l148 -95v-104zM281 -4h-237v77h237v-77z" />
    <glyph glyph-name="uni0459" unicode="&#x459;" horiz-adv-x="638" 
d="M13 0v60q19 0 35 22t18 54l31 359h306v-155h87q35 0 60.5 -10.5t40 -36t14.5 -71.5v-60q0 -50 -8.5 -82t-25 -49t-40.5 -24t-57 -7h-188v414h-73l-31 -308q-2 -16 -4 -34.5t-11 -34.5t-27.5 -26.5t-53.5 -10.5h-73zM403 60h45q19 0 28 7t12 21t3 32v84q0 21 -2.5 35.5
t-11.5 22t-30 7.5h-44v-209z" />
    <glyph glyph-name="logicalnot" unicode="&#xac;" horiz-adv-x="558" 
d="M447 131v193h-407v83h482v-276h-75z" />
    <glyph glyph-name="longs" unicode="&#x17f;" horiz-adv-x="372" 
d="M90 -144q-20 0 -42 1t-41 5v59l31 -1q9 -1 18 1t17 6q13 3 19.5 14.5t7.5 24.5v406h-39v68h39v83q0 47 19 70.5t51.5 31t71.5 7.5q26 0 50.5 -4t46.5 -9l-10 -66q-21 7 -39.5 9t-39.5 2q-22 0 -28.5 -19.5t-6.5 -37.5v-498q0 -53 -16.5 -85.5t-44.5 -48.5t-64 -19z" />
    <glyph glyph-name="longs_t" horiz-adv-x="588" 
d="M90 -144q-20 0 -42 1t-41 5v59l31 -1q9 -1 18 1t17 6q13 3 19.5 14.5t7.5 24.5v406h-39v68h39v83q0 47 19 70.5t51.5 31t71.5 7.5q13 0 34.5 -2t45.5 -5.5t44.5 -6.5t31.5 -6l-9 -54q-15 3 -38 5.5t-49 3.5t-52 -3q-22 -2 -28.5 -20.5t-6.5 -36.5v-498q0 -53 -16.5 -85.5
t-44.5 -48.5t-64 -19zM495 -3q-23 0 -46 4t-41 15.5t-29 33t-11 57.5v321h-47v49l57 18l17 117h87v-117h94v-67h-94v-301q0 -21 8.5 -37.5t36.5 -16.5q12 0 29 1.5t20 1.5v-69q-3 0 -27.5 -5t-53.5 -5z" />
    <glyph glyph-name="lozenge" unicode="&#x25ca;" horiz-adv-x="484" 
d="M204 -34l-168 326l168 325h76l168 -325l-168 -326h-76zM243 73l105 221l-104 217l-107 -219z" />
    <glyph glyph-name="lslash" unicode="&#x142;" horiz-adv-x="291" 
d="M88 0v165l-62 -27v50l62 28v416h113v-366l64 29v-50l-64 -28v-217h-113z" />
    <glyph glyph-name="m" unicode="m" horiz-adv-x="576" 
d="M37 0v495h97l10 -61q10 30 35.5 49t59.5 19q56 0 80 -24t27 -70h-12q6 40 34 67t68 27q64 0 86.5 -31.5t22.5 -93.5v-377h-114v369q0 29 -9 40.5t-29 11.5q-17 0 -29.5 -9t-15.5 -23v-389h-114v372q0 26 -9 37.5t-30 11.5q-17 0 -27.5 -7.5t-16.5 -18.5v-395h-114z" />
    <glyph glyph-name="m.sc" horiz-adv-x="524" 
d="M41 0v495h142l79 -288l80 288h141v-495h-100v359l-82 -359h-78l-82 359v-359h-100z" />
    <glyph glyph-name="macron" unicode="&#xaf;" horiz-adv-x="226" 
d="M10 560v58h206v-58h-206z" />
    <glyph glyph-name="uni0304" unicode="&#x304;" 
d="M10 560v58h206v-58h-206z" />
    <glyph glyph-name="uni0304.case" 
d="M7 646v58h206v-58h-206z" />
    <glyph glyph-name="uni00B5" unicode="&#xb5;" horiz-adv-x="385" 
d="M36 -129v624h114v-395q5 -13 16.5 -20t27.5 -7q13 0 22 4t14 16t5 33v369h114v-371q0 -44 -9 -73.5t-33 -43.5t-69 -14q-32 0 -58.5 18t-36.5 49l-10 -189h-97z" />
    <glyph glyph-name="minus" unicode="&#x2212;" horiz-adv-x="536" 
d="M64 218v79h351v-79h-351z" />
    <glyph glyph-name="multiply" unicode="&#xd7;" horiz-adv-x="389" 
d="M299 103l-104 103l-101 -100l-56 55l101 101l-103 102l56 56l103 -103l101 102l55 -56l-100 -101l102 -104z" />
    <glyph glyph-name="n" unicode="n" horiz-adv-x="381" 
d="M37 0v495h97l10 -60q10 32 36 49.5t58 17.5q48 0 72 -16.5t32.5 -45.5t8.5 -69v-371h-114v364q0 12 -1 22.5t-5.5 18.5t-12.5 12.5t-24 4.5q-12 0 -21 -4.5t-14 -10.5t-8 -11v-396h-114z" />
    <glyph glyph-name="n.sc" horiz-adv-x="400" 
d="M41 0v495h99l120 -268v268h100v-495h-99l-120 246v-246h-100z" />
    <glyph glyph-name="nacute" unicode="&#x144;" horiz-adv-x="381" 
d="M37 0v495h97l10 -60q10 32 36 49.5t58 17.5q48 0 72 -16.5t32.5 -45.5t8.5 -69v-371h-114v364q0 12 -1 22.5t-5.5 18.5t-12.5 12.5t-24 4.5q-12 0 -21 -4.5t-14 -10.5t-8 -11v-396h-114zM141 548l57 100h110l-95 -100h-72z" />
    <glyph glyph-name="ncaron" unicode="&#x148;" horiz-adv-x="381" 
d="M37 0v495h97l10 -60q10 32 36 49.5t58 17.5q48 0 72 -16.5t32.5 -45.5t8.5 -69v-371h-114v364q0 12 -1 22.5t-5.5 18.5t-12.5 12.5t-24 4.5q-12 0 -21 -4.5t-14 -10.5t-8 -11v-396h-114zM158 546l-94 105h70l58 -56l58 56h68l-95 -105h-65z" />
    <glyph glyph-name="uni0146" unicode="&#x146;" horiz-adv-x="381" 
d="M37 0v495h97l10 -60q10 32 36 49.5t58 17.5q48 0 72 -16.5t32.5 -45.5t8.5 -69v-371h-114v364q0 12 -1 22.5t-5.5 18.5t-12.5 12.5t-24 4.5q-12 0 -21 -4.5t-14 -10.5t-8 -11v-396h-114zM138 -189q14 21 23 39t9 30q0 7 -7 12t-14 12.5t-7 20.5q0 14 14 26t35 12
q23 0 37 -13t14 -31q0 -14 -9 -34t-22 -39.5t-27 -34.5h-46z" />
    <glyph glyph-name="nine" unicode="9" horiz-adv-x="393" 
d="M195 -11q-79 0 -121 34t-42 107v50h115v-63q0 -30 12.5 -43.5t35.5 -13.5q24 0 37 15.5t13 42.5v142q-15 -23 -42.5 -33.5t-56.5 -10.5q-34 0 -61.5 13.5t-43 44t-15.5 80.5v94q0 46 20 79t58.5 51t91.5 18q55 0 91.5 -18.5t55.5 -54.5t19 -89v-302q0 -72 -45.5 -107.5
t-121.5 -35.5zM196 289q20 0 34 11.5t15 30.5v135q0 31 -14 45.5t-37 15.5q-22 0 -37 -14.5t-15 -46.5v-125q0 -29 17 -40.5t37 -11.5z" />
    <glyph glyph-name="nine.tf" horiz-adv-x="434" 
d="M198 -11q-79 0 -121 34t-42 107v50h115v-63q0 -30 12.5 -43.5t35.5 -13.5q24 0 37 15.5t13 42.5v142q-15 -23 -42.5 -33.5t-56.5 -10.5q-34 0 -61.5 13.5t-43 44t-15.5 80.5v94q0 46 20 79t58.5 51t91.5 18q55 0 91.5 -18.5t55.5 -54.5t19 -89v-302q0 -72 -45.5 -107.5
t-121.5 -35.5zM199 289q20 0 34 11.5t15 30.5v135q0 31 -14 45.5t-37 15.5q-22 0 -37 -14.5t-15 -46.5v-125q0 -29 17 -40.5t37 -11.5z" />
    <glyph glyph-name="uni045A" unicode="&#x45a;" horiz-adv-x="585" 
d="M33 0v495h114v-195h90v195h112v-155h88q34 0 60 -10.5t40.5 -36t14.5 -71.5v-60q0 -50 -8.5 -82t-25 -49t-41 -24t-56.5 -7h-184v214h-90v-214h-114zM349 60h46q19 0 28 7t12 21t3 32v84q0 21 -2.5 35.5t-11.5 22t-30 7.5h-45v-209z" />
    <glyph glyph-name="uni2197" unicode="&#x2197;" horiz-adv-x="574" 
d="M71 61l-65 65l377 373l-186 -3v78l357 34l-33 -359h-78l6 187z" />
    <glyph glyph-name="uni2196" unicode="&#x2196;" horiz-adv-x="602" 
d="M525 43l-373 376l4 -185h-78l-35 357l359 -33v-78l-186 6l373 -379z" />
    <glyph glyph-name="notequal" unicode="&#x2260;" horiz-adv-x="417" 
d="M38 -17l83 153h-56v78h98l67 126h-165v77h208l56 104h52l-57 -104h55v-77h-97l-68 -126h165v-78h-207l-83 -153h-51z" />
    <glyph glyph-name="ntilde" unicode="&#xf1;" horiz-adv-x="381" 
d="M37 0v495h97l10 -60q10 32 36 49.5t58 17.5q48 0 72 -16.5t32.5 -45.5t8.5 -69v-371h-114v364q0 12 -1 22.5t-5.5 18.5t-12.5 12.5t-24 4.5q-12 0 -21 -4.5t-14 -10.5t-8 -11v-396h-114zM237 551q-15 0 -28 5.5t-27 13.5q-10 7 -21 12t-23 5q-13 0 -20.5 -9.5t-8.5 -25.5
h-34q1 39 18.5 63.5t45.5 24.5q16 0 30 -5.5t26 -13.5q11 -6 21.5 -11t21.5 -5q14 0 21.5 9t9.5 23h37q0 -28 -10.5 -47.5t-26.5 -29t-32 -9.5z" />
    <glyph glyph-name="numbersign" unicode="#" horiz-adv-x="719" 
d="M126 0l55 174h-148l22 70h148l40 125l-151 1l23 70h150l42 134h73l-43 -134h133l42 134h74l-43 -134h143l-22 -71h-144l-39 -125h145l-22 -71h-145l-54 -173h-73l54 173l-132 1l-55 -174h-73zM276 244h133l38 125h-132z" />
    <glyph glyph-name="o" unicode="o" horiz-adv-x="371" 
d="M186 -8q-54 0 -89 14t-51.5 50t-16.5 100v210q0 47 16 77.5t50.5 45t90.5 14.5t90.5 -14.5t50 -45t15.5 -77.5v-210q0 -64 -16.5 -100t-51 -50t-88.5 -14zM186 59q18 0 27 7.5t12 21t3 30.5v260q0 17 -3 30t-12 20.5t-27 7.5t-27.5 -7.5t-12.5 -20.5t-3 -30v-260
q0 -17 3 -30.5t12.5 -21t27.5 -7.5z" />
    <glyph glyph-name="uni043E" unicode="&#x43e;" horiz-adv-x="371" 
d="M186 -8q-54 0 -89 14t-51.5 50t-16.5 100v210q0 47 16 77.5t50.5 45t90.5 14.5t90.5 -14.5t50 -45t15.5 -77.5v-210q0 -64 -16.5 -100t-51 -50t-88.5 -14zM186 59q18 0 27 7.5t12 21t3 30.5v260q0 17 -3 30t-12 20.5t-27 7.5t-27.5 -7.5t-12.5 -20.5t-3 -30v-260
q0 -17 3 -30.5t12.5 -21t27.5 -7.5z" />
    <glyph glyph-name="o.sc" horiz-adv-x="393" 
d="M195 -10q-54 0 -90 13t-53.5 45t-17.5 89v253q0 62 44 87.5t117 25.5q74 0 119 -25t45 -88v-252q0 -57 -18 -89.5t-54 -45.5t-92 -13zM195 57q24 0 37 9t13 27v303q0 19 -13 27.5t-37 8.5q-23 0 -36 -8.5t-13 -27.5v-303q0 -18 13 -27t36 -9z" />
    <glyph glyph-name="oacute" unicode="&#xf3;" horiz-adv-x="371" 
d="M186 -8q-54 0 -89 14t-51.5 50t-16.5 100v210q0 47 16 77.5t50.5 45t90.5 14.5t90.5 -14.5t50 -45t15.5 -77.5v-210q0 -64 -16.5 -100t-51 -50t-88.5 -14zM186 59q18 0 27 7.5t12 21t3 30.5v260q0 17 -3 30t-12 20.5t-27 7.5t-27.5 -7.5t-12.5 -20.5t-3 -30v-260
q0 -17 3 -30.5t12.5 -21t27.5 -7.5zM136 548l57 100h110l-95 -100h-72z" />
    <glyph glyph-name="uni01D2" unicode="&#x1d2;" horiz-adv-x="371" 
d="M186 -8q-54 0 -89 14t-51.5 50t-16.5 100v210q0 47 16 77.5t50.5 45t90.5 14.5t90.5 -14.5t50 -45t15.5 -77.5v-210q0 -64 -16.5 -100t-51 -50t-88.5 -14zM186 59q18 0 27 7.5t12 21t3 30.5v260q0 17 -3 30t-12 20.5t-27 7.5t-27.5 -7.5t-12.5 -20.5t-3 -30v-260
q0 -17 3 -30.5t12.5 -21t27.5 -7.5zM152 546l-94 105h70l58 -56l58 56h68l-95 -105h-65z" />
    <glyph glyph-name="ocircumflex" unicode="&#xf4;" horiz-adv-x="371" 
d="M186 -8q-54 0 -89 14t-51.5 50t-16.5 100v210q0 47 16 77.5t50.5 45t90.5 14.5t90.5 -14.5t50 -45t15.5 -77.5v-210q0 -64 -16.5 -100t-51 -50t-88.5 -14zM186 59q18 0 27 7.5t12 21t3 30.5v260q0 17 -3 30t-12 20.5t-27 7.5t-27.5 -7.5t-12.5 -20.5t-3 -30v-260
q0 -17 3 -30.5t12.5 -21t27.5 -7.5zM58 546l95 105h64l95 -105h-68l-58 56l-58 -56h-70z" />
    <glyph glyph-name="uni1ED1" unicode="&#x1ed1;" horiz-adv-x="371" 
d="M186 -8q-54 0 -89 14t-51.5 50t-16.5 100v210q0 47 16 77.5t50.5 45t90.5 14.5t90.5 -14.5t50 -45t15.5 -77.5v-210q0 -64 -16.5 -100t-51 -50t-88.5 -14zM186 59q18 0 27 7.5t12 21t3 30.5v260q0 17 -3 30t-12 20.5t-27 7.5t-27.5 -7.5t-12.5 -20.5t-3 -30v-260
q0 -17 3 -30.5t12.5 -21t27.5 -7.5zM58 546l95 105h64l95 -105h-68l-58 56l-58 -56h-70zM307 602l57 100h110l-95 -100h-72z" />
    <glyph glyph-name="uni1ED9" unicode="&#x1ed9;" horiz-adv-x="371" 
d="M186 -8q-54 0 -89 14t-51.5 50t-16.5 100v210q0 47 16 77.5t50.5 45t90.5 14.5t90.5 -14.5t50 -45t15.5 -77.5v-210q0 -64 -16.5 -100t-51 -50t-88.5 -14zM186 59q18 0 27 7.5t12 21t3 30.5v260q0 17 -3 30t-12 20.5t-27 7.5t-27.5 -7.5t-12.5 -20.5t-3 -30v-260
q0 -17 3 -30.5t12.5 -21t27.5 -7.5zM185 -130q-21 0 -34.5 14t-13.5 32q0 20 13.5 33.5t34.5 13.5q19 0 33.5 -13.5t14.5 -33.5q0 -18 -14.5 -32t-33.5 -14zM58 546l95 105h64l95 -105h-68l-58 56l-58 -56h-70z" />
    <glyph glyph-name="uni1ED3" unicode="&#x1ed3;" horiz-adv-x="371" 
d="M186 -8q-54 0 -89 14t-51.5 50t-16.5 100v210q0 47 16 77.5t50.5 45t90.5 14.5t90.5 -14.5t50 -45t15.5 -77.5v-210q0 -64 -16.5 -100t-51 -50t-88.5 -14zM186 59q18 0 27 7.5t12 21t3 30.5v260q0 17 -3 30t-12 20.5t-27 7.5t-27.5 -7.5t-12.5 -20.5t-3 -30v-260
q0 -17 3 -30.5t12.5 -21t27.5 -7.5zM58 546l95 105h64l95 -105h-68l-58 56l-58 -56h-70zM341 602l-96 100h110l57 -100h-71z" />
    <glyph glyph-name="uni1ED5" unicode="&#x1ed5;" horiz-adv-x="371" 
d="M186 -8q-54 0 -89 14t-51.5 50t-16.5 100v210q0 47 16 77.5t50.5 45t90.5 14.5t90.5 -14.5t50 -45t15.5 -77.5v-210q0 -64 -16.5 -100t-51 -50t-88.5 -14zM186 59q18 0 27 7.5t12 21t3 30.5v260q0 17 -3 30t-12 20.5t-27 7.5t-27.5 -7.5t-12.5 -20.5t-3 -30v-260
q0 -17 3 -30.5t12.5 -21t27.5 -7.5zM58 546l95 105h64l95 -105h-68l-58 56l-58 -56h-70zM325 603v12q0 15 10.5 22.5t21.5 14t11 18.5v6q0 8 -4 15t-15 7q-16 0 -18 -21l-51 8q3 27 21 41t53 14q39 0 59 -11.5t20 -50.5v-4q0 -22 -12 -30.5t-23.5 -13.5t-11.5 -17v-10h-61z
" />
    <glyph glyph-name="uni1ED7" unicode="&#x1ed7;" horiz-adv-x="371" 
d="M186 -8q-54 0 -89 14t-51.5 50t-16.5 100v210q0 47 16 77.5t50.5 45t90.5 14.5t90.5 -14.5t50 -45t15.5 -77.5v-210q0 -64 -16.5 -100t-51 -50t-88.5 -14zM186 59q18 0 27 7.5t12 21t3 30.5v260q0 17 -3 30t-12 20.5t-27 7.5t-27.5 -7.5t-12.5 -20.5t-3 -30v-260
q0 -17 3 -30.5t12.5 -21t27.5 -7.5zM58 546l95 105h64l95 -105h-68l-58 56l-58 -56h-70zM232 675q-15 0 -28 5.5t-27 13.5q-10 7 -21 12t-23 5q-13 0 -20.5 -9.5t-8.5 -25.5h-34q1 39 18.5 63.5t45.5 24.5q16 0 30 -5.5t26 -13.5q11 -6 21.5 -11t21.5 -5q14 0 21.5 9t9.5 23
h37q0 -28 -10.5 -47.5t-26.5 -29t-32 -9.5z" />
    <glyph glyph-name="odieresis" unicode="&#xf6;" horiz-adv-x="371" 
d="M186 -8q-54 0 -89 14t-51.5 50t-16.5 100v210q0 47 16 77.5t50.5 45t90.5 14.5t90.5 -14.5t50 -45t15.5 -77.5v-210q0 -64 -16.5 -100t-51 -50t-88.5 -14zM186 59q18 0 27 7.5t12 21t3 30.5v260q0 17 -3 30t-12 20.5t-27 7.5t-27.5 -7.5t-12.5 -20.5t-3 -30v-260
q0 -17 3 -30.5t12.5 -21t27.5 -7.5zM126 549q-21 0 -34.5 13t-13.5 33q0 19 13.5 31.5t34.5 12.5q20 0 33 -12.5t13 -31.5q0 -20 -13 -33t-33 -13zM246 549q-20 0 -34 13t-14 33q0 19 14 31.5t34 12.5t33.5 -12.5t13.5 -31.5q0 -20 -13.5 -33t-33.5 -13z" />
    <glyph glyph-name="uni1ECD" unicode="&#x1ecd;" horiz-adv-x="371" 
d="M186 -8q-54 0 -89 14t-51.5 50t-16.5 100v210q0 47 16 77.5t50.5 45t90.5 14.5t90.5 -14.5t50 -45t15.5 -77.5v-210q0 -64 -16.5 -100t-51 -50t-88.5 -14zM186 59q18 0 27 7.5t12 21t3 30.5v260q0 17 -3 30t-12 20.5t-27 7.5t-27.5 -7.5t-12.5 -20.5t-3 -30v-260
q0 -17 3 -30.5t12.5 -21t27.5 -7.5zM185 -130q-21 0 -34.5 14t-13.5 32q0 20 13.5 33.5t34.5 13.5q19 0 33.5 -13.5t14.5 -33.5q0 -18 -14.5 -32t-33.5 -14z" />
    <glyph glyph-name="oe" unicode="&#x153;" horiz-adv-x="565" 
d="M180 -8q-51 0 -84.5 14t-50 50t-16.5 100v210q0 47 16 77.5t49.5 45t86.5 14.5q45 0 76 -17.5t47 -48.5t16 -71v-210q0 -51 -13.5 -88t-44 -56.5t-82.5 -19.5zM186 59q18 0 27 7.5t12 21t3 30.5v260q0 17 -3 30t-12 20.5t-27 7.5t-27.5 -7.5t-12.5 -20.5t-3 -30v-260
q0 -17 3 -30.5t12.5 -21t27.5 -7.5zM391 -8q-75 0 -108.5 38t-33.5 124v207q0 75 38.5 109t103.5 34q74 0 111.5 -27.5t37.5 -99.5v-135h-198v-130q0 -31 9.5 -43t32.5 -12q24 0 33 12t9 43v74h114v-31q0 -62 -16 -98t-49 -50.5t-84 -14.5zM342 294h84v89q0 29 -8.5 41.5
t-32.5 12.5t-33.5 -12.5t-9.5 -41.5v-89z" />
    <glyph glyph-name="ogonek" unicode="&#x2db;" horiz-adv-x="229" 
d="M89 -143q-36 0 -59 19.5t-23 44.5q0 28 22.5 52t56.5 29l47 -1q-27 -9 -39.5 -28t-12.5 -36q0 -19 12.5 -29t24.5 -10q8 0 13.5 2t8.5 2l13 -30q-5 -3 -19.5 -9t-44.5 -6z" />
    <glyph glyph-name="uni0328" unicode="&#x328;" 
d="M89 -143q-36 0 -59 19.5t-23 44.5q0 28 22.5 52t56.5 29l47 -1q-27 -9 -39.5 -28t-12.5 -36q0 -19 12.5 -29t24.5 -10q8 0 13.5 2t8.5 2l13 -30q-5 -3 -19.5 -9t-44.5 -6z" />
    <glyph glyph-name="ograve" unicode="&#xf2;" horiz-adv-x="371" 
d="M186 -8q-54 0 -89 14t-51.5 50t-16.5 100v210q0 47 16 77.5t50.5 45t90.5 14.5t90.5 -14.5t50 -45t15.5 -77.5v-210q0 -64 -16.5 -100t-51 -50t-88.5 -14zM186 59q18 0 27 7.5t12 21t3 30.5v260q0 17 -3 30t-12 20.5t-27 7.5t-27.5 -7.5t-12.5 -20.5t-3 -30v-260
q0 -17 3 -30.5t12.5 -21t27.5 -7.5zM170 548l-96 100h110l57 -100h-71z" />
    <glyph glyph-name="uni1ECF" unicode="&#x1ecf;" horiz-adv-x="371" 
d="M186 -8q-54 0 -89 14t-51.5 50t-16.5 100v210q0 47 16 77.5t50.5 45t90.5 14.5t90.5 -14.5t50 -45t15.5 -77.5v-210q0 -64 -16.5 -100t-51 -50t-88.5 -14zM186 59q18 0 27 7.5t12 21t3 30.5v260q0 17 -3 30t-12 20.5t-27 7.5t-27.5 -7.5t-12.5 -20.5t-3 -30v-260
q0 -17 3 -30.5t12.5 -21t27.5 -7.5zM154 549v12q0 15 10.5 22.5t21.5 14t11 18.5v6q0 8 -4 15t-15 7q-16 0 -18 -21l-51 8q3 27 21 41t53 14q39 0 59 -11.5t20 -50.5v-4q0 -22 -12 -30.5t-23.5 -13.5t-11.5 -17v-10h-61z" />
    <glyph glyph-name="ohorn" unicode="&#x1a1;" horiz-adv-x="371" 
d="M186 -8q-54 0 -89 14t-51.5 50t-16.5 100v210q0 47 16 77.5t50.5 45t90.5 14.5t90.5 -14.5t50 -45t15.5 -77.5v-210q0 -64 -16.5 -100t-51 -50t-88.5 -14zM186 59q18 0 27 7.5t12 21t3 30.5v260q0 17 -3 30t-12 20.5t-27 7.5t-27.5 -7.5t-12.5 -20.5t-3 -30v-260
q0 -17 3 -30.5t12.5 -21t27.5 -7.5zM234 434l-1 50h17q45 0 45 47v18h75v-17q0 -53 -34 -75.5t-102 -22.5z" />
    <glyph glyph-name="uni1EDB" unicode="&#x1edb;" horiz-adv-x="371" 
d="M186 -8q-54 0 -89 14t-51.5 50t-16.5 100v210q0 47 16 77.5t50.5 45t90.5 14.5t90.5 -14.5t50 -45t15.5 -77.5v-210q0 -64 -16.5 -100t-51 -50t-88.5 -14zM186 59q18 0 27 7.5t12 21t3 30.5v260q0 17 -3 30t-12 20.5t-27 7.5t-27.5 -7.5t-12.5 -20.5t-3 -30v-260
q0 -17 3 -30.5t12.5 -21t27.5 -7.5zM234 434l-1 50h17q45 0 45 47v18h75v-17q0 -53 -34 -75.5t-102 -22.5zM136 548l57 100h110l-95 -100h-72z" />
    <glyph glyph-name="uni1EE3" unicode="&#x1ee3;" horiz-adv-x="371" 
d="M186 -8q-54 0 -89 14t-51.5 50t-16.5 100v210q0 47 16 77.5t50.5 45t90.5 14.5t90.5 -14.5t50 -45t15.5 -77.5v-210q0 -64 -16.5 -100t-51 -50t-88.5 -14zM186 59q18 0 27 7.5t12 21t3 30.5v260q0 17 -3 30t-12 20.5t-27 7.5t-27.5 -7.5t-12.5 -20.5t-3 -30v-260
q0 -17 3 -30.5t12.5 -21t27.5 -7.5zM234 434l-1 50h17q45 0 45 47v18h75v-17q0 -53 -34 -75.5t-102 -22.5zM185 -130q-21 0 -34.5 14t-13.5 32q0 20 13.5 33.5t34.5 13.5q19 0 33.5 -13.5t14.5 -33.5q0 -18 -14.5 -32t-33.5 -14z" />
    <glyph glyph-name="uni1EDD" unicode="&#x1edd;" horiz-adv-x="371" 
d="M186 -8q-54 0 -89 14t-51.5 50t-16.5 100v210q0 47 16 77.5t50.5 45t90.5 14.5t90.5 -14.5t50 -45t15.5 -77.5v-210q0 -64 -16.5 -100t-51 -50t-88.5 -14zM186 59q18 0 27 7.5t12 21t3 30.5v260q0 17 -3 30t-12 20.5t-27 7.5t-27.5 -7.5t-12.5 -20.5t-3 -30v-260
q0 -17 3 -30.5t12.5 -21t27.5 -7.5zM234 434l-1 50h17q45 0 45 47v18h75v-17q0 -53 -34 -75.5t-102 -22.5zM170 548l-96 100h110l57 -100h-71z" />
    <glyph glyph-name="uni1EDF" unicode="&#x1edf;" horiz-adv-x="371" 
d="M186 -8q-54 0 -89 14t-51.5 50t-16.5 100v210q0 47 16 77.5t50.5 45t90.5 14.5t90.5 -14.5t50 -45t15.5 -77.5v-210q0 -64 -16.5 -100t-51 -50t-88.5 -14zM186 59q18 0 27 7.5t12 21t3 30.5v260q0 17 -3 30t-12 20.5t-27 7.5t-27.5 -7.5t-12.5 -20.5t-3 -30v-260
q0 -17 3 -30.5t12.5 -21t27.5 -7.5zM234 434l-1 50h17q45 0 45 47v18h75v-17q0 -53 -34 -75.5t-102 -22.5zM154 549v12q0 15 10.5 22.5t21.5 14t11 18.5v6q0 8 -4 15t-15 7q-16 0 -18 -21l-51 8q3 27 21 41t53 14q39 0 59 -11.5t20 -50.5v-4q0 -22 -12 -30.5t-23.5 -13.5
t-11.5 -17v-10h-61z" />
    <glyph glyph-name="uni1EE1" unicode="&#x1ee1;" horiz-adv-x="371" 
d="M186 -8q-54 0 -89 14t-51.5 50t-16.5 100v210q0 47 16 77.5t50.5 45t90.5 14.5t90.5 -14.5t50 -45t15.5 -77.5v-210q0 -64 -16.5 -100t-51 -50t-88.5 -14zM186 59q18 0 27 7.5t12 21t3 30.5v260q0 17 -3 30t-12 20.5t-27 7.5t-27.5 -7.5t-12.5 -20.5t-3 -30v-260
q0 -17 3 -30.5t12.5 -21t27.5 -7.5zM234 434l-1 50h17q45 0 45 47v18h75v-17q0 -53 -34 -75.5t-102 -22.5zM232 551q-15 0 -28 5.5t-27 13.5q-10 7 -21 12t-23 5q-13 0 -20.5 -9.5t-8.5 -25.5h-34q1 39 18.5 63.5t45.5 24.5q16 0 30 -5.5t26 -13.5q11 -6 21.5 -11t21.5 -5
q14 0 21.5 9t9.5 23h37q0 -28 -10.5 -47.5t-26.5 -29t-32 -9.5z" />
    <glyph glyph-name="ohungarumlaut" unicode="&#x151;" horiz-adv-x="371" 
d="M186 -8q-54 0 -89 14t-51.5 50t-16.5 100v210q0 47 16 77.5t50.5 45t90.5 14.5t90.5 -14.5t50 -45t15.5 -77.5v-210q0 -64 -16.5 -100t-51 -50t-88.5 -14zM186 59q18 0 27 7.5t12 21t3 30.5v260q0 17 -3 30t-12 20.5t-27 7.5t-27.5 -7.5t-12.5 -20.5t-3 -30v-260
q0 -17 3 -30.5t12.5 -21t27.5 -7.5zM114 548l17 100h89l-61 -100h-45zM208 548l31 100h88l-67 -100h-52z" />
    <glyph glyph-name="omacron" unicode="&#x14d;" horiz-adv-x="371" 
d="M186 -8q-54 0 -89 14t-51.5 50t-16.5 100v210q0 47 16 77.5t50.5 45t90.5 14.5t90.5 -14.5t50 -45t15.5 -77.5v-210q0 -64 -16.5 -100t-51 -50t-88.5 -14zM186 59q18 0 27 7.5t12 21t3 30.5v260q0 17 -3 30t-12 20.5t-27 7.5t-27.5 -7.5t-12.5 -20.5t-3 -30v-260
q0 -17 3 -30.5t12.5 -21t27.5 -7.5zM83 560v58h206v-58h-206z" />
    <glyph glyph-name="one" unicode="1" horiz-adv-x="272" 
d="M114 0v448h-101v66l28 1q35 3 54.5 20.5t33.5 55.5h101v-591h-116z" />
    <glyph glyph-name="one.tf" horiz-adv-x="434" 
d="M178 0v448h-101v66l28 1q35 3 54.5 20.5t33.5 55.5h101v-591h-116z" />
    <glyph glyph-name="onehalf" unicode="&#xbd;" horiz-adv-x="620" 
d="M65 0l321 589h82l-322 -589h-81zM79 236v262l-54 -10v41q29 11 49 26t37 36h40v-355h-72zM336 1v50q0 49 13 75.5t58 47.5q38 18 50 35t12 49q0 23 -6 36t-24 13q-16 0 -24.5 -11t-8.5 -37v-39h-70v28q0 61 24.5 85.5t80.5 24.5q43 0 65.5 -12t30.5 -33t8 -46
q0 -38 -10 -61t-27 -37t-39 -27q-34 -20 -47 -31.5t-17 -23.5q-4 -7 -4 -14v-13h142v-59h-207z" />
    <glyph glyph-name="onequarter" unicode="&#xbc;" horiz-adv-x="603" 
d="M97 0l320 589h83l-322 -589h-81zM87 236v262l-54 -10v41q29 11 49 26t37 36h39v-355h-71zM462 2v69h-127l-2 41l139 243h62v-235h36v-49h-36v-69h-72zM399 120h63v123z" />
    <glyph glyph-name="uni00B9" unicode="&#xb9;" horiz-adv-x="173" 
d="M69 236v262l-54 -10v41q29 11 49 26t37 36h39v-355h-71z" />
    <glyph glyph-name="ordfeminine" unicode="&#xaa;" horiz-adv-x="370" 
d="M126 -8q-26 0 -48.5 7t-37 29.5t-14.5 66.5v66q0 47 27.5 76.5t86.5 50.5q31 13 49 23t26 24.5t8 39.5v27q0 16 -5 24.5t-14.5 12.5t-21.5 4q-26 0 -34 -17.5t-8 -58.5v-42h-103v53q0 37 10.5 65.5t41.5 45t93 16.5q63 0 97 -11.5t47 -36t13 -66.5v-391h-114v55
q-8 -29 -36.5 -46t-62.5 -17zM175 67q27 0 37.5 20.5t10.5 57.5v127q-6 -10 -20 -17.5t-28 -16.5q-19 -13 -29 -26.5t-10 -37.5v-51q0 -21 5 -33.5t14 -17.5t20 -5z" />
    <glyph glyph-name="ordmasculine" unicode="&#xba;" horiz-adv-x="371" 
d="M186 -8q-54 0 -89 14t-51.5 50t-16.5 100v210q0 47 16 77.5t50.5 45t90.5 14.5t90.5 -14.5t50 -45t15.5 -77.5v-210q0 -64 -16.5 -100t-51 -50t-88.5 -14zM186 59q18 0 27 7.5t12 21t3 30.5v260q0 17 -3 30t-12 20.5t-27 7.5t-27.5 -7.5t-12.5 -20.5t-3 -30v-260
q0 -17 3 -30.5t12.5 -21t27.5 -7.5z" />
    <glyph glyph-name="oslash" unicode="&#xf8;" horiz-adv-x="379" 
d="M26 -38l277 559h43l-278 -559h-42zM186 -8q-54 0 -89 14t-51.5 50t-16.5 100v210q0 47 16 77.5t50.5 45t90.5 14.5t90.5 -14.5t50 -45t15.5 -77.5v-210q0 -64 -16.5 -100t-51 -50t-88.5 -14zM186 59q18 0 27 7.5t12 21t3 30.5v260q0 17 -3 30t-12 20.5t-27 7.5
t-27.5 -7.5t-12.5 -20.5t-3 -30v-260q0 -17 3 -30.5t12.5 -21t27.5 -7.5z" />
    <glyph glyph-name="otilde" unicode="&#xf5;" horiz-adv-x="371" 
d="M186 -8q-54 0 -89 14t-51.5 50t-16.5 100v210q0 47 16 77.5t50.5 45t90.5 14.5t90.5 -14.5t50 -45t15.5 -77.5v-210q0 -64 -16.5 -100t-51 -50t-88.5 -14zM186 59q18 0 27 7.5t12 21t3 30.5v260q0 17 -3 30t-12 20.5t-27 7.5t-27.5 -7.5t-12.5 -20.5t-3 -30v-260
q0 -17 3 -30.5t12.5 -21t27.5 -7.5zM232 551q-15 0 -28 5.5t-27 13.5q-10 7 -21 12t-23 5q-13 0 -20.5 -9.5t-8.5 -25.5h-34q1 39 18.5 63.5t45.5 24.5q16 0 30 -5.5t26 -13.5q11 -6 21.5 -11t21.5 -5q14 0 21.5 9t9.5 23h37q0 -28 -10.5 -47.5t-26.5 -29t-32 -9.5z" />
    <glyph glyph-name="p" unicode="p" horiz-adv-x="380" 
d="M37 -116v611h113v-39q10 17 28 32t59 15q35 0 60 -11.5t39 -37t14 -69.5v-240q0 -55 -12 -88.5t-37 -48t-64 -14.5q-35 0 -55.5 12.5t-30.5 28.5v-151h-114zM194 58q15 0 23 4.5t12.5 12.5t5.5 18.5t1 23.5v256q0 13 -1 24t-5.5 19t-12.5 12t-23 4q-14 0 -22.5 -4.5
t-13 -12t-6 -16.5t-1.5 -16v-269q0 -17 3.5 -30t12.5 -19.5t27 -6.5z" />
    <glyph glyph-name="p.sc" horiz-adv-x="384" 
d="M41 0v495h206q57 0 87 -23t30 -61v-84q0 -34 -9.5 -64.5t-35 -50t-74.5 -19.5h-85v-193h-119zM160 256h43q23 0 35 18t12 65v21q0 37 -9 55.5t-29 18.5h-52v-178z" />
    <glyph glyph-name="paragraph" unicode="&#xb6;" horiz-adv-x="600" 
d="M189 -60v267q-46 0 -78.5 22t-50 64.5t-17.5 103.5q0 57 15.5 93.5t41.5 57t57 29t62 8.5h164v-645h-49v567h-52v-567h-93z" />
    <glyph glyph-name="parenleft" unicode="(" horiz-adv-x="336" 
d="M286 -119q-55 1 -101.5 32.5t-80.5 83.5t-52.5 117.5t-18.5 135.5q0 76 21 149t57.5 132t84.5 95.5t101 38.5v-65q-38 -10 -67.5 -42.5t-49.5 -80t-30.5 -104t-10.5 -116.5q0 -58 9.5 -112.5t28 -98.5t46 -71t63.5 -30v-64z" />
    <glyph glyph-name="parenright" unicode=")" horiz-adv-x="333" 
d="M36 -119v64q38 11 67.5 43t49.5 79.5t30.5 104.5t10.5 117q0 58 -9.5 112.5t-28 98t-46 71t-63.5 30.5v64q56 -2 102 -33t80 -83t52.5 -117.5t18.5 -136.5q0 -75 -20.5 -148t-57.5 -132t-85 -95.5t-101 -38.5z" />
    <glyph glyph-name="partialdiff" unicode="&#x2202;" horiz-adv-x="371" 
d="M184 -11q-33 0 -61 5t-49 20t-33 47t-12 87v209q0 52 18.5 79.5t53.5 37.5t82 10q12 0 24.5 -3t18.5 -11q-1 35 -7.5 61.5t-23 41.5t-48.5 15q-24 0 -44.5 -3t-43.5 -7v72q3 2 27.5 7t76.5 5q31 0 58 -4t49 -15.5t35 -35.5q19 -31 27.5 -87t9.5 -145v-212q0 -49 -9.5 -83
t-29 -53.5t-49.5 -28.5t-70 -9zM184 50q18 0 27 8.5t12.5 24t3.5 32.5v268q0 9 -4 18.5t-13 16t-27 6.5q-16 0 -25 -6.5t-12 -18.5t-3 -30v-269q0 -17 4 -27t10.5 -15t13.5 -6.5t13 -1.5z" />
    <glyph glyph-name="uni043F" unicode="&#x43f;" horiz-adv-x="383" 
d="M33 0v495h317v-495h-114v413h-89v-413h-114z" />
    <glyph glyph-name="uni043F.loclBGR" horiz-adv-x="383" 
d="M33 0v495h317v-495h-114v413h-89v-413h-114z" />
    <glyph glyph-name="percent" unicode="%" horiz-adv-x="577" 
d="M83 0l323 591h84l-324 -591h-83zM218 203q-33 0 -53.5 8.5t-30 29t-9.5 57.5v122q0 18 4.5 36t23.5 30.5t61 12.5q43 0 64.5 -9.5t28 -28t6.5 -45.5v-116q0 -40 -10 -61t-31 -28.5t-54 -7.5zM218 240q17 0 22.5 10t5.5 28v147q0 17 -5.5 27t-22.5 10q-12 0 -17.5 -5.5
t-7 -13.5t-1.5 -18v-148q0 -9 1.5 -17.5t7 -14t17.5 -5.5zM357 88q-33 0 -53.5 8t-30 29t-9.5 58v122q0 18 4.5 36t24 30.5t60.5 12.5q43 0 64.5 -9.5t28 -28t6.5 -45.5v-116q0 -40 -10 -61t-31 -28.5t-54 -7.5zM357 125q17 0 22.5 9.5t5.5 27.5v147q0 18 -5.5 28t-22.5 10
q-12 0 -17.5 -5.5t-7 -14t-1.5 -18.5v-147q0 -9 1.5 -18t7 -14t17.5 -5z" />
    <glyph glyph-name="period" unicode="." horiz-adv-x="220" 
d="M109 -9q-24 0 -41.5 16.5t-17.5 40.5t17.5 40.5t41.5 16.5q25 0 43 -16.5t18 -40.5t-18 -40.5t-43 -16.5z" />
    <glyph glyph-name="period.tf" horiz-adv-x="434" 
d="M210 -9q-24 0 -41.5 16.5t-17.5 40.5t17.5 40.5t41.5 16.5q25 0 43 -16.5t18 -40.5t-18 -40.5t-43 -16.5z" />
    <glyph glyph-name="periodcentered" unicode="&#xb7;" horiz-adv-x="220" 
d="M109 226q-24 0 -41.5 16.5t-17.5 40.5t17.5 40.5t41.5 16.5q25 0 43 -16.5t18 -40.5t-18 -40.5t-43 -16.5z" />
    <glyph glyph-name="perthousand" unicode="&#x2030;" horiz-adv-x="785" 
d="M76 0l323 591h84l-324 -591h-83zM211 203q-32 0 -53 8.5t-30.5 29t-9.5 57.5v122q0 18 4.5 36t23.5 30.5t62 12.5q42 0 63.5 -9.5t28.5 -28t7 -45.5v-116q0 -40 -10.5 -61t-31.5 -28.5t-54 -7.5zM211 240q17 0 22.5 10t5.5 28v147q0 17 -5.5 27t-22.5 10
q-12 0 -17.5 -5.5t-7 -13.5t-1.5 -18v-148q0 -9 1.5 -17.5t7 -14t17.5 -5.5zM350 88q-33 0 -53.5 8t-30 29t-9.5 58v122q0 18 4.5 36t23.5 30.5t61 12.5q43 0 64.5 -9.5t28.5 -28t7 -45.5v-116q0 -40 -10.5 -61t-31.5 -28.5t-54 -7.5zM350 125q17 0 22.5 9.5t5.5 27.5v147
q0 18 -5.5 28t-22.5 10q-12 0 -17.5 -5.5t-7 -14t-1.5 -18.5v-147q0 -9 1.5 -18t7 -14t17.5 -5zM654 -4q-33 0 -54 8t-30.5 29t-9.5 58v122q0 18 4.5 36t24 30.5t61.5 12.5q43 0 64 -9.5t28 -28t7 -45.5v-116q0 -40 -10.5 -61t-31 -28.5t-53.5 -7.5zM654 33q17 0 22.5 9.5
t5.5 27.5v148q0 17 -5.5 27t-22.5 10q-12 0 -18 -5.5t-7.5 -14t-1.5 -17.5v-148q0 -9 1.5 -18t7.5 -14t18 -5z" />
    <glyph glyph-name="peseta" unicode="&#x20a7;" horiz-adv-x="556" 
d="M34 388v53h499v-53h-499zM116 0v591h211q59 0 89 -26.5t30 -73.5v-102q0 -40 -10 -74.5t-36 -55.5t-74 -21h-88v-238h-122zM238 302h45q24 0 36 23t12 76v40q0 47 -10 67t-29 20h-54v-226z" />
    <glyph glyph-name="pi" unicode="&#x3c0;" horiz-adv-x="600" 
d="M74 0q12 41 23 91.5t20.5 106t15 111t4.5 106.5q-27 0 -51 -5t-49 -15v70q9 5 20 8.5t24 7.5q21 6 51 10t72 4h339v-78h-68v-417h-117v417h-112q0 -52 -5 -109.5t-11.5 -114.5t-15 -107t-16.5 -86h-124z" />
    <glyph glyph-name="plus" unicode="+" horiz-adv-x="492" 
d="M186 71v140h-136v119h136v139h119v-139h137v-119h-137v-140h-119z" />
    <glyph glyph-name="plusminus" unicode="&#xb1;" horiz-adv-x="423" 
d="M172 162v140h-136v78h136v139h79v-139h136v-78h-136v-140h-79zM36 0v74h351v-74h-351z" />
    <glyph glyph-name="product" unicode="&#x220f;" horiz-adv-x="613" 
d="M129 0v500h-113v91h581v-91h-103v-500h-106v500h-153v-500h-106z" />
    <glyph glyph-name="q" unicode="q" horiz-adv-x="380" 
d="M228 -116v163q-8 -22 -28.5 -38.5t-59.5 -16.5q-25 0 -45.5 6.5t-35 23t-22.5 46t-8 76.5v241q0 33 9 55t24 35.5t34.5 19.5t42.5 6q43 0 62 -14t27 -30l2 38h112v-611h-114zM186 57q13 0 21.5 6t13 15.5t6 20t1.5 19.5v265q0 7 -1.5 16t-5.5 16.5t-12.5 12t-22.5 4.5
q-15 0 -23.5 -4t-13 -12t-5.5 -19t-1 -24v-257q0 -13 1 -23.5t5.5 -18.5t13 -12.5t23.5 -4.5z" />
    <glyph glyph-name="q.sc" horiz-adv-x="399" 
d="M285 -106l-65 99h-11h-13q-53 0 -89 12.5t-54.5 44.5t-18.5 90v250q0 62 45.5 87.5t121.5 25.5q77 0 120 -25t43 -88v-249q0 -49 -14 -79t-41 -46l52 -78zM201 60q24 0 36.5 8t12.5 28v300q0 20 -13 28t-36 8q-24 0 -36 -8t-12 -28v-300q0 -21 13 -28.5t35 -7.5z" />
    <glyph glyph-name="question" unicode="?" horiz-adv-x="399" 
d="M118 160v123q16 1 31.5 4t29.5 8q17 5 32.5 16.5t25 30t9.5 44.5v48q0 33 -11 54.5t-39 21.5q-27 0 -37 -20t-10 -52v-55h-116v68q0 143 164 143q63 0 100 -16t53 -50.5t16 -92.5v-27q0 -44 -14 -78t-38 -55t-57 -27q-9 -2 -18 -2.5t-20 -0.5v-85h-101zM166 -8
q-25 0 -42 16.5t-17 39.5q0 24 17 41t42 17t43 -17t18 -41q0 -23 -18 -39.5t-43 -16.5z" />
    <glyph glyph-name="questiondown" unicode="&#xbf;" horiz-adv-x="399" 
d="M281 329v-123q-16 -1 -31.5 -3.5t-28.5 -8.5q-17 -5 -32.5 -16.5t-25.5 -30t-10 -44.5v-48q0 -33 11.5 -54.5t38.5 -21.5q28 0 38 20.5t10 51.5v55h116v-68q0 -143 -165 -143q-62 0 -99 16t-53.5 51t-16.5 92v27q1 45 15 78.5t38 54.5t56 27q10 2 19.5 2.5t19.5 0.5v85
h100zM233 497q25 0 42 -16.5t17 -39.5q0 -24 -17 -41t-42 -17t-43 17t-18 41q0 23 18 39.5t43 16.5z" />
    <glyph glyph-name="quotedbl" unicode="&#x22;" horiz-adv-x="347" 
d="M210 421l-16 209h96l-17 -209h-63zM74 421l-17 209h96l-17 -209h-62z" />
    <glyph glyph-name="quotedblbase" unicode="&#x201e;" horiz-adv-x="277" 
d="M96 -147h-63l38 209h97zM255 -147h-62l38 209h96z" />
    <glyph glyph-name="quotedblleft" unicode="&#x201c;" horiz-adv-x="341" 
d="M246 625h62l-38 -209h-96zM105 625h62l-38 -209h-96z" />
    <glyph glyph-name="quotedblright" unicode="&#x201d;" horiz-adv-x="341" 
d="M96 416h-63l38 209h97zM236 416h-62l38 209h96z" />
    <glyph glyph-name="quoteleft" unicode="&#x2018;" horiz-adv-x="201" 
d="M105 625h62l-38 -209h-96z" />
    <glyph glyph-name="quoteright" unicode="&#x2019;" horiz-adv-x="207" 
d="M98 421h-62l38 209h97z" />
    <glyph glyph-name="quotesinglbase" unicode="&#x201a;" horiz-adv-x="195" 
d="M51 -147q15 33 26.5 60.5t11.5 49.5q0 19 -8.5 30t-17.5 21t-9 29q0 22 17 38.5t44 16.5q26 0 42 -17t16 -44t-11 -60t-27 -66t-34 -58h-50z" />
    <glyph glyph-name="quotesingle" unicode="'" horiz-adv-x="210" 
d="M74 421l-17 209h96l-17 -209h-62z" />
    <glyph glyph-name="r" unicode="r" horiz-adv-x="281" 
d="M37 0v495h97l10 -59q9 22 27 35.5t38 18.5q33 14 69 7v-87q-2 0 -15.5 1.5t-30.5 0.5t-29 -9q-25 -9 -38.5 -30.5t-13.5 -53.5v-319h-114z" />
    <glyph glyph-name="r.sc" horiz-adv-x="411" 
d="M41 0v495h211q58 0 87.5 -23t29.5 -61v-76q0 -38 -24.5 -66t-75.5 -33v-1q33 -5 47 -18.5t25 -45.5l54 -171h-126l-42 163q-3 13 -7.5 22.5t-11 15t-15.5 5.5h-34v-206h-118zM159 285h47q22 0 36.5 9.5t14.5 38.5v57q0 24 -11 34t-31 10h-56v-149z" />
    <glyph glyph-name="racute" unicode="&#x155;" horiz-adv-x="281" 
d="M37 0v495h97l10 -59q9 22 27 35.5t38 18.5q33 14 69 7v-87q-2 0 -15.5 1.5t-30.5 0.5t-29 -9q-25 -9 -38.5 -30.5t-13.5 -53.5v-319h-114zM113 548l57 100h110l-95 -100h-72z" />
    <glyph glyph-name="radical" unicode="&#x221a;" horiz-adv-x="600" 
d="M243 -72l-117 377l-98 -33v46l182 90l82 -373h1l173 590h122l-242 -697h-103z" />
    <glyph glyph-name="rcaron" unicode="&#x159;" horiz-adv-x="281" 
d="M37 0v495h97l10 -59q9 22 27 35.5t38 18.5q33 14 69 7v-87q-2 0 -15.5 1.5t-30.5 0.5t-29 -9q-25 -9 -38.5 -30.5t-13.5 -53.5v-319h-114zM130 546l-94 105h70l58 -56l58 56h68l-95 -105h-65z" />
    <glyph glyph-name="uni0157" unicode="&#x157;" horiz-adv-x="281" 
d="M37 0v495h97l10 -59q9 22 27 35.5t38 18.5q33 14 69 7v-87q-2 0 -15.5 1.5t-30.5 0.5t-29 -9q-25 -9 -38.5 -30.5t-13.5 -53.5v-319h-114zM40 -189q14 21 23 39t9 30q0 7 -7 12t-14 12.5t-7 20.5q0 14 14 26t35 12q23 0 37 -13t14 -31q0 -14 -9 -34t-22 -39.5t-27 -34.5
h-46z" />
    <glyph glyph-name="registered" unicode="&#xae;" horiz-adv-x="384" 
d="M192 279q-43 0 -78.5 21t-56.5 56.5t-21 78.5t21 78.5t56.5 56.5t78.5 21q44 0 79 -21t56 -56.5t21 -78.5t-21 -78.5t-56 -56.5t-79 -21zM192 305q36 0 65.5 18t46.5 47.5t17 64.5q0 36 -17 65.5t-46.5 46.5t-65.5 17q-35 0 -64 -17t-46.5 -46.5t-17.5 -65.5
q0 -35 17.5 -64.5t46.5 -47.5t64 -18zM141 357v163h61q26 0 34.5 -10t8.5 -30q0 -18 -6 -31t-26 -16q3 -1 5.5 -5t2.5 -7l33 -64h-31q-5 12 -11 25.5t-12 26t-11 21.5h-22v-73h-26zM167 446h23q17 0 24 8.5t7 23.5q0 11 -4.5 18t-19.5 7h-30v-57z" />
    <glyph glyph-name="arrowright" unicode="&#x2192;" horiz-adv-x="800" 
d="M487 103l-55 55l136 127l-532 3v91l530 -2l-134 129l56 55l276 -228z" />
    <glyph glyph-name="ring" unicode="&#x2da;" horiz-adv-x="211" 
d="M105 541q-37 0 -61.5 24t-24.5 57q0 35 24.5 59t61.5 24t62 -24.5t25 -58.5q0 -33 -25.5 -57t-61.5 -24zM105 587q17 0 28 10t11 25q0 18 -11 28t-28 10q-16 0 -27 -10t-11 -28q0 -15 11 -25t27 -10z" />
    <glyph glyph-name="uni030A" unicode="&#x30a;" 
d="M105 541q-37 0 -61.5 24t-24.5 57q0 35 24.5 59t61.5 24t62 -24.5t25 -58.5q0 -33 -25.5 -57t-61.5 -24zM105 587q17 0 28 10t11 25q0 18 -11 28t-28 10q-16 0 -27 -10t-11 -28q0 -15 11 -25t27 -10z" />
    <glyph glyph-name="uni030A.case" 
d="M99 621q-37 0 -61.5 24t-24.5 57q0 35 24.5 59t61.5 24t62 -24.5t25 -58.5q0 -33 -25.5 -57t-61.5 -24zM99 667q17 0 28 10t11 25q0 18 -11 28t-28 10q-16 0 -27 -10t-11 -28q0 -15 11 -25t27 -10z" />
    <glyph glyph-name="s" unicode="s" horiz-adv-x="369" 
d="M182 -11q-50 0 -81.5 10.5t-48 30t-22.5 47.5t-6 62v35h114v-59q0 -18 2 -33t11 -23t30 -8q19 0 28 7.5t11 19.5t2 23v38q0 25 -9.5 40t-29 24.5t-46.5 20.5t-50 25.5t-37.5 38t-14.5 59.5v29q0 63 34 96t123 33q59 0 92 -15.5t46.5 -46.5t13.5 -80v-37h-110v57
q0 33 -9.5 46.5t-31.5 13.5q-25 0 -33.5 -13t-8.5 -32v-39q0 -25 13.5 -40t35.5 -23.5t47 -18.5q26 -10 48 -23.5t35.5 -36t13.5 -60.5v-30q0 -42 -13.5 -73t-48.5 -48t-100 -17z" />
    <glyph glyph-name="s.sc" horiz-adv-x="384" 
d="M186 -6q-88 0 -125 31.5t-37 105.5v30h119v-36q0 -37 11.5 -51.5t35.5 -14.5q22 0 35.5 13t13.5 52q0 31 -11.5 46t-35.5 24.5t-63 23.5q-33 13 -56 30.5t-33.5 44t-10.5 64.5q0 68 36 103.5t126 35.5q79 0 120.5 -29t41.5 -88v-54h-113v27q0 36 -10.5 50.5t-36.5 14.5
t-36.5 -13t-10.5 -44q0 -27 12.5 -42t33 -23t43.5 -15q49 -15 76 -32t38 -42.5t11 -65.5q0 -79 -49 -112.5t-125 -33.5z" />
    <glyph glyph-name="s_t" horiz-adv-x="661" 
d="M182 -11q-50 0 -81.5 10.5t-48 30t-22.5 47.5t-6 62v35h114v-59q0 -18 2 -33t11 -23t30 -8q19 0 28 7.5t11 19.5t2 23v38q0 25 -9.5 40t-29 24.5t-46.5 20.5t-50 25.5t-37.5 38t-14.5 59.5v29q0 63 34 96t123 33q59 0 92 -15.5t46.5 -46.5t13.5 -80v-37h-106v57
q0 33 -10 46.5t-33 13.5q-24 0 -34 -13t-10 -32v-39q0 -25 13.5 -40t35.5 -23.5t47 -18.5q26 -10 48 -23.5t35.5 -36t13.5 -60.5v-30q0 -42 -13.5 -73t-48.5 -48t-100 -17zM568 -3q-23 0 -46 4t-41 15.5t-29 33t-11 57.5v321h-46v49l56 18l17 91h87v-91h95v-67h-95v-301
q0 -21 8.5 -37.5t36.5 -16.5q13 0 29.5 1.5t20.5 1.5v-69q-4 0 -28.5 -5t-53.5 -5zM261 350v137q0 64 15 93.5t45 38t76 8.5q24 0 48 -5.5t45 -13.5t36.5 -14t21.5 -8l-73 -30q-3 1 -16 4.5t-29.5 6.5t-29.5 2q-20 0 -32.5 -11t-17 -45t-5.5 -102l-1 -58z" />
    <glyph glyph-name="sacute" unicode="&#x15b;" horiz-adv-x="369" 
d="M182 -11q-50 0 -81.5 10.5t-48 30t-22.5 47.5t-6 62v35h114v-59q0 -18 2 -33t11 -23t30 -8q19 0 28 7.5t11 19.5t2 23v38q0 25 -9.5 40t-29 24.5t-46.5 20.5t-50 25.5t-37.5 38t-14.5 59.5v29q0 63 34 96t123 33q59 0 92 -15.5t46.5 -46.5t13.5 -80v-37h-110v57
q0 33 -9.5 46.5t-31.5 13.5q-25 0 -33.5 -13t-8.5 -32v-39q0 -25 13.5 -40t35.5 -23.5t47 -18.5q26 -10 48 -23.5t35.5 -36t13.5 -60.5v-30q0 -42 -13.5 -73t-48.5 -48t-100 -17zM134 548l57 100h110l-95 -100h-72z" />
    <glyph glyph-name="scaron" unicode="&#x161;" horiz-adv-x="369" 
d="M182 -11q-50 0 -81.5 10.5t-48 30t-22.5 47.5t-6 62v35h114v-59q0 -18 2 -33t11 -23t30 -8q19 0 28 7.5t11 19.5t2 23v38q0 25 -9.5 40t-29 24.5t-46.5 20.5t-50 25.5t-37.5 38t-14.5 59.5v29q0 63 34 96t123 33q59 0 92 -15.5t46.5 -46.5t13.5 -80v-37h-110v57
q0 33 -9.5 46.5t-31.5 13.5q-25 0 -33.5 -13t-8.5 -32v-39q0 -25 13.5 -40t35.5 -23.5t47 -18.5q26 -10 48 -23.5t35.5 -36t13.5 -60.5v-30q0 -42 -13.5 -73t-48.5 -48t-100 -17zM151 546l-94 105h70l58 -56l58 56h68l-95 -105h-65z" />
    <glyph glyph-name="scedilla" unicode="&#x15f;" horiz-adv-x="369" 
d="M182 -11q-50 0 -81.5 10.5t-48 30t-22.5 47.5t-6 62v35h114v-59q0 -18 2 -33t11 -23t30 -8q19 0 28 7.5t11 19.5t2 23v38q0 25 -9.5 40t-29 24.5t-46.5 20.5t-50 25.5t-37.5 38t-14.5 59.5v29q0 63 34 96t123 33q59 0 92 -15.5t46.5 -46.5t13.5 -80v-37h-110v57
q0 33 -9.5 46.5t-31.5 13.5q-25 0 -33.5 -13t-8.5 -32v-39q0 -25 13.5 -40t35.5 -23.5t47 -18.5q26 -10 48 -23.5t35.5 -36t13.5 -60.5v-30q0 -42 -13.5 -73t-48.5 -48t-100 -17zM180 -161q-19 0 -35.5 7t-23.5 11l14 36q7 -5 19 -9t21 -4q16 0 24 7.5t8 19.5
q0 10 -6.5 15.5t-16.5 5.5q-6 0 -11 -2t-9 -5l-32 17l32 62h43l-26 -52l-7 3q7 4 16.5 6.5t21.5 2.5q27 0 42.5 -17t15.5 -37q0 -28 -23.5 -47.5t-66.5 -19.5z" />
    <glyph glyph-name="uni0219" unicode="&#x219;" horiz-adv-x="369" 
d="M182 -11q-50 0 -81.5 10.5t-48 30t-22.5 47.5t-6 62v35h114v-59q0 -18 2 -33t11 -23t30 -8q19 0 28 7.5t11 19.5t2 23v38q0 25 -9.5 40t-29 24.5t-46.5 20.5t-50 25.5t-37.5 38t-14.5 59.5v29q0 63 34 96t123 33q59 0 92 -15.5t46.5 -46.5t13.5 -80v-37h-110v57
q0 33 -9.5 46.5t-31.5 13.5q-25 0 -33.5 -13t-8.5 -32v-39q0 -25 13.5 -40t35.5 -23.5t47 -18.5q26 -10 48 -23.5t35.5 -36t13.5 -60.5v-30q0 -42 -13.5 -73t-48.5 -48t-100 -17zM130 -189q14 21 23 39t9 30q0 7 -7 12t-14 12.5t-7 20.5q0 14 14 26t35 12q23 0 37 -13
t14 -31q0 -14 -9 -34t-22 -39.5t-27 -34.5h-46z" />
    <glyph glyph-name="section" unicode="&#xa7;" horiz-adv-x="446" 
d="M197 -149q-53 0 -90 15t-56 53.5t-19 107.5v22h121v-42q0 -37 6 -57t16.5 -27.5t25.5 -7.5q23 0 36.5 17t13.5 64q0 38 -11 58t-35 33t-63 28q-37 15 -61 33t-36 44.5t-12 62.5q0 49 15.5 78t42 45t57.5 26l21 -39q-15 -13 -26 -33.5t-11 -54.5q0 -28 11 -45.5t34.5 -30
t58.5 -25.5q32 -13 56.5 -23t41 -24t25 -38.5t8.5 -67.5q0 -64 -21 -102t-59 -54t-90 -16zM292 28l-38 55q26 16 43 35.5t17 60.5q0 38 -21 58.5t-55.5 34t-74.5 29.5q-32 15 -53.5 30t-32 39.5t-10.5 63.5q0 58 15.5 94t52 52.5t99.5 16.5q80 0 122.5 -35t42.5 -103v-51
h-116v61q0 28 -10.5 43.5t-37.5 15.5t-37.5 -16.5t-10.5 -51.5q0 -40 12.5 -61t35 -31.5t51.5 -21.5q44 -16 72 -32t42 -44t14 -81q0 -48 -17 -80t-45 -51.5t-60 -29.5z" />
    <glyph glyph-name="semicolon" unicode=";" horiz-adv-x="236" 
d="M64 -147q15 33 26.5 60.5t11.5 49.5q0 19 -8.5 30t-17.5 21t-9 29q0 22 17 38.5t44 16.5q26 0 42 -17t16 -44t-11 -60t-27 -66t-34 -58h-50zM112 266q-24 0 -41.5 16.5t-17.5 40.5t17.5 40.5t41.5 16.5q25 0 43 -16.5t18 -40.5t-18 -40.5t-43 -16.5z" />
    <glyph glyph-name="seven" unicode="7" horiz-adv-x="327" 
d="M34 0l161 509h-187v82h302v-84l-160 -507h-116z" />
    <glyph glyph-name="seven.tf" horiz-adv-x="434" 
d="M96 0l161 509h-187v82h302v-84l-160 -507h-116z" />
    <glyph glyph-name="uni0448" unicode="&#x448;" horiz-adv-x="560" 
d="M33 0v495h114v-413h76v413h114v-413h76v413h114v-495h-494z" />
    <glyph glyph-name="uni0448.loclBGR" horiz-adv-x="560" 
d="M33 0v495h114v-413h76v413h114v-413h76v413h114v-495h-494z" />
    <glyph glyph-name="uni0449" unicode="&#x449;" horiz-adv-x="616" 
d="M502 -89v89h-469v495h114v-413h76v413h114v-413h76v413h114v-442h67v-142h-92z" />
    <glyph glyph-name="uni0449.loclBGR" horiz-adv-x="616" 
d="M502 -89v89h-469v495h114v-413h76v413h114v-413h76v413h114v-442h67v-142h-92z" />
    <glyph glyph-name="six" unicode="6" horiz-adv-x="395" 
d="M196 -11q-53 0 -90.5 18.5t-56 55t-18.5 88.5v302q0 72 45.5 107.5t120.5 35.5q79 0 121.5 -34t42.5 -107v-40h-116v53q0 31 -12 44t-35 13q-24 0 -37.5 -15.5t-13.5 -42.5v-135q16 23 43.5 33.5t56.5 10.5q51 0 85.5 -27t34.5 -79v-133q0 -45 -20.5 -78.5t-58 -51.5
t-92.5 -18zM199 58q22 0 37 14.5t15 46.5v132q0 29 -17.5 40.5t-36.5 11.5q-20 0 -34.5 -11.5t-15.5 -30.5v-142q0 -31 14.5 -45.5t37.5 -15.5z" />
    <glyph glyph-name="six.tf" horiz-adv-x="434" 
d="M225 -11q-53 0 -90.5 18.5t-56 55t-18.5 88.5v302q0 72 45.5 107.5t120.5 35.5q79 0 121.5 -34t42.5 -107v-40h-116v53q0 31 -12 44t-35 13q-24 0 -37.5 -15.5t-13.5 -42.5v-135q16 23 43.5 33.5t56.5 10.5q51 0 85.5 -27t34.5 -79v-133q0 -45 -20.5 -78.5t-58 -51.5
t-92.5 -18zM228 58q22 0 37 14.5t15 46.5v132q0 29 -17.5 40.5t-36.5 11.5q-20 0 -34.5 -11.5t-15.5 -30.5v-142q0 -31 14.5 -45.5t37.5 -15.5z" />
    <glyph glyph-name="slash" unicode="/" horiz-adv-x="493" 
d="M36 -45l342 675h81l-342 -675h-81z" />
    <glyph glyph-name="uni00AD" unicode="&#xad;" horiz-adv-x="280" 
d="M36 240v77h208v-77h-208z" />
    <glyph glyph-name="uni044C" unicode="&#x44c;" horiz-adv-x="380" 
d="M31 0v494h114v-154h88q34 0 59.5 -10.5t40 -36t14.5 -71.5v-60q0 -50 -8.5 -82t-24.5 -49t-40.5 -24t-57.5 -7h-185zM145 60h45q19 0 28 7t12 21t3 32v84q0 21 -2.5 35.5t-11.5 22t-29 7.5h-45v-209z" />
    <glyph glyph-name="uni044C.loclBGR" horiz-adv-x="380" 
d="M31 0v494h114v-154h88q34 0 59.5 -10.5t40 -36t14.5 -71.5v-60q0 -50 -8.5 -82t-24.5 -49t-40.5 -24t-57.5 -7h-185zM145 60h45q19 0 28 7t12 21t3 32v84q0 21 -2.5 35.5t-11.5 22t-29 7.5h-45v-209z" />
    <glyph glyph-name="uni2198" unicode="&#x2198;" horiz-adv-x="619" 
d="M494 0l-270 38l80 73l-41 141l-223 235l208 -87l226 -148l1 105l74 -88z" />
    <glyph glyph-name="uni2199" unicode="&#x2199;" horiz-adv-x="620" 
d="M36 1l33 359h78l-5 -187l378 374l64 -65l-376 -373l185 4v-78z" />
    <glyph glyph-name="space.tf" horiz-adv-x="434" 
 />
    <glyph glyph-name="sterling" unicode="&#xa3;" horiz-adv-x="417" 
d="M29 0v46q21 27 38.5 60.5t27.5 72t10 78.5h-73v70h65q-6 25 -15.5 50t-17 51.5t-7.5 53.5q0 52 39 83.5t122 31.5q75 0 119 -30t44 -98v-46h-101v47q0 24 -9 40.5t-24 25t-31 8.5q-24 0 -41 -14t-17 -42q0 -22 9.5 -47.5t19.5 -54t12 -59.5h72v-70h-74q-3 -39 -15 -75
t-27.5 -64t-29.5 -44q15 2 28 3t28 0t37 -2q40 -2 52 8t12 47v42h99v-53q0 -59 -16 -83.5t-43 -31.5q-30 -6 -65.5 -1.5t-73.5 11.5t-75 7q-33 0 -51.5 -7t-27.5 -14z" />
    <glyph glyph-name="summation" unicode="&#x2211;" horiz-adv-x="457" 
d="M36 -82v49l201 289l-191 269v60h374v-110h-224l152 -215l-155 -231h227v-111h-384z" />
    <glyph glyph-name="t" unicode="t" horiz-adv-x="277" 
d="M184 -3q-23 0 -46 4t-41 15.5t-29 33t-11 57.5v321h-47v57l57 10l16 91h88v-91h94v-67h-94v-301q0 -21 8 -37.5t36 -16.5q13 0 30 1.5t20 1.5v-69q-3 0 -27.5 -5t-53.5 -5z" />
    <glyph glyph-name="t.sc" horiz-adv-x="313" 
d="M99 0v416h-90v79h295v-79h-91v-416h-114z" />
    <glyph glyph-name="t_i" horiz-adv-x="488" 
d="M184 -3q-23 0 -46 4t-41 15.5t-29 33t-11 57.5v321h-47v49l57 18l16 91h88v-91h279v-495h-114v428h-165v-301q0 -21 8 -37.5t36 -16.5q13 0 30 1.5t20 1.5v-69q-3 0 -27.5 -5t-53.5 -5zM393 570q-24 0 -41 16.5t-17 39.5t17 39.5t41 16.5q25 0 42.5 -16.5t17.5 -39.5
t-17.5 -39.5t-42.5 -16.5z" />
    <glyph glyph-name="t_u" horiz-adv-x="662" 
d="M184 -3q-23 0 -46 4t-41 15.5t-29 33t-11 57.5v321h-47v57l57 10l16 91h88v-91h94v-67h-94v-301q0 -21 8 -37.5t36 -16.5q13 0 30 1.5t20 1.5v-69q-3 0 -27.5 -5t-53.5 -5zM424 -7q-48 0 -72 16.5t-32.5 45.5t-8.5 69v371h114v-364q0 -15 2.5 -28t11.5 -21t29 -8
q13 0 21.5 4t13.5 10t7 11v396h114v-495h-97l-9 60q-8 -28 -33 -47.5t-61 -19.5z" />
    <glyph glyph-name="tbar" unicode="&#x167;" horiz-adv-x="284" 
d="M14 309v48h209v-48h-209zM184 -3q-23 0 -46 4t-41 15.5t-29 33t-11 57.5v321h-47v57l57 10l16 91h88v-91h94v-67h-94v-301q0 -21 8 -37.5t36 -16.5q13 0 30 1.5t20 1.5v-69q-3 0 -27.5 -5t-53.5 -5z" />
    <glyph glyph-name="tcaron" unicode="&#x165;" horiz-adv-x="277" 
d="M184 -3q-23 0 -46 4t-41 15.5t-29 33t-11 57.5v321h-47v57l57 10l16 91h88v-91h94v-67h-94v-301q0 -21 8 -37.5t36 -16.5q13 0 30 1.5t20 1.5v-69q-3 0 -27.5 -5t-53.5 -5zM204 549l24 146h69l-52 -146h-41z" />
    <glyph glyph-name="uni0163" unicode="&#x163;" horiz-adv-x="277" 
d="M184 -3q-23 0 -46 4t-41 15.5t-29 33t-11 57.5v321h-47v57l57 10l16 91h88v-91h94v-67h-94v-301q0 -21 8 -37.5t36 -16.5q13 0 30 1.5t20 1.5v-69q-3 0 -27.5 -5t-53.5 -5zM96 -189q14 21 23 39t9 30q0 7 -7 12t-14 12.5t-7 20.5q0 14 14 26t35 12q23 0 37 -13t14 -31
q0 -14 -9 -34t-22 -39.5t-27 -34.5h-46z" />
    <glyph glyph-name="uni021B" unicode="&#x21b;" horiz-adv-x="277" 
d="M184 -3q-23 0 -46 4t-41 15.5t-29 33t-11 57.5v321h-47v57l57 10l16 91h88v-91h94v-67h-94v-301q0 -21 8 -37.5t36 -16.5q13 0 30 1.5t20 1.5v-69q-3 0 -27.5 -5t-53.5 -5zM96 -189q14 21 23 39t9 30q0 7 -7 12t-14 12.5t-7 20.5q0 14 14 26t35 12q23 0 37 -13t14 -31
q0 -14 -9 -34t-22 -39.5t-27 -34.5h-46z" />
    <glyph glyph-name="uni0442" unicode="&#x442;" horiz-adv-x="324" 
d="M104 0v413h-94v82h305v-82h-95v-413h-116z" />
    <glyph glyph-name="uni0442.loclBGR" horiz-adv-x="324" 
d="M104 0v413h-94v82h305v-82h-95v-413h-116z" />
    <glyph glyph-name="thorn" unicode="&#xfe;" horiz-adv-x="380" 
d="M37 -116v746h114v-173q14 22 32.5 34t53.5 12t60 -11t39 -36.5t14 -69.5v-241q0 -55 -12 -88.5t-37 -48t-64 -14.5q-34 0 -54.5 11.5t-32.5 33.5l1 -155h-114zM194 58q15 0 23 4t12.5 12t5.5 19t1 24v257q0 13 -1 23.5t-5.5 18t-13 11.5t-23.5 4t-24 -7t-13.5 -20
t-4.5 -28v-250q0 -14 1 -26t5.5 -21.5t13 -15t23.5 -5.5z" />
    <glyph glyph-name="three" unicode="3" horiz-adv-x="387" 
d="M191 -7q-58 0 -96 17.5t-56 50t-18 78.5v68h116v-37q0 -45 12 -69t40 -25q26 0 38.5 21t12.5 54v57q0 33 -22 47t-65 15h-47v64h48q20 0 36 5t27 14q12 10 17 21.5t5 24.5v41q0 29 -11 50t-39 21q-29 0 -39.5 -24t-10.5 -66v-24h-117v55q0 70 41.5 106t127.5 36
q90 0 129.5 -33t39.5 -99v-45q0 -51 -25.5 -82t-74.5 -37q49 -3 75 -34t26 -82v-43q0 -50 -17 -82.5t-54.5 -48t-98.5 -15.5z" />
    <glyph glyph-name="three.tf" horiz-adv-x="434" 
d="M204 -7q-58 0 -96 17.5t-56 50t-18 78.5v68h116v-37q0 -45 12 -69t40 -25q26 0 38.5 21t12.5 54v57q0 33 -22 47t-65 15h-47v64h48q20 0 36 5t27 14q12 10 17 21.5t5 24.5v41q0 29 -11 50t-39 21q-29 0 -39.5 -24t-10.5 -66v-24h-117v55q0 70 41.5 106t127.5 36
q90 0 129.5 -33t39.5 -99v-45q0 -51 -25.5 -82t-74.5 -37q49 -3 75 -34t26 -82v-43q0 -50 -17 -82.5t-54.5 -48t-98.5 -15.5z" />
    <glyph glyph-name="threequarters" unicode="&#xbe;" horiz-adv-x="605" 
d="M121 0l320 589h82l-322 -589h-80zM131 237q-53 0 -77.5 22t-24.5 64v41h71v-20q0 -29 8.5 -41.5t25.5 -12.5q15 0 23.5 11.5t8.5 33.5v28q0 19 -13 28.5t-38 9.5h-34v38h26q12 0 24 3t18 9q8 5 12.5 11.5t4.5 19.5v31q0 14 -8 24.5t-23 10.5q-18 0 -25 -14t-7 -37v-21
h-71v34q0 41 25 62t75 21q59 0 84.5 -19t25.5 -60v-27q0 -28 -16 -46.5t-49 -22.5q32 -2 49.5 -20t17.5 -47v-25q0 -49 -27 -69t-86 -20zM486 2v69h-128l-1 41l139 243h61v-235h37v-49h-37v-69h-71zM423 120h63v122z" />
    <glyph glyph-name="uni00B3" unicode="&#xb3;" horiz-adv-x="251" 
d="M123 236q-56 0 -82.5 23.5t-26.5 64.5v41h75v-21q0 -24 7 -39.5t26 -15.5q18 0 26 12.5t8 30.5v34q0 18 -13.5 26.5t-42.5 8.5h-31v40h31q30 0 43 10t13 27v25q0 16 -7.5 28.5t-25.5 12.5q-20 0 -26.5 -15.5t-6.5 -38.5v-13h-75v34q0 42 27 64t81 22q64 0 86.5 -21.5
t22.5 -57.5v-29q0 -29 -16 -48t-47 -23q31 -1 47.5 -19.5t16.5 -48.5v-26q0 -43 -23 -65.5t-87 -22.5z" />
    <glyph glyph-name="tilde" unicode="&#x2dc;" horiz-adv-x="258" 
d="M172 551q-15 0 -28 5.5t-27 13.5q-10 7 -21 12t-23 5q-13 0 -20.5 -9.5t-8.5 -25.5h-34q1 39 18.5 63.5t45.5 24.5q16 0 30 -5.5t26 -13.5q11 -6 21.5 -11t21.5 -5q14 0 21.5 9t9.5 23h37q0 -28 -10.5 -47.5t-26.5 -29t-32 -9.5z" />
    <glyph glyph-name="tildecomb" unicode="&#x303;" 
d="M172 551q-15 0 -28 5.5t-27 13.5q-10 7 -21 12t-23 5q-13 0 -20.5 -9.5t-8.5 -25.5h-34q1 39 18.5 63.5t45.5 24.5q16 0 30 -5.5t26 -13.5q11 -6 21.5 -11t21.5 -5q14 0 21.5 9t9.5 23h37q0 -28 -10.5 -47.5t-26.5 -29t-32 -9.5z" />
    <glyph glyph-name="tildecomb.case" 
d="M169 637q-15 0 -28 5.5t-27 13.5q-10 7 -21 12t-23 5q-13 0 -20.5 -9.5t-8.5 -25.5h-34q1 39 18.5 63.5t45.5 24.5q16 0 30 -5.5t26 -13.5q11 -6 21.5 -11t21.5 -5q14 0 21.5 9t9.5 23h37q0 -28 -10.5 -47.5t-26.5 -29t-32 -9.5z" />
    <glyph glyph-name="trademark" unicode="&#x2122;" horiz-adv-x="737" 
d="M241 306v285h75l59 -213l60 213h75v-285h-50v232l-65 -232h-40l-65 232v-232h-49zM102 306v247h-66v38h180v-38h-65v-247h-49z" />
    <glyph glyph-name="uni0446" unicode="&#x446;" horiz-adv-x="439" 
d="M325 -89v89h-292v495h114v-413h88v413h114v-442h67v-142h-91z" />
    <glyph glyph-name="uni0446.loclBGR" horiz-adv-x="439" 
d="M325 -89v89h-292v495h114v-413h88v413h114v-442h67v-142h-91z" />
    <glyph glyph-name="uni045B" unicode="&#x45b;" horiz-adv-x="433" 
d="M81 0v494h-59v61h59v75h116v-75h122v-61h-122v-123q10 19 30.5 33t58.5 14q32 0 58 -10t41 -35.5t15 -73.5v-299h-114v289q0 18 -3 31t-12.5 20.5t-27.5 7.5q-16 0 -25 -6t-12.5 -15t-5 -18.5t-3.5 -17.5v-291h-116z" />
    <glyph glyph-name="two" unicode="2" horiz-adv-x="388" 
d="M25 0v60v60q0 54 13.5 85.5t41 52t70.5 41.5q35 17 55 34t29.5 40.5t9.5 60.5q1 37 -10 57t-39 20q-27 0 -38.5 -23.5t-11.5 -69.5v-41h-116v74q0 72 42.5 107.5t125.5 35.5q63 0 100 -17t52.5 -53t15.5 -95q0 -70 -23 -113t-78 -73q-24 -12 -45 -24t-36.5 -26t-22.5 -36
q-6 -13 -10 -28.5t-4 -33.5h221v-95h-342z" />
    <glyph glyph-name="two.tf" horiz-adv-x="434" 
d="M41 0v60v60q0 54 13.5 85.5t41 52t70.5 41.5q35 17 55 34t29.5 40.5t9.5 60.5q1 37 -10 57t-39 20q-27 0 -38.5 -23.5t-11.5 -69.5v-41h-116v74q0 72 42.5 107.5t125.5 35.5q63 0 100 -17t52.5 -53t15.5 -95q0 -70 -23 -113t-78 -73q-24 -12 -45 -24t-36.5 -26t-22.5 -36
q-6 -13 -10 -28.5t-4 -33.5h221v-95h-342z" />
    <glyph glyph-name="uni00B2" unicode="&#xb2;" horiz-adv-x="251" 
d="M26 237v50q0 49 13 75.5t58 47.5q37 18 49.5 35t12.5 49q0 23 -6.5 36t-24.5 13q-16 0 -24.5 -11t-8.5 -37v-39h-70v28q0 61 25 85.5t80 24.5q44 0 66.5 -12t30 -33t7.5 -46q0 -38 -9.5 -61t-26.5 -37t-39 -27q-35 -20 -48 -31.5t-17 -23.5q-3 -7 -3.5 -14t-0.5 -13h143
v-59h-207z" />
    <glyph glyph-name="u" unicode="u" horiz-adv-x="385" 
d="M147 -7q-48 0 -72 16.5t-32.5 45.5t-8.5 69v371h114v-364q0 -15 2.5 -28t11.5 -21t29 -8q13 0 21.5 4t13.5 10t7 11v396h114v-495h-97l-9 60q-8 -28 -33 -47.5t-61 -19.5z" />
    <glyph glyph-name="uni0443" unicode="&#x443;" horiz-adv-x="349" 
d="M100 -117q-28 0 -54 4.5t-41 8.5v60q6 -2 17.5 -4t24.5 -2t29.5 4t22.5 26q2 9 4.5 19t-0.5 24l-101 472h118l60 -386h1l60 386h108l-96 -452q-17 -85 -54 -122.5t-99 -37.5z" />
    <glyph glyph-name="u.sc" horiz-adv-x="398" 
d="M199 -10q-52 0 -88 10t-54 40.5t-18 88.5v366h114v-399q0 -20 13 -28t33 -8q21 0 34 8t13 28v399h113v-365q0 -59 -18 -89t-53.5 -40.5t-88.5 -10.5z" />
    <glyph glyph-name="uacute" unicode="&#xfa;" horiz-adv-x="385" 
d="M147 -7q-48 0 -72 16.5t-32.5 45.5t-8.5 69v371h114v-364q0 -15 2.5 -28t11.5 -21t29 -8q13 0 21.5 4t13.5 10t7 11v396h114v-495h-97l-9 60q-8 -28 -33 -47.5t-61 -19.5zM142 548l57 100h110l-95 -100h-72z" />
    <glyph glyph-name="uni01D4" unicode="&#x1d4;" horiz-adv-x="385" 
d="M147 -7q-48 0 -72 16.5t-32.5 45.5t-8.5 69v371h114v-364q0 -15 2.5 -28t11.5 -21t29 -8q13 0 21.5 4t13.5 10t7 11v396h114v-495h-97l-9 60q-8 -28 -33 -47.5t-61 -19.5zM159 546l-94 105h70l58 -56l58 56h68l-95 -105h-65z" />
    <glyph glyph-name="ucircumflex" unicode="&#xfb;" horiz-adv-x="385" 
d="M147 -7q-48 0 -72 16.5t-32.5 45.5t-8.5 69v371h114v-364q0 -15 2.5 -28t11.5 -21t29 -8q13 0 21.5 4t13.5 10t7 11v396h114v-495h-97l-9 60q-8 -28 -33 -47.5t-61 -19.5zM65 546l95 105h64l95 -105h-68l-58 56l-58 -56h-70z" />
    <glyph glyph-name="udieresis" unicode="&#xfc;" horiz-adv-x="385" 
d="M147 -7q-48 0 -72 16.5t-32.5 45.5t-8.5 69v371h114v-364q0 -15 2.5 -28t11.5 -21t29 -8q13 0 21.5 4t13.5 10t7 11v396h114v-495h-97l-9 60q-8 -28 -33 -47.5t-61 -19.5zM133 549q-21 0 -34.5 13t-13.5 33q0 19 13.5 31.5t34.5 12.5q20 0 33 -12.5t13 -31.5
q0 -20 -13 -33t-33 -13zM253 549q-20 0 -34 13t-14 33q0 19 14 31.5t34 12.5t33.5 -12.5t13.5 -31.5q0 -20 -13.5 -33t-33.5 -13z" />
    <glyph glyph-name="uni01D8" unicode="&#x1d8;" horiz-adv-x="385" 
d="M147 -7q-48 0 -72 16.5t-32.5 45.5t-8.5 69v371h114v-364q0 -15 2.5 -28t11.5 -21t29 -8q13 0 21.5 4t13.5 10t7 11v396h114v-495h-97l-9 60q-8 -28 -33 -47.5t-61 -19.5zM133 549q-21 0 -34.5 13t-13.5 33q0 19 13.5 31.5t34.5 12.5q20 0 33 -12.5t13 -31.5
q0 -20 -13 -33t-33 -13zM253 549q-20 0 -34 13t-14 33q0 19 14 31.5t34 12.5t33.5 -12.5t13.5 -31.5q0 -20 -13.5 -33t-33.5 -13zM142 677l57 100h110l-95 -100h-72z" />
    <glyph glyph-name="uni01DA" unicode="&#x1da;" horiz-adv-x="385" 
d="M147 -7q-48 0 -72 16.5t-32.5 45.5t-8.5 69v371h114v-364q0 -15 2.5 -28t11.5 -21t29 -8q13 0 21.5 4t13.5 10t7 11v396h114v-495h-97l-9 60q-8 -28 -33 -47.5t-61 -19.5zM133 549q-21 0 -34.5 13t-13.5 33q0 19 13.5 31.5t34.5 12.5q20 0 33 -12.5t13 -31.5
q0 -20 -13 -33t-33 -13zM253 549q-20 0 -34 13t-14 33q0 19 14 31.5t34 12.5t33.5 -12.5t13.5 -31.5q0 -20 -13.5 -33t-33.5 -13zM159 675l-94 105h70l58 -56l58 56h68l-95 -105h-65z" />
    <glyph glyph-name="uni01DC" unicode="&#x1dc;" horiz-adv-x="385" 
d="M147 -7q-48 0 -72 16.5t-32.5 45.5t-8.5 69v371h114v-364q0 -15 2.5 -28t11.5 -21t29 -8q13 0 21.5 4t13.5 10t7 11v396h114v-495h-97l-9 60q-8 -28 -33 -47.5t-61 -19.5zM133 549q-21 0 -34.5 13t-13.5 33q0 19 13.5 31.5t34.5 12.5q20 0 33 -12.5t13 -31.5
q0 -20 -13 -33t-33 -13zM253 549q-20 0 -34 13t-14 33q0 19 14 31.5t34 12.5t33.5 -12.5t13.5 -31.5q0 -20 -13.5 -33t-33.5 -13zM177 677l-96 100h110l57 -100h-71z" />
    <glyph glyph-name="uni01D6" unicode="&#x1d6;" horiz-adv-x="385" 
d="M147 -7q-48 0 -72 16.5t-32.5 45.5t-8.5 69v371h114v-364q0 -15 2.5 -28t11.5 -21t29 -8q13 0 21.5 4t13.5 10t7 11v396h114v-495h-97l-9 60q-8 -28 -33 -47.5t-61 -19.5zM133 549q-21 0 -34.5 13t-13.5 33q0 19 13.5 31.5t34.5 12.5q20 0 33 -12.5t13 -31.5
q0 -20 -13 -33t-33 -13zM253 549q-20 0 -34 13t-14 33q0 19 14 31.5t34 12.5t33.5 -12.5t13.5 -31.5q0 -20 -13.5 -33t-33.5 -13zM90 689v58h206v-58h-206z" />
    <glyph glyph-name="uni1EE5" unicode="&#x1ee5;" horiz-adv-x="385" 
d="M147 -7q-48 0 -72 16.5t-32.5 45.5t-8.5 69v371h114v-364q0 -15 2.5 -28t11.5 -21t29 -8q13 0 21.5 4t13.5 10t7 11v396h114v-495h-97l-9 60q-8 -28 -33 -47.5t-61 -19.5zM192 -130q-21 0 -34.5 14t-13.5 32q0 20 13.5 33.5t34.5 13.5q19 0 33.5 -13.5t14.5 -33.5
q0 -18 -14.5 -32t-33.5 -14z" />
    <glyph glyph-name="ugrave" unicode="&#xf9;" horiz-adv-x="385" 
d="M147 -7q-48 0 -72 16.5t-32.5 45.5t-8.5 69v371h114v-364q0 -15 2.5 -28t11.5 -21t29 -8q13 0 21.5 4t13.5 10t7 11v396h114v-495h-97l-9 60q-8 -28 -33 -47.5t-61 -19.5zM177 548l-96 100h110l57 -100h-71z" />
    <glyph glyph-name="uni1EE7" unicode="&#x1ee7;" horiz-adv-x="385" 
d="M147 -7q-48 0 -72 16.5t-32.5 45.5t-8.5 69v371h114v-364q0 -15 2.5 -28t11.5 -21t29 -8q13 0 21.5 4t13.5 10t7 11v396h114v-495h-97l-9 60q-8 -28 -33 -47.5t-61 -19.5zM161 549v12q0 15 10.5 22.5t21.5 14t11 18.5v6q0 8 -4 15t-15 7q-16 0 -18 -21l-51 8q3 27 21 41
t53 14q39 0 59 -11.5t20 -50.5v-4q0 -22 -12 -30.5t-23.5 -13.5t-11.5 -17v-10h-61z" />
    <glyph glyph-name="uhorn" unicode="&#x1b0;" horiz-adv-x="385" 
d="M147 -7q-48 0 -72 16.5t-32.5 45.5t-8.5 69v371h114v-364q0 -15 2.5 -28t11.5 -21t29 -8q13 0 21.5 4t13.5 10t7 11v396h114v-495h-97l-9 60q-8 -28 -33 -47.5t-61 -19.5zM261 444l-1 50h17q45 0 45 47v18h75v-17q0 -53 -34 -75.5t-102 -22.5z" />
    <glyph glyph-name="uni1EE9" unicode="&#x1ee9;" horiz-adv-x="385" 
d="M147 -7q-48 0 -72 16.5t-32.5 45.5t-8.5 69v371h114v-364q0 -15 2.5 -28t11.5 -21t29 -8q13 0 21.5 4t13.5 10t7 11v396h114v-495h-97l-9 60q-8 -28 -33 -47.5t-61 -19.5zM261 444l-1 50h17q45 0 45 47v18h75v-17q0 -53 -34 -75.5t-102 -22.5zM142 548l57 100h110
l-95 -100h-72z" />
    <glyph glyph-name="uni1EF1" unicode="&#x1ef1;" horiz-adv-x="385" 
d="M147 -7q-48 0 -72 16.5t-32.5 45.5t-8.5 69v371h114v-364q0 -15 2.5 -28t11.5 -21t29 -8q13 0 21.5 4t13.5 10t7 11v396h114v-495h-97l-9 60q-8 -28 -33 -47.5t-61 -19.5zM261 444l-1 50h17q45 0 45 47v18h75v-17q0 -53 -34 -75.5t-102 -22.5zM192 -130q-21 0 -34.5 14
t-13.5 32q0 20 13.5 33.5t34.5 13.5q19 0 33.5 -13.5t14.5 -33.5q0 -18 -14.5 -32t-33.5 -14z" />
    <glyph glyph-name="uni1EEB" unicode="&#x1eeb;" horiz-adv-x="385" 
d="M147 -7q-48 0 -72 16.5t-32.5 45.5t-8.5 69v371h114v-364q0 -15 2.5 -28t11.5 -21t29 -8q13 0 21.5 4t13.5 10t7 11v396h114v-495h-97l-9 60q-8 -28 -33 -47.5t-61 -19.5zM261 444l-1 50h17q45 0 45 47v18h75v-17q0 -53 -34 -75.5t-102 -22.5zM177 548l-96 100h110
l57 -100h-71z" />
    <glyph glyph-name="uni1EED" unicode="&#x1eed;" horiz-adv-x="385" 
d="M147 -7q-48 0 -72 16.5t-32.5 45.5t-8.5 69v371h114v-364q0 -15 2.5 -28t11.5 -21t29 -8q13 0 21.5 4t13.5 10t7 11v396h114v-495h-97l-9 60q-8 -28 -33 -47.5t-61 -19.5zM261 444l-1 50h17q45 0 45 47v18h75v-17q0 -53 -34 -75.5t-102 -22.5zM161 549v12q0 15 10.5 22.5
t21.5 14t11 18.5v6q0 8 -4 15t-15 7q-16 0 -18 -21l-51 8q3 27 21 41t53 14q39 0 59 -11.5t20 -50.5v-4q0 -22 -12 -30.5t-23.5 -13.5t-11.5 -17v-10h-61z" />
    </font>
</defs>
</svg>
