<?xml version="1.0" standalone="no"?>
<!DOCTYPE svg PUBLIC "-//W3C//DTD SVG 1.1//EN" "http://www.w3.org/Graphics/SVG/1.1/DTD/svg11.dtd" >
<svg xmlns="http://www.w3.org/2000/svg" xmlns:xlink="http://www.w3.org/1999/xlink" version="1.1">
<metadata>
Created by FontForge 20190801 at Mon Mar 25 13:06:07 2024
 By root
\(c\) 2023 MacPaw Inc. \(Authors: Alfabravo + MacPaw\)
</metadata>
<defs>
<font id="FixelText-Bold" horiz-adv-x="599" >
  <font-face 
    font-family="Fixel Text"
    font-weight="700"
    font-stretch="semi-condensed"
    units-per-em="1000"
    panose-1="0 0 0 0 0 0 0 0 0 0"
    ascent="800"
    descent="-200"
    x-height="520"
    cap-height="700"
    bbox="-1400 -410 1350 1045"
    underline-thickness="50"
    underline-position="-125"
    stemh="69"
    stemv="74"
    unicode-range="U+000D-FFE3"
  />
<missing-glyph horiz-adv-x="713" 
d="M198 619c-18 -1 -32 9 -33 24c-2 16 10 28 28 30c21 2 41 -9 43 -23c1 -14 -17 -29 -38 -31zM121 427c-26 -2 -53 14 -54 32c-1 19 23 36 21 69c-3 33 -32 45 -33 64c-1 17 21 37 44 39c22 2 49 -14 66 -40c20 -31 41 -28 44 -54c2 -26 -20 -28 -36 -65
c-12 -28 -30 -43 -52 -45zM253 551c-23 -2 -40 10 -41 28c-2 18 13 33 36 35c25 2 50 -11 52 -27c1 -17 -21 -33 -47 -36zM260 470c-22 -2 -39 9 -40 28c-2 18 12 32 35 34c25 3 49 -10 50 -27c2 -16 -20 -33 -45 -35zM217 401c-18 -1 -32 9 -33 25c-2 15 10 27 29 29
c21 2 41 -10 42 -24s-17 -28 -38 -30zM563 245c-18 2 -30 14 -29 29c1 16 15 26 33 25c21 -2 39 -16 38 -30s-21 -26 -42 -24zM450 70c-24 2 -46 21 -45 38c1 19 30 32 33 65s-23 50 -21 69c2 17 27 32 53 31c23 -1 41 -16 54 -44c17 -37 37 -39 35 -65s-22 -26 -43 -55
c-18 -25 -44 -41 -66 -39zM605 169c-23 2 -37 16 -36 34c2 19 19 30 42 28c25 -2 48 -19 46 -36c-1 -16 -26 -29 -52 -26zM598 87c-22 2 -37 16 -35 35c2 18 18 30 40 28c25 -3 47 -19 46 -36c-2 -16 -26 -29 -51 -27zM544 27c-19 2 -30 14 -29 30s15 25 34 24
c21 -2 39 -17 37 -31c-1 -14 -22 -25 -42 -23z" />
    <glyph glyph-name="f_f" unicode="ff" horiz-adv-x="679" 
d="M84 0v403h-65v93c18 6 44 12 65 15v28c0 113 55 179 153 179c36 0 88 -8 119 -21v-111c-25 11 -53 17 -75 17c-39 0 -57 -20 -57 -71v-19h166v26c0 113 56 179 154 179c36 0 88 -8 118 -21v-111c-25 11 -52 17 -74 17c-39 0 -57 -20 -57 -71v-19h127v-110h-119v-403h-149
v403h-157v-403h-149z" />
    <glyph glyph-name="f_f_i" unicode="ffi" horiz-adv-x="920" 
d="M771 590c-50 0 -84 30 -84 76c0 45 34 77 84 77c51 0 86 -32 86 -77c0 -46 -35 -76 -86 -76zM698 0v403h-159v-403h-149v403h-157v-403h-149v403h-65v93c18 6 44 12 65 15v28c0 113 55 179 153 179c36 0 88 -8 119 -21v-111c-25 11 -53 17 -75 17c-39 0 -57 -20 -57 -71
v-19h166v26c0 113 56 179 154 179c36 0 85 -8 115 -21v-111c-25 11 -49 17 -71 17c-39 0 -57 -20 -57 -71v-19h316v-513h-149z" />
    <glyph glyph-name="f_f_l" unicode="ffl" horiz-adv-x="905" 
d="M84 0v403h-65v93c18 6 44 12 65 15v28c0 113 55 179 153 179c36 0 88 -8 119 -21v-111c-25 11 -53 17 -75 17c-39 0 -57 -20 -57 -71v-19h166v26c0 111 61 179 177 179c100 0 202 -40 275 -73v-645h-149v574c-25 13 -65 28 -103 28c-40 0 -59 -19 -59 -73v-16h115v-110
h-107v-403h-149v403h-157v-403h-149z" />
    <glyph glyph-name="fi" unicode="fi" horiz-adv-x="615" 
d="M466 590c-50 0 -84 30 -84 76c0 45 34 77 84 77c51 0 87 -32 87 -77c0 -46 -36 -76 -87 -76zM84 0v403h-65v93c18 6 44 12 65 15v28c0 113 55 179 153 179c36 0 88 -8 119 -21v-111c-25 11 -53 17 -75 17c-40 0 -57 -21 -57 -75l1 -15h297v-5h20v-508h-149v403h-160v-403
h-149z" />
    <glyph glyph-name="fl" unicode="fl" horiz-adv-x="610" 
d="M398 0v574c-26 13 -65 28 -103 28c-40 0 -59 -19 -59 -73v-16h115v-110h-107v-403h-149v403h-65v93c19 6 45 12 65 15v28c0 111 61 179 176 179c101 0 203 -40 276 -73v-645h-149z" />
    <glyph glyph-name="uniE01A" unicode="MACPAWLOGO" horiz-adv-x="728" 
d="M322 654c-6 -4 -11 -5 -16 -5c-7 0 -14 3 -18 10c-7 12 -2 25 12 33c6 4 13 5 20 5c8 0 16 -2 19 -8c6 -10 -3 -27 -17 -35zM386 620c-7 -4 -13 -5 -19 -5c-9 0 -16 4 -21 12c-8 13 -2 28 14 37c8 5 16 7 24 7c9 0 17 -3 21 -10c7 -12 -3 -31 -19 -41zM364 0
c-180 0 -327 146 -327 327c0 132 79 251 202 302c11 5 23 7 34 7c36 0 70 -21 84 -56s6 -73 -19 -98c-10 -10 -23 -17 -35 -23l-11 -5c-46 -24 -74 -76 -74 -127c0 -81 65 -146 146 -146c70 0 129 50 143 116c2 10 2 20 3 30c4 50 36 90 90 90c50 0 91 -40 91 -90
c0 -181 -147 -327 -327 -327zM420 561c-7 -4 -13 -6 -19 -6c-9 0 -16 4 -21 12c-8 14 -2 29 14 38c7 4 16 6 23 6c10 0 18 -3 22 -9c7 -12 -3 -32 -19 -41zM414 495c-6 -4 -12 -5 -17 -5c-7 0 -14 3 -18 10c-6 12 -2 25 13 33c6 4 13 5 20 5c8 0 15 -2 18 -8
c6 -10 -2 -27 -16 -35z" />
    <glyph glyph-name="uniE000" unicode="&#x457;&#x457;" horiz-adv-x="549" 
d="M65 590c-42 0 -71 27 -71 69s29 70 71 70c39 0 70 -28 70 -70s-31 -69 -70 -69zM273 590c-40 0 -69 28 -69 69s29 70 69 70c43 0 72 -29 72 -70s-29 -69 -72 -69zM484 590c-42 0 -70 27 -70 69s28 70 70 70s71 -28 71 -70s-29 -69 -71 -69zM63 0v520h149v-520h-149z
M337 0v520h149v-520h-149z" />
    <glyph glyph-name="uniF460" unicode="&#x410;`" horiz-adv-x="650" 
d="M454 895l-81 -152h-113l55 152h139zM-7 0l233 700h200l231 -700h-167l-45 146h-241l-44 -146h-167zM237 271h176l-82 267h-11z" />
    <glyph glyph-name="uniF461" unicode="&#x415;`" horiz-adv-x="559" 
d="M420 895l-81 -152h-113l55 152h139zM74 0v700h423v-136h-267v-148h247v-129h-247v-151h277v-136h-433z" />
    <glyph glyph-name="uniF462" unicode="&#x418;`" horiz-adv-x="725" 
d="M492 895l-81 -152h-113l55 152h139zM74 0v700h153v-463h6l244 463h175v-700h-155v497h-7l-262 -497h-154z" />
    <glyph glyph-name="uniF463" unicode="&#x41e;`" horiz-adv-x="761" 
d="M509 895l-81 -152h-113l55 152h139zM37 340v20c0 213 136 354 337 354h13c198 0 337 -143 337 -354v-20c0 -211 -139 -354 -337 -354h-13c-198 0 -337 144 -337 354zM199 340c0 -134 73 -218 176 -218h11c104 0 176 84 176 218v20c0 133 -72 217 -176 217h-11
c-103 0 -176 -84 -176 -217v-20z" />
    <glyph glyph-name="uniF464" unicode="&#x423;`" 
d="M441 895l-81 -152h-113l55 152h139zM221 -13c-39 0 -80 7 -118 22v131c23 -12 56 -23 85 -23c27 0 49 10 60 30l-244 553h170l150 -390h11l109 390h156l-194 -560c-33 -96 -89 -153 -185 -153z" />
    <glyph glyph-name="uniF465" unicode="&#x42b;`" horiz-adv-x="868" 
d="M563 895l-81 -152h-113l55 152h139zM74 0v700h156v-234h98c150 0 249 -85 249 -227v-8c0 -140 -98 -231 -248 -231h-255zM637 0v700h157v-700h-157zM226 132h73c78 0 122 36 122 102v7c0 67 -42 100 -122 100h-73v-209z" />
    <glyph glyph-name="uniF466" unicode="&#x42d;`" horiz-adv-x="682" 
d="M431 895l-81 -152h-113l55 152h139zM304 -12h-7c-116 0 -214 53 -272 149l113 86c36 -60 91 -98 160 -98h11c96 0 162 66 177 168h-261v121h260c-18 98 -83 162 -174 162h-12c-69 0 -122 -37 -157 -100l-115 87c59 95 159 149 273 149h6c196 0 339 -147 339 -353v-19
c0 -208 -141 -352 -341 -352z" />
    <glyph glyph-name="uniF467" unicode="&#x42e;`" horiz-adv-x="1023" 
d="M659 895l-81 -152h-113l55 152h139zM641 -13c-183 0 -310 119 -329 303h-82v-290h-156v700h156v-280h83c23 178 148 294 328 294h13c198 0 332 -143 332 -354v-20c0 -210 -134 -353 -332 -353h-13zM470 360v-20c0 -134 67 -217 172 -217h10c106 0 172 83 172 217v20
c0 134 -66 217 -172 217h-10c-105 0 -172 -83 -172 -217z" />
    <glyph glyph-name="uniF468" unicode="&#x42f;`" horiz-adv-x="657" 
d="M460 895l-81 -152h-113l55 152h139zM25 0l154 268c-79 37 -129 106 -129 196v16c0 138 105 220 266 220h267v-700h-157v238h-103l-128 -238h-170zM432 356v214h-101c-78 0 -123 -35 -123 -97v-10c0 -62 44 -107 124 -107h100z" />
    <glyph glyph-name="uniF469" unicode="&#x401;`" horiz-adv-x="559" 
d="M427 1045l-81 -152h-113l55 152h139zM185 741c-44 0 -74 28 -74 69s30 69 74 69c43 0 76 -28 76 -69s-33 -69 -76 -69zM394 741c-44 0 -74 28 -74 69s30 69 74 69s76 -28 76 -69s-32 -69 -76 -69zM74 0v700h423v-136h-267v-148h247v-129h-247v-151h277v-136h-433z" />
    <glyph glyph-name="uniF46A" unicode="&#x430;`" horiz-adv-x="563" 
d="M328 571h-111l57 164h130zM205 -11c-101 0 -173 61 -173 153v12c0 111 94 168 291 168h39v15c0 48 -30 79 -88 79h-5c-48 0 -102 -16 -156 -51l-56 102c62 40 143 64 223 64h9c132 0 213 -74 213 -199v-213c0 -42 7 -80 18 -119h-139c-6 16 -11 37 -14 59
c-38 -44 -98 -70 -162 -70zM243 102c44 0 88 20 119 55v78h-30c-108 0 -159 -24 -159 -72v-5c0 -33 28 -56 70 -56z" />
    <glyph glyph-name="uniF46B" unicode="&#x435;`" horiz-adv-x="564" 
d="M342 571h-111l57 164h130zM292 -11c-157 0 -262 104 -262 260v19c0 154 106 262 256 262h13c140 0 238 -99 238 -237v-74h-362c7 -69 56 -111 127 -111h9c58 0 105 28 136 62l74 -93c-50 -51 -133 -88 -213 -88h-16zM179 310h217v3c-2 68 -42 108 -99 108h-10
c-58 0 -97 -41 -108 -111z" />
    <glyph glyph-name="uniF46C" unicode="&#x438;`" horiz-adv-x="614" 
d="M356 571h-111l57 164h130zM63 0v520h145v-303h8l169 303h166v-520h-145v342h-7l-193 -342h-143z" />
    <glyph glyph-name="uniF46D" unicode="&#x43e;`" 
d="M348 571h-111l57 164h130zM294 -11c-156 0 -264 105 -264 256v30c0 151 108 256 264 256h10c156 0 264 -105 264 -256v-30c0 -151 -108 -256 -264 -256h-10zM294 100h10c66 0 110 60 110 151v23c0 89 -44 146 -110 146h-10c-66 0 -110 -57 -110 -146v-23
c0 -91 44 -151 110 -151z" />
    <glyph glyph-name="uniF46E" unicode="&#x443;`" horiz-adv-x="547" 
d="M328 571h-111l57 164h130zM155 -204c-33 0 -72 6 -102 20v126c21 -14 48 -23 76 -23c36 0 68 20 88 60l-213 541h155l132 -382h7l99 382h150l-175 -548c-36 -110 -106 -176 -217 -176z" />
    <glyph glyph-name="uniF46F" unicode="&#x44b;`" horiz-adv-x="756" 
d="M427 571h-111l57 164h130zM63 0v520h149v-159h96c110 0 184 -73 184 -172v-17c0 -99 -74 -172 -188 -172h-241zM550 0v520h143v-520h-143zM205 109h76c43 0 68 29 68 68v11c0 39 -26 68 -68 68h-76v-147z" />
    <glyph glyph-name="uniF470" unicode="&#x44d;`" horiz-adv-x="539" 
d="M296 571h-111l57 164h130zM252 -10h-9c-95 0 -173 39 -227 113l104 80c31 -51 69 -76 116 -76h10c61 0 102 40 113 108h-178v91h178c-10 71 -50 110 -111 110h-7c-49 0 -86 -23 -117 -76l-105 75c51 74 129 115 223 115h8c148 0 258 -108 258 -255v-28
c0 -149 -101 -257 -256 -257z" />
    <glyph glyph-name="uniF471" unicode="&#x44e;`" horiz-adv-x="821" 
d="M475 571h-111l57 164h130zM525 -11c-141 0 -239 90 -252 224h-62v-213h-148v520h148v-192h64c21 123 117 203 250 203h10c153 0 255 -103 255 -256v-30c0 -153 -102 -256 -255 -256h-10zM526 100h8c61 0 101 60 101 151v23c0 89 -40 146 -101 146h-8
c-61 0 -101 -57 -101 -146v-23c0 -91 40 -151 101 -151z" />
    <glyph glyph-name="uniF472" unicode="&#x44f;`" horiz-adv-x="541" 
d="M327 571h-111l57 164h130zM22 0l109 191c-55 28 -92 77 -92 143v18c0 100 76 168 183 168h256v-520h-139v167h-75l-88 -167h-154zM255 269h86v143h-86c-44 0 -75 -24 -75 -64v-11c0 -39 32 -68 75 -68z" />
    <glyph glyph-name="uniF473" unicode="&#x451;`" horiz-adv-x="564" 
d="M300 579h-92l57 164h111zM135 591c-39 0 -67 28 -67 69s28 69 67 69c37 0 67 -28 67 -69s-30 -69 -67 -69zM441 591c-40 0 -66 28 -66 69s26 69 66 69c38 0 67 -28 67 -69s-29 -69 -67 -69zM292 -11c-157 0 -262 104 -262 260v19c0 154 106 262 256 262h13
c140 0 238 -99 238 -237v-74h-362c7 -69 56 -111 127 -111h9c58 0 105 28 136 62l74 -93c-50 -51 -133 -88 -213 -88h-16zM179 310h217v3c-2 68 -42 108 -99 108h-10c-58 0 -97 -41 -108 -111z" />
    <glyph glyph-name="uniF45D" unicode="&#x404;`" horiz-adv-x="683" 
d="M507 895l-81 -152h-113l55 152h139zM378 -12c-200 0 -341 144 -341 352v19c0 206 143 353 339 353h6c114 0 215 -54 274 -149l-115 -87c-35 61 -87 99 -156 99h-12c-90 0 -156 -63 -172 -161h256v-121h-258c14 -101 81 -167 177 -167h11c68 0 123 37 158 97l113 -86
c-58 -96 -157 -149 -273 -149h-7z" />
    <glyph glyph-name="uniF45E" unicode="&#x406;`" horiz-adv-x="303" 
d="M281 895l-81 -152h-113l55 152h139zM74 0v700h156v-700h-156z" />
    <glyph glyph-name="uniF45F" unicode="&#x407;`" horiz-adv-x="303" 
d="M286 1045l-81 -152h-113l55 152h139zM62 738c-40 0 -67 28 -67 70s27 71 67 71s71 -29 71 -71s-31 -70 -71 -70zM240 738c-41 0 -68 28 -68 70s27 71 68 71c40 0 70 -29 70 -71s-30 -70 -70 -70zM74 0v700h156v-700h-156z" />
    <glyph glyph-name="uniF475" unicode="&#x454;`" horiz-adv-x="540" 
d="M343 571h-111l57 164h130zM293 -10c-155 0 -263 108 -263 257v28c0 147 111 255 259 255h9c93 0 171 -41 223 -115l-105 -75c-31 53 -68 76 -116 76h-7c-62 0 -102 -40 -111 -110h177v-91h-176c10 -67 52 -108 114 -108h10c46 0 84 25 113 76l104 -80
c-52 -74 -127 -113 -222 -113h-9z" />
    <glyph glyph-name="uniF476" unicode="&#x456;`" horiz-adv-x="275" 
d="M186 571h-111l57 164h130zM63 0v520h149v-520h-149z" />
    <glyph glyph-name="uniF477" unicode="&#x457;`" horiz-adv-x="275" 
d="M144 579h-92l57 164h111zM-21 591c-39 0 -67 28 -67 69s28 69 67 69c37 0 67 -28 67 -69s-30 -69 -67 -69zM285 591c-40 0 -66 28 -66 69s26 69 66 69c38 0 67 -28 67 -69s-29 -69 -67 -69zM63 0v520h149v-520h-149z" />
    <glyph glyph-name="uniF478" unicode="&#x462;`" horiz-adv-x="699" 
d="M336 895l-81 -152h-113l55 152h139zM129 705h156v-70h140v-121h-140v-79h140c145 0 241 -84 241 -213v-7c0 -129 -99 -215 -248 -215h-289v514h-109v121h109v70zM282 132h129c58 0 98 33 98 87v8c0 53 -41 87 -98 87h-129v-182z" />
    <glyph glyph-name="uniF479" unicode="&#x463;`" horiz-adv-x="550" 
d="M401 571h-111l57 164h130zM88 640l149 18v-138h146v-108h-146v-72h109c106 0 180 -69 180 -161v-17c0 -93 -76 -162 -186 -162h-252v404h-77v99c22 6 50 11 77 14v123zM231 106h80c37 0 67 26 67 60v11c0 35 -30 60 -67 60h-80v-131z" />
    <glyph glyph-name="uni0407_uni0407" unicode="&#x407;&#x407;" horiz-adv-x="607" 
d="M389 749c-37 0 -65 28 -65 70c0 41 28 70 65 70c39 0 68 -29 68 -70c0 -42 -29 -70 -68 -70zM562 749c-38 0 -66 29 -66 70s28 70 66 70c40 0 69 -29 69 -70c0 -42 -29 -70 -69 -70zM42 749c-39 0 -66 28 -66 70c0 41 27 70 66 70c40 0 69 -29 69 -70s-29 -70 -69 -70z
M215 749c-38 0 -65 28 -65 70c0 41 27 70 65 70c39 0 68 -29 68 -70c0 -42 -29 -70 -68 -70zM377 0v700h156v-700h-156zM74 0v700h156v-700h-156z" />
    <glyph glyph-name=".notdef" horiz-adv-x="713" 
d="M198 619c-18 -1 -32 9 -33 24c-2 16 10 28 28 30c21 2 41 -9 43 -23c1 -14 -17 -29 -38 -31zM121 427c-26 -2 -53 14 -54 32c-1 19 23 36 21 69c-3 33 -32 45 -33 64c-1 17 21 37 44 39c22 2 49 -14 66 -40c20 -31 41 -28 44 -54c2 -26 -20 -28 -36 -65
c-12 -28 -30 -43 -52 -45zM253 551c-23 -2 -40 10 -41 28c-2 18 13 33 36 35c25 2 50 -11 52 -27c1 -17 -21 -33 -47 -36zM260 470c-22 -2 -39 9 -40 28c-2 18 12 32 35 34c25 3 49 -10 50 -27c2 -16 -20 -33 -45 -35zM217 401c-18 -1 -32 9 -33 25c-2 15 10 27 29 29
c21 2 41 -10 42 -24s-17 -28 -38 -30zM563 245c-18 2 -30 14 -29 29c1 16 15 26 33 25c21 -2 39 -16 38 -30s-21 -26 -42 -24zM450 70c-24 2 -46 21 -45 38c1 19 30 32 33 65s-23 50 -21 69c2 17 27 32 53 31c23 -1 41 -16 54 -44c17 -37 37 -39 35 -65s-22 -26 -43 -55
c-18 -25 -44 -41 -66 -39zM605 169c-23 2 -37 16 -36 34c2 19 19 30 42 28c25 -2 48 -19 46 -36c-1 -16 -26 -29 -52 -26zM598 87c-22 2 -37 16 -35 35c2 18 18 30 40 28c25 -3 47 -19 46 -36c-2 -16 -26 -29 -51 -27zM544 27c-19 2 -30 14 -29 30s15 25 34 24
c21 -2 39 -17 37 -31c-1 -14 -22 -25 -42 -23z" />
    <glyph glyph-name="uni0000" horiz-adv-x="0" 
 />
    <glyph glyph-name="uni0000" horiz-adv-x="0" 
 />
    <glyph glyph-name="uni000D" unicode="&#xd;" horiz-adv-x="250" 
 />
    <glyph glyph-name="space" unicode=" " horiz-adv-x="259" 
 />
    <glyph glyph-name="A" unicode="A" horiz-adv-x="650" 
d="M-7 0l233 700h200l231 -700h-167l-45 146h-241l-44 -146h-167zM237 271h176l-82 267h-11z" />
    <glyph glyph-name="Aacute" unicode="&#xc1;" horiz-adv-x="650" 
d="M454 895l-81 -152h-113l55 152h139zM-7 0l233 700h200l231 -700h-167l-45 146h-241l-44 -146h-167zM237 271h176l-82 267h-11z" />
    <glyph glyph-name="Abreve" unicode="&#x102;" horiz-adv-x="650" 
d="M153 885h120c0 -31 19 -52 53 -52c33 0 52 21 52 52h120c0 -88 -67 -146 -172 -146c-106 0 -173 58 -173 146zM-7 0l233 700h200l231 -700h-167l-45 146h-241l-44 -146h-167zM237 271h176l-82 267h-11z" />
    <glyph glyph-name="Acircumflex" unicode="&#xc2;" horiz-adv-x="650" 
d="M133 754l110 128h164l110 -128h-131l-52 53h-18l-52 -53h-131zM-7 0l233 700h200l231 -700h-167l-45 146h-241l-44 -146h-167zM237 271h176l-82 267h-11z" />
    <glyph glyph-name="Adieresis" unicode="&#xc4;" horiz-adv-x="650" 
d="M218 750c-44 0 -74 28 -74 69s30 69 74 69c43 0 76 -28 76 -69s-33 -69 -76 -69zM427 750c-44 0 -74 28 -74 69s30 69 74 69s76 -28 76 -69s-32 -69 -76 -69zM-7 0l233 700h200l231 -700h-167l-45 146h-241l-44 -146h-167zM237 271h176l-82 267h-11z" />
    <glyph glyph-name="Agrave" unicode="&#xc0;" horiz-adv-x="650" 
d="M263 743l-78 152h142l62 -152h-126zM-7 0l233 700h200l231 -700h-167l-45 146h-241l-44 -146h-167zM237 271h176l-82 267h-11z" />
    <glyph glyph-name="Amacron" unicode="&#x100;" horiz-adv-x="650" 
d="M176 769v100h299v-100h-299zM-7 0l233 700h200l231 -700h-167l-45 146h-241l-44 -146h-167zM237 271h176l-82 267h-11z" />
    <glyph glyph-name="Aogonek" unicode="&#x104;" horiz-adv-x="650" 
d="M-7 0l233 700h200l231 -700c-27 -15 -65 -57 -65 -89c0 -19 9 -29 25 -29c14 0 29 5 39 15v-83c-24 -14 -52 -20 -75 -20c-61 0 -97 34 -97 89c0 43 25 86 66 117h-60l-45 146h-241l-44 -146h-167zM237 271h176l-82 267h-11z" />
    <glyph glyph-name="Aring" unicode="&#xc5;" horiz-adv-x="650" 
d="M326 724c-67 0 -112 40 -112 95c0 60 45 100 112 100c63 0 109 -41 109 -100c0 -55 -45 -95 -109 -95zM324 785c23 0 39 15 39 35c0 21 -16 38 -39 38c-22 0 -38 -17 -38 -38c0 -20 16 -35 38 -35zM-7 0l233 700h200l231 -700h-167l-45 146h-241l-44 -146h-167zM237 271
h176l-82 267h-11z" />
    <glyph glyph-name="Atilde" unicode="&#xc3;" horiz-adv-x="650" 
d="M318 878c22 -9 43 -17 66 -17c25 0 30 18 31 36h119c-4 -87 -43 -147 -110 -147c-36 0 -62 11 -88 21c-22 9 -43 17 -66 17c-25 0 -30 -18 -30 -36h-120c4 87 43 147 110 147c36 0 62 -10 88 -21zM-7 0l233 700h200l231 -700h-167l-45 146h-241l-44 -146h-167zM237 271
h176l-82 267h-11z" />
    <glyph glyph-name="AE" unicode="&#xc6;" horiz-adv-x="846" 
d="M-7 0l240 700h551v-136h-256v-148h236v-129h-236v-151h266v-136h-414v146h-172l-48 -146h-167zM243 271h137v293h-44z" />
    <glyph glyph-name="B" unicode="B" horiz-adv-x="643" 
d="M73 0v700h265c139 0 236 -67 236 -171v-12c0 -61 -27 -109 -88 -144c77 -33 120 -95 120 -170v-13c0 -116 -94 -190 -240 -190h-293zM224 410h108c55 0 93 30 93 76v11c0 44 -35 72 -91 72h-110v-159zM224 132h133c57 0 97 29 97 76v12c0 49 -41 80 -100 80h-130v-168z
" />
    <glyph glyph-name="C" unicode="C" horiz-adv-x="680" 
d="M375 -12c-201 0 -338 144 -338 352v19c0 206 140 353 335 353h7c114 0 215 -54 274 -149l-115 -87c-35 61 -86 99 -155 99h-8c-104 0 -176 -85 -176 -216v-19c0 -131 71 -214 176 -214h12c67 0 120 37 155 97l113 -86c-59 -96 -157 -149 -274 -149h-6z" />
    <glyph glyph-name="Cacute" unicode="&#x106;" horiz-adv-x="680" 
d="M507 895l-81 -152h-113l55 152h139zM375 -12c-201 0 -338 144 -338 352v19c0 206 140 353 335 353h7c114 0 215 -54 274 -149l-115 -87c-35 61 -86 99 -155 99h-8c-104 0 -176 -85 -176 -216v-19c0 -131 71 -214 176 -214h12c67 0 120 37 155 97l113 -86
c-59 -96 -157 -149 -274 -149h-6z" />
    <glyph glyph-name="Ccaron" unicode="&#x10c;" horiz-adv-x="680" 
d="M296 754l-110 128h131l52 -53h18l52 53h131l-110 -128h-164zM375 -12c-201 0 -338 144 -338 352v19c0 206 140 353 335 353h7c114 0 215 -54 274 -149l-115 -87c-35 61 -86 99 -155 99h-8c-104 0 -176 -85 -176 -216v-19c0 -131 71 -214 176 -214h12c67 0 120 37 155 97
l113 -86c-59 -96 -157 -149 -274 -149h-6z" />
    <glyph glyph-name="Ccedilla" unicode="&#xc7;" horiz-adv-x="680" 
d="M351 -206c-33 0 -67 10 -93 26l30 73c9 -8 23 -16 41 -16c20 0 32 12 32 27c0 20 -14 35 -58 35l21 52c-172 22 -287 159 -287 349v19c0 206 140 353 335 353h7c114 0 215 -54 274 -149l-115 -87c-35 61 -86 99 -155 99h-8c-104 0 -176 -85 -176 -216v-19
c0 -131 71 -214 176 -214h12c67 0 120 37 155 97l113 -86c-56 -90 -146 -143 -254 -149l-8 -14c44 -8 70 -38 70 -79c0 -67 -56 -101 -112 -101z" />
    <glyph glyph-name="Ccircumflex" unicode="&#x108;" horiz-adv-x="680" 
d="M186 754l110 128h164l110 -128h-131l-52 53h-18l-52 -53h-131zM375 -12c-201 0 -338 144 -338 352v19c0 206 140 353 335 353h7c114 0 215 -54 274 -149l-115 -87c-35 61 -86 99 -155 99h-8c-104 0 -176 -85 -176 -216v-19c0 -131 71 -214 176 -214h12
c67 0 120 37 155 97l113 -86c-59 -96 -157 -149 -274 -149h-6z" />
    <glyph glyph-name="Cdotaccent" unicode="&#x10a;" horiz-adv-x="680" 
d="M376 744c-49 0 -83 30 -83 75c0 44 34 75 83 75c52 0 87 -31 87 -75c0 -45 -35 -75 -87 -75zM375 -12c-201 0 -338 144 -338 352v19c0 206 140 353 335 353h7c114 0 215 -54 274 -149l-115 -87c-35 61 -86 99 -155 99h-8c-104 0 -176 -85 -176 -216v-19
c0 -131 71 -214 176 -214h12c67 0 120 37 155 97l113 -86c-59 -96 -157 -149 -274 -149h-6z" />
    <glyph glyph-name="D" unicode="D" horiz-adv-x="704" 
d="M73 0v700h232c219 0 362 -134 362 -336v-20c0 -206 -143 -344 -362 -344h-232zM230 136h78c124 0 197 81 197 209v20c0 122 -73 199 -197 199h-78v-428z" />
    <glyph glyph-name="Eth" unicode="&#xd0;" horiz-adv-x="719" 
d="M88 0v287h-65v136h65v277h232c219 0 361 -134 361 -336v-20c0 -206 -142 -344 -361 -344h-232zM244 136h78c123 0 197 81 197 209v20c0 122 -73 199 -197 199h-78v-141h124v-136h-124v-151z" />
    <glyph glyph-name="Dcaron" unicode="&#x10e;" horiz-adv-x="704" 
d="M259 754l-110 128h131l52 -53h18l52 53h131l-110 -128h-164zM73 0v700h232c219 0 362 -134 362 -336v-20c0 -206 -143 -344 -362 -344h-232zM230 136h78c124 0 197 81 197 209v20c0 122 -73 199 -197 199h-78v-428z" />
    <glyph glyph-name="Dcroat" unicode="&#x110;" horiz-adv-x="719" 
d="M88 0v287h-65v136h65v277h232c219 0 361 -134 361 -336v-20c0 -206 -142 -344 -361 -344h-232zM244 136h78c123 0 197 81 197 209v20c0 122 -73 199 -197 199h-78v-141h124v-136h-124v-151z" />
    <glyph glyph-name="E" unicode="E" horiz-adv-x="559" 
d="M74 0v700h423v-136h-267v-148h247v-129h-247v-151h277v-136h-433z" />
    <glyph glyph-name="Eacute" unicode="&#xc9;" horiz-adv-x="559" 
d="M420 895l-81 -152h-113l55 152h139zM74 0v700h423v-136h-267v-148h247v-129h-247v-151h277v-136h-433z" />
    <glyph glyph-name="Ebreve" unicode="&#x114;" horiz-adv-x="559" 
d="M119 885h120c0 -31 19 -52 53 -52c33 0 52 21 52 52h120c0 -88 -67 -146 -172 -146c-106 0 -173 58 -173 146zM74 0v700h423v-136h-267v-148h247v-129h-247v-151h277v-136h-433z" />
    <glyph glyph-name="Ecaron" unicode="&#x11a;" horiz-adv-x="559" 
d="M210 754l-110 128h131l52 -53h18l52 53h131l-110 -128h-164zM74 0v700h423v-136h-267v-148h247v-129h-247v-151h277v-136h-433z" />
    <glyph glyph-name="Ecircumflex" unicode="&#xca;" horiz-adv-x="559" 
d="M99 754l110 128h164l110 -128h-131l-52 53h-18l-52 -53h-131zM74 0v700h423v-136h-267v-148h247v-129h-247v-151h277v-136h-433z" />
    <glyph glyph-name="Edieresis" unicode="&#xcb;" horiz-adv-x="559" 
d="M185 750c-44 0 -74 28 -74 69s30 69 74 69c43 0 76 -28 76 -69s-33 -69 -76 -69zM394 750c-44 0 -74 28 -74 69s30 69 74 69s76 -28 76 -69s-32 -69 -76 -69zM74 0v700h423v-136h-267v-148h247v-129h-247v-151h277v-136h-433z" />
    <glyph glyph-name="Edotaccent" unicode="&#x116;" horiz-adv-x="559" 
d="M289 744c-49 0 -83 30 -83 75c0 44 34 75 83 75c52 0 87 -31 87 -75c0 -45 -35 -75 -87 -75zM74 0v700h423v-136h-267v-148h247v-129h-247v-151h277v-136h-433z" />
    <glyph glyph-name="Egrave" unicode="&#xc8;" horiz-adv-x="559" 
d="M229 743l-78 152h142l62 -152h-126zM74 0v700h423v-136h-267v-148h247v-129h-247v-151h277v-136h-433z" />
    <glyph glyph-name="Emacron" unicode="&#x112;" horiz-adv-x="559" 
d="M142 769v100h299v-100h-299zM74 0v700h423v-136h-267v-148h247v-129h-247v-151h277v-136h-433z" />
    <glyph glyph-name="Eogonek" unicode="&#x118;" horiz-adv-x="559" 
d="M74 0v700h423v-136h-267v-148h247v-129h-247v-151h277v-136c-27 -15 -65 -57 -65 -89c0 -19 9 -29 25 -29c14 0 29 5 39 15v-83c-24 -14 -52 -20 -75 -20c-61 0 -97 34 -97 89c0 43 25 86 66 117h-326z" />
    <glyph glyph-name="F" unicode="F" horiz-adv-x="529" 
d="M74 0v700h410v-136h-254v-165h234v-129h-234v-270h-156z" />
    <glyph glyph-name="G" unicode="G" horiz-adv-x="731" 
d="M347 -11c-189 0 -310 140 -310 351v18c0 210 137 354 338 354h11c114 0 217 -57 280 -157l-123 -78c-37 66 -88 100 -154 100h-11c-109 0 -179 -88 -179 -218v-20c0 -131 70 -216 183 -216h11c81 0 145 55 145 115v13h-144v128h286v-379h-112c-8 14 -17 49 -18 77
c-31 -50 -110 -88 -191 -88h-12z" />
    <glyph glyph-name="uni01F4" unicode="&#x1f4;" horiz-adv-x="731" 
d="M518 895l-81 -152h-113l55 152h139zM347 -11c-189 0 -310 140 -310 351v18c0 210 137 354 338 354h11c114 0 217 -57 280 -157l-123 -78c-37 66 -88 100 -154 100h-11c-109 0 -179 -88 -179 -218v-20c0 -131 70 -216 183 -216h11c81 0 145 55 145 115v13h-144v128h286
v-379h-112c-8 14 -17 49 -18 77c-31 -50 -110 -88 -191 -88h-12z" />
    <glyph glyph-name="Gbreve" unicode="&#x11e;" horiz-adv-x="731" 
d="M217 885h120c0 -31 19 -52 53 -52c33 0 52 21 52 52h120c0 -88 -67 -146 -172 -146c-106 0 -173 58 -173 146zM347 -11c-189 0 -310 140 -310 351v18c0 210 137 354 338 354h11c114 0 217 -57 280 -157l-123 -78c-37 66 -88 100 -154 100h-11c-109 0 -179 -88 -179 -218
v-20c0 -131 70 -216 183 -216h11c81 0 145 55 145 115v13h-144v128h286v-379h-112c-8 14 -17 49 -18 77c-31 -50 -110 -88 -191 -88h-12z" />
    <glyph glyph-name="Gcircumflex" unicode="&#x11c;" horiz-adv-x="731" 
d="M197 754l110 128h164l110 -128h-131l-52 53h-18l-52 -53h-131zM347 -11c-189 0 -310 140 -310 351v18c0 210 137 354 338 354h11c114 0 217 -57 280 -157l-123 -78c-37 66 -88 100 -154 100h-11c-109 0 -179 -88 -179 -218v-20c0 -131 70 -216 183 -216h11
c81 0 145 55 145 115v13h-144v128h286v-379h-112c-8 14 -17 49 -18 77c-31 -50 -110 -88 -191 -88h-12z" />
    <glyph glyph-name="uni0122" unicode="&#x122;" horiz-adv-x="731" 
d="M347 -11c-189 0 -310 140 -310 351v18c0 210 137 354 338 354h11c114 0 217 -57 280 -157l-123 -78c-37 66 -88 100 -154 100h-11c-109 0 -179 -88 -179 -218v-20c0 -131 70 -216 183 -216h11c81 0 145 55 145 115v13h-144v128h286v-379h-112c-8 14 -17 49 -18 77
c-31 -50 -110 -88 -191 -88h-12zM269 -203l36 155h126l-65 -155h-97z" />
    <glyph glyph-name="Gdotaccent" unicode="&#x120;" horiz-adv-x="731" 
d="M388 744c-49 0 -83 30 -83 75c0 44 34 75 83 75c52 0 87 -31 87 -75c0 -45 -35 -75 -87 -75zM347 -11c-189 0 -310 140 -310 351v18c0 210 137 354 338 354h11c114 0 217 -57 280 -157l-123 -78c-37 66 -88 100 -154 100h-11c-109 0 -179 -88 -179 -218v-20
c0 -131 70 -216 183 -216h11c81 0 145 55 145 115v13h-144v128h286v-379h-112c-8 14 -17 49 -18 77c-31 -50 -110 -88 -191 -88h-12z" />
    <glyph glyph-name="H" unicode="H" horiz-adv-x="704" 
d="M73 0v700h157v-277h244v277h156v-700h-156v287h-244v-287h-157z" />
    <glyph glyph-name="Hbar" unicode="&#x126;" horiz-adv-x="696" 
d="M14 524v106h55v70h157v-77h244v77h156v-70h56v-106h-56v-524h-156v287h-244v-287h-157v524h-55zM226 423h244v107h-244v-107z" />
    <glyph glyph-name="Hcircumflex" unicode="&#x124;" horiz-adv-x="704" 
d="M161 754l110 128h164l110 -128h-131l-52 53h-18l-52 -53h-131zM73 0v700h157v-277h244v277h156v-700h-156v287h-244v-287h-157z" />
    <glyph glyph-name="I" unicode="I" horiz-adv-x="303" 
d="M74 0v700h156v-700h-156z" />
    <glyph glyph-name="IJ" unicode="&#x132;" horiz-adv-x="679" 
d="M74 0v700h156v-700h-156zM411 -13c-34 0 -68 6 -99 16v146c17 -12 40 -20 66 -20c53 0 78 32 78 86v485h156v-507c0 -136 -73 -206 -201 -206z" />
    <glyph glyph-name="Iacute" unicode="&#xcd;" horiz-adv-x="303" 
d="M281 895l-81 -152h-113l55 152h139zM74 0v700h156v-700h-156z" />
    <glyph glyph-name="Ibreve" unicode="&#x12c;" horiz-adv-x="303" 
d="M-20 885h120c0 -31 19 -52 53 -52c33 0 52 21 52 52h120c0 -88 -67 -146 -172 -146c-106 0 -173 58 -173 146zM74 0v700h156v-700h-156z" />
    <glyph glyph-name="Icircumflex" unicode="&#xce;" horiz-adv-x="303" 
d="M-40 754l110 128h164l110 -128h-131l-52 53h-18l-52 -53h-131zM74 0v700h156v-700h-156z" />
    <glyph glyph-name="Idieresis" unicode="&#xcf;" horiz-adv-x="303" 
d="M62 743c-40 0 -67 28 -67 70s27 71 67 71s71 -29 71 -71s-31 -70 -71 -70zM240 743c-41 0 -68 28 -68 70s27 71 68 71c40 0 70 -29 70 -71s-30 -70 -70 -70zM74 0v700h156v-700h-156z" />
    <glyph glyph-name="Idotaccent" unicode="&#x130;" horiz-adv-x="303" 
d="M150 744c-49 0 -83 30 -83 75c0 44 34 75 83 75c52 0 87 -31 87 -75c0 -45 -35 -75 -87 -75zM74 0v700h156v-700h-156z" />
    <glyph glyph-name="Igrave" unicode="&#xcc;" horiz-adv-x="303" 
d="M90 743l-78 152h142l62 -152h-126zM74 0v700h156v-700h-156z" />
    <glyph glyph-name="Imacron" unicode="&#x12a;" horiz-adv-x="303" 
d="M3 769v100h299v-100h-299zM74 0v700h156v-700h-156z" />
    <glyph glyph-name="Iogonek" unicode="&#x12e;" horiz-adv-x="303" 
d="M74 0v700h156v-700c-27 -15 -65 -57 -65 -89c0 -19 9 -29 25 -29c14 0 29 5 39 15v-83c-24 -14 -52 -20 -75 -20c-61 0 -97 34 -97 89c0 43 25 86 66 117h-49z" />
    <glyph glyph-name="Itilde" unicode="&#x128;" horiz-adv-x="303" 
d="M145 878c22 -9 43 -17 66 -17c25 0 30 18 31 36h119c-4 -87 -43 -147 -110 -147c-36 0 -62 11 -88 21c-22 9 -43 17 -66 17c-25 0 -30 -18 -30 -36h-120c4 87 43 147 110 147c36 0 62 -10 88 -21zM74 0v700h156v-700h-156z" />
    <glyph glyph-name="J" unicode="J" horiz-adv-x="397" 
d="M129 -13c-34 0 -68 6 -99 16v146c17 -12 40 -20 66 -20c53 0 78 32 78 86v485h156v-507c0 -136 -73 -206 -201 -206z" />
    <glyph glyph-name="Jcircumflex" unicode="&#x134;" horiz-adv-x="397" 
d="M60 754l110 128h164l110 -128h-131l-52 53h-18l-52 -53h-131zM129 -13c-34 0 -68 6 -99 16v146c17 -12 40 -20 66 -20c53 0 78 32 78 86v485h156v-507c0 -136 -73 -206 -201 -206z" />
    <glyph glyph-name="K" unicode="K" horiz-adv-x="654" 
d="M74 0v700h156v-292h8l219 292h178l-261 -322l279 -378h-187l-228 328h-8v-328h-156z" />
    <glyph glyph-name="uni0136" unicode="&#x136;" horiz-adv-x="654" 
d="M74 0v700h156v-292h8l219 292h178l-261 -322l279 -378h-187l-228 328h-8v-328h-156zM247 -195l36 155h126l-65 -155h-97z" />
    <glyph glyph-name="L" unicode="L" horiz-adv-x="510" 
d="M74 0v700h156v-564h250v-136h-406z" />
    <glyph glyph-name="Lacute" unicode="&#x139;" horiz-adv-x="510" 
d="M281 895l-81 -152h-113l55 152h139zM74 0v700h156v-564h250v-136h-406z" />
    <glyph glyph-name="Lcaron" unicode="&#x13d;" horiz-adv-x="510" 
d="M74 0v700h156v-564h250v-136h-406zM320 529l8 171h123l-39 -171h-92z" />
    <glyph glyph-name="uni013B" unicode="&#x13b;" horiz-adv-x="510" 
d="M74 0v700h156v-564h250v-136h-406zM182 -195l36 155h126l-65 -155h-97z" />
    <glyph glyph-name="Ldot" unicode="&#x13f;" horiz-adv-x="529" 
d="M74 0v700h156v-564h250v-136h-406zM392 295c-50 0 -85 30 -85 75s35 77 85 77c52 0 88 -32 88 -77s-36 -75 -88 -75z" />
    <glyph glyph-name="Lslash" unicode="&#x141;" horiz-adv-x="524" 
d="M18 263v116l69 25v296h156v-239l127 46v-116l-127 -46v-209h250v-136h-406v288z" />
    <glyph glyph-name="M" unicode="M" horiz-adv-x="869" 
d="M73 0v700h220l138 -407h7l138 407h219v-700h-152v514h-8l-143 -421h-115l-144 421h-8v-514h-152z" />
    <glyph glyph-name="N" unicode="N" horiz-adv-x="725" 
d="M74 0v700h182l240 -452h5v452h151v-700h-155l-266 497h-7v-497h-150z" />
    <glyph glyph-name="Nacute" unicode="&#x143;" horiz-adv-x="725" 
d="M492 895l-81 -152h-113l55 152h139zM74 0v700h182l240 -452h5v452h151v-700h-155l-266 497h-7v-497h-150z" />
    <glyph glyph-name="Ncaron" unicode="&#x147;" horiz-adv-x="725" 
d="M281 754l-110 128h131l52 -53h18l52 53h131l-110 -128h-164zM74 0v700h182l240 -452h5v452h151v-700h-155l-266 497h-7v-497h-150z" />
    <glyph glyph-name="uni0145" unicode="&#x145;" horiz-adv-x="725" 
d="M74 0v700h182l240 -452h5v452h151v-700h-155l-266 497h-7v-497h-150zM268 -195l36 155h126l-65 -155h-97z" />
    <glyph glyph-name="Eng" unicode="&#x14a;" horiz-adv-x="725" 
d="M491 -198c-33 0 -69 7 -100 18v130c17 -8 32 -11 48 -11c41 0 55 23 56 72l-264 486h-7v-497h-150v700h182l240 -454h5v454h151v-720c0 -112 -56 -178 -161 -178z" />
    <glyph glyph-name="Ntilde" unicode="&#xd1;" horiz-adv-x="725" 
d="M356 878c22 -9 43 -17 66 -17c25 0 30 18 31 36h119c-4 -87 -43 -147 -110 -147c-36 0 -62 11 -88 21c-22 9 -43 17 -66 17c-25 0 -30 -18 -30 -36h-120c4 87 43 147 110 147c36 0 62 -10 88 -21zM74 0v700h182l240 -452h5v452h151v-700h-155l-266 497h-7v-497h-150z" />
    <glyph glyph-name="O" unicode="O" horiz-adv-x="761" 
d="M37 340v20c0 213 136 354 337 354h13c198 0 337 -143 337 -354v-20c0 -211 -139 -354 -337 -354h-13c-198 0 -337 144 -337 354zM199 340c0 -134 73 -218 176 -218h11c104 0 176 84 176 218v20c0 133 -72 217 -176 217h-11c-103 0 -176 -84 -176 -217v-20z" />
    <glyph glyph-name="Oacute" unicode="&#xd3;" horiz-adv-x="761" 
d="M509 895l-81 -152h-113l55 152h139zM37 340v20c0 213 136 354 337 354h13c198 0 337 -143 337 -354v-20c0 -211 -139 -354 -337 -354h-13c-198 0 -337 144 -337 354zM199 340c0 -134 73 -218 176 -218h11c104 0 176 84 176 218v20c0 133 -72 217 -176 217h-11
c-103 0 -176 -84 -176 -217v-20z" />
    <glyph glyph-name="Obreve" unicode="&#x14e;" horiz-adv-x="761" 
d="M208 885h120c0 -31 19 -52 53 -52c33 0 52 21 52 52h120c0 -88 -67 -146 -172 -146c-106 0 -173 58 -173 146zM37 340v20c0 213 136 354 337 354h13c198 0 337 -143 337 -354v-20c0 -211 -139 -354 -337 -354h-13c-198 0 -337 144 -337 354zM199 340
c0 -134 73 -218 176 -218h11c104 0 176 84 176 218v20c0 133 -72 217 -176 217h-11c-103 0 -176 -84 -176 -217v-20z" />
    <glyph glyph-name="Ocircumflex" unicode="&#xd4;" horiz-adv-x="761" 
d="M188 754l110 128h164l110 -128h-131l-52 53h-18l-52 -53h-131zM37 340v20c0 213 136 354 337 354h13c198 0 337 -143 337 -354v-20c0 -211 -139 -354 -337 -354h-13c-198 0 -337 144 -337 354zM199 340c0 -134 73 -218 176 -218h11c104 0 176 84 176 218v20
c0 133 -72 217 -176 217h-11c-103 0 -176 -84 -176 -217v-20z" />
    <glyph glyph-name="Odieresis" unicode="&#xd6;" horiz-adv-x="761" 
d="M274 750c-44 0 -74 28 -74 69s30 69 74 69c43 0 76 -28 76 -69s-33 -69 -76 -69zM483 750c-44 0 -74 28 -74 69s30 69 74 69s76 -28 76 -69s-32 -69 -76 -69zM37 340v20c0 213 136 354 337 354h13c198 0 337 -143 337 -354v-20c0 -211 -139 -354 -337 -354h-13
c-198 0 -337 144 -337 354zM199 340c0 -134 73 -218 176 -218h11c104 0 176 84 176 218v20c0 133 -72 217 -176 217h-11c-103 0 -176 -84 -176 -217v-20z" />
    <glyph glyph-name="Ograve" unicode="&#xd2;" horiz-adv-x="761" 
d="M319 743l-78 152h142l62 -152h-126zM37 340v20c0 213 136 354 337 354h13c198 0 337 -143 337 -354v-20c0 -211 -139 -354 -337 -354h-13c-198 0 -337 144 -337 354zM199 340c0 -134 73 -218 176 -218h11c104 0 176 84 176 218v20c0 133 -72 217 -176 217h-11
c-103 0 -176 -84 -176 -217v-20z" />
    <glyph glyph-name="Ohungarumlaut" unicode="&#x150;" horiz-adv-x="761" 
d="M347 743h-120l56 152h139zM532 743h-119l55 152h139zM37 340v20c0 213 136 354 337 354h13c198 0 337 -143 337 -354v-20c0 -211 -139 -354 -337 -354h-13c-198 0 -337 144 -337 354zM199 340c0 -134 73 -218 176 -218h11c104 0 176 84 176 218v20
c0 133 -72 217 -176 217h-11c-103 0 -176 -84 -176 -217v-20z" />
    <glyph glyph-name="Omacron" unicode="&#x14c;" horiz-adv-x="761" 
d="M231 769v100h299v-100h-299zM37 340v20c0 213 136 354 337 354h13c198 0 337 -143 337 -354v-20c0 -211 -139 -354 -337 -354h-13c-198 0 -337 144 -337 354zM199 340c0 -134 73 -218 176 -218h11c104 0 176 84 176 218v20c0 133 -72 217 -176 217h-11
c-103 0 -176 -84 -176 -217v-20z" />
    <glyph glyph-name="Oslash" unicode="&#xd8;" horiz-adv-x="761" 
d="M102 -36l54 97c-74 63 -119 160 -119 279v20c0 213 137 354 337 354h13c48 0 92 -8 131 -24l25 45h116l-54 -95c75 -63 119 -160 119 -280v-20c0 -211 -138 -354 -337 -354h-13c-47 0 -91 8 -130 24l-26 -46h-116zM194 340c0 -63 15 -116 41 -154l224 387
c-22 10 -46 15 -73 15h-11c-106 0 -181 -87 -181 -227v-21zM526 515l-224 -387c22 -11 47 -16 73 -16h11c107 0 182 87 182 228v21c0 63 -15 115 -42 154z" />
    <glyph glyph-name="Otilde" unicode="&#xd5;" horiz-adv-x="761" 
d="M373 878c22 -9 43 -17 66 -17c25 0 30 18 31 36h119c-4 -87 -43 -147 -110 -147c-36 0 -62 11 -88 21c-22 9 -43 17 -66 17c-25 0 -30 -18 -30 -36h-120c4 87 43 147 110 147c36 0 62 -10 88 -21zM37 340v20c0 213 136 354 337 354h13c198 0 337 -143 337 -354v-20
c0 -211 -139 -354 -337 -354h-13c-198 0 -337 144 -337 354zM199 340c0 -134 73 -218 176 -218h11c104 0 176 84 176 218v20c0 133 -72 217 -176 217h-11c-103 0 -176 -84 -176 -217v-20z" />
    <glyph glyph-name="OE" unicode="&#x152;" horiz-adv-x="964" 
d="M499 700h403v-130h-253v-154h233v-129h-233v-157h263v-130h-413c-32 -9 -67 -14 -104 -14h-13c-203 0 -345 144 -345 354v20c0 213 140 354 345 354h13c37 0 72 -5 104 -15v1zM499 159v376c-25 28 -60 42 -105 42h-11c-108 0 -184 -84 -184 -217v-20
c0 -134 76 -218 184 -218h11c44 0 80 13 105 37z" />
    <glyph glyph-name="P" unicode="P" horiz-adv-x="613" 
d="M74 0v700h251c154 0 255 -90 255 -231v-12c0 -144 -102 -234 -255 -234h-95v-223h-156zM226 346h81c72 0 118 43 118 108v11c0 64 -44 101 -115 101h-84v-220z" />
    <glyph glyph-name="Thorn" unicode="&#xde;" horiz-adv-x="613" 
d="M74 0v700h156v-93h95c154 0 255 -92 255 -232v-8c0 -143 -102 -237 -255 -237h-95v-130h-156zM225 259h80c73 0 120 43 120 109v9c0 62 -45 102 -116 102h-84v-220z" />
    <glyph glyph-name="Q" unicode="Q" horiz-adv-x="762" 
d="M569 -48v-110c-34 -9 -73 -15 -109 -15c-105 0 -160 50 -160 151v16c-157 30 -263 163 -263 346v20c0 211 139 354 337 354h13c199 0 338 -143 338 -354v-20c0 -192 -115 -329 -286 -350v-9c2 -29 21 -40 51 -40c22 0 60 6 79 11zM199 340c0 -134 73 -218 176 -218h12
c103 0 176 84 176 218v20c0 133 -73 217 -176 217h-12c-103 0 -176 -84 -176 -217v-20z" />
    <glyph glyph-name="R" unicode="R" horiz-adv-x="648" 
d="M74 0v700h267c154 0 248 -83 248 -219v-10c0 -90 -46 -163 -118 -194l164 -277h-181l-134 246h-90v-246h-156zM225 364h89c76 0 120 41 120 102v8c0 61 -44 96 -119 96h-90v-206z" />
    <glyph glyph-name="Racute" unicode="&#x154;" horiz-adv-x="648" 
d="M444 895l-81 -152h-113l55 152h139zM74 0v700h267c154 0 248 -83 248 -219v-10c0 -90 -46 -163 -118 -194l164 -277h-181l-134 246h-90v-246h-156zM225 364h89c76 0 120 41 120 102v8c0 61 -44 96 -119 96h-90v-206z" />
    <glyph glyph-name="Rcaron" unicode="&#x158;" horiz-adv-x="648" 
d="M234 754l-110 128h131l52 -53h18l52 53h131l-110 -128h-164zM74 0v700h267c154 0 248 -83 248 -219v-10c0 -90 -46 -163 -118 -194l164 -277h-181l-134 246h-90v-246h-156zM225 364h89c76 0 120 41 120 102v8c0 61 -44 96 -119 96h-90v-206z" />
    <glyph glyph-name="uni0156" unicode="&#x156;" horiz-adv-x="648" 
d="M74 0v700h267c154 0 248 -83 248 -219v-10c0 -90 -46 -163 -118 -194l164 -277h-181l-134 246h-90v-246h-156zM225 364h89c76 0 120 41 120 102v8c0 61 -44 96 -119 96h-90v-206zM241 -195l36 155h126l-65 -155h-97z" />
    <glyph glyph-name="S" unicode="S" horiz-adv-x="584" 
d="M297 -12c-101 0 -202 36 -275 96l83 124c56 -52 137 -77 201 -77s96 23 96 66c0 67 -77 70 -209 119c-81 30 -150 77 -150 194c0 119 101 203 234 203c99 0 180 -31 257 -87l-82 -123c-52 46 -121 68 -174 68c-56 0 -84 -25 -84 -64c0 -57 72 -68 168 -98
c96 -29 197 -74 197 -204c0 -132 -101 -217 -262 -217z" />
    <glyph glyph-name="Sacute" unicode="&#x15a;" horiz-adv-x="584" 
d="M418 895l-81 -152h-113l55 152h139zM297 -12c-101 0 -202 36 -275 96l83 124c56 -52 137 -77 201 -77s96 23 96 66c0 67 -77 70 -209 119c-81 30 -150 77 -150 194c0 119 101 203 234 203c99 0 180 -31 257 -87l-82 -123c-52 46 -121 68 -174 68c-56 0 -84 -25 -84 -64
c0 -57 72 -68 168 -98c96 -29 197 -74 197 -204c0 -132 -101 -217 -262 -217z" />
    <glyph glyph-name="Scaron" unicode="&#x160;" horiz-adv-x="584" 
d="M207 754l-110 128h131l52 -53h18l52 53h131l-110 -128h-164zM297 -12c-101 0 -202 36 -275 96l83 124c56 -52 137 -77 201 -77s96 23 96 66c0 67 -77 70 -209 119c-81 30 -150 77 -150 194c0 119 101 203 234 203c99 0 180 -31 257 -87l-82 -123c-52 46 -121 68 -174 68
c-56 0 -84 -25 -84 -64c0 -57 72 -68 168 -98c96 -29 197 -74 197 -204c0 -132 -101 -217 -262 -217z" />
    <glyph glyph-name="Scedilla" unicode="&#x15e;" horiz-adv-x="584" 
d="M276 -206c-33 0 -67 10 -93 26l30 73c9 -8 23 -16 41 -16c20 0 32 12 32 27c0 20 -14 35 -58 35l21 52c-84 9 -166 43 -227 93l83 124c56 -52 137 -77 201 -77s96 23 96 66c0 67 -77 70 -209 119c-81 30 -150 77 -150 194c0 119 101 203 234 203c99 0 180 -31 257 -87
l-82 -123c-52 46 -121 68 -174 68c-56 0 -84 -25 -84 -64c0 -57 72 -68 168 -98c96 -29 197 -74 197 -204c0 -124 -89 -206 -233 -216l-8 -15c44 -8 70 -38 70 -79c0 -67 -56 -101 -112 -101z" />
    <glyph glyph-name="Scircumflex" unicode="&#x15c;" horiz-adv-x="584" 
d="M97 754l110 128h164l110 -128h-131l-52 53h-18l-52 -53h-131zM297 -12c-101 0 -202 36 -275 96l83 124c56 -52 137 -77 201 -77s96 23 96 66c0 67 -77 70 -209 119c-81 30 -150 77 -150 194c0 119 101 203 234 203c99 0 180 -31 257 -87l-82 -123c-52 46 -121 68 -174 68
c-56 0 -84 -25 -84 -64c0 -57 72 -68 168 -98c96 -29 197 -74 197 -204c0 -132 -101 -217 -262 -217z" />
    <glyph glyph-name="uni0218" unicode="&#x218;" horiz-adv-x="584" 
d="M297 -12c-101 0 -202 36 -275 96l83 124c56 -52 137 -77 201 -77s96 23 96 66c0 67 -77 70 -209 119c-81 30 -150 77 -150 194c0 119 101 203 234 203c99 0 180 -31 257 -87l-82 -123c-52 46 -121 68 -174 68c-56 0 -84 -25 -84 -64c0 -57 72 -68 168 -98
c96 -29 197 -74 197 -204c0 -132 -101 -217 -262 -217zM201 -195l36 155h126l-65 -155h-97z" />
    <glyph glyph-name="Germandbls" unicode="&#x1e9e;" horiz-adv-x="707" 
d="M428 -13c-65 0 -118 18 -162 53l85 118c21 -19 44 -28 73 -28c59 0 97 37 97 95c0 57 -37 95 -92 95c-25 0 -56 -8 -79 -21l-48 81l154 184h-100c-80 0 -133 -60 -133 -149v-415h-156v418c0 170 102 282 258 282h286v-117l-135 -159c4 0 8 1 12 1
c114 -9 188 -88 188 -208c0 -138 -99 -230 -248 -230z" />
    <glyph glyph-name="T" unicode="T" horiz-adv-x="547" 
d="M195 0v564h-175v136h507v-136h-175v-564h-157z" />
    <glyph glyph-name="Tbar" unicode="&#x166;" horiz-adv-x="547" 
d="M93 296v106h102v162h-175v136h507v-136h-175v-162h103v-106h-103v-296h-157v296h-102z" />
    <glyph glyph-name="Tcaron" unicode="&#x164;" horiz-adv-x="547" 
d="M192 754l-110 128h131l52 -53h18l52 53h131l-110 -128h-164zM195 0v564h-175v136h507v-136h-175v-564h-157z" />
    <glyph glyph-name="uni0162" unicode="&#x162;" horiz-adv-x="547" 
d="M195 0v564h-175v136h507v-136h-175v-564h-39l-13 -26c44 -8 70 -38 70 -79c0 -67 -56 -101 -112 -101c-33 0 -67 10 -93 26l30 73c9 -8 23 -16 41 -16c20 0 32 12 32 27c0 20 -14 35 -58 35l25 61h-40z" />
    <glyph glyph-name="uni021A" unicode="&#x21a;" horiz-adv-x="547" 
d="M195 0v564h-175v136h507v-136h-175v-564h-157zM179 -195l36 155h126l-65 -155h-97z" />
    <glyph glyph-name="U" unicode="U" horiz-adv-x="700" 
d="M351 -13c-180 0 -284 98 -284 269v444h156v-436c0 -88 52 -135 129 -135c75 0 126 47 126 135v436h156v-444c0 -176 -110 -269 -283 -269z" />
    <glyph glyph-name="Uacute" unicode="&#xda;" horiz-adv-x="700" 
d="M480 895l-81 -152h-113l55 152h139zM351 -13c-180 0 -284 98 -284 269v444h156v-436c0 -88 52 -135 129 -135c75 0 126 47 126 135v436h156v-444c0 -176 -110 -269 -283 -269z" />
    <glyph glyph-name="Ubreve" unicode="&#x16c;" horiz-adv-x="700" 
d="M179 885h120c0 -31 19 -52 53 -52c33 0 52 21 52 52h120c0 -88 -67 -146 -172 -146c-106 0 -173 58 -173 146zM351 -13c-180 0 -284 98 -284 269v444h156v-436c0 -88 52 -135 129 -135c75 0 126 47 126 135v436h156v-444c0 -176 -110 -269 -283 -269z" />
    <glyph glyph-name="Ucircumflex" unicode="&#xdb;" horiz-adv-x="700" 
d="M159 754l110 128h164l110 -128h-131l-52 53h-18l-52 -53h-131zM351 -13c-180 0 -284 98 -284 269v444h156v-436c0 -88 52 -135 129 -135c75 0 126 47 126 135v436h156v-444c0 -176 -110 -269 -283 -269z" />
    <glyph glyph-name="Udieresis" unicode="&#xdc;" horiz-adv-x="700" 
d="M245 750c-44 0 -74 28 -74 69s30 69 74 69c43 0 76 -28 76 -69s-33 -69 -76 -69zM454 750c-44 0 -74 28 -74 69s30 69 74 69s76 -28 76 -69s-32 -69 -76 -69zM351 -13c-180 0 -284 98 -284 269v444h156v-436c0 -88 52 -135 129 -135c75 0 126 47 126 135v436h156v-444
c0 -176 -110 -269 -283 -269z" />
    <glyph glyph-name="Ugrave" unicode="&#xd9;" horiz-adv-x="700" 
d="M289 743l-78 152h142l62 -152h-126zM351 -13c-180 0 -284 98 -284 269v444h156v-436c0 -88 52 -135 129 -135c75 0 126 47 126 135v436h156v-444c0 -176 -110 -269 -283 -269z" />
    <glyph glyph-name="Uhungarumlaut" unicode="&#x170;" horiz-adv-x="700" 
d="M318 743h-120l56 152h139zM503 743h-119l55 152h139zM351 -13c-180 0 -284 98 -284 269v444h156v-436c0 -88 52 -135 129 -135c75 0 126 47 126 135v436h156v-444c0 -176 -110 -269 -283 -269z" />
    <glyph glyph-name="Umacron" unicode="&#x16a;" horiz-adv-x="700" 
d="M202 769v100h299v-100h-299zM351 -13c-180 0 -284 98 -284 269v444h156v-436c0 -88 52 -135 129 -135c75 0 126 47 126 135v436h156v-444c0 -176 -110 -269 -283 -269z" />
    <glyph glyph-name="Uogonek" unicode="&#x172;" horiz-adv-x="700" 
d="M398 -206c-62 0 -100 34 -100 91c0 37 17 73 44 102c-174 3 -275 101 -275 269v444h156v-436c0 -88 52 -135 129 -135c75 0 126 47 126 135v436h156v-444c0 -133 -63 -219 -168 -253c-32 -19 -60 -58 -60 -89c0 -21 10 -32 27 -32c16 0 32 5 44 15v-83
c-26 -14 -54 -20 -79 -20z" />
    <glyph glyph-name="Uring" unicode="&#x16e;" horiz-adv-x="700" 
d="M352 724c-67 0 -112 40 -112 95c0 60 45 100 112 100c63 0 109 -41 109 -100c0 -55 -45 -95 -109 -95zM350 785c23 0 39 15 39 35c0 21 -16 38 -39 38c-22 0 -38 -17 -38 -38c0 -20 16 -35 38 -35zM351 -13c-180 0 -284 98 -284 269v444h156v-436c0 -88 52 -135 129 -135
c75 0 126 47 126 135v436h156v-444c0 -176 -110 -269 -283 -269z" />
    <glyph glyph-name="Utilde" unicode="&#x168;" horiz-adv-x="700" 
d="M344 878c22 -9 43 -17 66 -17c25 0 30 18 31 36h119c-4 -87 -43 -147 -110 -147c-36 0 -62 11 -88 21c-22 9 -43 17 -66 17c-25 0 -30 -18 -30 -36h-120c4 87 43 147 110 147c36 0 62 -10 88 -21zM351 -13c-180 0 -284 98 -284 269v444h156v-436c0 -88 52 -135 129 -135
c75 0 126 47 126 135v436h156v-444c0 -176 -110 -269 -283 -269z" />
    <glyph glyph-name="V" unicode="V" horiz-adv-x="639" 
d="M216 0l-212 700h165l146 -541h9l145 541h166l-213 -700h-206z" />
    <glyph glyph-name="W" unicode="W" horiz-adv-x="923" 
d="M162 0l-147 700h159l91 -520h8l124 520h127l125 -520h8l92 520h159l-149 -700h-192l-103 436h-6l-104 -436h-192z" />
    <glyph glyph-name="Wacute" unicode="&#x1e82;" horiz-adv-x="923" 
d="M590 895l-81 -152h-113l55 152h139zM162 0l-147 700h159l91 -520h8l124 520h127l125 -520h8l92 520h159l-149 -700h-192l-103 436h-6l-104 -436h-192z" />
    <glyph glyph-name="Wcircumflex" unicode="&#x174;" horiz-adv-x="923" 
d="M269 754l110 128h164l110 -128h-131l-52 53h-18l-52 -53h-131zM162 0l-147 700h159l91 -520h8l124 520h127l125 -520h8l92 520h159l-149 -700h-192l-103 436h-6l-104 -436h-192z" />
    <glyph glyph-name="Wdieresis" unicode="&#x1e84;" horiz-adv-x="923" 
d="M354 750c-44 0 -74 28 -74 69s30 69 74 69c43 0 76 -28 76 -69s-33 -69 -76 -69zM563 750c-44 0 -74 28 -74 69s30 69 74 69s76 -28 76 -69s-32 -69 -76 -69zM162 0l-147 700h159l91 -520h8l124 520h127l125 -520h8l92 520h159l-149 -700h-192l-103 436h-6l-104 -436
h-192z" />
    <glyph glyph-name="Wgrave" unicode="&#x1e80;" horiz-adv-x="923" 
d="M399 743l-78 152h142l62 -152h-126zM162 0l-147 700h159l91 -520h8l124 520h127l125 -520h8l92 520h159l-149 -700h-192l-103 436h-6l-104 -436h-192z" />
    <glyph glyph-name="X" unicode="X" horiz-adv-x="643" 
d="M8 0l206 360v6l-196 334h177l122 -232h10l122 232h175l-194 -334v-6l205 -360h-178l-130 262h-10l-129 -262h-180z" />
    <glyph glyph-name="Y" unicode="Y" horiz-adv-x="622" 
d="M233 0v273l-239 427h180l134 -281h7l133 281h179l-237 -427v-273h-157z" />
    <glyph glyph-name="Yacute" unicode="&#xdd;" horiz-adv-x="622" 
d="M440 895l-81 -152h-113l55 152h139zM233 0v273l-239 427h180l134 -281h7l133 281h179l-237 -427v-273h-157z" />
    <glyph glyph-name="Ycircumflex" unicode="&#x176;" horiz-adv-x="622" 
d="M119 754l110 128h164l110 -128h-131l-52 53h-18l-52 -53h-131zM233 0v273l-239 427h180l134 -281h7l133 281h179l-237 -427v-273h-157z" />
    <glyph glyph-name="Ydieresis" unicode="&#x178;" horiz-adv-x="622" 
d="M205 750c-44 0 -74 28 -74 69s30 69 74 69c43 0 76 -28 76 -69s-33 -69 -76 -69zM414 750c-44 0 -74 28 -74 69s30 69 74 69s76 -28 76 -69s-32 -69 -76 -69zM233 0v273l-239 427h180l134 -281h7l133 281h179l-237 -427v-273h-157z" />
    <glyph glyph-name="Z" unicode="Z" horiz-adv-x="567" 
d="M26 0v117l317 441v6h-298v136h488v-117l-314 -438v-9h322v-136h-515z" />
    <glyph glyph-name="Zacute" unicode="&#x179;" horiz-adv-x="567" 
d="M418 895l-81 -152h-113l55 152h139zM26 0v117l317 441v6h-298v136h488v-117l-314 -438v-9h322v-136h-515z" />
    <glyph glyph-name="Zcaron" unicode="&#x17d;" horiz-adv-x="567" 
d="M208 754l-110 128h131l52 -53h18l52 53h131l-110 -128h-164zM26 0v117l317 441v6h-298v136h488v-117l-314 -438v-9h322v-136h-515z" />
    <glyph glyph-name="Zdotaccent" unicode="&#x17b;" horiz-adv-x="567" 
d="M288 744c-49 0 -83 30 -83 75c0 44 34 75 83 75c52 0 87 -31 87 -75c0 -45 -35 -75 -87 -75zM26 0v117l317 441v6h-298v136h488v-117l-314 -438v-9h322v-136h-515z" />
    <glyph glyph-name="A.ss01" horiz-adv-x="668" 
d="M17 0c0 234 111 474 290 700h162l180 -700h-165l-34 146h-256c-10 -48 -16 -97 -16 -146h-161zM225 275h196l-58 257h-14c-45 -74 -92 -172 -124 -257z" />
    <glyph glyph-name="Aacute.ss01" horiz-adv-x="668" 
d="M516 895l-81 -152h-113l55 152h139zM17 0c0 234 111 474 290 700h162l180 -700h-165l-34 146h-256c-10 -48 -16 -97 -16 -146h-161zM225 275h196l-58 257h-14c-45 -74 -92 -172 -124 -257z" />
    <glyph glyph-name="Abreve.ss01" horiz-adv-x="668" 
d="M214 885h120c0 -31 19 -52 53 -52c33 0 52 21 52 52h120c0 -88 -67 -146 -172 -146c-106 0 -173 58 -173 146zM17 0c0 234 111 474 290 700h162l180 -700h-165l-34 146h-256c-10 -48 -16 -97 -16 -146h-161zM225 275h196l-58 257h-14c-45 -74 -92 -172 -124 -257z" />
    <glyph glyph-name="Acircumflex.ss01" horiz-adv-x="668" 
d="M195 754l110 128h164l110 -128h-131l-52 53h-18l-52 -53h-131zM17 0c0 234 111 474 290 700h162l180 -700h-165l-34 146h-256c-10 -48 -16 -97 -16 -146h-161zM225 275h196l-58 257h-14c-45 -74 -92 -172 -124 -257z" />
    <glyph glyph-name="Adieresis.ss01" horiz-adv-x="668" 
d="M280 750c-44 0 -74 28 -74 69s30 69 74 69c43 0 76 -28 76 -69s-33 -69 -76 -69zM489 750c-44 0 -74 28 -74 69s30 69 74 69s76 -28 76 -69s-32 -69 -76 -69zM17 0c0 234 111 474 290 700h162l180 -700h-165l-34 146h-256c-10 -48 -16 -97 -16 -146h-161zM225 275h196
l-58 257h-14c-45 -74 -92 -172 -124 -257z" />
    <glyph glyph-name="Agrave.ss01" horiz-adv-x="668" 
d="M325 743l-78 152h142l62 -152h-126zM17 0c0 234 111 474 290 700h162l180 -700h-165l-34 146h-256c-10 -48 -16 -97 -16 -146h-161zM225 275h196l-58 257h-14c-45 -74 -92 -172 -124 -257z" />
    <glyph glyph-name="Amacron.ss01" horiz-adv-x="668" 
d="M237 769v100h299v-100h-299zM17 0c0 234 111 474 290 700h162l180 -700h-165l-34 146h-256c-10 -48 -16 -97 -16 -146h-161zM225 275h196l-58 257h-14c-45 -74 -92 -172 -124 -257z" />
    <glyph glyph-name="Aogonek.ss01" horiz-adv-x="668" 
d="M17 0c0 234 111 474 290 700h162l180 -700c-27 -15 -65 -57 -65 -89c0 -19 9 -29 25 -29c14 0 29 5 39 15v-83c-24 -14 -52 -20 -75 -20c-61 0 -97 34 -97 89c0 43 25 86 66 117h-58l-34 146h-256c-10 -48 -16 -97 -16 -146h-161zM225 275h196l-58 257h-14
c-45 -74 -92 -172 -124 -257z" />
    <glyph glyph-name="Aring.ss01" horiz-adv-x="668" 
d="M388 724c-67 0 -112 40 -112 95c0 60 45 100 112 100c63 0 109 -41 109 -100c0 -55 -45 -95 -109 -95zM386 785c23 0 39 15 39 35c0 21 -16 38 -39 38c-22 0 -38 -17 -38 -38c0 -20 16 -35 38 -35zM17 0c0 234 111 474 290 700h162l180 -700h-165l-34 146h-256
c-10 -48 -16 -97 -16 -146h-161zM225 275h196l-58 257h-14c-45 -74 -92 -172 -124 -257z" />
    <glyph glyph-name="Atilde.ss01" horiz-adv-x="668" 
d="M380 878c22 -9 43 -17 66 -17c25 0 30 18 31 36h119c-4 -87 -43 -147 -110 -147c-36 0 -62 11 -88 21c-22 9 -43 17 -66 17c-25 0 -30 -18 -30 -36h-120c4 87 43 147 110 147c36 0 62 -10 88 -21zM17 0c0 234 111 474 290 700h162l180 -700h-165l-34 146h-256
c-10 -48 -16 -97 -16 -146h-161zM225 275h196l-58 257h-14c-45 -74 -92 -172 -124 -257z" />
    <glyph glyph-name="AE.ss01" horiz-adv-x="863" 
d="M17 0c0 234 114 474 292 700h492v-136h-253v-148h233v-129h-233v-151h263v-136h-420v159h-195c-11 -51 -18 -105 -18 -159h-161zM231 286h160v279h-17c-58 -95 -109 -189 -143 -279z" />
    <glyph glyph-name="G.ss01" horiz-adv-x="740" 
d="M543 477c-37 66 -88 100 -154 100h-11c-109 0 -179 -88 -179 -218v-20c0 -131 71 -216 184 -216h11c81 0 145 45 145 95c0 29 -20 44 -56 44c-13 0 -30 -2 -42 -5v121c26 5 59 8 81 8c109 0 171 -64 171 -186v-200h-135v66c-41 -49 -110 -77 -184 -77h-14
c-196 0 -323 140 -323 351v19c0 210 140 354 340 354h12c113 0 215 -57 277 -158z" />
    <glyph glyph-name="Gacute.ss01" horiz-adv-x="740" 
d="M518 895l-81 -152h-113l55 152h139zM543 477c-37 66 -88 100 -154 100h-11c-109 0 -179 -88 -179 -218v-20c0 -131 71 -216 184 -216h11c81 0 145 45 145 95c0 29 -20 44 -56 44c-13 0 -30 -2 -42 -5v121c26 5 59 8 81 8c109 0 171 -64 171 -186v-200h-135v66
c-41 -49 -110 -77 -184 -77h-14c-196 0 -323 140 -323 351v19c0 210 140 354 340 354h12c113 0 215 -57 277 -158z" />
    <glyph glyph-name="Gbreve.ss01" horiz-adv-x="740" 
d="M217 885h120c0 -31 19 -52 53 -52c33 0 52 21 52 52h120c0 -88 -67 -146 -172 -146c-106 0 -173 58 -173 146zM543 477c-37 66 -88 100 -154 100h-11c-109 0 -179 -88 -179 -218v-20c0 -131 71 -216 184 -216h11c81 0 145 45 145 95c0 29 -20 44 -56 44
c-13 0 -30 -2 -42 -5v121c26 5 59 8 81 8c109 0 171 -64 171 -186v-200h-135v66c-41 -49 -110 -77 -184 -77h-14c-196 0 -323 140 -323 351v19c0 210 140 354 340 354h12c113 0 215 -57 277 -158z" />
    <glyph glyph-name="Gcircumflex.ss01" horiz-adv-x="740" 
d="M197 754l110 128h164l110 -128h-131l-52 53h-18l-52 -53h-131zM543 477c-37 66 -88 100 -154 100h-11c-109 0 -179 -88 -179 -218v-20c0 -131 71 -216 184 -216h11c81 0 145 45 145 95c0 29 -20 44 -56 44c-13 0 -30 -2 -42 -5v121c26 5 59 8 81 8
c109 0 171 -64 171 -186v-200h-135v66c-41 -49 -110 -77 -184 -77h-14c-196 0 -323 140 -323 351v19c0 210 140 354 340 354h12c113 0 215 -57 277 -158z" />
    <glyph glyph-name="Gcommaaccent.ss01" horiz-adv-x="740" 
d="M543 477c-37 66 -88 100 -154 100h-11c-109 0 -179 -88 -179 -218v-20c0 -131 71 -216 184 -216h11c81 0 145 45 145 95c0 29 -20 44 -56 44c-13 0 -30 -2 -42 -5v121c26 5 59 8 81 8c109 0 171 -64 171 -186v-200h-135v66c-41 -49 -110 -77 -184 -77h-14
c-196 0 -323 140 -323 351v19c0 210 140 354 340 354h12c113 0 215 -57 277 -158zM269 -203l36 155h126l-65 -155h-97z" />
    <glyph glyph-name="Gdotaccent.ss01" horiz-adv-x="740" 
d="M388 744c-49 0 -83 30 -83 75c0 44 34 75 83 75c52 0 87 -31 87 -75c0 -45 -35 -75 -87 -75zM543 477c-37 66 -88 100 -154 100h-11c-109 0 -179 -88 -179 -218v-20c0 -131 71 -216 184 -216h11c81 0 145 45 145 95c0 29 -20 44 -56 44c-13 0 -30 -2 -42 -5v121
c26 5 59 8 81 8c109 0 171 -64 171 -186v-200h-135v66c-41 -49 -110 -77 -184 -77h-14c-196 0 -323 140 -323 351v19c0 210 140 354 340 354h12c113 0 215 -57 277 -158z" />
    <glyph glyph-name="J.ss01" horiz-adv-x="332" 
d="M88 -152c-37 0 -68 8 -99 19v144c17 -13 36 -21 58 -21c43 0 62 30 62 84v626h156v-648c0 -136 -67 -204 -177 -204z" />
    <glyph glyph-name="Jcircumflex.ss01" horiz-adv-x="332" 
d="M-5 751l110 128h164l110 -128h-131l-52 53h-18l-52 -53h-131zM88 -152c-37 0 -68 8 -99 19v144c17 -13 36 -21 58 -21c43 0 62 30 62 84v626h156v-648c0 -136 -67 -204 -177 -204z" />
    <glyph glyph-name="K.ss01" horiz-adv-x="659" 
d="M74 0v700h156v-292h8c102 69 182 175 217 292h165c-60 -154 -141 -257 -242 -326l279 -374h-187l-232 328h-8v-328h-156z" />
    <glyph glyph-name="Kcommaaccent.ss01" horiz-adv-x="659" 
d="M74 0v700h156v-292h8c102 69 182 175 217 292h165c-60 -154 -141 -257 -242 -326l279 -374h-187l-232 328h-8v-328h-156zM247 -195l36 155h126l-65 -155h-97z" />
    <glyph glyph-name="M.ss01" horiz-adv-x="876" 
d="M48 0c0 248 54 525 132 700h162l87 -404h6l155 404h212v-700h-157v503h-6l-164 -410h-118l-91 410h-7c-32 -87 -53 -283 -50 -503h-161z" />
    <glyph glyph-name="N.ss01" horiz-adv-x="726" 
d="M65 0c-3 250 11 551 34 700h157l241 -459h5v459h151v-700h-156l-266 501h-6c-12 -160 -10 -363 1 -501h-161z" />
    <glyph glyph-name="Nacute.ss01" horiz-adv-x="726" 
d="M508 895l-81 -152h-113l55 152h139zM65 0c-3 250 11 551 34 700h157l241 -459h5v459h151v-700h-156l-266 501h-6c-12 -160 -10 -363 1 -501h-161z" />
    <glyph glyph-name="Ncaron.ss01" horiz-adv-x="726" 
d="M298 754l-110 128h131l52 -53h18l52 53h131l-110 -128h-164zM65 0c-3 250 11 551 34 700h157l241 -459h5v459h151v-700h-156l-266 501h-6c-12 -160 -10 -363 1 -501h-161z" />
    <glyph glyph-name="Ncommaaccent.ss01" horiz-adv-x="726" 
d="M65 0c-3 250 11 551 34 700h157l241 -459h5v459h151v-700h-156l-266 501h-6c-12 -160 -10 -363 1 -501h-161zM263 -195l36 155h126l-65 -155h-97z" />
    <glyph glyph-name="Eng.ss01" horiz-adv-x="719" 
d="M460 -198c-37 0 -70 6 -101 17v146c17 -12 38 -21 64 -21c45 0 72 26 72 65v8l-261 466h-9c-12 -160 -10 -345 1 -483h-161c-3 250 11 551 34 700h161l226 -415h10v415h157v-700c0 -130 -74 -198 -193 -198z" />
    <glyph glyph-name="Ntilde.ss01" horiz-adv-x="726" 
d="M372 878c22 -9 43 -17 66 -17c25 0 30 18 31 36h119c-4 -87 -43 -147 -110 -147c-36 0 -62 11 -88 21c-22 9 -43 17 -66 17c-25 0 -30 -18 -30 -36h-120c4 87 43 147 110 147c36 0 62 -10 88 -21zM65 0c-3 250 11 551 34 700h157l241 -459h5v459h151v-700h-156l-266 501
h-6c-12 -160 -10 -363 1 -501h-161z" />
    <glyph glyph-name="Q.ss01" horiz-adv-x="783" 
d="M577 -130c-129 1 -195 110 -253 110c-24 0 -38 -17 -38 -51l-132 30c0 91 64 157 157 157c17 0 32 -2 47 -5c123 1 204 94 204 244v10c0 132 -71 212 -176 212h-11c-103 0 -176 -81 -176 -206v-10c0 -75 29 -141 75 -179l-122 -91c-74 67 -115 163 -115 269v10
c0 208 137 344 337 344h13c200 0 337 -141 337 -342v-10c0 -165 -91 -295 -228 -330c23 -15 46 -27 68 -27c31 0 45 23 45 47l132 -30c0 -87 -65 -152 -164 -152z" />
    <glyph glyph-name="V.ss01" horiz-adv-x="654" 
d="M188 0l-184 700h166l131 -553h12c73 140 144 374 154 553h162c-29 -256 -124 -504 -237 -700h-204z" />
    <glyph glyph-name="W.ss01" horiz-adv-x="953" 
d="M147 0l-154 700h166l100 -549h11c62 148 118 364 128 549h152l115 -549h10c55 140 112 372 122 549h163c-31 -253 -113 -504 -207 -700h-183l-92 425h-6c-29 -138 -71 -266 -136 -425h-189z" />
    <glyph glyph-name="Wacute.ss01" horiz-adv-x="953" 
d="M604 895l-81 -152h-113l55 152h139zM147 0l-154 700h166l100 -549h11c62 148 118 364 128 549h152l115 -549h10c55 140 112 372 122 549h163c-31 -253 -113 -504 -207 -700h-183l-92 425h-6c-29 -138 -71 -266 -136 -425h-189z" />
    <glyph glyph-name="Wcircumflex.ss01" horiz-adv-x="953" 
d="M283 754l110 128h164l110 -128h-131l-52 53h-18l-52 -53h-131zM147 0l-154 700h166l100 -549h11c62 148 118 364 128 549h152l115 -549h10c55 140 112 372 122 549h163c-31 -253 -113 -504 -207 -700h-183l-92 425h-6c-29 -138 -71 -266 -136 -425h-189z" />
    <glyph glyph-name="Wdieresis.ss01" horiz-adv-x="953" 
d="M369 750c-44 0 -74 28 -74 69s30 69 74 69c43 0 76 -28 76 -69s-33 -69 -76 -69zM578 750c-44 0 -74 28 -74 69s30 69 74 69s76 -28 76 -69s-32 -69 -76 -69zM147 0l-154 700h166l100 -549h11c62 148 118 364 128 549h152l115 -549h10c55 140 112 372 122 549h163
c-31 -253 -113 -504 -207 -700h-183l-92 425h-6c-29 -138 -71 -266 -136 -425h-189z" />
    <glyph glyph-name="Wgrave.ss01" horiz-adv-x="953" 
d="M413 743l-78 152h142l62 -152h-126zM147 0l-154 700h166l100 -549h11c62 148 118 364 128 549h152l115 -549h10c55 140 112 372 122 549h163c-31 -253 -113 -504 -207 -700h-183l-92 425h-6c-29 -138 -71 -266 -136 -425h-189z" />
    <glyph glyph-name="X.ss01" horiz-adv-x="635" 
d="M5 0c49 151 106 247 203 360v6l-195 334h178l128 -242c60 73 107 165 123 242h175c-44 -128 -108 -235 -192 -334v-6l205 -360h-178l-137 272c-58 -75 -109 -177 -130 -272h-180z" />
    <glyph glyph-name="Y.ss01" horiz-adv-x="632" 
d="M229 0v269l-235 431h179l138 -290h9c59 74 107 188 127 290h179c-60 -181 -126 -296 -241 -430v-270h-156z" />
    <glyph glyph-name="Yacute.ss01" horiz-adv-x="632" 
d="M441 892l-81 -152h-113l55 152h139zM229 0v269l-235 431h179l138 -290h9c59 74 107 188 127 290h179c-60 -181 -126 -296 -241 -430v-270h-156z" />
    <glyph glyph-name="Ycircumflex.ss01" horiz-adv-x="632" 
d="M120 751l110 128h164l110 -128h-131l-52 53h-18l-52 -53h-131zM229 0v269l-235 431h179l138 -290h9c59 74 107 188 127 290h179c-60 -181 -126 -296 -241 -430v-270h-156z" />
    <glyph glyph-name="Ydieresis.ss01" horiz-adv-x="632" 
d="M205 747c-44 0 -74 28 -74 69s30 69 74 69c43 0 76 -28 76 -69s-33 -69 -76 -69zM414 747c-44 0 -74 28 -74 69s30 69 74 69s76 -28 76 -69s-32 -69 -76 -69zM229 0v269l-235 431h179l138 -290h9c59 74 107 188 127 290h179c-60 -181 -126 -296 -241 -430v-270h-156z" />
    <glyph glyph-name="Z.ss01" horiz-adv-x="588" 
d="M432 -44c-121 1 -187 82 -246 82c-27 0 -40 -15 -40 -50l-132 33c1 44 15 78 39 104l296 439h-296v136h487v-120l-291 -425c71 -19 125 -62 171 -62c34 0 50 25 50 49l133 -31c0 -87 -64 -155 -171 -155z" />
    <glyph glyph-name="Zacute.ss01" horiz-adv-x="588" 
d="M425 895l-81 -152h-113l55 152h139zM432 -44c-121 1 -187 82 -246 82c-27 0 -40 -15 -40 -50l-132 33c1 44 15 78 39 104l296 439h-296v136h487v-120l-291 -425c71 -19 125 -62 171 -62c34 0 50 25 50 49l133 -31c0 -87 -64 -155 -171 -155z" />
    <glyph glyph-name="Zcaron.ss01" horiz-adv-x="588" 
d="M215 754l-110 128h131l52 -53h18l52 53h131l-110 -128h-164zM432 -44c-121 1 -187 82 -246 82c-27 0 -40 -15 -40 -50l-132 33c1 44 15 78 39 104l296 439h-296v136h487v-120l-291 -425c71 -19 125 -62 171 -62c34 0 50 25 50 49l133 -31c0 -87 -64 -155 -171 -155z" />
    <glyph glyph-name="Zdotaccent.ss01" horiz-adv-x="588" 
d="M295 744c-49 0 -83 30 -83 75c0 44 34 75 83 75c52 0 87 -31 87 -75c0 -45 -35 -75 -87 -75zM432 -44c-121 1 -187 82 -246 82c-27 0 -40 -15 -40 -50l-132 33c1 44 15 78 39 104l296 439h-296v136h487v-120l-291 -425c71 -19 125 -62 171 -62c34 0 50 25 50 49l133 -31
c0 -87 -64 -155 -171 -155z" />
    <glyph glyph-name="a" unicode="a" horiz-adv-x="563" 
d="M205 -11c-101 0 -173 61 -173 153v12c0 111 94 168 291 168h39v15c0 48 -30 79 -88 79h-5c-48 0 -102 -16 -156 -51l-56 102c62 40 143 64 223 64h9c132 0 213 -74 213 -199v-213c0 -42 7 -80 18 -119h-139c-6 16 -11 37 -14 59c-38 -44 -98 -70 -162 -70zM243 102
c44 0 88 20 119 55v78h-30c-108 0 -159 -24 -159 -72v-5c0 -33 28 -56 70 -56z" />
    <glyph glyph-name="aacute" unicode="&#xe1;" horiz-adv-x="563" 
d="M328 571h-111l57 164h130zM205 -11c-101 0 -173 61 -173 153v12c0 111 94 168 291 168h39v15c0 48 -30 79 -88 79h-5c-48 0 -102 -16 -156 -51l-56 102c62 40 143 64 223 64h9c132 0 213 -74 213 -199v-213c0 -42 7 -80 18 -119h-139c-6 16 -11 37 -14 59
c-38 -44 -98 -70 -162 -70zM243 102c44 0 88 20 119 55v78h-30c-108 0 -159 -24 -159 -72v-5c0 -33 28 -56 70 -56z" />
    <glyph glyph-name="abreve" unicode="&#x103;" horiz-adv-x="563" 
d="M106 720h119c0 -31 20 -52 53 -52c34 0 53 21 53 52h119c0 -87 -66 -146 -172 -146c-105 0 -172 59 -172 146zM205 -11c-101 0 -173 61 -173 153v12c0 111 94 168 291 168h39v15c0 48 -30 79 -88 79h-5c-48 0 -102 -16 -156 -51l-56 102c62 40 143 64 223 64h9
c132 0 213 -74 213 -199v-213c0 -42 7 -80 18 -119h-139c-6 16 -11 37 -14 59c-38 -44 -98 -70 -162 -70zM243 102c44 0 88 20 119 55v78h-30c-108 0 -159 -24 -159 -72v-5c0 -33 28 -56 70 -56z" />
    <glyph glyph-name="acircumflex" unicode="&#xe2;" horiz-adv-x="563" 
d="M473 588h-130l-55 55h-18l-55 -55h-130l112 131h164zM205 -11c-101 0 -173 61 -173 153v12c0 111 94 168 291 168h39v15c0 48 -30 79 -88 79h-5c-48 0 -102 -16 -156 -51l-56 102c62 40 143 64 223 64h9c132 0 213 -74 213 -199v-213c0 -42 7 -80 18 -119h-139
c-6 16 -11 37 -14 59c-38 -44 -98 -70 -162 -70zM243 102c44 0 88 20 119 55v78h-30c-108 0 -159 -24 -159 -72v-5c0 -33 28 -56 70 -56z" />
    <glyph glyph-name="adieresis" unicode="&#xe4;" horiz-adv-x="563" 
d="M386 590c-44 0 -73 28 -73 69s29 69 73 69s77 -28 77 -69s-33 -69 -77 -69zM169 590c-45 0 -76 28 -76 69s31 69 76 69c41 0 74 -28 74 -69s-33 -69 -74 -69zM205 -11c-101 0 -173 61 -173 153v12c0 111 94 168 291 168h39v15c0 48 -30 79 -88 79h-5
c-48 0 -102 -16 -156 -51l-56 102c62 40 143 64 223 64h9c132 0 213 -74 213 -199v-213c0 -42 7 -80 18 -119h-139c-6 16 -11 37 -14 59c-38 -44 -98 -70 -162 -70zM243 102c44 0 88 20 119 55v78h-30c-108 0 -159 -24 -159 -72v-5c0 -33 28 -56 70 -56z" />
    <glyph glyph-name="agrave" unicode="&#xe0;" horiz-adv-x="563" 
d="M230 571l-76 164h129l58 -164h-111zM205 -11c-101 0 -173 61 -173 153v12c0 111 94 168 291 168h39v15c0 48 -30 79 -88 79h-5c-48 0 -102 -16 -156 -51l-56 102c62 40 143 64 223 64h9c132 0 213 -74 213 -199v-213c0 -42 7 -80 18 -119h-139c-6 16 -11 37 -14 59
c-38 -44 -98 -70 -162 -70zM243 102c44 0 88 20 119 55v78h-30c-108 0 -159 -24 -159 -72v-5c0 -33 28 -56 70 -56z" />
    <glyph glyph-name="amacron" unicode="&#x101;" horiz-adv-x="563" 
d="M130 600v106h299v-106h-299zM205 -11c-101 0 -173 61 -173 153v12c0 111 94 168 291 168h39v15c0 48 -30 79 -88 79h-5c-48 0 -102 -16 -156 -51l-56 102c62 40 143 64 223 64h9c132 0 213 -74 213 -199v-213c0 -42 7 -80 18 -119h-139c-6 16 -11 37 -14 59
c-38 -44 -98 -70 -162 -70zM243 102c44 0 88 20 119 55v78h-30c-108 0 -159 -24 -159 -72v-5c0 -33 28 -56 70 -56z" />
    <glyph glyph-name="aogonek" unicode="&#x105;" horiz-adv-x="563" 
d="M205 -11c-101 0 -173 61 -173 153v12c0 111 94 168 291 168h39v15c0 48 -30 79 -88 79h-5c-48 0 -102 -16 -156 -51l-56 102c62 40 143 64 223 64h9c132 0 213 -74 213 -199v-213c0 -42 7 -80 18 -119c-27 -15 -65 -57 -65 -89c0 -19 9 -29 25 -29c14 0 29 5 39 15v-83
c-24 -14 -52 -20 -75 -20c-61 0 -97 34 -97 89c0 43 25 86 66 117h-32c-6 16 -11 37 -14 59c-38 -44 -98 -70 -162 -70zM243 102c44 0 88 20 119 55v78h-30c-108 0 -159 -24 -159 -72v-5c0 -33 28 -56 70 -56z" />
    <glyph glyph-name="aring" unicode="&#xe5;" horiz-adv-x="563" 
d="M279 570c-65 0 -111 40 -111 95c0 60 46 100 111 100c63 0 109 -41 109 -100c0 -55 -45 -95 -109 -95zM278 632c23 0 39 14 39 35s-16 37 -39 37s-39 -16 -39 -37s16 -35 39 -35zM205 -11c-101 0 -173 61 -173 153v12c0 111 94 168 291 168h39v15c0 48 -30 79 -88 79h-5
c-48 0 -102 -16 -156 -51l-56 102c62 40 143 64 223 64h9c132 0 213 -74 213 -199v-213c0 -42 7 -80 18 -119h-139c-6 16 -11 37 -14 59c-38 -44 -98 -70 -162 -70zM243 102c44 0 88 20 119 55v78h-30c-108 0 -159 -24 -159 -72v-5c0 -33 28 -56 70 -56z" />
    <glyph glyph-name="atilde" unicode="&#xe3;" horiz-adv-x="563" 
d="M270 711c21 -8 42 -16 63 -16c24 0 28 17 29 34h119c-3 -78 -38 -139 -103 -139c-35 0 -60 8 -84 18c-20 7 -42 15 -63 15c-24 0 -28 -16 -29 -34h-119c3 77 39 139 103 139c35 0 60 -8 84 -17zM205 -11c-101 0 -173 61 -173 153v12c0 111 94 168 291 168h39v15
c0 48 -30 79 -88 79h-5c-48 0 -102 -16 -156 -51l-56 102c62 40 143 64 223 64h9c132 0 213 -74 213 -199v-213c0 -42 7 -80 18 -119h-139c-6 16 -11 37 -14 59c-38 -44 -98 -70 -162 -70zM243 102c44 0 88 20 119 55v78h-30c-108 0 -159 -24 -159 -72v-5
c0 -33 28 -56 70 -56z" />
    <glyph glyph-name="ae" unicode="&#xe6;" horiz-adv-x="872" 
d="M203 -10c-101 0 -171 60 -171 155c0 112 95 168 286 168h36c0 7 -1 22 -1 28c-4 47 -31 73 -87 73c-46 0 -100 -16 -153 -50l-56 102c62 41 140 64 218 64c62 0 117 -17 155 -62c43 39 101 62 168 62h9c139 0 238 -99 238 -237v-73h-357v-1c7 -68 56 -111 125 -111h5
c53 0 105 26 137 62l74 -93c-49 -51 -136 -88 -215 -88h-12c-82 0 -150 32 -196 84c-62 -62 -132 -83 -203 -83zM491 309h213v4c-2 67 -43 108 -99 108h-6c-56 0 -96 -42 -108 -112zM358 159c-4 12 -7 25 -9 39c-2 10 -2 19 -3 30h-18c-104 0 -155 -26 -155 -71
c0 -32 28 -54 70 -54s87 21 115 56z" />
    <glyph glyph-name="b" unicode="b" horiz-adv-x="625" 
d="M358 -11c-67 0 -124 25 -164 69c-3 -21 -7 -43 -13 -58h-118v720h149v-242c38 34 88 53 146 53h8c137 0 229 -104 229 -256v-30c0 -152 -92 -256 -229 -256h-8zM321 100h10c66 0 110 60 110 151v23c0 89 -44 146 -110 146h-10c-66 0 -110 -57 -110 -146v-23
c0 -91 44 -151 110 -151z" />
    <glyph glyph-name="c" unicode="c" horiz-adv-x="528" 
d="M285 -10c-151 0 -255 108 -255 257v28c0 147 108 255 251 255h9c91 0 167 -41 218 -115l-105 -75c-30 53 -63 76 -108 76h-6c-65 0 -105 -53 -105 -147v-18c0 -90 43 -144 109 -144h9c42 0 77 25 106 76l104 -80c-52 -74 -125 -113 -218 -113h-9z" />
    <glyph glyph-name="cacute" unicode="&#x107;" horiz-adv-x="528" 
d="M336 571h-111l57 164h130zM285 -10c-151 0 -255 108 -255 257v28c0 147 108 255 251 255h9c91 0 167 -41 218 -115l-105 -75c-30 53 -63 76 -108 76h-6c-65 0 -105 -53 -105 -147v-18c0 -90 43 -144 109 -144h9c42 0 77 25 106 76l104 -80c-52 -74 -125 -113 -218 -113
h-9z" />
    <glyph glyph-name="ccaron" unicode="&#x10d;" horiz-adv-x="528" 
d="M193 588l-112 131h130l55 -56h18l55 56h130l-112 -131h-164zM285 -10c-151 0 -255 108 -255 257v28c0 147 108 255 251 255h9c91 0 167 -41 218 -115l-105 -75c-30 53 -63 76 -108 76h-6c-65 0 -105 -53 -105 -147v-18c0 -90 43 -144 109 -144h9c42 0 77 25 106 76
l104 -80c-52 -74 -125 -113 -218 -113h-9z" />
    <glyph glyph-name="ccedilla" unicode="&#xe7;" horiz-adv-x="528" 
d="M268 -206c-33 0 -67 10 -93 26l30 73c9 -8 23 -16 41 -16c20 0 32 12 32 27c0 20 -14 35 -58 35l22 55c-127 18 -212 119 -212 253v28c0 147 108 255 251 255h9c91 0 167 -41 218 -115l-105 -75c-30 53 -63 76 -108 76h-6c-65 0 -105 -53 -105 -147v-18
c0 -90 43 -144 109 -144h9c42 0 77 25 106 76l104 -80c-47 -67 -112 -105 -193 -112l-9 -17c44 -8 70 -38 70 -79c0 -67 -56 -101 -112 -101z" />
    <glyph glyph-name="ccircumflex" unicode="&#x109;" horiz-adv-x="528" 
d="M482 588h-130l-55 55h-18l-55 -55h-130l112 131h164zM285 -10c-151 0 -255 108 -255 257v28c0 147 108 255 251 255h9c91 0 167 -41 218 -115l-105 -75c-30 53 -63 76 -108 76h-6c-65 0 -105 -53 -105 -147v-18c0 -90 43 -144 109 -144h9c42 0 77 25 106 76l104 -80
c-52 -74 -125 -113 -218 -113h-9z" />
    <glyph glyph-name="cdotaccent" unicode="&#x10b;" horiz-adv-x="528" 
d="M288 584c-51 0 -85 30 -85 75s34 77 85 77c52 0 88 -32 88 -77s-36 -75 -88 -75zM285 -10c-151 0 -255 108 -255 257v28c0 147 108 255 251 255h9c91 0 167 -41 218 -115l-105 -75c-30 53 -63 76 -108 76h-6c-65 0 -105 -53 -105 -147v-18c0 -90 43 -144 109 -144h9
c42 0 77 25 106 76l104 -80c-52 -74 -125 -113 -218 -113h-9z" />
    <glyph glyph-name="d" unicode="d" horiz-adv-x="626" 
d="M259 -11c-136 0 -229 104 -229 256v30c0 152 93 256 229 256h9c58 0 108 -19 146 -53v242h149v-720h-118c-6 15 -11 37 -14 58c-40 -44 -97 -69 -164 -69h-8zM295 100h9c67 0 110 60 110 151v23c0 89 -43 146 -110 146h-9c-66 0 -110 -57 -110 -146v-23
c0 -91 44 -151 110 -151z" />
    <glyph glyph-name="eth" unicode="&#xf0;" horiz-adv-x="591" 
d="M169 514l-36 71l96 48c-27 17 -56 34 -89 50l64 74c47 -20 91 -44 131 -72l118 59l38 -72l-87 -42c96 -89 156 -207 156 -354v-18c0 -162 -109 -269 -261 -269h-8c-151 0 -261 105 -261 251v17c0 146 106 251 232 251h8c38 0 74 -10 104 -28c-19 34 -44 67 -76 97z
M295 100h5c65 0 109 59 109 146v9c0 86 -44 145 -109 145h-5c-66 0 -110 -59 -110 -145v-9c0 -87 44 -146 110 -146z" />
    <glyph glyph-name="dcaron" unicode="&#x10f;" horiz-adv-x="665" 
d="M259 -11c-136 0 -229 104 -229 256v30c0 152 93 256 229 256h9c58 0 108 -19 146 -53v242h149v-720h-118c-6 15 -11 37 -14 58c-40 -44 -97 -69 -164 -69h-8zM625 549l8 171h123l-39 -171h-92zM295 100h9c67 0 110 60 110 151v23c0 89 -43 146 -110 146h-9
c-66 0 -110 -57 -110 -146v-23c0 -91 44 -151 110 -151z" />
    <glyph glyph-name="dcroat" unicode="&#x111;" horiz-adv-x="633" 
d="M260 -11c-137 0 -230 104 -230 256v30c0 152 93 256 230 256h8c59 0 111 -21 149 -56v103h-130v97h130v45h146v-45h56v-97h-56v-578h-118c-6 15 -11 37 -14 58c-39 -44 -96 -69 -163 -69h-8zM295 109h9c67 0 110 56 110 140v22c0 85 -43 140 -110 140h-9
c-67 0 -110 -55 -110 -140v-22c0 -85 43 -140 110 -140z" />
    <glyph glyph-name="e" unicode="e" horiz-adv-x="564" 
d="M292 -11c-157 0 -262 104 -262 260v19c0 154 106 262 256 262h13c140 0 238 -99 238 -237v-74h-362c7 -69 56 -111 127 -111h9c58 0 105 28 136 62l74 -93c-50 -51 -133 -88 -213 -88h-16zM179 310h217v3c-2 68 -42 108 -99 108h-10c-58 0 -97 -41 -108 -111z" />
    <glyph glyph-name="eacute" unicode="&#xe9;" horiz-adv-x="564" 
d="M342 571h-111l57 164h130zM292 -11c-157 0 -262 104 -262 260v19c0 154 106 262 256 262h13c140 0 238 -99 238 -237v-74h-362c7 -69 56 -111 127 -111h9c58 0 105 28 136 62l74 -93c-50 -51 -133 -88 -213 -88h-16zM179 310h217v3c-2 68 -42 108 -99 108h-10
c-58 0 -97 -41 -108 -111z" />
    <glyph glyph-name="ebreve" unicode="&#x115;" horiz-adv-x="564" 
d="M120 720h119c0 -31 20 -52 53 -52c34 0 53 21 53 52h119c0 -87 -66 -146 -172 -146c-105 0 -172 59 -172 146zM292 -11c-157 0 -262 104 -262 260v19c0 154 106 262 256 262h13c140 0 238 -99 238 -237v-74h-362c7 -69 56 -111 127 -111h9c58 0 105 28 136 62l74 -93
c-50 -51 -133 -88 -213 -88h-16zM179 310h217v3c-2 68 -42 108 -99 108h-10c-58 0 -97 -41 -108 -111z" />
    <glyph glyph-name="ecaron" unicode="&#x11b;" horiz-adv-x="564" 
d="M205 588l-112 131h130l55 -56h18l55 56h130l-112 -131h-164zM292 -11c-157 0 -262 104 -262 260v19c0 154 106 262 256 262h13c140 0 238 -99 238 -237v-74h-362c7 -69 56 -111 127 -111h9c58 0 105 28 136 62l74 -93c-50 -51 -133 -88 -213 -88h-16zM179 310h217v3
c-2 68 -42 108 -99 108h-10c-58 0 -97 -41 -108 -111z" />
    <glyph glyph-name="ecircumflex" unicode="&#xea;" horiz-adv-x="564" 
d="M488 588h-130l-55 55h-18l-55 -55h-130l112 131h164zM292 -11c-157 0 -262 104 -262 260v19c0 154 106 262 256 262h13c140 0 238 -99 238 -237v-74h-362c7 -69 56 -111 127 -111h9c58 0 105 28 136 62l74 -93c-50 -51 -133 -88 -213 -88h-16zM179 310h217v3
c-2 68 -42 108 -99 108h-10c-58 0 -97 -41 -108 -111z" />
    <glyph glyph-name="edieresis" unicode="&#xeb;" horiz-adv-x="564" 
d="M401 590c-44 0 -73 28 -73 69s29 69 73 69s77 -28 77 -69s-33 -69 -77 -69zM184 590c-45 0 -76 28 -76 69s31 69 76 69c41 0 74 -28 74 -69s-33 -69 -74 -69zM292 -11c-157 0 -262 104 -262 260v19c0 154 106 262 256 262h13c140 0 238 -99 238 -237v-74h-362
c7 -69 56 -111 127 -111h9c58 0 105 28 136 62l74 -93c-50 -51 -133 -88 -213 -88h-16zM179 310h217v3c-2 68 -42 108 -99 108h-10c-58 0 -97 -41 -108 -111z" />
    <glyph glyph-name="edotaccent" unicode="&#x117;" horiz-adv-x="564" 
d="M294 584c-51 0 -85 30 -85 75s34 77 85 77c52 0 88 -32 88 -77s-36 -75 -88 -75zM292 -11c-157 0 -262 104 -262 260v19c0 154 106 262 256 262h13c140 0 238 -99 238 -237v-74h-362c7 -69 56 -111 127 -111h9c58 0 105 28 136 62l74 -93c-50 -51 -133 -88 -213 -88h-16z
M179 310h217v3c-2 68 -42 108 -99 108h-10c-58 0 -97 -41 -108 -111z" />
    <glyph glyph-name="egrave" unicode="&#xe8;" horiz-adv-x="564" 
d="M245 571l-76 164h129l58 -164h-111zM292 -11c-157 0 -262 104 -262 260v19c0 154 106 262 256 262h13c140 0 238 -99 238 -237v-74h-362c7 -69 56 -111 127 -111h9c58 0 105 28 136 62l74 -93c-50 -51 -133 -88 -213 -88h-16zM179 310h217v3c-2 68 -42 108 -99 108h-10
c-58 0 -97 -41 -108 -111z" />
    <glyph glyph-name="emacron" unicode="&#x113;" horiz-adv-x="564" 
d="M144 600v106h299v-106h-299zM292 -11c-157 0 -262 104 -262 260v19c0 154 106 262 256 262h13c140 0 238 -99 238 -237v-74h-362c7 -69 56 -111 127 -111h9c58 0 105 28 136 62l74 -93c-50 -51 -133 -88 -213 -88h-16zM179 310h217v3c-2 68 -42 108 -99 108h-10
c-58 0 -97 -41 -108 -111z" />
    <glyph glyph-name="eogonek" unicode="&#x119;" horiz-adv-x="564" 
d="M447 169l74 -93c-32 -38 -80 -103 -80 -157c0 -24 11 -37 27 -37c15 0 31 5 43 15v-83c-25 -15 -53 -20 -79 -20c-62 0 -100 36 -100 92c0 39 22 80 54 114c-26 -7 -52 -11 -78 -11h-16c-157 0 -262 104 -262 260v19c0 154 106 262 256 262h13c140 0 238 -99 238 -237
v-74h-362c7 -68 56 -111 127 -111h9c58 0 105 26 136 61zM179 310h217v3c-2 68 -42 108 -99 108h-10c-58 0 -97 -41 -108 -111z" />
    <glyph glyph-name="f" unicode="f" horiz-adv-x="372" 
d="M84 0v403h-65v93c18 6 44 12 65 15v28c0 113 55 179 153 179c36 0 88 -8 119 -21v-111c-25 11 -53 17 -75 17c-40 0 -57 -21 -57 -75l1 -15h127v-110h-119v-403h-149z" />
    <glyph glyph-name="g" unicode="g" horiz-adv-x="551" 
d="M29 334v11c0 107 97 186 228 186h30c29 0 54 -5 77 -14c10 35 22 61 34 77h128l-65 -129c33 -32 53 -73 53 -120v-11c0 -105 -98 -184 -228 -184h-18c-7 0 -14 1 -20 2v-54c7 1 15 1 23 1h31c136 0 232 -60 232 -149v-10c0 -89 -99 -151 -233 -151h-43
c-135 0 -233 62 -233 152v13c0 60 44 108 112 133v87c-65 31 -108 90 -108 160zM174 342v-15c0 -49 41 -81 90 -81h15c48 0 90 33 90 81v15c0 49 -42 82 -90 82h-15c-49 0 -90 -32 -90 -82zM172 -46v-6c0 -33 34 -56 92 -56h32c59 0 94 24 94 56v6c0 33 -36 57 -94 57h-32
c-58 0 -92 -23 -92 -57z" />
    <glyph glyph-name="uni01F5" unicode="&#x1f5;" horiz-adv-x="550" 
d="M322 578h-111l57 164h130zM29 334v11c0 107 97 186 227 186h30c35 0 68 -6 97 -16c8 23 17 43 28 58h133l-65 -125c22 -29 35 -64 35 -103v-11c0 -108 -98 -186 -228 -186h-30h-7v-47h7h47c135 0 231 -61 231 -150v-10c0 -90 -99 -152 -233 -152h-43
c-135 0 -233 62 -233 152v14c0 58 43 106 111 131v88c-65 31 -107 89 -107 160zM174 342v-15c0 -49 41 -81 90 -81h15c48 0 90 33 90 81v15c0 49 -42 82 -90 82h-15c-49 0 -90 -32 -90 -82zM173 -42v-10c0 -30 35 -54 93 -54h30c59 0 94 25 94 54v10c0 30 -36 55 -94 55h-30
c-58 0 -93 -24 -93 -55z" />
    <glyph glyph-name="gbreve" unicode="&#x11f;" horiz-adv-x="551" 
d="M105 720h118c0 -28 20 -47 51 -47c29 0 49 19 49 47h118c0 -83 -68 -138 -169 -138s-167 55 -167 138zM29 334v11c0 107 97 186 228 186h30c31 0 57 -6 83 -15c7 23 16 42 27 57h133l-60 -116c28 -31 44 -68 44 -112v-11c0 -105 -98 -184 -228 -184h-19c-7 0 -13 1 -19 2
v-54c6 1 14 1 22 1h32c136 0 232 -60 232 -149v-10c0 -89 -99 -151 -233 -151h-43c-135 0 -233 62 -233 152v14c0 59 44 107 112 132v87c-65 31 -108 90 -108 160zM174 342v-15c0 -49 41 -81 90 -81h15c48 0 90 33 90 81v15c0 49 -42 82 -90 82h-15c-49 0 -90 -32 -90 -82z
M172 -45v-7c0 -33 34 -56 92 -56h32c59 0 94 24 94 56v7c0 33 -36 57 -94 57h-32c-58 0 -92 -24 -92 -57z" />
    <glyph glyph-name="gcircumflex" unicode="&#x11d;" horiz-adv-x="551" 
d="M461 598h-127l-55 50h-16l-54 -50h-127l107 119h164zM29 334v11c0 107 97 186 228 186h30c29 0 54 -5 77 -14c7 22 16 41 27 56h133l-58 -112c31 -31 48 -70 48 -116v-11c0 -105 -98 -184 -228 -184h-19c-7 0 -13 1 -19 2v-54c6 1 14 1 22 1h32c136 0 232 -60 232 -149
v-10c0 -89 -99 -151 -233 -151h-43c-135 0 -233 62 -233 152v14c0 59 44 107 112 132v87c-65 31 -108 90 -108 160zM174 342v-15c0 -49 41 -81 90 -81h15c48 0 90 33 90 81v15c0 49 -42 82 -90 82h-15c-49 0 -90 -32 -90 -82zM172 -45v-7c0 -33 34 -56 92 -56h32
c59 0 94 24 94 56v7c0 33 -36 57 -94 57h-32c-58 0 -92 -24 -92 -57z" />
    <glyph glyph-name="uni0123" unicode="&#x123;" horiz-adv-x="551" 
d="M341 744l-21 -167h-126l56 167h91zM29 334v11c0 107 97 186 228 186h30c29 0 54 -5 77 -14c7 22 16 41 27 56h133l-58 -112c31 -31 48 -70 48 -116v-11c0 -105 -98 -184 -228 -184h-19c-7 0 -13 1 -19 2v-54c6 1 14 1 22 1h32c136 0 232 -60 232 -149v-10
c0 -89 -99 -151 -233 -151h-43c-135 0 -233 62 -233 152v14c0 59 44 107 112 132v87c-65 31 -108 90 -108 160zM174 342v-15c0 -49 41 -81 90 -81h15c48 0 90 33 90 81v15c0 49 -42 82 -90 82h-15c-49 0 -90 -32 -90 -82zM172 -45v-7c0 -33 34 -56 92 -56h32
c59 0 94 24 94 56v7c0 33 -36 57 -94 57h-32c-58 0 -92 -24 -92 -57z" />
    <glyph glyph-name="gdotaccent" unicode="&#x121;" horiz-adv-x="551" 
d="M271 597c-48 0 -82 29 -82 72s34 74 82 74c49 0 84 -31 84 -74s-35 -72 -84 -72zM29 334v11c0 107 97 186 228 186h30c29 0 54 -5 77 -14c7 22 16 41 27 56h133l-58 -112c31 -31 48 -70 48 -116v-11c0 -105 -98 -184 -228 -184h-19c-7 0 -13 1 -19 2v-54c6 1 14 1 22 1
h32c136 0 232 -60 232 -149v-10c0 -89 -99 -151 -233 -151h-43c-135 0 -233 62 -233 152v14c0 59 44 107 112 132v87c-65 31 -108 90 -108 160zM174 342v-15c0 -49 41 -81 90 -81h15c48 0 90 33 90 81v15c0 49 -42 82 -90 82h-15c-49 0 -90 -32 -90 -82zM172 -45v-7
c0 -33 34 -56 92 -56h32c59 0 94 24 94 56v7c0 33 -36 57 -94 57h-32c-58 0 -92 -24 -92 -57z" />
    <glyph glyph-name="h" unicode="h" horiz-adv-x="613" 
d="M63 0v720h149v-259c44 44 104 70 170 70c112 0 177 -73 177 -198v-333h-149v301c0 71 -28 105 -88 105c-69 0 -110 -45 -110 -120v-286h-149z" />
    <glyph glyph-name="hbar" unicode="&#x127;" horiz-adv-x="630" 
d="M81 0v541h-67v99c18 6 44 11 67 14v66h149v-65h154v-115h-154v-141c42 40 99 63 163 63h2c117 0 182 -72 182 -198v-264h-149v232c0 74 -29 105 -87 105h-1c-69 0 -110 -37 -110 -116v-221h-149z" />
    <glyph glyph-name="hcircumflex" unicode="&#x125;" horiz-adv-x="613" 
d="M320 769h-128l-45 56h-18l-45 -56h-128l102 131h160zM63 0v720h149v-259c44 44 104 70 170 70c112 0 177 -73 177 -198v-333h-149v301c0 71 -28 105 -88 105c-69 0 -110 -45 -110 -120v-286h-149z" />
    <glyph glyph-name="i" unicode="i" horiz-adv-x="275" 
d="M138 584c-51 0 -85 30 -85 75s34 77 85 77c52 0 88 -32 88 -77s-36 -75 -88 -75zM63 0v520h149v-520h-149z" />
    <glyph glyph-name="dotlessi" unicode="&#x131;" horiz-adv-x="275" 
d="M63 0v520h149v-520h-149z" />
    <glyph glyph-name="iacute" unicode="&#xed;" horiz-adv-x="275" 
d="M186 571h-111l57 164h130zM63 0v520h149v-520h-149z" />
    <glyph glyph-name="ibreve" unicode="&#x12d;" horiz-adv-x="275" 
d="M137 670c26 0 44 20 44 50h119c0 -86 -64 -144 -163 -144c-97 0 -163 58 -163 144h120c0 -30 17 -50 43 -50zM63 0v520h149v-520h-149z" />
    <glyph glyph-name="icircumflex" unicode="&#xee;" horiz-adv-x="275" 
d="M315 586h-127l-41 56h-18l-41 -56h-127l98 132h158zM63 0v520h149v-520h-149z" />
    <glyph glyph-name="idieresis" unicode="&#xef;" horiz-adv-x="275" 
d="M220 590c-40 0 -67 27 -67 69s27 70 67 70c39 0 68 -28 68 -70s-29 -69 -68 -69zM54 590c-40 0 -68 27 -68 69s28 70 68 70c38 0 67 -28 67 -70s-29 -69 -67 -69zM63 0v520h149v-520h-149z" />
    <glyph glyph-name="igrave" unicode="&#xec;" horiz-adv-x="275" 
d="M89 571l-76 164h129l58 -164h-111zM63 0v520h149v-520h-149z" />
    <glyph glyph-name="ij" unicode="&#x133;" horiz-adv-x="543" 
d="M138 584c-51 0 -85 30 -85 75s34 77 85 77c52 0 88 -32 88 -77s-36 -75 -88 -75zM407 584c-51 0 -85 30 -85 75s34 77 85 77c52 0 88 -32 88 -77s-36 -75 -88 -75zM63 0v520h149v-520h-149zM324 -197c-33 0 -72 6 -104 18v122c17 -7 33 -12 52 -12c42 0 60 18 60 72v517
h149v-538c0 -114 -57 -179 -157 -179z" />
    <glyph glyph-name="imacron" unicode="&#x12b;" horiz-adv-x="275" 
d="M4 600v106h267v-106h-267zM63 0v520h149v-520h-149z" />
    <glyph glyph-name="iogonek" unicode="&#x12f;" horiz-adv-x="275" 
d="M138 584c-51 0 -85 30 -85 75s34 77 85 77c52 0 88 -32 88 -77s-36 -75 -88 -75zM63 0v520h149v-520c-27 -15 -65 -57 -65 -89c0 -19 9 -29 25 -29c14 0 29 5 39 15v-83c-24 -14 -52 -20 -75 -20c-61 0 -97 34 -97 89c0 43 25 86 66 117h-42z" />
    <glyph glyph-name="itilde" unicode="&#x129;" horiz-adv-x="275" 
d="M132 711c20 -8 42 -16 63 -16c24 0 28 17 29 34h120c-4 -78 -39 -139 -107 -139c-33 0 -60 9 -85 18c-20 8 -42 15 -63 15c-25 0 -29 -16 -30 -34h-119c3 77 39 139 106 139c35 0 60 -8 86 -17zM63 0v520h149v-520h-149z" />
    <glyph glyph-name="j" unicode="j" horiz-adv-x="278" 
d="M142 584c-51 0 -85 30 -85 75s34 77 85 77c52 0 88 -32 88 -77s-36 -75 -88 -75zM59 -197c-33 0 -72 6 -104 18v122c17 -7 33 -12 52 -12c42 0 60 18 60 72v517h149v-538c0 -114 -57 -179 -157 -179z" />
    <glyph glyph-name="uni0237" unicode="&#x237;" horiz-adv-x="278" 
d="M59 -197c-33 0 -72 6 -104 18v122c17 -7 33 -12 52 -12c42 0 60 18 60 72v517h149v-538c0 -114 -57 -179 -157 -179z" />
    <glyph glyph-name="jcircumflex" unicode="&#x135;" horiz-adv-x="278" 
d="M319 586h-127l-41 56h-18l-41 -56h-127l98 132h158zM59 -197c-33 0 -72 6 -104 18v122c17 -7 33 -12 52 -12c42 0 60 18 60 72v517h149v-538c0 -114 -57 -179 -157 -179z" />
    <glyph glyph-name="k" unicode="k" horiz-adv-x="563" 
d="M63 0v720h149v-414h9l171 214h163l-206 -239l208 -281h-173l-162 241h-10v-241h-149z" />
    <glyph glyph-name="uni0137" unicode="&#x137;" horiz-adv-x="563" 
d="M63 0v720h149v-414h9l171 214h163l-206 -239l208 -281h-173l-162 241h-10v-241h-149zM199 -195l36 155h126l-65 -155h-97z" />
    <glyph glyph-name="kgreenlandic" unicode="&#x138;" horiz-adv-x="563" 
d="M63 0v520h149v-214h9l171 214h163l-206 -239l208 -281h-173l-162 241h-10v-241h-149z" />
    <glyph glyph-name="l" unicode="l" horiz-adv-x="275" 
d="M63 0v720h149v-720h-149z" />
    <glyph glyph-name="lacute" unicode="&#x13a;" horiz-adv-x="275" 
d="M265 913l-81 -152h-113l55 152h139zM63 0v720h149v-720h-149z" />
    <glyph glyph-name="lcaron" unicode="&#x13e;" horiz-adv-x="314" 
d="M63 0v720h149v-720h-149zM274 549l8 171h123l-39 -171h-92z" />
    <glyph glyph-name="uni013C" unicode="&#x13c;" horiz-adv-x="275" 
d="M63 0v720h149v-720h-149zM42 -195l36 155h126l-65 -155h-97z" />
    <glyph glyph-name="ldot" unicode="&#x140;" horiz-adv-x="438" 
d="M59 0v720h149v-720h-149zM350 295c-50 0 -85 30 -85 75s35 77 85 77c52 0 88 -32 88 -77s-36 -75 -88 -75z" />
    <glyph glyph-name="lslash" unicode="&#x142;" horiz-adv-x="362" 
d="M28 248v109l79 38v325h149v-252l78 38v-109l-78 -38v-359h-149v286z" />
    <glyph glyph-name="m" unicode="m" horiz-adv-x="896" 
d="M63 0v520h118c7 -18 13 -48 15 -70c40 49 98 81 163 81h4c69 0 118 -31 144 -87c40 54 101 88 169 88h4c104 0 162 -71 162 -196v-336h-149v310c0 69 -22 97 -71 97h-3c-55 0 -92 -41 -92 -117v-290h-149v309c0 69 -22 97 -72 97h-3c-55 0 -91 -41 -91 -117v-289h-149z
" />
    <glyph glyph-name="n" unicode="n" horiz-adv-x="613" 
d="M63 0v520h118c7 -20 15 -54 16 -77c44 54 108 88 182 88h4c112 0 176 -72 176 -198v-333h-149v301c0 70 -26 105 -84 105h-5c-65 0 -109 -50 -109 -126v-280h-149z" />
    <glyph glyph-name="nacute" unicode="&#x144;" horiz-adv-x="613" 
d="M357 571h-111l57 164h130zM63 0v520h118c7 -20 15 -54 16 -77c44 54 108 88 182 88h4c112 0 176 -72 176 -198v-333h-149v301c0 70 -26 105 -84 105h-5c-65 0 -109 -50 -109 -126v-280h-149z" />
    <glyph glyph-name="napostrophe" unicode="&#x149;" horiz-adv-x="800" 
d="M31 402l86 298h141l-113 -298h-114zM249 0v520h118c7 -20 15 -54 16 -77c44 54 108 88 182 88h4c112 0 176 -72 176 -198v-333h-149v301c0 70 -26 105 -84 105h-5c-65 0 -109 -50 -109 -126v-280h-149z" />
    <glyph glyph-name="ncaron" unicode="&#x148;" horiz-adv-x="613" 
d="M227 588l-112 131h130l55 -56h18l55 56h130l-112 -131h-164zM63 0v520h118c7 -20 15 -54 16 -77c44 54 108 88 182 88h4c112 0 176 -72 176 -198v-333h-149v301c0 70 -26 105 -84 105h-5c-65 0 -109 -50 -109 -126v-280h-149z" />
    <glyph glyph-name="uni0146" unicode="&#x146;" horiz-adv-x="613" 
d="M63 0v520h118c7 -20 15 -54 16 -77c44 54 108 88 182 88h4c112 0 176 -72 176 -198v-333h-149v301c0 70 -26 105 -84 105h-5c-65 0 -109 -50 -109 -126v-280h-149zM217 -195l36 155h126l-65 -155h-97z" />
    <glyph glyph-name="eng" unicode="&#x14b;" horiz-adv-x="622" 
d="M403 -208c-34 0 -71 6 -104 18v123c17 -8 34 -13 52 -13c42 0 59 19 59 73v308c0 70 -26 105 -85 105h-4c-65 0 -109 -50 -109 -127v-279h-149v520h118c7 -20 15 -54 16 -77c44 54 108 88 182 88h4c113 0 176 -72 176 -198v-361c0 -115 -57 -180 -156 -180z" />
    <glyph glyph-name="ntilde" unicode="&#xf1;" horiz-adv-x="613" 
d="M300 711c21 -8 42 -16 63 -16c24 0 28 17 29 34h119c-3 -78 -38 -139 -103 -139c-35 0 -60 8 -84 18c-20 7 -42 15 -63 15c-24 0 -28 -16 -29 -34h-119c3 77 39 139 103 139c35 0 60 -8 84 -17zM63 0v520h118c7 -20 15 -54 16 -77c44 54 108 88 182 88h4
c112 0 176 -72 176 -198v-333h-149v301c0 70 -26 105 -84 105h-5c-65 0 -109 -50 -109 -126v-280h-149z" />
    <glyph glyph-name="o" unicode="o" 
d="M294 -11c-156 0 -264 105 -264 256v30c0 151 108 256 264 256h10c156 0 264 -105 264 -256v-30c0 -151 -108 -256 -264 -256h-10zM294 100h10c66 0 110 60 110 151v23c0 89 -44 146 -110 146h-10c-66 0 -110 -57 -110 -146v-23c0 -91 44 -151 110 -151z" />
    <glyph glyph-name="oacute" unicode="&#xf3;" 
d="M348 571h-111l57 164h130zM294 -11c-156 0 -264 105 -264 256v30c0 151 108 256 264 256h10c156 0 264 -105 264 -256v-30c0 -151 -108 -256 -264 -256h-10zM294 100h10c66 0 110 60 110 151v23c0 89 -44 146 -110 146h-10c-66 0 -110 -57 -110 -146v-23
c0 -91 44 -151 110 -151z" />
    <glyph glyph-name="obreve" unicode="&#x14f;" 
d="M126 720h119c0 -31 20 -52 53 -52c34 0 53 21 53 52h119c0 -87 -66 -146 -172 -146c-105 0 -172 59 -172 146zM294 -11c-156 0 -264 105 -264 256v30c0 151 108 256 264 256h10c156 0 264 -105 264 -256v-30c0 -151 -108 -256 -264 -256h-10zM294 100h10
c66 0 110 60 110 151v23c0 89 -44 146 -110 146h-10c-66 0 -110 -57 -110 -146v-23c0 -91 44 -151 110 -151z" />
    <glyph glyph-name="ocircumflex" unicode="&#xf4;" 
d="M494 588h-130l-55 55h-18l-55 -55h-130l112 131h164zM294 -11c-156 0 -264 105 -264 256v30c0 151 108 256 264 256h10c156 0 264 -105 264 -256v-30c0 -151 -108 -256 -264 -256h-10zM294 100h10c66 0 110 60 110 151v23c0 89 -44 146 -110 146h-10
c-66 0 -110 -57 -110 -146v-23c0 -91 44 -151 110 -151z" />
    <glyph glyph-name="odieresis" unicode="&#xf6;" 
d="M407 590c-44 0 -73 28 -73 69s29 69 73 69s77 -28 77 -69s-33 -69 -77 -69zM190 590c-45 0 -76 28 -76 69s31 69 76 69c41 0 74 -28 74 -69s-33 -69 -74 -69zM294 -11c-156 0 -264 105 -264 256v30c0 151 108 256 264 256h10c156 0 264 -105 264 -256v-30
c0 -151 -108 -256 -264 -256h-10zM294 100h10c66 0 110 60 110 151v23c0 89 -44 146 -110 146h-10c-66 0 -110 -57 -110 -146v-23c0 -91 44 -151 110 -151z" />
    <glyph glyph-name="ograve" unicode="&#xf2;" 
d="M250 571l-76 164h129l58 -164h-111zM294 -11c-156 0 -264 105 -264 256v30c0 151 108 256 264 256h10c156 0 264 -105 264 -256v-30c0 -151 -108 -256 -264 -256h-10zM294 100h10c66 0 110 60 110 151v23c0 89 -44 146 -110 146h-10c-66 0 -110 -57 -110 -146v-23
c0 -91 44 -151 110 -151z" />
    <glyph glyph-name="ohungarumlaut" unicode="&#x151;" 
d="M154 571l47 164h130l-67 -164h-110zM335 571l47 164h130l-67 -164h-110zM294 -11c-156 0 -264 105 -264 256v30c0 151 108 256 264 256h10c156 0 264 -105 264 -256v-30c0 -151 -108 -256 -264 -256h-10zM294 100h10c66 0 110 60 110 151v23c0 89 -44 146 -110 146h-10
c-66 0 -110 -57 -110 -146v-23c0 -91 44 -151 110 -151z" />
    <glyph glyph-name="omacron" unicode="&#x14d;" 
d="M150 600v106h299v-106h-299zM294 -11c-156 0 -264 105 -264 256v30c0 151 108 256 264 256h10c156 0 264 -105 264 -256v-30c0 -151 -108 -256 -264 -256h-10zM294 100h10c66 0 110 60 110 151v23c0 89 -44 146 -110 146h-10c-66 0 -110 -57 -110 -146v-23
c0 -91 44 -151 110 -151z" />
    <glyph glyph-name="oslash" unicode="&#xf8;" 
d="M66 -42l52 90c-55 46 -88 114 -88 197v30c0 151 108 256 264 256h10c35 0 67 -5 96 -15l26 44h107l-51 -89c54 -45 86 -114 86 -196v-30c0 -151 -108 -256 -264 -256h-10c-33 0 -64 5 -93 14l-27 -45h-108zM195 155l157 260c-14 6 -30 9 -47 9h-11
c-73 0 -121 -58 -121 -149v-24c0 -38 7 -71 22 -96zM294 96h11c73 0 121 61 121 155v24c0 36 -8 66 -21 91l-158 -261c14 -6 30 -9 47 -9z" />
    <glyph glyph-name="otilde" unicode="&#xf5;" 
d="M291 711c21 -8 42 -16 63 -16c24 0 28 17 29 34h119c-3 -78 -38 -139 -103 -139c-35 0 -60 8 -84 18c-20 7 -42 15 -63 15c-24 0 -28 -16 -29 -34h-119c3 77 39 139 103 139c35 0 60 -8 84 -17zM294 -11c-156 0 -264 105 -264 256v30c0 151 108 256 264 256h10
c156 0 264 -105 264 -256v-30c0 -151 -108 -256 -264 -256h-10zM294 100h10c66 0 110 60 110 151v23c0 89 -44 146 -110 146h-10c-66 0 -110 -57 -110 -146v-23c0 -91 44 -151 110 -151z" />
    <glyph glyph-name="oe" unicode="&#x153;" horiz-adv-x="944" 
d="M679 -11c-79 0 -144 31 -188 82c-45 -51 -112 -82 -193 -82h-8c-152 0 -260 106 -260 256v30c0 150 108 256 260 256h8c82 0 150 -31 195 -83c43 51 107 82 183 82h8c136 0 233 -99 233 -237v-74h-358c8 -67 57 -111 125 -111h6c55 0 106 28 137 62l74 -93
c-49 -51 -133 -88 -209 -88h-13zM564 310h212v3c-2 68 -43 108 -100 108h-3c-57 0 -97 -41 -109 -111zM297 100h7c66 0 112 60 112 151v23c0 88 -46 146 -112 146h-7c-67 0 -112 -58 -112 -146v-23c0 -91 45 -151 112 -151z" />
    <glyph glyph-name="p" unicode="p" horiz-adv-x="625" 
d="M62 -200v720h118c6 -15 11 -38 14 -58c39 43 96 69 163 69h9c136 0 229 -104 229 -256v-30c0 -152 -93 -256 -229 -256h-9c-58 0 -108 19 -146 53v-242h-149zM321 100h9c67 0 110 60 110 151v23c0 89 -43 146 -110 146h-9c-67 0 -110 -58 -110 -146v-23
c0 -91 44 -151 110 -151z" />
    <glyph glyph-name="thorn" unicode="&#xfe;" horiz-adv-x="636" 
d="M63 -190v910h149v-247c39 36 91 58 151 58h8c135 0 235 -110 235 -256v-30c0 -146 -100 -256 -235 -256h-8c-60 0 -112 22 -151 58v-237h-149zM327 109h9c70 0 116 59 116 140v22c0 81 -46 140 -116 140h-9c-69 0 -115 -59 -115 -140v-22c0 -81 46 -140 115 -140z" />
    <glyph glyph-name="q" unicode="q" horiz-adv-x="626" 
d="M414 -200v242c-38 -34 -88 -53 -146 -53h-8c-137 0 -230 104 -230 256v30c0 152 93 256 230 256h8c67 0 124 -26 163 -69c3 20 9 43 14 58h118v-720h-149zM295 100h10c66 0 110 60 110 151v23c0 89 -44 146 -110 146h-10c-66 0 -110 -57 -110 -146v-23
c0 -91 44 -151 110 -151z" />
    <glyph glyph-name="r" unicode="r" horiz-adv-x="385" 
d="M63 0v520h117c7 -20 14 -50 15 -72c38 45 93 72 157 72h15v-140c-11 3 -28 5 -43 5c-72 0 -112 -40 -112 -111v-274h-149z" />
    <glyph glyph-name="racute" unicode="&#x155;" horiz-adv-x="385" 
d="M273 571h-111l57 164h130zM63 0v520h117c7 -20 14 -50 15 -72c38 45 93 72 157 72h15v-140c-11 3 -28 5 -43 5c-72 0 -112 -40 -112 -111v-274h-149z" />
    <glyph glyph-name="rcaron" unicode="&#x159;" horiz-adv-x="385" 
d="M48 718h127l41 -56h18l41 56h127l-98 -132h-158zM63 0v520h117c7 -20 14 -50 15 -72c38 45 93 72 157 72h15v-140c-11 3 -28 5 -43 5c-72 0 -112 -40 -112 -111v-274h-149z" />
    <glyph glyph-name="uni0157" unicode="&#x157;" horiz-adv-x="385" 
d="M63 0v520h117c7 -20 14 -50 15 -72c38 45 93 72 157 72h15v-140c-11 3 -28 5 -43 5c-72 0 -112 -40 -112 -111v-274h-149zM42 -195l36 155h126l-65 -155h-97z" />
    <glyph glyph-name="s" unicode="s" horiz-adv-x="487" 
d="M263 -12c-96 0 -178 26 -245 74l70 106c41 -37 112 -62 169 -62c44 0 69 16 69 46c0 45 -52 41 -156 79c-63 20 -124 55 -124 143c0 86 74 158 186 158c85 0 160 -25 217 -67l-70 -101c-38 31 -92 51 -140 51c-39 0 -61 -14 -61 -43c0 -38 53 -45 115 -60
c80 -20 173 -52 173 -161c0 -99 -80 -163 -203 -163z" />
    <glyph glyph-name="sacute" unicode="&#x15b;" horiz-adv-x="487" 
d="M288 571h-111l57 164h130zM263 -12c-96 0 -178 26 -245 74l70 106c41 -37 112 -62 169 -62c44 0 69 16 69 46c0 45 -52 41 -156 79c-63 20 -124 55 -124 143c0 86 74 158 186 158c85 0 160 -25 217 -67l-70 -101c-38 31 -92 51 -140 51c-39 0 -61 -14 -61 -43
c0 -38 53 -45 115 -60c80 -20 173 -52 173 -161c0 -99 -80 -163 -203 -163z" />
    <glyph glyph-name="scaron" unicode="&#x161;" horiz-adv-x="487" 
d="M160 588l-112 131h130l55 -56h18l55 56h130l-112 -131h-164zM263 -12c-96 0 -178 26 -245 74l70 106c41 -37 112 -62 169 -62c44 0 69 16 69 46c0 45 -52 41 -156 79c-63 20 -124 55 -124 143c0 86 74 158 186 158c85 0 160 -25 217 -67l-70 -101c-38 31 -92 51 -140 51
c-39 0 -61 -14 -61 -43c0 -38 53 -45 115 -60c80 -20 173 -52 173 -161c0 -99 -80 -163 -203 -163z" />
    <glyph glyph-name="scedilla" unicode="&#x15f;" horiz-adv-x="487" 
d="M240 -206c-33 0 -67 10 -93 26l30 73c9 -8 23 -16 41 -16c20 0 32 12 32 27c0 20 -14 35 -58 35l21 52c-75 7 -140 32 -195 71l70 106c41 -37 112 -62 169 -62c44 0 69 16 69 46c0 45 -52 41 -156 79c-63 20 -124 55 -124 143c0 86 74 158 186 158c85 0 160 -25 217 -67
l-70 -101c-38 31 -92 51 -140 51c-39 0 -61 -14 -61 -43c0 -38 53 -45 115 -60c80 -20 173 -52 173 -161c0 -91 -68 -153 -176 -161l-8 -16c44 -8 70 -38 70 -79c0 -67 -56 -101 -112 -101z" />
    <glyph glyph-name="scircumflex" unicode="&#x15d;" horiz-adv-x="487" 
d="M434 588h-130l-55 55h-18l-55 -55h-130l112 131h164zM263 -12c-96 0 -178 26 -245 74l70 106c41 -37 112 -62 169 -62c44 0 69 16 69 46c0 45 -52 41 -156 79c-63 20 -124 55 -124 143c0 86 74 158 186 158c85 0 160 -25 217 -67l-70 -101c-38 31 -92 51 -140 51
c-39 0 -61 -14 -61 -43c0 -38 53 -45 115 -60c80 -20 173 -52 173 -161c0 -99 -80 -163 -203 -163z" />
    <glyph glyph-name="uni0219" unicode="&#x219;" horiz-adv-x="487" 
d="M263 -12c-96 0 -178 26 -245 74l70 106c41 -37 112 -62 169 -62c44 0 69 16 69 46c0 45 -52 41 -156 79c-63 20 -124 55 -124 143c0 86 74 158 186 158c85 0 160 -25 217 -67l-70 -101c-38 31 -92 51 -140 51c-39 0 -61 -14 -61 -43c0 -38 53 -45 115 -60
c80 -20 173 -52 173 -161c0 -99 -80 -163 -203 -163zM159 -195l36 155h126l-65 -155h-97z" />
    <glyph glyph-name="germandbls" unicode="&#xdf;" horiz-adv-x="596" 
d="M367 -11c-40 0 -86 9 -113 22v114c15 -6 43 -11 64 -11c61 0 101 41 101 106c0 64 -39 107 -99 107h-52v93h44c46 0 76 40 76 91c0 55 -35 91 -88 91c-56 0 -93 -39 -93 -100v-502h-149v509c0 125 96 209 242 209c140 0 233 -77 233 -191c0 -59 -24 -108 -66 -141
c63 -36 100 -103 100 -189c0 -125 -79 -208 -200 -208z" />
    <glyph glyph-name="t" unicode="t" horiz-adv-x="394" 
d="M243 -7c-95 0 -158 53 -158 170v242h-68v99c18 6 45 13 68 15v121l148 18v-138h136v-115h-137v-214c0 -54 20 -73 58 -73c23 0 62 7 82 11v-113c-34 -15 -91 -23 -129 -23z" />
    <glyph glyph-name="tbar" unicode="&#x167;" horiz-adv-x="394" 
d="M22 231v99h58v75h-68v99c18 6 45 13 68 15v121l148 18v-138h136v-115h-137v-75h117v-99h-117v-40c0 -54 20 -73 58 -73c23 0 62 7 82 11v-113c-34 -15 -91 -23 -129 -23c-95 0 -158 53 -158 170v68h-58z" />
    <glyph glyph-name="tcaron" unicode="&#x165;" horiz-adv-x="409" 
d="M308 552l8 171h123l-39 -171h-92zM243 -7c-95 0 -158 53 -158 170v242h-68v99c18 6 45 13 68 15v121l148 18v-138h136v-115h-137v-214c0 -54 20 -73 58 -73c23 0 62 7 82 11v-113c-34 -15 -91 -23 -129 -23z" />
    <glyph glyph-name="uni0163" unicode="&#x163;" horiz-adv-x="394" 
d="M221 -206c-33 0 -67 10 -93 26l30 73c9 -8 23 -16 41 -16c20 0 32 12 32 27c0 20 -14 35 -58 35l24 59c-69 15 -112 68 -112 165v242h-68v99c18 6 45 13 68 15v121l148 18v-138h136v-115h-137v-214c0 -54 20 -73 58 -73c23 0 62 7 82 11v-113c-26 -12 -64 -19 -98 -21
l-11 -21c44 -8 70 -38 70 -79c0 -67 -56 -101 -112 -101z" />
    <glyph glyph-name="uni021B" unicode="&#x21b;" horiz-adv-x="394" 
d="M243 -7c-95 0 -158 53 -158 170v242h-68v99c18 6 45 13 68 15v121l148 18v-138h136v-115h-137v-214c0 -54 20 -73 58 -73c23 0 62 7 82 11v-113c-34 -15 -91 -23 -129 -23zM146 -195l36 155h126l-65 -155h-97z" />
    <glyph glyph-name="u" unicode="u" horiz-adv-x="607" 
d="M228 -11c-111 0 -174 72 -174 198v333h149v-300c0 -71 26 -106 82 -106h4c64 0 106 50 106 127v279h149v-520h-118c-6 19 -13 52 -15 76c-43 -53 -106 -87 -179 -87h-4z" />
    <glyph glyph-name="uacute" unicode="&#xfa;" horiz-adv-x="607" 
d="M347 571h-111l57 164h130zM228 -11c-111 0 -174 72 -174 198v333h149v-300c0 -71 26 -106 82 -106h4c64 0 106 50 106 127v279h149v-520h-118c-6 19 -13 52 -15 76c-43 -53 -106 -87 -179 -87h-4z" />
    <glyph glyph-name="ubreve" unicode="&#x16d;" horiz-adv-x="607" 
d="M125 720h119c0 -31 20 -52 53 -52c34 0 53 21 53 52h119c0 -87 -66 -146 -172 -146c-105 0 -172 59 -172 146zM228 -11c-111 0 -174 72 -174 198v333h149v-300c0 -71 26 -106 82 -106h4c64 0 106 50 106 127v279h149v-520h-118c-6 19 -13 52 -15 76
c-43 -53 -106 -87 -179 -87h-4z" />
    <glyph glyph-name="ucircumflex" unicode="&#xfb;" horiz-adv-x="607" 
d="M493 588h-130l-55 55h-18l-55 -55h-130l112 131h164zM228 -11c-111 0 -174 72 -174 198v333h149v-300c0 -71 26 -106 82 -106h4c64 0 106 50 106 127v279h149v-520h-118c-6 19 -13 52 -15 76c-43 -53 -106 -87 -179 -87h-4z" />
    <glyph glyph-name="udieresis" unicode="&#xfc;" horiz-adv-x="607" 
d="M406 590c-44 0 -73 28 -73 69s29 69 73 69s77 -28 77 -69s-33 -69 -77 -69zM189 590c-45 0 -76 28 -76 69s31 69 76 69c41 0 74 -28 74 -69s-33 -69 -74 -69zM228 -11c-111 0 -174 72 -174 198v333h149v-300c0 -71 26 -106 82 -106h4c64 0 106 50 106 127v279h149v-520
h-118c-6 19 -13 52 -15 76c-43 -53 -106 -87 -179 -87h-4z" />
    <glyph glyph-name="ugrave" unicode="&#xf9;" horiz-adv-x="607" 
d="M250 571l-76 164h129l58 -164h-111zM228 -11c-111 0 -174 72 -174 198v333h149v-300c0 -71 26 -106 82 -106h4c64 0 106 50 106 127v279h149v-520h-118c-6 19 -13 52 -15 76c-43 -53 -106 -87 -179 -87h-4z" />
    <glyph glyph-name="uhungarumlaut" unicode="&#x171;" horiz-adv-x="607" 
d="M153 571l47 164h130l-67 -164h-110zM334 571l47 164h130l-67 -164h-110zM228 -11c-111 0 -174 72 -174 198v333h149v-300c0 -71 26 -106 82 -106h4c64 0 106 50 106 127v279h149v-520h-118c-6 19 -13 52 -15 76c-43 -53 -106 -87 -179 -87h-4z" />
    <glyph glyph-name="umacron" unicode="&#x16b;" horiz-adv-x="607" 
d="M149 600v106h299v-106h-299zM228 -11c-111 0 -174 72 -174 198v333h149v-300c0 -71 26 -106 82 -106h4c64 0 106 50 106 127v279h149v-520h-118c-6 19 -13 52 -15 76c-43 -53 -106 -87 -179 -87h-4z" />
    <glyph glyph-name="uogonek" unicode="&#x173;" horiz-adv-x="607" 
d="M228 -11c-111 0 -174 72 -174 198v333h149v-300c0 -71 26 -106 82 -106h4c64 0 106 50 106 127v279h149v-520h1c-27 -15 -65 -57 -65 -89c0 -19 9 -29 25 -29c14 0 29 5 39 15v-83c-24 -14 -52 -20 -75 -20c-61 0 -97 34 -97 89c0 43 25 86 66 117h-12
c-6 19 -13 52 -15 76c-43 -53 -106 -87 -179 -87h-4z" />
    <glyph glyph-name="uring" unicode="&#x16f;" horiz-adv-x="607" 
d="M298 570c-65 0 -111 40 -111 95c0 60 46 100 111 100c63 0 109 -41 109 -100c0 -55 -45 -95 -109 -95zM297 632c23 0 39 14 39 35s-16 37 -39 37s-39 -16 -39 -37s16 -35 39 -35zM228 -11c-111 0 -174 72 -174 198v333h149v-300c0 -71 26 -106 82 -106h4
c64 0 106 50 106 127v279h149v-520h-118c-6 19 -13 52 -15 76c-43 -53 -106 -87 -179 -87h-4z" />
    <glyph glyph-name="utilde" unicode="&#x169;" horiz-adv-x="607" 
d="M290 711c21 -8 42 -16 63 -16c24 0 28 17 29 34h119c-3 -78 -38 -139 -103 -139c-35 0 -60 8 -84 18c-20 7 -42 15 -63 15c-24 0 -28 -16 -29 -34h-119c3 77 39 139 103 139c35 0 60 -8 84 -17zM228 -11c-111 0 -174 72 -174 198v333h149v-300c0 -71 26 -106 82 -106h4
c64 0 106 50 106 127v279h149v-520h-118c-6 19 -13 52 -15 76c-43 -53 -106 -87 -179 -87h-4z" />
    <glyph glyph-name="v" unicode="v" horiz-adv-x="544" 
d="M179 0l-173 520h156l105 -390h10l105 390h156l-173 -520h-186z" />
    <glyph glyph-name="w" unicode="w" horiz-adv-x="793" 
d="M129 0l-113 520h148l62 -362h10l95 362h131l95 -362h10l61 362h149l-113 -520h-171l-95 336h-4l-94 -336h-171z" />
    <glyph glyph-name="wacute" unicode="&#x1e83;" horiz-adv-x="793" 
d="M445 571h-111l57 164h130zM129 0l-113 520h148l62 -362h10l95 362h131l95 -362h10l61 362h149l-113 -520h-171l-95 336h-4l-94 -336h-171z" />
    <glyph glyph-name="wcircumflex" unicode="&#x175;" horiz-adv-x="793" 
d="M591 588h-130l-55 55h-18l-55 -55h-130l112 131h164zM129 0l-113 520h148l62 -362h10l95 362h131l95 -362h10l61 362h149l-113 -520h-171l-95 336h-4l-94 -336h-171z" />
    <glyph glyph-name="wdieresis" unicode="&#x1e85;" horiz-adv-x="793" 
d="M504 590c-44 0 -73 28 -73 69s29 69 73 69s77 -28 77 -69s-33 -69 -77 -69zM287 590c-45 0 -76 28 -76 69s31 69 76 69c41 0 74 -28 74 -69s-33 -69 -74 -69zM129 0l-113 520h148l62 -362h10l95 362h131l95 -362h10l61 362h149l-113 -520h-171l-95 336h-4l-94 -336h-171z
" />
    <glyph glyph-name="wgrave" unicode="&#x1e81;" horiz-adv-x="793" 
d="M347 571l-76 164h129l58 -164h-111zM129 0l-113 520h148l62 -362h10l95 362h131l95 -362h10l61 362h149l-113 -520h-171l-95 336h-4l-94 -336h-171z" />
    <glyph glyph-name="x" unicode="x" horiz-adv-x="547" 
d="M8 0l169 268v4l-162 248h164l94 -167h6l91 167h162l-161 -248v-4l168 -268h-164l-100 184h-6l-100 -184h-161z" />
    <glyph glyph-name="y" unicode="y" horiz-adv-x="547" 
d="M155 -204c-33 0 -72 6 -102 20v126c21 -14 48 -23 76 -23c36 0 68 20 88 60l-213 541h155l132 -382h7l99 382h150l-175 -548c-36 -110 -106 -176 -217 -176z" />
    <glyph glyph-name="yacute" unicode="&#xfd;" horiz-adv-x="547" 
d="M328 571h-111l57 164h130zM155 -204c-33 0 -72 6 -102 20v126c21 -14 48 -23 76 -23c36 0 68 20 88 60l-213 541h155l132 -382h7l99 382h150l-175 -548c-36 -110 -106 -176 -217 -176z" />
    <glyph glyph-name="ycircumflex" unicode="&#x177;" horiz-adv-x="547" 
d="M474 588h-130l-55 55h-18l-55 -55h-130l112 131h164zM155 -204c-33 0 -72 6 -102 20v126c21 -14 48 -23 76 -23c36 0 68 20 88 60l-213 541h155l132 -382h7l99 382h150l-175 -548c-36 -110 -106 -176 -217 -176z" />
    <glyph glyph-name="ydieresis" unicode="&#xff;" horiz-adv-x="547" 
d="M387 590c-44 0 -73 28 -73 69s29 69 73 69s77 -28 77 -69s-33 -69 -77 -69zM170 590c-45 0 -76 28 -76 69s31 69 76 69c41 0 74 -28 74 -69s-33 -69 -74 -69zM155 -204c-33 0 -72 6 -102 20v126c21 -14 48 -23 76 -23c36 0 68 20 88 60l-213 541h155l132 -382h7l99 382
h150l-175 -548c-36 -110 -106 -176 -217 -176z" />
    <glyph glyph-name="z" unicode="z" horiz-adv-x="484" 
d="M23 0v108l252 291v6h-236v115h411v-108l-252 -291v-6h262v-115h-437z" />
    <glyph glyph-name="zacute" unicode="&#x17a;" horiz-adv-x="484" 
d="M290 571h-111l57 164h130zM23 0v108l252 291v6h-236v115h411v-108l-252 -291v-6h262v-115h-437z" />
    <glyph glyph-name="zcaron" unicode="&#x17e;" horiz-adv-x="484" 
d="M160 588l-112 131h130l55 -56h18l55 56h130l-112 -131h-164zM23 0v108l252 291v6h-236v115h411v-108l-252 -291v-6h262v-115h-437z" />
    <glyph glyph-name="zdotaccent" unicode="&#x17c;" horiz-adv-x="484" 
d="M242 584c-51 0 -85 30 -85 75s34 77 85 77c52 0 88 -32 88 -77s-36 -75 -88 -75zM23 0v108l252 291v6h-236v115h411v-108l-252 -291v-6h262v-115h-437z" />
    <glyph glyph-name="a.ss01" horiz-adv-x="604" 
d="M234 -10c-124 0 -201 91 -201 241v23c0 164 112 277 272 277h9c90 0 179 -36 232 -90v-441h-118c-7 21 -15 59 -16 83v3c-32 -58 -95 -96 -168 -96h-10zM283 108h7c60 0 109 60 109 137v152c-18 14 -52 22 -85 22h-3c-72 0 -124 -62 -124 -160v-14c0 -84 34 -137 96 -137
z" />
    <glyph glyph-name="aacute.ss01" horiz-adv-x="604" 
d="M359 571h-111l57 164h130zM234 -10c-124 0 -201 91 -201 241v23c0 164 112 277 272 277h9c90 0 179 -36 232 -90v-441h-118c-7 21 -15 59 -16 83v3c-32 -58 -95 -96 -168 -96h-10zM283 108h7c60 0 109 60 109 137v152c-18 14 -52 22 -85 22h-3c-72 0 -124 -62 -124 -160
v-14c0 -84 34 -137 96 -137z" />
    <glyph glyph-name="abreve.ss01" horiz-adv-x="604" 
d="M137 720h119c0 -31 20 -52 53 -52c34 0 53 21 53 52h119c0 -87 -66 -146 -172 -146c-105 0 -172 59 -172 146zM234 -10c-124 0 -201 91 -201 241v23c0 164 112 277 272 277h9c90 0 179 -36 232 -90v-441h-118c-7 21 -15 59 -16 83v3c-32 -58 -95 -96 -168 -96h-10z
M283 108h7c60 0 109 60 109 137v152c-18 14 -52 22 -85 22h-3c-72 0 -124 -62 -124 -160v-14c0 -84 34 -137 96 -137z" />
    <glyph glyph-name="acircumflex.ss01" horiz-adv-x="604" 
d="M505 588h-130l-55 55h-18l-55 -55h-130l112 131h164zM234 -10c-124 0 -201 91 -201 241v23c0 164 112 277 272 277h9c90 0 179 -36 232 -90v-441h-118c-7 21 -15 59 -16 83v3c-32 -58 -95 -96 -168 -96h-10zM283 108h7c60 0 109 60 109 137v152c-18 14 -52 22 -85 22h-3
c-72 0 -124 -62 -124 -160v-14c0 -84 34 -137 96 -137z" />
    <glyph glyph-name="adieresis.ss01" horiz-adv-x="604" 
d="M418 590c-44 0 -73 28 -73 69s29 69 73 69s77 -28 77 -69s-33 -69 -77 -69zM201 590c-45 0 -76 28 -76 69s31 69 76 69c41 0 74 -28 74 -69s-33 -69 -74 -69zM234 -10c-124 0 -201 91 -201 241v23c0 164 112 277 272 277h9c90 0 179 -36 232 -90v-441h-118
c-7 21 -15 59 -16 83v3c-32 -58 -95 -96 -168 -96h-10zM283 108h7c60 0 109 60 109 137v152c-18 14 -52 22 -85 22h-3c-72 0 -124 -62 -124 -160v-14c0 -84 34 -137 96 -137z" />
    <glyph glyph-name="agrave.ss01" horiz-adv-x="604" 
d="M261 571l-76 164h129l58 -164h-111zM234 -10c-124 0 -201 91 -201 241v23c0 164 112 277 272 277h9c90 0 179 -36 232 -90v-441h-118c-7 21 -15 59 -16 83v3c-32 -58 -95 -96 -168 -96h-10zM283 108h7c60 0 109 60 109 137v152c-18 14 -52 22 -85 22h-3
c-72 0 -124 -62 -124 -160v-14c0 -84 34 -137 96 -137z" />
    <glyph glyph-name="amacron.ss01" horiz-adv-x="604" 
d="M161 600v106h299v-106h-299zM234 -10c-124 0 -201 91 -201 241v23c0 164 112 277 272 277h9c90 0 179 -36 232 -90v-441h-118c-7 21 -15 59 -16 83v3c-32 -58 -95 -96 -168 -96h-10zM283 108h7c60 0 109 60 109 137v152c-18 14 -52 22 -85 22h-3
c-72 0 -124 -62 -124 -160v-14c0 -84 34 -137 96 -137z" />
    <glyph glyph-name="aogonek.ss01" horiz-adv-x="604" 
d="M234 -10c-124 0 -201 91 -201 241v23c0 164 112 277 272 277h9c90 0 179 -36 232 -90v-441c-27 -15 -65 -57 -65 -89c0 -19 9 -29 25 -29c14 0 29 5 39 15v-83c-24 -14 -52 -20 -75 -20c-61 0 -97 34 -97 89c0 43 25 86 66 117h-11c-7 21 -15 59 -16 83v3
c-32 -58 -95 -96 -168 -96h-10zM283 108h7c60 0 109 60 109 137v152c-18 14 -52 22 -85 22h-3c-72 0 -124 -62 -124 -160v-14c0 -84 34 -137 96 -137z" />
    <glyph glyph-name="aring.ss01" horiz-adv-x="604" 
d="M310 570c-65 0 -111 40 -111 95c0 60 46 100 111 100c63 0 109 -41 109 -100c0 -55 -45 -95 -109 -95zM309 632c23 0 39 14 39 35s-16 37 -39 37s-39 -16 -39 -37s16 -35 39 -35zM234 -10c-124 0 -201 91 -201 241v23c0 164 112 277 272 277h9c90 0 179 -36 232 -90v-441
h-118c-7 21 -15 59 -16 83v3c-32 -58 -95 -96 -168 -96h-10zM283 108h7c60 0 109 60 109 137v152c-18 14 -52 22 -85 22h-3c-72 0 -124 -62 -124 -160v-14c0 -84 34 -137 96 -137z" />
    <glyph glyph-name="atilde.ss01" horiz-adv-x="604" 
d="M302 711c21 -8 42 -16 63 -16c24 0 28 17 29 34h119c-3 -78 -38 -139 -103 -139c-35 0 -60 8 -84 18c-20 7 -42 15 -63 15c-24 0 -28 -16 -29 -34h-119c3 77 39 139 103 139c35 0 60 -8 84 -17zM234 -10c-124 0 -201 91 -201 241v23c0 164 112 277 272 277h9
c90 0 179 -36 232 -90v-441h-118c-7 21 -15 59 -16 83v3c-32 -58 -95 -96 -168 -96h-10zM283 108h7c60 0 109 60 109 137v152c-18 14 -52 22 -85 22h-3c-72 0 -124 -62 -124 -160v-14c0 -84 34 -137 96 -137z" />
    <glyph glyph-name="ae.ss01" horiz-adv-x="864" 
d="M599 -12c-81 0 -148 33 -192 87c-46 -53 -120 -86 -196 -86c-107 0 -179 65 -179 159c0 111 98 170 282 170h37c1 8 1 14 1 19c0 52 -33 77 -83 77c-47 0 -106 -15 -156 -50l-56 102c63 40 147 65 219 65c68 0 121 -23 155 -63c43 39 101 62 166 62h15
c128 0 220 -75 220 -180c0 -86 -62 -132 -200 -132h-148c12 -65 62 -110 125 -110h14c48 0 91 23 127 61l80 -86c-46 -56 -133 -95 -217 -95h-14zM485 309h129c53 0 76 22 76 50c0 33 -29 63 -85 63h-6c-58 0 -102 -45 -114 -113zM351 231h-29c-101 0 -149 -24 -149 -70
c0 -33 28 -56 72 -56c45 0 88 22 117 59c-6 21 -10 43 -11 67z" />
    <glyph glyph-name="b.ss01" horiz-adv-x="605" 
d="M58 720h149v-265c34 45 92 76 154 76h10c123 0 200 -94 200 -241v-23c0 -164 -114 -278 -273 -278h-9c-89 0 -178 37 -231 90v641zM204 125c19 -15 53 -24 86 -24h3c72 0 124 63 124 160v14c0 84 -34 137 -97 137h-6c-60 0 -110 -59 -110 -136v-151z" />
    <glyph glyph-name="d.ss01" horiz-adv-x="609" 
d="M232 -10c-125 0 -199 91 -199 241v23c0 164 112 277 272 277h9c29 0 56 -6 83 -14v203h149v-720h-118c-8 21 -15 60 -16 84v3c-33 -59 -98 -97 -170 -97h-10zM283 108h7c60 0 109 60 109 137v151c-18 15 -52 23 -85 23h-3c-72 0 -124 -62 -124 -160v-14
c0 -84 34 -137 96 -137z" />
    <glyph glyph-name="dcaron.ss01" horiz-adv-x="648" 
d="M232 -10c-125 0 -199 91 -199 241v23c0 164 112 277 272 277h9c29 0 56 -6 83 -14v203h149v-720h-118c-8 21 -15 60 -16 84v3c-33 -59 -98 -97 -170 -97h-10zM606 549l8 171h123l-39 -171h-92zM283 108h7c60 0 109 60 109 137v151c-18 15 -52 23 -85 23h-3
c-72 0 -124 -62 -124 -160v-14c0 -84 34 -137 96 -137z" />
    <glyph glyph-name="dcroat.ss01" horiz-adv-x="617" 
d="M232 -10c-125 0 -199 91 -199 241v23c0 164 112 277 272 277h9c29 0 56 -6 83 -14v61h-127v94h127v48h149v-48h57v-97h-57v-575h-118c-8 21 -15 60 -16 84v3c-33 -59 -98 -97 -170 -97h-10zM283 108h7c60 0 109 60 109 137v151c-18 15 -52 23 -85 23h-3
c-72 0 -124 -62 -124 -160v-14c0 -84 34 -137 96 -137z" />
    <glyph glyph-name="e.ss01" horiz-adv-x="572" 
d="M298 -11c-155 0 -267 107 -267 256v19c0 151 112 267 263 267h15c134 0 231 -76 231 -184c0 -86 -65 -132 -200 -132h-161c12 -68 66 -107 130 -107h14c50 0 98 25 137 62l80 -86c-47 -54 -139 -95 -226 -95h-16zM178 306h142c53 0 76 20 76 49c0 37 -33 67 -92 67h-4
c-66 0 -113 -49 -122 -116z" />
    <glyph glyph-name="eacute.ss01" horiz-adv-x="572" 
d="M355 571h-111l57 164h130zM298 -11c-155 0 -267 107 -267 256v19c0 151 112 267 263 267h15c134 0 231 -76 231 -184c0 -86 -65 -132 -200 -132h-161c12 -68 66 -107 130 -107h14c50 0 98 25 137 62l80 -86c-47 -54 -139 -95 -226 -95h-16zM178 306h142c53 0 76 20 76 49
c0 37 -33 67 -92 67h-4c-66 0 -113 -49 -122 -116z" />
    <glyph glyph-name="ebreve.ss01" horiz-adv-x="572" 
d="M133 720h119c0 -31 20 -52 53 -52c34 0 53 21 53 52h119c0 -87 -66 -146 -172 -146c-105 0 -172 59 -172 146zM298 -11c-155 0 -267 107 -267 256v19c0 151 112 267 263 267h15c134 0 231 -76 231 -184c0 -86 -65 -132 -200 -132h-161c12 -68 66 -107 130 -107h14
c50 0 98 25 137 62l80 -86c-47 -54 -139 -95 -226 -95h-16zM178 306h142c53 0 76 20 76 49c0 37 -33 67 -92 67h-4c-66 0 -113 -49 -122 -116z" />
    <glyph glyph-name="ecaron.ss01" horiz-adv-x="572" 
d="M217 588l-112 131h130l55 -56h18l55 56h130l-112 -131h-164zM298 -11c-155 0 -267 107 -267 256v19c0 151 112 267 263 267h15c134 0 231 -76 231 -184c0 -86 -65 -132 -200 -132h-161c12 -68 66 -107 130 -107h14c50 0 98 25 137 62l80 -86c-47 -54 -139 -95 -226 -95
h-16zM178 306h142c53 0 76 20 76 49c0 37 -33 67 -92 67h-4c-66 0 -113 -49 -122 -116z" />
    <glyph glyph-name="ecircumflex.ss01" horiz-adv-x="572" 
d="M501 588h-130l-55 55h-18l-55 -55h-130l112 131h164zM298 -11c-155 0 -267 107 -267 256v19c0 151 112 267 263 267h15c134 0 231 -76 231 -184c0 -86 -65 -132 -200 -132h-161c12 -68 66 -107 130 -107h14c50 0 98 25 137 62l80 -86c-47 -54 -139 -95 -226 -95h-16z
M178 306h142c53 0 76 20 76 49c0 37 -33 67 -92 67h-4c-66 0 -113 -49 -122 -116z" />
    <glyph glyph-name="edieresis.ss01" horiz-adv-x="567" 
d="M414 590c-44 0 -73 28 -73 69s29 69 73 69s77 -28 77 -69s-33 -69 -77 -69zM197 590c-45 0 -76 28 -76 69s31 69 76 69c41 0 74 -28 74 -69s-33 -69 -74 -69zM298 -11c-155 0 -267 107 -267 256v19c0 151 112 267 263 267h15c134 0 231 -76 231 -184
c0 -86 -65 -132 -200 -132h-161c12 -68 66 -107 130 -107h14c50 0 98 25 137 62l80 -86c-47 -54 -139 -95 -226 -95h-16zM178 306h142c53 0 76 20 76 49c0 37 -33 67 -92 67h-4c-66 0 -113 -49 -122 -116z" />
    <glyph glyph-name="edotaccent.ss01" horiz-adv-x="572" 
d="M307 584c-51 0 -85 30 -85 75s34 77 85 77c52 0 88 -32 88 -77s-36 -75 -88 -75zM298 -11c-155 0 -267 107 -267 256v19c0 151 112 267 263 267h15c134 0 231 -76 231 -184c0 -86 -65 -132 -200 -132h-161c12 -68 66 -107 130 -107h14c50 0 98 25 137 62l80 -86
c-47 -54 -139 -95 -226 -95h-16zM178 306h142c53 0 76 20 76 49c0 37 -33 67 -92 67h-4c-66 0 -113 -49 -122 -116z" />
    <glyph glyph-name="egrave.ss01" horiz-adv-x="572" 
d="M258 571l-76 164h129l58 -164h-111zM298 -11c-155 0 -267 107 -267 256v19c0 151 112 267 263 267h15c134 0 231 -76 231 -184c0 -86 -65 -132 -200 -132h-161c12 -68 66 -107 130 -107h14c50 0 98 25 137 62l80 -86c-47 -54 -139 -95 -226 -95h-16zM178 306h142
c53 0 76 20 76 49c0 37 -33 67 -92 67h-4c-66 0 -113 -49 -122 -116z" />
    <glyph glyph-name="emacron.ss01" horiz-adv-x="572" 
d="M158 600v106h299v-106h-299zM298 -11c-155 0 -267 107 -267 256v19c0 151 112 267 263 267h15c134 0 231 -76 231 -184c0 -86 -65 -132 -200 -132h-161c12 -68 66 -107 130 -107h14c50 0 98 25 137 62l80 -86c-47 -54 -139 -95 -226 -95h-16zM178 306h142
c53 0 76 20 76 49c0 37 -33 67 -92 67h-4c-66 0 -113 -49 -122 -116z" />
    <glyph glyph-name="eogonek.ss01" horiz-adv-x="572" 
d="M439 -206c-63 0 -100 36 -100 92c0 39 22 80 53 114c-26 -7 -53 -11 -81 -11h-14c-155 0 -267 107 -267 256v19c0 151 113 267 264 267h15c133 0 231 -76 231 -184c0 -86 -65 -132 -200 -132h-161c10 -65 62 -107 130 -107h9c54 0 101 24 136 61l73 -93
c-32 -38 -80 -103 -80 -157c0 -24 11 -37 28 -37c15 0 30 5 42 15v-83c-24 -15 -53 -20 -78 -20zM178 306h142c53 0 75 20 75 49c0 37 -32 67 -91 67h-4c-67 0 -113 -49 -122 -116z" />
    <glyph glyph-name="f.ss01" horiz-adv-x="370" 
d="M87 -190v597h-67v97c14 5 33 9 50 12c-3 15 -4 31 -4 48c0 91 67 154 167 154c37 0 85 -8 116 -21v-115c-25 10 -51 16 -76 16c-41 0 -64 -18 -65 -55c0 -9 1 -17 2 -23h143v-113h-117v-597h-149z" />
    <glyph glyph-name="g.ss01" horiz-adv-x="558" 
d="M261 -205c-135 0 -230 77 -230 190v9c0 62 33 117 84 152c-43 35 -72 89 -72 157v21c0 123 85 207 212 207h26c27 0 51 -4 74 -11h188v-115h-64c9 -24 14 -51 14 -81v-21c0 -120 -86 -201 -214 -202c-63 -1 -107 -33 -107 -88v-6c0 -57 42 -91 101 -91h9
c67 0 116 46 123 114l125 -26c-12 -128 -102 -209 -247 -209h-22zM264 209h9c49 0 82 40 82 98v18c0 58 -33 97 -82 97h-9c-50 0 -84 -39 -84 -97v-18c0 -59 34 -98 84 -98z" />
    <glyph glyph-name="gacute.ss01" horiz-adv-x="558" 
d="M316 571h-111l57 164h130zM261 -205c-135 0 -230 77 -230 190v9c0 62 33 117 84 152c-43 35 -72 89 -72 157v21c0 123 85 207 212 207h26c27 0 51 -4 74 -11h188v-115h-64c9 -24 14 -51 14 -81v-21c0 -120 -86 -201 -214 -202c-63 -1 -107 -33 -107 -88v-6
c0 -57 42 -91 101 -91h9c67 0 116 46 123 114l125 -26c-12 -128 -102 -209 -247 -209h-22zM264 209h9c49 0 82 40 82 98v18c0 58 -33 97 -82 97h-9c-50 0 -84 -39 -84 -97v-18c0 -59 34 -98 84 -98z" />
    <glyph glyph-name="gbreve.ss01" horiz-adv-x="558" 
d="M94 720h119c0 -31 20 -52 53 -52c34 0 53 21 53 52h119c0 -87 -66 -146 -172 -146c-105 0 -172 59 -172 146zM261 -205c-135 0 -230 77 -230 190v9c0 62 33 117 84 152c-43 35 -72 89 -72 157v21c0 123 85 207 212 207h26c27 0 51 -4 74 -11h188v-115h-64
c9 -24 14 -51 14 -81v-21c0 -120 -86 -201 -214 -202c-63 -1 -107 -33 -107 -88v-6c0 -57 42 -91 101 -91h9c67 0 116 46 123 114l125 -26c-12 -128 -102 -209 -247 -209h-22zM264 209h9c49 0 82 40 82 98v18c0 58 -33 97 -82 97h-9c-50 0 -84 -39 -84 -97v-18
c0 -59 34 -98 84 -98z" />
    <glyph glyph-name="gcircumflex.ss01" horiz-adv-x="558" 
d="M462 588h-130l-55 55h-18l-55 -55h-130l112 131h164zM261 -205c-135 0 -230 77 -230 190v9c0 62 33 117 84 152c-43 35 -72 89 -72 157v21c0 123 85 207 212 207h26c27 0 51 -4 74 -11h188v-115h-64c9 -24 14 -51 14 -81v-21c0 -120 -86 -201 -214 -202
c-63 -1 -107 -33 -107 -88v-6c0 -57 42 -91 101 -91h9c67 0 116 46 123 114l125 -26c-12 -128 -102 -209 -247 -209h-22zM264 209h9c49 0 82 40 82 98v18c0 58 -33 97 -82 97h-9c-50 0 -84 -39 -84 -97v-18c0 -59 34 -98 84 -98z" />
    <glyph glyph-name="gcommaaccent.ss01" horiz-adv-x="558" 
d="M348 743l-21 -167h-126l56 167h91zM261 -205c-135 0 -230 77 -230 190v9c0 62 33 117 84 152c-43 35 -72 89 -72 157v21c0 123 85 207 212 207h26c27 0 51 -4 74 -11h188v-115h-64c9 -24 14 -51 14 -81v-21c0 -120 -86 -201 -214 -202c-63 -1 -107 -33 -107 -88v-6
c0 -57 42 -91 101 -91h9c67 0 116 46 123 114l125 -26c-12 -128 -102 -209 -247 -209h-22zM264 209h9c49 0 82 40 82 98v18c0 58 -33 97 -82 97h-9c-50 0 -84 -39 -84 -97v-18c0 -59 34 -98 84 -98z" />
    <glyph glyph-name="gdotaccent.ss01" horiz-adv-x="558" 
d="M268 584c-51 0 -85 30 -85 75s34 77 85 77c52 0 88 -32 88 -77s-36 -75 -88 -75zM261 -205c-135 0 -230 77 -230 190v9c0 62 33 117 84 152c-43 35 -72 89 -72 157v21c0 123 85 207 212 207h26c27 0 51 -4 74 -11h188v-115h-64c9 -24 14 -51 14 -81v-21
c0 -120 -86 -201 -214 -202c-63 -1 -107 -33 -107 -88v-6c0 -57 42 -91 101 -91h9c67 0 116 46 123 114l125 -26c-12 -128 -102 -209 -247 -209h-22zM264 209h9c49 0 82 40 82 98v18c0 58 -33 97 -82 97h-9c-50 0 -84 -39 -84 -97v-18c0 -59 34 -98 84 -98z" />
    <glyph glyph-name="l.ss01" horiz-adv-x="317" 
d="M192 -7c-92 0 -138 52 -138 164v563h149v-534c0 -52 13 -68 47 -68c18 0 39 3 52 6v-113c-29 -10 -72 -18 -110 -18z" />
    <glyph glyph-name="lacute.ss01" horiz-adv-x="317" 
d="M257 913l-81 -152h-113l55 152h139zM192 -7c-92 0 -138 52 -138 164v563h149v-534c0 -52 13 -68 47 -68c18 0 39 3 52 6v-113c-29 -10 -72 -18 -110 -18z" />
    <glyph glyph-name="lcaron.ss01" horiz-adv-x="317" 
d="M192 -7c-92 0 -138 52 -138 164v563h149v-534c0 -52 13 -68 47 -68c18 0 39 3 52 6v-113c-29 -10 -72 -18 -110 -18zM263 549l8 171h123l-39 -171h-92z" />
    <glyph glyph-name="lcommaaccent.ss01" horiz-adv-x="317" 
d="M192 -7c-92 0 -138 52 -138 164v563h149v-534c0 -52 13 -68 47 -68c18 0 39 3 52 6v-113c-29 -10 -72 -18 -110 -18zM96 -195l36 155h126l-65 -155h-97z" />
    <glyph glyph-name="ldot.ss01" horiz-adv-x="435" 
d="M191 -7c-92 0 -138 52 -138 164v563h149v-534c0 -52 13 -68 47 -68c18 0 39 3 51 6v-113c-28 -10 -72 -18 -109 -18zM350 295c-50 0 -85 30 -85 75s35 77 85 77c52 0 88 -32 88 -77s-36 -75 -88 -75z" />
    <glyph glyph-name="lslash.ss01" horiz-adv-x="343" 
d="M17 248v109l73 36v327h149v-255l83 41v-109l-83 -41v-170c0 -52 13 -68 47 -68c18 0 39 3 52 6v-113c-29 -10 -72 -18 -110 -18c-92 0 -138 52 -138 164v127z" />
    <glyph glyph-name="oe.ss01" horiz-adv-x="934" 
d="M285 -11c-150 0 -255 105 -255 256v30c0 151 105 256 255 256h10c78 0 144 -29 189 -78c45 49 109 78 182 78h16c128 0 220 -76 220 -183c0 -87 -64 -132 -204 -132h-142c13 -71 64 -106 123 -106h13c48 0 93 22 128 58l79 -84c-46 -57 -132 -95 -216 -95h-16
c-76 0 -141 27 -186 74c-45 -46 -110 -74 -186 -74h-10zM286 100h9c68 0 111 60 111 151v23c0 89 -44 146 -111 146h-9c-67 0 -111 -57 -111 -146v-23c0 -91 44 -151 111 -151zM552 307h135c57 0 80 20 80 50c0 33 -29 63 -88 63h-6c-65 0 -109 -45 -121 -113z" />
    <glyph glyph-name="p.ss01" horiz-adv-x="609" 
d="M63 -190v710h118c9 -21 16 -60 16 -83v-5c34 58 98 98 171 98h9c125 0 199 -91 199 -241v-23c0 -164 -111 -277 -272 -277h-9c-28 0 -56 6 -83 16v-195h-149zM296 101h4c70 0 123 62 123 160v14c0 84 -35 137 -97 137h-6c-61 0 -110 -60 -110 -137v-151
c19 -15 52 -23 86 -23z" />
    <glyph glyph-name="q.ss01" horiz-adv-x="605" 
d="M399 -190v255c-35 -45 -93 -75 -155 -75h-10c-123 0 -199 93 -199 241v23c0 164 113 277 272 277h9c89 0 178 -36 232 -90v-631h-149zM285 108h6c61 0 110 60 110 137v151c-18 15 -52 23 -86 23h-2c-72 0 -124 -62 -124 -160v-14c0 -84 34 -137 96 -137z" />
    <glyph glyph-name="germandbls.ss01" horiz-adv-x="626" 
d="M87 -190v597h-67v96c19 7 46 14 67 16c8 116 103 199 242 199c140 0 234 -77 234 -191c0 -59 -25 -108 -66 -141c62 -36 100 -103 100 -189c0 -125 -79 -208 -201 -208c-40 0 -85 9 -112 22v114c14 -6 42 -11 63 -11c61 0 102 41 102 106c0 64 -40 107 -99 107h-52v93h44
c45 4 76 40 76 91c0 55 -36 91 -88 91c-57 0 -94 -39 -94 -100v-692h-149z" />
    <glyph glyph-name="t.ss01" horiz-adv-x="381" 
d="M233 -7c-96 0 -159 55 -159 174c0 84 6 156 23 238h-85v99c17 7 45 13 68 15v121l149 18v-138h129v-115h-128c-4 -58 -7 -118 -7 -209c0 -57 19 -78 58 -78c22 0 62 7 82 11v-113c-35 -15 -92 -23 -130 -23z" />
    <glyph glyph-name="tbar.ss01" horiz-adv-x="394" 
d="M26 231v99h62c4 24 8 49 13 75h-85v99c17 7 45 13 68 15v121l149 18v-138h129v-115h-128c-2 -24 -3 -48 -5 -75h114v-99h-116v-35c0 -57 19 -78 58 -78c22 0 62 7 82 11v-113c-35 -15 -92 -23 -130 -23c-96 0 -159 55 -159 174c0 22 0 43 1 64h-53z" />
    <glyph glyph-name="tcaron.ss01" horiz-adv-x="402" 
d="M296 549l8 171h123l-39 -171h-92zM233 -7c-96 0 -159 55 -159 174c0 84 6 156 23 238h-85v99c17 7 45 13 68 15v121l149 18v-138h129v-115h-128c-4 -58 -7 -118 -7 -209c0 -57 19 -78 58 -78c22 0 62 7 82 11v-113c-35 -15 -92 -23 -130 -23z" />
    <glyph glyph-name="tcedilla.ss01" horiz-adv-x="381" 
d="M216 -206c-33 0 -67 10 -93 26l30 73c9 -8 23 -16 41 -16c20 0 32 12 32 27c0 20 -14 35 -58 35l24 58c-73 15 -118 70 -118 170c0 84 6 156 23 238h-85v99c17 7 45 13 68 15v121l149 18v-138h129v-115h-128c-4 -58 -7 -118 -7 -209c0 -57 19 -78 58 -78c22 0 62 7 82 11
v-113c-25 -11 -61 -18 -94 -21l-11 -21c44 -8 70 -38 70 -79c0 -67 -56 -101 -112 -101z" />
    <glyph glyph-name="tcommaaccent.ss01" horiz-adv-x="381" 
d="M233 -7c-96 0 -159 55 -159 174c0 84 6 156 23 238h-85v99c17 7 45 13 68 15v121l149 18v-138h129v-115h-128c-4 -58 -7 -118 -7 -209c0 -57 19 -78 58 -78c22 0 62 7 82 11v-113c-35 -15 -92 -23 -130 -23zM140 -195l36 155h126l-65 -155h-97z" />
    <glyph glyph-name="f_f.ss01" horiz-adv-x="686" 
d="M87 -190v597h-67v97c14 5 33 9 50 12c-2 15 -4 31 -4 48c0 91 67 154 167 154c37 0 85 -8 116 -21v-115c-24 10 -50 16 -76 16c-39 0 -65 -18 -65 -49c0 -12 1 -21 3 -29h175c-2 14 -4 29 -4 44c0 91 67 154 167 154c37 0 85 -8 116 -21v-115c-24 10 -50 16 -75 16
c-41 0 -66 -19 -66 -52c0 -10 1 -19 2 -26h143v-113h-117v-597h-149v597h-167v-597h-149z" />
    <glyph glyph-name="f_f_i.ss01" horiz-adv-x="930" 
d="M781 590c-50 0 -84 30 -84 76c0 45 34 77 84 77c51 0 86 -32 86 -77c0 -46 -35 -76 -86 -76zM708 0v407h-156v-597h-149v597h-167v-597h-149v597h-67v97c14 5 33 9 50 12c-2 15 -4 31 -4 48c0 91 67 154 167 154c37 0 85 -8 116 -21v-115c-24 10 -50 16 -76 16
c-41 0 -65 -19 -65 -53c0 -9 1 -18 2 -25h176c-2 14 -4 29 -4 44c0 91 67 154 167 154c37 0 85 -8 116 -21v-115c-24 10 -49 16 -74 16c-41 0 -67 -19 -67 -52c0 -10 1 -18 2 -26h331v-520h-149z" />
    <glyph glyph-name="f_f_l.ss01" horiz-adv-x="969" 
d="M844 -7c-92 0 -138 52 -138 164v417c-27 13 -71 28 -110 28c-49 0 -72 -25 -72 -55c0 -10 1 -19 2 -27h129v-113h-103v-597h-149v597h-167v-597h-149v597h-67v97c14 5 33 9 50 12c-2 15 -4 31 -4 48c0 91 67 154 167 154c37 0 85 -8 116 -21v-115c-24 10 -50 16 -76 16
c-41 0 -65 -18 -65 -52c0 -10 1 -18 2 -26h176c-2 14 -4 29 -4 44c0 91 70 154 188 154c99 0 212 -41 285 -74v-458c0 -52 13 -68 48 -68c17 0 39 3 51 6v-113c-29 -10 -72 -18 -110 -18z" />
    <glyph glyph-name="fi.ss01" horiz-adv-x="613" 
d="M463 590c-49 0 -84 30 -84 76c0 45 35 77 84 77c52 0 87 -32 87 -77c0 -46 -35 -76 -87 -76zM390 0v407h-155v-597h-149v597h-67v97c14 5 33 9 50 12c-3 15 -4 31 -4 48c0 91 67 154 167 154c37 0 85 -8 116 -21v-115c-25 10 -51 16 -76 16c-44 0 -64 -21 -64 -53
c0 -9 0 -18 2 -25h329v-520h-149z" />
    <glyph glyph-name="fl.ss01" horiz-adv-x="653" 
d="M528 -7c-92 0 -138 52 -138 164v417c-27 13 -72 28 -110 28c-47 0 -72 -22 -72 -56c0 -10 1 -18 2 -26h129v-113h-103v-597h-149v597h-67v97c14 5 33 9 50 12c-2 15 -4 31 -4 48c0 91 70 154 187 154c100 0 213 -41 286 -74v-458c0 -52 13 -68 47 -68c18 0 39 3 52 6
v-113c-29 -10 -72 -18 -110 -18z" />
    <glyph glyph-name="ordfeminine" unicode="&#xaa;" horiz-adv-x="278" 
d="M100 448c-48 0 -80 30 -80 74v5c0 53 47 80 136 80h15c-2 22 -15 30 -38 30h-1c-22 0 -48 -10 -71 -24l-29 61c35 21 73 31 111 31h4c63 0 103 -36 103 -96v-94c0 -22 4 -41 9 -62h-80c-3 7 -5 15 -6 24c-22 -19 -46 -29 -73 -29zM131 512c15 0 30 7 40 18v26h-6
c-39 -1 -60 -9 -60 -25v-1c0 -11 10 -18 26 -18zM36 313v87h218v-87h-218z" />
    <glyph glyph-name="ordmasculine" unicode="&#xba;" horiz-adv-x="327" 
d="M155 428c-79 0 -135 54 -135 135v8c0 80 56 134 135 134h14c79 0 134 -54 134 -134v-8c0 -81 -55 -135 -134 -135h-14zM160 508h5c30 0 52 22 52 56v6c0 35 -22 55 -52 55h-5c-31 0 -54 -20 -54 -55v-6c0 -34 23 -56 54 -56zM38 297v87h248v-87h-248z" />
    <glyph glyph-name="uni0410" unicode="&#x410;" horiz-adv-x="650" 
d="M-7 0l233 700h200l231 -700h-167l-45 146h-241l-44 -146h-167zM237 271h176l-82 267h-11z" />
    <glyph glyph-name="uni0411" unicode="&#x411;" horiz-adv-x="635" 
d="M74 0v700h487v-136h-331v-129h144c144 0 235 -81 235 -211v-9c0 -130 -95 -215 -242 -215h-293zM227 132h127c58 0 98 33 98 87v9c0 54 -41 86 -98 86h-127v-182z" />
    <glyph glyph-name="uni0412" unicode="&#x412;" horiz-adv-x="643" 
d="M73 0v700h265c139 0 236 -67 236 -171v-12c0 -61 -27 -109 -88 -144c77 -33 120 -95 120 -170v-13c0 -116 -94 -190 -240 -190h-293zM224 410h108c55 0 93 30 93 76v11c0 44 -35 72 -91 72h-110v-159zM224 132h133c57 0 97 29 97 76v12c0 49 -41 80 -100 80h-130v-168z
" />
    <glyph glyph-name="uni0413" unicode="&#x413;" horiz-adv-x="501" 
d="M74 0v700h407v-136h-251v-564h-156z" />
    <glyph glyph-name="uni0490" unicode="&#x490;" horiz-adv-x="487" 
d="M74 0v700h246v128h147v-264h-237v-564h-156z" />
    <glyph glyph-name="uni0414" unicode="&#x414;" horiz-adv-x="704" 
d="M13 -135v265h59c39 62 54 226 54 499v71h477v-570h83v-265h-148v135h-376v-135h-149zM449 130v442h-173v-7c-3 -211 -23 -353 -59 -435h232z" />
    <glyph glyph-name="uni0415" unicode="&#x415;" horiz-adv-x="559" 
d="M74 0v700h423v-136h-267v-148h247v-129h-247v-151h277v-136h-433z" />
    <glyph glyph-name="uni0401" unicode="&#x401;" horiz-adv-x="559" 
d="M185 750c-44 0 -74 28 -74 69s30 69 74 69c43 0 76 -28 76 -69s-33 -69 -76 -69zM394 750c-44 0 -74 28 -74 69s30 69 74 69s76 -28 76 -69s-32 -69 -76 -69zM74 0v700h423v-136h-267v-148h247v-129h-247v-151h277v-136h-433z" />
    <glyph glyph-name="uni0416" unicode="&#x416;" horiz-adv-x="901" 
d="M375 0v328h-11l-180 -328h-180l228 378l-198 322h166l164 -292h11v292h151v-292h11l164 292h166l-198 -322l228 -378h-180l-180 328h-11v-328h-151z" />
    <glyph glyph-name="uni0417" unicode="&#x417;" horiz-adv-x="619" 
d="M321 -13c-127 0 -228 57 -296 158l130 78c38 -70 89 -100 156 -100c70 0 112 32 112 88v3c0 56 -36 87 -102 87h-85v113h62c60 0 94 32 94 83v2c0 48 -36 78 -90 78c-56 0 -103 -32 -131 -90l-132 76c62 95 158 151 274 151c132 0 232 -76 232 -180v-10
c0 -62 -32 -116 -85 -151c74 -30 122 -98 122 -177v-8c0 -117 -109 -201 -261 -201z" />
    <glyph glyph-name="uni0418" unicode="&#x418;" horiz-adv-x="725" 
d="M74 0v700h153v-463h6l244 463h175v-700h-155v497h-7l-262 -497h-154z" />
    <glyph glyph-name="uni0419" unicode="&#x419;" horiz-adv-x="725" 
d="M190 885h120c0 -31 19 -52 53 -52c33 0 52 21 52 52h120c0 -88 -67 -146 -172 -146c-106 0 -173 58 -173 146zM74 0v700h153v-463h6l244 463h175v-700h-155v497h-7l-262 -497h-154z" />
    <glyph glyph-name="uni041A" unicode="&#x41a;" horiz-adv-x="654" 
d="M74 0v700h156v-292h8l219 292h178l-261 -322l279 -378h-187l-228 328h-8v-328h-156z" />
    <glyph glyph-name="uni041B" unicode="&#x41b;" horiz-adv-x="688" 
d="M85 -13c-27 0 -52 4 -75 14v131c17 -5 30 -8 45 -8c71 0 79 68 84 277l8 299h467v-700h-156v564h-163l-6 -170c-8 -286 -28 -407 -204 -407z" />
    <glyph glyph-name="uni041C" unicode="&#x41c;" horiz-adv-x="869" 
d="M73 0v700h220l138 -407h7l138 407h219v-700h-152v514h-8l-143 -421h-115l-144 421h-8v-514h-152z" />
    <glyph glyph-name="uni041D" unicode="&#x41d;" horiz-adv-x="704" 
d="M73 0v700h157v-277h244v277h156v-700h-156v287h-244v-287h-157z" />
    <glyph glyph-name="uni041E" unicode="&#x41e;" horiz-adv-x="761" 
d="M37 340v20c0 213 136 354 337 354h13c198 0 337 -143 337 -354v-20c0 -211 -139 -354 -337 -354h-13c-198 0 -337 144 -337 354zM199 340c0 -134 73 -218 176 -218h11c104 0 176 84 176 218v20c0 133 -72 217 -176 217h-11c-103 0 -176 -84 -176 -217v-20z" />
    <glyph glyph-name="uni041F" unicode="&#x41f;" horiz-adv-x="703" 
d="M74 0v700h556v-700h-157v564h-243v-564h-156z" />
    <glyph glyph-name="uni0420" unicode="&#x420;" horiz-adv-x="613" 
d="M74 0v700h251c154 0 255 -90 255 -231v-12c0 -144 -102 -234 -255 -234h-95v-223h-156zM226 346h81c72 0 118 43 118 108v11c0 64 -44 101 -115 101h-84v-220z" />
    <glyph glyph-name="uni0421" unicode="&#x421;" horiz-adv-x="680" 
d="M375 -12c-201 0 -338 144 -338 352v19c0 206 140 353 335 353h7c114 0 215 -54 274 -149l-115 -87c-35 61 -86 99 -155 99h-8c-104 0 -176 -85 -176 -216v-19c0 -131 71 -214 176 -214h12c67 0 120 37 155 97l113 -86c-59 -96 -157 -149 -274 -149h-6z" />
    <glyph glyph-name="uni0422" unicode="&#x422;" horiz-adv-x="547" 
d="M195 0v564h-175v136h507v-136h-175v-564h-157z" />
    <glyph glyph-name="uni0423" unicode="&#x423;" 
d="M221 -13c-39 0 -80 7 -118 22v131c23 -12 56 -23 85 -23c27 0 49 10 60 30l-244 553h170l150 -390h11l109 390h156l-194 -560c-33 -96 -89 -153 -185 -153z" />
    <glyph glyph-name="uni040E" unicode="&#x40e;" 
d="M140 885h120c0 -31 19 -52 53 -52c33 0 52 21 52 52h120c0 -88 -67 -146 -172 -146c-106 0 -173 58 -173 146zM221 -13c-39 0 -80 7 -118 22v131c23 -12 56 -23 85 -23c27 0 49 10 60 30l-244 553h170l150 -390h11l109 390h156l-194 -560c-33 -96 -89 -153 -185 -153z
" />
    <glyph glyph-name="uni0424" unicode="&#x424;" horiz-adv-x="795" 
d="M484 68h-12v-68h-150v68h-11c-159 0 -274 115 -274 284v18c0 169 115 283 274 283h11v52h150v-52h12c159 0 274 -114 274 -283v-18c0 -169 -115 -284 -274 -284zM312 189h16v343h-16c-75 0 -122 -64 -122 -161v-19c0 -98 47 -161 122 -163zM466 189h16
c75 2 123 65 123 163v19c0 97 -48 161 -123 161h-16v-343z" />
    <glyph glyph-name="uni0425" unicode="&#x425;" horiz-adv-x="643" 
d="M8 0l206 360v6l-196 334h177l122 -232h10l122 232h175l-194 -334v-6l205 -360h-178l-130 262h-10l-129 -262h-180z" />
    <glyph glyph-name="uni0427" unicode="&#x427;" horiz-adv-x="647" 
d="M417 0v263c-53 -16 -98 -23 -141 -23c-146 0 -219 74 -219 223v237h156v-202c0 -93 28 -124 106 -124c31 0 60 6 98 19v307h157v-700h-157z" />
    <glyph glyph-name="uni0426" unicode="&#x426;" horiz-adv-x="712" 
d="M545 -135v135h-471v700h156v-570h225v570h156v-567h82v-268h-148z" />
    <glyph glyph-name="uni0428" unicode="&#x428;" horiz-adv-x="992" 
d="M74 0v700h155v-570h190v570h153v-570h191v570h155v-700h-844z" />
    <glyph glyph-name="uni0429" unicode="&#x429;" horiz-adv-x="1015" 
d="M848 -135v135h-774v700h155v-570h188v570h153v-570h189v570h155v-564h82v-271h-148z" />
    <glyph glyph-name="uni042C" unicode="&#x42c;" horiz-adv-x="610" 
d="M74 0v700h156v-234h99c151 0 248 -87 248 -227v-8c0 -141 -97 -231 -247 -231h-256zM226 132h75c78 0 121 36 121 102v7c0 67 -40 100 -122 100h-74v-209z" />
    <glyph glyph-name="uni042A" unicode="&#x42a;" horiz-adv-x="679" 
d="M142 0v564h-138v136h294v-234h99c152 0 249 -87 249 -227v-8c0 -141 -97 -231 -247 -231h-257zM294 132h75c77 0 121 35 121 102v8c0 67 -41 99 -122 99h-74v-209z" />
    <glyph glyph-name="uni042B" unicode="&#x42b;" horiz-adv-x="868" 
d="M74 0v700h156v-234h98c150 0 249 -85 249 -227v-8c0 -140 -98 -231 -248 -231h-255zM637 0v700h157v-700h-157zM226 132h73c78 0 122 36 122 102v7c0 67 -42 100 -122 100h-73v-209z" />
    <glyph glyph-name="uni0405" unicode="&#x405;" horiz-adv-x="584" 
d="M297 -12c-101 0 -202 36 -275 96l83 124c56 -52 137 -77 201 -77s96 23 96 66c0 67 -77 70 -209 119c-81 30 -150 77 -150 194c0 119 101 203 234 203c99 0 180 -31 257 -87l-82 -123c-52 46 -121 68 -174 68c-56 0 -84 -25 -84 -64c0 -57 72 -68 168 -98
c96 -29 197 -74 197 -204c0 -132 -101 -217 -262 -217z" />
    <glyph glyph-name="uni0404" unicode="&#x404;" horiz-adv-x="683" 
d="M378 -12c-200 0 -341 144 -341 352v19c0 206 143 353 339 353h6c114 0 215 -54 274 -149l-115 -87c-35 61 -87 99 -156 99h-12c-90 0 -156 -63 -172 -161h256v-121h-258c14 -101 81 -167 177 -167h11c68 0 123 37 158 97l113 -86c-58 -96 -157 -149 -273 -149h-7z" />
    <glyph glyph-name="uni042D" unicode="&#x42d;" horiz-adv-x="682" 
d="M304 -12h-7c-116 0 -214 53 -272 149l113 86c36 -60 91 -98 160 -98h11c96 0 162 66 177 168h-261v121h260c-18 98 -83 162 -174 162h-12c-69 0 -122 -37 -157 -100l-115 87c59 95 159 149 273 149h6c196 0 339 -147 339 -353v-19c0 -208 -141 -352 -341 -352z" />
    <glyph glyph-name="uni0406" unicode="&#x406;" horiz-adv-x="303" 
d="M74 0v700h156v-700h-156z" />
    <glyph glyph-name="uni0407" unicode="&#x407;" horiz-adv-x="303" 
d="M62 743c-40 0 -67 28 -67 70s27 71 67 71s71 -29 71 -71s-31 -70 -71 -70zM240 743c-41 0 -68 28 -68 70s27 71 68 71c40 0 70 -29 70 -71s-30 -70 -70 -70zM74 0v700h156v-700h-156z" />
    <glyph glyph-name="uni042E" unicode="&#x42e;" horiz-adv-x="1023" 
d="M641 -13c-183 0 -310 119 -329 303h-82v-290h-156v700h156v-280h83c23 178 148 294 328 294h13c198 0 332 -143 332 -354v-20c0 -210 -134 -353 -332 -353h-13zM470 360v-20c0 -134 67 -217 172 -217h10c106 0 172 83 172 217v20c0 134 -66 217 -172 217h-10
c-105 0 -172 -83 -172 -217z" />
    <glyph glyph-name="uni042F" unicode="&#x42f;" horiz-adv-x="657" 
d="M25 0l154 268c-79 37 -129 106 -129 196v16c0 138 105 220 266 220h267v-700h-157v238h-103l-128 -238h-170zM432 356v214h-101c-78 0 -123 -35 -123 -97v-10c0 -62 44 -107 124 -107h100z" />
    <glyph glyph-name="ACy.ss01" horiz-adv-x="653" 
d="M1 0c0 234 111 474 290 700h162l180 -700h-165l-34 146h-256c-10 -48 -16 -97 -16 -146h-161zM209 275h196l-58 257h-14c-45 -74 -92 -172 -124 -257z" />
    <glyph glyph-name="ZheCy.ss01" horiz-adv-x="896" 
d="M373 0v328h-11l-180 -328h-181l225 374c-68 64 -122 150 -192 326h165c36 -128 90 -225 163 -292h11v292h150v-292h11c73 67 127 164 163 292h165c-70 -176 -124 -262 -192 -326l225 -374h-181l-180 328h-11v-328h-150z" />
    <glyph glyph-name="KaCy.ss01" horiz-adv-x="659" 
d="M74 0v700h156v-292h8c102 69 182 175 217 292h165c-60 -154 -141 -257 -242 -326l279 -374h-187l-232 328h-8v-328h-156z" />
    <glyph glyph-name="EmCy.ss01" horiz-adv-x="873" 
d="M48 0c0 248 54 525 132 700h162l87 -404h6l155 404h212v-700h-157v503h-6l-164 -410h-118l-91 410h-7c-32 -87 -53 -283 -50 -503h-161z" />
    <glyph glyph-name="UCy.ss01" horiz-adv-x="608" 
d="M219 -13c-34 0 -82 6 -119 19v131c20 -9 57 -19 87 -19c27 0 51 8 65 26l-252 556h170l164 -392h9c49 105 75 280 81 392h158c-8 -110 -73 -352 -141 -509c-59 -146 -120 -204 -222 -204z" />
    <glyph glyph-name="UshortCy.ss01" horiz-adv-x="608" 
d="M139 882h120c0 -31 19 -52 53 -52c33 0 52 21 52 52h120c0 -88 -67 -146 -172 -146c-106 0 -173 58 -173 146zM219 -13c-34 0 -82 6 -119 19v131c20 -9 57 -19 87 -19c27 0 51 8 65 26l-252 556h170l164 -392h9c49 105 75 280 81 392h158c-8 -110 -73 -352 -141 -509
c-59 -146 -120 -204 -222 -204z" />
    <glyph glyph-name="HaCy.ss01" horiz-adv-x="641" 
d="M8 0c49 151 106 247 203 360v6l-195 334h178l128 -242c60 73 107 165 123 242h175c-44 -128 -108 -235 -192 -334v-6l205 -360h-178l-137 272c-58 -75 -109 -177 -130 -272h-180z" />
    <glyph glyph-name="IaCy.ss01" horiz-adv-x="626" 
d="M196 0h-160c4 100 54 201 116 267c-80 37 -130 107 -130 197v16c0 138 104 220 265 220h265v-700h-157v238h-106c-52 -57 -87 -131 -93 -238zM401 356v214h-102c-78 0 -123 -35 -123 -97v-10c0 -62 44 -107 125 -107h100z" />
    <glyph glyph-name="uni0430" unicode="&#x430;" horiz-adv-x="563" 
d="M205 -11c-101 0 -173 61 -173 153v12c0 111 94 168 291 168h39v15c0 48 -30 79 -88 79h-5c-48 0 -102 -16 -156 -51l-56 102c62 40 143 64 223 64h9c132 0 213 -74 213 -199v-213c0 -42 7 -80 18 -119h-139c-6 16 -11 37 -14 59c-38 -44 -98 -70 -162 -70zM243 102
c44 0 88 20 119 55v78h-30c-108 0 -159 -24 -159 -72v-5c0 -33 28 -56 70 -56z" />
    <glyph glyph-name="uni0431" unicode="&#x431;" horiz-adv-x="590" 
d="M298 -11c-170 0 -268 125 -268 348c0 212 84 349 251 383c65 14 181 18 233 24v-135c-50 -6 -158 -7 -208 -17c-92 -19 -138 -79 -146 -181c38 62 96 98 171 98h8c130 0 220 -104 220 -251v-15c0 -147 -107 -254 -250 -254h-11zM295 100h7c62 0 110 55 110 140v13
c0 86 -46 140 -111 140h-3c-64 0 -114 -56 -114 -142v-11c0 -85 49 -140 111 -140z" />
    <glyph glyph-name="uni0432" unicode="&#x432;" horiz-adv-x="547" 
d="M63 0v520h270c95 0 160 -54 160 -131v-18c0 -41 -22 -75 -58 -100c51 -22 83 -63 83 -113v-19c0 -83 -69 -139 -173 -139h-282zM202 309h76c48 0 74 18 74 52v8c0 34 -26 53 -73 53h-77v-113zM202 98h95c49 0 78 23 78 57v10c0 37 -28 56 -76 56h-97v-123z" />
    <glyph glyph-name="uni0433" unicode="&#x433;" horiz-adv-x="412" 
d="M63 0v520h335v-119h-186v-401h-149z" />
    <glyph glyph-name="uni0491" unicode="&#x491;" horiz-adv-x="403" 
d="M63 0v520h188v111h138v-230h-177v-401h-149z" />
    <glyph glyph-name="uni0434" unicode="&#x434;" horiz-adv-x="605" 
d="M8 -128v239h51c32 48 43 180 43 409h410v-409h75v-239h-140v128h-299v-128h-140zM200 111h164v299h-124c-3 -160 -17 -261 -40 -299z" />
    <glyph glyph-name="uni0435" unicode="&#x435;" horiz-adv-x="564" 
d="M292 -11c-157 0 -262 104 -262 260v19c0 154 106 262 256 262h13c140 0 238 -99 238 -237v-74h-362c7 -69 56 -111 127 -111h9c58 0 105 28 136 62l74 -93c-50 -51 -133 -88 -213 -88h-16zM179 310h217v3c-2 68 -42 108 -99 108h-10c-58 0 -97 -41 -108 -111z" />
    <glyph glyph-name="uni0451" unicode="&#x451;" horiz-adv-x="564" 
d="M401 590c-44 0 -73 28 -73 69s29 69 73 69s77 -28 77 -69s-33 -69 -77 -69zM184 590c-45 0 -76 28 -76 69s31 69 76 69c41 0 74 -28 74 -69s-33 -69 -74 -69zM292 -11c-157 0 -262 104 -262 260v19c0 154 106 262 256 262h13c140 0 238 -99 238 -237v-74h-362
c7 -69 56 -111 127 -111h9c58 0 105 28 136 62l74 -93c-50 -51 -133 -88 -213 -88h-16zM179 310h217v3c-2 68 -42 108 -99 108h-10c-58 0 -97 -41 -108 -111z" />
    <glyph glyph-name="uni0436" unicode="&#x436;" horiz-adv-x="745" 
d="M302 0v241h-12l-124 -241h-161l168 281l-156 239h153l121 -214h11v214h141v-214h12l120 214h153l-155 -239l167 -281h-161l-124 241h-12v-241h-141z" />
    <glyph glyph-name="uni0437" unicode="&#x437;" horiz-adv-x="495" 
d="M247 -11c-102 0 -180 40 -231 125l107 68c28 -51 68 -74 117 -74h8c44 0 73 22 73 53v7c0 33 -25 52 -69 52h-63v90h54c36 0 59 20 59 51v5c0 30 -25 49 -63 49h-7c-46 0 -84 -28 -105 -68l-100 83c50 60 125 101 224 101h9c99 0 184 -59 184 -138v-11
c0 -42 -26 -79 -66 -106c52 -24 88 -69 88 -123v-9c0 -89 -91 -155 -209 -155h-10z" />
    <glyph glyph-name="uni0438" unicode="&#x438;" horiz-adv-x="614" 
d="M63 0v520h145v-303h8l169 303h166v-520h-145v342h-7l-193 -342h-143z" />
    <glyph glyph-name="uni0439" unicode="&#x439;" horiz-adv-x="614" 
d="M134 720h119c0 -31 20 -52 53 -52c34 0 53 21 53 52h119c0 -87 -66 -146 -172 -146c-105 0 -172 59 -172 146zM63 0v520h145v-303h8l169 303h166v-520h-145v342h-7l-193 -342h-143z" />
    <glyph glyph-name="uni043A" unicode="&#x43a;" horiz-adv-x="563" 
d="M63 0v520h149v-214h9l171 214h163l-206 -239l208 -281h-173l-162 241h-10v-241h-149z" />
    <glyph glyph-name="uni043B" unicode="&#x43b;" horiz-adv-x="573" 
d="M77 -9c-26 0 -46 3 -67 11v116c13 -6 29 -8 38 -8c42 0 58 24 60 174l1 236h401v-520h-149v405h-117l-3 -128c-5 -216 -54 -286 -164 -286z" />
    <glyph glyph-name="uni043C" unicode="&#x43c;" horiz-adv-x="698" 
d="M63 0v520h165l117 -284h8l116 284h166v-520h-141v308h-8l-102 -225h-70l-102 225h-8v-308h-141z" />
    <glyph glyph-name="uni043D" unicode="&#x43d;" horiz-adv-x="611" 
d="M63 0v520h149v-189h187v189h149v-520h-149v216h-187v-216h-149z" />
    <glyph glyph-name="uni043E" unicode="&#x43e;" 
d="M294 -11c-156 0 -264 105 -264 256v30c0 151 108 256 264 256h10c156 0 264 -105 264 -256v-30c0 -151 -108 -256 -264 -256h-10zM294 100h10c66 0 110 60 110 151v23c0 89 -44 146 -110 146h-10c-66 0 -110 -57 -110 -146v-23c0 -91 44 -151 110 -151z" />
    <glyph glyph-name="uni043F" unicode="&#x43f;" horiz-adv-x="605" 
d="M63 0v520h479v-520h-149v405h-181v-405h-149z" />
    <glyph glyph-name="uni0440" unicode="&#x440;" horiz-adv-x="625" 
d="M62 -200v720h118c6 -15 11 -38 14 -58c39 43 96 69 163 69h9c136 0 229 -104 229 -256v-30c0 -152 -93 -256 -229 -256h-9c-58 0 -108 19 -146 53v-242h-149zM321 100h9c67 0 110 60 110 151v23c0 89 -43 146 -110 146h-9c-67 0 -110 -58 -110 -146v-23
c0 -91 44 -151 110 -151z" />
    <glyph glyph-name="uni0441" unicode="&#x441;" horiz-adv-x="528" 
d="M285 -10c-151 0 -255 108 -255 257v28c0 147 108 255 251 255h9c91 0 167 -41 218 -115l-105 -75c-30 53 -63 76 -108 76h-6c-65 0 -105 -53 -105 -147v-18c0 -90 43 -144 109 -144h9c42 0 77 25 106 76l104 -80c-52 -74 -125 -113 -218 -113h-9z" />
    <glyph glyph-name="uni0442" unicode="&#x442;" horiz-adv-x="451" 
d="M151 0v401h-137v119h423v-119h-137v-401h-149z" />
    <glyph glyph-name="uni0443" unicode="&#x443;" horiz-adv-x="547" 
d="M155 -204c-33 0 -72 6 -102 20v126c21 -14 48 -23 76 -23c36 0 68 20 88 60l-213 541h155l132 -382h7l99 382h150l-175 -548c-36 -110 -106 -176 -217 -176z" />
    <glyph glyph-name="uni045E" unicode="&#x45e;" horiz-adv-x="547" 
d="M106 720h119c0 -31 20 -52 53 -52c34 0 53 21 53 52h119c0 -87 -66 -146 -172 -146c-105 0 -172 59 -172 146zM155 -204c-33 0 -72 6 -102 20v126c21 -14 48 -23 76 -23c36 0 68 20 88 60l-213 541h155l132 -382h7l99 382h150l-175 -548c-36 -110 -106 -176 -217 -176z
" />
    <glyph glyph-name="uni0444" unicode="&#x444;" horiz-adv-x="749" 
d="M301 720h148v-191c6 1 11 1 17 1c148 0 252 -107 252 -257v-26c0 -150 -104 -257 -251 -257c-6 0 -14 0 -17 1v-191h-149v191c-5 -1 -11 -1 -18 -1c-149 0 -253 107 -253 257v26c0 150 104 257 253 257c6 0 13 0 18 -1v191zM178 271v-22c0 -94 46 -152 117 -152
c2 0 5 0 8 1v324c-3 1 -6 1 -8 1c-70 0 -117 -58 -117 -152zM571 271c0 95 -46 152 -117 152c-3 0 -5 0 -8 -1v-324c2 -1 5 -1 8 -1c71 0 117 58 117 152v22z" />
    <glyph glyph-name="uni0445" unicode="&#x445;" horiz-adv-x="547" 
d="M8 0l169 268v4l-162 248h164l94 -167h6l91 167h162l-161 -248v-4l168 -268h-164l-100 184h-6l-100 -184h-161z" />
    <glyph glyph-name="uni0447" unicode="&#x447;" horiz-adv-x="551" 
d="M339 0v184c-39 -12 -80 -19 -116 -19c-116 0 -179 63 -179 170v185h148v-165c0 -49 19 -73 65 -73c28 0 57 5 82 16v222h149v-520h-149z" />
    <glyph glyph-name="uni0446" unicode="&#x446;" horiz-adv-x="633" 
d="M474 -128v128h-411v520h149v-409h179v409h149v-409h75v-239h-141z" />
    <glyph glyph-name="uni0448" unicode="&#x448;" horiz-adv-x="825" 
d="M63 0v520h146v-409h130v409h147v-409h130v409h146v-520h-699z" />
    <glyph glyph-name="uni0449" unicode="&#x449;" horiz-adv-x="852" 
d="M693 -128v128h-630v520h146v-409h128v409h147v-409h128v409h146v-409h76v-239h-141z" />
    <glyph glyph-name="uni044C" unicode="&#x44c;" horiz-adv-x="521" 
d="M63 0v520h148v-159h105c109 0 181 -72 181 -172v-17c0 -99 -74 -172 -186 -172h-248zM206 108h80c44 0 68 29 68 69v11c0 41 -24 69 -68 69h-80v-149z" />
    <glyph glyph-name="uni044A" unicode="&#x44a;" horiz-adv-x="556" 
d="M102 0v401h-91v119h237v-159h103c109 0 181 -72 181 -172v-17c0 -99 -74 -172 -186 -172h-244zM244 106h76c44 0 68 29 68 69v14c0 40 -24 69 -68 69h-76v-152z" />
    <glyph glyph-name="uni044B" unicode="&#x44b;" horiz-adv-x="756" 
d="M63 0v520h149v-159h96c110 0 184 -73 184 -172v-17c0 -99 -74 -172 -188 -172h-241zM550 0v520h143v-520h-143zM205 109h76c43 0 68 29 68 68v11c0 39 -26 68 -68 68h-76v-147z" />
    <glyph glyph-name="uni0455" unicode="&#x455;" horiz-adv-x="487" 
d="M263 -12c-96 0 -178 26 -245 74l70 106c41 -37 112 -62 169 -62c44 0 69 16 69 46c0 45 -52 41 -156 79c-63 20 -124 55 -124 143c0 86 74 158 186 158c85 0 160 -25 217 -67l-70 -101c-38 31 -92 51 -140 51c-39 0 -61 -14 -61 -43c0 -38 53 -45 115 -60
c80 -20 173 -52 173 -161c0 -99 -80 -163 -203 -163z" />
    <glyph glyph-name="uni0454" unicode="&#x454;" horiz-adv-x="540" 
d="M293 -10c-155 0 -263 108 -263 257v28c0 147 111 255 259 255h9c93 0 171 -41 223 -115l-105 -75c-31 53 -68 76 -116 76h-7c-62 0 -102 -40 -111 -110h177v-91h-176c10 -67 52 -108 114 -108h10c46 0 84 25 113 76l104 -80c-52 -74 -127 -113 -222 -113h-9z" />
    <glyph glyph-name="uni044D" unicode="&#x44d;" horiz-adv-x="539" 
d="M252 -10h-9c-95 0 -173 39 -227 113l104 80c31 -51 69 -76 116 -76h10c61 0 102 40 113 108h-178v91h178c-10 71 -50 110 -111 110h-7c-49 0 -86 -23 -117 -76l-105 75c51 74 129 115 223 115h8c148 0 258 -108 258 -255v-28c0 -149 -101 -257 -256 -257z" />
    <glyph glyph-name="uni0456" unicode="&#x456;" horiz-adv-x="275" 
d="M138 584c-51 0 -85 30 -85 75s34 77 85 77c52 0 88 -32 88 -77s-36 -75 -88 -75zM63 0v520h149v-520h-149z" />
    <glyph glyph-name="uni0457" unicode="&#x457;" horiz-adv-x="275" 
d="M220 590c-40 0 -67 27 -67 69s27 70 67 70c39 0 68 -28 68 -70s-29 -69 -68 -69zM54 590c-40 0 -68 27 -68 69s28 70 68 70c38 0 67 -28 67 -70s-29 -69 -67 -69zM63 0v520h149v-520h-149z" />
    <glyph glyph-name="uni0458" unicode="&#x458;" horiz-adv-x="278" 
d="M142 584c-51 0 -85 30 -85 75s34 77 85 77c52 0 88 -32 88 -77s-36 -75 -88 -75zM59 -197c-33 0 -72 6 -104 18v122c17 -7 33 -12 52 -12c42 0 60 18 60 72v517h149v-538c0 -114 -57 -179 -157 -179z" />
    <glyph glyph-name="uni044E" unicode="&#x44e;" horiz-adv-x="821" 
d="M525 -11c-141 0 -239 90 -252 224h-62v-213h-148v520h148v-192h64c21 123 117 203 250 203h10c153 0 255 -103 255 -256v-30c0 -153 -102 -256 -255 -256h-10zM526 100h8c61 0 101 60 101 151v23c0 89 -40 146 -101 146h-8c-61 0 -101 -57 -101 -146v-23
c0 -91 40 -151 101 -151z" />
    <glyph glyph-name="uni044F" unicode="&#x44f;" horiz-adv-x="541" 
d="M22 0l109 191c-55 28 -92 77 -92 143v18c0 100 76 168 183 168h256v-520h-139v167h-75l-88 -167h-154zM255 269h86v143h-86c-44 0 -75 -24 -75 -64v-11c0 -39 32 -68 75 -68z" />
    <glyph glyph-name="aCy.ss01" horiz-adv-x="604" 
d="M234 -10c-124 0 -201 91 -201 241v23c0 164 112 277 272 277h9c90 0 179 -36 232 -90v-441h-118c-7 21 -15 59 -16 83v3c-32 -58 -95 -96 -168 -96h-10zM283 108h7c60 0 109 60 109 137v152c-18 14 -52 22 -85 22h-3c-72 0 -124 -62 -124 -160v-14c0 -84 34 -137 96 -137
z" />
    <glyph glyph-name="veCy.ss01" horiz-adv-x="550" 
d="M58 0v443c57 53 145 90 229 90h11c112 0 194 -56 194 -142v-18c0 -41 -21 -76 -57 -101c51 -22 80 -67 80 -116v-15c0 -82 -71 -141 -175 -141h-282zM200 310h73c48 0 78 21 78 54v10c0 32 -24 49 -65 49h-6c-29 0 -62 -11 -80 -24v-89zM200 98h95c49 0 80 23 80 57v12
c0 36 -29 54 -79 54h-96v-123z" />
    <glyph glyph-name="deCy.ss01" horiz-adv-x="594" 
d="M8 -128v239h45c30 48 42 180 42 409h212c132 0 200 -65 200 -196v-213h72v-239h-141v128h-289v-128h-141zM196 111h161v189c0 70 -24 105 -83 105h-37c-4 -160 -18 -256 -41 -294z" />
    <glyph glyph-name="ieCy.ss01" horiz-adv-x="572" 
d="M298 -11c-155 0 -267 107 -267 256v19c0 151 112 267 263 267h15c134 0 231 -76 231 -184c0 -86 -65 -132 -200 -132h-161c12 -68 66 -107 130 -107h14c50 0 98 25 137 62l80 -86c-47 -54 -139 -95 -226 -95h-16zM178 306h142c53 0 76 20 76 49c0 37 -33 67 -92 67h-4
c-66 0 -113 -49 -122 -116z" />
    <glyph glyph-name="ioCy.ss01" horiz-adv-x="567" 
d="M414 590c-44 0 -73 28 -73 69s29 69 73 69s77 -28 77 -69s-33 -69 -77 -69zM197 590c-45 0 -76 28 -76 69s31 69 76 69c41 0 74 -28 74 -69s-33 -69 -74 -69zM298 -11c-155 0 -267 107 -267 256v19c0 151 112 267 263 267h15c134 0 231 -76 231 -184
c0 -86 -65 -132 -200 -132h-161c12 -68 66 -107 130 -107h14c50 0 98 25 137 62l80 -86c-47 -54 -139 -95 -226 -95h-16zM178 306h142c53 0 76 20 76 49c0 37 -33 67 -92 67h-4c-66 0 -113 -49 -122 -116z" />
    <glyph glyph-name="elCy.ss01" horiz-adv-x="554" 
d="M76 -10c-25 0 -45 4 -66 12v116c13 -6 29 -8 37 -8c50 0 57 42 58 225l2 185h199c127 0 192 -68 192 -196v-324h-149v300c0 75 -18 105 -68 105h-37l-1 -106c-3 -234 -51 -309 -167 -309z" />
    <glyph glyph-name="erCy.ss01" horiz-adv-x="609" 
d="M63 -190v710h118c9 -21 16 -60 16 -83v-5c34 58 98 98 171 98h9c125 0 199 -91 199 -241v-23c0 -164 -111 -277 -272 -277h-9c-28 0 -56 6 -83 16v-195h-149zM296 101h4c70 0 123 62 123 160v14c0 84 -35 137 -97 137h-6c-61 0 -110 -60 -110 -137v-151
c19 -15 52 -23 86 -23z" />
    <glyph glyph-name="teCy.ss01" horiz-adv-x="449" 
d="M287 -7c-93 0 -139 52 -139 164v244h-135v119h419v-119h-135v-215c0 -52 13 -68 49 -68c16 0 37 3 49 6v-113c-28 -10 -72 -18 -108 -18z" />
    <glyph glyph-name="softsignCy.ss01" horiz-adv-x="523" 
d="M63 0v520h149v-173c32 12 66 19 99 19c113 0 185 -66 185 -170c0 -113 -85 -196 -202 -196h-231zM208 108h65c47 0 80 34 80 85c0 46 -29 71 -73 71c-24 0 -52 -9 -72 -23v-133z" />
    <glyph glyph-name="hardsignCy.ss01" horiz-adv-x="562" 
d="M11 520h238v-173c32 12 66 19 100 19c114 0 186 -66 186 -170c0 -113 -85 -196 -203 -196h-230v401h-91v119zM246 107h66c47 0 80 34 80 85c0 46 -30 72 -73 72c-25 0 -53 -8 -73 -23v-134z" />
    <glyph glyph-name="yeruCy.ss01" horiz-adv-x="756" 
d="M63 0v520h149v-173c31 12 65 19 99 19c113 0 184 -66 184 -170c0 -113 -84 -196 -201 -196h-231zM550 0v520h143v-520h-143zM207 107h65c47 0 80 34 80 85c0 46 -29 71 -73 71c-24 0 -52 -9 -72 -24v-132z" />
    <glyph glyph-name="iaCy.ss01" horiz-adv-x="540" 
d="M20 0l110 190c-55 31 -93 85 -93 149v17c0 101 90 175 210 175h9c84 0 170 -35 226 -90v-441h-141v165h-78l-89 -165h-154zM274 267h69v131c-22 14 -52 22 -81 22h-5c-49 0 -81 -25 -81 -66v-8c0 -42 37 -79 98 -79z" />
    <glyph glyph-name="zero" unicode="0" horiz-adv-x="631" 
d="M315 -13c-173 0 -283 141 -283 363s110 363 283 363c174 0 284 -141 284 -363s-110 -363 -284 -363zM315 122c84 0 132 83 132 228s-48 228 -132 228c-83 0 -131 -83 -131 -228s48 -228 131 -228z" />
    <glyph glyph-name="one" unicode="1" horiz-adv-x="401" 
d="M190 700h137v-700h-147v468c-40 -28 -95 -44 -156 -44v118c100 4 166 64 166 158z" />
    <glyph glyph-name="two" unicode="2" horiz-adv-x="545" 
d="M26 0v109c110 67 334 239 334 382c0 54 -35 88 -87 88c-53 0 -96 -37 -108 -120l-146 27c19 140 119 226 254 226c131 0 238 -79 238 -214c0 -158 -143 -281 -261 -367h276v-131h-500z" />
    <glyph glyph-name="three" unicode="3" horiz-adv-x="586" 
d="M285 -12c-119 0 -227 62 -263 181l133 35c23 -51 64 -82 129 -82c70 0 117 45 117 117c0 66 -41 109 -108 109c-38 0 -72 -12 -97 -28l-46 82l178 166h-272v132h454v-109l-161 -142h7c116 -6 197 -90 197 -214c0 -155 -123 -247 -268 -247z" />
    <glyph glyph-name="four" unicode="4" horiz-adv-x="584" 
d="M341 0v121h-327v110l270 469h198v-456h81v-123h-81v-121h-141zM156 244h185v312h-12l-173 -299v-13z" />
    <glyph glyph-name="five" unicode="5" horiz-adv-x="584" 
d="M290 -12c-120 0 -229 62 -266 181l138 35c22 -52 66 -82 127 -82c76 0 117 45 117 117c0 73 -47 109 -112 109c-49 0 -92 -19 -123 -50l-112 38l41 364h409v-132h-297l-16 -146c39 26 84 40 137 40c132 0 222 -82 222 -220c0 -149 -107 -254 -265 -254z" />
    <glyph glyph-name="six" unicode="6" horiz-adv-x="616" 
d="M566 542l-139 -32c-21 53 -57 79 -107 79c-111 0 -141 -117 -141 -207c45 49 112 72 177 72c128 0 230 -84 230 -222c0 -144 -111 -245 -269 -245c-179 0 -285 131 -285 357c0 229 108 369 287 369c120 0 212 -63 247 -171zM186 242c15 -78 61 -123 130 -123
c73 0 123 49 123 118c0 65 -48 107 -115 107c-57 0 -115 -27 -138 -77c-1 -8 -1 -16 0 -25z" />
    <glyph glyph-name="seven" unicode="7" horiz-adv-x="493" 
d="M80 0l241 553v12h-305v135h463v-111l-234 -589h-165z" />
    <glyph glyph-name="eight" unicode="8" horiz-adv-x="592" 
d="M296 -12c-165 0 -270 81 -270 207c0 83 47 146 126 179c-63 30 -98 84 -98 154c0 113 93 185 242 185c148 0 241 -72 241 -185c0 -70 -35 -124 -97 -154c79 -33 126 -96 126 -179c0 -126 -105 -207 -270 -207zM296 425c64 0 103 30 103 82s-39 82 -103 82
c-65 0 -103 -30 -103 -82s38 -82 103 -82zM296 118c80 0 124 36 124 96c0 61 -44 97 -124 97c-79 0 -126 -36 -126 -97c0 -60 47 -96 126 -96z" />
    <glyph glyph-name="nine" unicode="9" horiz-adv-x="616" 
d="M49 158l139 32c21 -53 57 -79 107 -79c111 0 141 117 141 207c-45 -49 -112 -72 -177 -72c-128 0 -230 84 -230 222c0 144 111 245 269 245c179 0 285 -131 285 -357c0 -229 -108 -369 -287 -369c-120 0 -212 63 -247 171zM429 458c-15 78 -61 123 -130 123
c-73 0 -123 -49 -123 -118c0 -65 48 -107 115 -107c57 0 115 27 138 77c1 8 1 16 0 25z" />
    <glyph glyph-name="zero.osf" horiz-adv-x="602" 
d="M301 -13c-160 0 -269 121 -269 301c0 179 109 300 269 300c162 0 269 -121 269 -300c0 -180 -107 -301 -269 -301zM302 122c76 0 122 67 122 166c0 98 -46 165 -123 165s-123 -66 -123 -165s48 -166 124 -166z" />
    <glyph glyph-name="one.osf" horiz-adv-x="401" 
d="M327 589v-589h-147v357c-40 -28 -95 -44 -156 -44v118c100 4 166 64 166 158h137z" />
    <glyph glyph-name="two.osf" horiz-adv-x="527" 
d="M25 0v112c102 41 322 133 322 270c0 47 -31 76 -82 76c-57 0 -95 -40 -107 -112l-139 28c19 137 107 214 246 214c141 0 227 -79 227 -204c0 -134 -110 -206 -216 -259h232v-125h-483z" />
    <glyph glyph-name="three.osf" horiz-adv-x="586" 
d="M56 462v127h454v-112l-163 -149c2 1 4 1 5 1c128 -5 201 -101 201 -233c0 -150 -109 -252 -273 -252c-132 0 -224 66 -258 188l136 30c23 -57 62 -84 121 -84c79 0 126 48 126 125c0 73 -42 122 -117 122c-34 0 -65 -10 -93 -28l-48 86l186 179h-277z" />
    <glyph glyph-name="four.osf" horiz-adv-x="584" 
d="M341 -141v152h-327v110l274 469h194v-456h81v-123h-81v-152h-141zM158 134h183v301h-12l-171 -289v-12z" />
    <glyph glyph-name="five.osf" horiz-adv-x="584" 
d="M280 -156c-130 0 -221 64 -256 182l136 30c22 -52 64 -78 120 -78c80 0 127 51 127 132c0 77 -42 122 -113 122c-53 0 -88 -13 -125 -48l-111 32l42 371h409v-129h-300l-18 -148c42 25 83 36 131 36c149 0 233 -88 233 -233c0 -162 -107 -269 -275 -269z" />
    <glyph glyph-name="six.osf" horiz-adv-x="616" 
d="M566 542l-138 -32c-22 53 -57 79 -108 79c-85 0 -137 -73 -140 -193c-1 -4 -1 -9 -1 -14c51 49 113 72 177 72c128 0 231 -84 231 -222c0 -144 -112 -245 -271 -245c-179 0 -284 129 -284 355c0 230 109 371 287 371c120 0 212 -63 247 -171zM185 256
c10 -78 54 -137 132 -137c72 0 123 49 123 118c0 65 -46 107 -117 107c-50 0 -101 -23 -123 -66c-5 -6 -10 -14 -15 -22z" />
    <glyph glyph-name="seven.osf" horiz-adv-x="496" 
d="M66 -146l256 583v13h-306v135h466v-116l-249 -615h-167z" />
    <glyph glyph-name="nine.osf" horiz-adv-x="616" 
d="M49 15l139 33c22 -49 57 -73 108 -73c112 0 141 112 141 204c-51 -44 -113 -66 -176 -66c-129 0 -232 87 -232 230c0 148 111 253 269 253c181 0 286 -139 286 -372c0 -237 -109 -379 -287 -379c-120 0 -212 63 -248 170zM432 318c-10 82 -53 146 -131 146
c-73 0 -123 -53 -123 -126c0 -70 45 -114 116 -114c52 0 104 26 127 74c5 6 8 13 11 20z" />
    <glyph glyph-name="zero.tf" horiz-adv-x="600" 
d="M300 713c171 0 278 -141 278 -363s-107 -363 -278 -363c-170 0 -278 141 -278 363s108 363 278 363zM185 209l158 362c-13 6 -28 10 -44 10c-89 0 -141 -84 -141 -231c0 -58 10 -106 27 -141zM419 485l-154 -359c11 -5 22 -7 35 -7c90 0 141 84 141 231
c0 54 -7 100 -22 135z" />
    <glyph glyph-name="one.tf" horiz-adv-x="600" 
d="M391 129h157v-129h-475v129h170v341c-54 -30 -112 -48 -170 -46v118c102 6 182 66 182 158h136v-571z" />
    <glyph glyph-name="two.tf" horiz-adv-x="600" 
d="M51 0v109c109 67 334 239 334 381c0 55 -35 89 -87 89c-53 0 -96 -37 -108 -120l-146 27c19 140 119 226 254 226c131 0 238 -79 238 -214c0 -160 -142 -280 -260 -367h275v-131h-500z" />
    <glyph glyph-name="three.tf" horiz-adv-x="600" 
d="M294 -12c-119 0 -228 62 -263 181l136 30c23 -51 62 -77 118 -77c78 0 125 45 125 117c0 66 -39 109 -115 109c-31 0 -62 -11 -90 -28l-47 82l178 166h-271v132h454v-109l-161 -142h6c117 -6 198 -90 198 -214c0 -155 -123 -247 -268 -247z" />
    <glyph glyph-name="four.tf" horiz-adv-x="600" 
d="M350 0v121h-327v110l270 469h198v-456h81v-123h-81v-121h-141zM165 244h185v312h-12l-173 -299v-13z" />
    <glyph glyph-name="five.tf" horiz-adv-x="600" 
d="M289 -13c-131 0 -222 64 -258 182l136 30c22 -52 64 -77 121 -77c77 0 123 45 123 116c0 70 -41 110 -110 110c-54 0 -89 -15 -125 -50l-111 31l43 371h409v-128h-301l-17 -147c41 27 81 39 133 39c146 0 231 -86 231 -222c0 -154 -108 -255 -274 -255z" />
    <glyph glyph-name="six.tf" horiz-adv-x="600" 
d="M558 542l-138 -32c-22 53 -57 79 -108 79c-85 0 -137 -73 -140 -193c-1 -4 -1 -9 -1 -14c51 49 113 72 177 72c128 0 231 -84 231 -222c0 -144 -112 -245 -270 -245c-179 0 -285 131 -285 357c0 229 109 369 287 369c120 0 212 -63 247 -171zM177 256
c10 -78 54 -137 132 -137c72 0 123 49 123 118c0 65 -46 107 -117 107c-53 0 -107 -25 -131 -72c-3 -5 -5 -10 -7 -16z" />
    <glyph glyph-name="seven.tf" horiz-adv-x="600" 
d="M98 0l147 269h-141v125h209l89 162v12h-366v132h527v-111l-102 -195h65v-125h-128l-139 -269h-161z" />
    <glyph glyph-name="eight.tf" horiz-adv-x="600" 
d="M300 -12c-165 0 -270 81 -270 207c0 83 47 146 126 179c-62 30 -98 84 -98 154c0 113 94 185 242 185s242 -72 242 -185c0 -70 -36 -124 -98 -154c79 -33 126 -96 126 -179c0 -126 -105 -207 -270 -207zM300 431c64 0 102 29 102 79s-38 79 -102 79s-101 -29 -101 -79
s37 -79 101 -79zM300 119c79 0 123 34 123 93s-44 93 -123 93s-124 -34 -124 -93s45 -93 124 -93z" />
    <glyph glyph-name="nine.tf" horiz-adv-x="600" 
d="M42 158l138 32c22 -53 57 -79 108 -79c85 0 137 73 140 193c1 4 1 9 1 14c-51 -49 -113 -72 -177 -72c-128 0 -231 84 -231 222c0 144 112 245 270 245c179 0 285 -131 285 -357c0 -229 -109 -369 -287 -369c-120 0 -212 63 -247 171zM423 444c-10 78 -54 137 -132 137
c-72 0 -123 -49 -123 -118c0 -65 46 -107 117 -107c53 0 107 25 131 72c3 5 5 10 7 16z" />
    <glyph glyph-name="onesuperior" unicode="&#xb9;" horiz-adv-x="295" 
d="M23 595c72 0 124 43 124 105h104v-394h-110v219c-33 -21 -74 -32 -118 -30v100z" />
    <glyph glyph-name="twosuperior" unicode="&#xb2;" horiz-adv-x="354" 
d="M19 306v75c114 61 192 136 192 189c0 24 -17 42 -42 42c-27 0 -48 -21 -51 -52l-104 19c10 81 70 130 158 130c87 0 146 -50 146 -124c0 -62 -43 -129 -113 -185h131v-94h-317z" />
    <glyph glyph-name="threesuperior" unicode="&#xb3;" horiz-adv-x="363" 
d="M184 297c-80 0 -143 35 -173 94l87 55c14 -31 43 -50 79 -50c37 0 62 19 62 48c0 28 -25 47 -62 47c-19 0 -40 -5 -56 -13l-36 51l97 77h-145v94h283v-74l-81 -72c65 -10 108 -58 108 -123c0 -81 -65 -134 -163 -134z" />
    <glyph glyph-name="period" unicode="." horiz-adv-x="254" 
d="M127 -13c-51 0 -92 38 -92 85v6c0 45 41 83 92 83c50 0 92 -38 92 -83v-6c0 -47 -42 -85 -92 -85z" />
    <glyph glyph-name="comma" unicode="," horiz-adv-x="258" 
d="M12 -134l72 290h145l-104 -290h-113z" />
    <glyph glyph-name="colon" unicode=":" horiz-adv-x="254" 
d="M127 289c-51 0 -92 38 -92 85v6c0 45 41 83 92 83c50 0 92 -38 92 -83v-6c0 -47 -42 -85 -92 -85zM127 -13c-51 0 -92 38 -92 85v6c0 45 41 83 92 83c50 0 92 -38 92 -83v-6c0 -47 -42 -85 -92 -85z" />
    <glyph glyph-name="semicolon" unicode=";" horiz-adv-x="270" 
d="M143 289c-51 0 -92 38 -92 85v6c0 45 41 83 92 83s92 -38 92 -83v-6c0 -47 -41 -85 -92 -85zM12 -134l72 290h145l-104 -290h-113z" />
    <glyph glyph-name="ellipsis" unicode="&#x2026;" horiz-adv-x="732" 
d="M605 -13c-51 0 -92 38 -92 85v6c0 45 41 83 92 83c50 0 92 -38 92 -83v-6c0 -47 -42 -85 -92 -85zM127 -13c-51 0 -92 38 -92 85v6c0 45 41 83 92 83c50 0 92 -38 92 -83v-6c0 -47 -42 -85 -92 -85zM366 -13c-51 0 -92 38 -92 85v6c0 45 41 83 92 83c50 0 92 -38 92 -83
v-6c0 -47 -42 -85 -92 -85z" />
    <glyph glyph-name="exclam" unicode="!" horiz-adv-x="279" 
d="M77 234l-19 238v228h162v-228l-18 -238h-125zM139 -13c-51 0 -91 38 -91 85v6c0 45 40 83 91 83c50 0 93 -38 93 -83v-6c0 -47 -43 -85 -93 -85z" />
    <glyph glyph-name="exclamdown" unicode="&#xa1;" horiz-adv-x="279" 
d="M140 356c-51 0 -92 38 -92 84v6c0 47 41 85 92 85s92 -38 92 -85v-6c0 -46 -41 -84 -92 -84zM58 -190v235l19 238h125l18 -238v-235h-162z" />
    <glyph glyph-name="question" unicode="?" horiz-adv-x="526" 
d="M192 234c-1 5 -1 24 -1 31c0 66 31 110 84 156c35 31 73 57 73 98s-34 63 -84 63c-63 0 -107 -41 -110 -94l-131 19c4 123 107 213 254 213c133 0 228 -75 228 -182c0 -64 -28 -107 -95 -160c-45 -37 -90 -69 -90 -128v-16h-128zM260 -13c-50 0 -91 38 -91 85v6
c0 46 41 83 91 83s93 -38 93 -83v-6c0 -47 -42 -85 -93 -85z" />
    <glyph glyph-name="questiondown" unicode="&#xbf;" horiz-adv-x="526" 
d="M266 356c-51 0 -94 38 -94 84v6c0 47 43 85 94 85c50 0 90 -38 90 -85v-6c0 -46 -40 -84 -90 -84zM249 -203c-133 0 -227 75 -227 182c0 64 28 107 95 161c45 36 90 67 90 128v15h128c0 -88 -16 -126 -84 -187c-35 -31 -72 -57 -72 -98s33 -63 83 -63c63 0 107 41 111 94
l130 -19c-4 -123 -107 -213 -254 -213z" />
    <glyph glyph-name="periodcentered" unicode="&#xb7;" horiz-adv-x="230" 
d="M113 220c-50 0 -85 30 -85 75s35 77 85 77c52 0 89 -32 89 -77s-37 -75 -89 -75z" />
    <glyph glyph-name="bullet" unicode="&#x2022;" horiz-adv-x="272" 
d="M136 203c-56 0 -101 41 -101 94v6c0 50 45 92 101 92c55 0 101 -42 101 -92v-6c0 -53 -45 -94 -101 -94z" />
    <glyph glyph-name="asterisk" unicode="*" horiz-adv-x="450" 
d="M178 303v102l3 20l-16 -13l-88 -52l-48 83l88 51l21 7l-20 7l-89 51l48 83l88 -52l17 -14l-5 21v102h95v-101l-4 -22l17 14l88 52l48 -83l-89 -51l-20 -7l21 -8l88 -50l-48 -83l-88 52l-17 13l4 -21l1 -101h-95z" />
    <glyph glyph-name="numbersign" unicode="#" horiz-adv-x="808" 
d="M71 0l49 157h-101v125h141l47 146h-101v125h141l47 147h151l-47 -147h138l47 147h151l-46 -147h101v-125h-141l-47 -146h101v-125h-140l-51 -157h-151l50 157h-138l-50 -157h-151zM312 282h138l46 146h-138z" />
    <glyph glyph-name="slash" unicode="/" horiz-adv-x="331" 
d="M13 -111l163 831h141l-163 -831h-141z" />
    <glyph glyph-name="backslash" unicode="\" horiz-adv-x="319" 
d="M176 -111l-158 831h125l159 -831h-126z" />
    <glyph glyph-name="parenleft" unicode="(" horiz-adv-x="293" 
d="M182 -181c-97 129 -148 296 -148 458c0 163 52 332 148 463l99 -55c-64 -123 -97 -266 -97 -409c0 -140 32 -281 97 -403z" />
    <glyph glyph-name="parenright" unicode=")" horiz-adv-x="293" 
d="M111 -181l-99 54c65 122 98 263 98 403c0 143 -34 286 -98 409l99 55c96 -131 148 -300 148 -463c0 -162 -50 -329 -148 -458z" />
    <glyph glyph-name="braceleft" unicode="{" horiz-adv-x="395" 
d="M235 -153c-74 0 -127 45 -127 121v188c0 46 -27 73 -80 73v109c53 0 80 28 80 74v187c0 76 53 121 127 121h132v-122h-54c-48 0 -67 -21 -67 -71v-146c0 -55 -31 -92 -83 -92v-11c52 0 83 -36 83 -92v-146c0 -50 19 -71 67 -71h54v-122h-132z" />
    <glyph glyph-name="braceright" unicode="}" horiz-adv-x="395" 
d="M28 -153v122h54c48 0 67 21 67 71v146c0 56 30 92 83 92v11c-52 0 -83 37 -83 92v146c0 50 -19 71 -67 71h-54v122h132c73 0 127 -45 127 -121v-187c0 -46 27 -74 80 -74v-109c-53 0 -80 -27 -80 -73v-188c0 -76 -54 -121 -127 -121h-132z" />
    <glyph glyph-name="bracketleft" unicode="[" horiz-adv-x="369" 
d="M63 -156v876h278v-122h-140v-631h140v-123h-278z" />
    <glyph glyph-name="bracketright" unicode="]" horiz-adv-x="368" 
d="M28 -156v123h136v631h-136v122h277v-876h-277z" />
    <glyph glyph-name="hyphen" unicode="-" horiz-adv-x="450" 
d="M65 250v120h320v-120h-320z" />
    <glyph glyph-name="endash" unicode="&#x2013;" horiz-adv-x="640" 
d="M65 259v103h510v-103h-510z" />
    <glyph glyph-name="emdash" unicode="&#x2014;" horiz-adv-x="1130" 
d="M65 258v104h1000v-104h-1000z" />
    <glyph glyph-name="underscore" unicode="_" horiz-adv-x="493" 
d="M26 -144v99h440v-99h-440z" />
    <glyph glyph-name="quotesinglbase" unicode="&#x201a;" horiz-adv-x="260" 
d="M6 -130l86 298h141l-113 -298h-114z" />
    <glyph glyph-name="quotedblbase" unicode="&#x201e;" horiz-adv-x="462" 
d="M11 -130l86 298h138l-113 -298h-111zM209 -130l86 298h138l-113 -298h-111z" />
    <glyph glyph-name="quotedblleft" unicode="&#x201c;" horiz-adv-x="462" 
d="M451 700l-86 -298h-138l113 298h111zM253 700l-86 -298h-138l113 298h111z" />
    <glyph glyph-name="quotedblright" unicode="&#x201d;" horiz-adv-x="462" 
d="M31 402l86 298h138l-113 -298h-111zM229 402l86 298h138l-113 -298h-111z" />
    <glyph glyph-name="quoteleft" unicode="&#x2018;" horiz-adv-x="273" 
d="M259 700l-86 -298h-141l113 298h114z" />
    <glyph glyph-name="quoteright" unicode="&#x2019;" horiz-adv-x="267" 
d="M31 402l86 298h141l-113 -298h-114z" />
    <glyph glyph-name="guillemotleft" unicode="&#xab;" horiz-adv-x="627" 
d="M435 70l-147 200v8l147 200h155l-146 -199v-10l146 -199h-155zM189 70l-148 200v8l148 200h155l-146 -199v-10l146 -199h-155z" />
    <glyph glyph-name="guillemotright" unicode="&#xbb;" horiz-adv-x="626" 
d="M282 70l147 199v10l-147 199h155l148 -200v-8l-148 -200h-155zM36 70l147 199v10l-147 199h155l148 -200v-8l-148 -200h-155z" />
    <glyph glyph-name="guilsinglleft" unicode="&#x2039;" horiz-adv-x="380" 
d="M189 70l-148 200v8l148 200h155l-147 -199v-10l147 -199h-155z" />
    <glyph glyph-name="guilsinglright" unicode="&#x203a;" horiz-adv-x="380" 
d="M339 270l-148 -200h-155l147 199v10l-147 199h155l148 -200v-8z" />
    <glyph glyph-name="quotedbl" unicode="&#x22;" horiz-adv-x="367" 
d="M45 401l-18 181v118h131v-118l-18 -181h-95zM227 401l-18 181v118h131v-118l-18 -181h-95z" />
    <glyph glyph-name="quotesingle" unicode="'" horiz-adv-x="201" 
d="M53 401l-18 181v118h131v-118l-18 -181h-95z" />
    <glyph glyph-name="cent" unicode="&#xa2;" horiz-adv-x="516" 
d="M237 -122l-122 31l32 118c-73 43 -117 125 -117 232v3c0 150 85 253 214 265c4 1 9 1 13 2h6l32 123l122 -29l-31 -116c41 -19 76 -49 103 -89l-95 -76c-19 39 -55 61 -98 61h-4c-68 0 -113 -56 -113 -140v-3c0 -86 46 -143 115 -143h5c44 0 80 24 104 67l97 -80
c-50 -73 -127 -114 -217 -114h-9c-2 0 -5 1 -7 1z" />
    <glyph glyph-name="currency" unicode="&#xa4;" horiz-adv-x="560" 
d="M422 97l-75 73c-19 -8 -41 -11 -65 -11c-26 0 -50 4 -70 13l-68 -68l-85 85l69 69c-8 20 -13 42 -13 67s4 47 12 66l-76 76l87 87l75 -76c20 9 43 14 69 14c24 0 48 -4 67 -13l67 67l85 -85l-66 -66c9 -20 13 -44 13 -70c0 -25 -4 -49 -13 -69l74 -73zM282 256
c41 0 67 28 67 69c0 42 -26 70 -67 70s-68 -28 -68 -70c0 -41 27 -69 68 -69z" />
    <glyph glyph-name="dollar" unicode="$" horiz-adv-x="598" 
d="M234 -75v97c-81 11 -158 41 -212 84l70 117c53 -43 147 -73 224 -73c63 0 100 19 100 52c0 42 -48 62 -139 86c-170 45 -236 101 -236 198c0 98 73 170 183 191v98h126v-95c72 -9 141 -34 195 -72l-60 -115c-58 37 -132 59 -197 59c-61 0 -95 -20 -95 -54
c0 -42 54 -59 138 -81c174 -45 242 -101 242 -200c0 -107 -84 -183 -213 -198v-94h-126z" />
    <glyph glyph-name="Euro" unicode="&#x20ac;" horiz-adv-x="661" 
d="M389 -13c-147 0 -254 90 -291 237h-79v102h65v14v20v13h-65v102h79c37 146 145 238 292 238c96 0 176 -38 230 -110l-104 -93c-30 43 -78 67 -129 67c-63 0 -113 -38 -135 -102h211v-102h-226c-1 -4 -1 -9 -1 -13v-21c0 -5 0 -9 1 -13h226v-102h-209
c22 -64 72 -101 134 -101c55 0 106 27 135 71l113 -83c-56 -80 -144 -124 -247 -124z" />
    <glyph glyph-name="uni20B4" unicode="&#x20b4;" horiz-adv-x="629" 
d="M19 372v103h368c5 6 8 14 8 24c-2 48 -37 78 -91 78c-44 0 -98 -19 -143 -51l-60 115c60 46 135 72 213 72c137 0 228 -77 228 -188c0 -19 -2 -34 -8 -50h76v-103h-591zM330 -13c-150 0 -251 78 -251 191c0 17 1 32 6 46h-66v103h591v-103h-379c-3 -8 -5 -17 -5 -27
c0 -46 41 -74 108 -74c57 0 117 21 158 55l69 -117c-56 -46 -142 -74 -231 -74z" />
    <glyph glyph-name="sterling" unicode="&#xa3;" horiz-adv-x="510" 
d="M29 0v118c12 4 28 8 42 10v171h-39v103h39v92c0 131 86 218 214 218c82 0 152 -37 200 -113l-112 -76c-12 36 -39 55 -76 55c-43 0 -76 -28 -76 -82v-94h157v-103h-157v-165h272v-134h-464z" />
    <glyph glyph-name="yen" unicode="&#xa5;" horiz-adv-x="622" 
d="M48 136v103h185v34l-19 33h-166v103h109l-163 291h180l134 -281h7l133 281h179l-161 -291h109v-103h-167l-18 -33v-34h185v-103h-185v-136h-157v136h-185z" />
    <glyph glyph-name="yen.ss01" horiz-adv-x="632" 
d="M47 136v103h182v30l-20 37h-162v103h105l-158 291h179l138 -290h9c59 74 107 188 127 290h179c-39 -117 -80 -206 -135 -291h83v-103h-159c-9 -12 -20 -24 -30 -36v-31h189v-103h-189v-136h-156v136h-182z" />
    <glyph glyph-name="plus" unicode="+" horiz-adv-x="593" 
d="M235 63v202h-191v120h191v202h123v-202h191v-120h-191v-202h-123z" />
    <glyph glyph-name="minus" unicode="&#x2212;" horiz-adv-x="593" 
d="M44 265v120h505v-120h-505z" />
    <glyph glyph-name="multiply" unicode="&#xd7;" horiz-adv-x="530" 
d="M129 104l-85 85l136 136l-136 136l85 85l136 -136l136 136l85 -85l-136 -136l136 -136l-85 -85l-136 136z" />
    <glyph glyph-name="divide" unicode="&#xf7;" horiz-adv-x="593" 
d="M295 440c-44 0 -79 35 -79 77v3c0 42 35 75 79 75c45 0 82 -33 82 -75v-3c0 -42 -37 -77 -82 -77zM44 265v120h505v-120h-505zM295 54c-44 0 -80 33 -80 77v4c0 42 36 75 80 75c45 0 82 -33 82 -75v-4c0 -44 -37 -77 -82 -77z" />
    <glyph glyph-name="equal" unicode="=" horiz-adv-x="593" 
d="M49 366v120h495v-120h-495zM49 165v119h495v-119h-495z" />
    <glyph glyph-name="greater" unicode="&#x3e;" horiz-adv-x="554" 
d="M56 41v135l313 149l-313 147v136l460 -230v-106z" />
    <glyph glyph-name="less" unicode="&#x3c;" horiz-adv-x="554" 
d="M498 41l-460 231v106l460 230v-136l-312 -147l312 -149v-135z" />
    <glyph glyph-name="asciitilde" unicode="~" horiz-adv-x="560" 
d="M282 379c26 -10 54 -19 81 -19c33 0 42 22 43 43h119c-3 -81 -48 -148 -131 -148c-44 0 -77 13 -108 25c-27 10 -54 19 -82 19c-33 0 -42 -23 -44 -43h-119c6 80 51 148 133 148c44 0 76 -13 108 -25z" />
    <glyph glyph-name="asciicircum" unicode="^" horiz-adv-x="529" 
d="M16 339l193 361h110l193 -361h-133l-105 209h-20l-104 -209h-134z" />
    <glyph glyph-name="percent" unicode="%" horiz-adv-x="818" 
d="M189 336c-91 0 -157 73 -157 177v17c0 104 66 177 157 177h19c91 0 157 -73 157 -177v-17c0 -104 -66 -177 -157 -177h-19zM67 0l528 702h157l-528 -702h-157zM197 445h3c30 0 53 27 53 71v11c0 44 -23 71 -53 71h-3c-30 0 -53 -27 -53 -71v-11c0 -44 23 -71 53 -71z
M610 -8c-92 0 -157 73 -157 177v17c0 104 65 177 157 177h18c92 0 158 -73 158 -177v-17c0 -104 -66 -177 -158 -177h-18zM617 101h4c30 0 52 27 52 71v11c0 44 -22 71 -52 71h-4c-30 0 -52 -27 -52 -71v-11c0 -44 22 -71 52 -71z" />
    <glyph glyph-name="perthousand" unicode="&#x2030;" horiz-adv-x="1192" 
d="M189 335c-91 0 -157 73 -157 177v17c0 104 66 177 157 177h19c91 0 157 -73 157 -177v-17c0 -104 -66 -177 -157 -177h-19zM67 -1l528 702h157l-528 -702h-157zM197 444h3c30 0 53 27 53 71v11c0 44 -23 71 -53 71h-3c-30 0 -53 -27 -53 -71v-11c0 -44 23 -71 53 -71z
M985 -8c-92 0 -157 73 -157 177v17c0 104 65 177 157 177h18c92 0 158 -73 158 -177v-17c0 -104 -66 -177 -158 -177h-18zM610 -9c-92 0 -157 73 -157 177v17c0 104 65 177 157 177h18c92 0 158 -73 158 -177v-17c0 -104 -66 -177 -158 -177h-18zM992 101h4
c30 0 52 27 52 71v11c0 44 -22 71 -52 71h-4c-30 0 -52 -27 -52 -71v-11c0 -44 22 -71 52 -71zM617 100h4c30 0 52 27 52 71v11c0 44 -22 71 -52 71h-4c-30 0 -52 -27 -52 -71v-11c0 -44 22 -71 52 -71z" />
    <glyph glyph-name="at" unicode="@" horiz-adv-x="1001" 
d="M501 -193c-259 0 -464 201 -464 453c0 255 206 453 471 453c261 0 456 -191 456 -446c0 -157 -78 -257 -201 -257c-65 0 -114 27 -138 74c-39 -48 -94 -74 -159 -74h-4c-123 0 -212 98 -212 234v25c0 136 89 235 211 235h3c62 0 117 -25 154 -69c6 21 12 42 20 61h95
v-299c0 -53 16 -84 49 -84c49 0 79 59 79 150c0 204 -146 348 -350 348c-209 0 -368 -150 -368 -349c0 -198 158 -353 363 -353c76 0 144 20 201 59l48 -87c-73 -48 -162 -74 -254 -74zM493 113h2c62 0 103 55 103 134v18c0 79 -42 134 -104 134h-1
c-62 0 -106 -55 -106 -134v-18c0 -78 45 -134 106 -134z" />
    <glyph glyph-name="ampersand" unicode="&#x26;" horiz-adv-x="756" 
d="M303 -12c-155 0 -253 77 -253 197c0 91 61 168 146 205l-1 1c-58 66 -72 98 -72 149c0 105 79 173 198 173c117 0 193 -66 193 -167c0 -72 -48 -140 -123 -181l116 -130c13 30 22 67 22 106v35h122v-61c0 -65 -20 -131 -51 -179l121 -136h-175l-40 45
c-56 -35 -125 -57 -203 -57zM319 447c56 37 74 59 74 98c0 38 -27 62 -68 62c-42 0 -70 -25 -70 -60c0 -36 28 -61 64 -100zM425 134l-149 167c-58 -21 -90 -57 -90 -105c0 -58 48 -95 125 -95c44 0 82 11 114 33z" />
    <glyph glyph-name="paragraph" unicode="&#xb6;" horiz-adv-x="583" 
d="M272 -138v380c-144 0 -239 92 -239 229c0 138 99 229 247 229h230v-128h-98v-710h-140z" />
    <glyph glyph-name="section" unicode="&#xa7;" horiz-adv-x="527" 
d="M255 712c83 0 152 -24 207 -67l-70 -101c-30 31 -75 52 -130 52c-45 0 -81 -27 -81 -64c0 -48 47 -67 127 -86c94 -23 194 -67 194 -179c0 -67 -38 -121 -98 -152c42 -30 69 -73 69 -134c0 -115 -96 -179 -206 -179c-84 0 -154 24 -209 67l70 101c31 -31 76 -53 132 -53
c46 0 83 27 83 65c0 47 -46 66 -127 86c-94 22 -194 66 -194 179c0 67 38 120 98 152c-42 30 -68 73 -68 133c0 115 94 180 203 180zM292 162c48 10 81 39 81 82c0 73 -82 93 -140 108c-49 -10 -82 -39 -82 -82c0 -56 40 -78 108 -99c11 -3 21 -6 33 -9z" />
    <glyph glyph-name="copyright" unicode="&#xa9;" horiz-adv-x="794" 
d="M397 -10c-208 0 -360 152 -360 360c0 204 156 360 360 360c208 0 360 -152 360 -360s-152 -360 -360 -360zM397 93c149 0 257 109 257 257c0 149 -108 258 -257 258c-148 0 -258 -109 -258 -258c0 -148 110 -257 258 -257zM400 168c-108 0 -184 79 -184 188
c0 108 75 185 181 185c66 0 126 -30 155 -79l-84 -54c-11 26 -32 40 -62 40c-48 0 -78 -36 -78 -93c0 -59 30 -94 76 -94c31 0 59 16 72 45l81 -59c-33 -50 -92 -79 -157 -79z" />
    <glyph glyph-name="registered" unicode="&#xae;" horiz-adv-x="794" 
d="M397 -10c-208 0 -360 152 -360 360c0 204 156 360 360 360c208 0 360 -152 360 -360s-152 -360 -360 -360zM397 93c149 0 257 109 257 257c0 149 -108 258 -257 258c-148 0 -258 -109 -258 -258c0 -148 110 -257 258 -257zM261 184v346h149c75 0 122 -47 122 -121
c0 -43 -15 -76 -44 -97l69 -128h-101l-52 106h-49v-106h-94zM355 372h46c24 0 37 14 37 36c0 23 -13 34 -37 34h-46v-70z" />
    <glyph glyph-name="trademark" unicode="&#x2122;" horiz-adv-x="617" 
d="M261 455v245h122l33 -113h6l33 113h122v-245h-79v159h-7l-39 -121h-66l-39 121h-7v-159h-79zM82 455v170h-72v75h223v-75h-72v-170h-79z" />
    <glyph glyph-name="degree" unicode="&#xb0;" horiz-adv-x="385" 
d="M192 397c-92 0 -154 62 -154 156c0 93 62 155 154 155c94 0 155 -62 155 -155c0 -94 -61 -156 -155 -156zM193 495c33 0 55 23 55 58c0 34 -22 58 -55 58c-34 0 -56 -24 -56 -58c0 -35 22 -58 56 -58z" />
    <glyph glyph-name="bar" unicode="|" horiz-adv-x="265" 
d="M64 -190v910h137v-910h-137z" />
    <glyph glyph-name="brokenbar" unicode="&#xa6;" horiz-adv-x="253" 
d="M64 340v380h125v-380h-125zM64 -190v390h125v-390h-125z" />
    <glyph glyph-name="dagger" unicode="&#x2020;" horiz-adv-x="398" 
d="M138 -128v528h-123v120h123v200h123v-200h122v-120h-122v-528h-123z" />
    <glyph glyph-name="daggerdbl" unicode="&#x2021;" horiz-adv-x="398" 
d="M137 -128v260h-122v121h122v147h-122v120h122v200h124v-200h122v-120h-122v-147h122v-121h-122v-260h-124z" />
    <glyph glyph-name="uni2116" unicode="&#x2116;" horiz-adv-x="1010" 
d="M833 428c-79 0 -135 54 -135 135v8c0 80 56 134 135 134h14c79 0 134 -54 134 -134v-8c0 -81 -55 -135 -134 -135h-14zM74 0v700h171l234 -463h5v463h146v-700h-157l-247 491h-6v-491h-146zM838 508h5c30 0 52 22 52 56v6c0 35 -22 55 -52 55h-5c-31 0 -54 -20 -54 -55
v-6c0 -34 23 -56 54 -56zM716 297v87h248v-87h-248z" />
    <glyph glyph-name="estimated" unicode="&#x212e;" horiz-adv-x="802" 
d="M235 350v-239c47 -33 104 -52 166 -52c108 0 203 59 254 148h80c-56 -130 -185 -220 -334 -220c-201 0 -364 163 -364 363s163 364 364 364c200 0 363 -163 363 -364h-529zM566 422v168c-47 33 -104 52 -165 52c-62 0 -119 -19 -166 -52v-168h331z" />
    <glyph glyph-name="numero.ss01" horiz-adv-x="1013" 
d="M841 428c-80 0 -135 54 -135 135v8c0 80 55 134 135 134h14c79 0 134 -54 134 -134v-8c0 -81 -55 -135 -134 -135h-14zM65 0c-3 250 11 551 34 700h155l233 -463h5v463h146v-700h-157l-249 495h-7c-11 -160 -10 -357 1 -495h-161zM846 508h5c30 0 52 22 52 56v6
c0 35 -22 55 -52 55h-5c-31 0 -54 -20 -54 -55v-6c0 -34 23 -56 54 -56zM724 297v87h248v-87h-248z" />
    <glyph glyph-name="uni0326" unicode="&#x326;" horiz-adv-x="261" 
d="M50 -195l36 155h126l-65 -155h-97z" />
    <glyph glyph-name="dieresis" unicode="&#xa8;" horiz-adv-x="469" 
d="M343 590c-44 0 -73 28 -73 69s29 69 73 69s77 -28 77 -69s-33 -69 -77 -69zM126 590c-45 0 -76 28 -76 69s31 69 76 69c41 0 74 -28 74 -69s-33 -69 -74 -69z" />
    <glyph glyph-name="dotaccent" unicode="&#x2d9;" horiz-adv-x="273" 
d="M135 584c-51 0 -85 30 -85 75s34 77 85 77c52 0 88 -32 88 -77s-36 -75 -88 -75z" />
    <glyph glyph-name="grave" unicode="`" horiz-adv-x="287" 
d="M126 571l-76 164h129l58 -164h-111z" />
    <glyph glyph-name="acute" unicode="&#xb4;" horiz-adv-x="287" 
d="M161 571h-111l57 164h130z" />
    <glyph glyph-name="hungarumlaut" unicode="&#x2dd;" horiz-adv-x="458" 
d="M50 571l47 164h130l-67 -164h-110zM231 571l47 164h130l-67 -164h-110z" />
    <glyph glyph-name="circumflex" unicode="&#x2c6;" horiz-adv-x="488" 
d="M438 588h-130l-55 55h-18l-55 -55h-130l112 131h164z" />
    <glyph glyph-name="caron" unicode="&#x2c7;" horiz-adv-x="488" 
d="M162 588l-112 131h130l55 -56h18l55 56h130l-112 -131h-164z" />
    <glyph glyph-name="breve" unicode="&#x2d8;" horiz-adv-x="444" 
d="M50 720h119c0 -31 20 -52 53 -52c34 0 53 21 53 52h119c0 -87 -66 -146 -172 -146c-105 0 -172 59 -172 146z" />
    <glyph glyph-name="ring" unicode="&#x2da;" horiz-adv-x="319" 
d="M161 570c-65 0 -111 40 -111 95c0 60 46 100 111 100c63 0 109 -41 109 -100c0 -55 -45 -95 -109 -95zM160 632c23 0 39 14 39 35s-16 37 -39 37s-39 -16 -39 -37s16 -35 39 -35z" />
    <glyph glyph-name="tilde" unicode="&#x2dc;" horiz-adv-x="499" 
d="M237 711c21 -8 42 -16 63 -16c24 0 28 17 29 34h119c-3 -78 -38 -139 -103 -139c-35 0 -60 8 -84 18c-20 7 -42 15 -63 15c-24 0 -28 -16 -29 -34h-119c3 77 39 139 103 139c35 0 60 -8 84 -17z" />
    <glyph glyph-name="macron" unicode="&#xaf;" horiz-adv-x="400" 
d="M50 600v106h299v-106h-299z" />
    <glyph glyph-name="cedilla" unicode="&#xb8;" horiz-adv-x="304" 
d="M143 -206c-33 0 -67 10 -93 26l30 73c9 -8 23 -16 41 -16c20 0 32 12 32 27c0 20 -14 35 -58 35l25 61l42 10l36 -10l-13 -26c44 -8 70 -38 70 -79c0 -67 -56 -101 -112 -101z" />
    <glyph glyph-name="ogonek" unicode="&#x2db;" horiz-adv-x="273" 
d="M147 -206c-61 0 -97 34 -97 89c0 60 49 120 121 146l52 -29c-27 -15 -65 -57 -65 -89c0 -19 9 -29 25 -29c14 0 29 5 39 15v-83c-24 -14 -52 -20 -75 -20z" />
    <glyph glyph-name="dieresis.case" horiz-adv-x="459" 
d="M124 750c-44 0 -74 28 -74 69s30 69 74 69c43 0 76 -28 76 -69s-33 -69 -76 -69zM333 750c-44 0 -74 28 -74 69s30 69 74 69s76 -28 76 -69s-32 -69 -76 -69z" />
    <glyph glyph-name="dotaccent.case" horiz-adv-x="270" 
d="M133 744c-49 0 -83 30 -83 75c0 44 34 75 83 75c52 0 87 -31 87 -75c0 -45 -35 -75 -87 -75z" />
    <glyph glyph-name="grave.case" horiz-adv-x="303" 
d="M128 743l-78 152h142l62 -152h-126z" />
    <glyph glyph-name="acute.case" horiz-adv-x="294" 
d="M244 895l-81 -152h-113l55 152h139z" />
    <glyph glyph-name="hungarumlaut.case" horiz-adv-x="480" 
d="M170 743h-120l56 152h139zM355 743h-119l55 152h139z" />
    <glyph glyph-name="circumflex.case" horiz-adv-x="484" 
d="M50 754l110 128h164l110 -128h-131l-52 53h-18l-52 -53h-131z" />
    <glyph glyph-name="caron.case" horiz-adv-x="484" 
d="M160 754l-110 128h131l52 -53h18l52 53h131l-110 -128h-164z" />
    <glyph glyph-name="breve.case" horiz-adv-x="444" 
d="M50 885h120c0 -31 19 -52 53 -52c33 0 52 21 52 52h120c0 -88 -67 -146 -172 -146c-106 0 -173 58 -173 146z" />
    <glyph glyph-name="ring.case" horiz-adv-x="321" 
d="M162 724c-67 0 -112 40 -112 95c0 60 45 100 112 100c63 0 109 -41 109 -100c0 -55 -45 -95 -109 -95zM160 785c23 0 39 15 39 35c0 21 -16 38 -39 38c-22 0 -38 -17 -38 -38c0 -20 16 -35 38 -35z" />
    <glyph glyph-name="tilde.case" horiz-adv-x="514" 
d="M248 878c22 -9 43 -17 66 -17c25 0 30 18 31 36h119c-4 -87 -43 -147 -110 -147c-36 0 -62 11 -88 21c-22 9 -43 17 -66 17c-25 0 -30 -18 -30 -36h-120c4 87 43 147 110 147c36 0 62 -10 88 -21z" />
    <glyph glyph-name="macron.case" horiz-adv-x="400" 
d="M50 769v100h299v-100h-299z" />
    <glyph glyph-name="commaaccentcomb.salt" horiz-adv-x="247" 
d="M197 743l-21 -167h-126l56 167h91z" />
    <glyph glyph-name="caron.salt" horiz-adv-x="231" 
d="M50 549l8 171h123l-39 -171h-92z" />
    <glyph glyph-name="_percCircule" horiz-adv-x="809" 
d="M606 -8c-92 0 -157 73 -157 177v17c0 104 65 177 157 177h18c92 0 158 -73 158 -177v-17c0 -104 -66 -177 -158 -177h-18zM613 101h4c30 0 52 27 52 71v11c0 44 -22 71 -52 71h-4c-30 0 -52 -27 -52 -71v-11c0 -44 22 -71 52 -71z" />
    <glyph glyph-name="eight.osf" horiz-adv-x="592" 
d="M296 -12c-165 0 -270 81 -270 207c0 83 47 146 126 179c-63 30 -98 84 -98 154c0 113 93 185 242 185c148 0 241 -72 241 -185c0 -70 -35 -124 -97 -154c79 -33 126 -96 126 -179c0 -126 -105 -207 -270 -207zM296 425c64 0 103 30 103 82s-39 82 -103 82
c-65 0 -103 -30 -103 -82s38 -82 103 -82zM296 118c80 0 124 36 124 96c0 61 -44 97 -124 97c-79 0 -126 -36 -126 -97c0 -60 47 -96 126 -96z" />
    <glyph glyph-name="uni20BD" unicode="&#x20bd;" horiz-adv-x="625" 
d="M11 261v104h68v335h254c158 0 259 -84 259 -213v-10c0 -132 -102 -216 -258 -216h-99v-62h202v-103h-202v-96h-156v96h-68v103h68v62h-68zM235 365h81c74 0 121 39 121 99v10c0 58 -45 92 -116 92h-86v-201z" />
    <glyph glyph-name="uni0409" unicode="&#x409;" horiz-adv-x="977" 
d="M88 -13c-30 0 -55 6 -78 15v131c19 -7 37 -11 51 -11c64 0 78 66 84 352l5 226h453v-252h97c149 0 244 -84 244 -218v-8c0 -135 -95 -222 -243 -222h-254v564h-150l-5 -128c-8 -276 -22 -449 -204 -449zM603 129h75c74 0 115 33 115 92v7c0 60 -39 90 -116 90h-74v-189z
" />
    <glyph glyph-name="uni040A" unicode="&#x40a;" horiz-adv-x="984" 
d="M74 0v700h156v-252h224v252h156v-252h97c149 0 244 -84 244 -218v-8c0 -135 -95 -222 -243 -222h-254v312h-224v-312h-156zM610 129h75c74 0 115 33 115 92v7c0 60 -38 90 -115 90h-75v-189z" />
    <glyph glyph-name="uni0408" unicode="&#x408;" horiz-adv-x="397" 
d="M129 -13c-34 0 -68 6 -99 16v146c17 -12 40 -20 66 -20c53 0 78 32 78 86v485h156v-507c0 -136 -73 -206 -201 -206z" />
    <glyph glyph-name="uni045F" unicode="&#x45f;" horiz-adv-x="603" 
d="M63 520h149v-409h179v409h149v-520h-168v-128h-141v128h-168v520z" />
    <glyph glyph-name="uni040F" unicode="&#x40f;" horiz-adv-x="684" 
d="M611 700v-700h-194v-135h-149v135h-194v700h156v-570h225v570h156z" />
    <glyph glyph-name="uni0459" unicode="&#x459;" horiz-adv-x="809" 
d="M77 -9c-26 0 -46 3 -67 11v116c13 -6 29 -8 38 -8c47 0 57 39 59 225l1 185h395v-174h98c110 0 183 -69 183 -165v-16c0 -95 -75 -165 -188 -165h-242v405h-110l-2 -108c-5 -231 -55 -306 -165 -306zM503 105h69c42 0 66 27 66 64v8c0 37 -24 64 -66 64h-69v-136z" />
    <glyph glyph-name="uni045A" unicode="&#x45a;" horiz-adv-x="833" 
d="M63 0v520h149v-173h167v173h149v-174h97c111 0 184 -69 184 -165v-16c0 -95 -75 -165 -188 -165h-242v232h-167v-232h-149zM528 105h69c41 0 65 27 65 64v8c0 37 -24 64 -65 64h-69v-136z" />
    <glyph glyph-name="uni040B" unicode="&#x40b;" horiz-adv-x="736" 
d="M177 0v564h-157v136h507v-136h-193v-152c49 15 93 22 135 22c142 0 213 -75 213 -224v-210h-156v174c0 92 -27 124 -101 124c-30 0 -58 -6 -91 -18v-280h-157z" />
    <glyph glyph-name="uni0402" unicode="&#x402;" horiz-adv-x="746" 
d="M177 0v564h-157v136h507v-136h-193v-153c47 14 93 23 137 23c141 0 221 -82 221 -228v-200c0 -130 -77 -214 -189 -214c-27 0 -58 5 -88 16v117c15 -6 31 -8 41 -8c54 0 85 35 85 95v193c0 71 -36 100 -97 100c-34 0 -74 -9 -110 -22v-283h-157z" />
    <glyph glyph-name="uni045B" unicode="&#x45b;" horiz-adv-x="630" 
d="M81 0v541h-67v99c18 6 44 11 67 14v66h149v-65h154v-115h-154v-141c42 40 99 63 163 63h2c117 0 182 -72 182 -198v-264h-149v232c0 74 -29 105 -87 105h-1c-69 0 -110 -37 -110 -116v-221h-149z" />
    <glyph glyph-name="uni0452" unicode="&#x452;" horiz-adv-x="630" 
d="M80 0v540h-66v101c18 5 43 11 66 14v65h149v-65h155v-115h-155v-141c43 40 100 63 164 63h2c116 0 181 -72 181 -198v-292c0 -115 -57 -180 -159 -180c-30 0 -68 6 -101 18v122c17 -8 33 -11 50 -11c43 0 61 18 61 72v239c0 74 -28 105 -86 105h-2
c-69 0 -110 -37 -110 -116v-221h-149z" />
    <glyph glyph-name="uni20B8" unicode="&#x20b8;" horiz-adv-x="547" 
d="M20 601v99h507v-99h-507zM195 0v422h-175v124h507v-124h-175v-422h-157z" />
    <glyph glyph-name="ljecyr.ss01" horiz-adv-x="807" 
d="M77 -10c-26 0 -45 4 -67 12v116c14 -6 29 -8 40 -8c48 0 55 42 56 225l1 185h200c121 0 186 -62 192 -178c31 12 64 18 98 18c112 0 182 -65 182 -167c0 -111 -84 -193 -200 -193h-229v300c0 75 -18 105 -68 105h-37l-1 -106c-3 -234 -52 -309 -167 -309zM495 108h63
c46 0 78 33 78 82c0 43 -27 68 -70 68c-23 0 -51 -9 -71 -23v-127z" />
    <glyph glyph-name="njecyr.ss01" horiz-adv-x="835" 
d="M63 0v520h149v-193h167v193h149v-178c31 12 63 18 97 18c112 0 182 -65 182 -167c0 -111 -83 -193 -199 -193h-229v212h-167v-212h-149zM524 108h62c46 0 78 33 78 82c0 43 -27 68 -69 68c-24 0 -52 -9 -71 -23v-127z" />
    <glyph glyph-name="uni058F" unicode="&#x58f;" horiz-adv-x="635" 
d="M300 713c167 0 273 -93 273 -269v-92h62v-104h-62v-43h62v-104h-62v-101h-157v101h-107v104h107v43h-107v104h107v84c0 93 -46 135 -116 135c-71 0 -118 -42 -118 -135v-36h-157v44c0 171 101 269 275 269z" />
    <glyph glyph-name="uni0453" unicode="&#x453;" horiz-adv-x="412" 
d="M279 571h-111l57 164h130zM63 0v520h335v-119h-186v-401h-149z" />
    <glyph glyph-name="uni045C" unicode="&#x45c;" horiz-adv-x="563" 
d="M351 571h-111l57 164h130zM63 0v520h149v-214h9l171 214h163l-206 -239l208 -281h-173l-162 241h-10v-241h-149z" />
    <glyph glyph-name="uni2646" unicode="&#x2646;" horiz-adv-x="733" 
d="M390 720v-314c0 -107 57 -154 96 -212c30 13 52 26 52 53c0 33 -32 54 -83 54v2c0 154 59 256 205 349v-652h-158c-21 -46 -58 -90 -112 -130v-60h-46v60c-54 40 -92 84 -112 130h-158v652c145 -93 204 -195 204 -349v-2c-51 0 -84 -21 -84 -54c0 -27 23 -41 54 -54
c39 58 96 106 96 213v314h46zM517 46h97v515c-70 -60 -102 -124 -111 -224c50 -7 82 -40 82 -89c0 -52 -37 -73 -79 -92c9 -20 15 -43 15 -70c0 -13 -2 -27 -4 -40zM120 46h97c-3 13 -4 27 -4 40c0 27 5 50 14 70c-42 19 -79 40 -79 92c0 50 33 82 82 90
c-10 98 -41 162 -110 222v-514zM291 175c28 -14 57 -32 75 -63c19 32 47 50 76 63c-23 34 -54 68 -75 116c-21 -48 -53 -82 -76 -116zM391 46h78c4 14 6 27 6 40c0 19 -4 36 -11 51c-36 -18 -68 -42 -73 -91zM264 46h79c-6 49 -38 73 -74 91c-6 -15 -10 -32 -10 -51
c0 -13 2 -26 5 -40zM344 -32v32h-59c18 -30 45 -60 82 -89c36 29 63 59 81 89h-58v-32h-46z" />
    <glyph glyph-name="florin" unicode="&#x192;" horiz-adv-x="390" 
d="M96 -197c-29 0 -66 6 -98 18v122c16 -7 31 -12 50 -12c39 0 53 19 53 68v376h-69v94c19 6 47 12 69 15v51c0 113 56 179 154 179c35 0 88 -8 118 -21v-111c-25 11 -52 17 -74 17c-41 0 -57 -21 -57 -72v-41h127v-111h-119v-396c0 -109 -55 -176 -154 -176z" />
    <glyph glyph-name="plusminus" unicode="&#xb1;" horiz-adv-x="609" 
d="M243 159v164h-191v120h191v174h123v-174h191v-120h-191v-164h-123zM52 121h505v-121h-505v121z" />
    <glyph glyph-name="fraction" unicode="&#x2044;" horiz-adv-x="331" 
d="M13 -111l163 831h141l-163 -831h-141z" />
    <glyph glyph-name="onequarter" unicode="&#xbc;" horiz-adv-x="758" 
d="M106 334v218c-19 -8 -40 -11 -61 -11h-15v81l14 1c43 2 68 28 68 65v12h96v-366h-102zM17 0l528 700h145l-528 -700h-145zM366 53v67l151 240h122v-222h40v-85h-40v-59h-99v59h-174zM482 138h58v95z" />
    <glyph glyph-name="onehalf" unicode="&#xbd;" horiz-adv-x="776" 
d="M106 334v218c-19 -8 -40 -11 -61 -11h-15v81l14 1c43 2 68 28 68 65v12h96v-366h-102zM17 0l528 700h145l-528 -700h-145zM432 -1v72l6 3c62 39 158 115 158 176c0 21 -11 31 -28 31c-25 0 -34 -26 -37 -48l-2 -13l-102 19l1 11c9 59 52 121 140 121
c84 0 133 -54 133 -117c0 -67 -51 -123 -105 -166h112v-89h-276z" />
    <glyph glyph-name="threequarters" unicode="&#xbe;" horiz-adv-x="814" 
d="M176 329c-74 0 -130 40 -145 97l-3 11l94 21l5 -10c10 -19 23 -29 45 -29c29 0 46 16 46 44c0 27 -14 40 -42 40c-19 0 -32 -3 -47 -14l-37 55l72 67h-116v89h254v-71l-66 -56c57 -11 87 -64 87 -112c0 -69 -53 -132 -147 -132zM73 0l528 700h145l-528 -700h-145zM422 53
v67l151 240h122v-222h40v-85h-40v-59h-99v59h-174zM538 138h58v95z" />
    <glyph glyph-name="uni03BC" unicode="&#x3bc;" horiz-adv-x="616" 
d="M261 -11c-21 0 -39 3 -56 10l8 -199h-150v720h149v-300c0 -71 25 -106 82 -106h3c65 0 107 50 107 127v279h149v-520h-118c-7 19 -14 52 -15 76c-35 -53 -92 -87 -155 -87h-4z" />
    <glyph glyph-name="lessequal" unicode="&#x2264;" horiz-adv-x="564" 
d="M512 130l-460 201v107l460 199v-135l-290 -116v-2l290 -118v-136zM52 0v121h460v-121h-460z" />
    <glyph glyph-name="greaterequal" unicode="&#x2265;" horiz-adv-x="564" 
d="M512 331l-460 -201v136l290 118v2l-290 116v135l460 -199v-107zM512 121v-121h-460v121h460z" />
    <glyph glyph-name="minute" unicode="&#x2032;" horiz-adv-x="269" 
d="M43 426l65 274h135l-103 -274h-97z" />
    <glyph glyph-name="second" unicode="&#x2033;" horiz-adv-x="474" 
d="M39 426l65 274h135l-103 -274h-97zM242 426l65 274h135l-103 -274h-97z" />
    <glyph glyph-name="uni04D8" unicode="&#x4d8;" horiz-adv-x="730" 
d="M30 406h503c-16 103 -81 170 -176 170h-13c-72 0 -129 -35 -169 -96l-110 90c68 88 170 142 293 142h6c186 0 329 -147 329 -353v-19c0 -208 -135 -352 -329 -352h-5c-192 0 -327 142 -329 348v70zM536 293h-345c11 -108 73 -174 167 -174h11c94 0 157 66 167 174z" />
    <glyph glyph-name="uni04D9" unicode="&#x4d9;" horiz-adv-x="564" 
d="M272 530c157 0 262 -104 262 -260v-19c0 -154 -106 -262 -256 -262h-13c-140 0 -238 99 -238 237v74h362c-7 69 -56 111 -127 111h-9c-58 0 -105 -28 -136 -62l-74 93c50 51 133 88 213 88h16zM385 209h-217v-3c2 -68 42 -108 99 -108h10c58 0 97 41 108 111z" />
    <glyph glyph-name="uni0492" unicode="&#x492;" horiz-adv-x="519" 
d="M92 0v270h-67v121h67v309h407v-136h-251v-173h127v-121h-127v-270h-156z" />
    <glyph glyph-name="uni0493" unicode="&#x493;" horiz-adv-x="422" 
d="M73 0v185h-54v95c14 5 34 10 54 13v227h335v-119h-186v-105h113v-111h-113v-185h-149z" />
    <glyph glyph-name="uni04E8" unicode="&#x4e8;" horiz-adv-x="761" 
d="M37 340v20c0 213 136 354 337 354h13c198 0 337 -143 337 -354v-20c0 -211 -139 -354 -337 -354h-13c-198 0 -337 144 -337 354zM202 406h357c-15 106 -82 171 -173 171h-11c-91 0 -158 -65 -173 -171zM559 293h-357c15 -106 82 -171 173 -171h11c91 0 158 65 173 171z
" />
    <glyph glyph-name="uni04E9" unicode="&#x4e9;" 
d="M294 -11c-156 0 -264 105 -264 256v30c0 151 108 256 264 256h10c156 0 264 -105 264 -256v-30c0 -151 -108 -256 -264 -256h-10zM186 308h226c-8 72 -49 118 -108 118h-10c-59 0 -100 -46 -108 -118zM294 94h10c59 0 100 48 108 123h-226c8 -75 49 -123 108 -123z" />
    <glyph glyph-name="uni04A2" unicode="&#x4a2;" horiz-adv-x="721" 
d="M554 -135v135h-90v287h-234v-287h-157v700h157v-277h234v277h156v-567h83v-268h-149z" />
    <glyph glyph-name="uni04A3" unicode="&#x4a3;" horiz-adv-x="631" 
d="M472 -128v128h-83v216h-177v-216h-149v520h149v-189h177v189h149v-409h75v-239h-141z" />
    <glyph glyph-name="uni049A" unicode="&#x49a;" horiz-adv-x="654" 
d="M74 0v700h156v-292h8l219 292h178l-261 -322l181 -245h98v-268h-148v135h-39l-228 328h-8v-328h-156z" />
    <glyph glyph-name="uni049B" unicode="&#x49b;" horiz-adv-x="563" 
d="M63 0v520h149v-214h9l171 214h163l-206 -239l126 -170h83v-239h-141v128h-33l-162 241h-10v-241h-149z" />
    <glyph glyph-name="uni04B0" unicode="&#x4b0;" horiz-adv-x="625" 
d="M124 212v121h80l-210 367h180l134 -281h7l133 281h179l-209 -367h80v-121h-108v-212h-157v212h-109z" />
    <glyph glyph-name="uni04B1" unicode="&#x4b1;" horiz-adv-x="544" 
d="M109 -114v114h76l-179 520h156l105 -390h10l105 390h156l-179 -520h74v-114h-87v-86h-149v86h-88z" />
    <glyph glyph-name="uni04BA" unicode="&#x4ba;" horiz-adv-x="645" 
d="M230 700v-263c53 16 98 23 141 23c146 0 219 -74 219 -223v-237h-156v202c0 93 -28 124 -106 124c-31 0 -60 -6 -98 -19v-307h-157v700h157z" />
    <glyph glyph-name="uni04BB" unicode="&#x4bb;" horiz-adv-x="613" 
d="M63 0v720h149v-259c44 44 104 70 170 70c112 0 177 -73 177 -198v-333h-149v301c0 71 -28 105 -88 105c-69 0 -110 -45 -110 -120v-286h-149z" />
    <glyph glyph-name="uni04AF" unicode="&#x4af;" horiz-adv-x="544" 
d="M185 0l-179 520h156l105 -390h10l105 390h156l-179 -520h-13v-200h-149v200h-12z" />
    <glyph glyph-name="uni04AE" unicode="&#x4ae;" horiz-adv-x="622" 
d="M233 0v273l-239 427h180l134 -281h7l133 281h179l-237 -427v-273h-157z" />
    <glyph glyph-name="partialdiff" unicode="&#x2202;" horiz-adv-x="617" 
d="M182 636l13 105c44 10 86 16 123 16c196 0 262 -125 262 -310c0 -54 -5 -110 -15 -165c-26 -175 -141 -293 -303 -293c-140 0 -232 90 -232 220c0 151 108 299 269 299c63 0 115 -29 146 -75c0 131 -40 214 -185 214c-24 0 -50 -4 -78 -11zM278 100c89 0 133 102 133 179
c0 72 -34 121 -91 121c-91 0 -134 -101 -134 -182c0 -71 34 -118 92 -118z" />
    <glyph glyph-name="uni2206" unicode="&#x2206;" horiz-adv-x="650" 
d="M-7 0l233 700h200l231 -700h-664zM197 125h256l-122 413h-11z" />
    <glyph glyph-name="integral" unicode="&#x222b;" horiz-adv-x="364" 
d="M74 -197c-32 0 -69 6 -100 18v122c15 -7 29 -12 47 -12c37 0 49 18 54 72l56 534c13 114 58 181 156 181c34 0 72 -6 103 -19v-123c-19 9 -36 15 -55 15c-38 0 -49 -20 -54 -71l-57 -540c-12 -113 -56 -177 -150 -177z" />
    <glyph glyph-name="summation" unicode="&#x2211;" horiz-adv-x="561" 
d="M409 351l-174 -210v-5h292v-136h-487v118l203 233l-203 231v118h487v-136h-292v-5z" />
    <glyph glyph-name="radical" unicode="&#x221a;" horiz-adv-x="690" 
d="M265 0l-126 396h-125v124h244l105 -361h9l152 541h162l-217 -700h-204z" />
    <glyph glyph-name="infinity" unicode="&#x221e;" horiz-adv-x="902" 
d="M225 492c83 0 164 -39 226 -97c62 58 143 97 226 97c90 0 165 -64 165 -157v-10c0 -93 -75 -157 -165 -157c-83 0 -164 39 -226 97c-62 -58 -143 -97 -226 -97c-90 0 -165 64 -165 157v10c0 93 75 157 165 157zM714 329v2c0 32 -24 52 -65 52c-40 0 -81 -21 -127 -53
c46 -32 87 -53 127 -53c41 0 65 20 65 52zM188 331v-2c0 -32 24 -52 65 -52c40 0 81 21 127 53c-46 32 -87 53 -127 53c-41 0 -65 -20 -65 -52z" />
    <glyph glyph-name="uni03A9" unicode="&#x3a9;" horiz-adv-x="781" 
d="M209 366v-20c0 -110 59 -189 133 -211v-135h-268v130h63c-56 58 -90 136 -90 227v20c0 202 136 337 337 337h13c200 0 337 -135 337 -339v-20c0 -90 -35 -167 -91 -225h64v-130h-269v136c75 22 134 100 134 210v20c0 127 -73 211 -176 211h-11c-103 0 -176 -84 -176 -211
z" />
    <glyph glyph-name="pi" unicode="&#x3c0;" horiz-adv-x="608" 
d="M514 -9c-88 0 -148 50 -148 165v249h-134v-405h-149v405h-64v115h560v-115h-64v-223c0 -58 13 -72 42 -72c7 0 19 2 30 8v-116c-25 -8 -48 -11 -73 -11z" />
    <glyph glyph-name="longs" unicode="&#x17f;" horiz-adv-x="294" 
d="M63 0v539c0 113 56 179 154 179c36 0 88 -8 118 -21v-111c-24 11 -49 17 -68 17c-39 0 -55 -21 -55 -75v-528h-149z" />
    <glyph glyph-name="uni0394" unicode="&#x394;" horiz-adv-x="650" 
d="M-7 0l233 700h200l231 -700h-664zM197 125h256l-122 413h-11z" />
    <glyph glyph-name="product" unicode="&#x220f;" horiz-adv-x="720" 
d="M28 564v136h664v-136h-65v-564h-156v564h-223v-564h-157v564h-63z" />
    <glyph glyph-name="notequal" unicode="&#x2260;" horiz-adv-x="593" 
d="M49 366v120h289l82 144h100l-83 -144h107v-120h-174l-47 -82h221v-119h-289l-82 -145h-100l83 145h-107v119h174l47 82h-221z" />
    <glyph glyph-name="proportional" unicode="&#x221d;" horiz-adv-x="737" 
d="M677 277v-109c-83 0 -164 39 -226 97c-62 -58 -143 -97 -226 -97c-90 0 -165 64 -165 157v10c0 93 75 157 165 157c83 0 164 -39 226 -97c62 58 143 97 226 97v-109c-41 0 -108 -17 -155 -53c48 -36 114 -53 155 -53zM188 331v-2c0 -32 24 -52 65 -52c40 0 81 21 127 53
c-46 32 -87 53 -127 53c-41 0 -65 -20 -65 -52z" />
    <glyph glyph-name="approxequal" unicode="&#x2248;" horiz-adv-x="600" 
d="M54 351v124c40 35 81 47 121 47c87 0 174 -56 257 -56c39 0 77 12 114 47v-124c-37 -34 -75 -46 -113 -46c-85 0 -171 60 -258 60c-40 0 -81 -13 -121 -52zM54 147v124c40 35 81 47 121 47c87 0 174 -56 257 -56c39 0 77 12 114 47v-124c-37 -34 -75 -46 -113 -46
c-85 0 -171 60 -258 60c-40 0 -81 -13 -121 -52z" />
    <glyph glyph-name="uni018F" unicode="&#x18f;" horiz-adv-x="730" 
d="M30 406h503c-16 103 -81 170 -176 170h-13c-72 0 -129 -35 -169 -96l-110 90c68 88 170 142 293 142h6c186 0 329 -147 329 -353v-19c0 -208 -135 -352 -329 -352h-5c-192 0 -327 142 -329 348v70zM536 293h-345c11 -108 73 -174 167 -174h11c94 0 157 66 167 174z" />
    <glyph glyph-name="uni01DD" unicode="&#x1dd;" horiz-adv-x="564" 
d="M272 530c157 0 262 -104 262 -260v-19c0 -154 -106 -262 -256 -262h-13c-140 0 -238 99 -238 237v74h362c-7 69 -56 111 -127 111h-9c-58 0 -105 -28 -136 -62l-74 93c50 51 133 88 213 88h16zM385 209h-217v-3c2 -68 42 -108 99 -108h10c58 0 97 41 108 111z" />
    <glyph glyph-name="Oslashacute" unicode="&#x1fe;" horiz-adv-x="761" 
d="M513 892l-81 -152h-113l55 152h139zM102 -36l54 97c-74 63 -119 160 -119 279v20c0 213 137 354 337 354h13c48 0 92 -8 131 -24l25 45h116l-54 -95c75 -63 119 -160 119 -280v-20c0 -211 -138 -354 -337 -354h-13c-47 0 -91 8 -130 24l-26 -46h-116zM194 340
c0 -63 15 -116 41 -154l224 387c-22 10 -46 15 -73 15h-11c-106 0 -181 -87 -181 -227v-21zM526 515l-224 -387c22 -11 47 -16 73 -16h11c107 0 182 87 182 228v21c0 63 -15 115 -42 154z" />
    <glyph glyph-name="oslashacute" unicode="&#x1ff;" 
d="M348 570h-111l57 164h130zM66 -42l52 90c-55 46 -88 114 -88 197v30c0 151 108 256 264 256h10c35 0 67 -5 96 -15l26 44h107l-51 -89c54 -45 86 -114 86 -196v-30c0 -151 -108 -256 -264 -256h-10c-33 0 -64 5 -93 14l-27 -45h-108zM195 155l157 260c-14 6 -30 9 -47 9
h-11c-73 0 -121 -58 -121 -149v-24c0 -38 7 -71 22 -96zM294 96h11c73 0 121 61 121 155v24c0 36 -8 66 -21 91l-158 -261c14 -6 30 -9 47 -9z" />
    <glyph glyph-name="AEacute" unicode="&#x1fc;" horiz-adv-x="846" 
d="M583 895l-81 -152h-113l55 152h139zM-7 0l240 700h551v-136h-256v-148h236v-129h-236v-151h266v-136h-414v146h-172l-48 -146h-167zM243 271h137v293h-44z" />
    <glyph glyph-name="aeacute" unicode="&#x1fd;" horiz-adv-x="872" 
d="M491 551h-111l57 164h130zM203 -10c-101 0 -171 60 -171 155c0 112 95 168 286 168h36c0 7 -1 22 -1 28c-4 47 -31 73 -87 73c-46 0 -100 -16 -153 -50l-56 102c62 41 140 64 218 64c62 0 117 -17 155 -62c43 39 101 62 168 62h9c139 0 238 -99 238 -237v-73h-357v-1
c7 -68 56 -111 125 -111h5c53 0 105 26 137 62l74 -93c-49 -51 -136 -88 -215 -88h-12c-82 0 -150 32 -196 84c-62 -62 -132 -83 -203 -83zM491 309h213v4c-2 67 -43 108 -99 108h-6c-56 0 -96 -42 -108 -112zM358 159c-4 12 -7 25 -9 39c-2 10 -2 19 -3 30h-18
c-104 0 -155 -26 -155 -71c0 -32 28 -54 70 -54s87 21 115 56z" />
    <glyph glyph-name="uni2010" unicode="&#x2010;" horiz-adv-x="450" 
d="M65 250v120h320v-120h-320z" />
    <glyph glyph-name="uni04D4" unicode="&#x4d4;" horiz-adv-x="846" 
d="M-7 0l240 700h551v-136h-256v-148h236v-129h-236v-151h266v-136h-414v146h-172l-48 -146h-167zM243 271h137v293h-44z" />
    <glyph glyph-name="uni04D5" unicode="&#x4d5;" horiz-adv-x="872" 
d="M203 -10c-101 0 -171 60 -171 155c0 112 95 168 286 168h36c0 7 -1 22 -1 28c-4 47 -31 73 -87 73c-46 0 -100 -16 -153 -50l-56 102c62 41 140 64 218 64c62 0 117 -17 155 -62c43 39 101 62 168 62h9c139 0 238 -99 238 -237v-73h-357v-1c7 -68 56 -111 125 -111h5
c53 0 105 26 137 62l74 -93c-49 -51 -136 -88 -215 -88h-12c-82 0 -150 32 -196 84c-62 -62 -132 -83 -203 -83zM491 309h213v4c-2 67 -43 108 -99 108h-6c-56 0 -96 -42 -108 -112zM358 159c-4 12 -7 25 -9 39c-2 10 -2 19 -3 30h-18c-104 0 -155 -26 -155 -71
c0 -32 28 -54 70 -54s87 21 115 56z" />
    <glyph glyph-name="uni1EBC" unicode="&#x1ebc;" horiz-adv-x="559" 
d="M284 878c22 -9 43 -17 66 -17c25 0 30 18 31 36h119c-4 -87 -43 -147 -110 -147c-36 0 -62 11 -88 21c-22 9 -43 17 -66 17c-25 0 -30 -18 -30 -36h-120c4 87 43 147 110 147c36 0 62 -10 88 -21zM74 0v700h423v-136h-267v-148h247v-129h-247v-151h277v-136h-433z" />
    <glyph glyph-name="uni1EBD" unicode="&#x1ebd;" horiz-adv-x="564" 
d="M285 711c21 -8 42 -16 63 -16c24 0 28 17 29 34h119c-3 -78 -38 -139 -103 -139c-35 0 -60 8 -84 18c-20 7 -42 15 -63 15c-24 0 -28 -16 -29 -34h-119c3 77 39 139 103 139c35 0 60 -8 84 -17zM292 -11c-157 0 -262 104 -262 260v19c0 154 106 262 256 262h13
c140 0 238 -99 238 -237v-74h-362c7 -69 56 -111 127 -111h9c58 0 105 28 136 62l74 -93c-50 -51 -133 -88 -213 -88h-16zM179 310h217v3c-2 68 -42 108 -99 108h-10c-58 0 -97 -41 -108 -111z" />
    <glyph glyph-name="uni01CD" unicode="&#x1cd;" horiz-adv-x="650" 
d="M243 754l-110 128h131l52 -53h18l52 53h131l-110 -128h-164zM-7 0l233 700h200l231 -700h-167l-45 146h-241l-44 -146h-167zM237 271h176l-82 267h-11z" />
    <glyph glyph-name="uni01CE" unicode="&#x1ce;" horiz-adv-x="563" 
d="M201 588l-112 131h130l55 -56h18l55 56h130l-112 -131h-164zM205 -11c-101 0 -173 61 -173 153v12c0 111 94 168 291 168h39v15c0 48 -30 79 -88 79h-5c-48 0 -102 -16 -156 -51l-56 102c62 40 143 64 223 64h9c132 0 213 -74 213 -199v-213c0 -42 7 -80 18 -119h-139
c-6 16 -11 37 -14 59c-38 -44 -98 -70 -162 -70zM243 102c44 0 88 20 119 55v78h-30c-108 0 -159 -24 -159 -72v-5c0 -33 28 -56 70 -56z" />
    <glyph glyph-name="uni0403" unicode="&#x403;" horiz-adv-x="501" 
d="M406 895l-81 -152h-113l55 152h139zM74 0v700h407v-136h-251v-564h-156z" />
    <glyph glyph-name="uni040C" unicode="&#x40c;" horiz-adv-x="654" 
d="M480 895l-81 -152h-113l55 152h139zM74 0v700h156v-292h8l219 292h178l-261 -322l279 -378h-187l-228 328h-8v-328h-156z" />
    <glyph glyph-name="uniE000.alt" horiz-adv-x="549" 
d="M505 590c-42 0 -70 27 -70 69s28 70 70 70s71 -28 71 -70s-29 -69 -71 -69zM350 590c-40 0 -69 28 -69 69s29 70 69 70c43 0 72 -29 72 -70s-29 -69 -72 -69zM196 590c-40 0 -69 28 -69 69s29 70 69 70c43 0 72 -29 72 -70s-29 -69 -72 -69zM44 590c-41 0 -70 27 -70 69
s29 70 70 70c40 0 71 -28 71 -70s-31 -69 -71 -69zM63 0v520h149v-520h-149zM337 0v520h149v-520h-149z" />
    <glyph glyph-name="arrowleft" unicode="&#x2190;" horiz-adv-x="698" 
d="M282 82l-226 246v10l226 246l86 -79l-112 -116h396v-113h-396l112 -116z" />
    <glyph glyph-name="arrowup" unicode="&#x2191;" horiz-adv-x="578" 
d="M38 404l246 226h10l246 -226l-79 -86l-116 112v-396h-113v396l-116 -112z" />
    <glyph glyph-name="arrowright" unicode="&#x2192;" horiz-adv-x="698" 
d="M642 328l-226 -246l-86 78l112 116h-396v113h396l-112 116l86 79l226 -246v-10z" />
    <glyph glyph-name="arrowdown" unicode="&#x2193;" horiz-adv-x="578" 
d="M284 34l-246 226l78 86l116 -112v396h113v-396l116 112l79 -86l-246 -226h-10z" />
    <glyph glyph-name="arrowdown.ss01" horiz-adv-x="578" 
d="M294 34h-10c-104 73 -159 122 -246 226l86 74c41 -48 74 -83 108 -115v411h113v-411c35 32 68 67 108 115l87 -74c-88 -104 -142 -153 -246 -226z" />
    <glyph glyph-name="arrowleft.ss01" horiz-adv-x="698" 
d="M56 328v10c73 104 122 158 226 246l74 -87c-48 -40 -83 -73 -115 -108h411v-113h-411c32 -34 67 -67 115 -108l-74 -86c-104 87 -153 142 -226 246z" />
    <glyph glyph-name="arrowright.ss01" horiz-adv-x="698" 
d="M642 338v-10c-73 -104 -122 -159 -226 -246l-74 86c48 41 83 74 115 108h-411v113h411c-32 35 -67 68 -115 108l74 87c104 -88 153 -142 226 -246z" />
    <glyph glyph-name="arrowup.ss01" horiz-adv-x="578" 
d="M284 630h10c104 -73 158 -122 246 -226l-87 -74c-40 48 -73 83 -108 115v-411h-113v411c-34 -32 -67 -67 -108 -115l-86 74c87 104 142 153 246 226z" />
    <glyph glyph-name="yiCy.alt" horiz-adv-x="275" 
d="M220 590c-40 0 -67 27 -67 69s27 70 67 70c39 0 68 -28 68 -70s-29 -69 -68 -69zM54 590c-40 0 -68 27 -68 69s28 70 68 70c38 0 67 -28 67 -70s-29 -69 -67 -69zM63 0v520h149v-520h-149z" />
    <glyph glyph-name="uni0460" unicode="&#x460;" horiz-adv-x="1073" 
d="M320 -13c-169 0 -273 108 -273 311v102c0 213 80 312 218 312c27 0 53 -4 75 -14v-131c-16 6 -29 9 -44 9c-66 0 -92 -51 -92 -180v-90c0 -127 52 -177 132 -177c79 0 122 54 122 177v214h157v-214c0 -123 44 -177 122 -177c81 0 132 56 132 177v90
c0 129 -25 180 -92 180c-15 0 -28 -3 -43 -9v131c22 10 47 14 75 14c137 0 217 -99 217 -312v-102c0 -203 -104 -311 -272 -311c-98 0 -173 40 -217 116c-44 -76 -120 -116 -217 -116z" />
    <glyph glyph-name="uni0461" unicode="&#x461;" horiz-adv-x="822" 
d="M807 520c-36 -198 -81 -355 -157 -520h-162c-33 70 -61 140 -84 212c-22 -72 -49 -141 -82 -212h-150c-75 165 -121 322 -156 520h152c13 -148 41 -279 89 -390h8c37 85 61 182 75 289c-7 33 -13 66 -19 101h152c11 -148 35 -279 86 -390h8c46 111 74 242 87 390h153z
" />
    <glyph glyph-name="uni0462" unicode="&#x462;" horiz-adv-x="699" 
d="M129 705h156v-70h140v-121h-140v-79h140c145 0 241 -84 241 -213v-7c0 -129 -99 -215 -248 -215h-289v514h-109v121h109v70zM282 132h129c58 0 98 33 98 87v8c0 53 -41 87 -98 87h-129v-182z" />
    <glyph glyph-name="uni0463" unicode="&#x463;" horiz-adv-x="550" 
d="M88 640l149 18v-138h146v-108h-146v-72h109c106 0 180 -69 180 -161v-17c0 -93 -76 -162 -186 -162h-252v404h-77v99c22 6 50 11 77 14v123zM231 106h80c37 0 67 26 67 60v11c0 35 -30 60 -67 60h-80v-131z" />
    <glyph glyph-name="uni0464" unicode="&#x464;" horiz-adv-x="933" 
d="M628 -12c-183 0 -316 120 -338 299h-60v-287h-157v700h157v-277h62c26 172 159 289 333 289h7c114 0 215 -54 274 -149l-115 -87c-35 61 -87 99 -156 99h-12c-90 0 -155 -62 -174 -158h258v-121h-260c15 -103 82 -170 178 -170h12c68 0 123 37 158 97l113 -86
c-59 -96 -157 -149 -274 -149h-6z" />
    <glyph glyph-name="uni0465" unicode="&#x465;" horiz-adv-x="772" 
d="M525 -10c-144 0 -247 93 -261 226h-52v-216h-149v520h149v-189h56c24 118 124 199 253 199h9c93 0 171 -41 223 -115l-105 -75c-31 53 -68 76 -116 76h-7c-55 0 -93 -32 -107 -91h173v-107h-177c10 -70 53 -111 115 -111h10c46 0 84 25 113 76l104 -80
c-52 -74 -127 -113 -222 -113h-9z" />
    </font>
</defs>
</svg>
